<svg width="401" height="584" viewBox="0 0 401 584" fill="none" xmlns="http://www.w3.org/2000/svg">
<path d="M0 0V584H224V0H0Z" fill="white"/>
<path d="M401 0H223L45 584H222.755L401 0Z" fill="#CB0000"/>
<path d="M344 99.239H318.117V97.6533C320.044 96.4694 321.572 94.5878 322.703 92.0085C323.834 89.4292 324.399 86.6808 324.399 83.7633C324.399 80.8457 323.698 78.3827 322.295 76.3743C320.892 74.3658 318.808 73.3616 316.044 73.3616C314.369 73.3616 312.903 73.8267 311.647 74.7569C310.39 75.6872 309.762 76.9134 309.762 78.4356V99.239H304.485V79.7675C304.485 78.0339 303.71 76.5857 302.161 75.4229C300.611 74.2601 298.852 73.6787 296.884 73.6787C293.366 73.6787 290.633 74.7147 288.685 76.7865C286.738 78.8584 285.534 82.1777 285.073 86.7442L285.324 86.871C287.167 83.7844 289.387 82.241 291.984 82.241C294.12 82.241 295.816 83.1607 297.072 85C298.328 86.8393 298.957 88.964 298.957 91.3742C298.957 93.7843 298.349 95.8245 297.135 97.4947C295.921 99.1649 294.057 100 291.544 100C289.031 100 286.979 98.8161 285.387 96.4482C283.796 94.0803 283 91.1839 283 87.759C283 82.7273 284.445 78.5095 287.335 75.1057C290.225 71.7019 293.931 70 298.454 70C300.59 70 302.454 70.4228 304.045 71.2685C305.637 72.1142 307.166 73.425 308.631 75.2009C309.72 73.5941 311.081 72.3467 312.715 71.4588C314.348 70.5708 315.981 70.1268 317.615 70.1268C321.426 70.1268 324.358 71.4482 326.41 74.0909C328.462 76.7336 329.488 79.9577 329.488 83.7632C329.488 86.3425 329.017 88.7843 328.075 91.0888C327.132 93.3932 325.782 95.2854 324.023 96.7653L324.148 97.019H339.351V70.6343H344L344 99.239ZM287.46 86.7442C286.623 87.7168 286.204 89.0592 286.204 90.7717C286.204 92.4842 286.633 93.8161 287.492 94.7675C288.35 95.7189 289.408 96.1946 290.664 96.1946C291.921 96.1946 292.926 95.6766 293.68 94.6407C294.434 93.6047 294.811 92.3574 294.811 90.8986C294.811 89.4398 294.413 88.1502 293.617 87.0297C292.821 85.9091 291.816 85.3489 290.602 85.3489C289.387 85.3489 288.34 85.814 287.46 86.7442V86.7442Z" fill="#DC430E"/>
<path d="M270.999 116.947C271.02 119.145 270.736 121.302 270.146 123.416C269.555 125.531 268.454 127.404 266.841 129.035C265.228 130.665 263.177 131.493 260.689 131.516C258.201 131.54 256.109 130.439 254.413 128.211C252.717 125.984 251.855 123.356 251.825 120.328C251.796 117.299 252.788 114.631 254.801 112.323C256.86 110.015 259.538 108.599 262.836 108.073C261.086 104.949 258.379 103.405 254.715 103.44C252.86 103.458 251.089 103.968 249.402 104.971C247.715 105.975 246.88 107.329 246.896 109.034L247.11 130.973L241.274 131.029L241.091 112.253C241.068 109.92 240.11 107.899 238.216 106.189C236.321 104.48 234.175 103.637 231.777 103.66L229.606 103.68C232.652 105.177 234.189 107.349 234.216 110.198C234.244 113.047 232.886 115.27 230.141 116.867C233.68 117.865 235.465 119.935 235.496 123.075C235.519 125.453 234.622 127.503 232.807 129.226C230.991 130.948 228.884 131.821 226.487 131.844C223.048 131.877 220.354 130.523 218.405 127.782C216.455 125.041 215.463 121.921 215.429 118.421C215.372 112.589 217.499 107.947 221.809 104.495C220.766 104.281 219.521 104.181 218.073 104.195C214.273 104.231 211.346 105.672 209.292 108.519C207.239 111.365 206.231 114.718 206.268 118.576C206.295 121.313 206.839 123.787 207.902 125.998C208.964 128.209 210.495 129.821 212.496 130.834L210.2 132C207.926 130.855 206.166 128.965 204.919 126.33C203.671 123.694 203.032 120.784 203.001 117.598C202.957 113.022 204.196 109.016 206.719 105.582C209.242 102.148 212.856 100.408 217.561 100.363C220.863 100.332 223.47 100.845 225.381 101.904C227.723 100.804 230.59 100.238 233.983 100.206C239.412 100.154 243.231 102.002 245.439 105.75C247.71 101.959 251.028 100.043 255.394 100.001C259.76 99.959 263.441 101.64 266.438 105.044C269.434 108.448 270.955 112.415 270.999 116.947V116.947ZM254.463 119.461C254.48 121.166 255.017 122.9 256.075 124.662C257.133 126.424 258.533 127.297 260.275 127.28C262.016 127.263 263.353 126.252 264.283 124.247C265.214 122.241 265.667 119.96 265.642 117.402C265.617 114.845 265.028 112.45 263.875 110.217C261.118 110.558 258.854 111.533 257.083 113.143C255.311 114.753 254.438 116.859 254.463 119.461V119.461ZM229.73 123.4C229.7 120.304 227.219 118.78 222.288 118.827L222.152 118.828L222.129 116.472L223.826 116.456C225.228 116.443 226.49 115.915 227.611 114.872C228.732 113.829 229.286 112.668 229.274 111.39C229.261 110.111 228.74 108.893 227.711 107.737C226.682 106.58 225.532 105.783 224.26 105.347C222.099 106.444 220.454 108.232 219.324 110.711C218.195 113.19 217.642 115.685 217.667 118.198C217.691 120.71 218.324 122.981 219.565 125.011C220.807 127.041 222.559 128.045 224.821 128.023C226.133 128.011 227.282 127.562 228.269 126.678C229.256 125.793 229.743 124.701 229.73 123.399L229.73 123.4Z" fill="#DC430E"/>
<path d="M282.62 20.3992C284.612 17.7614 286.896 16.4594 289.471 16.4932C292.047 16.5269 294.29 17.7325 296.2 20.1101C298.11 22.4877 299.043 25.4061 298.998 28.8651C298.954 32.3242 297.869 35.2247 295.743 37.5667C293.618 39.9087 290.477 41.0525 286.321 40.9981C283.642 40.9631 281.297 40.3615 279.285 39.1934C277.274 38.0254 276.279 36.5766 276.301 34.847L276.31 34.1725L278.01 34.1948L278.002 34.8175C277.989 35.8206 278.733 36.7385 280.234 37.5712C281.734 38.4039 283.429 38.8325 285.318 38.8573C288.306 38.8964 290.603 37.9232 292.209 35.9376C293.815 33.952 294.636 31.4978 294.674 28.575C294.712 25.652 294.037 23.3685 292.65 21.7243C291.263 20.08 289.676 19.2462 287.89 19.2228C286.723 19.2075 285.739 19.5406 284.94 20.2221C284.142 20.9035 283.735 21.8323 283.719 23.0083L283.624 30.428L279.193 30.37L279.265 24.8182C279.29 22.8811 278.914 21.4058 278.137 20.3923C277.326 19.3784 276.233 18.8625 274.859 18.8445C273.486 18.8264 272.18 19.5272 270.942 20.9467C269.704 22.3663 269.07 24.2695 269.039 26.6563L269.027 27.5384C268.988 27.9184 268.966 28.2814 268.961 28.6273C268.957 28.9732 269.037 29.4413 269.201 30.0317L267.501 30.0094C267.37 29.5233 267.309 28.8997 267.319 28.1387L267.344 26.2189C267.382 23.2441 268.272 20.8513 270.013 19.0404C271.788 17.2647 273.929 16.3932 276.436 16.4261C278.943 16.4589 281.004 17.7833 282.619 20.3992L282.62 20.3992ZM263.739 34.1116C263.712 36.1524 262.962 37.734 261.487 38.8564C260.013 39.9788 258.443 40.5291 256.777 40.5072C255.112 40.4855 253.92 40.2969 253.204 39.9415L252.575 36.7677C253.252 37.5031 254.166 37.8783 255.317 37.8934C256.467 37.9085 257.425 37.5924 258.189 36.945C258.919 36.2972 259.291 35.342 259.308 34.0795C259.324 32.8169 258.961 31.6791 258.218 30.6661C257.441 29.6526 256.297 29.1359 254.786 29.1162L252.674 29.0885L252.701 26.9612L254.814 26.9889C255.775 27.0015 256.552 26.683 257.145 26.0334C257.703 25.3834 257.987 24.6088 257.999 23.7094C258.018 22.222 257.262 20.958 255.729 19.9173C254.197 18.8766 252.538 18.3446 250.752 18.3211C247.455 18.2779 244.764 19.1768 242.679 21.0177C240.594 22.8586 239.338 25.6964 238.911 29.531L239.012 29.6363C240.555 27.1656 242.46 25.945 244.727 25.9747C246.616 25.9994 248.092 26.7626 249.154 28.2642C250.217 29.7658 250.736 31.4851 250.711 33.4222C250.686 35.3593 250.123 37.0212 249.024 38.408C247.924 39.7947 246.326 40.4743 244.231 40.4468C242.136 40.4193 240.398 39.3413 239.017 37.2128C237.636 35.0843 236.964 32.5846 237.001 29.7137C237.061 25.0785 238.497 21.6204 241.309 19.3393C244.155 17.0586 247.708 15.9462 251.966 16.002C254.783 16.0389 257.375 16.7821 259.744 18.2316C262.112 19.681 263.284 21.3829 263.259 23.3374C263.234 25.2917 262.011 26.8758 259.591 28.0896C260.89 28.5564 261.91 29.3395 262.652 30.439C263.393 31.5385 263.756 32.7627 263.738 34.1118L263.739 34.1116ZM243.499 37.3234C244.632 37.3383 245.548 36.9178 246.246 36.062C246.944 35.2062 247.301 34.1816 247.316 32.9883C247.332 31.7949 247.01 30.7528 246.352 29.8619C245.694 28.9711 244.815 28.5185 243.716 28.5041C242.617 28.4897 241.685 28.858 240.919 29.6091C240.154 30.3602 239.762 31.4449 239.744 32.8631C239.725 34.2814 240.063 35.3756 240.758 36.1458C241.452 36.916 242.366 37.3086 243.499 37.3234Z" fill="#D94511"/>
<path d="M278.169 166.323V165.939C278.169 163.447 277.703 161.578 276.77 160.332C275.837 159.086 274.661 158.463 273.243 158.463C271.34 158.463 269.568 159.416 267.926 161.321C266.321 163.264 265.519 165.545 265.519 168.165C265.519 170.785 266.05 173.085 267.114 175.063C268.178 177.042 269.773 178.545 271.9 179.571L270.668 180.89C268.094 179.607 266.172 177.775 264.903 175.393C263.634 173.011 263 170.464 263 167.753C263 163.868 264.101 160.772 266.302 158.463C268.504 156.154 270.892 155 273.467 155C276.042 155 278.141 155.889 279.764 157.666C281.387 159.443 282.199 162.036 282.199 165.444V169.731C282.199 172.59 282.852 174.724 284.158 176.135C285.464 177.546 286.957 178.252 288.636 178.252C290.315 178.252 291.733 177.83 292.89 176.987C294.047 176.144 294.625 175.082 294.625 173.799V155.55H299.383V171.051C299.383 173.14 299.85 174.743 300.782 175.86C301.715 176.978 302.891 177.537 304.309 177.537C306.287 177.537 308.124 176.566 309.822 174.624C311.52 172.681 312.369 170.153 312.369 167.038C312.369 164.876 311.809 162.842 310.69 160.937C309.608 158.994 308.041 157.529 305.988 156.539L307.499 155.11C309.962 156.393 311.828 158.179 313.097 160.469C314.366 162.76 315 165.206 315 167.808C315 171.619 313.871 174.77 311.614 177.262C309.356 179.754 306.688 181 303.609 181C300.531 181 297.909 179.571 295.745 176.712C293.767 179.571 291.118 181 287.796 181C285.222 181 282.945 180.084 280.968 178.252C279.027 176.383 278.076 173.891 278.113 170.776V170.611L278.169 166.323Z" fill="#DC430E"/>
<path d="M244 203.239H215.342V201.78C217.549 200.258 219.205 198.398 220.309 196.199C221.413 194 221.965 191.759 221.965 189.476C221.965 185.882 220.861 182.985 218.653 180.787C216.446 178.588 213.856 177.488 210.884 177.488C207.912 177.488 205.311 178.609 203.082 180.85C200.853 183.091 199.505 186.389 199.038 190.744L199.293 190.871C201.246 187.784 203.443 186.241 205.884 186.241C208.326 186.241 210.247 187.171 211.648 189.032C213.049 190.892 213.75 193.017 213.75 195.406C213.75 197.795 213.081 199.825 211.743 201.495C210.406 203.165 208.389 204 205.693 204C202.997 204 200.864 202.858 199.293 200.575C197.764 198.292 197 195.438 197 192.013C197 186.135 198.486 181.664 201.458 178.598C204.43 175.533 207.986 174 212.126 174C216.265 174 219.832 175.311 222.825 177.932C225.818 180.554 227.315 184.116 227.315 188.619C227.315 193.123 225.447 197.256 221.71 201.019H238.587V174.634H244L244 203.239ZM205.025 189.412C203.666 189.412 202.52 189.877 201.585 190.808C200.651 191.738 200.184 193.07 200.184 194.803C200.184 196.537 200.62 197.869 201.49 198.799C202.36 199.729 203.496 200.195 204.897 200.195C206.298 200.195 207.413 199.666 208.241 198.609C209.069 197.552 209.483 196.294 209.483 194.835C209.483 193.376 209.079 192.108 208.273 191.03C207.466 189.951 206.383 189.412 205.025 189.412Z" fill="#DC430E"/>
<path d="M298.999 223.477C299.02 225.727 298.468 227.85 297.344 229.846C296.221 231.842 294.611 233.483 292.514 234.767L289.819 233.895C292.888 231.442 294.405 228.212 294.369 224.205C294.339 220.971 293.348 218.168 291.394 215.795C289.44 213.422 286.882 212.25 283.721 212.279C282.632 212.289 281.58 212.544 280.566 213.046C282.336 214.506 283.783 216.251 284.908 218.279C286.033 220.308 286.606 222.412 286.625 224.591C286.654 227.755 285.877 230.24 284.295 232.047C282.713 233.854 280.85 234.768 278.707 234.787C276.565 234.806 274.721 233.962 273.178 232.253C271.634 230.545 270.848 228.127 270.819 224.998C270.8 222.889 271.3 220.837 272.318 218.842C273.337 216.846 274.683 215.173 276.357 213.822C275.016 213.202 273.766 212.897 272.607 212.907C270.078 212.93 267.919 214.057 266.129 216.288C264.34 218.519 263.459 221.058 263.485 223.905C263.526 228.474 265.243 231.868 268.636 234.087L266.852 235C262.998 232.293 261.048 228.339 261.001 223.136C260.967 219.375 262.08 216.272 264.342 213.826C266.638 211.379 269.403 210.142 272.635 210.112C274.707 210.093 276.767 210.637 278.815 211.743C280.596 210.602 282.629 210.021 284.912 210.001C289.093 209.963 292.477 211.303 295.067 214.022C297.656 216.74 298.967 219.892 298.999 223.477V223.477ZM282.673 224.574C282.637 220.602 281.044 217.312 277.893 214.705C274.301 217.655 272.523 221.098 272.559 225.035C272.577 227.074 273.092 228.669 274.104 229.819C275.116 230.97 276.307 231.54 277.677 231.527C279.047 231.515 280.227 230.898 281.217 229.676C282.207 228.454 282.693 226.754 282.673 224.574V224.574Z" fill="#DC430E"/>
<path d="M228.999 244.242C228.97 246.407 228.398 248.44 227.283 250.341C226.169 252.242 224.565 253.795 222.47 255L219.968 254.118C221.424 253.004 222.557 251.628 223.367 249.99C224.176 248.351 224.593 246.616 224.618 244.784C224.658 241.786 223.779 239.185 221.982 236.979C220.185 234.773 217.728 233.65 214.611 233.609C213.572 233.595 212.564 233.781 211.587 234.168C215.299 237.316 217.127 241.004 217.07 245.234C217.03 248.232 216.237 250.57 214.689 252.249C213.142 253.928 211.346 254.753 209.302 254.727C207.258 254.7 205.526 253.861 204.107 252.21C202.688 250.558 201.998 248.251 202.037 245.286C202.065 243.254 202.577 241.296 203.574 239.41C204.538 237.524 205.848 235.992 207.506 234.814C206.607 234.403 205.428 234.187 203.971 234.168C202.513 234.149 201.159 234.539 199.908 235.339C198.657 236.138 198.021 237.304 198.001 238.837L197.796 254.175L193.524 254.119L193.728 238.78C193.746 237.448 193.091 236.307 191.763 235.356C190.402 234.406 188.9 233.919 187.258 233.898C184.443 233.861 182.237 234.64 180.641 236.234C179.044 237.829 178.037 240.439 177.62 244.065L177.82 244.167C179.326 241.789 181.085 240.613 183.096 240.639C185.106 240.665 186.638 241.41 187.691 242.873C188.744 244.336 189.258 246.009 189.233 247.891C189.208 249.773 188.675 251.365 187.636 252.667C186.596 253.969 185.021 254.606 182.91 254.579C180.798 254.551 179.102 253.596 177.82 251.713C176.571 249.831 175.965 247.524 176.002 244.793C176.061 240.33 177.331 236.865 179.81 234.399C182.29 231.933 185.456 230.809 189.307 231.026C190.68 231.111 192.091 231.529 193.538 232.282C194.986 233.034 195.937 233.996 196.391 235.168C197.146 233.812 198.308 232.811 199.875 232.165C201.442 231.519 203.13 231.209 204.94 231.232C206.75 231.256 208.401 231.811 209.895 232.897C211.785 231.922 213.919 231.451 216.299 231.482C220.186 231.533 223.286 232.832 225.598 235.377C227.91 237.923 229.044 240.878 228.999 244.242L228.999 244.242ZM213.351 245.135C213.403 241.305 211.953 238.154 209.003 235.683C205.483 238.236 203.697 241.46 203.645 245.357C203.62 247.256 204.086 248.77 205.043 249.898C206 251.027 207.14 251.6 208.464 251.617C209.787 251.635 210.926 251.083 211.879 249.963C212.833 248.843 213.323 247.234 213.351 245.135V245.135ZM182.359 243.078C181.287 243.064 180.377 243.418 179.63 244.141C178.883 244.864 178.501 245.892 178.483 247.225C178.465 248.557 178.828 249.611 179.572 250.387C180.316 251.163 181.232 251.558 182.321 251.573C183.41 251.587 184.262 251.19 184.876 250.382C185.49 249.574 185.805 248.595 185.82 247.446C185.835 246.297 185.531 245.285 184.905 244.411C184.28 243.536 183.432 243.092 182.359 243.078V243.078Z" fill="#DC430E"/>
<path d="M259.789 305L221.479 304.704L221.557 294.787L206.836 294.673L206.84 294.252C209.87 292.473 211.397 290.1 211.42 287.135C211.435 285.212 210.864 283.675 209.707 282.524C208.549 281.373 207.176 280.791 205.587 280.779C203.999 280.766 202.626 281.397 201.47 282.67C200.314 283.944 199.727 285.752 199.708 288.096C199.69 290.44 200.58 292.301 202.38 293.677L200.557 295.286C198.16 293.264 196.974 290.56 197 287.174C197.027 283.788 197.972 281.241 199.835 279.532C201.739 277.824 204.018 276.98 206.673 277C209.327 277.021 211.643 277.92 213.62 279.699C215.597 281.477 216.574 283.929 216.549 287.054C216.533 289.178 215.774 291.056 214.273 292.687L221.573 292.743L221.599 289.378C221.628 285.691 222.878 282.716 225.349 280.451C227.82 278.186 231.017 277.068 234.938 277.099C243.042 277.161 247.091 282.763 247.085 293.902L247.076 294.984L226.685 294.827L226.624 302.64L254.677 302.857L254.872 277.854L260 277.894L259.789 305ZM244.679 292.922L244.689 291.66C244.68 287.572 243.979 284.602 242.586 282.748C241.153 280.893 239.038 279.955 236.243 279.934C233.448 279.912 231.169 280.756 229.406 282.465C227.643 284.175 226.75 286.492 226.727 289.417L226.701 292.783L244.679 292.922Z" fill="#DC430E"/>
<path d="M208 334.03C208 336.95 207.27 339.673 205.809 342.199C204.348 344.725 202.177 346.619 199.295 347.882L196.689 346.639C198.782 345.376 200.361 343.62 201.427 341.37C202.453 339.121 202.967 336.753 202.967 334.266C202.967 330.596 202.147 327.824 200.509 325.949C198.871 324.075 196.986 323.137 194.854 323.137C193.314 323.137 192.021 323.591 190.975 324.499C189.929 325.407 189.406 326.571 189.406 327.992V347.29H184.373V330.537C184.373 328.564 183.721 326.896 182.418 325.535C181.116 324.173 179.616 323.493 177.918 323.493C176.22 323.493 174.789 323.868 173.625 324.617C172.46 325.367 171.878 326.413 171.878 327.755V347.29H166.844V329.116C166.844 327.538 166.055 326.196 164.476 325.091C162.857 323.986 161.08 323.433 159.146 323.433C155.83 323.433 153.244 324.39 151.389 326.305C149.533 328.219 148.388 331.326 147.954 335.628L148.191 335.746C149.928 332.905 152.08 331.484 154.646 331.484C156.541 331.484 158.189 332.293 159.59 333.911C160.992 335.529 161.692 337.562 161.692 340.008C161.692 342.455 160.962 344.399 159.501 345.839C158.041 347.28 156.324 348 154.35 348C151.784 348 149.75 346.895 148.25 344.685C146.75 342.475 146 339.791 146 336.634C146 331.346 147.431 327.252 150.293 324.351C153.155 321.45 156.817 320 161.278 320C165.739 320 168.897 321.598 170.753 324.795C172.687 321.677 175.431 320.118 178.984 320.118C183.247 320.118 186.327 321.579 188.222 324.499C189.919 321.5 192.386 320 195.624 320C198.861 320 201.733 321.292 204.24 323.877C206.746 326.462 208 329.846 208 334.03L208 334.03ZM153.195 344.448C154.359 344.448 155.396 344.014 156.304 343.146C157.212 342.278 157.666 341.064 157.666 339.505C157.666 337.947 157.231 336.703 156.363 335.776C155.494 334.849 154.488 334.385 153.343 334.385C152.198 334.385 151.191 334.819 150.323 335.687C149.454 336.555 149.02 337.799 149.02 339.417C149.02 341.035 149.425 342.278 150.234 343.146C151.043 344.014 152.03 344.448 153.195 344.448Z" fill="#DC430E"/>
<path d="M274 359.801C274 363.049 272.711 365.56 270.134 367.336C267.557 369.112 264.551 370 261.114 370C259.093 370 257.274 369.696 255.657 369.087L254.596 364.596C256.011 365.814 257.906 366.423 260.281 366.423C262.656 366.423 264.475 365.915 265.738 364.901C266.951 363.835 267.557 362.338 267.557 360.41C267.557 358.482 266.711 356.896 265.018 355.653C263.325 354.41 261.418 353.789 259.295 353.789H256.263V350.364H259.068C261.595 350.364 263.54 349.78 264.904 348.613C266.218 347.446 266.875 345.937 266.875 344.085C266.875 342.233 266.092 340.761 264.525 339.67C262.959 338.579 261.039 338.034 258.765 338.034C256.491 338.034 254.482 338.579 252.739 339.67C250.995 340.761 250.124 342.245 250.124 344.123V369.087H243.681V345.721C243.681 343.691 242.67 341.966 240.649 340.546C238.577 339.125 236.303 338.414 233.827 338.414C229.583 338.414 226.273 339.645 223.898 342.106C221.523 344.567 220.057 348.562 219.502 354.093L219.805 354.245C222.079 350.592 224.732 348.765 227.763 348.765C230.795 348.765 233.095 349.831 234.661 351.962C236.227 354.093 237.011 356.592 237.011 359.459C237.011 362.326 236.177 364.799 234.509 366.879C232.842 368.96 230.429 370 227.271 370C224.112 370 221.599 368.63 219.729 365.89C217.91 363.099 217 359.674 217 355.615C217 348.715 218.832 343.387 222.496 339.632C226.159 335.877 230.821 334 236.48 334C242.14 334 246.157 336.055 248.532 340.165C251.059 336.156 254.975 334.152 260.281 334.152C263.767 334.152 266.824 335.091 269.452 336.968C272.08 338.846 273.394 341.294 273.394 344.313C273.394 347.332 271.675 349.704 268.239 351.429C270.058 352.19 271.473 353.332 272.484 354.854C273.495 356.376 274 358.025 274 359.801V359.801ZM230.341 363.455C231.402 362.135 231.932 360.6 231.932 358.85C231.932 357.099 231.452 355.603 230.492 354.359C229.532 353.116 228.244 352.495 226.627 352.495C225.009 352.495 223.645 353.053 222.533 354.169C221.422 355.285 220.866 356.909 220.866 359.04C220.866 361.171 221.333 362.77 222.268 363.835C223.203 364.901 224.504 365.433 226.172 365.433C227.839 365.433 229.229 364.774 230.341 363.455V363.455Z" fill="#DC430E"/>
<path d="M125.372 548.083C127.168 548.52 128.555 549.623 129.533 551.392C130.511 553.161 131 555.318 131 557.862C131 560.407 130.271 562.732 128.815 564.839C127.358 566.946 125.332 568 122.737 568C121.66 568 120.582 567.702 119.504 567.106L118.846 563.289C119.644 563.925 120.602 564.243 121.719 564.243C122.837 564.243 123.735 563.617 124.414 562.365C125.092 561.112 125.432 559.482 125.432 557.475C125.432 555.467 124.943 553.638 123.965 551.989C122.987 550.339 121.62 549.514 119.864 549.514H118.666V546.83H119.864C121.181 546.83 122.219 546.294 122.977 545.22C123.695 544.147 124.055 542.835 124.055 541.284C124.055 538.979 123.256 536.911 121.66 535.083C120.023 533.294 117.588 532.399 114.355 532.399C111.122 532.399 108.248 533.979 105.733 537.14C103.218 540.3 101.961 545.101 101.961 551.541V554.165H110.703V536.454H115.792V560.546C115.792 562.772 115.113 564.551 113.756 565.883C112.399 567.215 110.643 567.881 108.487 567.881C106.332 567.881 104.376 566.877 102.62 564.869C100.863 562.862 99.9854 559.989 99.9854 556.252H85.1365V555.835C88.0902 554.046 89.5671 551.521 89.5671 548.261C89.5671 546.313 88.9584 544.773 87.7409 543.64C86.5235 542.507 85.0168 541.94 83.2207 541.94C81.4245 541.94 79.8577 542.616 78.5205 543.968C77.1833 545.32 76.5147 547.208 76.5147 549.633C76.5147 550.905 76.7742 552.058 77.2931 553.092C77.812 554.125 78.5504 554.881 79.5085 555.358L77.6523 556.849C75.2174 554.901 74 552.197 74 548.739C74 545.28 75.0079 542.646 77.0237 540.837C79.0394 539.028 81.4443 538.124 84.2384 538.124C87.0325 538.124 89.4674 539.018 91.543 540.807C93.6186 542.596 94.6564 545.021 94.6564 548.083C94.6564 550.428 93.918 552.456 92.4412 554.165H99.9854V551.243C99.9854 547.387 100.444 543.978 101.362 541.016C102.28 538.054 103.508 535.729 105.045 534.039C108.098 530.68 111.671 529 115.762 529C119.853 529 123.216 530.272 125.851 532.817C128.485 535.361 129.803 538.183 129.803 541.284C129.803 544.385 128.326 546.651 125.372 548.083V548.083ZM110.703 560.009V556.252H101.961C101.961 559.154 102.64 561.381 103.997 562.931C104.755 563.846 105.713 564.303 106.871 564.303C108.028 564.303 108.966 563.885 109.685 563.05C110.363 562.216 110.703 561.202 110.703 560.009Z" fill="#DC430E"/>
<path d="M195 390.812C195 396.288 193.231 401.021 189.692 405.013C186.154 409.004 181.41 411 175.462 411C172.539 411 170.385 410.667 169 410.002C166.59 410.667 164.026 411 161.308 411C154.077 411 148.551 408.902 144.731 404.706C140.91 400.51 139 395.699 139 390.275C139 386.079 140.103 382.484 142.308 379.49C144.513 376.497 147.513 375 151.308 375C155.103 375 158.18 377.252 160.539 381.755C163.975 377.252 167.872 375 172.231 375C175.616 375 178.423 376.433 180.654 379.299C182.885 382.164 184 385.286 184 388.663C184 396.953 180.334 403.094 173 407.085C173.923 407.392 174.821 407.546 175.693 407.546C180.462 407.546 184.231 405.908 187 402.633C189.718 399.307 191.077 395.367 191.077 390.812C191.077 385.03 189.103 380.424 185.154 376.996L188.077 375C192.692 379.094 195 384.365 195 390.812V390.812ZM169.462 405.704C172.077 404.424 174.077 402.454 175.462 399.793C176.846 397.132 177.539 394.279 177.539 391.235C177.539 388.19 176.898 385.452 175.616 383.021C174.334 380.591 172.359 379.375 169.693 379.375C167.026 379.375 164.936 380.552 163.423 382.906C161.91 385.26 161.154 387.896 161.154 390.812C161.154 393.729 161.885 396.582 163.346 399.371C164.808 402.16 166.846 404.271 169.462 405.704ZM165.231 407.085C162.616 405.652 160.41 403.273 158.616 399.947C156.872 396.62 156 393.563 156 390.774C156 387.985 155.462 385.465 154.385 383.213C153.257 380.962 151.628 379.836 149.5 379.836C147.372 379.836 145.68 380.898 144.423 383.021C143.167 385.145 142.539 387.665 142.539 390.582C142.539 395.085 144.051 399.038 147.077 402.441C150.103 405.844 154.616 407.546 160.616 407.546C162.667 407.546 164.205 407.392 165.231 407.085V407.085Z" fill="#DC430E"/>
<path d="M212 554.337C212 558.412 210.74 561.708 208.22 564.225C205.699 566.742 202.663 568 199.111 568C196.709 568 194.629 567.538 192.869 566.613L193.732 564.25C194.882 564.833 196.168 565.124 197.588 565.124C200.633 565.124 203.297 563.797 205.581 561.143C207.864 558.489 209.006 555.518 209.006 552.231C209.006 550.416 208.532 548.687 207.585 547.043C206.638 545.4 205.369 544.321 203.779 543.807C204.49 545.657 204.845 547.411 204.845 549.072C204.845 550.733 204.608 552.368 204.135 553.978C203.695 555.587 202.866 557.008 201.648 558.241C200.43 559.474 198.891 560.09 197.03 560.09C195.17 560.09 193.614 559.234 192.362 557.522C191.11 555.81 190.484 553.798 190.484 551.486C190.484 549.175 191.262 547.138 192.819 545.374C194.375 543.61 196.371 542.558 198.806 542.215C197.521 539.818 195.508 538.62 192.768 538.62C191.381 538.62 190.053 538.988 188.785 539.724C187.516 540.46 186.882 541.496 186.882 542.831V559.576H182.518V545.246C182.518 543.465 181.816 541.915 180.412 540.597C179.008 539.279 177.41 538.62 175.617 538.62H173.993C176.259 539.784 177.393 541.453 177.393 543.628C177.393 545.802 176.361 547.488 174.297 548.687C176.936 549.475 178.255 551.067 178.255 553.464C178.255 555.245 177.579 556.803 176.226 558.138C174.839 559.439 173.249 560.09 171.456 560.09C168.851 560.09 166.838 559.045 165.417 556.957C163.997 554.868 163.286 552.471 163.286 549.766C163.286 545.246 164.91 541.719 168.158 539.185C167.346 539.013 166.415 538.928 165.367 538.928C162.525 538.928 160.326 540.024 158.77 542.215C157.214 544.407 156.436 546.941 156.436 549.817C156.436 551.872 156.825 553.755 157.603 555.467C158.381 557.179 159.514 558.429 161.003 559.217L159.277 560.09C157.586 559.165 156.284 557.693 155.37 555.673C154.457 553.652 154 551.486 154 549.175C154 546.864 154.381 544.741 155.142 542.806C155.903 540.871 157.138 539.253 158.846 537.952C160.554 536.651 162.635 536 165.088 536C167.54 536 169.46 536.411 170.847 537.233C172.674 536.411 174.822 536 177.291 536C181.384 536 184.226 537.438 185.816 540.315C187.541 537.438 189.994 536 193.174 536C197.402 536 200.616 538.003 202.815 542.01C205.691 542.592 207.94 544.03 209.564 546.324C211.188 548.619 212 551.289 212 554.337ZM199.568 543.859C197.538 544.064 195.846 544.792 194.493 546.042C193.14 547.292 192.463 548.892 192.463 550.844C192.463 552.18 192.852 553.515 193.63 554.851C194.409 556.186 195.449 556.854 196.751 556.854C198.054 556.854 199.06 556.092 199.771 554.568C200.481 553.044 200.836 551.289 200.836 549.303C200.836 547.317 200.413 545.502 199.568 543.859ZM173.942 553.669C173.942 551.307 172.099 550.125 168.411 550.125H168.31V548.327H169.579C170.627 548.327 171.574 547.934 172.42 547.146C173.266 546.358 173.689 545.485 173.689 544.526C173.689 543.568 173.308 542.643 172.547 541.753C171.786 540.862 170.932 540.229 169.985 539.852C168.361 540.708 167.118 542.07 166.255 543.936C165.392 545.802 164.961 547.694 164.961 549.612C164.961 551.529 165.418 553.267 166.331 554.825C167.245 556.383 168.547 557.162 170.238 557.162C171.219 557.162 172.082 556.82 172.826 556.135C173.57 555.45 173.943 554.628 173.943 553.669L173.942 553.669Z" fill="#DC430E"/>
<path d="M171 467.608C171 471.602 170.145 474.626 168.434 476.682C166.724 478.737 164.767 479.765 162.565 479.765C160.363 479.765 158.475 478.982 156.902 477.416C155.329 475.85 154.543 473.775 154.543 471.191C154.543 465.983 156.843 461.206 161.444 456.86C160.579 455.842 159.075 455.333 156.932 455.333C154.789 455.333 153.127 455.696 151.947 456.42C150.767 457.144 150.178 458.309 150.178 459.914V479.295H145.164V462.675C145.164 460.404 144.456 458.661 143.04 457.448C141.625 456.234 140.082 455.627 138.41 455.627C136.739 455.627 135.373 456.009 134.311 456.772C133.249 457.536 132.718 458.583 132.718 459.914V479.295H127.704V461.265C127.704 459.699 126.918 458.368 125.345 457.272C123.733 456.175 121.963 455.627 120.036 455.627C116.733 455.627 114.157 456.577 112.309 458.475C110.461 460.374 109.32 463.458 108.888 467.726L109.124 467.843C110.854 465.024 112.899 463.614 115.258 463.614C117.618 463.614 119.427 464.466 120.685 466.169C121.943 467.872 122.573 469.83 122.573 472.042C122.573 474.254 121.973 476.134 120.773 477.68C119.574 479.227 117.736 480 115.258 480C112.781 480 110.775 478.904 109.242 476.711C107.747 474.519 107 471.817 107 468.606C107 463.399 108.426 459.366 111.277 456.508C114.128 453.65 117.834 452.221 122.396 452.221C124.283 452.221 125.935 452.602 127.35 453.366C128.766 454.129 130.182 455.333 131.597 456.978C133.721 453.885 136.641 452.338 140.357 452.338C144.073 452.338 146.953 453.826 148.998 456.802C151.318 453.748 154.326 452.221 158.023 452.221C159.989 452.221 161.896 452.73 163.745 453.748C164.295 452.847 164.57 452.025 164.57 451.281C164.57 449.754 164.069 448.57 163.066 447.728C162.063 446.886 160.835 446.465 159.38 446.465C157.256 446.465 155.604 447.248 154.425 448.814L152.95 447.875C153.461 446.426 154.503 445.251 156.076 444.351C157.649 443.45 159.33 443 161.12 443C162.909 443 164.452 443.548 165.75 444.644C167.048 445.741 167.697 447.346 167.697 449.46C167.697 450.165 167.569 450.86 167.313 451.545C167.058 452.23 166.822 452.73 166.606 453.043C166.389 453.356 165.986 453.963 165.396 454.863C167.127 456.195 168.493 458.064 169.496 460.472C170.499 462.88 171 465.259 171 467.608V467.608ZM166.399 467.843C166.399 463.732 165.278 460.482 163.037 458.094C161.307 459.425 159.842 461.226 158.642 463.497C157.443 465.768 156.843 467.882 156.843 469.84C156.843 471.797 157.315 473.354 158.259 474.509C159.203 475.664 160.323 476.241 161.621 476.241C162.919 476.241 164.04 475.537 164.983 474.127C165.927 472.718 166.399 470.623 166.399 467.843V467.843ZM118.562 471.572C118.562 470.222 118.188 469.037 117.441 468.019C116.694 467.001 115.642 466.492 114.285 466.492C112.928 466.492 111.867 466.982 111.1 467.96C110.333 468.939 109.949 470.104 109.949 471.455C109.949 472.806 110.343 473.98 111.129 474.979C111.916 475.977 112.997 476.476 114.373 476.476C115.75 476.476 116.792 475.997 117.5 475.037C118.208 474.078 118.562 472.923 118.562 471.572V471.572Z" fill="#DC430E"/>
<path d="M239.107 419.665C241.837 419.665 244.001 420.486 245.601 422.128C247.2 423.77 248 425.827 248 428.301C248 430.774 247.286 432.842 245.857 434.505C244.428 436.168 242.743 437 240.803 437C238.862 437 237.337 436.595 236.228 435.785L235.908 432.714C237.017 433.397 237.892 433.738 238.531 433.738C240.024 433.738 241.186 433.151 242.018 431.979C242.85 430.806 243.266 429.431 243.266 427.853C243.266 425.252 242.647 423.62 241.41 422.959C240.173 422.298 238.19 421.968 235.46 421.968H235.013C235.013 423.631 234.831 425.284 234.469 426.925C234.106 428.567 233.573 430.177 232.869 431.755C232.165 433.333 231.12 434.601 229.734 435.561C228.348 436.52 226.759 437 224.968 437C221.343 437 218.698 435.252 217.035 431.755C215.67 435.252 213.633 437 210.925 437C208.216 437 206.052 436.072 204.431 434.217C202.81 432.362 202 430.156 202 427.597C202 424.889 202.746 422.885 204.239 421.584C205.305 420.582 207.097 419.964 209.613 419.729C210.509 419.687 211.639 419.665 213.004 419.665H215.371C215.371 416.382 216.15 413.45 217.707 410.87C219.263 408.29 221.588 407 224.68 407C227.772 407 230.15 408.258 231.814 410.774C233.477 413.29 234.458 416.254 234.757 419.665L239.107 419.665ZM230.278 419.665C230.278 417.448 229.724 415.38 228.615 413.461C227.463 411.584 225.842 410.646 223.752 410.646C221.662 410.646 220.095 411.584 219.05 413.461C218.005 415.337 217.483 417.405 217.483 419.665H230.278ZM230.278 421.968H217.483C217.44 422.522 217.419 423.354 217.419 424.463C217.419 426.765 217.941 428.898 218.986 430.859C220.031 432.821 221.577 433.802 223.624 433.802C224.947 433.802 226.077 433.407 227.015 432.618C227.954 431.829 228.657 430.774 229.127 429.452C229.894 427.064 230.278 424.569 230.278 421.968H230.278ZM215.371 427.533V421.968H213.196C208.888 421.968 206.734 423.716 206.734 427.213C206.734 428.791 207.129 430.284 207.918 431.691C208.707 433.098 209.827 433.802 211.277 433.802C214.006 433.802 215.371 431.712 215.371 427.533Z" fill="#DC430E"/>
<path d="M359 32.4416C359.023 36.7732 358.156 40.0793 356.398 42.3601C354.64 44.6409 352.553 45.7882 350.137 45.8018C347.721 45.8154 345.643 44.8913 343.904 43.0296C342.165 41.168 341.287 38.7022 341.27 35.6323C341.239 30.0392 343.587 25.232 348.314 21.2106C346.85 20.0413 345.263 19.4615 343.555 19.4712C340.348 19.4892 337.804 20.8702 335.923 23.6143C334.043 26.3581 333.113 29.6013 333.134 33.344C333.16 38.0961 335.035 41.8494 338.758 44.6041L337.328 46C332.478 42.9152 330.036 38.1557 330 31.7215C329.977 27.4746 331.206 23.7881 333.689 20.6621C336.213 17.5779 339.579 16.024 343.786 16.0003C347.994 15.9767 351.574 17.4179 354.527 20.3241C357.48 23.2303 358.971 27.2695 359 32.4416ZM343.763 34.4829C343.775 36.5435 344.357 38.2854 345.511 39.7088C346.664 41.1322 347.928 41.84 349.303 41.8323C350.678 41.8245 351.819 41.0926 352.728 39.6367C353.636 38.1807 354.083 36.1806 354.069 33.6364C354.055 31.0922 353.71 28.8442 353.032 26.8924C352.355 24.9411 351.41 23.5272 350.197 22.6509C345.884 26.2915 343.74 30.2355 343.763 34.4829Z" fill="#DC430E"/>
<path d="M234 509.641L209.475 509.999C207.431 510.029 205.73 509.492 204.373 508.389C203.015 507.286 202.322 505.75 202.293 503.78C202.264 501.811 202.921 500.149 204.264 498.795C205.606 497.44 207.278 496.749 209.28 496.72L220.903 496.55C222.649 496.525 224.26 496.035 225.737 495.082C227.213 494.128 227.94 492.889 227.918 491.364C227.895 489.839 227.24 488.726 225.952 488.024C224.622 487.366 223.148 487.049 221.53 487.072L221.48 483.641C223.14 483.617 224.591 483.098 225.833 482.084C227.074 481.071 227.683 479.759 227.659 478.149C227.628 475.989 226.604 474.437 224.588 473.492C222.573 472.546 220.192 472.094 217.445 472.134C214.699 472.174 212.06 472.965 209.527 474.505C206.995 476.046 205.387 478.22 204.704 481.026L205.09 481.211C206.587 478.732 208.517 477.475 210.88 477.441C213.243 477.406 215.108 478.205 216.473 479.838C217.839 481.47 218.539 483.451 218.573 485.781C218.607 488.11 217.902 490.101 216.457 491.753C215.012 493.406 213.055 494.25 210.585 494.286C208.116 494.322 206.078 493.292 204.471 491.197C202.864 489.103 202.041 486.721 202.002 484.052C201.934 479.393 203.498 475.737 206.696 473.085C209.893 470.433 213.898 469.072 218.709 469.002C220.157 468.981 221.703 469.159 223.348 469.538C224.993 469.916 226.577 470.476 228.1 471.216C229.623 471.956 230.883 472.955 231.881 474.211C232.879 475.468 233.39 476.88 233.413 478.447C233.452 481.115 231.889 483.384 228.722 485.251C231.934 486.433 233.561 488.464 233.603 491.345C233.637 493.674 232.686 495.584 230.749 497.074C228.812 498.564 226.63 499.326 224.203 499.362L209.322 499.579C208.342 499.593 207.473 499.86 206.714 500.379C205.956 500.899 205.583 501.625 205.597 502.556C205.61 503.488 206.004 504.171 206.777 504.605C207.55 505.038 208.426 505.248 209.405 505.233L233.93 504.876L234 509.641ZM213.292 489.385C213.935 488.253 214.247 487.009 214.227 485.654C214.207 484.298 213.827 483.064 213.086 481.953C212.346 480.841 211.358 480.294 210.124 480.312C208.889 480.33 207.95 480.894 207.306 482.005C206.662 483.116 206.35 484.339 206.37 485.673C206.389 487.007 206.738 488.252 207.415 489.407C208.092 490.562 209.08 491.13 210.378 491.111C211.677 491.092 212.648 490.517 213.292 489.385V489.385Z" fill="#DC430E"/>
</svg>
