<?xml version="1.0" encoding="utf-8"?>
<!-- Generator: Adobe Illustrator 19.0.0, SVG Export Plug-In . SVG Version: 6.00 Build 0)  -->
<svg version="1.1" id="Layer_1" xmlns="http://www.w3.org/2000/svg" xmlns:xlink="http://www.w3.org/1999/xlink" x="0px" y="0px"
	 viewBox="-116 24.4 626.4 513.9" style="enable-background:new -116 24.4 626.4 513.9;"
	 xml:space="preserve">
<style type="text/css">
	.st0{display:none;}
	.st1{display:inline;fill:#9CCDD2;}
	.st2{fill:#FFFFFF;}
	.st3{fill:#E6E7E8;}
	.st4{fill:#103754;}
	.st5{fill:#0E303F;}
	.st6{fill:#D1D3D4;}
	.st7{fill:#BCBEC0;}
	.st8{fill:#421F0C;}
	.st9{fill:#502A14;}
	.st10{fill:#B3B3B3;}
	.st11{fill:#566673;}
	.st12{fill:#CCCCCC;}
	.st13{fill:#F99B1C;}
	.st14{fill:#15B0BF;}
	.st15{fill:#A6DAE9;}
	.st16{fill:#4C8EB4;}
	.st17{fill:#FFFCB3;}
	.st18{fill:#FFD66B;}
	.st19{fill:#FAA666;}
	.st20{fill:#FFED8A;}
	.st21{fill:#609DC1;}
	.st22{fill:#73ACCD;}
	.st23{fill:#87BBDA;}
	.st24{fill:#9ACAE6;}
	.st25{fill:#FEC00F;}
	.st26{fill:#414042;}
	.st27{fill:#A7A9AC;}
	.st28{fill:#000405;}
	.st29{fill:#E7E7E7;}
</style>
<g id="Background" class="st0">
	<rect x="-162" y="-138.5" class="st1" width="800" height="800"/>
</g>
<g>
	<g id="mouse">
		<g>
			<path class="st2" d="M418.7,105.3c0-9,7.3-16.3,16.4-16.3h39.3c9,0,16.4,7.3,16.4,16.3v4.3h-72.1L418.7,105.3L418.7,105.3z"/>
			<path class="st3" d="M418.7,113.9v-4.3h72.1v4.3c0,9-7.3,16.3-16.4,16.3h-39.3C426.1,130.2,418.7,122.9,418.7,113.9z"/>
		</g>
		<g>
			<path class="st4" d="M436.1,104.2h3.5c3,0,5.5,2.4,5.5,5.4h-14.4C430.7,106.6,433.1,104.2,436.1,104.2z"/>
			<path class="st5" d="M430.7,109.6L430.7,109.6h14.4l0,0c0,3-2.5,5.4-5.5,5.4h-3.5C433.1,115,430.7,112.6,430.7,109.6z"/>
		</g>
	</g>
	<g id="coffee_3_">
		<path class="st6" d="M453.3,448.3c24.3-6.3,49.2,8.1,55.6,32.3c6.4,24.2-8.2,48.8-32.5,55.2c-24.3,6.3-49.2-8.1-55.6-32.3
			C414.4,479.3,429,454.6,453.3,448.3z"/>
		<path class="st2" d="M465.3,443.6c1.3,0,2.5,0.5,3.5,1.5c0.9,1,1.4,2.2,1.4,3.5l-0.2,14.7l-9.9-0.1l0.2-14.7
			c0-1.2,0.5-2.5,1.5-3.4C462.8,444.1,464.1,443.6,465.3,443.6z"/>
		<path class="st7" d="M460.2,463.1l9.9,0.1l0.1-5.5c-3.2-0.5-6.5-0.5-9.8-0.1L460.2,463.1z"/>
		<path class="st2" d="M457,462.5c16.4-4.3,33.3,5.5,37.6,21.8c4.3,16.3-5.5,33-22,37.3c-16.4,4.3-33.3-5.5-37.6-21.8
			C430.8,483.4,440.6,466.7,457,462.5z"/>
		<path class="st8" d="M458.3,467.2c13.8-3.6,27.9,4.6,31.6,18.3c3.6,13.7-4.7,27.7-18.5,31.3c-13.8,3.6-27.9-4.6-31.6-18.3
			C436.2,484.8,444.5,470.8,458.3,467.2z"/>
		<path class="st9" d="M476.7,507.9c-13.8,3.6-27.9-4.6-31.6-18.3c-1.3-5-1-10.1,0.5-14.7c-5.6,6.2-8.1,15-5.8,23.7
			c3.6,13.7,17.7,21.9,31.6,18.3c8.7-2.3,15.2-8.7,17.9-16.6C486.1,503.8,481.7,506.5,476.7,507.9z"/>
	</g>
	<g id="coffee_1_">
		<path class="st6" d="M-1.8,116.5c-24.3,6.3-49.2-8.1-55.6-32.3c-6.4-24.2,8.2-48.8,32.5-55.2c24.3-6.3,49.2,8.1,55.6,32.3
			C37.2,85.5,22.6,110.2-1.8,116.5z"/>
		<path class="st2" d="M-13.8,121.1c-1.3,0-2.5-0.5-3.5-1.5c-0.9-1-1.4-2.2-1.4-3.5l0.2-14.7l9.9,0.1l-0.2,14.7
			c0,1.2-0.5,2.5-1.5,3.4C-11.3,120.7-12.5,121.1-13.8,121.1z"/>
		<path class="st7" d="M-8.7,101.6l-9.9-0.1l-0.1,5.5c3.2,0.5,6.5,0.5,9.8,0.1L-8.7,101.6z"/>
		<path class="st2" d="M-5.5,102.3c-16.4,4.3-33.3-5.5-37.6-21.8c-4.3-16.3,5.5-33,22-37.3c16.4-4.3,33.3,5.5,37.6,21.8
			C20.8,81.4,11,98.1-5.5,102.3z"/>
		<path class="st8" d="M-6.7,97.6c-13.8,3.6-27.9-4.6-31.6-18.3c-3.6-13.7,4.7-27.7,18.5-31.3C-6,44.4,8.1,52.6,11.7,66.3
			C15.3,80,7.1,94-6.7,97.6z"/>
		<path class="st9" d="M-25.1,56.9c13.8-3.6,27.9,4.6,31.6,18.3c1.3,5,1,10.1-0.5,14.7c5.6-6.2,8.1-15,5.8-23.7
			C8.1,52.6-6,44.4-19.8,48c-8.7,2.3-15.2,8.7-17.9,16.6C-34.5,61-30.2,58.2-25.1,56.9z"/>
	</g>
	<g id="laptop">
		<g>
			<path class="st2" d="M67.3,129.7v214.5c0,2.8-2.3,5-5,5H-78c-2.8,0-5-2.3-5-5V129.7c0-2.7,2.3-5,5-5H62.3
				C65,124.7,67.3,127,67.3,129.7z"/>
			<path class="st10" d="M67.3,139.4v12.4h-7.2c-0.6,0-1.2-0.5-1.2-1.2v-10.1c0-0.6,0.5-1.2,1.2-1.2L67.3,139.4L67.3,139.4z"/>
			<path class="st10" d="M67.3,322v12.4h-7.2c-0.6,0-1.2-0.5-1.2-1.2v-10.1c0-0.6,0.5-1.2,1.2-1.2L67.3,322L67.3,322z"/>
			<path class="st6" d="M133.8,109v255.5c0,6.1-2.9,8-6.9,5.5l-57.1-21.4V124.7l53.6-19C130.3,101.4,133.8,102.2,133.8,109z"/>
			<polygon class="st11" points="123.5,356.9 74.4,341.4 74.4,132.1 123.5,116.4 			"/>
			<path class="st2" d="M132.9,107.6v259c0,0.6-0.5,1-1,1l0,0c-0.6,0-1-0.5-1-1v-259c0-0.6,0.5-1,1-1l0,0
				C132.4,106.6,132.9,107,132.9,107.6z"/>
			<path class="st2" d="M73.8,141.2v8.9c0,0.6-0.5,1-1,1H62.1c-0.6,0-1-0.5-1-1v-8.9c0-0.6,0.5-1,1-1h10.6
				C73.3,140.2,73.8,140.6,73.8,141.2z"/>
			<path class="st2" d="M73.8,323.8v8.9c0,0.6-0.5,1-1,1H62.1c-0.6,0-1-0.5-1-1v-8.9c0-0.6,0.5-1,1-1h10.6
				C73.3,322.8,73.8,323.2,73.8,323.8z"/>
			<path class="st12" d="M47.3,327.4v6.9c0,0.8-0.7,1.4-1.4,1.4h-5.2c-0.8,0-1.4-0.6-1.4-1.4v-6.9c0-0.8,0.7-1.4,1.4-1.4h5.2
				C46.6,325.9,47.3,326.6,47.3,327.4z"/>
			<path class="st12" d="M37.4,327.7v6.3c0,1-0.8,1.7-1.8,1.7h-7c-1,0-1.8-0.8-1.8-1.7v-6.3c0-1,0.8-1.7,1.8-1.7h7
				C36.6,325.9,37.4,326.7,37.4,327.7z"/>
			<path class="st12" d="M25,327.7v6.3c0,1-0.8,1.7-1.8,1.7h-7c-1,0-1.8-0.8-1.8-1.7v-6.3c0-1,0.8-1.7,1.8-1.7h7
				C24.2,325.9,25,326.7,25,327.7z"/>
			<path class="st12" d="M12.6,327.7v6.3c0,1-0.8,1.7-1.8,1.7h-7c-1,0-1.8-0.8-1.8-1.7v-6.3c0-1,0.8-1.7,1.8-1.7h7
				C11.8,325.9,12.6,326.7,12.6,327.7z"/>
			<path class="st12" d="M0.2,327.7v6.3c0,1-0.8,1.7-1.8,1.7h-7c-1,0-1.8-0.8-1.8-1.7v-6.3c0-1,0.8-1.7,1.8-1.7h7
				C-0.6,325.9,0.2,326.7,0.2,327.7z"/>
			<path class="st12" d="M-12.2,327.7v6.3c0,1-0.8,1.7-1.8,1.7h-7c-1,0-1.8-0.8-1.8-1.7v-6.3c0-1,0.8-1.7,1.8-1.7h7
				C-13,325.9-12.2,326.7-12.2,327.7z"/>
			<path class="st12" d="M47.3,315.1v6.9c0,0.8-0.7,1.4-1.4,1.4h-5.2c-0.8,0-1.4-0.6-1.4-1.4v-6.9c0-0.8,0.7-1.4,1.4-1.4h5.2
				C46.6,313.7,47.3,314.3,47.3,315.1z"/>
			<path class="st12" d="M37.4,304.3v17.3c0,1-0.9,1.9-1.9,1.9h-6.8c-1,0-1.9-0.8-1.9-1.9v-17.3c0-1,0.9-1.9,1.9-1.9h6.8
				C36.5,302.4,37.4,303.2,37.4,304.3z"/>
			<path class="st12" d="M25,312.2v9.4c0,1-0.8,1.9-1.9,1.9h-6.8c-1,0-1.9-0.8-1.9-1.9v-9.4c0-1,0.8-1.9,1.9-1.9h6.8
				C24.1,310.4,25,311.2,25,312.2z"/>
			<path class="st12" d="M12.6,302.9v18.7c0,1-0.8,1.9-1.9,1.9H3.9c-1,0-1.9-0.8-1.9-1.9v-18.7c0-1,0.8-1.9,1.9-1.9h6.8
				C11.8,301,12.6,301.9,12.6,302.9z"/>
			<path class="st12" d="M0.2,315.4v6.3c0,1-0.8,1.8-1.8,1.8h-7c-1,0-1.8-0.8-1.8-1.8v-6.3c0-1,0.8-1.7,1.8-1.7h7
				C-0.6,313.7,0.2,314.5,0.2,315.4z"/>
			<path class="st12" d="M-12.2,315.4v6.3c0,1-0.8,1.8-1.8,1.8h-7c-1,0-1.8-0.8-1.8-1.8v-6.3c0-1,0.8-1.7,1.8-1.7h7
				C-13,313.7-12.2,314.5-12.2,315.4z"/>
			<path class="st12" d="M47.3,303.8v6c0,0.8-0.7,1.4-1.4,1.4h-5.2c-0.8,0-1.4-0.6-1.4-1.4v-6c0-0.8,0.7-1.4,1.4-1.4h5.2
				C46.6,302.4,47.3,303,47.3,303.8z"/>
			<path class="st12" d="M47.3,292.3v6c0,0.8-0.7,1.4-1.4,1.4h-5.2c-0.8,0-1.4-0.6-1.4-1.4v-6c0-0.8,0.7-1.4,1.4-1.4h5.2
				C46.6,290.9,47.3,291.5,47.3,292.3z"/>
			<path class="st12" d="M47.3,280.8v6c0,0.8-0.7,1.4-1.4,1.4h-5.2c-0.8,0-1.4-0.6-1.4-1.4v-6c0-0.8,0.7-1.4,1.4-1.4h5.2
				C46.6,279.4,47.3,280.1,47.3,280.8z"/>
			<path class="st12" d="M47.3,269.4v6c0,0.8-0.7,1.4-1.4,1.4h-5.2c-0.8,0-1.4-0.6-1.4-1.4v-6c0-0.8,0.7-1.4,1.4-1.4h5.2
				C46.6,267.9,47.3,268.6,47.3,269.4z"/>
			<path class="st12" d="M47.3,257.9v6c0,0.8-0.7,1.4-1.4,1.4h-5.2c-0.8,0-1.4-0.6-1.4-1.4v-6c0-0.8,0.7-1.4,1.4-1.4h5.2
				C46.6,256.4,47.3,257.1,47.3,257.9z"/>
			<path class="st12" d="M47.3,246.4v6c0,0.8-0.7,1.4-1.4,1.4h-5.2c-0.8,0-1.4-0.6-1.4-1.4v-6c0-0.8,0.7-1.4,1.4-1.4h5.2
				C46.6,245,47.3,245.6,47.3,246.4z"/>
			<path class="st12" d="M47.3,234.9v6c0,0.8-0.7,1.4-1.4,1.4h-5.2c-0.8,0-1.4-0.6-1.4-1.4v-6c0-0.8,0.7-1.4,1.4-1.4h5.2
				C46.6,233.5,47.3,234.1,47.3,234.9z"/>
			<path class="st12" d="M47.3,223.4v6c0,0.8-0.7,1.4-1.4,1.4h-5.2c-0.8,0-1.4-0.6-1.4-1.4v-6c0-0.8,0.7-1.4,1.4-1.4h5.2
				C46.6,222,47.3,222.6,47.3,223.4z"/>
			<path class="st12" d="M47.3,211.9v6c0,0.8-0.7,1.4-1.4,1.4h-5.2c-0.8,0-1.4-0.6-1.4-1.4v-6c0-0.8,0.7-1.4,1.4-1.4h5.2
				C46.6,210.5,47.3,211.1,47.3,211.9z"/>
			<path class="st12" d="M47.3,200.4v6c0,0.8-0.7,1.4-1.4,1.4h-5.2c-0.8,0-1.4-0.6-1.4-1.4v-6c0-0.8,0.7-1.4,1.4-1.4h5.2
				C46.6,199,47.3,199.6,47.3,200.4z"/>
			<path class="st12" d="M47.3,188.9v6c0,0.8-0.7,1.4-1.4,1.4h-5.2c-0.8,0-1.4-0.6-1.4-1.4v-6c0-0.8,0.7-1.4,1.4-1.4h5.2
				C46.6,187.5,47.3,188.2,47.3,188.9z"/>
			<path class="st12" d="M47.3,177.5v6c0,0.8-0.7,1.4-1.4,1.4h-5.2c-0.8,0-1.4-0.6-1.4-1.4v-6c0-0.8,0.7-1.4,1.4-1.4h5.2
				C46.6,176,47.3,176.7,47.3,177.5z"/>
			<path class="st12" d="M47.3,166v6c0,0.8-0.7,1.4-1.4,1.4h-5.2c-0.8,0-1.4-0.6-1.4-1.4v-6c0-0.8,0.7-1.4,1.4-1.4h5.2
				C46.6,164.5,47.3,165.2,47.3,166z"/>
			<path class="st12" d="M47.3,154.5v6c0,0.8-0.7,1.4-1.4,1.4h-5.2c-0.8,0-1.4-0.6-1.4-1.4v-6c0-0.8,0.7-1.4,1.4-1.4h5.2
				C46.6,153,47.3,153.7,47.3,154.5z"/>
			<path class="st12" d="M47.3,141.6v6.9c0,0.8-0.7,1.4-1.4,1.4h-5.2c-0.8,0-1.4-0.6-1.4-1.4v-6.9c0-0.8,0.7-1.4,1.4-1.4h5.2
				C46.6,140.1,47.3,140.8,47.3,141.6z"/>
			<path class="st12" d="M37.4,291.9v6.2c0,0.9-0.8,1.7-1.7,1.7h-7.1c-1,0-1.7-0.8-1.7-1.7v-6.2c0-0.9,0.8-1.7,1.7-1.7h7.1
				C36.6,290.2,37.4,290.9,37.4,291.9z"/>
			<path class="st12" d="M37.4,279.4v6.2c0,0.9-0.8,1.7-1.7,1.7h-7.1c-1,0-1.7-0.8-1.7-1.7v-6.2c0-0.9,0.8-1.7,1.7-1.7h7.1
				C36.6,277.7,37.4,278.5,37.4,279.4z"/>
			<path class="st12" d="M37.4,266.9v6.2c0,0.9-0.8,1.7-1.7,1.7h-7.1c-1,0-1.7-0.8-1.7-1.7v-6.2c0-0.9,0.8-1.7,1.7-1.7h7.1
				C36.6,265.2,37.4,266,37.4,266.9z"/>
			<path class="st12" d="M37.4,254.5v6.2c0,0.9-0.8,1.7-1.7,1.7h-7.1c-1,0-1.7-0.8-1.7-1.7v-6.2c0-0.9,0.8-1.7,1.7-1.7h7.1
				C36.6,252.8,37.4,253.5,37.4,254.5z"/>
			<path class="st12" d="M37.4,242v6.2c0,0.9-0.8,1.7-1.7,1.7h-7.1c-1,0-1.7-0.8-1.7-1.7V242c0-0.9,0.8-1.7,1.7-1.7h7.1
				C36.6,240.3,37.4,241.1,37.4,242z"/>
			<path class="st12" d="M37.4,229.5v6.2c0,0.9-0.8,1.7-1.7,1.7h-7.1c-1,0-1.7-0.8-1.7-1.7v-6.2c0-0.9,0.8-1.7,1.7-1.7h7.1
				C36.6,227.8,37.4,228.6,37.4,229.5z"/>
			<path class="st12" d="M37.4,217.1v6.2c0,0.9-0.8,1.7-1.7,1.7h-7.1c-1,0-1.7-0.8-1.7-1.7v-6.2c0-0.9,0.8-1.7,1.7-1.7h7.1
				C36.6,215.4,37.4,216.1,37.4,217.1z"/>
			<path class="st12" d="M37.4,204.6v6.2c0,0.9-0.8,1.7-1.7,1.7h-7.1c-1,0-1.7-0.8-1.7-1.7v-6.2c0-0.9,0.8-1.7,1.7-1.7h7.1
				C36.6,202.9,37.4,203.7,37.4,204.6z"/>
			<path class="st12" d="M37.4,192.2v6.2c0,0.9-0.8,1.7-1.7,1.7h-7.1c-1,0-1.7-0.8-1.7-1.7v-6.2c0-0.9,0.8-1.7,1.7-1.7h7.1
				C36.6,190.4,37.4,191.2,37.4,192.2z"/>
			<path class="st12" d="M37.4,179.7v6.2c0,0.9-0.8,1.7-1.7,1.7h-7.1c-1,0-1.7-0.8-1.7-1.7v-6.2c0-0.9,0.8-1.7,1.7-1.7h7.1
				C36.6,178,37.4,178.7,37.4,179.7z"/>
			<path class="st12" d="M37.4,167.2v6.2c0,0.9-0.8,1.7-1.7,1.7h-7.1c-1,0-1.7-0.8-1.7-1.7v-6.2c0-0.9,0.8-1.7,1.7-1.7h7.1
				C36.6,165.5,37.4,166.3,37.4,167.2z"/>
			<path class="st12" d="M37.4,154.8v6.2c0,0.9-0.8,1.7-1.7,1.7h-7.1c-1,0-1.7-0.8-1.7-1.7v-6.2c0-0.9,0.8-1.7,1.7-1.7h7.1
				C36.6,153,37.4,153.8,37.4,154.8z"/>
			<path class="st12" d="M37.4,141.9v6.3c0,1-0.8,1.7-1.8,1.7h-7c-1,0-1.8-0.8-1.8-1.7v-6.3c0-1,0.8-1.7,1.8-1.7h7
				C36.6,140.1,37.4,140.9,37.4,141.9z"/>
			<path class="st12" d="M25,142V155c0,1-0.8,1.9-1.9,1.9h-6.8c-1,0-1.9-0.8-1.9-1.9V142c0-1,0.8-1.9,1.9-1.9h6.8
				C24.1,140.1,25,141,25,142z"/>
			<path class="st12" d="M12.6,142v15.4c0,1-0.8,1.9-1.9,1.9H3.9c-1,0-1.9-0.8-1.9-1.9V142c0-1,0.8-1.9,1.9-1.9h6.8
				C11.8,140.1,12.6,141,12.6,142z"/>
			<path class="st12" d="M0.2,142v22.1c0,1-0.8,1.9-1.9,1.9h-6.8c-1,0-1.9-0.8-1.9-1.9V142c0-1,0.8-1.9,1.9-1.9h6.8
				C-0.6,140.1,0.2,141,0.2,142z"/>
			<path class="st12" d="M-12.2,142v9.2c0,1-0.8,1.9-1.9,1.9h-6.8c-1,0-1.9-0.8-1.9-1.9V142c0-1,0.8-1.9,1.9-1.9h6.8
				C-13,140.1-12.2,141-12.2,142z"/>
			<path class="st12" d="M25,160.2v6.6c0,1-0.8,1.8-1.9,1.8h-6.8c-1,0-1.9-0.8-1.9-1.8v-6.6c0-1,0.8-1.8,1.9-1.8h6.8
				C24.1,158.4,25,159.2,25,160.2z"/>
			<path class="st12" d="M25,172.9v6.6c0,1-0.8,1.8-1.9,1.8h-6.8c-1,0-1.9-0.8-1.9-1.8v-6.6c0-1,0.8-1.8,1.9-1.8h6.8
				C24.1,171.1,25,171.9,25,172.9z"/>
			<path class="st12" d="M25,185.6v6.6c0,1-0.8,1.8-1.9,1.8h-6.8c-1,0-1.9-0.8-1.9-1.8v-6.6c0-1,0.8-1.8,1.9-1.8h6.8
				C24.1,183.8,25,184.6,25,185.6z"/>
			<path class="st12" d="M25,198.3v6.6c0,1-0.8,1.8-1.9,1.8h-6.8c-1,0-1.9-0.8-1.9-1.8v-6.6c0-1,0.8-1.8,1.9-1.8h6.8
				C24.1,196.5,25,197.3,25,198.3z"/>
			<path class="st12" d="M25,211v6.6c0,1-0.8,1.8-1.9,1.8h-6.8c-1,0-1.9-0.8-1.9-1.8V211c0-1,0.8-1.8,1.9-1.8h6.8
				C24.1,209.2,25,210,25,211z"/>
			<path class="st12" d="M25,223.7v6.6c0,1-0.8,1.8-1.9,1.8h-6.8c-1,0-1.9-0.8-1.9-1.8v-6.6c0-1,0.8-1.8,1.9-1.8h6.8
				C24.1,221.9,25,222.7,25,223.7z"/>
			<path class="st12" d="M25,236.4v6.6c0,1-0.8,1.8-1.9,1.8h-6.8c-1,0-1.9-0.8-1.9-1.8v-6.6c0-1,0.8-1.8,1.9-1.8h6.8
				C24.1,234.6,25,235.4,25,236.4z"/>
			<path class="st12" d="M25,249.1v6.6c0,1-0.8,1.8-1.9,1.8h-6.8c-1,0-1.9-0.8-1.9-1.8v-6.6c0-1,0.8-1.8,1.9-1.8h6.8
				C24.1,247.3,25,248.1,25,249.1z"/>
			<path class="st12" d="M25,261.8v6.6c0,1-0.8,1.8-1.9,1.8h-6.8c-1,0-1.9-0.8-1.9-1.8v-6.6c0-1,0.8-1.8,1.9-1.8h6.8
				C24.1,260,25,260.8,25,261.8z"/>
			<path class="st12" d="M25,274.5v6.6c0,1-0.8,1.8-1.9,1.8h-6.8c-1,0-1.9-0.8-1.9-1.8v-6.6c0-1,0.8-1.8,1.9-1.8h6.8
				C24.1,272.7,25,273.5,25,274.5z"/>
			<path class="st12" d="M25,287.2v6.6c0,1-0.8,1.8-1.9,1.8h-6.8c-1,0-1.9-0.8-1.9-1.8v-6.6c0-1,0.8-1.8,1.9-1.8h6.8
				C24.1,285.4,25,286.2,25,287.2z"/>
			<path class="st12" d="M25,299.9v6.6c0,1-0.8,1.8-1.9,1.8h-6.8c-1,0-1.9-0.8-1.9-1.8v-6.6c0-1,0.8-1.8,1.9-1.8h6.8
				C24.1,298.1,25,298.9,25,299.9z"/>
			<path class="st12" d="M12.6,163.8v6.6c0,1-0.8,1.8-1.9,1.8H3.9c-1,0-1.9-0.8-1.9-1.8v-6.6c0-1,0.8-1.8,1.9-1.8h6.9
				C11.8,161.9,12.6,162.7,12.6,163.8z"/>
			<path class="st12" d="M12.6,176.5v6.6c0,1-0.8,1.8-1.9,1.8H3.9c-1,0-1.9-0.8-1.9-1.8v-6.6c0-1,0.8-1.8,1.9-1.8h6.9
				C11.8,174.6,12.6,175.4,12.6,176.5z"/>
			<path class="st12" d="M12.6,189.2v6.6c0,1-0.8,1.8-1.9,1.8H3.9c-1,0-1.9-0.8-1.9-1.8v-6.6c0-1,0.8-1.8,1.9-1.8h6.9
				C11.8,187.3,12.6,188.1,12.6,189.2z"/>
			<path class="st12" d="M12.6,201.9v6.6c0,1-0.8,1.8-1.9,1.8H3.9c-1,0-1.9-0.8-1.9-1.8v-6.6c0-1,0.8-1.8,1.9-1.8h6.9
				C11.8,200,12.6,200.8,12.6,201.9z"/>
			<path class="st12" d="M12.6,214.6v6.6c0,1-0.8,1.8-1.9,1.8H3.9c-1,0-1.9-0.8-1.9-1.8v-6.6c0-1,0.8-1.8,1.9-1.8h6.9
				C11.8,212.7,12.6,213.5,12.6,214.6z"/>
			<path class="st12" d="M12.6,227.2v6.6c0,1-0.8,1.8-1.9,1.8H3.9c-1,0-1.9-0.8-1.9-1.8v-6.6c0-1,0.8-1.8,1.9-1.8h6.9
				C11.8,225.4,12.6,226.2,12.6,227.2z"/>
			<path class="st12" d="M12.6,239.9v6.6c0,1-0.8,1.8-1.9,1.8H3.9c-1,0-1.9-0.8-1.9-1.8v-6.6c0-1,0.8-1.8,1.9-1.8h6.9
				C11.8,238.1,12.6,238.9,12.6,239.9z"/>
			<path class="st12" d="M12.6,252.6v6.6c0,1-0.8,1.8-1.9,1.8H3.9c-1,0-1.9-0.8-1.9-1.8v-6.6c0-1,0.8-1.8,1.9-1.8h6.9
				C11.8,250.8,12.6,251.6,12.6,252.6z"/>
			<path class="st12" d="M12.6,265.3v6.6c0,1-0.8,1.8-1.9,1.8H3.9c-1,0-1.9-0.8-1.9-1.8v-6.6c0-1,0.8-1.8,1.9-1.8h6.9
				C11.8,263.5,12.6,264.3,12.6,265.3z"/>
			<path class="st12" d="M12.6,278v6.6c0,1-0.8,1.8-1.9,1.8H3.9c-1,0-1.9-0.8-1.9-1.8V278c0-1,0.8-1.8,1.9-1.8h6.9
				C11.8,276.2,12.6,277,12.6,278z"/>
			<path class="st12" d="M12.6,290.7v6.6c0,1-0.8,1.8-1.9,1.8H3.9c-1,0-1.9-0.8-1.9-1.8v-6.6c0-1,0.8-1.8,1.9-1.8h6.9
				C11.8,288.9,12.6,289.7,12.6,290.7z"/>
			<path class="st12" d="M0.2,170.4v6.6c0,1-0.8,1.8-1.9,1.8h-6.8c-1,0-1.9-0.8-1.9-1.8v-6.6c0-1,0.8-1.8,1.9-1.8h6.8
				C-0.6,168.6,0.2,169.4,0.2,170.4z"/>
			<path class="st12" d="M0.2,183.1v6.6c0,1-0.8,1.8-1.9,1.8h-6.8c-1,0-1.9-0.8-1.9-1.8v-6.6c0-1,0.8-1.8,1.9-1.8h6.8
				C-0.6,181.3,0.2,182.1,0.2,183.1z"/>
			<path class="st12" d="M0.2,195.8v6.6c0,1-0.8,1.8-1.9,1.8h-6.8c-1,0-1.9-0.8-1.9-1.8v-6.6c0-1,0.8-1.8,1.9-1.8h6.8
				C-0.6,194,0.2,194.8,0.2,195.8z"/>
			<path class="st12" d="M0.2,208.5v6.6c0,1-0.8,1.8-1.9,1.8h-6.8c-1,0-1.9-0.8-1.9-1.8v-6.6c0-1,0.8-1.8,1.9-1.8h6.8
				C-0.6,206.7,0.2,207.5,0.2,208.5z"/>
			<path class="st12" d="M0.2,221.2v6.6c0,1-0.8,1.8-1.9,1.8h-6.8c-1,0-1.9-0.8-1.9-1.8v-6.6c0-1,0.8-1.8,1.9-1.8h6.8
				C-0.6,219.4,0.2,220.2,0.2,221.2z"/>
			<path class="st12" d="M0.2,233.9v6.6c0,1-0.8,1.8-1.9,1.8h-6.8c-1,0-1.9-0.8-1.9-1.8v-6.6c0-1,0.8-1.8,1.9-1.8h6.8
				C-0.6,232.1,0.2,232.9,0.2,233.9z"/>
			<path class="st12" d="M0.2,246.6v6.6c0,1-0.8,1.8-1.9,1.8h-6.8c-1,0-1.9-0.8-1.9-1.8v-6.6c0-1,0.8-1.8,1.9-1.8h6.8
				C-0.6,244.8,0.2,245.6,0.2,246.6z"/>
			<path class="st12" d="M0.2,259.3v6.6c0,1-0.8,1.8-1.9,1.8h-6.8c-1,0-1.9-0.8-1.9-1.8v-6.6c0-1,0.8-1.8,1.9-1.8h6.8
				C-0.6,257.5,0.2,258.3,0.2,259.3z"/>
			<path class="st12" d="M0.2,272v6.6c0,1-0.8,1.8-1.9,1.8h-6.8c-1,0-1.9-0.8-1.9-1.8V272c0-1,0.8-1.8,1.9-1.8h6.8
				C-0.6,270.2,0.2,271,0.2,272z"/>
			<path class="st12" d="M0.2,284.7v6.6c0,1-0.8,1.8-1.9,1.8h-6.8c-1,0-1.9-0.8-1.9-1.8v-6.6c0-1,0.8-1.8,1.9-1.8h6.8
				C-0.6,282.8,0.2,283.7,0.2,284.7z"/>
			<path class="st12" d="M0.2,297.4v12c0,1-0.8,1.9-1.9,1.9h-6.8c-1,0-1.9-0.8-1.9-1.9v-12c0-1,0.8-1.9,1.9-1.9h6.8
				C-0.6,295.5,0.2,296.4,0.2,297.4z"/>
			<path class="st12" d="M-12.2,157.5v6.6c0,1-0.8,1.8-1.9,1.8h-6.8c-1,0-1.9-0.8-1.9-1.8v-6.6c0-1,0.8-1.8,1.9-1.8h6.8
				C-13,155.7-12.2,156.5-12.2,157.5z"/>
			<path class="st12" d="M-12.2,170.2v6.6c0,1-0.8,1.8-1.9,1.8h-6.8c-1,0-1.9-0.8-1.9-1.8v-6.6c0-1,0.8-1.8,1.9-1.8h6.8
				C-13,168.4-12.2,169.2-12.2,170.2z"/>
			<path class="st12" d="M-12.2,182.9v6.6c0,1-0.8,1.8-1.9,1.8h-6.8c-1,0-1.9-0.8-1.9-1.8v-6.6c0-1,0.8-1.8,1.9-1.8h6.8
				C-13,181.1-12.2,181.9-12.2,182.9z"/>
			<path class="st12" d="M-12.2,195.6v6.6c0,1-0.8,1.8-1.9,1.8h-6.8c-1,0-1.9-0.8-1.9-1.8v-6.6c0-1,0.8-1.8,1.9-1.8h6.8
				C-13,193.8-12.2,194.6-12.2,195.6z"/>
			<path class="st12" d="M-12.2,208.3v6.6c0,1-0.8,1.8-1.9,1.8h-6.8c-1,0-1.9-0.8-1.9-1.8v-6.6c0-1,0.8-1.8,1.9-1.8h6.8
				C-13,206.5-12.2,207.3-12.2,208.3z"/>
			<path class="st12" d="M-12.2,221v6.6c0,1-0.8,1.8-1.9,1.8h-6.8c-1,0-1.9-0.8-1.9-1.8V221c0-1,0.8-1.8,1.9-1.8h6.8
				C-13,219.2-12.2,220-12.2,221z"/>
			<path class="st12" d="M-12.2,233.7v6.6c0,1-0.8,1.8-1.9,1.8h-6.8c-1,0-1.9-0.8-1.9-1.8v-6.6c0-1,0.8-1.8,1.9-1.8h6.8
				C-13,231.9-12.2,232.7-12.2,233.7z"/>
			<path class="st12" d="M-12.2,246.4v6.6c0,1-0.8,1.8-1.9,1.8h-6.8c-1,0-1.9-0.8-1.9-1.8v-6.6c0-1,0.8-1.8,1.9-1.8h6.8
				C-13,244.5-12.2,245.4-12.2,246.4z"/>
			<path class="st12" d="M-12.2,259.1v6.6c0,1-0.8,1.8-1.9,1.8h-6.8c-1,0-1.9-0.8-1.9-1.8v-6.6c0-1,0.8-1.8,1.9-1.8h6.8
				C-13,257.2-12.2,258.1-12.2,259.1z"/>
			<path class="st12" d="M-12.2,271.8v6.6c0,1-0.8,1.8-1.9,1.8h-6.8c-1,0-1.9-0.8-1.9-1.8v-6.6c0-1,0.8-1.8,1.9-1.8h6.8
				C-13,269.9-12.2,270.8-12.2,271.8z"/>
			<path class="st12" d="M-12.2,284.5v12c0,1-0.8,1.9-1.9,1.9h-6.8c-1,0-1.9-0.8-1.9-1.9v-12c0-1,0.8-1.9,1.9-1.9h6.8
				C-13,282.6-12.2,283.5-12.2,284.5z"/>
			<path class="st12" d="M-12.2,303.2v6.3c0,1-0.8,1.7-1.8,1.7h-7c-1,0-1.8-0.8-1.8-1.7v-6.3c0-1,0.8-1.7,1.8-1.7h7
				C-13,301.5-12.2,302.2-12.2,303.2z"/>
			<path class="st12" d="M-31.6,204v66c0,1-0.8,1.8-1.8,1.8h-32c-1,0-1.8-0.8-1.8-1.8v-66c0-1,0.8-1.8,1.8-1.8h32
				C-32.4,202.1-31.6,203-31.6,204z"/>
			<path class="st12" d="M-69.7,202.5v32.8c0,0.2-0.2,0.4-0.4,0.4h-6.6c-0.2,0-0.4-0.2-0.4-0.4v-32.8c0-0.2,0.2-0.4,0.4-0.4h6.6
				C-69.8,202.1-69.7,202.3-69.7,202.5z"/>
			<path class="st12" d="M-69.7,238.6v32.8c0,0.2-0.2,0.4-0.4,0.4h-6.6c-0.2,0-0.4-0.2-0.4-0.4v-32.8c0-0.2,0.2-0.4,0.4-0.4h6.6
				C-69.8,238.2-69.7,238.4-69.7,238.6z"/>
		</g>
	</g>
	<g>
		<g>
			<polygon class="st2" points="-70.4,360.1 80.6,359.4 81.6,463.3 -69.3,463.9 			"/>
		</g>
		<g>
			<path class="st2" d="M99.2,376l0,106l-150.8-0.9l0-106L99.2,376z"/>
			<g>
				<polygon class="st13" points="89.1,386.9 89.1,400.1 85.2,400.1 85.2,386.8 				"/>
				<polygon class="st14" points="80.2,386.8 80.2,400.1 76.3,400.1 76.3,386.8 				"/>
				<polygon class="st15" points="71.4,386.8 71.4,400 67.5,400 67.5,386.8 				"/>
				<polygon class="st16" points="62.5,386.7 62.5,400 58.6,400 58.6,386.7 				"/>
				<polygon class="st12" points="84.5,470.9 84.5,409.1 88.8,409.1 88.9,470.9 				"/>
				<polygon class="st12" points="71.4,470.8 71.4,409 75.8,409 75.8,470.8 				"/>
				<polygon class="st12" points="58.4,470.7 58.4,409 62.7,409 62.7,470.7 				"/>
				<polygon class="st12" points="64.9,470.7 64.9,409 69.3,409 69.3,470.8 				"/>
				<polygon class="st12" points="78,470.8 78,409.1 82.3,409.1 82.3,470.8 				"/>
				<polygon class="st12" points="-13.3,470.3 -13.3,385.5 -8.9,385.5 -8.9,470.4 				"/>
				<polygon class="st12" points="-26.3,470.3 -26.3,385.4 -22,385.4 -22,470.3 				"/>
				<polygon class="st12" points="-39.4,470.2 -39.4,385.3 -35,385.4 -35,470.2 				"/>
				<polygon class="st12" points="-32.9,470.2 -32.9,385.4 -28.5,385.4 -28.5,470.3 				"/>
				<polygon class="st12" points="-19.8,470.3 -19.8,385.4 -15.4,385.5 -15.4,470.3 				"/>
			</g>
			<g>
				<polygon class="st12" points="34.6,386.6 34.6,389.4 4.6,389.3 4.6,386.5 				"/>
				<polygon class="st12" points="4.7,470.4 1.8,470.4 1.8,386.4 4.6,386.4 				"/>
				<g>
					<polygon class="st14" points="18,396.7 18,404.2 4.6,404.1 4.6,396.6 					"/>
					<polygon class="st15" points="24.6,396.7 24.6,404.3 18,404.2 18,396.7 					"/>
				</g>
				<g>
					<polygon class="st14" points="23.7,410.7 23.7,418.3 4.6,418.2 4.6,410.6 					"/>
					<polygon class="st15" points="27.6,410.8 27.6,418.3 23.7,418.3 23.7,410.8 					"/>
				</g>
				<g>
					<polygon class="st14" points="14.3,424.7 14.3,432.3 4.6,432.2 4.6,424.7 					"/>
					<polygon class="st15" points="21.3,424.7 21.3,432.3 14.3,432.2 14.3,424.7 					"/>
				</g>
				<g>
					<polygon class="st14" points="10.2,438.7 10.2,446.2 4.6,446.2 4.6,438.7 					"/>
					<polygon class="st15" points="15.7,438.8 15.7,446.3 10.2,446.3 10.2,438.7 					"/>
				</g>
			</g>
		</g>
	</g>
	<g id="note">
		<g>
			<rect x="304.4" y="455" class="st17" width="79.5" height="75.4"/>
			<polygon class="st18" points="354.9,455 383.9,455 383.9,476 			"/>
			<rect x="304.4" y="455" class="st19" width="9.4" height="75.4"/>
		</g>
		<polygon class="st20" points="354.9,455 355.1,476.1 383.9,476 		"/>
	</g>
	<g>
		<path class="st2" d="M248.5,140l0.1-115.6l164.8,0.1l-0.1,115.6L248.5,140z"/>
		<g>
			<polygon class="st16" points="333.7,125.5 333.7,115.5 342.9,115.5 342.9,125.5 			"/>
			<polygon class="st21" points="329.8,114 329.8,104 342.9,104 342.9,114 			"/>
			<rect x="320.6" y="92.5" class="st22" width="22.3" height="10"/>
			
				<rect x="328.3" y="76.3" transform="matrix(7.436463e-004 -1 1 7.436463e-004 247.1727 419.1556)" class="st23" width="10" height="19.2"/>
			<rect x="333.3" y="69.4" class="st24" width="9.6" height="10"/>
			<rect x="329.7" y="58.1" class="st22" width="13.2" height="10"/>
			
				<rect x="328.3" y="42" transform="matrix(7.437871e-004 -1 1 7.437871e-004 281.5162 384.8347)" class="st23" width="10" height="19.2"/>
			<polygon class="st24" points="311,45 311,35 342.9,35 342.9,45 			"/>
		</g>
		
			<rect x="336.3" y="106.4" transform="matrix(5.360809e-004 -1 1 5.360809e-004 249.9157 465.6854)" class="st12" width="43.3" height="2.9"/>
		
			<rect x="341.3" y="106.4" transform="matrix(5.360458e-004 -1 1 5.360458e-004 254.9868 470.7651)" class="st12" width="43.3" height="2.9"/>
		
			<rect x="346.4" y="106.4" transform="matrix(5.580440e-004 -1 1 5.580440e-004 260.0514 475.8438)" class="st12" width="43.3" height="2.9"/>
		<polygon class="st12" points="371.7,129.5 371.7,86.2 374.6,86.2 374.6,129.5 		"/>
		
			<rect x="356.6" y="106.4" transform="matrix(5.364057e-004 -1 1 5.364057e-004 270.202 486.0072)" class="st12" width="43.3" height="2.9"/>
		
			<rect x="361.7" y="106.4" transform="matrix(6.217577e-004 -1 1 6.217577e-004 275.2407 491.077)" class="st12" width="43.3" height="2.9"/>
		
			<rect x="366.7" y="106.4" transform="matrix(5.803570e-004 -1 1 5.803570e-004 280.3304 496.1638)" class="st12" width="43.3" height="2.9"/>
		
			<rect x="382.6" y="117.2" transform="matrix(5.580611e-004 -1 1 5.580611e-004 274.5743 512.0629)" class="st12" width="21.7" height="2.9"/>
		
			<rect x="336.3" y="55.3" transform="matrix(5.357374e-004 -1 1 5.357374e-004 301.0204 414.6641)" class="st12" width="43.3" height="2.9"/>
		
			<rect x="341.4" y="55.3" transform="matrix(5.796496e-004 -1 1 5.796496e-004 306.0752 419.7417)" class="st12" width="43.3" height="2.9"/>
		
			<rect x="346.4" y="55.3" transform="matrix(5.357374e-004 -1 1 5.357374e-004 311.1627 424.8266)" class="st12" width="43.3" height="2.9"/>
		
			<rect x="351.5" y="55.3" transform="matrix(5.800156e-004 -1 1 5.800156e-004 316.2197 429.9033)" class="st12" width="43.3" height="2.9"/>
		
			<rect x="356.6" y="55.3" transform="matrix(5.360750e-004 -1 1 5.360750e-004 321.3075 434.9872)" class="st12" width="43.3" height="2.9"/>
		
			<rect x="361.7" y="55.3" transform="matrix(5.778173e-004 -1 1 5.778173e-004 326.3652 440.0643)" class="st12" width="43.3" height="2.9"/>
		
			<rect x="366.8" y="55.3" transform="matrix(5.382533e-004 -1 1 5.382533e-004 331.4507 445.1482)" class="st12" width="43.3" height="2.9"/>
		
			<rect x="378.2" y="61.7" transform="matrix(5.805518e-004 -1 1 5.805518e-004 330.0884 456.6326)" class="st12" width="30.5" height="2.9"/>
		<g>
			<g>
				<polygon class="st25" points="303.5,123.2 299.9,125.9 275.4,92.9 290.1,71.5 266.5,37.3 270.2,34.8 295.6,71.5 280.9,92.8 				
					"/>
			</g>
			<g>
				<polygon class="st25" points="278.1,34.4 278.1,38 270.2,38 270.2,45.9 266.6,45.9 266.6,34.4 				"/>
			</g>
		</g>
		<ellipse class="st14" cx="292" cy="71.8" rx="5" ry="4.9"/>
		<ellipse class="st14" cx="278.1" cy="92.8" rx="5" ry="4.9"/>
	</g>
	<g id="telephone">
		<path class="st2" d="M-109.4,538.3c-1.4,0-2.6-1.2-2.6-2.6v-52.3c0-1.4,1.2-2.6,2.6-2.6h99.9c1.5,0,2.6,1.2,2.6,2.6v52.3
			c0,1.4-1.2,2.6-2.6,2.6H-109.4z"/>
		<rect x="-100.6" y="482.6" class="st26" width="82.6" height="53.9"/>
		<path class="st26" d="M-105.9,512.8c1.8,0,3.3-1.5,3.3-3.3c0-1.8-1.5-3.3-3.3-3.3c-1.8,0-3.3,1.5-3.3,3.3
			C-109.2,511.4-107.7,512.8-105.9,512.8z"/>
		<path class="st26" d="M-12.3,511c0.8,0,1.5-0.7,1.5-1.5c0-0.8-0.7-1.5-1.5-1.5c-0.8,0-1.5,0.7-1.5,1.5
			C-13.9,510.4-13.2,511-12.3,511z"/>
	</g>
	<g>
		<g id="keyboard">
			<path class="st2" d="M377.6,146.9c-1.9,0-3.4,1.6-3.4,3.6v273.6c0,2,1.5,3.6,3.4,3.6H479c1.9,0,3.4-1.6,3.4-3.6V150.5
				c0-2-1.5-3.6-3.4-3.6H377.6z"/>
			<g>
				<path class="st27" d="M397.6,405.4c0.5,0,0.9,0.4,0.9,0.9v13.5c0,0.5-0.4,0.9-0.9,0.9H384c-0.5,0-0.9-0.4-0.9-0.9v-13.5
					c0-0.5,0.4-0.9,0.9-0.9H397.6z"/>
				<path class="st27" d="M416.4,377.4c0.5,0,0.9,0.4,0.9,0.9v13.5c0,0.5-0.4,0.9-0.9,0.9h-13.6c-0.5,0-0.9-0.4-0.9-0.9v-13.5
					c0-0.5,0.4-0.9,0.9-0.9H416.4z"/>
				<path class="st27" d="M435.1,373c0.5,0,0.9,0.4,0.9,0.9v13.5c0,0.5-0.4,0.9-0.9,0.9h-13.6c-0.5,0-0.9-0.4-0.9-0.9v-13.5
					c0-0.5,0.4-0.9,0.9-0.9H435.1z"/>
				<path class="st27" d="M453.9,382.1c0.5,0,0.9,0.4,0.9,0.9v13.5c0,0.5-0.4,0.9-0.9,0.9h-13.6c-0.5,0-0.9-0.4-0.9-0.9V383
					c0-0.5,0.4-0.9,0.9-0.9H453.9z"/>
				<path class="st27" d="M475,405.4c0.5,0,0.9,0.4,0.9,0.9v13.5c0,0.5-0.4,0.9-0.9,0.9h-16c-0.5,0-0.9-0.4-0.9-0.9v-13.5
					c0-0.5,0.4-0.9,0.9-0.9H475z"/>
				<path class="st27" d="M475,386.9c0.5,0,0.9,0.4,0.9,0.9v13.5c0,0.5-0.4,0.9-0.9,0.9h-16c-0.5,0-0.9-0.4-0.9-0.9v-13.5
					c0-0.5,0.4-0.9,0.9-0.9H475z"/>
				<path class="st27" d="M475,368.3c0.5,0,0.9,0.4,0.9,0.9v13.5c0,0.5-0.4,0.9-0.9,0.9h-16c-0.5,0-0.9-0.4-0.9-0.9v-13.5
					c0-0.5,0.4-0.9,0.9-0.9H475z"/>
				<path class="st27" d="M475,209.7c0.5,0,0.9,0.4,0.9,0.9v13.5c0,0.5-0.4,0.9-0.9,0.9h-16c-0.5,0-0.9-0.4-0.9-0.9v-13.5
					c0-0.5,0.4-0.9,0.9-0.9L475,209.7L475,209.7z"/>
				<path class="st27" d="M475,191.1c0.5,0,0.9,0.4,0.9,0.9v13.5c0,0.5-0.4,0.9-0.9,0.9h-7.1c-0.5,0-0.9-0.4-0.9-0.9V192
					c0-0.5,0.4-0.9,0.9-0.9H475z"/>
				<path class="st27" d="M475,153.9c0.5,0,0.9,0.4,0.9,0.9v13.5c0,0.5-0.4,0.9-0.9,0.9h-7.1c-0.5,0-0.9-0.4-0.9-0.9v-13.5
					c0-0.5,0.4-0.9,0.9-0.9H475z"/>
				<path class="st27" d="M475,344.9c0.5,0,0.9,0.4,0.9,0.9v18.4c0,0.5-0.4,0.9-0.9,0.9h-16c-0.5,0-0.9-0.4-0.9-0.9v-18.4
					c0-0.5,0.4-0.9,0.9-0.9H475z"/>
				<path class="st27" d="M475,228.3c0.5,0,0.9,0.4,0.9,0.9v18.4c0,0.5-0.4,0.9-0.9,0.9h-16c-0.5,0-0.9-0.4-0.9-0.9v-18.4
					c0-0.5,0.4-0.9,0.9-0.9H475z"/>
				<path class="st27" d="M475,251.8c0.5,0,0.9,0.4,0.9,0.9v88c0,0.5-0.4,0.9-0.9,0.9h-16c-0.5,0-0.9-0.4-0.9-0.9v-88
					c0-0.5,0.4-0.9,0.9-0.9H475z"/>
				<path class="st27" d="M453.9,363.5c0.5,0,0.9,0.4,0.9,0.9v13.5c0,0.5-0.4,0.9-0.9,0.9h-13.6c-0.5,0-0.9-0.4-0.9-0.9v-13.5
					c0-0.5,0.4-0.9,0.9-0.9H453.9z"/>
				<path class="st27" d="M453.9,344.9c0.5,0,0.9,0.4,0.9,0.9v13.5c0,0.5-0.4,0.9-0.9,0.9h-13.6c-0.5,0-0.9-0.4-0.9-0.9v-13.5
					c0-0.5,0.4-0.9,0.9-0.9H453.9z"/>
				<path class="st27" d="M453.9,326.3c0.5,0,0.9,0.4,0.9,0.9v13.5c0,0.5-0.4,0.9-0.9,0.9h-13.6c-0.5,0-0.9-0.4-0.9-0.9v-13.5
					c0-0.5,0.4-0.9,0.9-0.9H453.9z"/>
				<path class="st27" d="M453.9,307.7c0.5,0,0.9,0.4,0.9,0.9V322c0,0.5-0.4,0.9-0.9,0.9h-13.6c-0.5,0-0.9-0.4-0.9-0.9v-13.5
					c0-0.5,0.4-0.9,0.9-0.9L453.9,307.7L453.9,307.7z"/>
				<path class="st27" d="M453.9,289c0.5,0,0.9,0.4,0.9,0.9v13.5c0,0.5-0.4,0.9-0.9,0.9h-13.6c-0.5,0-0.9-0.4-0.9-0.9v-13.5
					c0-0.5,0.4-0.9,0.9-0.9H453.9z"/>
				<path class="st27" d="M453.9,270.4c0.5,0,0.9,0.4,0.9,0.9v13.5c0,0.5-0.4,0.9-0.9,0.9h-13.6c-0.5,0-0.9-0.4-0.9-0.9v-13.5
					c0-0.5,0.4-0.9,0.9-0.9H453.9z"/>
				<path class="st27" d="M453.9,251.8c0.5,0,0.9,0.4,0.9,0.9v13.5c0,0.5-0.4,0.9-0.9,0.9h-13.6c-0.5,0-0.9-0.4-0.9-0.9v-13.5
					c0-0.5,0.4-0.9,0.9-0.9H453.9z"/>
				<path class="st27" d="M453.9,233.2c0.5,0,0.9,0.4,0.9,0.9v13.5c0,0.5-0.4,0.9-0.9,0.9h-13.6c-0.5,0-0.9-0.4-0.9-0.9v-13.5
					c0-0.5,0.4-0.9,0.9-0.9H453.9z"/>
				<path class="st27" d="M453.9,214.6c0.5,0,0.9,0.4,0.9,0.9V229c0,0.5-0.4,0.9-0.9,0.9h-13.6c-0.5,0-0.9-0.4-0.9-0.9v-13.5
					c0-0.5,0.4-0.9,0.9-0.9H453.9z"/>
				<path class="st27" d="M453.9,196c0.5,0,0.9,0.4,0.9,0.9v13.5c0,0.5-0.4,0.9-0.9,0.9h-13.6c-0.5,0-0.9-0.4-0.9-0.9v-13.5
					c0-0.5,0.4-0.9,0.9-0.9H453.9z"/>
				<path class="st27" d="M453.9,154c0.5,0,0.9,0.4,0.9,0.9v36.8c0,0.5-0.4,0.9-0.9,0.9h-13.6c-0.5,0-0.9-0.4-0.9-0.9v-36.8
					c0-0.5,0.4-0.9,0.9-0.9H453.9z"/>
				<path class="st27" d="M435.1,354.4c0.5,0,0.9,0.4,0.9,0.9v13.5c0,0.5-0.4,0.9-0.9,0.9h-13.6c-0.5,0-0.9-0.4-0.9-0.9v-13.5
					c0-0.5,0.4-0.9,0.9-0.9H435.1z"/>
				<path class="st27" d="M435.1,335.8c0.5,0,0.9,0.4,0.9,0.9v13.5c0,0.5-0.4,0.9-0.9,0.9h-13.6c-0.5,0-0.9-0.4-0.9-0.9v-13.5
					c0-0.5,0.4-0.9,0.9-0.9H435.1z"/>
				<path class="st27" d="M435.1,317.2c0.5,0,0.9,0.4,0.9,0.9v13.5c0,0.5-0.4,0.9-0.9,0.9h-13.6c-0.5,0-0.9-0.4-0.9-0.9V318
					c0-0.5,0.4-0.9,0.9-0.9H435.1z"/>
				<path class="st27" d="M435.1,298.5c0.5,0,0.9,0.4,0.9,0.9v13.5c0,0.5-0.4,0.9-0.9,0.9h-13.6c-0.5,0-0.9-0.4-0.9-0.9v-13.5
					c0-0.5,0.4-0.9,0.9-0.9H435.1z"/>
				<path class="st27" d="M435.1,279.9c0.5,0,0.9,0.4,0.9,0.9v13.5c0,0.5-0.4,0.9-0.9,0.9h-13.6c-0.5,0-0.9-0.4-0.9-0.9v-13.5
					c0-0.5,0.4-0.9,0.9-0.9H435.1z"/>
				<path class="st27" d="M435.1,261.3c0.5,0,0.9,0.4,0.9,0.9v13.5c0,0.5-0.4,0.9-0.9,0.9h-13.6c-0.5,0-0.9-0.4-0.9-0.9v-13.5
					c0-0.5,0.4-0.9,0.9-0.9H435.1z"/>
				<path class="st27" d="M435.1,242.7c0.5,0,0.9,0.4,0.9,0.9v13.5c0,0.5-0.4,0.9-0.9,0.9h-13.6c-0.5,0-0.9-0.4-0.9-0.9v-13.5
					c0-0.5,0.4-0.9,0.9-0.9L435.1,242.7L435.1,242.7z"/>
				<path class="st27" d="M435.1,224.1c0.5,0,0.9,0.4,0.9,0.9v13.5c0,0.5-0.4,0.9-0.9,0.9h-13.6c-0.5,0-0.9-0.4-0.9-0.9V225
					c0-0.5,0.4-0.9,0.9-0.9H435.1z"/>
				<path class="st27" d="M435.1,205.5c0.5,0,0.9,0.4,0.9,0.9v13.5c0,0.5-0.4,0.9-0.9,0.9h-13.6c-0.5,0-0.9-0.4-0.9-0.9v-13.5
					c0-0.5,0.4-0.9,0.9-0.9H435.1z"/>
				<path class="st27" d="M435.1,186.9c0.5,0,0.9,0.4,0.9,0.9v13.5c0,0.5-0.4,0.9-0.9,0.9h-13.6c-0.5,0-0.9-0.4-0.9-0.9v-13.5
					c0-0.5,0.4-0.9,0.9-0.9H435.1z"/>
				<path class="st27" d="M435.1,168.3c0.5,0,0.9,0.4,0.9,0.9v13.5c0,0.5-0.4,0.9-0.9,0.9h-13.6c-0.5,0-0.9-0.4-0.9-0.9v-13.5
					c0-0.5,0.4-0.9,0.9-0.9H435.1z"/>
				<path class="st27" d="M416.4,358.8c0.5,0,0.9,0.4,0.9,0.9v13.5c0,0.5-0.4,0.9-0.9,0.9h-13.6c-0.5,0-0.9-0.4-0.9-0.9v-13.5
					c0-0.5,0.4-0.9,0.9-0.9H416.4z"/>
				<path class="st27" d="M416.4,340.2c0.5,0,0.9,0.4,0.9,0.9v13.5c0,0.5-0.4,0.9-0.9,0.9h-13.6c-0.5,0-0.9-0.4-0.9-0.9v-13.5
					c0-0.5,0.4-0.9,0.9-0.9H416.4z"/>
				<path class="st27" d="M416.4,321.6c0.5,0,0.9,0.4,0.9,0.9V336c0,0.5-0.4,0.9-0.9,0.9h-13.6c-0.5,0-0.9-0.4-0.9-0.9v-13.5
					c0-0.5,0.4-0.9,0.9-0.9H416.4z"/>
				<path class="st27" d="M416.4,303c0.5,0,0.9,0.4,0.9,0.9v13.5c0,0.5-0.4,0.9-0.9,0.9h-13.6c-0.5,0-0.9-0.4-0.9-0.9v-13.5
					c0-0.5,0.4-0.9,0.9-0.9H416.4z"/>
				<path class="st27" d="M416.4,284.3c0.5,0,0.9,0.4,0.9,0.9v13.5c0,0.5-0.4,0.9-0.9,0.9h-13.6c-0.5,0-0.9-0.4-0.9-0.9v-13.5
					c0-0.5,0.4-0.9,0.9-0.9H416.4z"/>
				<path class="st27" d="M416.4,265.7c0.5,0,0.9,0.4,0.9,0.9v13.5c0,0.5-0.4,0.9-0.9,0.9h-13.6c-0.5,0-0.9-0.4-0.9-0.9v-13.5
					c0-0.5,0.4-0.9,0.9-0.9H416.4z"/>
				<path class="st27" d="M416.4,247.1c0.5,0,0.9,0.4,0.9,0.9v13.5c0,0.5-0.4,0.9-0.9,0.9h-13.6c-0.5,0-0.9-0.4-0.9-0.9V248
					c0-0.5,0.4-0.9,0.9-0.9H416.4z"/>
				<path class="st27" d="M416.4,228.5c0.5,0,0.9,0.4,0.9,0.9v13.5c0,0.5-0.4,0.9-0.9,0.9h-13.6c-0.5,0-0.9-0.4-0.9-0.9v-13.5
					c0-0.5,0.4-0.9,0.9-0.9H416.4z"/>
				<path class="st27" d="M416.4,209.9c0.5,0,0.9,0.4,0.9,0.9v13.5c0,0.5-0.4,0.9-0.9,0.9h-13.6c-0.5,0-0.9-0.4-0.9-0.9v-13.5
					c0-0.5,0.4-0.9,0.9-0.9L416.4,209.9L416.4,209.9z"/>
				<path class="st27" d="M416.4,191.3c0.5,0,0.9,0.4,0.9,0.9v13.5c0,0.5-0.4,0.9-0.9,0.9h-13.6c-0.5,0-0.9-0.4-0.9-0.9v-13.5
					c0-0.5,0.4-0.9,0.9-0.9H416.4z"/>
				<path class="st27" d="M416.4,172.7c0.5,0,0.9,0.4,0.9,0.9v13.5c0,0.5-0.4,0.9-0.9,0.9h-13.6c-0.5,0-0.9-0.4-0.9-0.9v-13.5
					c0-0.5,0.4-0.9,0.9-0.9H416.4z"/>
				<path class="st27" d="M416.4,396c0.5,0,0.9,0.4,0.9,0.9v22.9c0,0.5-0.4,0.9-0.9,0.9h-13.6c-0.5,0-0.9-0.4-0.9-0.9v-22.9
					c0-0.5,0.4-0.9,0.9-0.9H416.4z"/>
				<path class="st27" d="M397.6,154c0.5,0,0.9,0.4,0.9,0.9v22.9c0,0.5-0.4,0.9-0.9,0.9H384c-0.5,0-0.9-0.4-0.9-0.9v-22.9
					c0-0.5,0.4-0.9,0.9-0.9H397.6z"/>
				<path class="st27" d="M435.1,391.6c0.5,0,0.9,0.4,0.9,0.9v27.3c0,0.5-0.4,0.9-0.9,0.9h-13.6c-0.5,0-0.9-0.4-0.9-0.9v-27.3
					c0-0.5,0.4-0.9,0.9-0.9H435.1z"/>
				<path class="st27" d="M453.9,400.7c0.5,0,0.9,0.4,0.9,0.9v18.2c0,0.5-0.4,0.9-0.9,0.9h-13.6c-0.5,0-0.9-0.4-0.9-0.9v-18.2
					c0-0.5,0.4-0.9,0.9-0.9H453.9z"/>
				<path class="st27" d="M397.6,386.8c0.5,0,0.9,0.4,0.9,0.9v13.5c0,0.5-0.4,0.9-0.9,0.9H384c-0.5,0-0.9-0.4-0.9-0.9v-13.5
					c0-0.5,0.4-0.9,0.9-0.9H397.6z"/>
				<path class="st27" d="M397.6,368.2c0.5,0,0.9,0.4,0.9,0.9v13.5c0,0.5-0.4,0.9-0.9,0.9H384c-0.5,0-0.9-0.4-0.9-0.9v-13.5
					c0-0.5,0.4-0.9,0.9-0.9H397.6z"/>
				<path class="st27" d="M397.6,349.6c0.5,0,0.9,0.4,0.9,0.9V364c0,0.5-0.4,0.9-0.9,0.9H384c-0.5,0-0.9-0.4-0.9-0.9v-13.5
					c0-0.5,0.4-0.9,0.9-0.9H397.6z"/>
				<path class="st27" d="M397.6,331c0.5,0,0.9,0.4,0.9,0.9v13.5c0,0.5-0.4,0.9-0.9,0.9H384c-0.5,0-0.9-0.4-0.9-0.9v-13.5
					c0-0.5,0.4-0.9,0.9-0.9H397.6z"/>
				<path class="st27" d="M397.6,312.4c0.5,0,0.9,0.4,0.9,0.9v13.5c0,0.5-0.4,0.9-0.9,0.9H384c-0.5,0-0.9-0.4-0.9-0.9v-13.5
					c0-0.5,0.4-0.9,0.9-0.9H397.6z"/>
				<path class="st27" d="M397.6,293.7c0.5,0,0.9,0.4,0.9,0.9v13.5c0,0.5-0.4,0.9-0.9,0.9H384c-0.5,0-0.9-0.4-0.9-0.9v-13.5
					c0-0.5,0.4-0.9,0.9-0.9H397.6z"/>
				<path class="st27" d="M397.6,275.1c0.5,0,0.9,0.4,0.9,0.9v13.5c0,0.5-0.4,0.9-0.9,0.9H384c-0.5,0-0.9-0.4-0.9-0.9V276
					c0-0.5,0.4-0.9,0.9-0.9L397.6,275.1L397.6,275.1z"/>
				<path class="st27" d="M397.6,256.5c0.5,0,0.9,0.4,0.9,0.9v13.5c0,0.5-0.4,0.9-0.9,0.9H384c-0.5,0-0.9-0.4-0.9-0.9v-13.5
					c0-0.5,0.4-0.9,0.9-0.9H397.6z"/>
				<path class="st27" d="M397.6,237.9c0.5,0,0.9,0.4,0.9,0.9v13.5c0,0.5-0.4,0.9-0.9,0.9H384c-0.5,0-0.9-0.4-0.9-0.9v-13.5
					c0-0.5,0.4-0.9,0.9-0.9H397.6z"/>
				<path class="st27" d="M397.6,219.3c0.5,0,0.9,0.4,0.9,0.9v13.5c0,0.5-0.4,0.9-0.9,0.9H384c-0.5,0-0.9-0.4-0.9-0.9v-13.5
					c0-0.5,0.4-0.9,0.9-0.9H397.6z"/>
				<path class="st27" d="M397.6,200.7c0.5,0,0.9,0.4,0.9,0.9v13.5c0,0.5-0.4,0.9-0.9,0.9H384c-0.5,0-0.9-0.4-0.9-0.9v-13.5
					c0-0.5,0.4-0.9,0.9-0.9H397.6z"/>
				<path class="st27" d="M397.6,182.1c0.5,0,0.9,0.4,0.9,0.9v13.5c0,0.5-0.4,0.9-0.9,0.9H384c-0.5,0-0.9-0.4-0.9-0.9v-13.5
					c0-0.5,0.4-0.9,0.9-0.9H397.6z"/>
				<g>
					<path class="st27" d="M467.5,187.8h7.5c0.2,0,0.5-0.1,0.6-0.3c0.2-0.2,0.3-0.4,0.3-0.6v-13.5c0-0.2-0.1-0.4-0.3-0.6
						c-0.2-0.2-0.4-0.3-0.6-0.3h-7.5V187.8z"/>
					<path class="st27" d="M466.5,172.5H459c-0.2,0-0.5,0.1-0.6,0.3c-0.2,0.2-0.3,0.4-0.3,0.6v13.5c0,0.2,0.1,0.5,0.3,0.6
						c0.2,0.2,0.4,0.3,0.6,0.3h7.5V172.5z"/>
				</g>
				<path class="st27" d="M401.8,168.5c0,0.2,0.1,0.4,0.3,0.6c0.2,0.2,0.4,0.3,0.6,0.3h13.6c0.2,0,0.5-0.1,0.6-0.3
					c0.2-0.2,0.3-0.4,0.3-0.6v-3.5h17.9c0.2,0,0.5-0.1,0.6-0.3c0.2-0.2,0.3-0.4,0.3-0.6v-9.1c0-0.2-0.1-0.5-0.3-0.6
					c-0.2-0.2-0.4-0.3-0.6-0.3h-32.4c-0.2,0-0.5,0.1-0.6,0.3c-0.2,0.2-0.3,0.4-0.3,0.6L401.8,168.5L401.8,168.5z"/>
			</g>
		</g>
		<g id="screen">
			<path class="st2" d="M335.1,209.1c12.3,0,22.3,9.9,22.3,22.1v112.1c0,12.2-10,22.1-22.3,22.1h-5.6c-12.3,0-22.3-9.9-22.3-22.1
				V231.3c0-12.2,10-22.1,22.3-22.1H335.1z"/>
			<g>
				<path class="st2" d="M337.8,347.2V163.8c0-4,3.2-7.2,7.2-7.2c4,0,7.2,3.2,7.2,7.2v36.9c0,3.9,3.2,7.2,7.2,7.2c4,0,17.6,0,17.6,0
					v-3.1c0,0-15.3,0-17.6,0s-4.1-1.8-4.1-4.1v-36.9c0-5.7-4.7-10.3-10.4-10.3c-5.7,0-10.4,4.6-10.4,10.3l0,183.5"/>
			</g>
			<path class="st28" d="M242.4,437.5l0-299.3c0-7.2,2.3-8.6,8.1-6.4l66.8,25v262.3l-62.8,22.3C245.8,444.5,242.4,445.5,242.4,437.5
				z"/>
			<path class="st11" d="M253,132.8l-2.6-1c-5.8-2.1-8.1-0.8-8.1,6.4l0,299.3c0,7.5,3.1,7,10.6,4.4V132.8z"/>
			<polygon class="st7" points="260.2,147.1 311.9,165.3 311.9,410.4 260.2,428.8 			"/>
			<path class="st29" d="M317.3,419.1l8.7-3.1c3.5-1.2,6.3-5.2,6.3-8.9V169.1c0-3.6-2.8-7.7-6.3-9l-8.8-3.3V419.1z"/>
		</g>
	</g>
</g>
</svg>
