<svg id="Countryflags.com" xmlns="http://www.w3.org/2000/svg" viewBox="0 0 300 150"><title>canada-flag</title><rect id="_3" data-name="3" width="300" height="150" style="fill:red"/><rect id="_2" data-name="2" x="75" width="150" height="150" style="fill:#fff"/><path id="_1" data-name="1" d="M150,14.06,139.76,33.15c-1.16,2.07-3.24,1.88-5.32.72L127,30l5.52,29.32c1.16,5.36-2.56,5.36-4.4,3L115.22,47.92l-2.1,7.35a2.51,2.51,0,0,1-2.9,1.74L93.87,53.57l4.29,15.61c.92,3.47,1.64,4.91-.93,5.83l-5.83,2.74,28.15,22.86a3.69,3.69,0,0,1,1.28,3.83l-2.46,8.08c9.69-1.12,18.37-2.8,28.07-3.83.86-.09,2.29,1.32,2.28,2.31l-1.28,29.62h4.71l-.74-29.55c0-1,1.29-2.47,2.15-2.38,9.7,1,18.38,2.72,28.07,3.83l-2.46-8.08a3.69,3.69,0,0,1,1.28-3.83l28.15-22.86L202.77,75c-2.56-.92-1.85-2.35-.93-5.83l4.29-15.61L189.78,57a2.51,2.51,0,0,1-2.9-1.74l-2.1-7.35L171.85,62.4c-1.84,2.32-5.56,2.32-4.4-3L173,30l-7.41,3.84c-2.08,1.16-4.16,1.35-5.32-.72" style="fill:red"/></svg>