<svg width="29" height="29" viewBox="0 0 29 29" fill="none" xmlns="http://www.w3.org/2000/svg">
<path d="M28.9746 27.1875C28.9746 28.188 28.1633 29 27.1637 29H1.81092C0.811288 29 0 28.188 0 27.1875V1.8125C0 0.812 0.811288 0 1.81092 0H27.1637C28.1633 0 28.9746 0.812 28.9746 1.8125V27.1875Z" fill="#F2F2F2"/>
<path d="M19.9201 29V18.125H23.5419L24.4474 13.5938H19.9201V11.7813C19.9201 9.96875 20.8273 9.0625 22.6365 9.0625H24.4474V4.53125C23.5419 4.53125 22.4192 4.53125 20.8255 4.53125C17.4979 4.53125 15.3928 7.14216 15.3928 10.875V13.5938H11.771V18.125H15.3928V29H19.9201Z" fill="#322B2B"/>
</svg>
