<svg width="30" height="19" viewBox="0 0 30 19" fill="none" xmlns="http://www.w3.org/2000/svg">
<path fill-rule="evenodd" clip-rule="evenodd" d="M9.64939 7.67269V11.3271C9.64939 11.3271 13.1849 11.3224 14.6247 11.3224C13.845 13.6913 12.6329 14.9814 9.64939 14.9814C6.63012 14.9814 4.27373 12.5272 4.27373 9.49998C4.27373 6.47259 6.63012 4.01846 9.64939 4.01846C11.2457 4.01846 12.2767 4.58102 13.2222 5.36514C13.9793 4.60616 13.9162 4.49787 15.8421 2.67427C14.2072 1.18213 12.0341 0.272705 9.64939 0.272705C4.56677 0.272705 0.446777 4.40385 0.446777 9.49998C0.446777 14.5959 4.56677 18.7271 9.64939 18.7271C17.2464 18.7271 19.103 12.0946 18.4876 7.67269H9.64939ZM26.2323 7.85552V4.65782H23.9545V7.85529H20.6741V10.1393H23.9545V13.4283H26.2323V10.1396H29.4214V7.85552H26.2323Z" fill="#F2F2F2"/>
</svg>
