<svg width="29" height="29" viewBox="0 0 29 29" fill="none" xmlns="http://www.w3.org/2000/svg">
<path fill-rule="evenodd" clip-rule="evenodd" d="M23.9837 6.75994C23.9837 7.72103 23.2064 8.49994 22.2463 8.49994C21.2861 8.49994 20.5075 7.72103 20.5075 6.75994C20.5075 5.79887 21.2861 5.01994 22.2463 5.01994C23.2064 5.01994 23.9837 5.79887 23.9837 6.75994ZM14.5127 19.3332C11.8453 19.3332 9.68309 17.1693 9.68309 14.5C9.68309 11.8306 11.8453 9.66674 14.5127 9.66674C17.18 9.66674 19.3422 11.8306 19.3422 14.5C19.3422 17.1693 17.18 19.3332 14.5127 19.3332ZM14.5127 7.05403C10.4038 7.05403 7.07364 10.3877 7.07364 14.5C7.07364 18.6123 10.4038 21.946 14.5127 21.946C18.6215 21.946 21.9517 18.6123 21.9517 14.5C21.9517 10.3877 18.6215 7.05403 14.5127 7.05403ZM14.5127 2.61272C18.3808 2.61272 18.8385 2.62744 20.3668 2.69722C21.7794 2.7618 22.5461 2.99787 23.0565 3.19656C23.7325 3.45961 24.2152 3.77385 24.7229 4.28135C25.2292 4.78863 25.5436 5.27166 25.8066 5.94863C26.0052 6.45953 26.2407 7.22734 26.3051 8.64109C26.3748 10.1702 26.3893 10.6287 26.3893 14.5004C26.3893 18.3722 26.3748 18.8308 26.3051 20.3596C26.2407 21.7733 26.0052 22.5412 25.8066 23.0521C25.5436 23.7289 25.2292 24.2118 24.7229 24.7193C24.2152 25.2268 23.7325 25.5411 23.0565 25.8041C22.5461 26.0026 21.7794 26.2389 20.3668 26.3034C18.8385 26.3733 18.3808 26.388 14.5127 26.388C10.6445 26.388 10.1855 26.3733 8.65851 26.3034C7.24594 26.2389 6.47915 26.0029 5.96884 25.8041C5.29149 25.5411 4.81012 25.2268 4.30243 24.7193C3.79606 24.2121 3.48171 23.729 3.21867 23.0521C3.02006 22.5412 2.78464 21.7733 2.72019 20.3596C2.65049 18.8305 2.6347 18.3719 2.6347 14.5004C2.6347 10.6287 2.65049 10.1702 2.72019 8.64109C2.78464 7.22734 3.02006 6.45953 3.21867 5.94863C3.48171 5.27188 3.79475 4.78885 4.30243 4.28135C4.8088 3.77385 5.29149 3.45961 5.96884 3.19656C6.47915 2.9981 7.24594 2.7618 8.65851 2.69722C10.1855 2.62744 10.6445 2.61272 14.5127 2.61272ZM14.5127 0C10.5788 0 10.0842 0.0167657 8.54014 0.0872266C6.99736 0.157688 5.94386 0.402828 5.02319 0.76125C4.06964 1.13168 3.26208 1.62762 2.45715 2.43373C1.65091 3.23984 1.15638 4.04844 0.785482 5.00205C0.427736 5.92438 0.18309 6.97835 0.112067 8.52169C0.0423591 10.0682 0.0252686 10.5621 0.0252686 14.5C0.0252686 18.4379 0.0423591 18.9317 0.112067 20.4784C0.18309 22.0217 0.427736 23.0756 0.785482 23.9979C1.15638 24.9516 1.65091 25.7602 2.45715 26.5662C3.26208 27.3724 4.06964 27.8681 5.02319 28.2388C5.94386 28.5972 6.99736 28.8423 8.54014 28.9127C10.0842 28.9833 10.5788 29 14.5127 29C18.4465 29 18.9411 28.9833 20.4852 28.9127C22.0279 28.8423 23.0801 28.5972 24.0021 28.2388C24.9543 27.8681 25.7632 27.3724 26.5682 26.5662C27.3731 25.7602 27.8689 24.9516 28.2398 23.9979C28.5976 23.0756 28.8422 22.0217 28.9132 20.4784C28.9829 18.9317 29 18.4379 29 14.5C29 10.5621 28.9829 10.0682 28.9132 8.52169C28.8422 6.97835 28.5976 5.92438 28.2398 5.00205C27.8689 4.04844 27.3731 3.23984 26.5682 2.43373C25.7632 1.62762 24.9543 1.13191 24.0021 0.76125C23.0801 0.402828 22.0279 0.157688 20.4852 0.0872266C18.9411 0.0167657 18.4465 0 14.5127 0Z" fill="#F2F2F2"/>
</svg>
