<?xml version="1.0" encoding="UTF-8" standalone="no"?>
<!-- Created with Inkscape (http://www.inkscape.org/) -->

<svg
   xmlns:dc="http://purl.org/dc/elements/1.1/"
   xmlns:cc="http://creativecommons.org/ns#"
   xmlns:rdf="http://www.w3.org/1999/02/22-rdf-syntax-ns#"
   xmlns:svg="http://www.w3.org/2000/svg"
   xmlns="http://www.w3.org/2000/svg"
   xmlns:sodipodi="http://sodipodi.sourceforge.net/DTD/sodipodi-0.dtd"
   xmlns:inkscape="http://www.inkscape.org/namespaces/inkscape"
   width="337.06381mm"
   height="246.88994mm"
   viewBox="0 0 337.06382 246.88995"
   version="1.1"
   id="svg8"
   inkscape:version="0.92.1 r15371"
   sodipodi:docname="Malayalam-Letters-Colash.svg"
   inkscape:export-filename="/home/nav/Desktop/malayalamltrcolash.svg.png"
   inkscape:export-xdpi="300"
   inkscape:export-ydpi="300">
  <defs
     id="defs2" />
  <sodipodi:namedview
     id="base"
     pagecolor="#ffffff"
     bordercolor="#666666"
     borderopacity="1.0"
     inkscape:pageopacity="0.0"
     inkscape:pageshadow="2"
     inkscape:zoom="0.35"
     inkscape:cx="702.74122"
     inkscape:cy="522.60255"
     inkscape:document-units="mm"
     inkscape:current-layer="flowRoot10"
     showgrid="false"
     inkscape:window-width="1366"
     inkscape:window-height="679"
     inkscape:window-x="0"
     inkscape:window-y="28"
     inkscape:window-maximized="1"
     fit-margin-top="0"
     fit-margin-left="0"
     fit-margin-right="0"
     fit-margin-bottom="0"
     showguides="true"
     inkscape:guide-bbox="true">
    <sodipodi:guide
       position="508.57333,0.3324824"
       orientation="0,1"
       id="guide198"
       inkscape:locked="false" />
  </sodipodi:namedview>
  <metadata
     id="metadata5">
    <rdf:RDF>
      <cc:Work
         rdf:about="">
        <dc:format>image/svg+xml</dc:format>
        <dc:type
           rdf:resource="http://purl.org/dc/dcmitype/StillImage" />
        <dc:title></dc:title>
      </cc:Work>
    </rdf:RDF>
  </metadata>
  <g
     inkscape:label="Layer 1"
     inkscape:groupmode="layer"
     id="layer1"
     transform="translate(216.35225,-94.620284)">
    <g
       aria-label="അ  ആ  ഇ  ഈ  ഉ  ഊ  ഋ  ഌ    എ  ഏ ഐ   ഒ  ഓ  ഔ  ക  ഖ  ഗ  ഘ   ങ  ച   ഛ  ജ  ഝ  ഞ  ട ഠ  ഡ  ഢ  ണ  ത  ഥ  ദ  ധ   ന  ഩ  പ   ഫ  ബ  ഭ  മ  യ ര  റ  ല  ള  ഴ  വ  ശ  ഷ   സ  ഹ ൺ  ൻ  ർ  ൽ  ൾ"
       transform="matrix(0.47266637,0,0,0.47266637,-319.9577,77.310665)"
       style="font-style:normal;font-variant:normal;font-weight:normal;font-stretch:normal;font-size:37.5px;line-height:0%;font-family:Rachana;-inkscape-font-specification:Rachana;letter-spacing:6.38000059px;word-spacing:0px;fill:#000000;fill-opacity:1;stroke:none;stroke-width:1px;stroke-linecap:butt;stroke-linejoin:miter;stroke-opacity:1"
       id="flowRoot10">
      <rect
         style="opacity:1;fill:#ffffff;fill-opacity:1;stroke:#ffffff;stroke-width:1.40691197;stroke-linejoin:miter;stroke-miterlimit:4;stroke-dasharray:none;stroke-opacity:1"
         id="rect200"
         width="711.70459"
         height="520.92755"
         x="219.89706"
         y="37.324677" />
      <path
         d="m 389.33142,318.18275 q 0.0626,6.48676 -1.66452,12.72598 -1.72701,6.23925 -6.44677,11.05106 -4.71976,4.81178 -12.00079,4.8821 -7.28103,0.0703 -12.2431,-6.50151 -4.96212,-6.57186 -5.04838,-15.50763 -0.0863,-8.93584 5.80569,-15.74489 6.02441,-6.81033 15.67426,-8.35986 -5.11999,-9.21818 -15.84301,-9.11466 -5.42771,0.0524 -10.36392,3.01282 -4.9362,2.96034 -4.88764,7.99086 l 0.41677,43.15672 -11.38489,0.10992 -0.35664,-36.93471 q -0.0665,-6.88385 -5.6096,-11.92758 -5.54308,-5.04367 -12.55934,-4.97589 l -4.23629,0.0409 q 8.91314,4.41537 8.99432,12.82168 0.0811,8.40626 -7.94941,13.11767 10.35521,2.94503 10.44472,12.21182 0.0678,7.0163 -5.24519,12.09858 -5.31289,5.0823 -12.32914,5.15009 -10.06108,0.0971 -15.76596,-7.99006 -5.70491,-8.08717 -5.8047,-18.41308 -0.16607,-17.20963 12.44531,-27.39358 -3.05113,-0.63244 -7.28722,-0.59143 -11.12021,0.10732 -17.12925,8.50623 -6.00905,8.39891 -5.89903,19.78383 0.078,8.07534 3.18591,14.59878 3.10812,6.52356 8.96239,9.51213 l -4.47923,2.29398 q -6.65251,-3.37811 -10.30225,-11.15413 -3.64963,-7.77599 -3.74046,-17.17519 -0.13041,-13.50302 7.25206,-23.63631 7.38246,-10.13328 21.15036,-10.26614 9.66388,-0.0933 15.25451,3.03002 6.85315,-3.24365 16.78197,-3.33946 15.88593,-0.1534 22.34765,10.90535 6.64416,-11.18532 19.419,-11.3087 12.77495,-0.12335 21.54386,9.92019 8.76886,10.04351 8.89795,23.41412 z m -32.25667,4.94532 q 0.0485,5.03053 3.14393,10.2303 3.09528,5.19969 8.19213,5.15051 5.09667,-0.0493 7.81981,-5.96713 2.72313,-5.91785 2.65024,-13.46365 -0.0729,-7.54581 -3.44633,-14.13301 -8.06641,1.00466 -13.25018,5.75473 -5.18376,4.75007 -5.1096,12.42825 z m -48.24931,7.74764 q -0.0882,-9.13436 -14.51788,-8.99502 l -0.26463,0.002 -0.0447,-4.63338 3.30959,-0.0319 q 4.10387,-0.0396 7.38401,-3.11639 3.28014,-3.07676 3.24372,-6.84965 -0.0364,-3.77288 -3.04826,-7.18608 -3.01187,-3.41318 -6.73144,-4.70125 -6.32369,3.2385 -9.62913,10.55216 -3.30543,7.31366 -3.23378,14.72712 0.0716,7.41343 3.70411,13.40231 3.6325,5.98889 10.25165,5.92497 3.83908,-0.0371 6.72655,-2.64665 2.88751,-2.60961 2.85043,-6.4487 z"
         style="line-height:1em;fill:#474747;stroke-width:3.61509204px"
         id="path61"
         inkscape:connector-curvature="0" />
      <path
         d="m 779.68015,164.71168 q 0,10.35227 -6.481,16.74633 -6.4813,6.39403 -15.6159,6.39403 -6.1765,0 -10.7002,-2.34882 l 1.4787,-4.00172 q 2.958,1.47891 6.6116,1.47891 7.8294,0 13.7019,-6.74203 5.8722,-6.74203 5.8722,-15.09344 0,-4.61068 -2.4358,-8.78638 -2.4361,-4.17574 -6.5249,-5.48063 1.8271,4.69768 1.8271,8.91688 0,4.2192 -1.218,8.30791 -1.131,4.08873 -4.263,7.22051 -3.1316,3.13176 -7.9164,3.13176 -4.7845,0 -8.0033,-4.34968 -3.2189,-4.34969 -3.2189,-10.22179 0,-5.87208 4.0018,-10.35228 4.0016,-4.4802 10.2653,-5.35014 -3.306,-6.08955 -10.3525,-6.08955 -3.5665,0 -6.8288,1.87036 -3.2623,1.87036 -3.2623,5.26314 v 28.36 h -7.4815 v -24.27129 q 0,-4.52369 -3.60991,-7.87295 -3.6103,-3.34926 -8.2209,-3.34926 h -2.7839 q 5.8286,2.95778 5.8286,8.48189 0,5.52412 -5.3064,8.56891 6.7854,2.00088 6.7854,8.09044 0,4.52369 -3.4797,7.91644 -3.5668,3.30577 -8.17741,3.30577 -6.698,0 -10.3519,-5.30661 -3.6539,-5.30664 -3.6539,-12.17916 0,-11.4832 8.3516,-17.92074 -2.0879,-0.43498 -4.7846,-0.43498 -7.3079,0 -11.3096,5.5676 -4.0018,5.56761 -4.0018,12.87513 0,5.21962 2.0009,9.56933 2.0009,4.34968 5.8285,6.35055 l -2.9578,1.47888 q -4.3494,-2.34881 -6.6983,-7.48147 -2.3489,-5.13263 -2.3489,-11.00473 0,-5.87209 1.9574,-10.78724 1.9574,-4.91517 6.3503,-8.22094 4.3933,-3.30576 10.7006,-3.30576 6.3073,0 9.8737,2.08786 4.69751,-2.08786 11.04801,-2.08786 10.52601,0 14.61471,7.30748 4.4365,-7.30748 12.614,-7.30748 10.8741,0 16.5288,10.17829 7.3948,1.4789 11.5707,7.30749 4.1757,5.82859 4.1757,13.57104 z m -21.3139,-17.74676 q -5.2197,0.52197 -8.6994,3.69726 -3.4799,3.17528 -3.4799,8.13392 0,3.39276 2.0009,6.78552 2.0009,3.39277 5.3502,3.39277 3.3492,0 5.1762,-3.87123 1.8268,-3.87123 1.8268,-8.91689 0,-5.04564 -2.1748,-9.22135 z m -43.93161,16.61586 q 0,-6.00259 -9.48191,-6.00259 h -0.1734 v -3.04479 h 2.1747 q 2.6966,0 4.87131,-2.00085 2.175,-2.00088 2.175,-4.43671 0,-2.43583 -1.9574,-4.69768 -1.95741,-2.26182 -4.39301,-3.21877 -4.1754,2.17485 -6.3937,6.91602 -2.2187,4.74118 -2.2187,9.61283 0,4.87166 2.3491,8.82988 2.3489,3.95822 6.6983,3.95822 2.52251,0 4.43641,-1.73987 1.914,-1.73987 1.914,-4.1757 z"
         style="line-height:1em;fill:#eea48a;stroke-width:2.37551332px"
         id="path63"
         inkscape:connector-curvature="0" />
      <path
         d="m 310.10371,420.53512 -40.87604,0.12576 q -3.70406,0.0115 -5.66121,-1.90067 -1.95708,-1.91217 -1.96522,-4.55789 -0.008,-2.64571 2.00307,-4.66933 2.01109,-2.02358 5.5828,-2.03447 l 25.13422,-0.0774 q 4.96067,-0.0153 7.59556,-3.52897 2.56883,-3.51358 2.55332,-8.54035 -0.0153,-5.02702 -2.60665,-8.8223 -2.59122,-3.79523 -6.89049,-3.782 -2.57961,0.008 -4.2618,1.43518 -1.68245,1.4275 -1.67486,3.87471 l 0.0521,16.93252 -5.68836,0.0177 -0.0477,-15.54374 q -0.009,-2.84416 -2.49444,-4.55622 -2.48558,-1.71204 -6.09038,-1.70092 -3.60479,0.0111 -6.60777,2.13697 -3.00302,2.12587 -3.85013,6.29556 l 0.33115,0.13121 q 2.3697,-3.7776 6.04054,-3.78891 3.67096,-0.0113 5.76231,2.52876 2.09132,2.54012 2.10204,6.01256 0.0106,3.47261 -2.29597,6.1915 -2.30659,2.71885 -6.07676,2.73048 -3.77011,0.0117 -6.29358,-3.22157 -2.45726,-3.2335 -2.47137,-7.79724 -0.0212,-6.87883 4.79467,-10.99455 4.81583,-4.11583 10.96708,-4.13474 3.43939,-0.0106 6.25474,1.36976 2.8154,1.38028 4.34478,4.02138 2.76179,-5.30013 8.84689,-5.31889 6.08519,-0.0188 9.6715,4.73254 3.52041,4.81769 3.53938,10.96893 0.0188,6.1514 -2.87838,10.39348 -2.89735,4.24224 -8.05639,4.25807 l -29.69798,0.0913 q -1.85203,0.006 -2.90745,0.93501 -1.05547,0.9293 -1.05188,2.08675 0.003,1.15754 1.03139,2.01422 1.02784,0.85669 2.94605,0.85076 l 40.87604,-0.12574 z m -37.10185,-20.02637 q 1.05296,-1.68997 1.0459,-4.00493 -0.007,-2.31508 -1.10355,-3.99836 -1.09661,-1.68327 -3.04781,-1.67722 -1.95116,0.006 -2.97133,1.66278 -1.02012,1.65674 -1.01308,3.93866 0.007,2.28184 1.13687,4.03112 1.12977,1.74936 3.01509,1.74317 1.88506,-0.006 2.93812,-1.69555 z"
         style="line-height:1em;fill:#8e6885;stroke-width:1.8061446px"
         id="path65"
         inkscape:connector-curvature="0"
         inkscape:transform-center-x="-5.0209667"
         inkscape:transform-center-y="-247.24851" />
      <path
         d="m 432.31632,250.60274 0.1322,-2.44729 q 0,-5.68829 3.241,-9.19387 3.3072,-3.43944 7.7388,-3.43944 5.4237,0 8.5324,4.96073 3.5056,-5.09301 8.5986,-5.09301 5.093,0 8.797,4.49772 3.704,4.49772 3.704,11.11201 0,6.6143 -4.0347,11.1451 -4.0347,4.53079 -12.038,4.53079 -5.1592,0 -9.0616,-2.18272 -3.9024,-2.18271 -3.9024,-5.48986 v -0.85986 h 2.2488 v 0.79371 q 0,1.91815 2.8442,3.50558 2.9103,1.52129 6.5481,1.52129 5.7545,0 8.797,-3.83629 3.0426,-3.83629 3.0426,-9.42538 0,-5.58908 -2.7118,-8.69779 -2.7119,-3.10872 -6.1513,-3.10872 -2.2489,0 -3.7702,1.32286 -1.5213,1.32286 -1.5213,3.57171 v 9.45845 h -5.6883 v -7.0773 q 0,-3.704 -1.5213,-5.62215 -1.5874,-1.91815 -4.2331,-1.91815 -2.6457,0 -4.9607,2.74494 -2.3151,2.74492 -2.3151,7.30879 l -0.1322,2.11658 q 0,0.463 0.2646,2.18271 h -2.1166 q -0.3307,-1.52128 -0.3307,-2.38114 z m -4.8945,26.12648 h -40.8766 q -3.7039,0 -5.655,-1.91815 -1.9513,-1.91815 -1.9513,-4.56387 0,-2.64571 2.0174,-4.66308 2.0172,-2.01736 5.5889,-2.01736 h 25.1344 q 4.9607,0 7.6063,-3.50558 2.5797,-3.50557 2.5797,-8.53244 0,-5.02687 -2.5797,-8.83009 -2.5794,-3.80321 -6.8787,-3.80321 -2.5796,0 -4.2662,1.42207 -1.6867,1.42208 -1.6867,3.86936 v 16.9326 h -5.6883 v -15.5436 q 0,-2.84415 -2.4803,-4.56386 -2.4803,-1.71972 -6.0852,-1.71972 -3.605,0 -6.6143,2.11658 -3.0094,2.11657 -3.8692,6.28357 l 0.3307,0.13229 q 2.3812,-3.77015 6.0517,-3.77015 3.6712,0 5.7547,2.5465 2.0836,2.54651 2.0836,6.01901 0,3.47251 -2.3151,6.18437 -2.315,2.71187 -6.0854,2.71187 -3.7698,0 -6.2833,-3.24101 -2.4473,-3.24101 -2.4473,-7.80487 0,-6.87887 4.8285,-10.97973 4.8281,-4.10087 10.9797,-4.10087 3.4395,0 6.2504,1.38901 2.8111,1.389 4.3324,4.03472 2.778,-5.29144 8.863,-5.29144 6.0852,0 9.657,4.7623 3.5058,4.82842 3.5058,10.97972 0,6.1513 -2.9105,10.38445 -2.9103,4.23315 -8.0694,4.23315 h -29.6983 q -1.8518,0 -2.9101,0.926 -1.0583,0.92601 -1.0583,2.08351 0,1.1575 1.0252,2.01736 1.0252,0.85986 2.9432,0.85986 h 40.8766 z m -37.0402,-20.14054 q 1.0583,-1.68665 1.0583,-4.00165 0,-2.31501 -1.0914,-4.00165 -1.0916,-1.68665 -3.0428,-1.68665 -1.9509,0 -2.976,1.65358 -1.0254,1.65357 -1.0254,3.9355 0,2.28193 1.1246,4.03472 1.1242,1.75279 3.0091,1.75279 1.8851,0 2.9436,-1.68664 z"
         style="line-height:1em;fill:#2c001e;stroke-width:1.8061446px"
         id="path67"
         inkscape:connector-curvature="0" />
      <path
         d="m 520.88001,88.449232 q 4.0459,-3.540252 9.4761,-3.540375 5.43024,-2.04e-4 9.52947,3.593285 4.09942,3.593386 4.09955,8.890495 1.4e-4,5.297113 -4.07227,8.677643 -4.0726,3.38064 -9.34303,3.38067 l -7.08063,3.6e-4 q -1.33097,-1e-5 -2.36904,0.61223 -1.03809,0.61225 -1.03797,1.83659 1.1e-4,1.22443 1.03816,1.7568 1.03808,0.53238 2.36911,0.53231 l 20.49618,-3.8e-4 1.7e-4,3.99273 -20.49625,4.6e-4 q -2.60874,1.1e-4 -4.47206,-1.33081 -1.8098,-1.33117 -1.81009,-3.72656 10e-6,-2.39578 1.22427,-3.7266 1.27764,-1.33091 3.1143,-1.59712 4.39214,-0.63903 7.63966,-0.31969 4.15248,-8e-5 7.29339,-2.76847 3.14085,-2.76831 3.1407,-6.894151 -8e-5,-4.125919 -2.95484,-7.16037 -2.95478,-3.034458 -7.054,-3.03432 -7.45327,1.42e-4 -10.22123,6.228742 l 0.26835,0.210196 q 1.96968,-3.087752 4.92418,-3.087712 2.95464,1.4e-5 4.60509,2.07623 1.65032,2.07624 1.65058,5.004076 8e-5,2.927989 -1.8366,4.951129 -1.83659,2.02299 -4.95106,2.02316 -3.11435,1.4e-4 -5.19064,-2.23586 -2.02304,-2.23594 -2.02315,-5.483382 -4e-5,-5.323845 4.04575,-8.864061 z m 5.51043,12.590438 q 0.82522,-1.384245 0.8252,-3.141121 -1.8e-4,-1.756711 -0.85195,-3.167504 -0.85181,-1.410792 -2.55546,-1.410684 -1.70359,3.1e-5 -2.66176,1.357487 -0.95837,1.357681 -0.95831,3.194365 6e-5,1.836679 0.98499,3.194217 0.98497,1.35746 2.68863,1.35735 1.70352,5e-5 2.52866,-1.38411 z"
         style="line-height:1em;fill:#d4a018;stroke-width:1.45373261px"
         id="path69"
         inkscape:connector-curvature="0" />
      <path
         d="m 784.6447,375.42351 q 0.0327,3.30053 -1.19111,6.05454 -1.2237,2.75401 -4.23971,4.64733 -3.01582,1.89333 -7.32785,1.9361 -4.3116,0.0429 -7.46958,-1.62951 -3.10528,-1.72617 -3.13212,-4.44111 l -0.007,-0.69207 1.81016,-0.0179 0.006,0.63883 q 0.0153,1.54381 2.31673,2.7721 2.30182,1.22838 5.28249,1.19868 4.63149,-0.0459 7.04966,-3.15784 2.41826,-3.1119 2.37364,-7.61023 -0.0446,-4.49832 -2.25219,-6.97872 -2.20746,-2.48041 -4.97526,-2.45283 -1.81006,0.0179 -2.99747,1.0945 -1.18721,1.07657 -1.16922,2.88655 l 0.0757,7.61263 -4.63158,0.0459 -0.0566,-5.69615 q -0.0297,-2.98118 -1.29597,-4.51254 -1.26643,-1.53142 -3.39575,-1.51028 -2.12933,0.0212 -3.99722,2.24915 -1.86779,2.22803 -1.8315,5.90117 l 0.009,0.90497 q -0.0472,0.58612 -0.042,1.11847 0.005,0.53234 0.22718,1.43522 l -1.70348,0.0169 q -0.2761,-1.00881 -0.28177,-1.59434 -0.006,-0.58561 0.0411,-1.22494 l -0.0106,-1.06472 q -0.0454,-4.57818 2.61518,-7.39965 2.66053,-2.82155 6.17397,-2.85642 4.36513,-0.0433 6.90705,3.92452 2.88726,-4.12811 6.90663,-4.16794 4.01884,-0.04 7.08922,3.54987 3.07028,3.58987 3.12416,9.0198 z m -36.52749,20.96628 -20.49541,0.20335 q -3.19408,0.0317 -4.75268,-1.4436 -1.55861,-1.47523 -1.58028,-3.65786 -0.0217,-2.18262 1.58601,-3.82237 1.60749,-1.63978 4.64179,-1.6699 l 7.87896,-0.0781 q 3.77961,-0.0375 5.98719,-2.90777 2.20758,-2.87022 2.16712,-6.94269 -0.0403,-4.07245 -2.86549,-7.10572 -2.82536,-3.0333 -8.04227,-2.98152 -3.51353,0.0349 -6.132,1.73789 -2.61845,1.70306 -3.22874,4.58406 l 0.26825,0.21029 q 1.88583,-3.10662 4.84035,-3.13594 2.95451,-0.0293 4.65197,2.03019 1.69755,2.05953 1.72528,4.85435 0.0277,2.79483 -1.81386,4.99594 -1.84148,2.20113 -4.92918,2.23174 -3.08759,0.0307 -5.02969,-2.53223 -1.94199,-2.56286 -1.97737,-6.12959 -0.0539,-5.42995 3.69591,-8.47519 3.74989,-3.04527 9.23297,-3.09969 6.8673,-0.0681 10.33851,3.67751 3.47112,3.74558 3.52073,8.74962 0.0498,5.00411 -2.41827,8.51562 -2.46748,3.51169 -6.40676,3.55077 l -11.4456,0.11355 q -1.70358,0.0169 -2.54791,0.77063 -0.84423,0.75375 -0.83449,1.73858 0.01,0.98483 0.8412,1.61547 0.83145,0.63062 2.58821,0.61321 l 20.49542,-0.20335 z m -20.17263,-15.55887 q 1.65029,-0.0164 2.43407,-1.51484 0.7836,-1.49854 0.76699,-3.17541 -0.0166,-1.67689 -0.93529,-3.05201 -0.97199,-1.3746 -2.54249,-1.35903 -1.57039,0.0155 -2.32907,1.35411 -0.75858,1.33854 -0.74088,3.1219 0.0177,1.78337 0.85708,3.21252 0.83932,1.42914 2.48959,1.41276 z"
         style="line-height:1em;fill:#858585;stroke-width:1.45373261px"
         id="path71"
         inkscape:connector-curvature="0" />
      <path
         d="m 299.06369,131.20892 0.0158,0.88906 q 0.0672,3.64558 1.6273,6.24057 1.5626,2.59348 3.71849,3.88943 2.15858,1.29429 5.64098,2.03049 3.48242,0.73622 6.01911,0.82276 2.53653,0.0866 6.62623,0.0106 4.09026,-0.0756 7.45992,-0.62703 3.36968,-0.55143 7.12477,-1.91042 7.73068,-2.81117 7.55748,-12.19167 -3.54202,5.66901 -8.78795,5.76584 -5.24588,0.0969 -8.11092,-3.31903 -2.86468,-3.41599 -2.9534,-8.21735 -0.0887,-4.80135 2.78639,-8.05647 2.87488,-3.25511 7.58751,-3.34211 6.22394,-0.11506 9.8281,4.79933 3.60416,4.91436 3.72397,11.40515 0.23977,12.98149 -10.63277,16.65115 10.97597,1.93199 11.13682,10.64562 0.0772,4.17896 -2.71388,7.16568 -2.79109,2.98675 -7.39083,4.36136 -4.59973,1.37462 -8.5473,1.93659 -3.94769,0.56211 -7.54863,0.6286 -3.6011,0.0665 -6.71739,-0.0984 -8.1019,-0.42853 -14.02273,-3.16546 -2.95887,-1.27948 -5.05139,-3.82029 -2.09248,-2.54075 -2.15652,-6.00842 -0.15605,-8.44688 10.6503,-10.87003 -10.91627,-3.53414 -11.15437,-16.42675 -0.11999,-6.4907 3.34468,-11.53567 3.46434,-5.04475 9.59962,-5.15809 4.71225,-0.0869 7.7056,3.05973 2.9932,3.14678 3.08191,7.94814 0.0887,4.80137 -2.60349,8.31998 -2.69246,3.51853 -8.0271,3.61695 -5.33495,0.0985 -8.81699,-5.44067 z m 37.73239,1.08215 q 2.66777,-0.0493 4.04585,-2.47614 1.37819,-2.427 1.32649,-5.22781 -0.0517,-2.80081 -1.74197,-5.21555 -1.68991,-2.41482 -4.31294,-2.36635 -2.62284,0.0484 -3.91489,2.34014 -1.29172,2.29187 -1.24084,5.04826 0.14778,8.00228 5.83816,7.89722 z m -24.33235,-7.55569 q -0.0508,-2.75638 -1.38219,-4.99981 -1.33326,-2.2422 -3.9095,-2.19593 -2.5787,0.0477 -4.22336,2.52356 -1.6439,2.47617 -1.59219,5.27699 0.0517,2.80084 1.51887,5.17527 1.46705,2.37428 4.22339,2.3235 5.51241,-0.10168 5.36472,-8.10402 z m -10.15444,32.91912 q 0.0526,2.84527 2.31343,4.84928 2.26045,2.00398 5.78889,2.82828 3.52863,0.82426 6.51483,1.16938 2.98598,0.34503 5.69774,0.29502 2.71192,-0.0501 5.68327,-0.5052 2.97097,-0.45503 6.37691,-1.45182 3.40593,-0.99686 5.59188,-3.03852 2.18596,-2.04166 2.13411,-4.84236 -0.0517,-2.80083 -2.31067,-4.71591 -2.25895,-1.91504 -5.78654,-2.69489 -6.51956,-1.43616 -10.69851,-1.35902 -4.13459,0.0764 -7.01735,0.48531 -2.88329,0.40903 -6.42519,1.27496 -3.54172,0.86587 -5.72831,2.86307 -2.18704,1.99715 -2.13449,4.84242 z"
         style="line-height:1em;fill:#3465a4;stroke-width:2.42837119px"
         id="path73"
         inkscape:connector-curvature="0" />
      <path
         d="m 851.974,455.51706 q -0.13434,12.15458 -8.69779,18.03048 l -2.73029,-1.15967 q 6.73125,-5.57343 6.84791,-16.11444 0.0783,-7.09928 -2.8894,-11.11232 -2.96779,-4.01304 -7.35108,-4.0615 -4.38309,-0.0484 -7.73998,4.37899 -3.35688,4.42736 -3.44729,12.60206 l -0.0296,2.68919 7.85193,0.0866 0.17654,-15.97305 4.57149,0.0505 -0.23999,21.72778 q -0.0322,2.90413 -1.77472,4.84826 -1.74271,1.94399 -4.56626,1.9128 -2.82354,-0.0312 -4.63353,-1.74562 -1.80984,-1.71428 -2.51058,-4.00797 -0.70074,-2.29368 -0.67044,-5.03653 l -13.33791,-0.14733 0.004,-0.37655 q 4.00672,-2.37612 4.05533,-6.78629 0.0291,-2.63532 -1.59429,-4.18622 -1.62342,-1.55085 -4.0435,-1.57751 -2.4203,-0.0269 -4.24217,1.78184 -1.82193,1.80863 -1.85808,5.08939 -0.019,1.72105 0.66471,3.12706 0.68368,1.40602 1.96741,2.06568 l -1.68213,1.32614 q -3.25157,-2.67154 -3.20005,-7.35064 0.0517,-4.67899 2.79478,-7.09604 2.74289,-2.41713 6.50779,-2.37544 3.76464,0.0415 6.53457,2.49263 2.76986,2.45102 2.72424,6.59231 -0.0351,3.17309 -2.0505,5.46373 l 6.77642,0.0748 0.0291,-2.63532 q 0.10881,-9.84195 4.25387,-15.01364 4.19853,-5.17127 9.84585,-5.1087 5.647,0.0623 9.70923,4.81355 4.06243,4.75144 3.97436,12.71101 z m -18.24375,10.60998 0.0374,-3.38824 -7.85201,-0.0866 q -0.0286,2.58145 1.02082,4.95966 1.10397,2.32514 3.30897,2.34944 1.55971,0.0173 2.54034,-1.1014 0.92685,-1.11921 0.94444,-2.73284 z"
         style="line-height:1em;fill:#adadad;stroke-width:1.46868777px"
         id="path77"
         inkscape:connector-curvature="0" />
      <path
         d="m 552.00642,408.49609 q 3.9591,0.96773 6.1144,4.88266 2.1554,3.91493 2.1554,9.54539 0,5.63046 -3.2112,10.29319 -3.2109,4.66273 -8.9294,4.66273 -2.3755,0 -4.7509,-1.31965 l -0.9676,-5.63046 q 1.7594,1.40762 4.2228,1.40762 2.4633,0 3.959,-2.77125 1.4955,-2.77124 1.4955,-7.21403 0,-4.44278 -2.1554,-8.09378 -2.1554,-3.651 -6.0262,-3.651 h -1.7598 v -3.95891 h 1.7598 q 2.9032,0 4.5747,-2.37535 1.5834,-2.37535 1.5834,-5.80641 0,-5.10261 -3.5189,-9.1495 -3.6071,-3.95891 -10.7332,-3.95891 -7.126,0 -12.6684,6.99408 -5.5424,6.99409 -5.5424,21.24618 v 3.87094 h 12.8443 v -26.12884 h 7.4779 v 35.54226 q 0,4.92665 -2.9911,7.87386 -2.9911,2.9472 -7.7418,2.9472 -4.7508,0 -8.6217,-4.44279 -3.87081,-4.4428 -3.87081,-12.71253 h -21.8182 v -0.61584 q 6.5102,-3.95891 6.5102,-11.17293 0,-4.31082 -2.6833,-6.81813 -2.6832,-2.50732 -6.6419,-2.50732 -3.9589,0 -6.9062,2.99118 -2.9472,2.99118 -2.9472,8.35771 0,2.81523 1.1438,5.10261 1.1435,2.28737 3.2552,3.34308 l -2.7274,2.1994 q -5.3666,-4.31082 -5.3666,-11.96473 0,-7.6539 4.4429,-11.6568 4.4427,-4.00291 10.6009,-4.00291 6.1583,0 10.7331,3.95892 4.5746,3.95891 4.5746,10.73306 0,5.19058 -3.2549,8.97354 h 11.085 v -4.31082 q 0,-8.53366 2.02341,-15.08786 2.0233,-6.55421 5.4103,-10.29319 6.7304,-7.43396 15.7478,-7.43396 9.0176,0 14.824,5.63046 5.8065,5.63045 5.8065,12.49258 0,6.86212 -6.5104,10.02925 z m -21.5541,17.59518 v -5.54248 h -12.8443 q 0,6.42224 2.9911,9.8533 1.6716,2.02346 4.2228,2.02346 2.5513,0 4.1349,-1.84751 1.4955,-1.84749 1.4955,-4.48677 z"
         style="line-height:1em;fill:#aea79f;stroke-width:2.40232897px"
         id="path79"
         inkscape:connector-curvature="0" />
      <path
         d="m 400.83553,114.40204 q 0.0183,-2.61293 -1.62396,-4.14435 -1.64231,-1.53141 -3.96221,-1.54774 -2.3196,-0.0164 -4.14525,1.75728 -1.82559,1.77358 -1.85077,5.34638 -0.0249,3.54611 2.57872,4.87101 l -1.66254,1.32148 q -3.234,-2.68919 -3.20146,-7.30182 0.0325,-4.61262 2.71598,-7.04678 2.73643,-2.38046 6.44268,-2.35435 3.70617,0.026 6.46232,2.4186 2.75627,2.39252 2.72992,6.12527 -0.0263,3.73275 -1.96103,5.85223 l 6.719,0.0473 0.0183,-2.61292 q 0.0688,-9.75851 4.15808,-14.90249 4.08905,-5.143965 9.68815,-5.104504 5.59918,0.03946 9.69899,4.734524 4.09981,4.69506 4.04417,12.58717 -0.085,12.05148 -8.60537,17.91082 l -2.71161,-1.13899 q 6.70505,-5.55217 6.77868,-16.00388 0.0494,-6.9856 -2.96204,-11.0064 -3.06514,-3.96784 -7.35767,-3.9981 -4.29273,-0.0302 -7.60362,4.39929 -3.31077,4.42952 -3.36767,12.48163 l -0.0187,2.66625 7.78545,0.0549 0.11158,-15.83756 4.53264,0.032 -0.15186,21.54335 q -0.0203,2.87955 -1.76701,4.8137 -1.74682,1.93416 -4.51956,1.91461 -2.77293,-0.0195 -4.60085,-1.71224 -3.2056,-2.95561 -3.16327,-8.95469 l -13.22474,-0.0932 0.002,-0.37323 q 3.9627,-2.31848 3.99393,-6.74448 z m -17.67434,-4.33744 q -0.0256,3.62611 -1.7276,6.78712 -1.70214,3.161 -4.9693,5.16445 l -2.65771,-1.24526 q 4.77124,-3.53935 4.81746,-10.09834 0.0355,-5.06587 -2.66317,-8.01792 -2.69914,-2.952033 -6.37843,-2.977973 -3.67951,-0.026 -6.52613,2.833743 -2.84654,2.85963 -3.47098,8.24132 l 0.21246,0.10811 q 2.48042,-3.87546 5.54668,-3.85386 3.06627,0.0216 4.80905,2.43363 1.74277,2.41204 1.72159,5.42491 -0.0212,3.01286 -1.63536,5.05459 -1.61436,2.04176 -4.97385,2.01811 -3.3595,-0.0237 -5.41762,-3.10452 -2.05812,-3.08085 -2.02699,-7.50683 0.0489,-6.93226 3.88901,-10.77148 3.84007,-3.839229 9.01259,-3.802772 5.17263,0.03639 8.82747,3.555172 3.65475,3.51871 3.61083,9.75775 z m 36.42409,14.97511 0.0237,-3.35948 -7.78545,-0.0548 q -0.0181,2.5596 1.03197,4.91343 1.10375,2.30084 3.29011,2.31626 1.59961,0.0113 2.51404,-1.10215 0.91435,-1.11345 0.92569,-2.71321 z m -51.27925,-10.73355 q 0.0131,-1.83972 -0.9904,-3.23331 -1.00343,-1.39359 -2.84322,-1.40656 -1.8397,-0.013 -2.88892,1.31284 -1.04923,1.3258 -1.06224,3.16554 -0.013,1.83969 1.04398,3.20701 1.0569,1.36731 2.92337,1.38044 1.86635,0.0132 2.83554,-1.28656 0.96897,-1.29969 0.98189,-3.1394 z"
         style="line-height:1em;fill:#7e5273;stroke-width:1.4561671px"
         id="path81"
         inkscape:connector-curvature="0" />
      <path
         d="m 724.9619,204.45274 q -0.0501,4.51939 -3.33365,7.01107 -3.28352,2.49165 -6.99869,2.45038 -3.71508,-0.0412 -5.31474,-0.82493 l -0.94395,-4.68363 q 1.51422,1.62562 4.07987,1.65395 2.56607,0.0285 4.26743,-1.4082 1.62475,-1.43755 1.65575,-4.23345 0.031,-2.79589 -1.62949,-5.03597 -1.73666,-2.24081 -5.10715,-2.27825 l -3.14058,-0.0349 0.0349,-3.14056 3.14058,0.0349 q 2.14479,0.0238 3.46311,-1.41713 1.2418,-1.44177 1.26385,-3.43339 0.0366,-3.2938 -3.38539,-5.59175 -3.42185,-2.29793 -7.405,-2.34213 -7.35364,-0.0816 -11.99555,4.00372 -4.64191,4.08538 -5.5788,12.57861 l 0.15143,0.1548 q 3.4316,-5.47777 8.48715,-5.42167 4.21297,0.0468 6.58929,3.36732 2.37633,3.32056 2.32871,7.61016 -0.0476,4.28957 -2.49489,7.36508 -2.44729,3.07553 -7.1199,3.02366 -4.67252,-0.0518 -7.76126,-4.75927 -3.08873,-4.70747 -3.01817,-11.06524 0.11394,-10.26436 6.37546,-15.32767 6.33813,-5.06247 15.83646,-4.95705 6.28116,0.0697 11.57005,3.2694 5.28837,3.19952 5.24035,7.52742 -0.048,4.32788 -5.44058,7.02596 2.89968,1.02808 4.55815,3.45971 1.65838,2.43157 1.62526,5.41898 z m -30.08359,4.79906 q 2.52782,0.0281 4.081,-1.86995 1.55328,-1.89799 1.58228,-4.54078 0.0294,-2.64266 -1.44265,-4.61255 -1.47203,-1.96989 -3.92325,-1.9971 -2.45112,-0.0272 -4.15509,1.63929 -1.70387,1.6665 -1.7387,4.8071 -0.0348,3.14059 1.51674,4.84322 1.55156,1.70261 4.07939,1.73067 z"
         style="line-height:1em;fill:#ad7aa9;stroke-width:2.09181118px"
         id="path83"
         inkscape:connector-curvature="0" />
      <path
         d="m 769.73436,100.91132 q 0,12.86347 -7.52019,19.49311 -4.05703,3.66117 -10.093,3.66117 -6.03571,0 -10.58749,-4.74961 -4.45288,-4.84853 -4.65067,-11.47817 h 3.26536 q 0.49473,4.15587 3.16647,7.17387 2.67145,3.01797 6.6296,3.01797 3.95787,0 6.77794,-3.31484 2.82007,-3.3148 3.85899,-7.32229 1.03918,-4.00746 1.03918,-7.915997 0,-3.90851 -0.89058,-7.569649 -0.89057,-3.661143 -3.46341,-6.728579 -2.57256,-3.067462 -6.67905,-3.067462 -4.10648,0 -7.37184,3.562196 -3.26535,3.562198 -3.26535,8.113886 0,0.890556 0.19723,1.484256 h -3.26508 v -0.989495 q 0,-6.827548 4.15567,-11.972948 4.25482,-5.046428 10.8847,-5.046428 8.60853,0 13.20975,7.272814 4.60123,7.272813 4.60123,16.376196 z m -40.174,10.58764 q 0,5.83803 -4.20484,9.10338 -4.20593,3.26534 -9.00439,3.26534 -4.79874,0 -6.87711,-0.9895 l -1.28615,-6.03592 q 1.97894,2.07794 5.29401,2.07794 3.31454,0 5.49153,-1.88005 2.07729,-1.88004 2.07729,-5.49171 0,-3.61168 -2.17618,-6.48121 -2.27589,-2.86957 -6.62961,-2.86957 h -4.05704 v -4.056962 h 4.05704 q 2.77035,0 4.45261,-1.880037 1.5831,-1.880051 1.5831,-4.452751 0,-4.254825 -4.45234,-7.173867 -4.45316,-2.918988 -9.59855,-2.918988 -9.49885,0 -15.43593,5.343268 -5.93656,5.343295 -7.02492,16.326717 l 0.19725,0.19779 q 4.35372,-7.124392 10.88416,-7.124392 5.44208,0 8.5591,4.254852 3.11674,4.25483 3.11674,9.79605 0,5.54118 -3.11674,9.54865 -3.11702,4.00747 -9.153,4.00747 -6.03544,0 -10.0922,-6.03595 -4.05704,-6.03592 -4.05704,-14.24879 0,-13.259282 8.01464,-19.888913 8.11382,-6.629632 20.38328,-6.629632 8.11409,0 14.99038,4.056931 6.87684,4.056958 6.87684,9.64762 0,5.590664 -6.92629,9.152864 3.76062,1.28634 5.93708,4.40327 2.17673,3.1169 2.17673,6.97597 z m -38.78736,6.62963 q 3.26536,0 5.24429,-2.47375 1.97895,-2.47375 1.97895,-5.8875 0,-3.41377 -1.9295,-5.93701 -1.92949,-2.52321 -5.09595,-2.52321 -3.16647,0 -5.34292,2.1769 -2.177,2.17688 -2.177,6.23384 0,4.05693 2.02839,6.23385 2.02866,2.17688 5.29374,2.17688 z"
         style="line-height:1em;fill:#e05a2c;stroke-width:2.7019906px"
         id="path85"
         inkscape:connector-curvature="0" />
      <path
         d="m 472.87396,293.91636 q 5.05375,-6.6445 11.58869,-6.55943 6.5348,0.0849 11.3807,6.07401 4.84604,5.98907 4.73281,14.70227 -0.11326,8.71319 -5.50597,14.61258 -5.39252,5.89945 -15.93583,5.76248 -6.79621,-0.0884 -11.89977,-3.03066 -5.10336,-2.94225 -5.04664,-7.29895 l 0.0147,-1.13266 2.87537,0.0374 -0.0136,1.04564 q -0.0328,2.52677 3.77424,4.62435 3.80727,2.09741 8.59967,2.1597 7.58055,0.0985 11.65449,-4.90302 4.0739,-5.00158 4.16944,-12.36407 0.0958,-7.36278 -3.42347,-11.50442 -3.51928,-4.14175 -8.05021,-4.20069 -2.96249,-0.0385 -4.98932,1.67813 -2.02656,1.71643 -2.06499,4.67888 l -0.16199,12.45992 -7.49343,-0.0974 0.1213,-9.32322 q 0.0635,-4.87944 -1.90778,-7.43238 -2.05846,-2.55397 -5.54361,-2.59933 -3.48536,-0.0454 -6.62544,3.53031 -3.14049,3.57587 -3.21882,9.5882 l -0.0193,1.48128 q -0.10034,0.95725 -0.11175,1.82862 -0.0112,0.87124 0.40526,2.35828 l -2.87536,-0.0374 q -0.33268,-1.22444 -0.30772,-3.14139 l 0.0419,-3.2239 q 0.0975,-7.49354 4.51409,-12.05487 4.50277,-4.47312 10.86332,-4.39036 6.36083,0.0828 10.45817,6.67212 z m -31.93401,23.02725 q -0.0668,5.14082 -3.80743,7.96808 -3.74057,2.82719 -7.9664,2.77221 -4.22595,-0.0549 -6.04443,-0.95011 l -1.06356,-5.32975 q 1.71889,1.85243 4.63772,1.89041 2.91896,0.038 4.85756,-1.59265 1.85115,-1.63173 1.8925,-4.81205 0.0414,-3.1804 -1.84273,-5.73213 -1.97098,-2.55297 -5.80497,-2.60284 l -3.57231,-0.0464 0.0464,-3.57242 3.57234,0.0465 q 2.4398,0.0317 3.94266,-1.60457 1.41547,-1.63722 1.4449,-3.90269 0.0486,-3.74667 -3.83875,-6.36808 -3.88767,-2.62139 -8.41844,-2.68045 -8.36466,-0.10886 -13.65393,4.52832 -5.28906,4.63723 -6.37346,14.29649 l 0.17106,0.1768 q 3.91572,-6.22373 9.66645,-6.14895 4.79214,0.0623 7.48817,3.84477 2.69593,3.78234 2.63239,8.66186 -0.0634,4.87938 -2.85393,8.37259 -2.79068,3.49321 -8.10555,3.42377 -5.31508,-0.0692 -8.81825,-5.43074 -3.50335,-5.3616 -3.40956,-12.59331 0.15185,-11.67577 7.28546,-17.42183 7.22077,-5.74495 18.02531,-5.6043 7.14479,0.0929 13.1541,3.74414 6.00931,3.65107 5.94517,8.57416 -0.0641,4.92302 -6.20416,7.9804 3.29655,1.17581 5.17761,3.94541 1.88143,2.76952 1.83719,6.16776 z m -34.23187,5.39371 q 2.87518,0.0374 4.64642,-2.11832 1.77092,-2.1557 1.80995,-5.16171 0.0391,-3.00609 -1.63106,-5.25009 -1.67022,-2.24392 -4.45845,-2.28021 -2.78828,-0.0363 -4.72998,1.85568 -1.94194,1.89196 -1.98843,5.46445 -0.0465,3.57246 1.71469,5.51265 1.76144,1.94011 4.63686,1.97755 z"
         style="line-height:1em;fill:#85377d;stroke-width:2.37950778px"
         id="path87"
         inkscape:connector-curvature="0"
         inkscape:transform-center-x="35.455329"
         inkscape:transform-center-y="-3.7625403" />
      <path
         d="m 559.53947,244.30138 q 8.3228,0 13.1995,5.00674 4.8767,5.00674 4.8767,12.54936 0,7.54266 -4.3566,12.61443 -4.3565,5.07177 -10.2734,5.07177 -5.9172,0 -9.2984,-2.47086 l -0.6502,-6.24219 q 3.3812,2.08075 5.332,2.08075 4.5516,0 7.0874,-3.57626 2.5358,-3.57625 2.5358,-8.38793 0,-7.93278 -3.7712,-9.94849 -3.7713,-2.01568 -12.0943,-2.01568 h -0.9103 q 0,5.07176 -1.1054,10.0785 -1.1054,5.00674 -3.2512,9.81842 -2.1457,4.81169 -6.3722,7.73773 -4.2265,2.92601 -9.6883,2.92601 -11.0538,0 -16.1255,-10.66374 -4.1615,10.66374 -12.4195,10.66374 -8.2577,0 -13.1992,-5.65695 -4.9419,-5.657 -4.9419,-13.45974 0,-8.25788 4.5517,-12.22426 3.2508,-3.05608 10.9234,-3.77131 2.731,-0.12997 6.8924,-0.12997 h 4.8118 q 0,-10.01352 4.7468,-17.88125 4.7466,-7.86776 14.1748,-7.86776 9.4282,0 14.5,7.67266 5.0718,7.6727 5.9821,18.07635 z m -17.9464,0 q 0,-6.76238 -3.3812,-12.61442 -3.5112,-5.72201 -9.8833,-5.72201 -6.3723,0 -9.5582,5.72201 -3.1862,5.722 -3.1862,12.61442 z m 0,4.68164 h -26.0089 q -0.13,1.69057 -0.13,5.07176 0,7.02245 3.1862,13.00454 3.186,5.9821 9.4281,5.9821 4.0314,0 6.8923,-2.40585 2.8611,-2.40584 4.2916,-6.43727 2.3408,-7.28254 2.3408,-15.21528 z m -30.3005,11.31393 v -11.31393 h -4.4215 q -13.1345,0 -13.1345,10.66372 0,4.81168 2.4058,9.10316 2.4059,4.29152 6.8272,4.29152 8.323,0 8.323,-12.74447 z"
         style="line-height:1em;fill:#000080;stroke-width:3.55110765px"
         id="path89"
         inkscape:connector-curvature="0" />
      <path
         d="m 639.47233,420.62115 h -41.834 v -2.13821 q 4.8341,-3.34678 7.2514,-8.18104 2.417,-4.83425 2.417,-9.85443 0,-7.9021 -4.8343,-12.73632 -4.8341,-4.83421 -11.3417,-4.83421 -6.50766,0 -11.38856,4.9272 -4.8807,4.92716 -5.9034,14.50267 l 0.3718,0.18583 q 4.2765,-6.78653 9.6222,-6.78653 5.34566,0 8.41356,4.09051 3.0679,4.09052 3.0679,9.34311 0,5.25259 -2.9285,8.92475 -2.9285,3.67218 -8.83186,3.67218 -5.9033,0 -9.3433,-5.02018 -3.3468,-5.02017 -3.3468,-12.55045 0,-12.92226 6.5079,-19.66229 6.5075,-6.74002 15.57186,-6.74002 9.0642,0 15.6183,5.7639 6.554,5.76386 6.554,15.66472 0,9.90092 -8.1808,18.1749 h 24.6354 v -38.67386 h 7.9021 z M 582.57767,400.3545 q -2.9748,0 -5.0202,2.04528 -2.0452,2.04524 -2.0452,5.85687 0,3.81161 1.9058,5.85688 1.9059,2.04525 4.9738,2.04525 3.0678,0 4.8807,-2.32416 1.81276,-2.32417 1.81276,-5.53148 0,-3.20735 -1.76626,-5.57799 -1.7664,-2.37065 -4.7414,-2.37065 z"
         style="line-height:1em;fill:#5e2750;stroke-width:2.53859878px"
         id="path91"
         inkscape:connector-curvature="0" />
      <path
         d="m 736.50349,350.36516 v 0.29297 l 0.037,2.49023 q 0.037,2.78321 -1.7029,4.39453 -1.7395,1.61133 -4.1931,1.61133 -3.3691,0 -5.1636,-2.49023 -1.7944,-2.49024 -1.7944,-5.96924 0,-6.15234 4.6142,-8.71583 l 0.8423,0.95216 q -2.0507,1.20849 -2.9297,2.85644 -0.8789,1.64795 -0.8789,4.37621 0,2.72828 1.3001,4.74244 1.3,2.01416 3.6804,2.01416 1.5015,0 2.5269,-1.24512 0.9887,-1.24512 0.9521,-3.66211 v -3.11279 q 0,-3.14942 1.9043,-4.99878 1.9041,-1.84937 4.4311,-1.84937 3.0762,0 4.779,2.30713 1.703,2.30713 1.703,5.45654 0,3.14942 -1.3368,5.65796 -1.3366,2.50855 -4.0101,3.75368 l -0.8054,-0.91553 q 2.1972,-0.98878 3.3325,-3.05787 1.135,-2.0691 1.135,-4.59594 0,-2.52687 -1.2817,-4.50441 -1.3184,-1.94091 -3.5155,-1.94091 -1.538,0 -2.5817,1.53808 -1.0437,1.5381 -1.0437,4.61426 z"
         style="line-height:1em;fill:#85377d"
         id="path93"
         inkscape:connector-curvature="0" />
      <path
         d="m 513.2778,464.61267 -53.68175,-0.41652 0.1083,-13.94887 -20.62737,-0.15995 0.005,-0.59184 q 6.36979,-3.75497 6.41839,-10.01086 0.0315,-4.05783 -2.4014,-6.48622 -2.43284,-2.42835 -5.77219,-2.45425 -3.33921,-0.026 -5.76964,2.66068 -2.43024,2.6865 -2.46862,7.63198 -0.0384,4.94548 3.74346,7.84932 l -2.55384,2.26285 q -5.03947,-4.26631 -4.98403,-11.40977 0.0554,-7.14345 3.97246,-10.74848 4.00146,-3.60429 9.58104,-3.56099 5.57947,0.0434 9.73523,3.79541 4.15576,3.7522 4.10462,10.34614 -0.0348,4.48054 -3.18959,7.92239 l 10.22915,0.0793 0.0367,-4.73408 q 0.0604,-7.77755 5.25462,-12.55628 5.1942,-4.77864 13.43667,-4.71466 17.03444,0.13227 17.02113,23.63509 l -0.0118,1.52165 -28.57393,-0.22159 -0.0854,10.98997 39.31028,0.30498 0.27292,-35.16785 7.1857,0.0558 z m -21.17298,-16.98853 0.0138,-1.77529 q -0.0178,-8.62355 -2.94635,-12.53521 -3.01314,-3.91238 -8.88849,-3.95801 -5.87546,-0.0456 -9.5811,3.56107 -3.70565,3.60665 -3.75351,9.77791 l -0.0367,4.73416 z"
         style="line-height:1em;fill:#e05a2c;stroke-width:2.30852413px"
         id="path95"
         inkscape:connector-curvature="0"
         inkscape:transform-center-x="-2.97926"
         inkscape:transform-center-y="-10.202075" />
      <path
         d="m 827.37824,281.89202 q 0,6.86885 -5.4735,10.62525 -5.4738,3.75639 -12.7716,3.75639 -4.2931,0 -7.7275,-1.28791 l -1.5025,-6.3322 q 3.005,2.5758 8.0493,2.5758 5.0443,0 7.7273,-2.1465 2.5756,-2.25385 2.5756,-6.3322 0,-4.07839 -3.5951,-6.70787 -3.5953,-2.62948 -8.1028,-2.62948 h -4.2932 v -4.82965 h 3.9713 q 5.366,0 8.2639,-2.46846 2.7901,-2.46852 2.7901,-6.3859 0,-3.91738 -3.3267,-6.22485 -3.3272,-2.30749 -8.1568,-2.30749 -4.8296,0 -8.5324,2.30749 -3.7029,2.30747 -3.7029,6.27851 v 35.2028 h -9.1226 v -32.94892 q 0,-4.29306 -4.293,-7.29815 -4.4003,-3.00512 -9.65908,-3.00512 -9.0153,0 -14.05938,5.20528 -5.0443,5.20531 -6.2249,16.90379 l 0.4291,0.21451 q 4.8297,-7.72743 11.26918,-7.72743 6.4395,0 9.7666,4.50769 3.32668,4.50764 3.32668,10.57154 0,6.06392 -3.54128,10.46425 -3.5418,4.40035 -10.2496,4.40035 -6.70788,0 -10.67898,-5.79558 -3.8638,-5.90291 -3.8638,-14.48894 0,-14.59627 7.7813,-22.53837 7.78108,-7.94207 19.80116,-7.94207 12.0205,0 17.0649,8.69335 5.3663,-8.47872 16.6354,-8.47872 7.4054,0 12.9861,3.97105 5.5811,3.97105 5.5811,10.35692 0,6.38584 -7.2985,10.03493 3.8641,1.60988 6.0108,4.82965 2.1463,3.21975 2.1463,6.97615 z m -61.81908,5.15162 q 2.2538,-2.79046 2.2538,-6.49319 0,-3.7027 -2.0392,-6.3322 -2.0392,-2.62948 -5.47348,-2.62948 -3.4345,0 -5.7957,2.36118 -2.3611,2.36115 -2.3611,6.86884 0,4.50765 1.9855,6.76149 1.9856,2.25385 5.5273,2.25385 3.54168,0 5.90288,-2.79049 z"
         style="line-height:1em;fill:#474747;stroke-width:2.93070173px"
         id="path97"
         inkscape:connector-curvature="0" />
      <path
         d="m 678.85372,213.91109 -66.07656,0.87057 -0.0456,-3.4569 21.23545,-0.27987 q 4.642,-0.061 7.26525,-3.40493 2.62316,-3.34389 2.56928,-7.44291 -0.0541,-4.09883 -2.11457,-6.78841 -2.06067,-2.68936 -5.61625,-2.64261 -3.55566,0.0468 -5.74482,2.59476 -2.18911,2.54786 -2.15532,5.11588 0.0339,2.56796 1.04751,4.53039 l -4.4446,0.0585 q -1.22421,-2.94749 -1.25801,-5.51552 -0.069,-5.23471 3.73287,-9.08806 3.80204,-3.85347 10.22192,-3.93796 6.42011,-0.0847 10.5255,4.10913 4.00783,4.29398 4.09512,10.91139 0.0872,6.61748 -5.3827,11.33252 l 23.70469,-0.31243 -0.5412,-41.088 8.39546,-0.11069 z"
         style="line-height:1em;fill:#dd4814;stroke-width:2.69728851px"
         id="path99"
         inkscape:connector-curvature="0" />
      <path
         d="m 776.35579,479.66843 q -3.5935,-4.79628 -3.66874,-10.66299 -0.0751,-5.86682 3.12305,-9.69616 3.19822,-3.82938 9.09352,-3.90488 5.89522,-0.0755 9.97031,4.51529 4.07508,4.59073 4.14691,10.20122 0.0718,5.61049 -2.45162,8.7476 -2.52336,3.13706 -5.77009,3.17867 -3.24665,0.0416 -5.52862,-2.43584 -2.28197,-2.4774 -2.33593,-6.69238 -0.0977,-7.63255 6.32701,-13.06981 -1.55318,-1.17647 -3.60367,-1.15025 -4.78462,0.0613 -7.58921,3.48686 -2.80451,3.42549 -2.74549,8.03921 0.0409,3.1897 1.50058,5.96248 1.45971,2.77278 4.21563,4.44655 l 0.0124,0.96829 -33.83342,0.43299 -0.0255,-1.99358 11.79044,-0.1509 q 2.10753,-0.027 3.33657,-1.92271 1.22888,-1.8956 1.19869,-4.25945 -0.0302,-2.36386 -1.13288,-3.94484 -1.10235,-1.58119 -3.0963,-1.55542 -1.99353,0.0255 -3.37219,1.35339 -1.37874,1.32794 -1.3496,3.60633 0.0132,1.02524 0.65354,2.09946 l -2.50606,0.032 q -0.41482,-1.24796 -0.43449,-2.78586 -0.0475,-3.70231 2.14772,-5.7813 2.25196,-2.07962 5.69808,-2.1238 3.44596,-0.0441 5.8718,2.54543 2.42583,2.58947 2.47397,6.34878 0.0482,3.75925 -2.88165,6.30343 z m 16.93508,-3.23609 q 1.28448,-2.0103 1.2411,-5.39941 -0.0434,-3.38908 -0.98902,-6.05447 -1.00254,-2.66472 -2.55538,-3.84142 -5.91795,4.97504 -5.84431,10.72794 0.0379,2.96187 1.5141,4.79443 1.47611,1.83262 3.38426,1.80818 1.90814,-0.0244 3.24966,-2.03553 z"
         style="line-height:1em;fill:#b79eb0;stroke-width:1.55549264px"
         id="path101"
         inkscape:connector-curvature="0" />
      <path
         d="m 331.9149,224.01557 q 4.4644,-7.22157 14.1149,-7.22157 9.6507,0 16.9379,5.38334 7.2872,5.38337 7.2872,13.78663 0,8.4033 -7.0902,14.04926 -7.2217,5.51464 -21.0083,5.51464 h -32.43118 q -6.4337,0 -9.9132,2.75734 -3.47946,2.75734 -3.47946,6.03988 0,3.28251 2.1009,5.31769 2.10066,2.03519 5.90846,2.03519 8.1407,0 28.82028,-7.81245 20.6801,-7.81242 23.5686,-7.81242 6.3026,0 9.9132,3.6108 3.6108,3.61077 3.6108,8.14065 0,4.5299 -3.4795,7.68115 -3.4793,3.15126 -8.994,3.15126 -5.5146,0 -9.585,-3.21691 -4.0703,-3.21689 -4.0703,-7.28722 0,-2.36343 1.7068,-4.72685 l -0.1311,-0.26245 q -0.9192,0.39389 -3.9392,1.50995 -3.0199,1.11606 -4.5954,1.90384 -24.68448,12.07978 -37.68328,12.07978 -6.43376,0 -10.24146,-3.41385 -3.6763,-3.54514 -3.6763,-9.19111 0,-5.64596 6.3023,-10.37282 6.4338,-4.72685 18.64476,-4.72685 h 29.93638 q 8.272,0 12.9988,-4.85815 4.7269,-4.85814 4.7269,-11.09497 0,-6.2368 -3.7421,-9.71627 -3.7421,-3.47949 -8.5346,-3.47949 -4.7925,0 -8.3376,3.47949 -3.5452,3.47948 -3.5452,9.91323 v 11.55453 h -11.0293 v -13.91796 q 0,-5.12073 -4.4642,-8.14065 -4.46388,-3.01995 -11.55418,-3.01995 -7.0902,0 -12.07976,5.12075 l 0.3941,0.39393 q 1.9694,-1.18171 5.31766,-1.18171 3.348,0 6.4993,3.21686 3.1511,3.21688 3.1511,7.87808 0,4.66121 -3.0198,8.53458 -3.02,3.87338 -8.66586,3.87338 -5.6459,0 -9.0598,-3.61077 -3.4137,-3.61079 -3.4137,-9.12543 0,-9.1911 7.6153,-14.57447 7.74676,-5.38334 19.10446,-5.38334 11.35718,0 19.10388,7.22158 z m 19.4327,46.34938 q 2.1008,1.44431 4.7268,1.44431 2.626,0 4.3986,-1.50996 1.7726,-1.50999 1.7726,-3.93907 0,-2.42908 -1.8382,-4.07032 -1.8381,-1.64125 -4.4642,-1.64125 -2.6259,0 -4.6612,1.64125 -2.0351,1.64126 -2.0351,4.13597 0,2.49473 2.1007,3.93907 z m -54.75224,-25.86639 q 5.64586,0 5.64586,-6.89333 0,-6.8933 -5.64586,-6.8933 -2.4947,0 -4.0705,2.10079 -1.5755,2.10083 -1.5755,4.66121 0,2.56036 1.5755,4.79251 1.5758,2.23212 4.0705,2.23212 z"
         style="line-height:1em;fill:#bb90b7;stroke-width:3.58540106px"
         id="path103"
         inkscape:connector-curvature="0" />
      <path
         d="m 620.2782,143.87497 q 0.0108,8.6463 -4.84476,14.95704 -4.85563,6.31074 -12.78139,6.32073 -7.92577,0.01 -13.15851,-7.00859 -4.22418,7.0305 -11.87971,7.04016 -5.85432,0.008 -10.31816,-4.44527 -4.46394,-4.45265 -4.47289,-11.56786 l -0.0113,-8.91652 q -0.007,-5.40391 -2.89374,-9.13809 -2.8868,-3.73409 -8.29072,-3.72726 -3.6026,0.004 -5.40316,0.63725 4.50806,3.77711 7.26146,8.86234 2.75342,5.08525 2.76132,11.25484 0.008,6.16949 -3.67817,11.57808 -3.77606,5.31863 -9.99067,5.32645 -6.21451,0.008 -9.77899,-5.43666 -3.56447,-5.44451 -3.57177,-11.20872 -0.007,-5.7642 2.64329,-10.85628 2.65051,-5.09207 6.96941,-8.52 -2.16299,-1.07809 -6.3961,-1.07277 -7.47535,0.01 -11.6117,5.32858 -4.13635,5.31908 -4.12691,12.79453 0.015,11.88871 8.66828,17.46187 l -3.06033,1.53497 q -9.82588,-7.0127 -9.84273,-20.34247 -0.0114,-9.00656 5.20432,-15.49788 5.30585,-6.40138 14.76258,-6.41335 6.03442,-0.008 10.63123,2.6886 3.95947,-2.70697 11.20979,-2.7161 7.25033,-0.009 11.12909,4.62443 3.87869,4.6335 3.88719,11.38842 l 0.0107,8.55626 q 0.009,6.75494 2.75959,9.99384 2.75109,3.23892 6.39882,3.23433 3.64762,-0.004 6.43691,-2.16973 2.69924,-2.16497 2.69559,-5.04709 l -0.0376,-29.9018 7.65554,-0.01 0.0318,25.39852 q 0.007,5.0437 2.44166,7.78764 2.43519,2.74396 5.94774,2.73953 5.58409,-0.007 9.04533,-5.01009 3.46131,-5.00298 3.45354,-11.12747 -0.008,-6.12446 -2.76082,-10.93954 -2.75306,-4.81506 -7.97993,-7.24025 l 2.60896,-2.34501 q 6.03854,3.23478 9.15291,8.85998 3.11429,5.6252 3.12276,12.29008 z m -70.78742,3.60172 q -0.0127,-10.17741 -8.03715,-16.92229 -9.2673,7.48718 -9.25467,17.57454 0.004,4.14305 2.35141,7.69765 2.3462,3.55466 6.39913,3.54955 4.05302,-0.004 6.30003,-3.7006 2.24703,-3.69555 2.24125,-8.19885 z"
         style="line-height:1em;fill:#dd4814;stroke-width:2.45939946px"
         id="path105"
         inkscape:connector-curvature="0" />
      <path
         d="m 424.55537,383.49379 q -0.0917,6.91677 -3.63123,12.98958 -3.53938,6.07285 -10.18909,9.9226 l -5.29673,-1.87957 q 4.62365,-3.5573 7.19426,-8.79154 2.5706,-5.23425 2.64815,-11.08687 0.127,-9.5771 -5.58011,-16.624 -5.70699,-7.04688 -15.60347,-7.17809 -3.29858,-0.0438 -6.40142,1.19225 11.78677,10.05438 11.60763,23.56867 -0.12701,9.57709 -5.0407,14.93996 -4.91383,5.36279 -11.40507,5.27673 -6.49132,-0.086 -10.99812,-5.36072 -4.50663,-5.27485 -4.38076,-14.74562 0.0862,-6.49119 3.25285,-12.51589 3.05985,-6.02594 8.32502,-9.78762 -2.8563,-1.31503 -7.48511,-1.37643 -4.62882,-0.0614 -8.60069,2.49348 -3.97233,2.55509 -4.03749,7.45015 l -0.43298,32.66836 -9.04504,-0.11993 0.43325,-32.66848 q 0.0563,-4.25645 -4.16046,-7.29246 -4.32345,-3.03742 -9.53757,-3.10654 -8.93871,-0.11852 -14.00866,4.97618 -5.06994,5.09474 -6.39431,16.67819 l 0.42286,0.21835 q 4.78391,-7.5997 11.16881,-7.51507 6.38458,0.0846 9.72846,4.75872 3.34388,4.67408 3.26416,10.68637 -0.0797,6.01227 -3.38135,10.17256 -3.30121,4.16026 -10.0053,4.07147 -6.70433,-0.0888 -10.7753,-6.10296 -3.96472,-6.01267 -3.84884,-14.73851 0.18922,-14.25927 8.06321,-22.13727 7.87413,-7.87792 20.10448,-7.18361 4.36003,0.27063 8.95777,2.67322 4.59799,2.4024 6.03822,6.14665 2.39924,-4.33195 7.37586,-6.3948 4.97632,-2.06256 10.72278,-1.98638 5.74624,0.0762 10.48982,3.54481 6.00105,-3.1133 13.55642,-3.01313 12.34394,0.16368 19.68631,8.29658 7.34204,8.13287 7.19943,18.88051 z m -33.12506,1.90223 q 0.1623,-12.23739 -9.20538,-20.13106 -11.177,8.15341 -11.34233,20.60373 -0.0806,6.06553 2.95815,9.67124 3.0387,3.60567 7.24244,3.66129 4.20324,0.0557 7.23067,-3.52271 3.02751,-3.5785 3.11645,-10.28249 z m -65.61012,-4.382 q -3.40524,-0.0452 -5.77747,2.26489 -2.37219,2.31013 -2.42851,6.56657 -0.0566,4.25655 2.30507,6.73574 2.3619,2.47921 5.82045,2.52503 3.45854,0.0458 5.40853,-2.53587 1.94977,-2.58169 1.99847,-6.25292 0.0488,-3.67128 -1.93637,-6.46479 -1.98507,-2.79355 -5.39017,-2.83865 z"
         style="line-height:1em;fill:#56334b;stroke-width:2.90601373px"
         id="path107"
         inkscape:connector-curvature="0" />
      <path
         d="m 416.31759,185.19441 q 0,11.95384 -9.0055,18.16984 -9.0052,6.21599 -20.4012,6.21599 -11.3961,0 -20.1622,-3.18769 -8.7661,-3.18768 -14.0256,-8.4474 l 3.9844,-4.78152 q 3.9846,4.14401 11.9538,6.69417 7.9691,2.55012 16.6557,2.55012 8.6865,0 14.6635,-3.34707 5.9771,-3.34707 5.9771,-10.04124 0,-4.30339 -4.1441,-7.33169 -4.1442,-3.02833 -11.954,-3.02833 h -15.7792 q -9.8817,0 -15.779,-5.81754 -5.897,-5.81754 -5.897,-14.10555 0,-11.79446 9.0847,-17.85106 9.0848,-6.05661 20.4809,-6.05661 11.3961,0 20.1623,3.10799 8.7661,3.108 14.026,8.52708 l -4.3036,4.46276 q -8.9255,-9.24428 -25.8203,-9.24428 -9.7226,0 -16.2573,3.8252 -6.5348,3.82524 -6.5348,10.83817 0,4.14401 3.1877,7.01294 3.1878,2.86892 8.7661,2.86892 h 15.6198 q 12.2727,0 18.8872,5.41906 6.6146,5.41908 6.6146,13.54774 z"
         style="line-height:1em;fill:#ad7aa9;stroke-width:4.35226345px"
         id="path109"
         inkscape:connector-curvature="0" />
      <path
         d="m 640.88596,426.55838 q 5.41,-6.19537 14.3103,-6.19537 8.9004,0 14.8776,5.80268 5.9773,5.80272 5.9773,14.61581 0,8.81312 -5.9773,14.65942 -5.9772,5.84632 -14.5284,5.84632 -8.5515,0 -14.3104,-5.58456 -5.6718,-5.58453 -5.6718,-14.26677 0,-8.68219 5.3227,-14.87753 z m -2.5304,14.22312 q 0,6.2826 4.4501,10.9073 4.4501,4.62471 10.6891,4.62471 6.239,0 10.6456,-4.40653 4.4065,-4.40657 4.4065,-10.6892 0,-6.2826 -4.3629,-10.82002 -4.363,-4.53745 -10.6892,-4.53745 -6.3262,0 -10.7763,4.27565 -4.3629,4.36294 -4.3629,10.64554 z"
         style="line-height:1em;fill:#333333;stroke-width:2.38273811px"
         id="path111"
         inkscape:connector-curvature="0" />
      <path
         d="m 388.30094,221.49734 v -0.25635 q 0,-2.49023 -0.9155,-3.73535 -0.9155,-1.24511 -2.3071,-1.24511 -1.8677,0 -3.479,1.90429 -1.5748,1.94092 -1.5748,4.55933 0,2.6184 1.0437,4.59595 1.0437,1.97754 3.1312,3.00293 l -0.8057,0.87889 q -2.5269,-1.28174 -3.772,-3.6621 -1.2451,-2.38036 -1.2451,-5.09033 0,-3.88182 2.1606,-6.18896 2.1607,-2.30712 4.6875,-2.30712 2.5269,0 4.1199,1.77611 1.593,1.77612 1.593,5.1819 v 2.85644 q 0,2.85645 1.2818,4.26637 1.28172,1.40992 2.92972,1.40992 1.6479,0 2.7832,-0.84229 1.1352,-0.84228 1.1352,-2.12403 v -12.15819 h 3.1128 v 10.32714 q 0,2.0874 0.9155,3.20434 0.9156,1.11694 2.3072,1.11694 1.9409,0 3.6071,-1.94092 1.6663,-1.94092 1.6663,-5.05372 0,-2.16064 -1.0986,-4.06493 -1.062,-1.94092 -3.0762,-2.92969 l 0.9888,-0.95215 q 2.417,1.28174 3.6621,3.57056 1.2451,2.28881 1.2451,4.88891 0,3.8086 -2.2156,6.29883 -2.2156,2.49023 -5.2368,2.49023 -3.0212,0 -5.1454,-2.85645 -1.9408,2.85645 -5.2001,2.85645 -2.52683,0 -4.46772,-1.83105 -1.9043,-1.86768 -1.8677,-4.98048 v -0.10985 z"
         style="line-height:1em;fill:#f5c8b9"
         id="path113"
         inkscape:connector-curvature="0" />
      <path
         d="m 477.09086,149.77388 q 0,5.67542 -3.103,10.10439 -3.1028,4.42894 -8.4331,4.42894 -5.33073,0 -8.99063,-4.34938 -2.9702,4.24331 -7.5847,4.24331 -3.71291,0 -6.47101,-2.81119 -2.7582,-2.81119 -2.7582,-7.58492 v -3.76594 q 0,-3.81899 -1.326,-5.70194 -1.326,-1.88297 -3.3416,-1.88297 -3.1294,0 -5.198,2.97031 -2.0155,3.02337 -2.0155,6.70974 0,3.68636 1.4851,6.39148 1.4321,2.75816 4.5084,4.29636 l -1.1669,1.27299 q -3.6067,-1.85645 -5.4366,-5.30415 -1.8299,-3.4477 -1.8299,-7.31971 0,-5.03892 2.7846,-8.69878 2.7847,-3.65984 7.4522,-3.65984 3.3947,0 5.6755,2.5725 2.2807,2.5725 2.2807,7.5584 v 3.87203 q 0,4.24329 1.7769,6.33845 1.777,2.09513 4.11071,2.09513 2.3339,0 3.978,-1.29952 1.6443,-1.29951 1.6443,-3.209 v -17.39756 h 4.5084 v 15.16983 q 0,2.91728 2.1747,4.80025 2.17473,1.88297 5.38323,1.88297 3.2093,0 5.6756,-2.86424 2.4665,-2.86424 2.4665,-8.69879 h -0.053 q -1.1668,2.06861 -2.3603,2.99684 -1.1935,0.92822 -3.66,0.92822 -2.4664,0 -4.1102,-2.3073 -1.64433,-2.30729 -1.64433,-5.3837 0,-3.07639 1.90953,-5.06544 1.909,-1.98905 4.508,-1.98905 3.3417,0 5.2512,3.12943 1.9095,3.12945 1.9095,7.53187 z m -6.3119,-7.85013 q -1.5383,0 -2.6521,1.21996 -1.1139,1.21997 -1.1139,3.23553 0,2.01557 0.9546,3.42116 0.9548,1.40559 2.7054,1.40559 1.7502,0 2.8377,-1.27299 1.0873,-1.27299 1.0873,-3.31509 0,-2.04208 -1.1404,-3.36811 -1.1404,-1.32604 -2.6786,-1.32605 z"
         style="line-height:1em;fill:#411a35;stroke-width:1.44838321px"
         id="path115"
         inkscape:connector-curvature="0" />
      <path
         d="m 712.32339,329.44107 q 0,14.2426 -7.12134,26.56053 -7.12167,12.31792 -21.17179,18.47688 l -8.46853,-4.04181 q 10.20119,-6.15894 15.39729,-17.1296 5.00446,-10.9706 5.00446,-23.09609 0,-17.89952 -7.98753,-27.0417 -7.98753,-9.14223 -18.38035,-9.14223 -7.5059,0 -12.60649,4.42672 -5.1006,4.42682 -5.1006,11.35565 v 62.74444 h -16.35866 v -54.46838 q 0,-9.62339 -6.35194,-16.26355 -6.35131,-6.64011 -14.62757,-6.64011 -8.27688,0 -13.9543,3.65688 -5.67772,3.65684 -5.67772,10.20078 v 63.51438 h -16.36023 v -59.08757 q 0,-7.6988 -7.69849,-13.0878 -7.89139,-5.38913 -17.32191,-5.38913 -16.16733,0 -25.2133,9.33467 -9.04597,9.33472 -11.16287,30.3137 l 0.76972,0.38471 q 8.46852,-13.85769 20.9792,-13.85769 9.23825,0 16.07025,7.89117 6.83294,7.89123 6.83294,19.82417 0,11.93303 -7.12104,18.95809 -7.12136,7.02503 -16.74447,7.02503 -12.51067,0 -19.82429,-10.77826 -7.31394,-10.77814 -7.31394,-26.17558 0,-25.79069 13.95367,-39.93703 13.95398,-14.14632 35.70258,-14.14632 21.74923,0 30.79552,15.5899 9.43053,-15.20498 26.75275,-15.20498 20.78661,0 30.02517,14.24255 8.27562,-14.62747 24.05777,-14.62747 15.78216,0 28.00378,12.60665 12.22195,12.60661 12.22195,33.00817 z M 534.1944,363.31536 q 5.67835,0 10.10505,-4.23424 4.42637,-4.23435 4.42637,-11.83677 0,-7.60244 -4.2341,-12.12549 -4.23443,-4.52305 -9.81601,-4.52305 -5.58128,0 -9.8157,4.23435 -4.23411,4.23423 -4.23411,12.12549 0,7.89112 3.94539,12.12547 3.94537,4.23427 9.62311,4.23424 z"
         style="line-height:1em;fill:#e05a2c;stroke-width:5.25565147px"
         id="path117"
         inkscape:connector-curvature="0" />
      <path
         d="m 870.69041,410.06315 q 0.0707,7.78317 -3.81942,14.68997 -3.89013,6.90682 -11.14709,11.35097 l -6.22088,-2.01115 q 10.6257,-8.48815 10.49998,-22.35184 -0.10151,-11.18822 -6.86513,-19.39716 -6.76366,-8.20896 -17.70863,-8.10972 -3.76996,0.0341 -7.2812,1.76872 6.12684,5.05255 10.02155,12.07125 3.8947,7.01871 3.96312,14.55861 0.0992,10.94499 -5.3778,17.19735 -5.4771,6.25229 -12.89554,6.31943 -7.41821,0.0673 -12.76231,-5.84368 -5.34396,-5.91093 -5.44211,-16.73429 -0.0662,-7.29665 3.45904,-14.20022 3.52529,-6.90348 9.32069,-11.57764 -4.64102,-2.14716 -8.65411,-2.11067 -8.7559,0.0794 -14.9494,7.79768 -6.19339,7.71831 -6.10409,17.56881 0.14315,15.80931 11.8882,23.48649 l -4.11592,2.10492 q -13.34136,-9.36536 -13.50457,-27.36376 -0.11802,-13.01246 7.71064,-21.47523 7.95031,-8.46387 19.1385,-8.56532 7.17475,-0.0652 14.26347,3.76242 6.16678,-3.9478 14.07155,-4.01947 14.47159,-0.13128 23.43531,9.27398 8.96382,9.40529 9.07615,21.80955 z m -37.67974,2.53067 q -0.12452,-13.742 -11.03048,-22.76467 -12.43442,10.20727 -12.31098,23.82769 0.064,7.05346 3.56616,11.03515 3.50233,3.98171 8.24504,3.93863 4.74284,-0.043 8.17075,-4.26995 3.42794,-4.22698 3.35952,-11.76689 z"
         style="line-height:1em;fill:#56334b;stroke-width:3.32092571px"
         id="path119"
         inkscape:connector-curvature="0" />
      <path
         d="m 420.62547,443.96246 h -50.162 V 410.2469 h 6.4292 v 31.09905 h 12.634 V 424.077 q 0,-6.80292 4.4108,-10.6903 4.4853,-3.88736 10.802,-3.88736 6.3171,0 11.1017,4.41067 4.7843,4.4107 4.7843,12.40972 z m -2.4669,-2.61651 v -14.12913 q 0,-6.65341 -3.3266,-10.20438 -3.3269,-3.55097 -7.8869,-3.55097 -4.5602,0 -7.8497,3.25193 -3.2891,3.25195 -3.2891,8.85875 v 15.7738 z"
         style="line-height:1em;fill:#d7d3cf;stroke-width:2.04137421px"
         id="path121"
         inkscape:connector-curvature="0" />
      <path
         d="m 458.0842,406.89173 q 0,3.91265 -3.5925,7.04277 -3.5926,3.13013 -9.4971,3.13013 -2.4188,0 -4.98,-0.99596 l -0.4267,-3.98379 q 1.7074,1.49394 5.2286,1.49394 3.5214,0 5.5846,-1.56508 1.9918,-1.56505 1.9918,-3.98379 0,-2.41874 -2.3831,-4.41063 -2.3832,-1.9919 -6.5092,-1.9919 h -3.2014 v -3.20126 h 3.059 q 3.9838,0 6.1535,-1.56505 2.1698,-1.56508 2.1698,-3.91266 0,-2.34759 -2.2409,-4.19722 -2.2409,-1.8496 -5.9402,-1.8496 -4.9086,0 -8.6434,4.05493 -3.7348,4.05493 -3.7348,12.23593 0,5.40657 2.1341,12.7339 l -2.9167,0.71139 q -1.9206,-8.10986 -1.9206,-13.80099 0,-9.8172 4.9797,-14.69024 4.9799,-4.87302 11.1334,-4.87302 6.1534,0 9.7104,2.84556 3.557,2.84558 3.557,6.47366 0,4.62404 -5.5488,6.82937 2.9167,0.99593 4.375,3.0234 1.4583,2.02748 1.4585,4.44621 z"
         style="line-height:1em;fill:#474747;stroke-width:1.94257247px"
         id="path123"
         inkscape:connector-curvature="0" />
      <path
         d="m 513.01199,113.14162 q 0,10.91544 -5.86194,17.48494 -5.8621,6.56949 -13.84638,6.56949 -9.90466,0 -14.85715,-7.88338 -2.12235,3.94166 -6.06409,5.91251 -3.94171,1.97087 -7.98444,1.97087 -7.68096,0 -13.64422,-6.82216 -5.96276,-6.82214 -5.96276,-17.03011 0,-7.47911 3.63842,-13.896982 3.63841,-6.417907 10.61227,-9.854251 l 3.63825,3.133136 q -4.44687,3.23421 -6.87236,8.944607 -2.42584,5.7104 -2.42584,11.97667 0,9.19728 3.73976,13.74542 3.7394,4.54807 8.43882,4.54807 4.69975,0 7.7823,-2.62781 3.08271,-2.6278 3.08271,-6.46843 V 90.401066 h 8.59073 v 28.501464 q 0,5.65988 2.729,8.74247 2.72863,3.08262 6.77153,3.08262 5.45761,0 9.70267,-5.05346 4.24488,-5.05343 4.24488,-13.94753 0,-6.16521 -2.93097,-11.47131 -2.93096,-5.306141 -8.59109,-8.035002 l 2.82998,-2.627806 q 6.46857,3.53743 9.8544,9.904771 3.38569,6.367347 3.38552,13.644337 z"
         style="line-height:1em;fill:#b79eb0;stroke-width:2.75985885px"
         id="path125"
         inkscape:connector-curvature="0" />
      <path
         d="m 498.59675,356.6705 q 0,7.70701 -4.0677,14.55766 -4.0675,6.85068 -11.5604,10.38303 l -3.6393,-3.42531 q 10.3829,-6.63659 10.3829,-22.0506 0,-8.02811 -3.907,-13.64781 -3.907,-5.61965 -10.8646,-5.61965 -4.1746,0 -7.0113,2.46194 -2.8366,2.46196 -2.8366,6.31546 v 34.89556 h -8.9915 v -30.29279 q 0,-5.67321 -3.2112,-8.88445 -3.2113,-3.21123 -7.7071,-3.21123 -6.7437,0 -10.9183,5.6732 -4.0675,5.78025 -4.0675,13.11259 0,7.33236 2.9971,13.16613 2.9972,5.83379 9.3126,8.72388 l -3.1042,2.78308 q -7.0647,-3.8535 -10.4901,-10.49006 -3.4253,-6.63659 -3.4253,-14.34359 0,-10.38305 5.9943,-17.98297 5.9944,-7.59996 15.9492,-7.59996 4.6029,0 8.9381,2.24786 4.3352,2.24787 5.8338,5.99433 4.8168,-8.24219 14.7718,-8.24219 9.9547,0 15.842,7.59996 5.7803,7.70696 5.7803,17.87593 z"
         style="line-height:1em;fill:#6e3d62;stroke-width:2.92294979px"
         id="path127"
         inkscape:connector-curvature="0" />
      <path
         d="m 738.33838,303.21864 h -19.3361 v -0.43945 q 2.7099,-1.72119 2.7099,-4.57766 0,-1.61133 -1.0071,-2.69165 -1.0068,-1.08031 -2.7648,-1.08031 -1.7577,0 -3.0394,1.19018 -1.2818,1.19018 -1.2818,3.4424 0,2.25219 1.9409,3.60718 l -1.1352,0.91553 q -2.5634,-1.94091 -2.5634,-5.05372 0,-3.1128 1.9408,-4.77905 1.9409,-1.66624 4.6691,-1.66624 2.7282,0 4.5777,1.84933 1.8494,1.84938 1.8494,4.10159 0,2.2522 -1.4281,3.90014 h 11.7186 v -15.23439 h 3.1495 z"
         style="line-height:1em;fill:#772953"
         id="path131"
         inkscape:connector-curvature="0" />
      <path
         d="m 663.33376,176.03689 -35.85624,0.0805 -8.5e-4,-0.35159 q 3.71098,-2.36858 3.70186,-6.38617 -0.006,-2.51095 -1.54054,-3.91373 -1.53486,-1.40272 -3.79474,-1.39766 -2.25978,0.005 -4.01384,1.64113 -1.75398,1.63608 -1.74706,4.72454 0.007,3.08845 2.67271,4.94062 l -1.55399,1.25895 q -3.52138,-2.65365 -3.53095,-6.92242 -0.01,-4.2686 2.64703,-6.53439 2.65647,-2.26588 6.27233,-2.27388 3.6157,-0.008 6.25727,2.22073 2.64169,2.22893 2.65064,6.19629 0.006,2.81229 -1.89706,5.0262 l 8.83846,-0.0199 -0.0259,-11.60054 q -0.0103,-4.56997 3.02218,-7.18813 3.03235,-2.61821 7.25077,-2.62763 4.21831,-0.01 7.41372,2.89602 3.19544,2.90553 3.20723,8.17853 z m -1.66112,-1.75393 -0.0185,-8.23595 q -0.0113,-5.0219 -2.32733,-7.70339 -2.31611,-2.68153 -5.35433,-2.67469 -3.03816,0.007 -5.16754,2.19618 -2.12945,2.18928 -2.12125,5.85523 l 0.0236,10.59615 z"
         style="line-height:1em;fill:#a0649a;stroke-width:1.37131643px"
         id="path133"
         inkscape:connector-curvature="0"
         inkscape:transform-center-x="254.6058"
         inkscape:transform-center-y="-198.97214" />
      <path
         d="m 347.11147,206.15824 h -28.66 v -1.73909 q 3.1999,-1.94776 5.078,-6.1911 1.8784,-4.24337 1.8784,-9.04321 0,-4.79985 -2.3305,-8.10409 -2.3303,-3.30425 -6.9215,-3.30425 -2.7822,0 -4.8692,1.53038 -2.0867,1.53039 -2.0867,4.03466 v 22.8167 h -5.8434 v -21.35586 q 0,-2.8521 -2.5734,-4.76508 -2.5742,-1.913 -5.8433,-1.913 -5.8434,0 -9.0781,3.4086 -3.2347,3.4086 -3.9998,10.9214 l 0.2781,0.13905 q 3.0607,-5.0781 7.3738,-5.0781 3.5479,0 5.6343,3.02599 2.0869,3.02598 2.0869,6.9911 0,3.9651 -2.0172,6.71283 -2.0168,2.74776 -6.191,2.74776 -4.1739,0 -6.8173,-3.89555 -2.6433,-3.89553 -2.6433,-9.53016 0,-8.27799 4.7999,-13.8778 4.7997,-5.59985 12.3125,-5.59985 3.5479,0 6.191,1.39126 2.6436,1.39126 5.0781,4.31293 1.8087,-2.64341 4.5215,-4.10425 2.7129,-1.46082 5.4257,-1.46082 6.3305,0 9.7388,4.3477 3.4085,4.34771 3.4085,10.60837 0,4.24334 -1.565,8.03454 -1.5652,3.79118 -4.4867,6.2259 l 0.1387,0.27825 h 16.8339 V 174.7852 h 5.1479 z m -62.6063,-13.70394 q -1.3912,1.59994 -1.3912,4.41727 0,2.81729 1.426,4.38246 1.4262,1.56518 3.5131,1.56518 2.087,0 3.3391,-1.7043 1.2522,-1.70428 1.2522,-4.10422 0,-2.39993 -1.3217,-4.24336 -1.3217,-1.84343 -3.3392,-1.84343 -2.0173,0 -3.4783,1.5304 z"
         style="line-height:1em;fill:#f3bfad;stroke-width:1.89953685px"
         id="path135"
         inkscape:connector-curvature="0" />
      <path
         d="m 720.92567,256.7751 8.0091,-0.39388 q 5.7771,0 9.5191,3.34807 3.742,3.34806 3.742,8.33732 0,4.98925 -5.7115,8.99378 -5.7115,4.00456 -16.0183,4.00456 -10.3068,0 -20.2852,-2.36333 l -1.1815,-6.30225 q 8.1399,2.49462 16.5432,2.49462 8.4029,0 11.8824,-2.03507 3.4793,-2.0351 3.4793,-4.39844 0,-2.36333 -1.8382,-4.07017 -1.9694,-1.57558 -4.5297,-1.90382 -2.5603,-0.32805 -6.368,-0.59082 -3.8074,-0.2628 -5.1206,-0.39391 -6.8275,-0.65645 -10.3067,-3.47936 -3.4791,-2.82285 -3.4791,-6.89303 0,-4.0702 3.676,-7.22129 3.6761,-3.15114 9.0596,-3.15114 l 13.2609,1.31297 q 2.2321,0 4.0702,-1.57555 1.7069,-1.57558 1.7069,-3.80758 0,-4.0702 -4.5953,-7.54956 -4.5955,-3.47935 -13.4582,-3.47935 -8.8624,0 -15.6895,7.35259 -6.8274,7.35261 -6.8274,23.10817 0,8.66555 4.0702,23.50203 l -5.6458,1.18167 q -3.4137,-16.93723 -3.4137,-25.60278 0,-18.38149 8.7968,-27.30964 8.9279,-8.92816 21.2699,-8.92816 12.3419,0 19.4976,5.90836 7.1557,5.90835 7.1557,12.99834 0,4.20146 -3.0855,7.15562 -3.0855,2.95418 -8.0748,2.95418 -1.9695,0 -5.9084,-0.98473 -3.939,-0.98472 -6.7619,-0.98472 -2.8227,0 -5.3176,1.64122 -2.4946,1.64118 -2.4946,3.87324 0,2.23203 2.5604,3.74194 2.5604,1.5099 7.8122,1.5099 z"
         style="line-height:1em;fill:#ad7f98;stroke-width:3.58526611px"
         id="path137"
         inkscape:connector-curvature="0" />
      <path
         d="m 834.89074,373.62426 h -45.0482 v -16.23345 q 0,-15.92907 5.4281,-23.23413 5.428,-7.30506 16.3856,-7.30506 10.9578,0 17.0961,7.2036 6.1384,7.20358 6.1384,20.69765 z m -6.8992,-3.55107 v -16.6393 q 0,-8.82693 -2.6381,-15.21886 -3.1959,-7.2036 -13.0884,-7.00069 7.2038,4.97152 7.2038,12.47948 0,4.05836 -1.7249,7.96454 -1.7247,3.90617 -4.3628,6.84852 -5.8847,6.59483 -11.9723,11.56631 z m -16.0309,-28.00272 q 0,-3.75398 -1.8263,-6.29047 -1.9277,-2.435 -5.4788,-2.435 -10.4502,0 -10.4502,22.92976 v 13.79843 q 17.7553,-12.68238 17.7553,-28.00272 z"
         style="line-height:1em;fill:#2c001e;stroke-width:2.77050877px"
         id="path139"
         inkscape:connector-curvature="0" />
      <path
         d="m 673.07629,244.47742 q 0,11.09936 -7.1575,19.19052 -7.1573,8.09111 -19.18999,8.09111 -5.9127,0 -8.7135,-1.3485 -4.8753,1.3485 -10.3732,1.3485 -14.6262,0 -22.3543,-8.50607 -7.7281,-8.50606 -7.7281,-19.50171 0,-8.50608 4.4605,-14.57445 4.4605,-6.06834 12.1367,-6.06834 7.6762,0 12.4479,9.12849 6.9501,-9.12849 15.7673,-9.12849 6.8464,0 11.3587,5.80902 4.51209,5.80902 4.51209,12.65536 0,16.80468 -14.83349,24.89584 1.8673,0.62239 3.6306,0.62239 9.6473,0 15.24829,-6.63889 5.4977,-6.74262 5.4977,-15.9748 0,-11.72182 -7.9871,-18.67188 l 3.9417,-2.69705 q 9.3357,8.29861 9.3357,21.36895 z m -34.43859,20.12411 q 5.2904,-2.59332 8.0911,-7.98743 2.8008,-5.39407 2.8008,-11.56618 0,-6.17207 -2.5933,-11.09939 -2.5932,-4.92729 -7.9874,-4.92729 -5.394,0 -8.4541,4.77168 -3.0601,4.7717 -3.0601,10.68449 0,5.91275 2.9564,11.56617 2.9563,5.65342 8.2466,8.55795 z m -5.7052,1.86718 q -5.2904,-2.9045 -8.921,-9.64711 -3.5269,-6.74266 -3.5269,-12.39609 0,-5.65339 -2.1784,-10.21764 -2.2821,-4.56422 -6.587,-4.56422 -4.3049,0 -6.8464,4.30488 -2.5414,4.30492 -2.5414,10.21767 0,9.12848 6.1202,16.02668 6.1202,6.89823 18.257,6.89823 4.1494,0 6.2239,-0.6224 z"
         style="line-height:1em;fill:#925475;stroke-width:2.8325913px"
         id="path141"
         inkscape:connector-curvature="0" />
      <path
         d="m 660.67015,83.225548 q 0.0288,5.17252 -2.09037,7.896161 -2.11917,2.723641 -5.03183,2.739931 -2.91267,0.01619 -5.00917,-2.206976 -2.09651,-2.223067 -2.11692,-5.88901 -0.0372,-6.678996 5.66112,-11.481154 -1.76548,-1.396327 -3.82443,-1.38477 -3.86681,0.02149 -6.13358,3.298378 -2.26676,3.276505 -2.24187,7.745836 0.0316,5.674712 4.51952,8.964157 l -1.14888,1.111322 q -5.84602,-3.683763 -5.88882,-11.367143 -0.0282,-5.071542 2.96415,-8.804443 3.04291,-3.682986 8.11497,-3.711302 5.07205,-0.02821 8.63188,3.442187 3.55983,3.470502 3.59423,9.646826 z m -12.2446,1.625048 q 0.0137,2.460662 1.40422,4.160417 1.39052,1.699654 3.04772,1.690472 1.65721,-0.0093 2.75235,-1.74791 1.09516,-1.738728 1.07824,-4.776881 -0.0169,-3.038153 -0.83342,-5.368868 -0.8165,-2.330234 -2.2787,-3.376673 -5.19866,4.347421 -5.17041,9.419443 z"
         style="line-height:1em;fill:#f3bfad;stroke-width:1.37131643px"
         id="path143"
         inkscape:connector-curvature="0" />
      <path
         d="m 550.46615,193.53357 q 0.44555,5.73736 -2.29601,11.06791 -2.74147,5.33059 -8.16585,7.8295 l -2.46167,-2.96434 q 3.68242,-2.1328 5.31279,-5.91491 1.63045,-3.78213 1.31581,-7.83659 -0.48685,-6.27293 -4.2731,-9.44228 -3.86258,-3.16344 -8.79665,-2.78051 -4.93424,0.38293 -8.29485,4.18389 -3.3606,3.80096 -2.87376,10.07389 0.35623,4.58995 2.83328,8.24571 2.47713,3.65574 6.90368,5.15922 l -1.21688,2.17241 q -5.32123,-2.12673 -8.51396,-6.57351 -3.12192,-4.52921 -3.54342,-9.96065 -0.66492,-8.56793 4.22745,-13.94998 4.96913,-5.38804 11.89221,-5.92532 6.92308,-0.53728 12.10482,3.75514 5.18112,4.29252 5.84611,12.86042 z"
         style="line-height:1em;fill:#c0b3bc;stroke-width:2.09521794px"
         id="path145"
         inkscape:connector-curvature="0" />
      <path
         d="m 308.56156,370.51578 -23.79902,0.47209 -0.15464,-7.7989 q -0.0857,-4.32024 2.13793,-6.70876 2.26019,-2.38887 5.44559,-2.45205 3.18539,-0.0632 5.59419,2.26985 2.40879,2.33302 2.49301,6.58019 l 0.0349,1.7575 -12.52192,0.24834 0.0944,4.75973 17.53802,-0.34777 -0.30204,-15.23128 3.11218,-0.0617 z m -9.70073,-7.09652 -0.0283,-1.4281 q -0.061,-3.0755 -1.70395,-4.65456 -1.64298,-1.57896 -3.91302,-1.53397 -2.27005,0.045 -3.90585,1.59744 -1.63578,1.55246 -1.58351,4.18867 l 0.0407,2.05036 z"
         style="line-height:1em;fill:#e77f5b"
         id="path147"
         inkscape:connector-curvature="0" />
      <path
         d="m 597.87397,223.71937 -32.60692,0.47789 q -4.07578,0.0597 -6.78359,-2.15129 -2.70779,-2.21098 -2.76521,-6.15968 -0.0579,-3.9485 2.62017,-6.6631 2.67805,-2.71463 6.66894,-2.77309 l 15.45439,-0.22653 q 3.48144,-0.051 6.42608,-1.96269 2.94463,-1.91167 2.89979,-4.96854 -0.0448,-3.05691 -2.61341,-4.46311 -2.65224,-1.32004 -5.87891,-1.27277 l -0.0672,-4.58536 q 3.31156,-0.0485 5.78734,-2.08071 2.47568,-2.03217 2.42841,-5.25891 -0.0635,-4.33059 -4.0831,-6.22512 -4.01955,-1.89454 -9.49653,-1.81425 -5.47689,0.0803 -10.52756,3.16936 -5.05067,3.08913 -6.41206,8.7146 l 0.51318,0.2473 q 2.98477,-4.96983 7.69752,-5.03893 4.71267,-0.069 7.43602,3.2034 2.72334,3.27243 2.79173,7.94271 0.0685,4.67026 -2.81314,7.98238 -2.88163,3.31212 -7.80662,3.38431 -4.92499,0.0722 -8.12901,-4.12748 -3.20403,-4.19967 -3.28247,-9.54922 -0.13688,-9.34055 6.23999,-14.65728 6.37695,-5.31681 15.97224,-5.45746 2.88701,-0.0423 6.16804,0.71648 3.28102,0.75875 6.31789,2.24302 3.03677,1.4843 5.02717,4.00306 1.99031,2.51882 2.03637,5.66063 0.0784,5.34956 -6.23661,9.09419 6.40465,2.36916 6.48932,8.14328 0.0684,4.67029 -3.79472,7.65706 -3.86311,2.98677 -8.7032,3.05772 l -19.78495,0.28998 q -1.95299,0.0286 -3.46645,1.06999 -1.51355,1.04138 -1.48621,2.90947 0.0275,1.86809 1.56892,2.7373 1.54156,0.86916 3.49456,0.84054 l 32.60692,-0.47789 z m -27.53254,-27.072 q 1.28317,-2.26952 1.24335,-4.98676 -0.0398,-2.71724 -1.51631,-4.94631 -1.47649,-2.22908 -3.93903,-2.19296 -2.46254,0.0361 -3.74628,2.26312 -1.28383,2.22706 -1.24465,4.90186 0.0393,2.67477 1.38962,4.99062 1.35036,2.31585 3.94024,2.27789 2.58988,-0.038 3.87306,-2.30746 z"
         style="line-height:1em;fill:#f1b6a1;stroke-width:2.31896353px"
         id="path149"
         inkscape:connector-curvature="0" />
      <path
         d="m 578.54439,75.522839 q 5.90568,-0.248461 10.34885,3.928936 4.44309,4.177463 4.6834,9.889518 0.24037,5.711971 -3.34603,10.37274 -3.58632,4.660697 -11.24189,7.116447 1.08221,2.67005 1.16363,4.60641 0.17514,4.16304 -2.81291,6.9073 -3.08901,2.65163 -8.22013,2.86739 -9.68143,0.40723 -13.74639,-6.30772 l 2.40716,-2.71978 q 0.79182,2.68216 3.26717,3.88729 2.47514,1.20557 5.42821,1.08096 2.95273,-0.12401 4.52933,-1.83906 1.47572,-1.80787 1.38814,-3.88939 -0.0876,-2.08152 -0.7377,-3.70292 -9.39099,0.39504 -15.52884,-4.87493 -6.04105,-5.274036 -6.37303,-13.164378 -0.33194,-7.890435 6.90283,-13.432045 l 3.7247,3.237785 q -3.20929,4.402421 -2.95472,10.453349 0.25456,6.050928 3.78204,10.363829 3.52744,4.31299 9.52995,4.06047 -4.6214,-6.10969 -4.93299,-13.516012 -0.31161,-7.406326 3.21253,-11.239955 3.62099,-3.837783 9.52669,-4.086234 z m -0.94055,28.359381 q 6.04639,-1.5152 8.88879,-5.417244 2.84239,-3.902053 2.66315,-8.161861 -0.17924,-4.259804 -2.52405,-6.973779 -2.43764,-2.612976 -5.87456,-2.468387 -3.43692,0.144594 -5.65658,2.711094 -2.21963,2.566406 -2.0282,7.116695 0.31769,7.551562 4.53145,13.193482 z"
         style="line-height:1em;fill:#bb94a9;stroke-width:2.64602304px"
         id="path151"
         inkscape:connector-curvature="0" />
      <path
         d="m 610.44483,458.31571 -30.43408,0.15569 -0.008,-1.5104 q 8.20104,-6.00811 8.16162,-13.71103 -0.0317,-6.19258 -3.59941,-9.72392 -3.64305,-3.53083 -8.85383,-3.50416 -5.21079,0.0267 -8.36246,3.9699 -3.15138,3.94345 -3.12704,8.77636 0.0247,4.83318 2.0447,8.48561 2.01998,3.65243 5.80573,5.5212 l -1.27108,2.49864 q -4.92268,-2.69359 -7.36328,-7.36339 -2.51606,-4.66942 -2.5431,-9.95576 -0.0379,-7.40089 4.46582,-12.78583 4.57962,-5.30989 11.90495,-5.34734 7.32527,-0.0375 12.29493,4.46831 4.96976,4.50588 5.01076,12.51092 0.041,8.00502 -6.34254,14.98555 l 15.78347,-0.0806 -0.16074,-31.41581 6.41904,-0.0329 z"
         style="line-height:1em;fill:#77216f;stroke-width:2.06219244px"
         id="path153"
         inkscape:connector-curvature="0"
         inkscape:transform-center-x="30.920513"
         inkscape:transform-center-y="0.68640454" />
      <path
         d="m 636.05746,95.60011 q 0,4.31946 -2.0816,7.38993 -2.0818,3.07045 -5.3343,3.07045 -3.2527,0 -5.4123,-2.31586 -2.1597,-2.31584 -2.1597,-6.11488 0,-7.12972 6.4011,-12.17777 -2.1858,-1.82146 -4.6577,-1.82146 -2.472,0 -4.3715,2.57607 -1.8996,2.57606 -1.8996,6.32307 v 3.90312 q 0,4.47558 -2.55,7.05165 -2.55,2.57606 -6.271,2.57606 -3.721,0 -6.5833,-3.09647 -2.8623,-3.09649 -2.8623,-8.717 0,-4.05924 1.9516,-7.46797 1.9515,-3.40873 5.6465,-5.12611 l 1.197,1.35309 q -3.2266,1.35308 -4.8399,4.29344 -1.6133,2.94035 -1.6133,6.73939 0,3.79905 2.1597,6.34908 2.1598,2.55006 4.5797,2.55006 2.4199,0 3.8771,-1.87351 1.4051,-1.8735 1.4051,-5.56846 v -3.59087 q 0,-4.94397 2.9664,-7.65014 2.9664,-2.70616 7.6761,-2.70616 4.7098,0 8.7691,3.747 4.0072,3.79905 4.0071,10.30425 z m -12.9584,1.09288 q 0,2.55004 1.4312,4.31946 1.4312,1.76941 3.3827,1.76941 1.9516,0 2.9664,-1.84747 1.0147,-1.84748 1.0147,-4.65773 0,-2.81025 -0.8586,-5.54245 -0.8586,-2.73219 -2.2118,-4.03322 -5.7246,4.57966 -5.7246,9.992 z"
         style="line-height:1em;fill:#cecac5;stroke-width:1.42108512px"
         id="path155"
         inkscape:connector-curvature="0" />
      <path
         d="m 806.44965,229.37443 h -51.8814 V 228.834 q 5.7133,-3.62858 5.7133,-9.80489 0,-3.8602 -2.3549,-6.02191 -2.3549,-2.16171 -5.8288,-2.16171 -3.4744,0 -6.1765,2.50913 -2.702,2.50912 -2.702,7.25717 0,4.74804 4.0917,7.60458 l -2.3933,1.93009 q -5.4041,-4.09179 -5.4041,-10.65415 0,-6.56232 4.0916,-10.03652 4.0918,-3.47418 9.6505,-3.47418 5.5588,0 9.6122,3.43557 4.0533,3.43558 4.0533,9.53468 0,4.32344 -2.9339,7.7204 h 15.2093 v -11.34897 q -5.0182,0 -8.8015,-3.47418 -3.7828,-3.47418 -3.7828,-7.9134 0,-4.43922 3.011,-7.21857 3.0109,-2.77935 6.4852,-2.77935 3.4741,0 5.4042,1.11947 1.9301,1.11944 2.8178,3.16536 1.5055,3.47418 1.5055,8.83986 0,1.00364 -0.077,2.77934 -0.077,1.77568 -0.077,2.54772 5.3272,-1.54407 11.1947,-7.02556 5.7902,-5.48148 7.4888,-10.80856 h 2.0845 z m -6.2535,-2.70213 v -21.92593 q -2.7794,3.39697 -6.794,6.33072 -4.0146,2.93375 -7.7205,3.78301 v 11.81219 z m -20.9995,-14.05113 v -9.41888 q 0,-4.86385 -4.3233,-4.86385 -2.0075,0 -3.0884,1.77569 -1.0808,1.77569 -1.0808,3.93739 0,3.47418 2.4706,5.86752 2.4706,2.39331 6.0219,2.70213 z"
         style="line-height:1em;fill:#6e3d62;stroke-width:2.10818243px"
         id="path157"
         inkscape:connector-curvature="0" />
      <path
         d="m 699.21781,388.11275 q 3.808,1.82578 5.6339,5.34695 1.8258,3.52116 1.8258,8.00739 0,4.48622 -2.3996,7.82481 -2.4518,3.28642 -6.8858,3.28642 -3.5994,0 -6.312,-2.53002 -2.7126,-2.53003 -2.7126,-6.75543 v -3.96457 q 0,-4.43405 -1.7737,-6.54676 -1.7736,-2.11268 -4.0166,-2.11268 -2.243,0 -3.8602,1.27805 -1.6172,1.27804 -1.6172,3.10383 v 17.00593 h -4.4862 v -14.76281 q 0,-2.8691 -1.3562,-4.43406 -1.4084,-1.56497 -3.7819,-1.56497 -2.3735,0 -4.5905,2.45177 -2.2171,2.45179 -2.2171,6.28594 0,3.83416 1.4607,6.80758 1.5128,2.92126 4.6948,4.38189 l -1.4607,1.35631 q -6.99,-3.75591 -6.99,-13.04135 0,-5.16437 2.9994,-8.34647 2.9995,-3.18209 7.3552,-3.18209 4.3558,0 7.3291,3.96458 2.6084,-3.86024 7.1467,-3.86024 3.5472,0 6.2598,2.53002 2.7126,2.53002 2.7126,6.54676 v 4.59055 q 0,3.54725 1.6954,5.55562 1.6955,2.00836 3.9908,2.00836 2.9734,0 4.6948,-2.60826 1.6693,-2.66044 1.6693,-6.28594 0,-3.62549 -1.6171,-6.65109 -1.6171,-3.02559 -4.8514,-4.43406 z"
         style="line-height:1em;fill:#96808f;stroke-width:1.42446303px"
         id="path159"
         inkscape:connector-curvature="0" />
      <path
         d="m 732.92987,423.0074 q 0,4.49147 -2.3344,8.3033 -2.3343,3.81184 -6.8258,5.40749 l -1.7139,-2.42302 q 2.8368,-1.41836 4.3438,-4.10733 1.507,-2.68897 1.507,-5.82118 0,-4.90516 -2.8958,-7.65323 -2.8959,-2.74806 -6.885,-2.74806 -3.9891,0 -6.9144,2.68897 -2.9254,2.68897 -2.9254,6.97359 0,4.28463 2.1275,7.38729 2.1276,3.10265 5.9099,4.10732 v 1.00467 h -27.1264 v -1.00467 q 2.0684,-0.70918 3.2504,-2.57076 1.1822,-1.86161 1.1822,-4.40284 0,-2.54121 -1.7732,-4.13686 -1.8321,-1.53657 -4.3733,-1.53657 -2.5412,0 -4.4914,1.74339 -1.9502,1.74341 -1.9502,4.69832 0,4.25508 3.1913,6.32352 l -1.832,1.47744 q -1.8912,-1.41835 -3.014,-3.72318 -1.1229,-2.30483 -1.1229,-4.78693 0,-4.49148 3.014,-6.97361 3.014,-2.48212 7.1508,-2.48212 4.1369,0 7.2101,2.48212 3.0733,2.48213 3.0733,6.3235 0,3.8414 -2.3051,6.50081 h 13.8883 q -4.6688,-4.31417 -4.6688,-10.81498 0,-6.50081 4.1665,-10.31264 4.1664,-3.81183 9.692,-3.81183 5.5258,0 9.4854,3.63455 3.9595,3.63454 3.9595,10.25353 z"
         style="line-height:1em;fill:#eb9172;stroke-width:1.61377621px"
         id="path161"
         inkscape:connector-curvature="0" />
      <path
         d="m 792.71352,323.04788 q 0,6.38535 -2.72313,9.67191 -2.72313,3.28658 -6.2288,3.28658 -3.50566,0 -6.00978,-2.50405 -2.50384,-2.50407 -2.50384,-6.63576 0,-8.32598 7.32411,-15.27475 -1.37722,-1.62763 -4.78896,-1.62763 -3.4116,0 -5.28973,1.15813 -1.87813,1.15814 -1.87813,3.72478 v 20.65846 h -5.32118 v -17.71619 q 0,-3.63088 -2.25338,-5.57152 -2.25298,-1.94066 -4.91364,-1.94066 -2.66051,0 -4.3508,1.22073 -1.69015,1.22072 -1.69015,3.34918 v 20.65846 h -5.32103 v -19.21863 q 0,-2.50408 -2.50398,-4.2569 -2.5666,-1.75284 -5.63411,-1.75284 -5.25842,0 -8.20055,3.03617 -2.94228,3.03617 -3.63089,9.85974 l 0.25045,0.12508 q 2.75444,-4.50731 6.51041,-4.50731 3.75612,0 5.75919,2.72318 2.00336,2.72316 2.00336,6.26014 0,3.53698 -1.90944,6.00973 -1.90915,2.47277 -5.85311,2.47277 -3.94381,0 -6.38532,-3.5057 -2.3789,-3.50566 -2.3789,-8.639 0,-8.32598 4.53865,-12.89588 4.53864,-4.56991 11.80028,-4.56991 3.00475,0 5.2584,1.22073 2.25353,1.22073 4.50722,3.84999 3.38043,-4.94552 9.2963,-4.94552 5.91488,0 9.17009,4.75771 3.69378,-4.88291 9.57806,-4.88291 3.13012,0 6.0724,1.62765 0.87645,-1.43985 0.87645,-2.62927 0,-2.44145 -1.59637,-3.7874 -1.59637,-1.34592 -3.91265,-1.34592 -3.38043,0 -5.25828,2.50405 l -1.56506,-1.0016 q 0.81384,-2.31626 3.31768,-3.75611 2.50412,-1.43982 5.35248,-1.43982 2.84836,0 4.91419,1.75285 2.06583,1.75283 2.06583,5.13331 0,1.12683 -0.40685,2.22236 -0.40699,1.0955 -0.75122,1.59632 -0.34438,0.50081 -1.2833,1.94065 2.75444,2.12844 4.3508,5.97843 1.59623,3.85 1.59623,7.60607 z m -4.88288,0.25041 q 0,-6.57317 -3.56828,-10.39184 -2.75443,2.12844 -4.66387,5.75933 -1.9093,3.63087 -1.9093,6.76098 0,3.13006 1.50245,4.97679 1.50245,1.84676 3.56828,1.84676 2.06582,0 3.56827,-2.25365 1.50245,-2.25369 1.50245,-6.69837 z m -50.76842,3.97519 q 0,-2.15976 -1.18954,-3.78739 -1.18937,-1.62763 -3.34925,-1.62763 -2.15961,0 -3.38029,1.56503 -1.22083,1.56503 -1.22083,3.72479 0,2.15974 1.25199,3.75608 1.25214,1.59633 3.44305,1.59633 2.1912,0 3.31796,-1.53373 1.12691,-1.53374 1.12691,-3.69348 z"
         style="line-height:1em;fill:#56334b;stroke-width:1.7094363px"
         id="path163"
         inkscape:connector-curvature="0" />
      <path
         d="m 668.64264,109.74593 q 3.31126,2.52544 5.28725,7.11856 1.97621,4.5933 2.00856,9.72311 0.0323,5.12959 -2.93215,10.09113 -2.96427,4.9615 -8.35616,4.99535 -4.11892,0.026 -6.91106,-3.32653 -2.71756,-3.42784 -2.74442,-7.69611 -0.0619,-9.81033 8.72143,-18.32812 -1.8096,-1.9358 -7.20146,-1.90176 -2.99541,0.019 -5.08287,1.52987 -2.08746,1.51086 -2.06949,4.35663 l 0.15574,24.71265 -6.3655,0.04 -0.13358,-21.19305 q -0.0193,-3.07012 -1.60887,-5.75623 -1.58973,-2.68587 -4.51029,-2.66733 -4.94264,0.031 -8.09921,4.20721 -3.15652,4.17642 -3.12397,9.34345 0.0538,8.53713 9.08088,14.92068 l -2.08442,1.96032 q -4.44069,-3.49192 -7.39027,-8.07886 -2.94961,-4.58712 -2.98031,-9.45497 -0.0429,-6.81446 4.04207,-12.19475 4.08511,-5.38072 10.75018,-5.42267 7.86324,-0.0493 10.81965,5.62347 3.63359,-5.71445 10.2238,-5.75592 4.94262,-0.0312 8.47371,1.74396 1.03709,-1.80398 1.02362,-3.93832 -0.0135,-2.13453 -1.93318,-3.69516 -1.91944,-1.56047 -4.54045,-1.54403 -3.89417,0.0245 -6.4221,2.96136 l -1.95455,-1.186 q 1.55459,-2.85574 4.38997,-4.521055 2.91039,-1.666001 6.54241,-1.688868 3.63201,-0.02287 5.70422,1.986112 2.07219,2.008981 2.09393,5.453931 0.0217,3.44495 -2.87311,7.5819 z m 1.45234,16.54157 q -0.0501,-7.93815 -4.4218,-12.40378 -3.20367,2.64108 -5.49816,6.96174 -2.29423,4.32082 -2.27276,7.72815 0.0214,3.40713 1.46012,5.90685 1.43871,2.49993 4.50895,2.48045 3.07048,-0.0193 4.622,-3.39922 1.62614,-3.38036 1.60165,-7.27419 z"
         style="line-height:1em;fill:#bb94a9;stroke-width:2.04497766px"
         id="path165"
         inkscape:connector-curvature="0" />
      <path
         d="m 783.35979,432.32695 q 0,9.82788 -4.15772,15.07256 -4.15772,5.24468 -9.59136,5.24468 -5.43364,0 -9.21364,-4.15795 -3.77993,-4.15793 -3.77993,-11.15084 0,-12.56837 10.86733,-21.54572 -2.079,-1.51199 -6.61502,-1.51199 -7.74891,0 -12.5682,5.85891 -4.81944,5.8589 -4.81944,13.70234 0,11.15084 9.16635,16.82079 l -2.17346,2.17348 q -5.6699,-3.49647 -8.4577,-8.93016 -2.78766,-5.43367 -2.78766,-11.5761 0,-9.54438 6.09506,-16.77354 6.09521,-7.22916 15.92314,-7.22916 5.76441,0 10.30051,2.74046 2.07886,-2.36247 2.07886,-4.44143 0,-3.68545 -2.45695,-5.76444 -2.55153,-1.98448 -6.04798,-1.98448 -4.91395,0 -7.74898,3.77996 l -2.45694,-1.51196 q 1.51203,-3.96897 5.10293,-5.90619 3.5911,-1.93722 8.03246,-1.93722 4.44151,0 7.46528,2.59872 3.02392,2.59872 3.02392,7.0874 0,4.48869 -4.06328,9.78063 8.88242,8.12689 8.88242,19.56125 z m -22.96272,3.30746 q 0,5.00843 2.26796,7.98515 2.26805,2.97671 5.48101,2.97671 3.21297,0 5.57546,-3.35471 2.3622,-3.35469 2.3622,-8.59941 0,-5.24469 -1.51188,-9.87512 -1.60633,-4.63043 -4.34677,-6.80391 -9.82798,8.03238 -9.82798,17.67129 z"
         style="line-height:1em;fill:#e05a2c;stroke-width:2.58044767px"
         id="path167"
         inkscape:connector-curvature="0" />
      <path
         d="m 731.37453,469.4893 q 5.5408,4.43951 8.68887,11.53573 3.14792,7.09613 3.20163,14.95963 0.0534,7.86334 -4.04212,13.34428 -4.09516,5.48109 -11.21246,5.5296 -7.11735,0.0486 -11.68229,-4.39758 -4.56509,-4.44621 -4.61595,-11.9079 -0.097,-14.23459 12.33269,-26.48817 -6.01265,-6.27318 -19.32877,-6.1823 -5.96939,0.0407 -10.54543,2.36792 12.58541,10.59064 12.68177,24.71048 0.0586,8.60959 -4.601,15.5294 -4.77525,6.80575 -12.75364,6.86007 -7.97822,0.0543 -12.50228,-6.80277 -4.52399,-6.85723 -4.5741,-14.26134 -0.0509,-7.4045 3.23361,-13.97045 3.39901,-6.56694 8.88081,-10.85163 -2.87971,-1.35822 -8.16028,-1.3222 -9.52766,0.0651 -14.76203,6.87406 -5.23434,6.80892 -5.16952,16.33685 0.0468,6.88762 2.89988,12.83774 2.85328,5.95026 8.27239,9.35744 l -3.88994,1.97801 q -6.11329,-4.20605 -9.37557,-11.24393 -3.26212,-7.03785 -3.31382,-14.61436 -0.0776,-11.47917 6.52357,-19.79011 6.71731,-8.19665 18.77055,-8.27896 7.34688,-0.05 13.57081,3.5811 6.51861,-3.7179 17.30914,-3.79158 13.89032,-0.0947 21.27717,5.70985 3.53048,-4.15687 3.50351,-8.11731 -0.0271,-3.96042 -3.14301,-6.35003 -3.11601,-2.38962 -7.47818,-2.35989 -6.19896,0.0423 -9.72703,4.54357 l -2.99638,-1.70165 q 1.91775,-4.94954 6.49354,-7.33412 4.5758,-2.38461 10.08592,-2.42219 5.51027,-0.0375 9.14795,3.09475 3.63751,3.1322 3.68131,9.5607 0.0161,2.41075 -1.05728,4.88626 -1.07446,2.47514 -2.4956,4.37949 -1.42212,1.90387 -3.12842,4.21149 z m -15.20175,26.62255 q 0.0367,5.39534 2.81376,8.59085 2.7772,3.19557 6.90983,3.16739 4.13263,-0.0281 6.289,-3.65911 2.1565,-3.63088 2.11823,-9.25582 -0.0384,-5.62498 -2.25952,-11.46472 -2.22108,-5.8397 -5.68368,-8.57127 -4.22171,3.81712 -7.22302,9.80722 -3.0018,5.98989 -2.9646,11.38546 z m -17.93092,-3.20706 q -0.0907,-13.3162 -9.67176,-21.05723 -5.14265,3.47888 -8.48858,9.41406 -3.34607,5.93505 -3.30527,11.96164 0.0414,6.02694 2.76946,10.48545 2.72817,4.4586 7.89397,4.42339 5.16579,-0.0351 8.00362,-4.76134 2.83771,-4.72622 2.79856,-10.46597 z"
         style="line-height:1em;fill:#2c001e;stroke-width:3.13474417px"
         id="path169"
         inkscape:connector-curvature="0" />
      <path
         d="m 512.88605,206.73292 q -0.0944,12.58103 -5.20009,19.01869 -5.10563,6.43761 -12.19792,6.3844 -7.09231,-0.0532 -12.29273,-5.64296 -5.20052,-5.58979 -5.13399,-14.47058 0.12673,-16.89813 15.38777,-28.74874 -4.65938,-3.73548 -10.33314,-3.77799 -5.67375,-0.0425 -8.89597,1.96862 -3.22219,2.0111 -4.60903,6.00962 -1.38692,3.99845 -1.78185,7.326 -0.39501,3.3275 -0.43492,8.63122 l -0.0564,7.524 q -0.0703,9.37413 -6.46602,15.12365 -6.39571,5.74952 -14.9063,5.68578 -10.48426,-0.0786 -16.34584,-8.0172 -5.73732,-8.06104 -5.65827,-18.60697 0.0791,-10.54595 4.70528,-18.8374 4.62613,-8.29151 13.66169,-12.41766 l 2.81289,3.22823 q -7.79471,3.14867 -11.60949,10.15103 -3.81468,7.00239 -3.87936,15.63654 -0.0647,8.63412 4.01997,15.01749 4.08454,6.38332 10.37515,6.4305 6.2905,0.0472 10.15023,-4.73461 3.85972,-4.78174 3.92726,-13.78585 l 0.0537,-7.1539 q 0.0849,-11.34775 5.7471,-17.9662 5.66217,-6.61844 16.20814,-6.53932 10.5458,0.079 17.544,4.44879 2.49186,-3.3118 2.52007,-7.07379 0.0282,-3.76201 -3.03403,-6.622 -3.06241,-2.8601 -7.50266,-2.89332 -6.41393,-0.0481 -10.64365,4.73086 l -2.94546,-1.99569 q 2.37957,-4.79289 7.08651,-7.40962 4.70703,-2.61668 10.68916,-2.57185 5.98213,0.0448 9.4089,3.64768 3.42686,3.6029 3.37968,9.89345 -0.0231,3.08358 -0.77573,4.74316 -0.7525,1.6596 -1.44019,2.88792 -0.68738,1.22855 -1.43605,2.33291 -0.74867,1.10435 -1.49732,2.33267 5.648,3.49623 8.55412,10.73406 2.90614,7.23781 2.84514,15.37857 z m -29.99771,3.10541 q -0.0452,6.04392 3.31528,10.26304 3.36049,4.21911 7.49254,4.25011 4.13205,0.031 6.81579,-4.20449 2.6841,-4.23529 2.73977,-11.6978 0.056,-7.46227 -1.75066,-13.27334 -1.80667,-5.81103 -4.86722,-8.91777 -13.64927,10.75248 -13.7455,23.58025 z"
         style="line-height:1em;fill:#eb9172;stroke-width:3.36820841px"
         id="path171"
         inkscape:connector-curvature="0" />
    </g>
  </g>
</svg>
