<svg width="3104" height="520" viewBox="0 0 3104 520" fill="none" xmlns="http://www.w3.org/2000/svg">
<rect x="164" y="86" width="2940" height="434" fill="#CC0000"/>
<path d="M223 0L184.032 78.4355C179.618 86.9406 171.702 86.1599 163.787 81.3938L135.474 65.493L156.481 185.961C160.895 207.984 146.739 207.984 139.736 198.287L90.6461 139.121L82.6546 169.32C81.9712 171.783 80.4607 173.881 78.4193 175.203C76.3779 176.526 73.9526 176.977 71.6188 176.47L9.39949 162.336L25.7249 226.473C29.2259 240.73 31.9659 246.647 22.1858 250.427L0 261.685L107.124 355.61C109.264 357.438 110.865 359.9 111.73 362.695C112.595 365.49 112.687 368.496 111.995 371.346L102.633 404.545C139.508 399.943 172.54 393.04 209.453 388.809C212.725 388.439 218.167 394.232 218.129 398.3L213.258 520H231.182L228.366 398.587C228.366 394.479 233.275 388.439 236.547 388.809C273.46 392.917 306.492 399.984 343.367 404.545L334.005 371.346C333.313 368.496 333.405 365.49 334.27 362.695C335.135 359.9 336.736 357.438 338.876 355.61L446 261.685L423.814 250.386C414.072 246.606 416.774 240.73 420.275 226.432L436.601 162.295L374.381 176.429C372.047 176.936 369.622 176.484 367.581 175.162C365.539 173.84 364.029 171.742 363.345 169.279L355.354 139.08L306.149 198.616C299.147 208.148 284.991 208.148 289.405 186.29L310.526 65.493L282.327 81.2705C274.412 86.0367 266.496 86.8173 262.082 78.3123" fill="#FF0000"/>
</svg>
