<svg id="Layer_1" data-name="Layer 1" xmlns="http://www.w3.org/2000/svg" xmlns:xlink="http://www.w3.org/1999/xlink" viewBox="0 0 313.11 416.54"><defs><clipPath id="clip-path" transform="translate(-15.15 -45.95)"><rect x="-366.03" y="-637.53" width="1080" height="1920" style="fill:none"/></clipPath><clipPath id="clip-path-2" transform="translate(-15.15 -45.95)"><path d="M93.82,327.69c3.43.68,8.09,2.34,12.16,1.77,14.28-2,32.22-10.61,61-11.71,48.19-1.83,66.17,10.23,83.33,15.71,1.59.51,5.08-.79,5.52-1.25-31.35-20.24-60.88-27-86.18-27-36.46,0-64.13,14.13-75.84,22.53" style="fill:none"/></clipPath><linearGradient id="linear-gradient" x1="-366.03" y1="1282.46" x2="-365.03" y2="1282.46" gradientTransform="matrix(162.02, 0, 0, -162.02, 59380.78, 208053.9)" gradientUnits="userSpaceOnUse"><stop offset="0" stop-color="#94cc4c"/><stop offset="1" stop-color="#94cc4c"/></linearGradient></defs><title>mmac-logo-on-dark</title><g style="clip-path:url(#clip-path)"><path d="M248.41,275.79c-1.84-3.72-1-5.88,2.19-8.44,22.32-17.74,70.63-56.9,73-58.94-5.44-3-10.18-5.7-15.06-8.21-2.74-1.41-3.72-3.09-2.8-6,1.18-3.7,8.22-32.42,11-43.63-2.4.46-24.47,5.2-33.69,7.41-4,1-6.28.25-7.85-3.64-3-7.48-6.65-14.75-10.32-22.75-16.7,15.61-31.77,31.9-48.42,46.75l-1.91-1L236.72,85c-11.08,4.38-21.43,8.28-31.58,12.59-3.39,1.43-4.82.54-6.13-2.14-3.77-7.7-20-40.15-24.66-49.54-4,7.11-22.35,39.77-28,49.82-1.24,2.23-2.79,2.76-5.31,1.64-4.07-1.8-24.2-9.91-31-12.69,7.25,32.66,15.4,64.1,21.75,95.86l-1.92.89-50.7-48.54c-2.55,6.19-4.8,11.6-7,17-4,9.95-2.21,8.82-13.35,7.15-9.33-1.41-18.62-3-28.4-4.56.36,1.69,8.58,30.71,12.73,44.06,1.18,3.78.08,5.58-3.85,6.66-5.14,1.41-10.18,3.1-15.72,4.8,1.13,1.16,47.84,40.88,70.57,60.11,6.9,5.84,6.91,5.84,2.9,13.66-.66,1.29-7.17,13.33-10.15,18.84,4.27-.78,64.94-14.09,82.55-18-1.6,16.48-15.19,27.59-26.49,32,4.32.14,15.21.14,19.53,0,11.68-5.94,14.74-19,15.15-32.35,15,3.09,75.16,15.43,80.89,16.49C255,290.57,252,283,248.41,275.79" transform="translate(-15.15 -45.95)" style="fill:#fff"/><path d="M193.16,188.66l10.6,3.17a41.39,41.39,0,0,0-7.31,2.82l-10.37.3,8.37.77a42.46,42.46,0,0,0-7.31,5.41c0,.06-6.81.85-6.81.85l6,.21a54.3,54.3,0,0,0-11.64,20.66c-2.64-22.1,23-54.43,46.21-32.53a9.9,9.9,0,0,0-4.45-.57c-.34,0-15.29-4.6-15.29-4.6s12.48,5,12.17,5c-1.46.12-3.68.35-5.37.66Z" transform="translate(-15.15 -45.95)" style="fill:#322b2b"/><path d="M180.33,177.66l13.88-1.22a48.59,48.59,0,0,0-6.55,6.45l-11.82,4.6L186,185a69.14,69.14,0,0,0-4.86,7.26c-.22.38-8.14,4.09-8.14,4.09s6.72-1.49,6.71-1.5c-2.81,5.92-4.7,13.6-5.6,26.26-8.2-22.84,2.7-67,37.87-54.27a38.21,38.21,0,0,0-4.47,1.62c-.75.32-17.8.3-18.67.72-.44.21,15.35.82,14.88,1.06a55.88,55.88,0,0,0-5.44,3.21Z" transform="translate(-15.15 -45.95)" style="fill:#322b2b"/><path d="M180.28,220.71a11.44,11.44,0,0,1-4.8,1.84c8.45-6.2,13.83-13.56,23.48-18.06,5.9-2.76,10.84-2.53,13.87-1.65,8.95,2.63,13,7.09,14.17,16.23-.08-.77-1.33-2.31-3.59-3.88l-8.08-10.55s5.41,8.89,5.5,9a27.53,27.53,0,0,0-4.89-1.95l-9.78-8.22,7.17,7.52a26.8,26.8,0,0,0-7.56-.37l-5.06-5.12,3.39,5.14a36.88,36.88,0,0,0-4.65.75L194.33,208s3.63,3.79,3.57,3.8a52.83,52.83,0,0,0-17.62,8.93" transform="translate(-15.15 -45.95)" style="fill:#322b2b"/><path d="M173.83,224.2c-5.93-5.51-11.3-8.91-16.31-10.86-.39-.15,2.31-2.94,2.31-2.94s-4.21,2.26-4.58,2.15a31.14,31.14,0,0,0-8.33-1.39l4.83-4.42-7.14,4.37a32.34,32.34,0,0,0-8.68,1.33l8.23-7.79-12.49,9.41c-1.87.76-2.59,1.26-3.51,1.68-.48.22,4.42-10,4.42-10s-7.32,11.84-7.54,12a15.67,15.67,0,0,0-2.5,2.21c5.7-33.16,43.07-11.3,51.29,4.25" transform="translate(-15.15 -45.95)" style="fill:#322b2b"/><path d="M173.07,224.44c-8.22-2.2-14.12-1.64-18.35.36-.2.09-.9-1.61-.9-1.61a9.24,9.24,0,0,1-.29,2.23,15.89,15.89,0,0,0-4,3.27l-1-4.5.22,5.45a19.89,19.89,0,0,0-2.37,4.07l-2.72-6.51,2,8.4a29.76,29.76,0,0,0-1.21,4.91c-.06.37-3.9-7.56-3.9-7.56s3.69,9.14,3.66,9.39a28.37,28.37,0,0,0-.16,4.07c-18.6-27.42,21.09-26.1,29-22" transform="translate(-15.15 -45.95)" style="fill:#322b2b"/><path d="M212.48,249.25a35.48,35.48,0,0,0-1.91-5.23c-.14-.32.78-10,.78-10s-1.79,7.9-1.94,7.59c-.54-1.09-1-1.92-1.69-3.1l-.21-9.37-1.06,7.34a39,39,0,0,0-2.78-3.7l-1.45-7.27-.43,5.22a36,36,0,0,0-5-4.18l-.17-2.92s-1.09,2.25-1.14,2.26c-5.28-2.91-12-4.11-20.35-1.64,6.56-4.37,46.46-4.86,37.37,25" transform="translate(-15.15 -45.95)" style="fill:#322b2b"/><path d="M171.41,218.86a86.41,86.41,0,0,0-5.47-10.67c-.21-.35,4-1.69,4-1.69a41.49,41.49,0,0,1-5,.07,50.61,50.61,0,0,0-4.2-5.6l8.19,0-10.08-2a29,29,0,0,0-5.18-4.14l10.51-2.57-13.25,1.11a18.84,18.84,0,0,0-5.76-1.55c-.51-.05,10.76-4.82,10.76-4.82s-14,4.76-14.5,4.83a18.37,18.37,0,0,0-8.22,3.21c6.38-7.07,15.87-13,25-9.63,3.42,1,6.33,4.24,8.53,7.67,5.12,9.23,4.92,20.08,7.55,30.06a13.75,13.75,0,0,1-2.84-4.27" transform="translate(-15.15 -45.95)" style="fill:#322b2b"/></g><g style="clip-path:url(#clip-path-2)"><rect x="78.66" y="259.22" width="162.02" height="28.81" style="fill:url(#linear-gradient)"/></g><g style="clip-path:url(#clip-path)"><polygon points="154.34 236.78 156.87 178.29 161.63 178.04 162.53 236.43 154.34 236.78" style="fill:#322b2b"/><path d="M176.69,232.75a4.2,4.2,0,1,1-4.2-4.2,4.2,4.2,0,0,1,4.2,4.2" transform="translate(-15.15 -45.95)" style="fill:#fff"/><circle cx="157.33" cy="186.8" r="4.2" style="fill:none;stroke:#fff;stroke-miterlimit:10"/><path d="M174.43,223.05a4.2,4.2,0,1,1-4.2-4.2,4.2,4.2,0,0,1,4.2,4.2" transform="translate(-15.15 -45.95)" style="fill:#fff"/><circle cx="155.08" cy="177.1" r="4.2" style="fill:none;stroke:#fff;stroke-miterlimit:10"/><path d="M184.44,227.37a4.2,4.2,0,1,1-4.2-4.2,4.2,4.2,0,0,1,4.2,4.2" transform="translate(-15.15 -45.95)" style="fill:#fff"/><circle cx="165.08" cy="181.42" r="4.2" style="fill:none;stroke:#fff;stroke-miterlimit:10"/><path d="M183.14,219.5a4.2,4.2,0,1,1-4.2-4.2,4.2,4.2,0,0,1,4.2,4.2" transform="translate(-15.15 -45.95)" style="fill:#fff"/><circle cx="163.79" cy="173.55" r="4.2" style="fill:none;stroke:#fff;stroke-miterlimit:10"/><path d="M176.65,212.85a4.2,4.2,0,1,1-4.2-4.2,4.2,4.2,0,0,1,4.2,4.2" transform="translate(-15.15 -45.95)" style="fill:#fff"/><circle cx="157.3" cy="166.9" r="4.2" style="fill:none;stroke:#fff;stroke-miterlimit:10"/></g><text transform="translate(0 375.6)" style="font-size:102.86209869384766px;fill:#fff;font-family:Avenir-Roman, Avenir"><tspan style="letter-spacing:-0.05899984283144893em">M</tspan><tspan x="87.23" y="0" style="letter-spacing:-0.06000619625330646em">M</tspan><tspan x="174.35" y="0" style="letter-spacing:-0.05899509588134583em">A</tspan><tspan x="240.7" y="0">C</tspan></text></svg>