<svg width="405" height="585" viewBox="0 0 405 585" fill="none" xmlns="http://www.w3.org/2000/svg">
<path d="M0 0V585H224V0H0Z" fill="white"/>
<path d="M405 1H223L45 585H227L405 1Z" fill="#CB0000"/>
<path d="M344 100.239H318.117V98.6533C320.044 97.4694 321.572 95.5878 322.703 93.0085C323.834 90.4292 324.399 87.6808 324.399 84.7633C324.399 81.8457 323.698 79.3827 322.295 77.3743C320.892 75.3658 318.808 74.3616 316.044 74.3616C314.369 74.3616 312.903 74.8267 311.647 75.7569C310.39 76.6872 309.762 77.9134 309.762 79.4356V100.239H304.485V80.7675C304.485 79.0339 303.71 77.5857 302.161 76.4229C300.611 75.2601 298.852 74.6787 296.884 74.6787C293.366 74.6787 290.633 75.7147 288.685 77.7865C286.738 79.8584 285.534 83.1777 285.073 87.7442L285.324 87.871C287.167 84.7844 289.387 83.241 291.984 83.241C294.12 83.241 295.816 84.1607 297.072 86C298.328 87.8393 298.957 89.964 298.957 92.3742C298.957 94.7843 298.349 96.8245 297.135 98.4947C295.921 100.165 294.057 101 291.544 101C289.031 101 286.979 99.8161 285.387 97.4482C283.796 95.0803 283 92.1839 283 88.759C283 83.7273 284.445 79.5095 287.335 76.1057C290.225 72.7019 293.931 71 298.454 71C300.59 71 302.454 71.4228 304.045 72.2685C305.637 73.1142 307.166 74.425 308.631 76.2009C309.72 74.5941 311.081 73.3467 312.715 72.4588C314.348 71.5708 315.981 71.1268 317.615 71.1268C321.426 71.1268 324.358 72.4482 326.41 75.0909C328.462 77.7336 329.488 80.9577 329.488 84.7632C329.488 87.3425 329.017 89.7843 328.075 92.0888C327.132 94.3932 325.782 96.2854 324.023 97.7653L324.148 98.019H339.351V71.6343H344L344 100.239ZM287.46 87.7442C286.623 88.7168 286.204 90.0592 286.204 91.7717C286.204 93.4842 286.633 94.8161 287.492 95.7675C288.35 96.7189 289.408 97.1946 290.664 97.1946C291.921 97.1946 292.926 96.6766 293.68 95.6407C294.434 94.6047 294.811 93.3574 294.811 91.8986C294.811 90.4398 294.413 89.1502 293.617 88.0297C292.821 86.9091 291.816 86.3489 290.602 86.3489C289.387 86.3489 288.34 86.814 287.46 87.7442V87.7442Z" fill="#DC430E"/>
<path d="M270.999 117.947C271.02 120.145 270.736 122.302 270.146 124.416C269.555 126.531 268.454 128.404 266.841 130.035C265.228 131.665 263.177 132.493 260.689 132.516C258.201 132.54 256.109 131.439 254.413 129.211C252.717 126.984 251.855 124.356 251.825 121.328C251.796 118.299 252.788 115.631 254.801 113.323C256.86 111.015 259.538 109.599 262.836 109.073C261.086 105.949 258.379 104.405 254.715 104.44C252.86 104.458 251.089 104.968 249.402 105.971C247.715 106.975 246.88 108.329 246.896 110.034L247.11 131.973L241.274 132.029L241.091 113.253C241.068 110.92 240.11 108.899 238.216 107.189C236.321 105.48 234.175 104.637 231.777 104.66L229.606 104.68C232.652 106.177 234.189 108.349 234.216 111.198C234.244 114.047 232.886 116.27 230.141 117.867C233.68 118.865 235.465 120.935 235.496 124.075C235.519 126.453 234.622 128.503 232.807 130.226C230.991 131.948 228.884 132.821 226.487 132.844C223.048 132.877 220.354 131.523 218.405 128.782C216.455 126.041 215.463 122.921 215.429 119.421C215.372 113.589 217.499 108.947 221.809 105.495C220.766 105.281 219.521 105.181 218.073 105.195C214.273 105.231 211.346 106.672 209.292 109.519C207.239 112.365 206.231 115.718 206.268 119.576C206.295 122.313 206.839 124.787 207.902 126.998C208.964 129.209 210.495 130.821 212.496 131.834L210.2 133C207.926 131.855 206.166 129.965 204.919 127.33C203.671 124.694 203.032 121.784 203.001 118.598C202.957 114.022 204.196 110.016 206.719 106.582C209.242 103.148 212.856 101.408 217.561 101.363C220.863 101.332 223.47 101.845 225.381 102.904C227.723 101.804 230.59 101.238 233.983 101.206C239.412 101.154 243.231 103.002 245.439 106.75C247.71 102.959 251.028 101.043 255.394 101.001C259.76 100.959 263.441 102.64 266.438 106.044C269.434 109.448 270.955 113.415 270.999 117.947V117.947ZM254.463 120.461C254.48 122.166 255.017 123.9 256.075 125.662C257.133 127.424 258.533 128.297 260.275 128.28C262.016 128.263 263.353 127.252 264.283 125.247C265.214 123.241 265.667 120.96 265.642 118.402C265.617 115.845 265.028 113.45 263.875 111.217C261.118 111.558 258.854 112.533 257.083 114.143C255.311 115.753 254.438 117.859 254.463 120.461V120.461ZM229.73 124.4C229.7 121.304 227.219 119.78 222.288 119.827L222.152 119.828L222.129 117.472L223.826 117.456C225.228 117.443 226.49 116.915 227.611 115.872C228.732 114.829 229.286 113.668 229.274 112.39C229.261 111.111 228.74 109.893 227.711 108.737C226.682 107.58 225.532 106.783 224.26 106.347C222.099 107.444 220.454 109.232 219.324 111.711C218.195 114.19 217.642 116.685 217.667 119.198C217.691 121.71 218.324 123.981 219.565 126.011C220.807 128.041 222.559 129.045 224.821 129.023C226.133 129.011 227.282 128.562 228.269 127.678C229.256 126.793 229.743 125.701 229.73 124.399L229.73 124.4Z" fill="#DC430E"/>
<path d="M282.62 21.3992C284.612 18.7614 286.896 17.4594 289.471 17.4932C292.047 17.5269 294.29 18.7325 296.2 21.1101C298.11 23.4877 299.043 26.4061 298.998 29.8651C298.954 33.3242 297.869 36.2247 295.743 38.5667C293.618 40.9087 290.477 42.0525 286.321 41.9981C283.642 41.9631 281.297 41.3615 279.285 40.1934C277.274 39.0254 276.279 37.5766 276.301 35.847L276.31 35.1725L278.01 35.1948L278.002 35.8175C277.989 36.8206 278.733 37.7385 280.234 38.5712C281.734 39.4039 283.429 39.8325 285.318 39.8573C288.306 39.8964 290.603 38.9232 292.209 36.9376C293.815 34.952 294.636 32.4978 294.674 29.575C294.712 26.652 294.037 24.3685 292.65 22.7243C291.263 21.08 289.676 20.2462 287.89 20.2228C286.723 20.2075 285.739 20.5406 284.94 21.2221C284.142 21.9035 283.735 22.8323 283.719 24.0083L283.624 31.428L279.193 31.37L279.265 25.8182C279.29 23.8811 278.914 22.4058 278.137 21.3923C277.326 20.3784 276.233 19.8625 274.859 19.8445C273.486 19.8264 272.18 20.5272 270.942 21.9467C269.704 23.3663 269.07 25.2695 269.039 27.6563L269.027 28.5384C268.988 28.9184 268.966 29.2814 268.961 29.6273C268.957 29.9732 269.037 30.4413 269.201 31.0317L267.501 31.0094C267.37 30.5233 267.309 29.8997 267.319 29.1387L267.344 27.2189C267.382 24.2441 268.272 21.8513 270.013 20.0404C271.788 18.2647 273.929 17.3932 276.436 17.4261C278.943 17.4589 281.004 18.7833 282.619 21.3992L282.62 21.3992ZM263.739 35.1116C263.712 37.1524 262.962 38.734 261.487 39.8564C260.013 40.9788 258.443 41.5291 256.777 41.5072C255.112 41.4855 253.92 41.2969 253.204 40.9415L252.575 37.7677C253.252 38.5031 254.166 38.8783 255.317 38.8934C256.467 38.9085 257.425 38.5924 258.189 37.945C258.919 37.2972 259.291 36.342 259.308 35.0795C259.324 33.8169 258.961 32.6791 258.218 31.6661C257.441 30.6526 256.297 30.1359 254.786 30.1162L252.674 30.0885L252.701 27.9612L254.814 27.9889C255.775 28.0015 256.552 27.683 257.145 27.0334C257.703 26.3834 257.987 25.6088 257.999 24.7094C258.018 23.222 257.262 21.958 255.729 20.9173C254.197 19.8766 252.538 19.3446 250.752 19.3211C247.455 19.2779 244.764 20.1768 242.679 22.0177C240.594 23.8586 239.338 26.6964 238.911 30.531L239.012 30.6363C240.555 28.1656 242.46 26.945 244.727 26.9747C246.616 26.9994 248.092 27.7626 249.154 29.2642C250.217 30.7658 250.736 32.4851 250.711 34.4222C250.686 36.3593 250.123 38.0212 249.024 39.408C247.924 40.7947 246.326 41.4743 244.231 41.4468C242.136 41.4193 240.398 40.3413 239.017 38.2128C237.636 36.0843 236.964 33.5846 237.001 30.7137C237.061 26.0785 238.497 22.6204 241.309 20.3393C244.155 18.0586 247.708 16.9462 251.966 17.002C254.783 17.0389 257.375 17.7821 259.744 19.2316C262.112 20.681 263.284 22.3829 263.259 24.3374C263.234 26.2917 262.011 27.8758 259.591 29.0896C260.89 29.5564 261.91 30.3395 262.652 31.439C263.393 32.5385 263.756 33.7627 263.738 35.1118L263.739 35.1116ZM243.499 38.3234C244.632 38.3383 245.548 37.9178 246.246 37.062C246.944 36.2062 247.301 35.1816 247.316 33.9883C247.332 32.7949 247.01 31.7528 246.352 30.8619C245.694 29.9711 244.815 29.5185 243.716 29.5041C242.617 29.4897 241.685 29.858 240.919 30.6091C240.154 31.3602 239.762 32.4449 239.744 33.8631C239.725 35.2814 240.063 36.3756 240.758 37.1458C241.452 37.916 242.366 38.3086 243.499 38.3234Z" fill="#D94511"/>
<path d="M278.169 167.323V166.939C278.169 164.447 277.703 162.578 276.77 161.332C275.837 160.086 274.661 159.463 273.243 159.463C271.34 159.463 269.568 160.416 267.926 162.321C266.321 164.264 265.519 166.545 265.519 169.165C265.519 171.785 266.05 174.085 267.114 176.063C268.178 178.042 269.773 179.545 271.9 180.571L270.668 181.89C268.094 180.607 266.172 178.775 264.903 176.393C263.634 174.011 263 171.464 263 168.753C263 164.868 264.101 161.772 266.302 159.463C268.504 157.154 270.892 156 273.467 156C276.042 156 278.141 156.889 279.764 158.666C281.387 160.443 282.199 163.036 282.199 166.444V170.731C282.199 173.59 282.852 175.724 284.158 177.135C285.464 178.546 286.957 179.252 288.636 179.252C290.315 179.252 291.733 178.83 292.89 177.987C294.047 177.144 294.625 176.082 294.625 174.799V156.55H299.383V172.051C299.383 174.14 299.85 175.743 300.782 176.86C301.715 177.978 302.891 178.537 304.309 178.537C306.287 178.537 308.124 177.566 309.822 175.624C311.52 173.681 312.369 171.153 312.369 168.038C312.369 165.876 311.809 163.842 310.69 161.937C309.608 159.994 308.041 158.529 305.988 157.539L307.499 156.11C309.962 157.393 311.828 159.179 313.097 161.469C314.366 163.76 315 166.206 315 168.808C315 172.619 313.871 175.77 311.614 178.262C309.356 180.754 306.688 182 303.609 182C300.531 182 297.909 180.571 295.745 177.712C293.767 180.571 291.118 182 287.796 182C285.222 182 282.945 181.084 280.968 179.252C279.027 177.383 278.076 174.891 278.113 171.776V171.611L278.169 167.323Z" fill="#DC430E"/>
<path d="M244 204.239H215.342V202.78C217.549 201.258 219.205 199.398 220.309 197.199C221.413 195 221.965 192.759 221.965 190.476C221.965 186.882 220.861 183.985 218.653 181.787C216.446 179.588 213.856 178.488 210.884 178.488C207.912 178.488 205.311 179.609 203.082 181.85C200.853 184.091 199.505 187.389 199.038 191.744L199.293 191.871C201.246 188.784 203.443 187.241 205.884 187.241C208.326 187.241 210.247 188.171 211.648 190.032C213.049 191.892 213.75 194.017 213.75 196.406C213.75 198.795 213.081 200.825 211.743 202.495C210.406 204.165 208.389 205 205.693 205C202.997 205 200.864 203.858 199.293 201.575C197.764 199.292 197 196.438 197 193.013C197 187.135 198.486 182.664 201.458 179.598C204.43 176.533 207.986 175 212.126 175C216.265 175 219.832 176.311 222.825 178.932C225.818 181.554 227.315 185.116 227.315 189.619C227.315 194.123 225.447 198.256 221.71 202.019H238.587V175.634H244L244 204.239ZM205.025 190.412C203.666 190.412 202.52 190.877 201.585 191.808C200.651 192.738 200.184 194.07 200.184 195.803C200.184 197.537 200.62 198.869 201.49 199.799C202.36 200.729 203.496 201.195 204.897 201.195C206.298 201.195 207.413 200.666 208.241 199.609C209.069 198.552 209.483 197.294 209.483 195.835C209.483 194.376 209.079 193.108 208.273 192.03C207.466 190.951 206.383 190.412 205.025 190.412Z" fill="#DC430E"/>
<path d="M298.999 224.477C299.02 226.727 298.468 228.85 297.344 230.846C296.221 232.842 294.611 234.483 292.514 235.767L289.819 234.895C292.888 232.442 294.405 229.212 294.369 225.205C294.339 221.971 293.348 219.168 291.394 216.795C289.44 214.422 286.882 213.25 283.721 213.279C282.632 213.289 281.58 213.544 280.566 214.046C282.336 215.506 283.783 217.251 284.908 219.279C286.033 221.308 286.606 223.412 286.625 225.591C286.654 228.755 285.877 231.24 284.295 233.047C282.713 234.854 280.85 235.768 278.707 235.787C276.565 235.806 274.721 234.962 273.178 233.253C271.634 231.545 270.848 229.127 270.819 225.998C270.8 223.889 271.3 221.837 272.318 219.842C273.337 217.846 274.683 216.173 276.357 214.822C275.016 214.202 273.766 213.897 272.607 213.907C270.078 213.93 267.919 215.057 266.129 217.288C264.34 219.519 263.459 222.058 263.485 224.905C263.526 229.474 265.243 232.868 268.636 235.087L266.852 236C262.998 233.293 261.048 229.339 261.001 224.136C260.967 220.375 262.08 217.272 264.342 214.826C266.638 212.379 269.403 211.142 272.635 211.112C274.707 211.093 276.767 211.637 278.815 212.743C280.596 211.602 282.629 211.021 284.912 211.001C289.093 210.963 292.477 212.303 295.067 215.022C297.656 217.74 298.967 220.892 298.999 224.477V224.477ZM282.673 225.574C282.637 221.602 281.044 218.312 277.893 215.705C274.301 218.655 272.523 222.098 272.559 226.035C272.577 228.074 273.092 229.669 274.104 230.819C275.116 231.97 276.307 232.54 277.677 232.527C279.047 232.515 280.227 231.898 281.217 230.676C282.207 229.454 282.693 227.754 282.673 225.574V225.574Z" fill="#DC430E"/>
<path d="M228.999 245.242C228.97 247.407 228.398 249.44 227.283 251.341C226.169 253.242 224.565 254.795 222.47 256L219.968 255.118C221.424 254.004 222.557 252.628 223.367 250.99C224.176 249.351 224.593 247.616 224.618 245.784C224.658 242.786 223.779 240.185 221.982 237.979C220.185 235.773 217.728 234.65 214.611 234.609C213.572 234.595 212.564 234.781 211.587 235.168C215.299 238.316 217.127 242.004 217.07 246.234C217.03 249.232 216.237 251.57 214.689 253.249C213.142 254.928 211.346 255.753 209.302 255.727C207.258 255.7 205.526 254.861 204.107 253.21C202.688 251.558 201.998 249.251 202.037 246.286C202.065 244.254 202.577 242.296 203.574 240.41C204.538 238.524 205.848 236.992 207.506 235.814C206.607 235.403 205.428 235.187 203.971 235.168C202.513 235.149 201.159 235.539 199.908 236.339C198.657 237.138 198.021 238.304 198.001 239.837L197.796 255.175L193.524 255.119L193.728 239.78C193.746 238.448 193.091 237.307 191.763 236.356C190.402 235.406 188.9 234.919 187.258 234.898C184.443 234.861 182.237 235.64 180.641 237.234C179.044 238.829 178.037 241.439 177.62 245.065L177.82 245.167C179.326 242.789 181.085 241.613 183.096 241.639C185.106 241.665 186.638 242.41 187.691 243.873C188.744 245.336 189.258 247.009 189.233 248.891C189.208 250.773 188.675 252.365 187.636 253.667C186.596 254.969 185.021 255.606 182.91 255.579C180.798 255.551 179.102 254.596 177.82 252.713C176.571 250.831 175.965 248.524 176.002 245.793C176.061 241.33 177.331 237.865 179.81 235.399C182.29 232.933 185.456 231.809 189.307 232.026C190.68 232.111 192.091 232.529 193.538 233.282C194.986 234.034 195.937 234.996 196.391 236.168C197.146 234.812 198.308 233.811 199.875 233.165C201.442 232.519 203.13 232.209 204.94 232.232C206.75 232.256 208.401 232.811 209.895 233.897C211.785 232.922 213.919 232.451 216.299 232.482C220.186 232.533 223.286 233.832 225.598 236.377C227.91 238.923 229.044 241.878 228.999 245.242L228.999 245.242ZM213.351 246.135C213.403 242.305 211.953 239.154 209.003 236.683C205.483 239.236 203.697 242.46 203.645 246.357C203.62 248.256 204.086 249.77 205.043 250.898C206 252.027 207.14 252.6 208.464 252.617C209.787 252.635 210.926 252.083 211.879 250.963C212.833 249.843 213.323 248.234 213.351 246.135V246.135ZM182.359 244.078C181.287 244.064 180.377 244.418 179.63 245.141C178.883 245.864 178.501 246.892 178.483 248.225C178.465 249.557 178.828 250.611 179.572 251.387C180.316 252.163 181.232 252.558 182.321 252.573C183.41 252.587 184.262 252.19 184.876 251.382C185.49 250.574 185.805 249.595 185.82 248.446C185.835 247.297 185.531 246.285 184.905 245.411C184.28 244.536 183.432 244.092 182.359 244.078V244.078Z" fill="#DC430E"/>
<path d="M259.789 306L221.479 305.704L221.557 295.787L206.836 295.673L206.84 295.252C209.87 293.473 211.397 291.1 211.42 288.135C211.435 286.212 210.864 284.675 209.707 283.524C208.549 282.373 207.176 281.791 205.587 281.779C203.999 281.766 202.626 282.397 201.47 283.67C200.314 284.944 199.727 286.752 199.708 289.096C199.69 291.44 200.58 293.301 202.38 294.677L200.557 296.286C198.16 294.264 196.974 291.56 197 288.174C197.027 284.788 197.972 282.241 199.835 280.532C201.739 278.824 204.018 277.98 206.673 278C209.327 278.021 211.643 278.92 213.62 280.699C215.597 282.477 216.574 284.929 216.549 288.054C216.533 290.178 215.774 292.056 214.273 293.687L221.573 293.743L221.599 290.378C221.628 286.691 222.878 283.716 225.349 281.451C227.82 279.186 231.017 278.068 234.938 278.099C243.042 278.161 247.091 283.763 247.085 294.902L247.076 295.984L226.685 295.827L226.624 303.64L254.677 303.857L254.872 278.854L260 278.894L259.789 306ZM244.679 293.922L244.689 292.66C244.68 288.572 243.979 285.602 242.586 283.748C241.153 281.893 239.038 280.955 236.243 280.934C233.448 280.912 231.169 281.756 229.406 283.465C227.643 285.175 226.75 287.492 226.727 290.417L226.701 293.783L244.679 293.922Z" fill="#DC430E"/>
<path d="M208 335.03C208 337.95 207.27 340.673 205.809 343.199C204.348 345.725 202.177 347.619 199.295 348.882L196.689 347.639C198.782 346.376 200.361 344.62 201.427 342.37C202.453 340.121 202.967 337.753 202.967 335.266C202.967 331.596 202.147 328.824 200.509 326.949C198.871 325.075 196.986 324.137 194.854 324.137C193.314 324.137 192.021 324.591 190.975 325.499C189.929 326.407 189.406 327.571 189.406 328.992V348.29H184.373V331.537C184.373 329.564 183.721 327.896 182.418 326.535C181.116 325.173 179.616 324.493 177.918 324.493C176.22 324.493 174.789 324.868 173.625 325.617C172.46 326.367 171.878 327.413 171.878 328.755V348.29H166.844V330.116C166.844 328.538 166.055 327.196 164.476 326.091C162.857 324.986 161.08 324.433 159.146 324.433C155.83 324.433 153.244 325.39 151.389 327.305C149.533 329.219 148.388 332.326 147.954 336.628L148.191 336.746C149.928 333.905 152.08 332.484 154.646 332.484C156.541 332.484 158.189 333.293 159.59 334.911C160.992 336.529 161.692 338.562 161.692 341.008C161.692 343.455 160.962 345.399 159.501 346.839C158.041 348.28 156.324 349 154.35 349C151.784 349 149.75 347.895 148.25 345.685C146.75 343.475 146 340.791 146 337.634C146 332.346 147.431 328.252 150.293 325.351C153.155 322.45 156.817 321 161.278 321C165.739 321 168.897 322.598 170.753 325.795C172.687 322.677 175.431 321.118 178.984 321.118C183.247 321.118 186.327 322.579 188.222 325.499C189.919 322.5 192.386 321 195.624 321C198.861 321 201.733 322.292 204.24 324.877C206.746 327.462 208 330.846 208 335.03L208 335.03ZM153.195 345.448C154.359 345.448 155.396 345.014 156.304 344.146C157.212 343.278 157.666 342.064 157.666 340.505C157.666 338.947 157.231 337.703 156.363 336.776C155.494 335.849 154.488 335.385 153.343 335.385C152.198 335.385 151.191 335.819 150.323 336.687C149.454 337.555 149.02 338.799 149.02 340.417C149.02 342.035 149.425 343.278 150.234 344.146C151.043 345.014 152.03 345.448 153.195 345.448Z" fill="#DC430E"/>
<path d="M274 360.801C274 364.049 272.711 366.56 270.134 368.336C267.557 370.112 264.551 371 261.114 371C259.093 371 257.274 370.696 255.657 370.087L254.596 365.596C256.011 366.814 257.906 367.423 260.281 367.423C262.656 367.423 264.475 366.915 265.738 365.901C266.951 364.835 267.557 363.338 267.557 361.41C267.557 359.482 266.711 357.896 265.018 356.653C263.325 355.41 261.418 354.789 259.295 354.789H256.263V351.364H259.068C261.595 351.364 263.54 350.78 264.904 349.613C266.218 348.446 266.875 346.937 266.875 345.085C266.875 343.233 266.092 341.761 264.525 340.67C262.959 339.579 261.039 339.034 258.765 339.034C256.491 339.034 254.482 339.579 252.739 340.67C250.995 341.761 250.124 343.245 250.124 345.123V370.087H243.681V346.721C243.681 344.691 242.67 342.966 240.649 341.546C238.577 340.125 236.303 339.414 233.827 339.414C229.583 339.414 226.273 340.645 223.898 343.106C221.523 345.567 220.057 349.562 219.502 355.093L219.805 355.245C222.079 351.592 224.732 349.765 227.763 349.765C230.795 349.765 233.095 350.831 234.661 352.962C236.227 355.093 237.011 357.592 237.011 360.459C237.011 363.326 236.177 365.799 234.509 367.879C232.842 369.96 230.429 371 227.271 371C224.112 371 221.599 369.63 219.729 366.89C217.91 364.099 217 360.674 217 356.615C217 349.715 218.832 344.387 222.496 340.632C226.159 336.877 230.821 335 236.48 335C242.14 335 246.157 337.055 248.532 341.165C251.059 337.156 254.975 335.152 260.281 335.152C263.767 335.152 266.824 336.091 269.452 337.968C272.08 339.846 273.394 342.294 273.394 345.313C273.394 348.332 271.675 350.704 268.239 352.429C270.058 353.19 271.473 354.332 272.484 355.854C273.495 357.376 274 359.025 274 360.801V360.801ZM230.341 364.455C231.402 363.135 231.932 361.6 231.932 359.85C231.932 358.099 231.452 356.603 230.492 355.359C229.532 354.116 228.244 353.495 226.627 353.495C225.009 353.495 223.645 354.053 222.533 355.169C221.422 356.285 220.866 357.909 220.866 360.04C220.866 362.171 221.333 363.77 222.268 364.835C223.203 365.901 224.504 366.433 226.172 366.433C227.839 366.433 229.229 365.774 230.341 364.455V364.455Z" fill="#DC430E"/>
<path d="M125.372 549.083C127.168 549.52 128.555 550.623 129.533 552.392C130.511 554.161 131 556.318 131 558.862C131 561.407 130.271 563.732 128.815 565.839C127.358 567.946 125.332 569 122.737 569C121.66 569 120.582 568.702 119.504 568.106L118.846 564.289C119.644 564.925 120.602 565.243 121.719 565.243C122.837 565.243 123.735 564.617 124.414 563.365C125.092 562.112 125.432 560.482 125.432 558.475C125.432 556.467 124.943 554.638 123.965 552.989C122.987 551.339 121.62 550.514 119.864 550.514H118.666V547.83H119.864C121.181 547.83 122.219 547.294 122.977 546.22C123.695 545.147 124.055 543.835 124.055 542.284C124.055 539.979 123.256 537.911 121.66 536.083C120.023 534.294 117.588 533.399 114.355 533.399C111.122 533.399 108.248 534.979 105.733 538.14C103.218 541.3 101.961 546.101 101.961 552.541V555.165H110.703V537.454H115.792V561.546C115.792 563.772 115.113 565.551 113.756 566.883C112.399 568.215 110.643 568.881 108.487 568.881C106.332 568.881 104.376 567.877 102.62 565.869C100.863 563.862 99.9854 560.989 99.9854 557.252H85.1365V556.835C88.0902 555.046 89.5671 552.521 89.5671 549.261C89.5671 547.313 88.9584 545.773 87.7409 544.64C86.5235 543.507 85.0168 542.94 83.2207 542.94C81.4245 542.94 79.8577 543.616 78.5205 544.968C77.1833 546.32 76.5147 548.208 76.5147 550.633C76.5147 551.905 76.7742 553.058 77.2931 554.092C77.812 555.125 78.5504 555.881 79.5085 556.358L77.6523 557.849C75.2174 555.901 74 553.197 74 549.739C74 546.28 75.0079 543.646 77.0237 541.837C79.0394 540.028 81.4443 539.124 84.2384 539.124C87.0325 539.124 89.4674 540.018 91.543 541.807C93.6186 543.596 94.6564 546.021 94.6564 549.083C94.6564 551.428 93.918 553.456 92.4412 555.165H99.9854V552.243C99.9854 548.387 100.444 544.978 101.362 542.016C102.28 539.054 103.508 536.729 105.045 535.039C108.098 531.68 111.671 530 115.762 530C119.853 530 123.216 531.272 125.851 533.817C128.485 536.361 129.803 539.183 129.803 542.284C129.803 545.385 128.326 547.651 125.372 549.083V549.083ZM110.703 561.009V557.252H101.961C101.961 560.154 102.64 562.381 103.997 563.931C104.755 564.846 105.713 565.303 106.871 565.303C108.028 565.303 108.966 564.885 109.685 564.05C110.363 563.216 110.703 562.202 110.703 561.009Z" fill="#DC430E"/>
<path d="M195 391.812C195 397.288 193.231 402.021 189.692 406.013C186.154 410.004 181.41 412 175.462 412C172.539 412 170.385 411.667 169 411.002C166.59 411.667 164.026 412 161.308 412C154.077 412 148.551 409.902 144.731 405.706C140.91 401.51 139 396.699 139 391.275C139 387.079 140.103 383.484 142.308 380.49C144.513 377.497 147.513 376 151.308 376C155.103 376 158.18 378.252 160.539 382.755C163.975 378.252 167.872 376 172.231 376C175.616 376 178.423 377.433 180.654 380.299C182.885 383.164 184 386.286 184 389.663C184 397.953 180.334 404.094 173 408.085C173.923 408.392 174.821 408.546 175.693 408.546C180.462 408.546 184.231 406.908 187 403.633C189.718 400.307 191.077 396.367 191.077 391.812C191.077 386.03 189.103 381.424 185.154 377.996L188.077 376C192.692 380.094 195 385.365 195 391.812V391.812ZM169.462 406.704C172.077 405.424 174.077 403.454 175.462 400.793C176.846 398.132 177.539 395.279 177.539 392.235C177.539 389.19 176.898 386.452 175.616 384.021C174.334 381.591 172.359 380.375 169.693 380.375C167.026 380.375 164.936 381.552 163.423 383.906C161.91 386.26 161.154 388.896 161.154 391.812C161.154 394.729 161.885 397.582 163.346 400.371C164.808 403.16 166.846 405.271 169.462 406.704ZM165.231 408.085C162.616 406.652 160.41 404.273 158.616 400.947C156.872 397.62 156 394.563 156 391.774C156 388.985 155.462 386.465 154.385 384.213C153.257 381.962 151.628 380.836 149.5 380.836C147.372 380.836 145.68 381.898 144.423 384.021C143.167 386.145 142.539 388.665 142.539 391.582C142.539 396.085 144.051 400.038 147.077 403.441C150.103 406.844 154.616 408.546 160.616 408.546C162.667 408.546 164.205 408.392 165.231 408.085V408.085Z" fill="#DC430E"/>
<path d="M212 555.337C212 559.412 210.74 562.708 208.22 565.225C205.699 567.742 202.663 569 199.111 569C196.709 569 194.629 568.538 192.869 567.613L193.732 565.25C194.882 565.833 196.168 566.124 197.588 566.124C200.633 566.124 203.297 564.797 205.581 562.143C207.864 559.489 209.006 556.518 209.006 553.231C209.006 551.416 208.532 549.687 207.585 548.043C206.638 546.4 205.369 545.321 203.779 544.807C204.49 546.657 204.845 548.411 204.845 550.072C204.845 551.733 204.608 553.368 204.135 554.978C203.695 556.587 202.866 558.008 201.648 559.241C200.43 560.474 198.891 561.09 197.03 561.09C195.17 561.09 193.614 560.234 192.362 558.522C191.11 556.81 190.484 554.798 190.484 552.486C190.484 550.175 191.262 548.138 192.819 546.374C194.375 544.61 196.371 543.558 198.806 543.215C197.521 540.818 195.508 539.62 192.768 539.62C191.381 539.62 190.053 539.988 188.785 540.724C187.516 541.46 186.882 542.496 186.882 543.831V560.576H182.518V546.246C182.518 544.465 181.816 542.915 180.412 541.597C179.008 540.279 177.41 539.62 175.617 539.62H173.993C176.259 540.784 177.393 542.453 177.393 544.628C177.393 546.802 176.361 548.488 174.297 549.687C176.936 550.475 178.255 552.067 178.255 554.464C178.255 556.245 177.579 557.803 176.226 559.138C174.839 560.439 173.249 561.09 171.456 561.09C168.851 561.09 166.838 560.045 165.417 557.957C163.997 555.868 163.286 553.471 163.286 550.766C163.286 546.246 164.91 542.719 168.158 540.185C167.346 540.013 166.415 539.928 165.367 539.928C162.525 539.928 160.326 541.024 158.77 543.215C157.214 545.407 156.436 547.941 156.436 550.817C156.436 552.872 156.825 554.755 157.603 556.467C158.381 558.179 159.514 559.429 161.003 560.217L159.277 561.09C157.586 560.165 156.284 558.693 155.37 556.673C154.457 554.652 154 552.486 154 550.175C154 547.864 154.381 545.741 155.142 543.806C155.903 541.871 157.138 540.253 158.846 538.952C160.554 537.651 162.635 537 165.088 537C167.54 537 169.46 537.411 170.847 538.233C172.674 537.411 174.822 537 177.291 537C181.384 537 184.226 538.438 185.816 541.315C187.541 538.438 189.994 537 193.174 537C197.402 537 200.616 539.003 202.815 543.01C205.691 543.592 207.94 545.03 209.564 547.324C211.188 549.619 212 552.289 212 555.337ZM199.568 544.859C197.538 545.064 195.846 545.792 194.493 547.042C193.14 548.292 192.463 549.892 192.463 551.844C192.463 553.18 192.852 554.515 193.63 555.851C194.409 557.186 195.449 557.854 196.751 557.854C198.054 557.854 199.06 557.092 199.771 555.568C200.481 554.044 200.836 552.289 200.836 550.303C200.836 548.317 200.413 546.502 199.568 544.859ZM173.942 554.669C173.942 552.307 172.099 551.125 168.411 551.125H168.31V549.327H169.579C170.627 549.327 171.574 548.934 172.42 548.146C173.266 547.358 173.689 546.485 173.689 545.526C173.689 544.568 173.308 543.643 172.547 542.753C171.786 541.862 170.932 541.229 169.985 540.852C168.361 541.708 167.118 543.07 166.255 544.936C165.392 546.802 164.961 548.694 164.961 550.612C164.961 552.529 165.418 554.267 166.331 555.825C167.245 557.383 168.547 558.162 170.238 558.162C171.219 558.162 172.082 557.82 172.826 557.135C173.57 556.45 173.943 555.628 173.943 554.669L173.942 554.669Z" fill="#DC430E"/>
<path d="M171 468.608C171 472.602 170.145 475.626 168.434 477.682C166.724 479.737 164.767 480.765 162.565 480.765C160.363 480.765 158.475 479.982 156.902 478.416C155.329 476.85 154.543 474.775 154.543 472.191C154.543 466.983 156.843 462.206 161.444 457.86C160.579 456.842 159.075 456.333 156.932 456.333C154.789 456.333 153.127 456.696 151.947 457.42C150.767 458.144 150.178 459.309 150.178 460.914V480.295H145.164V463.675C145.164 461.404 144.456 459.661 143.04 458.448C141.625 457.234 140.082 456.627 138.41 456.627C136.739 456.627 135.373 457.009 134.311 457.772C133.249 458.536 132.718 459.583 132.718 460.914V480.295H127.704V462.265C127.704 460.699 126.918 459.368 125.345 458.272C123.733 457.175 121.963 456.627 120.036 456.627C116.733 456.627 114.157 457.577 112.309 459.475C110.461 461.374 109.32 464.458 108.888 468.726L109.124 468.843C110.854 466.024 112.899 464.614 115.258 464.614C117.618 464.614 119.427 465.466 120.685 467.169C121.943 468.872 122.573 470.83 122.573 473.042C122.573 475.254 121.973 477.134 120.773 478.68C119.574 480.227 117.736 481 115.258 481C112.781 481 110.775 479.904 109.242 477.711C107.747 475.519 107 472.817 107 469.606C107 464.399 108.426 460.366 111.277 457.508C114.128 454.65 117.834 453.221 122.396 453.221C124.283 453.221 125.935 453.602 127.35 454.366C128.766 455.129 130.182 456.333 131.597 457.978C133.721 454.885 136.641 453.338 140.357 453.338C144.073 453.338 146.953 454.826 148.998 457.802C151.318 454.748 154.326 453.221 158.023 453.221C159.989 453.221 161.896 453.73 163.745 454.748C164.295 453.847 164.57 453.025 164.57 452.281C164.57 450.754 164.069 449.57 163.066 448.728C162.063 447.886 160.835 447.465 159.38 447.465C157.256 447.465 155.604 448.248 154.425 449.814L152.95 448.875C153.461 447.426 154.503 446.251 156.076 445.351C157.649 444.45 159.33 444 161.12 444C162.909 444 164.452 444.548 165.75 445.644C167.048 446.741 167.697 448.346 167.697 450.46C167.697 451.165 167.569 451.86 167.313 452.545C167.058 453.23 166.822 453.73 166.606 454.043C166.389 454.356 165.986 454.963 165.396 455.863C167.127 457.195 168.493 459.064 169.496 461.472C170.499 463.88 171 466.259 171 468.608V468.608ZM166.399 468.843C166.399 464.732 165.278 461.482 163.037 459.094C161.307 460.425 159.842 462.226 158.642 464.497C157.443 466.768 156.843 468.882 156.843 470.84C156.843 472.797 157.315 474.354 158.259 475.509C159.203 476.664 160.323 477.241 161.621 477.241C162.919 477.241 164.04 476.537 164.983 475.127C165.927 473.718 166.399 471.623 166.399 468.843V468.843ZM118.562 472.572C118.562 471.222 118.188 470.037 117.441 469.019C116.694 468.001 115.642 467.492 114.285 467.492C112.928 467.492 111.867 467.982 111.1 468.96C110.333 469.939 109.949 471.104 109.949 472.455C109.949 473.806 110.343 474.98 111.129 475.979C111.916 476.977 112.997 477.476 114.373 477.476C115.75 477.476 116.792 476.997 117.5 476.037C118.208 475.078 118.562 473.923 118.562 472.572V472.572Z" fill="#DC430E"/>
<path d="M239.107 420.665C241.837 420.665 244.001 421.486 245.601 423.128C247.2 424.77 248 426.827 248 429.301C248 431.774 247.286 433.842 245.857 435.505C244.428 437.168 242.743 438 240.803 438C238.862 438 237.337 437.595 236.228 436.785L235.908 433.714C237.017 434.397 237.892 434.738 238.531 434.738C240.024 434.738 241.186 434.151 242.018 432.979C242.85 431.806 243.266 430.431 243.266 428.853C243.266 426.252 242.647 424.62 241.41 423.959C240.173 423.298 238.19 422.968 235.46 422.968H235.013C235.013 424.631 234.831 426.284 234.469 427.925C234.106 429.567 233.573 431.177 232.869 432.755C232.165 434.333 231.12 435.601 229.734 436.561C228.348 437.52 226.759 438 224.968 438C221.343 438 218.698 436.252 217.035 432.755C215.67 436.252 213.633 438 210.925 438C208.216 438 206.052 437.072 204.431 435.217C202.81 433.362 202 431.156 202 428.597C202 425.889 202.746 423.885 204.239 422.584C205.305 421.582 207.097 420.964 209.613 420.729C210.509 420.687 211.639 420.665 213.004 420.665H215.371C215.371 417.382 216.15 414.45 217.707 411.87C219.263 409.29 221.588 408 224.68 408C227.772 408 230.15 409.258 231.814 411.774C233.477 414.29 234.458 417.254 234.757 420.665L239.107 420.665ZM230.278 420.665C230.278 418.448 229.724 416.38 228.615 414.461C227.463 412.584 225.842 411.646 223.752 411.646C221.662 411.646 220.095 412.584 219.05 414.461C218.005 416.337 217.483 418.405 217.483 420.665H230.278ZM230.278 422.968H217.483C217.44 423.522 217.419 424.354 217.419 425.463C217.419 427.765 217.941 429.898 218.986 431.859C220.031 433.821 221.577 434.802 223.624 434.802C224.947 434.802 226.077 434.407 227.015 433.618C227.954 432.829 228.657 431.774 229.127 430.452C229.894 428.064 230.278 425.569 230.278 422.968H230.278ZM215.371 428.533V422.968H213.196C208.888 422.968 206.734 424.716 206.734 428.213C206.734 429.791 207.129 431.284 207.918 432.691C208.707 434.098 209.827 434.802 211.277 434.802C214.006 434.802 215.371 432.712 215.371 428.533Z" fill="#DC430E"/>
<path d="M359 33.4416C359.023 37.7732 358.156 41.0793 356.398 43.3601C354.64 45.6409 352.553 46.7882 350.137 46.8018C347.721 46.8154 345.643 45.8913 343.904 44.0296C342.165 42.168 341.287 39.7022 341.27 36.6323C341.239 31.0392 343.587 26.232 348.314 22.2106C346.85 21.0413 345.263 20.4615 343.555 20.4712C340.348 20.4892 337.804 21.8702 335.923 24.6143C334.043 27.3581 333.113 30.6013 333.134 34.344C333.16 39.0961 335.035 42.8494 338.758 45.6041L337.328 47C332.478 43.9152 330.036 39.1557 330 32.7215C329.977 28.4746 331.206 24.7881 333.689 21.6621C336.213 18.5779 339.579 17.024 343.786 17.0003C347.994 16.9767 351.574 18.4179 354.527 21.3241C357.48 24.2303 358.971 28.2695 359 33.4416ZM343.763 35.4829C343.775 37.5435 344.357 39.2854 345.511 40.7088C346.664 42.1322 347.928 42.84 349.303 42.8323C350.678 42.8245 351.819 42.0926 352.728 40.6367C353.636 39.1807 354.083 37.1806 354.069 34.6364C354.055 32.0922 353.71 29.8442 353.032 27.8924C352.355 25.9411 351.41 24.5272 350.197 23.6509C345.884 27.2915 343.74 31.2355 343.763 35.4829Z" fill="#DC430E"/>
<path d="M234 510.641L209.475 510.999C207.431 511.029 205.73 510.492 204.373 509.389C203.015 508.286 202.322 506.75 202.293 504.78C202.264 502.811 202.921 501.149 204.264 499.795C205.606 498.44 207.278 497.749 209.28 497.72L220.903 497.55C222.649 497.525 224.26 497.035 225.737 496.082C227.213 495.128 227.94 493.889 227.918 492.364C227.895 490.839 227.24 489.726 225.952 489.024C224.622 488.366 223.148 488.049 221.53 488.072L221.48 484.641C223.14 484.617 224.591 484.098 225.833 483.084C227.074 482.071 227.683 480.759 227.659 479.149C227.628 476.989 226.604 475.437 224.588 474.492C222.573 473.546 220.192 473.094 217.445 473.134C214.699 473.174 212.06 473.965 209.527 475.505C206.995 477.046 205.387 479.22 204.704 482.026L205.09 482.211C206.587 479.732 208.517 478.475 210.88 478.441C213.243 478.406 215.108 479.205 216.473 480.838C217.839 482.47 218.539 484.451 218.573 486.781C218.607 489.11 217.902 491.101 216.457 492.753C215.012 494.406 213.055 495.25 210.585 495.286C208.116 495.322 206.078 494.292 204.471 492.197C202.864 490.103 202.041 487.721 202.002 485.052C201.934 480.393 203.498 476.737 206.696 474.085C209.893 471.433 213.898 470.072 218.709 470.002C220.157 469.981 221.703 470.159 223.348 470.538C224.993 470.916 226.577 471.476 228.1 472.216C229.623 472.956 230.883 473.955 231.881 475.211C232.879 476.468 233.39 477.88 233.413 479.447C233.452 482.115 231.889 484.384 228.722 486.251C231.934 487.433 233.561 489.464 233.603 492.345C233.637 494.674 232.686 496.584 230.749 498.074C228.812 499.564 226.63 500.326 224.203 500.362L209.322 500.579C208.342 500.593 207.473 500.86 206.714 501.379C205.956 501.899 205.583 502.625 205.597 503.556C205.61 504.488 206.004 505.171 206.777 505.605C207.55 506.038 208.426 506.248 209.405 506.233L233.93 505.876L234 510.641ZM213.292 490.385C213.935 489.253 214.247 488.009 214.227 486.654C214.207 485.298 213.827 484.064 213.086 482.953C212.346 481.841 211.358 481.294 210.124 481.312C208.889 481.33 207.95 481.894 207.306 483.005C206.662 484.116 206.35 485.339 206.37 486.673C206.389 488.007 206.738 489.252 207.415 490.407C208.092 491.562 209.08 492.13 210.378 492.111C211.677 492.092 212.648 491.517 213.292 490.385V490.385Z" fill="#DC430E"/>
</svg>
