<svg width="169" height="22" viewBox="0 0 169 22" fill="none" xmlns="http://www.w3.org/2000/svg">
<path d="M119.03 4.11597C118.219 4.47562 117.349 4.71837 116.434 4.82633C117.367 4.26794 118.084 3.3836 118.422 2.33008C117.548 2.84652 116.581 3.22337 115.552 3.42486C114.727 2.54807 113.552 2 112.251 2C109.755 2 107.733 4.02038 107.733 6.51319C107.733 6.86665 107.772 7.21187 107.849 7.54195C104.093 7.35353 100.763 5.55664 98.5328 2.82589C98.1445 3.49294 97.9214 4.26794 97.9214 5.09521C97.9214 6.66173 98.7194 8.04257 99.9314 8.85265C99.1911 8.82858 98.4943 8.62641 97.8849 8.28807C97.8842 8.30664 97.8842 8.32658 97.8842 8.34446C97.8842 10.5319 99.4418 12.3563 101.51 12.771C101.131 12.8735 100.732 12.9292 100.319 12.9292C100.027 12.9292 99.7448 12.901 99.4693 12.8487C100.044 14.6408 101.714 15.946 103.69 15.9831C102.145 17.1934 100.196 17.9162 98.0784 17.9162C97.7134 17.9162 97.3533 17.8948 97 17.8529C98.9997 19.132 101.375 19.8795 103.928 19.8795C112.241 19.8795 116.788 13.0021 116.788 7.0372C116.788 6.8419 116.782 6.6466 116.774 6.45268C117.657 5.81658 118.423 5.02232 119.03 4.11597Z" fill="#F2F2F2"/>
<path d="M22.0299 20.625C22.0299 21.384 21.413 22 20.653 22H1.37687C0.616836 22 0 21.384 0 20.625V1.375C0 0.616 0.616836 0 1.37687 0H20.653C21.413 0 22.0299 0.616 22.0299 1.375V20.625Z" fill="#F2F2F2"/>
<path d="M15.1456 22V13.75H17.8993L18.5878 10.3125H15.1456V8.9375C15.1456 7.5625 15.8354 6.875 17.2109 6.875H18.5878V3.4375C17.8993 3.4375 17.0457 3.4375 15.834 3.4375C13.304 3.4375 11.7034 5.41819 11.7034 8.25V10.3125H8.94971V13.75H11.7034V22H15.1456Z" fill="#438DAA"/>
<path fill-rule="evenodd" clip-rule="evenodd" d="M164.216 5.12823C164.216 5.85733 163.625 6.44823 162.895 6.44823C162.165 6.44823 161.573 5.85733 161.573 5.12823C161.573 4.39914 162.165 3.80823 162.895 3.80823C163.625 3.80823 164.216 4.39914 164.216 5.12823ZM157.015 14.6666C154.987 14.6666 153.343 13.025 153.343 11C153.343 8.97497 154.987 7.33339 157.015 7.33339C159.043 7.33339 160.687 8.97497 160.687 11C160.687 13.025 159.043 14.6666 157.015 14.6666ZM157.015 5.35133C153.891 5.35133 151.359 7.8803 151.359 11C151.359 14.1197 153.891 16.6487 157.015 16.6487C160.139 16.6487 162.671 14.1197 162.671 11C162.671 7.8803 160.139 5.35133 157.015 5.35133ZM157.015 1.98206C159.956 1.98206 160.304 1.99323 161.466 2.04617C162.54 2.09516 163.123 2.27425 163.511 2.42498C164.025 2.62453 164.392 2.86292 164.778 3.24792C165.163 3.63275 165.402 3.99919 165.602 4.51275C165.753 4.90033 165.932 5.48281 165.981 6.55531C166.034 7.7153 166.045 8.06317 166.045 11.0003C166.045 13.9375 166.034 14.2854 165.981 15.4452C165.932 16.5177 165.753 17.1002 165.602 17.4878C165.402 18.0012 165.163 18.3676 164.778 18.7526C164.392 19.1376 164.025 19.376 163.511 19.5755C163.123 19.7261 162.54 19.9054 161.466 19.9543C160.304 20.0073 159.956 20.0185 157.015 20.0185C154.074 20.0185 153.725 20.0073 152.564 19.9543C151.49 19.9054 150.907 19.7263 150.519 19.5755C150.004 19.376 149.638 19.1376 149.252 18.7526C148.867 18.3678 148.628 18.0013 148.428 17.4878C148.277 17.1002 148.098 16.5177 148.049 15.4452C147.996 14.2852 147.984 13.9373 147.984 11.0003C147.984 8.06317 147.996 7.7153 148.049 6.55531C148.098 5.48281 148.277 4.90033 148.428 4.51275C148.628 3.99936 148.866 3.63292 149.252 3.24792C149.637 2.86292 150.004 2.62453 150.519 2.42498C150.907 2.27442 151.49 2.09516 152.564 2.04617C153.725 1.99323 154.074 1.98206 157.015 1.98206ZM157.015 0C154.024 0 153.648 0.0127188 152.474 0.0661719C151.301 0.119625 150.5 0.305594 149.8 0.5775C149.075 0.858516 148.461 1.23475 147.849 1.84628C147.236 2.45781 146.86 3.07123 146.578 3.79466C146.306 4.49436 146.12 5.29392 146.066 6.46473C146.013 7.63795 146 8.01264 146 11C146 13.9874 146.013 14.362 146.066 15.5353C146.12 16.7061 146.306 17.5056 146.578 18.2053C146.86 18.9288 147.236 19.5422 147.849 20.1537C148.461 20.7653 149.075 21.1413 149.8 21.4225C150.5 21.6944 151.301 21.8804 152.474 21.9338C153.648 21.9873 154.024 22 157.015 22C160.006 22 160.382 21.9873 161.556 21.9338C162.729 21.8804 163.529 21.6944 164.23 21.4225C164.954 21.1413 165.569 20.7653 166.181 20.1537C166.793 19.5422 167.17 18.9288 167.452 18.2053C167.724 17.5056 167.91 16.7061 167.964 15.5353C168.017 14.362 168.03 13.9874 168.03 11C168.03 8.01264 168.017 7.63795 167.964 6.46473C167.91 5.29392 167.724 4.49436 167.452 3.79466C167.17 3.07123 166.793 2.45781 166.181 1.84628C165.569 1.23475 164.954 0.858687 164.23 0.5775C163.529 0.305594 162.729 0.119625 161.556 0.0661719C160.382 0.0127188 160.006 0 157.015 0Z" fill="#F2F2F2"/>
<path fill-rule="evenodd" clip-rule="evenodd" d="M55.9969 9.61378V12.3861C55.9969 12.3861 58.685 12.3825 59.7797 12.3825C59.1869 14.1796 58.2653 15.1583 55.9969 15.1583C53.7013 15.1583 51.9097 13.2965 51.9097 11C51.9097 8.70336 53.7013 6.84161 55.9969 6.84161C57.2106 6.84161 57.9945 7.26838 58.7134 7.86323C59.289 7.28745 59.241 7.2053 60.7053 5.82188C59.4623 4.68991 57.81 4 55.9969 4C52.1325 4 49 7.13397 49 11C49 14.8659 52.1325 17.9999 55.9969 17.9999C61.773 17.9999 63.1846 12.9683 62.7167 9.61378H55.9969ZM68.6052 9.75248V7.32664H66.8733V9.75231H64.3792V11.485H66.8733V13.9801H68.6052V11.4852H71.0299V9.75248H68.6052Z" fill="#F2F2F2"/>
</svg>
