<svg width="30" height="25" viewBox="0 0 30 25" fill="none" xmlns="http://www.w3.org/2000/svg">
<path d="M29.5531 3.42571C28.4865 3.89979 27.3422 4.21978 26.1388 4.36209C27.3659 3.62603 28.3089 2.46031 28.7535 1.07158C27.6039 1.75234 26.3321 2.2491 24.9787 2.5147C23.8937 1.35893 22.3482 0.636475 20.6371 0.636475C17.3543 0.636475 14.6949 3.2997 14.6949 6.58568C14.6949 7.0516 14.7461 7.50667 14.8474 7.94177C9.90737 7.6934 5.52762 5.32477 2.59437 1.72515C2.08366 2.60444 1.79024 3.62603 1.79024 4.71652C1.79024 6.78148 2.83979 8.60168 4.43386 9.66951C3.46019 9.63778 2.54374 9.37129 1.74223 8.92529C1.74131 8.94977 1.74131 8.97606 1.74131 8.99963C1.74131 11.8831 3.78993 14.288 6.51011 14.8346C6.01163 14.9697 5.48685 15.0431 4.94366 15.0431C4.5596 15.0431 4.18844 15.006 3.82609 14.937C4.58196 17.2993 6.77842 19.0198 9.37734 19.0687C7.34529 20.6641 4.78188 21.6169 1.99672 21.6169C1.51666 21.6169 1.04304 21.5887 0.578369 21.5335C3.20846 23.2196 6.33255 24.2049 9.69036 24.2049C20.624 24.2049 26.6044 15.1392 26.6044 7.27642C26.6044 7.01898 26.5965 6.76154 26.586 6.50592C27.7473 5.66742 28.7548 4.62044 29.5531 3.42571Z" fill="#F2F2F2"/>
</svg>
