<?xml version="1.0" encoding="utf-8"?>
<!-- Generator: Adobe Illustrator 19.0.0, SVG Export Plug-In . SVG Version: 6.00 Build 0)  -->
<svg version="1.1" id="Layer_1" 
	 xmlns="http://www.w3.org/2000/svg" xmlns:xlink="http://www.w3.org/1999/xlink" x="0px" y="0px" width="595.3px" height="841.9px"
	 viewBox="48 -170.9 595.3 841.9" style="enable-background:new 48 -170.9 595.3 841.9;" xml:space="preserve">
<style type="text/css">
	.st0{fill:#F8CA00;}
	.st1{fill:#FFFFFF;}
	.st2{fill:#343838;}
</style>
<path class="st0" d="M315.8,417c88.2-2.3,155.6-22.8,153.5-62.8c-1-38.6-53.6-64.2-192.4-60.6c-40.8,1-72,3.2-97.8,5.3l41.5-144.6
	l334-8.6l0.1,44.2l-261.7,6.9l-17.3,59.2c16.1-1.3,22.1-2.2,47.9-2.9c54.8-1.4,107.7,1.8,151,12.2c51.9,10.8,94.3,40.8,99.1,75.4
	v-310H148.1v411.6l22.8-37.6C200.1,411.2,251.3,418.7,315.8,417z"/>
<path class="st1" d="M304.4,456.3H271C281.6,456.5,292.7,456.5,304.4,456.3z"/>
<path class="st1" d="M574.3,347.1c0-2.2-0.2-4.4-0.5-6.6v13.7C574.1,351.9,574.3,349.6,574.3,347.1z"/>
<path class="st1" d="M148,442.3C148,442.3,148.1,442.3,148,442.3l0.1-0.1L148,442.3z"/>
<path class="st1" d="M573.8,354.3v-13.7c-4.8-34.6-47.2-64.6-99.1-75.4c-43.3-10.4-96.1-13.6-151-12.2c-25.8,0.7-31.8,1.5-47.9,2.9
	l17.3-59.2l261.7-6.9l-0.1-44.2l-334,8.6l-41.5,144.6c25.8-2.1,56.9-4.2,97.8-5.3c138.7-3.6,191.4,22,192.4,60.6
	c2.1,40-65.3,60.5-153.5,62.8c-64.5,1.7-115.7-5.8-144.9-12.4l-22.8,37.6v0.2c27.3,6.6,69,12.8,122.9,13.9h33.4
	c4-0.1,8.1-0.2,12.3-0.3C481.5,450.3,567,409.7,573.8,354.3z"/>
<g>
	<g>
		<path class="st2" d="M177.5,30.7v59.4h81.8v13.7h-79.8c-12.3,0-20.6-1.2-24.8-3.6c-4.3-2.4-6.5-6.9-6.5-13.6V30.7L177.5,30.7
			L177.5,30.7z"/>
		<path class="st2" d="M264,103.9l69.9-73.2h27.7l70.8,73.2h-32.2l-53.4-59l-54.1,59H264z"/>
		<path class="st2" d="M437.1,103.9V62.7c15.8,0,31.7,0,47.5,0c15.8,0,31.7,0,47.6,0c5,0,8.5-0.4,10.5-1.2c1.9-0.8,2.8-2.3,2.8-4.6
			v-7.8c0-2.2-0.9-3.6-2.8-4.5c-1.8-0.8-5.3-1.2-10.5-1.2c-15.9,0-31.7,0-47.6,0c-15.9,0-31.7,0-47.5,0V30.7h108.1
			c10,0,17.3,1.1,21.8,3.3c4.5,2.3,6.7,5.9,6.7,10.8v16.4c0,5-2.3,8.6-6.7,10.8c-4.5,2.3-11.8,3.4-21.8,3.4H466v28.5L437.1,103.9
			L437.1,103.9z"/>
	</g>
</g>
</svg>
