<?xml version="1.0" encoding="utf-8"?>
<!-- Generator: Adobe Illustrator 16.0.0, SVG Export Plug-In . SVG Version: 6.00 Build 0)  -->
<!DOCTYPE svg PUBLIC "-//W3C//DTD SVG 1.1//EN" "http://www.w3.org/Graphics/SVG/1.1/DTD/svg11.dtd">
<svg version="1.1" id="Layer_1" xmlns="http://www.w3.org/2000/svg" xmlns:xlink="http://www.w3.org/1999/xlink" x="0px" y="0px"
	 width="595.275px" height="841.891px" viewBox="0 0 595.275 841.891" enable-background="new 0 0 595.275 841.891"
	 xml:space="preserve">
<g>
	<path fill="#7FBB00" d="M267.777,587.888c88.182-2.263,155.627-22.813,153.524-62.792c-0.979-38.627-53.643-64.186-192.379-60.61
		c-40.834,1.048-71.993,3.228-97.77,5.279l41.487-144.639l334.044-8.609l0.072,44.153l-261.667,6.861l-17.299,59.206
		c16.124-1.341,22.093-2.187,47.899-2.858c54.84-1.399,107.656,1.847,150.957,12.229c51.91,10.786,94.281,40.81,99.119,75.362
		V201.48H100.102V613.06l22.782-37.553C152.098,582.117,203.254,589.549,267.777,587.888z"/>
	<path fill="#FFFFFF" d="M256.353,627.152H222.96C233.629,627.366,244.741,627.388,256.353,627.152z"/>
	<path fill="#FFFFFF" d="M526.252,518.03c0-2.204-0.182-4.392-0.486-6.561v13.738C526.057,522.839,526.252,520.453,526.252,518.03z"
		/>
	<path fill="#FFFFFF" d="M100.015,613.201c0.029,0.007,0.058,0.014,0.087,0.019v-0.16L100.015,613.201z"/>
	<path fill="#FFFFFF" d="M525.766,525.208V511.47c-4.838-34.553-47.209-64.577-99.119-75.362
		c-43.301-10.382-96.117-13.628-150.957-12.229c-25.806,0.671-31.775,1.517-47.899,2.858l17.299-59.206l261.667-6.861l-0.072-44.153
		l-334.044,8.609l-41.487,144.639c25.777-2.052,56.936-4.231,97.77-5.279c138.736-3.575,191.4,21.983,192.379,60.61
		c2.104,39.979-65.342,60.529-153.524,62.792c-64.523,1.661-115.679-5.771-144.894-12.381l-22.782,37.553v0.16
		c27.344,6.553,69.034,12.845,122.859,13.933h33.393c4.047-0.08,8.124-0.182,12.279-0.323
		C433.545,621.144,519.027,580.573,525.766,525.208z"/>
</g>
<g>
	<g>
		<path fill="#000080" d="M129.513,201.567v59.446h81.77v13.737h-79.833c-12.301,0-20.562-1.226-24.82-3.634
			c-4.337-2.379-6.528-6.93-6.528-13.636v-55.914H129.513z"/>
		<path fill="#000080" d="M215.998,274.75l69.941-73.183h27.67l70.804,73.183H352.18l-53.411-59.032l-54.1,59.032H215.998z"/>
		<path fill="#000080" d="M389.105,274.75v-41.128c15.824,0,31.666,0,47.527,0c15.82,0,31.697,0,47.559,0
			c5.049,0,8.486-0.428,10.451-1.244c1.871-0.809,2.807-2.335,2.807-4.573v-7.812c0-2.151-0.936-3.637-2.807-4.507
			c-1.799-0.831-5.266-1.219-10.451-1.219c-15.861,0-31.738,0-47.559,0c-15.861,0-31.703,0-47.527,0v-12.7h108.098
			c10.002,0,17.291,1.103,21.846,3.344c4.461,2.263,6.717,5.896,6.717,10.807v16.384c0,4.998-2.256,8.57-6.717,10.774
			c-4.525,2.252-11.807,3.384-21.846,3.384h-79.166v28.49H389.105z"/>
	</g>
</g>
</svg>
