<?xml version="1.0" encoding="utf-8"?>
<!-- Generator: Adobe Illustrator 19.0.0, SVG Export Plug-In . SVG Version: 6.00 Build 0)  -->
<svg version="1.1" id="Layer_1"
	 xmlns="http://www.w3.org/2000/svg" xmlns:xlink="http://www.w3.org/1999/xlink" x="0px" y="0px" width="720px" height="598.5px"
	 viewBox="110 -49.5 720 598.5" style="enable-background:new 110 -49.5 720 598.5;" xml:space="preserve">
<style type="text/css">
	.st0{fill:#01B5A1;}
	.st1{fill:#EE3B3F;}
	.st2{fill:#BE202A;}
	.st3{fill:#6D5738;}
	.st4{fill:#FCB919;}
	.st5{fill:#F7E0B7;}
	.st6{fill:#58452D;}
	.st7{fill:#128977;}
	.st8{fill:#213228;}
	.st9{fill:#E2A717;}
	.st10{fill:#E4D0AB;}
	.st11{fill:#01B5A1;stroke:#213228;stroke-width:10;stroke-miterlimit:10;}
	.st12{clip-path:url(#SVGID_2_);}
	.st13{opacity:0.15;fill:#FFFFFF;enable-background:new    ;}
</style>

<g id="background">
</g>
<rect x="254.8" y="1972.6" class="st0" width="116.3" height="116.3"/>
<rect x="354.2" y="1972.6" class="st1" width="116.3" height="116.3"/>
<rect x="146.2" y="1972.6" class="st2" width="116.3" height="116.3"/>
<rect x="453.7" y="1972.6" class="st3" width="116.3" height="116.3"/>
<rect x="553.1" y="1972.6" class="st4" width="116.3" height="116.3"/>
<rect x="652.6" y="1972.6" class="st5" width="116.3" height="116.3"/>
<rect x="770.4" y="1972.6" class="st6" width="116.3" height="116.3"/>
<rect x="869.8" y="1972.6" class="st7" width="116.3" height="116.3"/>
<rect x="969.2" y="1972.6" class="st8" width="116.3" height="116.3"/>
<path class="st8" d="M348.8,456.4c0,11.8-9.5,21.3-21.3,21.3h-33.7c-11.8,0-21.3-9.5-21.3-21.3v-70.9c0-11.8,9.5-21.3,21.3-21.3
	h33.7c11.8,0,21.3,9.5,21.3,21.3V456.4z"/>
<path class="st8" d="M589.1,456.4c0,11.8,9.5,21.3,21.3,21.3h33.7c11.8,0,21.3-9.5,21.3-21.3v-70.9c0-11.8-9.5-21.3-21.3-21.3h-33.7
	c-11.8,0-21.3,9.5-21.3,21.3V456.4L589.1,456.4z"/>
<g>
	
		<rect x="649.1" y="207.4" transform="matrix(0.7829 -0.6221 0.6221 0.7829 9.8998 459.1162)" class="st9" width="27.5" height="16"/>
	<circle class="st4" cx="687.2" cy="195.3" r="25.2"/>
</g>
<g>
	
		<rect x="261.3" y="207.4" transform="matrix(-0.7829 -0.6221 0.6221 -0.7829 356.3756 555.1268)" class="st9" width="27.5" height="16"/>
	<circle class="st4" cx="250.7" cy="195.3" r="25.2"/>
</g>
<path class="st9" d="M658.7,234.4c-2.8-37.1-12.4-101.8-39.1-133.3c-23.8-28.1-111.3-38-149.3-38s-127.7,9.9-151.5,38
	c-26.6,31.5-36.3,96.2-39.1,133.3c1.4-0.4,192.6,0,192.6,0S654.4,233.1,658.7,234.4z"/>
<path class="st0" d="M309.2,226.5c0.4-6.7,6.4-81.5,32.2-111.9c17.8-21,90.4-30.2,127.9-30.2s110.2,9.2,127.9,30.2
	C623,145,629,219.7,629.4,226.5C633,227.1,304,227.4,309.2,226.5z"/>
<path class="st9" d="M518.3,224.7c47.1,1.9,94.2,11.7,141.2,21.2c-0.1-1.8-0.4-6.5-0.9-13.5c-8.8-2.7-58.8-27.3-189.3-27.3
	s-180.7,24.6-189.6,27.3c-0.6,7.5-0.8,12.5-0.9,13.9c-3.6,1.2-7.1,2.7-10.4,4.5C349.5,227.5,434.4,221.7,518.3,224.7z"/>
<path class="st4" d="M702.6,303.9c-0.7-27-18.5-49.7-43-57.7c0-0.1,0-0.2,0-0.4c-47.1-9.5-94.2-19.4-141.2-21.2
	c-83.9-3-168.8,2.9-249.8,26.1c-19,10.3-32,30.2-32.6,53.2v0.1v79.2l233.3,7l0,0h0.1h0.1l0,0l233.3-7L702.6,303.9L702.6,303.9z"/>
<path class="st10" d="M713.6,372.2H469.3h-0.2H224.8c-6.6,0-12,5.4-12,12v25c0,6.6,5.4,12,12,12h244.3h0.2h244.3c6.6,0,12-5.4,12-12
	v-25C725.6,377.5,720.3,372.2,713.6,372.2z"/>
<circle class="st11" cx="641.6" cy="302.9" r="34.2"/>
<circle class="st11" cx="304.6" cy="302.9" r="34.2"/>
<g>
	<path class="st8" d="M396.9,284.8h72.2h0.2h72.2c3.9,0,7-3.1,7-7s-3.1-7-7-7h-72.2h-0.2h-72.2c-3.9,0-7,3.1-7,7
		C389.9,281.7,393.1,284.8,396.9,284.8z"/>
	<path class="st8" d="M541.6,294.5h-72.2h-0.2H397c-3.9,0-7,3.1-7,7s3.1,7,7,7h72.2h0.2h72.2c3.9,0,7-3.1,7-7
		C548.6,297.6,545.4,294.5,541.6,294.5z"/>
	<path class="st8" d="M541.6,318.2h-72.2h-0.2H397c-3.9,0-7,3.1-7,7s3.1,7,7,7h72.2h0.2h72.2c3.9,0,7-3.1,7-7
		C548.6,321.3,545.4,318.2,541.6,318.2z"/>
</g>
<path class="st5" d="M537.7,364.6h-68.3h-0.2h-68.3c-6.6,0-12,5.4-12,12v38.9c0,6.6,5.4,12,12,12h68.3h0.2h68.3c6.6,0,12-5.4,12-12
	v-38.9C549.7,370,544.3,364.6,537.7,364.6z"/>
<g>
	<g>
		<defs>
			<path id="SVGID_1_" d="M307.1,226.5c0.4-6.7,6.4-81.5,32.2-111.9c17.8-21,90.4-30.2,127.9-30.2s110.2,9.2,127.9,30.2
				c25.8,30.4,31.8,105.1,32.2,111.9c1.7,0.3-37.3-21.3-162.9-21.3C338.7,205.2,304.4,227,307.1,226.5z"/>
		</defs>
		<clipPath id="SVGID_2_">
			<use xlink:href="#SVGID_1_"  style="overflow:visible;"/>
		</clipPath>
		<g class="st12">
			
				<rect x="383" y="25.2" transform="matrix(-0.9384 0.3456 -0.3456 -0.9384 846.9713 180.9051)" class="st13" width="48.7" height="281.5"/>
			
				<rect x="461.2" y="-9.1" transform="matrix(-0.9384 0.3456 -0.3456 -0.9384 986.6938 87.4311)" class="st13" width="48.7" height="281.5"/>
		</g>
	</g>
</g>
</svg>
