<?xml version="1.0" encoding="utf-8"?>
<!-- Generator: Adobe Illustrator 19.0.0, SVG Export Plug-In . SVG Version: 6.00 Build 0)  -->
<svg version="1.1" id="Layer_1" xmlns:x="&ns_extend;" xmlns:i="&ns_ai;" xmlns:graph="&ns_graphs;"
	 xmlns="http://www.w3.org/2000/svg" xmlns:xlink="http://www.w3.org/1999/xlink" x="0px" y="0px" width="720px" height="598.5px"
	 viewBox="310 -249.5 720 598.5" style="enable-background:new 310 -249.5 720 598.5;" xml:space="preserve">
<style type="text/css">
	.st0{display:none;fill:#020202;}
	.st1{fill:#01B5A1;}
	.st2{fill:#EE3B3F;}
	.st3{fill:#BE202A;}
	.st4{fill:#6D5738;}
	.st5{fill:#FCB919;}
	.st6{fill:#F7E0B7;}
	.st7{fill:#58452D;}
	.st8{fill:#128977;}
	.st9{fill:#213228;}
	.st10{fill:#E2A717;}
	.st11{fill:#E4D0AB;}
	.st12{fill:#01B5A1;stroke:#213228;stroke-width:10;stroke-miterlimit:10;}
	.st13{clip-path:url(#SVGID_2_);}
	.st14{opacity:0.15;fill:#FFFFFF;enable-background:new    ;}
</style>
<metadata>
	<sfw  xmlns="&ns_sfw;">
		<slices></slices>
		<sliceSourceBounds  width="1126" height="2060.2" y="-1470.9" x="39.5" bottomLeftOrigin="true"></sliceSourceBounds>
	</sfw>
</metadata>
<rect x="349.5" y="-223.3" class="st0" width="641" height="546"/>
<rect x="644.8" y="1703.6" class="st1" width="116.3" height="116.3"/>
<rect x="744.2" y="1703.6" class="st2" width="116.3" height="116.3"/>
<rect x="536.2" y="1703.6" class="st3" width="116.3" height="116.3"/>
<rect x="843.7" y="1703.6" class="st4" width="116.3" height="116.3"/>
<rect x="943.1" y="1703.6" class="st5" width="116.3" height="116.3"/>
<rect x="1042.6" y="1703.6" class="st6" width="116.3" height="116.3"/>
<rect x="1160.4" y="1703.6" class="st7" width="116.3" height="116.3"/>
<rect x="1259.8" y="1703.6" class="st8" width="116.3" height="116.3"/>
<rect x="1359.2" y="1703.6" class="st9" width="116.3" height="116.3"/>
<g>
	<path class="st9" d="M555.5,225c0,11.8-9.5,21.3-21.3,21.3h-33.7c-11.8,0-21.3-9.5-21.3-21.3v-70.9c0-11.8,9.5-21.3,21.3-21.3h33.7
		c11.8,0,21.3,9.5,21.3,21.3V225z"/>
	<path class="st9" d="M795.8,225c0,11.8,9.5,21.3,21.3,21.3h33.7c11.8,0,21.3-9.5,21.3-21.3v-70.9c0-11.8-9.5-21.3-21.3-21.3h-33.7
		c-11.8,0-21.3,9.5-21.3,21.3V225L795.8,225z"/>
	<g>
		
			<rect x="855.8" y="-24.1" transform="matrix(0.7829 -0.6221 0.6221 0.7829 198.7548 537.48)" class="st10" width="27.5" height="16"/>
		<circle class="st5" cx="893.9" cy="-36.1" r="25.2"/>
	</g>
	<g>
		
			<rect x="468" y="-24.1" transform="matrix(-0.7829 -0.6221 0.6221 -0.7829 868.8846 271.0675)" class="st10" width="27.5" height="16"/>
		<circle class="st5" cx="457.4" cy="-36.1" r="25.2"/>
	</g>
	<path class="st10" d="M865.4,2.9c-2.8-37.1-12.4-101.8-39.1-133.3c-23.8-28.1-111.3-38-149.3-38s-127.7,9.9-151.5,38
		c-26.6,31.5-36.3,96.2-39.1,133.3c1.4-0.4,192.6,0,192.6,0S861.1,1.6,865.4,2.9z"/>
	<path class="st1" d="M515.9-4.9c0.4-6.7,6.4-81.5,32.2-111.9c17.8-21,90.4-30.2,127.9-30.2s110.2,9.2,127.9,30.2
		C829.7-86.5,835.7-11.8,836.1-5C839.7-4.4,510.7-4.1,515.9-4.9z"/>
	<path class="st10" d="M725-6.8c47.1,1.9,94.2,11.7,141.2,21.2c-0.1-1.8-0.4-6.5-0.9-13.5c-8.8-2.7-58.8-27.3-189.3-27.3
		S495.3-1.8,486.4,0.9c-0.6,7.5-0.8,12.5-0.9,13.9c-3.6,1.2-7.1,2.7-10.4,4.5C556.2-3.9,641.1-9.8,725-6.8z"/>
	<path class="st5" d="M909.3,72.5c-0.7-27-18.5-49.7-43-57.7c0-0.1,0-0.2,0-0.4C819.2,4.9,772.1-5,725.1-6.8
		c-83.9-3-168.8,2.9-249.8,26.1c-19,10.3-32,30.2-32.6,53.2v0.1v79.2l233.3,7l0,0h0.1h0.1l0,0l233.3-7L909.3,72.5L909.3,72.5z"/>
	<path class="st11" d="M920.3,140.8H676h-0.2H431.5c-6.6,0-12,5.4-12,12v25c0,6.6,5.4,12,12,12h244.3h0.2h244.3c6.6,0,12-5.4,12-12
		v-25C932.3,146,927,140.8,920.3,140.8z"/>
	<circle class="st12" cx="848.3" cy="71.5" r="34.2"/>
	<circle class="st12" cx="511.3" cy="71.5" r="34.2"/>
	<g>
		<path class="st9" d="M603.6,53.4h72.2h0.2h72.2c3.9,0,7-3.1,7-7s-3.1-7-7-7H676h-0.2h-72.2c-3.9,0-7,3.1-7,7
			S599.8,53.4,603.6,53.4z"/>
		<path class="st9" d="M748.3,63h-72.2h-0.2h-72.2c-3.9,0-7,3.1-7,7s3.1,7,7,7h72.2h0.2h72.2c3.9,0,7-3.1,7-7S752.1,63,748.3,63z"/>
		<path class="st9" d="M748.3,86.8h-72.2h-0.2h-72.2c-3.9,0-7,3.1-7,7s3.1,7,7,7h72.2h0.2h72.2c3.9,0,7-3.1,7-7
			S752.1,86.8,748.3,86.8z"/>
	</g>
	<path class="st6" d="M744.4,133.1h-68.3h-0.2h-68.3c-6.6,0-12,5.4-12,12V184c0,6.6,5.4,12,12,12h68.3h0.2h68.3c6.6,0,12-5.4,12-12
		v-38.9C756.4,138.5,751,133.1,744.4,133.1z"/>
	<g>
		<g>
			<g>
				<g>
					<defs>
						<path id="SVGID_1_" d="M513.8-4.9c0.4-6.7,6.4-81.5,32.2-111.9c17.8-21,90.4-30.2,127.9-30.2s110.2,9.2,127.9,30.2
							C827.6-86.5,833.6-11.8,834-5c1.7,0.3-37.3-21.3-162.9-21.3C545.4-26.3,511.1-4.4,513.8-4.9z"/>
					</defs>
					<clipPath id="SVGID_2_">
						<use xlink:href="#SVGID_1_"  style="overflow:visible;"/>
					</clipPath>
					<g class="st13">
						
							<rect x="589.7" y="-206.2" transform="matrix(-0.9384 0.3456 -0.3456 -0.9384 1167.64 -339.1685)" class="st14" width="48.7" height="281.5"/>
						
							<rect x="667.9" y="-240.5" transform="matrix(-0.9384 0.3456 -0.3456 -0.9384 1307.3424 -432.6775)" class="st14" width="48.7" height="281.5"/>
					</g>
				</g>
			</g>
		</g>
	</g>
</g>
</svg>
