<?xml version="1.0" encoding="utf-8"?>
<!-- Generator: Adobe Illustrator 19.0.0, SVG Export Plug-In . SVG Version: 6.00 Build 0)  -->
<svg version="1.1" id="Layer_1" xmlns:x="&ns_extend;" xmlns:i="&ns_ai;" xmlns:graph="&ns_graphs;"
	 xmlns="http://www.w3.org/2000/svg" xmlns:xlink="http://www.w3.org/1999/xlink" x="0px" y="0px" width="720px" height="598.5px"
	 viewBox="310 -249.5 720 598.5" style="enable-background:new 310 -249.5 720 598.5;" xml:space="preserve">
<style type="text/css">
	.st0{fill:#01B5A1;}
	.st1{fill:#EE3B3F;}
	.st2{fill:#BE202A;}
	.st3{fill:#6D5738;}
	.st4{fill:#FCB919;}
	.st5{fill:#F7E0B7;}
	.st6{fill:#58452D;}
	.st7{fill:#128977;}
	.st8{fill:#213228;}
	.st9{fill:#D6D6D6;}
	.st10{fill:#FFFFFF;}
	.st11{display:none;fill:#020202;}
	.st12{clip-path:url(#SVGID_2_);}
	.st13{opacity:0.15;fill:#C6EA6E;enable-background:new    ;}
	.st14{display:none;fill:#D6D6D6;}
	.st15{display:none;fill:#FFFFFF;}
	.st16{fill:#7FBB00;}
	.st17{fill:#7FBB00;stroke:#000000;stroke-width:5;stroke-miterlimit:10;}
</style>
<metadata>
	<sfw  xmlns="&ns_sfw;">
		<slices></slices>
		<sliceSourceBounds  width="1261.5" height="2068.4" y="-1470.9" x="-96" bottomLeftOrigin="true"></sliceSourceBounds>
	</sfw>
</metadata>
<rect x="644.8" y="1703.6" class="st0" width="116.3" height="116.3"/>
<rect x="744.2" y="1703.6" class="st1" width="116.3" height="116.3"/>
<rect x="536.2" y="1703.6" class="st2" width="116.3" height="116.3"/>
<rect x="843.7" y="1703.6" class="st3" width="116.3" height="116.3"/>
<rect x="943.1" y="1703.6" class="st4" width="116.3" height="116.3"/>
<rect x="1042.6" y="1703.6" class="st5" width="116.3" height="116.3"/>
<rect x="1160.4" y="1703.6" class="st6" width="116.3" height="116.3"/>
<rect x="1259.8" y="1703.6" class="st7" width="116.3" height="116.3"/>
<rect x="1359.2" y="1703.6" class="st8" width="116.3" height="116.3"/>
<rect x="214" y="-67.2" class="st9" width="71" height="59.5"/>
<rect x="214" y="-148.4" class="st10" width="71" height="59.5"/>
<rect x="214" y="22.3" class="st4" width="71" height="59.5"/>
<rect x="310.7" y="-248.5" class="st11" width="720" height="598.5"/>
<g>
	<defs>
		<path id="SVGID_1_" d="M497.5,531.6c0.4-6.1,6.4-74.4,32.2-102.2c17.8-19.2,90.4-27.6,127.9-27.6s110.2,8.4,127.9,27.6
			c25.8,27.8,31.8,96,32.2,102.2c1.7,0.3-37.3-19.5-162.9-19.5C529.1,512.1,494.8,532.1,497.5,531.6z"/>
	</defs>
	<clipPath id="SVGID_2_">
		<use xlink:href="#SVGID_1_"  style="overflow:visible;"/>
	</clipPath>
	<g class="st12">
		<polygon class="st13" points="760.4,390.9 721.5,380.3 638.6,546.4 677.6,557 		"/>
		<polygon class="st13" points="676.4,364.4 637.5,353.8 554.6,519.9 593.5,530.5 		"/>
	</g>
</g>
<rect x="850.6" y="-10.9" transform="matrix(0.7829 -0.6221 0.6221 0.7829 189.4326 537.1301)" class="st14" width="27.5" height="16"/>
<circle class="st15" cx="880.7" cy="-3" r="25.2"/>
<rect x="462.8" y="-10.9" transform="matrix(-0.7829 -0.6221 0.6221 -0.7829 851.4788 291.3606)" class="st14" width="27.5" height="16"/>
<circle class="st15" cx="461.2" cy="-6" r="25.2"/>
<g>
	<path class="st8" d="M543.6,231.9c0,9.7-7.8,17.6-17.6,17.6h-27.8c-9.7,0-17.6-7.8-17.6-17.6v-58.4c0-9.7,7.8-17.6,17.6-17.6h27.8
		c9.7,0,17.6,7.8,17.6,17.6V231.9z"/>
	<path class="st8" d="M797.3,231.9c0,9.7,7.8,17.6,17.6,17.6h27.8c9.7,0,17.6-7.8,17.6-17.6v-58.4c0-9.7-7.8-17.6-17.6-17.6h-27.8
		c-9.7,0-17.6,7.8-17.6,17.6V231.9L797.3,231.9z"/>
	<path class="st9" d="M860.2,16.1c-2.8-35.5-12.4-97.5-39.1-127.7C795.6-148,709.8-148,671.8-148s-130.2,0-151.5,36.4
		C493.7-81.4,484-19.4,481.2,16.1c1.4-0.4,192.6,0,192.6,0S855.9,14.9,860.2,16.1z"/>
	<path class="st16" d="M510.7,8.3c0.4-6.2,6.4-75.1,32.2-103.2c17.8-19.4,90.4-27.8,127.9-27.8s110.2,8.5,127.9,27.8
		c25.8,28,31.8,96.9,32.2,103.2C834.5,8.8,505.5,9.1,510.7,8.3z"/>
	<path class="st9" d="M719.8,6.4C766.9,8.3,814,18.1,861,27.6c-0.1-1.8-0.4-6.5-0.9-13.5c-8.8-2.7-58.8-27.3-189.3-27.3
		S490.1,11.4,481.2,14.1c-0.6,7.5-0.8,12.5-0.9,13.9c-3.6,1.2-7.1,2.7-10.4,4.5C551,9.2,635.9,3.4,719.8,6.4z"/>
	<path class="st10" d="M904.1,85.6c5.5-39.6-18.5-49.7-43-57.7c0-0.1,0-0.2,0-0.4C814,18,766.9,8.1,719.9,6.3
		c-83.9-3-168.8,2.9-249.8,26.1c-19,10.3-37.5,18-32.6,53.2v0.1v79.2l233.3,7l0,0h0.1h0.1l0,0l233.3-7L904.1,85.6L904.1,85.6z"/>
	<path class="st9" d="M900.5,154.8H670.1h-0.2H439.5c-6.2,0-11.3,5.6-11.3,12.4v25.9c0,6.8,5.1,12.4,11.3,12.4h230.4h0.2h230.4
		c6.2,0,11.3-5.6,11.3-12.4v-25.9C911.9,160.3,906.9,154.8,900.5,154.8z"/>
	<path class="st8" d="M677,49.7l-0.3,35l0,0.1l-0.3,35c0,1.9,2.4,3.4,5.5,3.4c3.1,0,5.6-1.4,5.6-3.3l0.3-35l0-0.1l0.3-35
		c0-1.9-2.4-3.4-5.5-3.4C679.5,46.3,677,47.9,677,49.7z"/>
	<path class="st8" d="M668.7,119.7l0.3-35l0-0.1l0.3-35c0-1.9-2.4-3.4-5.5-3.4c-3.1,0-5.6,1.4-5.6,3.3l-0.3,35l0,0.1l-0.3,35
		c0,1.9,2.4,3.4,5.5,3.4C666.2,123.1,668.6,121.6,668.7,119.7z"/>
	<path class="st8" d="M649.8,119.6l0.3-35l0-0.1l0.3-35c0-1.9-2.4-3.4-5.5-3.4c-3.1,0-5.6,1.4-5.6,3.3l-0.3,35l0,0.1l-0.3,35
		c0,1.9,2.4,3.4,5.5,3.4C647.3,122.9,649.8,121.4,649.8,119.6z"/>
	<path class="st8" d="M696.4,49.7l-0.3,35l0,0.1l-0.3,35c0,1.9,2.4,3.4,5.5,3.4c3.1,0,5.6-1.4,5.6-3.3l0.3-35l0-0.1l0.3-35
		c0-1.9-2.4-3.4-5.5-3.4C698.9,46.3,696.4,47.9,696.4,49.7z"/>
	<circle class="st17" cx="506.1" cy="84.5" r="34.2"/>
	<circle class="st17" cx="843.1" cy="84.5" r="34.2"/>
</g>
</svg>
