<?xml version="1.0" encoding="utf-8"?>
<!-- Generator: Adobe Illustrator 19.0.0, SVG Export Plug-In . SVG Version: 6.00 Build 0)  -->
<svg version="1.1" id="Layer_1" 
	 xmlns="http://www.w3.org/2000/svg" xmlns:xlink="http://www.w3.org/1999/xlink" x="0px" y="0px" width="720px" height="598.5px"
	 viewBox="80 -19.5 720 598.5" style="enable-background:new 80 -19.5 720 598.5;" xml:space="preserve">
<style type="text/css">
	.st0{display:none;fill:#020202;}
	.st1{fill:#01B5A1;}
	.st2{fill:#EE3B3F;}
	.st3{fill:#BE202A;}
	.st4{fill:#6D5738;}
	.st5{fill:#FCB919;}
	.st6{fill:#F7E0B7;}
	.st7{fill:#58452D;}
	.st8{fill:#128977;}
	.st9{fill:#213228;}
	.st10{fill:#E2A717;}
	.st11{fill:#E4D0AB;}
	.st12{fill:#01B5A1;stroke:#213228;stroke-width:10;stroke-miterlimit:10;}
	.st13{clip-path:url(#SVGID_2_);}
	.st14{opacity:0.15;fill:#FFFFFF;enable-background:new    ;}
</style>

<rect x="118" y="10.5" class="st0" width="641" height="546"/>
<rect x="334.8" y="1953.1" class="st1" width="116.3" height="116.3"/>
<rect x="434.2" y="1953.1" class="st2" width="116.3" height="116.3"/>
<rect x="226.2" y="1953.1" class="st3" width="116.3" height="116.3"/>
<rect x="533.7" y="1953.1" class="st4" width="116.3" height="116.3"/>
<rect x="633.1" y="1953.1" class="st5" width="116.3" height="116.3"/>
<rect x="732.6" y="1953.1" class="st6" width="116.3" height="116.3"/>
<rect x="850.4" y="1953.1" class="st7" width="116.3" height="116.3"/>
<rect x="949.8" y="1953.1" class="st8" width="116.3" height="116.3"/>
<rect x="1049.2" y="1953.1" class="st9" width="116.3" height="116.3"/>
<g>
	<path class="st9" d="M324,458.7c0,11.8-9.5,21.3-21.3,21.3H269c-11.8,0-21.3-9.5-21.3-21.3v-70.9c0-11.8,9.5-21.3,21.3-21.3h33.7
		c11.8,0,21.3,9.5,21.3,21.3V458.7z"/>
	<path class="st9" d="M564.3,458.7c0,11.8,9.5,21.3,21.3,21.3h33.7c11.8,0,21.3-9.5,21.3-21.3v-70.9c0-11.8-9.5-21.3-21.3-21.3
		h-33.7c-11.8,0-21.3,9.5-21.3,21.3V458.7L564.3,458.7z"/>
	<g>
		
			<rect x="624.3" y="209.7" transform="matrix(-0.7829 0.6221 -0.6221 -0.7829 1273.0172 -8.8083)" class="st10" width="27.5" height="16"/>
		<circle class="st5" cx="662.4" cy="197.6" r="25.2"/>
	</g>
	<g>
		
			<rect x="236.5" y="209.7" transform="matrix(0.7829 0.6221 -0.6221 0.7829 189.7448 -108.4248)" class="st10" width="27.5" height="16"/>
		<circle class="st5" cx="225.9" cy="197.6" r="25.2"/>
	</g>
	<path class="st10" d="M633.9,236.7c-2.8-37.1-12.4-101.8-39.1-133.3c-23.8-28.1-111.3-38-149.3-38s-127.7,9.9-151.5,38
		c-26.6,31.5-36.3,96.2-39.1,133.3c1.4-0.4,192.6,0,192.6,0S629.6,235.4,633.9,236.7z"/>
	<path class="st1" d="M284.4,228.8c0.4-6.7,6.4-81.5,32.2-111.9c17.8-21,90.4-30.2,127.9-30.2s110.2,9.2,127.9,30.2
		c25.8,30.4,31.8,105.1,32.2,111.9C608.2,229.4,279.2,229.7,284.4,228.8z"/>
	<path class="st10" d="M493.5,227c47.1,1.9,94.2,11.7,141.2,21.2c-0.1-1.8-0.4-6.5-0.9-13.5c-8.8-2.7-58.8-27.3-189.3-27.3
		S263.8,232,254.9,234.7c-0.6,7.5-0.8,12.5-0.9,13.9c-3.6,1.2-7.1,2.7-10.4,4.5C324.7,229.8,409.6,224,493.5,227z"/>
	<path class="st5" d="M677.8,306.2c-0.7-27-18.5-49.7-43-57.7c0-0.1,0-0.2,0-0.4c-47.1-9.5-94.2-19.4-141.2-21.2
		c-83.9-3-168.8,2.9-249.8,26.1c-19,10.3-32,30.2-32.6,53.2v0.1v79.2l233.3,7l0,0h0.1h0.1l0,0l233.3-7L677.8,306.2L677.8,306.2z"/>
	<path class="st11" d="M688.8,374.5H444.5h-0.2H200c-6.6,0-12,5.4-12,12v25c0,6.6,5.4,12,12,12h244.3h0.2h244.3c6.6,0,12-5.4,12-12
		v-25C700.8,379.8,695.5,374.5,688.8,374.5z"/>
	<circle class="st12" cx="616.8" cy="305.2" r="34.2"/>
	<circle class="st12" cx="279.8" cy="305.2" r="34.2"/>
	<g>
		<path class="st9" d="M372.1,287.1h72.2h0.2h72.2c3.9,0,7-3.1,7-7c0-3.9-3.1-7-7-7h-72.2h-0.2h-72.2c-3.9,0-7,3.1-7,7
			C365.1,284,368.3,287.1,372.1,287.1z"/>
		<path class="st9" d="M516.8,296.8h-72.2h-0.2h-72.2c-3.9,0-7,3.1-7,7c0,3.9,3.1,7,7,7h72.2h0.2h72.2c3.9,0,7-3.1,7-7
			C523.8,299.9,520.6,296.8,516.8,296.8z"/>
		<path class="st9" d="M516.8,320.5h-72.2h-0.2h-72.2c-3.9,0-7,3.1-7,7c0,3.9,3.1,7,7,7h72.2h0.2h72.2c3.9,0,7-3.1,7-7
			C523.8,323.6,520.6,320.5,516.8,320.5z"/>
	</g>
	<path class="st6" d="M512.9,366.9h-68.3h-0.2h-68.3c-6.6,0-12,5.4-12,12v38.9c0,6.6,5.4,12,12,12h68.3h0.2h68.3c6.6,0,12-5.4,12-12
		v-38.9C524.9,372.3,519.5,366.9,512.9,366.9z"/>
	<g>
		<g>
			<g>
				<defs>
					<path id="SVGID_1_" d="M282.3,228.8c0.4-6.7,6.4-81.5,32.2-111.9c17.8-21,90.4-30.2,127.9-30.2s110.2,9.2,127.9,30.2
						c25.8,30.4,31.8,105.1,32.2,111.9c1.7,0.3-37.3-21.3-162.9-21.3C313.9,207.5,279.6,229.3,282.3,228.8z"/>
				</defs>
				<clipPath id="SVGID_2_">
					<use xlink:href="#SVGID_1_"  style="overflow:visible;"/>
				</clipPath>
				<g class="st13">
					
						<rect x="358.2" y="27.5" transform="matrix(0.9384 -0.3456 0.3456 0.9384 -34.577 142.5784)" class="st14" width="48.7" height="281.5"/>
					
						<rect x="436.4" y="-6.8" transform="matrix(0.9384 -0.3456 0.3456 0.9384 -17.9187 167.4907)" class="st14" width="48.7" height="281.5"/>
				</g>
			</g>
		</g>
	</g>
</g>
</svg>
