<?xml version="1.0" encoding="utf-8"?>
<!-- Generator: Adobe Illustrator 19.0.0, SVG Export Plug-In . SVG Version: 6.00 Build 0)  -->
<svg version="1.1" 
	 xmlns="http://www.w3.org/2000/svg" xmlns:xlink="http://www.w3.org/1999/xlink" x="0px" y="0px" width="720px" height="598.5px"
	 viewBox="0 0 720 598.5" style="enable-background:new 0 0 720 598.5;" xml:space="preserve">
<style type="text/css">
	.st0{fill:#01B5A1;}
	.st1{fill:#EE3B3F;}
	.st2{fill:#BE202A;}
	.st3{fill:#6D5738;}
	.st4{fill:#FCB919;}
	.st5{fill:#F7E0B7;}
	.st6{fill:#58452D;}
	.st7{fill:#128977;}
	.st8{fill:#213228;}
	.st9{opacity:0.2;fill:#213228;}
	.st10{fill:#E2A717;}
	.st11{fill:#E4D0AB;}
	.st12{fill:#01B5A1;stroke:#213228;stroke-width:10;stroke-miterlimit:10;}
	.st13{clip-path:url(#SVGID_2_);}
	.st14{opacity:0.15;fill:#FFFFFF;}
</style>

<g id="background">
</g>
<g id="object">
	<rect x="144.8" y="2022.1" class="st0" width="116.3" height="116.3"/>
	<rect x="244.2" y="2022.1" class="st1" width="116.3" height="116.3"/>
	<rect x="36.2" y="2022.1" class="st2" width="116.3" height="116.3"/>
	<rect x="343.7" y="2022.1" class="st3" width="116.3" height="116.3"/>
	<rect x="443.1" y="2022.1" class="st4" width="116.3" height="116.3"/>
	<rect x="542.6" y="2022.1" class="st5" width="116.3" height="116.3"/>
	<rect x="660.4" y="2022.1" class="st6" width="116.3" height="116.3"/>
	<rect x="759.8" y="2022.1" class="st7" width="116.3" height="116.3"/>
	<rect x="859.2" y="2022.1" class="st8" width="116.3" height="116.3"/>
	<g>
		<ellipse class="st9" cx="359.2" cy="521.8" rx="293.3" ry="36"/>
		<path class="st8" d="M238.8,505.9c0,11.8-9.5,21.3-21.3,21.3h-33.7c-11.8,0-21.3-9.5-21.3-21.3V435c0-11.8,9.5-21.3,21.3-21.3
			h33.7c11.8,0,21.3,9.5,21.3,21.3V505.9z"/>
		<path class="st8" d="M479.1,505.9c0,11.8,9.5,21.3,21.3,21.3h33.7c11.8,0,21.3-9.5,21.3-21.3V435c0-11.8-9.5-21.3-21.3-21.3h-33.7
			c-11.8,0-21.3,9.5-21.3,21.3V505.9z"/>
		<g>
			
				<rect x="539.1" y="256.9" transform="matrix(-0.7829 0.6221 -0.6221 -0.7829 1150.4587 128.3345)" class="st10" width="27.5" height="16"/>
			<circle class="st4" cx="577.2" cy="244.8" r="25.2"/>
		</g>
		<g>
			
				<rect x="151.3" y="256.9" transform="matrix(0.7829 0.6221 -0.6221 0.7829 200.6151 -45.1798)" class="st10" width="27.5" height="16"/>
			<circle class="st4" cx="140.7" cy="244.8" r="25.2"/>
		</g>
		<path class="st10" d="M548.7,283.9c-2.8-37.1-12.4-101.8-39.1-133.3c-23.8-28.1-111.3-38-149.3-38c-38,0-127.7,9.9-151.5,38
			c-26.6,31.5-36.3,96.2-39.1,133.3c1.4-0.4,192.6,0,192.6,0S544.4,282.6,548.7,283.9z"/>
		<path class="st0" d="M199.2,276c0.4-6.7,6.4-81.5,32.2-111.9c17.8-21,90.4-30.2,127.9-30.2c37.5,0,110.2,9.2,127.9,30.2
			c25.8,30.4,31.8,105.1,32.2,111.9C523,276.6,194,276.9,199.2,276z"/>
		<path class="st10" d="M408.3,274.2c47.1,1.9,94.2,11.7,141.2,21.2c-0.1-1.8-0.4-6.5-0.9-13.5c-8.8-2.7-58.8-27.3-189.3-27.3
			s-180.7,24.6-189.6,27.3c-0.6,7.5-0.8,12.5-0.9,13.9c-3.6,1.2-7.1,2.7-10.4,4.5C239.5,277,324.4,271.2,408.3,274.2z"/>
		<path class="st4" d="M592.6,353.4c-0.7-27-18.5-49.7-43-57.7c0-0.1,0-0.2,0-0.4c-47.1-9.5-94.2-19.4-141.2-21.2
			c-83.9-3-168.8,2.9-249.8,26.1c-19,10.3-32,30.2-32.6,53.2l0,0.1v79.2l233.3,7v0l0.1,0l0.1,0v0l233.3-7L592.6,353.4L592.6,353.4z"
			/>
		<path class="st11" d="M603.6,421.7H359.3h-0.2H114.8c-6.6,0-12,5.4-12,12v25c0,6.6,5.4,12,12,12h244.3h0.2h244.3
			c6.6,0,12-5.4,12-12v-25C615.6,427,610.3,421.7,603.6,421.7z"/>
		<circle class="st12" cx="531.6" cy="352.4" r="34.2"/>
		<circle class="st12" cx="194.6" cy="352.4" r="34.2"/>
		<g>
			<path class="st8" d="M286.9,334.3h72.2h0.2h72.2c3.9,0,7-3.1,7-7c0-3.9-3.1-7-7-7h-72.2h-0.2h-72.2c-3.9,0-7,3.1-7,7
				C279.9,331.2,283.1,334.3,286.9,334.3z"/>
			<path class="st8" d="M431.6,344h-72.2h-0.2h-72.2c-3.9,0-7,3.1-7,7c0,3.9,3.1,7,7,7h72.2h0.2h72.2c3.9,0,7-3.1,7-7
				C438.6,347.1,435.4,344,431.6,344z"/>
			<path class="st8" d="M431.6,367.7h-72.2h-0.2h-72.2c-3.9,0-7,3.1-7,7c0,3.9,3.1,7,7,7h72.2h0.2h72.2c3.9,0,7-3.1,7-7
				C438.6,370.8,435.4,367.7,431.6,367.7z"/>
		</g>
		<path class="st5" d="M427.7,414.1h-68.3h-0.2h-68.3c-6.6,0-12,5.4-12,12V465c0,6.6,5.4,12,12,12h68.3h0.2h68.3c6.6,0,12-5.4,12-12
			v-38.9C439.7,419.5,434.3,414.1,427.7,414.1z"/>
		<g>
			<defs>
				<path id="SVGID_1_" d="M197.1,276c0.4-6.7,6.4-81.5,32.2-111.9c17.8-21,90.4-30.2,127.9-30.2c37.5,0,110.2,9.2,127.9,30.2
					c25.8,30.4,31.8,105.1,32.2,111.9c1.7,0.3-37.3-21.3-162.9-21.3C228.7,254.7,194.4,276.5,197.1,276z"/>
			</defs>
			<clipPath id="SVGID_2_">
				<use xlink:href="#SVGID_1_"  style="overflow:visible;"/>
			</clipPath>
			<g class="st13">
				
					<rect x="273" y="74.7" transform="matrix(0.9384 -0.3456 0.3456 0.9384 -56.1339 116.0416)" class="st14" width="48.7" height="281.5"/>
				
					<rect x="351.2" y="40.4" transform="matrix(0.9384 -0.3456 0.3456 0.9384 -39.4687 140.9732)" class="st14" width="48.7" height="281.5"/>
			</g>
		</g>
	</g>
</g>
</svg>
