<?xml version="1.0" encoding="utf-8"?>
<!-- Generator: Adobe Illustrator 19.0.0, SVG Export Plug-In . SVG Version: 6.00 Build 0)  -->
<svg version="1.1" 
	 xmlns="http://www.w3.org/2000/svg" xmlns:xlink="http://www.w3.org/1999/xlink" x="0px" y="0px" width="586.6px" height="517.1px"
	 viewBox="0 0 586.6 517.1" style="enable-background:new 0 0 586.6 517.1;" xml:space="preserve">
<style type="text/css">
	.st0{fill:#01B5A1;}
	.st1{fill:#EE3B3F;}
	.st2{fill:#BE202A;}
	.st3{fill:#6D5738;}
	.st4{fill:#FCB919;}
	.st5{fill:#F7E0B7;}
	.st6{fill:#58452D;}
	.st7{fill:#128977;}
	.st8{fill:#213228;}
	.st9{opacity:0.2;fill:#213228;}
	.st10{fill:#E2A717;}
	.st11{fill:#E4D0AB;}
	.st12{fill:#01B5A1;stroke:#213228;stroke-width:10;stroke-miterlimit:10;}
	.st13{clip-path:url(#SVGID_2_);}
	.st14{opacity:0.15;fill:#FFFFFF;}
</style>

<g id="background">
</g>
<g id="object">
	<rect x="78.9" y="1981.4" class="st0" width="116.3" height="116.3"/>
	<rect x="178.3" y="1981.4" class="st1" width="116.3" height="116.3"/>
	<rect x="-29.7" y="1981.4" class="st2" width="116.3" height="116.3"/>
	<rect x="277.7" y="1981.4" class="st3" width="116.3" height="116.3"/>
	<rect x="377.2" y="1981.4" class="st4" width="116.3" height="116.3"/>
	<rect x="476.6" y="1981.4" class="st5" width="116.3" height="116.3"/>
	<rect x="594.4" y="1981.4" class="st6" width="116.3" height="116.3"/>
	<rect x="693.9" y="1981.4" class="st7" width="116.3" height="116.3"/>
	<rect x="793.3" y="1981.4" class="st8" width="116.3" height="116.3"/>
	<ellipse class="st9" cx="293.3" cy="481.1" rx="293.3" ry="36"/>
	<path class="st8" d="M172.9,465.2c0,11.8-9.5,21.3-21.3,21.3h-33.7c-11.8,0-21.3-9.5-21.3-21.3v-70.9c0-11.8,9.5-21.3,21.3-21.3
		h33.7c11.8,0,21.3,9.5,21.3,21.3V465.2z"/>
	<path class="st8" d="M413.1,465.2c0,11.8,9.5,21.3,21.3,21.3h33.7c11.8,0,21.3-9.5,21.3-21.3v-70.9c0-11.8-9.5-21.3-21.3-21.3
		h-33.7c-11.8,0-21.3,9.5-21.3,21.3V465.2z"/>
	<g>
		
			<rect x="473.2" y="216.2" transform="matrix(-0.7829 0.6221 -0.6221 -0.7829 1007.5773 96.8509)" class="st10" width="27.5" height="16"/>
		<circle class="st4" cx="511.2" cy="204.1" r="25.2"/>
	</g>
	<g>
		
			<rect x="85.4" y="216.2" transform="matrix(0.7829 0.6221 -0.6221 0.7829 160.9982 -12.9808)" class="st10" width="27.5" height="16"/>
		<circle class="st4" cx="74.8" cy="204.1" r="25.2"/>
	</g>
	<path class="st10" d="M482.7,243.3c-2.8-37.1-12.4-101.8-39.1-133.3c-23.8-28.1-111.3-38-149.3-38c-38,0-127.7,9.9-151.5,38
		c-26.6,31.5-36.3,96.2-39.1,133.3c1.4-0.4,192.6,0,192.6,0S478.4,241.9,482.7,243.3z"/>
	<path class="st0" d="M133.2,235.3c0.4-6.7,6.4-81.5,32.2-111.9c17.8-21,90.4-30.2,127.9-30.2c37.5,0,110.2,9.2,127.9,30.2
		c25.8,30.4,31.8,105.1,32.2,111.9C457,236,128,236.3,133.2,235.3z"/>
	<path class="st10" d="M342.4,233.5c47.1,1.9,94.2,11.7,141.2,21.2c-0.1-1.8-0.4-6.5-0.9-13.5c-8.8-2.7-58.8-27.3-189.3-27.3
		s-180.7,24.6-189.6,27.3c-0.6,7.5-0.8,12.5-0.9,13.9c-3.6,1.2-7.1,2.7-10.4,4.5C173.6,236.4,258.5,230.5,342.4,233.5z"/>
	<path class="st4" d="M526.6,312.8c-0.7-27-18.5-49.7-43-57.7c0-0.1,0-0.2,0-0.4c-47.1-9.5-94.2-19.4-141.2-21.2
		c-83.9-3-168.8,2.9-249.8,26.1c-19,10.3-32,30.2-32.6,53.2l0,0.1V392l233.3,7v0l0.1,0l0.1,0v0l233.3-7L526.6,312.8L526.6,312.8z"/>
	<path class="st11" d="M537.7,381H293.4h-0.2H48.9c-6.6,0-12,5.4-12,12v25c0,6.6,5.4,12,12,12h244.3h0.2h244.3c6.6,0,12-5.4,12-12
		v-25C549.7,386.4,544.3,381,537.7,381z"/>
	<circle class="st12" cx="465.7" cy="311.8" r="34.2"/>
	<circle class="st12" cx="128.6" cy="311.8" r="34.2"/>
	<g>
		<path class="st8" d="M221,293.7h72.2h0.2h72.2c3.9,0,7-3.1,7-7c0-3.9-3.1-7-7-7h-72.2h-0.2H221c-3.9,0-7,3.1-7,7
			C214,290.5,217.1,293.7,221,293.7z"/>
		<path class="st8" d="M365.6,303.3h-72.2h-0.2H221c-3.9,0-7,3.1-7,7c0,3.9,3.1,7,7,7h72.2h0.2h72.2c3.9,0,7-3.1,7-7
			C372.6,306.5,369.5,303.3,365.6,303.3z"/>
		<path class="st8" d="M365.6,327h-72.2h-0.2H221c-3.9,0-7,3.1-7,7c0,3.9,3.1,7,7,7h72.2h0.2h72.2c3.9,0,7-3.1,7-7
			C372.6,330.1,369.5,327,365.6,327z"/>
	</g>
	<path class="st5" d="M361.7,373.4h-68.3h-0.2h-68.3c-6.6,0-12,5.4-12,12v38.9c0,6.6,5.4,12,12,12h68.3h0.2h68.3c6.6,0,12-5.4,12-12
		v-38.9C373.7,378.8,368.4,373.4,361.7,373.4z"/>
	<g>
		<defs>
			<path id="SVGID_1_" d="M131.2,235.3c0.4-6.7,6.4-81.5,32.2-111.9c17.8-21,90.4-30.2,127.9-30.2c37.5,0,110.2,9.2,127.9,30.2
				c25.8,30.4,31.8,105.1,32.2,111.9c1.7,0.3-37.3-21.3-162.9-21.3C162.8,214,128.5,235.8,131.2,235.3z"/>
		</defs>
		<clipPath id="SVGID_2_">
			<use xlink:href="#SVGID_1_"  style="overflow:visible;"/>
		</clipPath>
		<g class="st13">
			
				<rect x="207.1" y="34" transform="matrix(0.9384 -0.3456 0.3456 0.9384 -46.142 90.7436)" class="st14" width="48.7" height="281.5"/>
			
				<rect x="285.3" y="-0.3" transform="matrix(0.9384 -0.3456 0.3456 0.9384 -29.4765 115.6735)" class="st14" width="48.7" height="281.5"/>
		</g>
	</g>
</g>
</svg>
