<?xml version="1.0" encoding="utf-8"?>
<!-- Generator: Adobe Illustrator 19.0.0, SVG Export Plug-In . SVG Version: 6.00 Build 0)  -->
<svg version="1.1" id="Layer_1" 
	 xmlns="http://www.w3.org/2000/svg" xmlns:xlink="http://www.w3.org/1999/xlink" x="0px" y="0px" width="608px" height="230px"
	 viewBox="-272 143 608 230" style="enable-background:new -272 143 608 230;" xml:space="preserve">
<style type="text/css">
	.st0{fill:#B52E31;}
	.st1{fill:#E23237;}
	.st2{fill:#FFFFFF;}
</style>
<g>
	<g>
		<g transform="translate(150.000000, 31.000000)">
			<path class="st0" d="M-199.9,262.4v-63h8.1l38.5,50.7v-50.7h7.7v63h-8.1l-38.5-51.2v51.2H-199.9L-199.9,262.4z"/>
			<path class="st0" d="M-82.9,259.9c-5.1,1.9-10.6,2.9-16.4,2.9c-22.8,0-34.2-10.9-34.2-32.8c0-20.7,11-31.1,33-31.1
				c6.3,0,12.2,0.9,17.6,2.6v7c-5.4-2.1-11-3.1-16.7-3.1c-17.2,0-25.8,8.2-25.8,24.4c0,17.5,8.5,26.2,25.4,26.2c2.7,0,5.7-0.4,9-1.1
				v-21.1h8.1V259.9L-82.9,259.9z"/>
			<path class="st0" d="M-69.9,238v-38.7h8.1V238c0,12.1,6,18.2,18.1,18.2c12,0,18.1-6.1,18.1-18.2v-38.7h8.1V238
				c0,16.5-8.7,24.8-26.2,24.8S-69.9,254.5-69.9,238L-69.9,238L-69.9,238z"/>
			<path class="st0" d="M5.1,199.3v56.4h33v6.6H-3v-63H5.1L5.1,199.3z"/>
			<path class="st0" d="M49.8,262.4h-8.5L72.6,191l31.3,71.3h-9l-8.1-19.8H66l2.2-6.6h15.9l-11.8-28.5L49.8,262.4L49.8,262.4z"/>
			<path class="st0" d="M112.6,262.4v-63h26.9c12,0,18,5,18,15.1c0,8.2-5.9,14.3-17.6,18.2l21.6,29.7h-10.7l-20-28.3v-5.3
				c12-1.9,18.1-6.5,18.1-13.9c0-5.8-3.3-8.7-10-8.7h-18v56.2H112.6L112.6,262.4z"/>
		</g>
		<g>
			<path class="st1" d="M-200.5,213.5l64.5-23l66.2,22.6l-10.7,85.3l-55.5,30.7l-54.6-30.3L-200.5,213.5L-200.5,213.5z"/>
			<path class="st0" d="M-69.8,213.1l-66.2-22.6v138.6l55.5-30.7L-69.8,213.1L-69.8,213.1z"/>
			<path class="st2" d="M-135.9,206.8L-135.9,206.8l-40.2,89.4l15-0.3l8.1-20.2h17.1h18.8l8.8,20.4l14.3,0.3L-135.9,206.8
				L-135.9,206.8z M-135.8,235.4l13.6,28.4h-13h-0.7h-11.8L-135.8,235.4L-135.8,235.4z"/>
		</g>
	</g>
</g>
</svg>
