<?xml version="1.0" encoding="utf-8"?>
<!-- Generator: Adobe Illustrator 19.0.0, SVG Export Plug-In . SVG Version: 6.00 Build 0)  -->
<svg version="1.1" 
	 xmlns="http://www.w3.org/2000/svg" xmlns:xlink="http://www.w3.org/1999/xlink" x="0px" y="0px" width="1238.9px"
	 height="530.5px" viewBox="0 0 1238.9 530.5" style="enable-background:new 0 0 1238.9 530.5;" xml:space="preserve">
<style type="text/css">
	.st0{fill:#5FB0FF;}
	.st1{opacity:0.4;fill:#B8BABC;}
	.st2{fill:#AB0634;}
	.st3{opacity:0.4;fill:#2D2D2D;}
	.st4{fill:#414042;}
	.st5{fill:#303233;}
	.st6{opacity:0.4;fill:#414042;}
	.st7{fill:#F16D9A;}
	.st8{opacity:0.4;fill:#F16D9A;}
	.st9{opacity:0.4;fill:#EE2B74;}
	.st10{fill:#820024;}
	.st11{fill:#CF5667;}
	.st12{fill:#FFFFFF;}
	.st13{fill:#E2E3E4;}
	.st14{fill:#231F20;}
	.st15{fill:#DF7A1C;}
	.st16{opacity:0.4;}
	.st17{fill:#A7600C;}
	.st18{fill:#2D2D2D;}
	.st19{fill:#FDBB30;}
	.st20{opacity:0.4;fill:#FDBB30;}
	.st21{fill:#E58E1A;}
	.st22{fill:#716FB3;}
	.st23{fill:#CA3092;}
	.st24{fill:#56004E;}
	.st25{fill:#711471;}
	.st26{opacity:0.4;fill:#716FB3;}
	.st27{fill:#B2740E;}
	.st28{opacity:0.4;fill:#B2740E;}
	.st29{fill:#00A94F;}
	.st30{opacity:0.4;fill:#00A94F;}
	.st31{fill:#7AC143;}
	.st32{opacity:0.4;fill:#7AC143;}
	.st33{fill:#006325;}
	.st34{fill:#C1D82F;}
	.st35{fill:#580000;}
	.st36{fill:#ED1849;}
	.st37{fill:#00853F;}
	.st38{fill:#0096D6;}
	.st39{opacity:0.4;fill:#0096D6;}
	.st40{fill:#8CD2F4;}
	.st41{opacity:0.4;fill:#8CD2F4;}
	.st42{fill:#D11242;}
	.st43{fill:#005DAA;}
	.st44{fill:#6CADDF;}
	.st45{fill:#5A4099;}
	.st46{opacity:0.4;fill:#8177B7;}
	.st47{fill:#7A68AE;}
	.st48{opacity:0.5;fill:#5A4099;}
	.st49{fill:#8177B7;}
</style>
<g id="Background">
	<rect class="st0" width="1238.9" height="532.7"/>
</g>
<g id="Designed_by_Freepik">
</g>
<g id="Objects">
	<g>
		<g>
		</g>
	</g>
	<g>
		
			<ellipse transform="matrix(0.999 4.530164e-002 -4.530164e-002 0.999 16.4015 -7.72)" class="st1" cx="178.5" cy="358" rx="114.7" ry="17.5"/>
		<g>
			<g>
				<path class="st2" d="M272.9,280.2c0,0,28.6,2.2,37.4-5c0,0-6.2-4.3-1.6-9.2c4.6-4.9,7.1,2.1,7.1,2.1s5.8-8.2,11.2-3.2
					c5.4,5-4.4,10.1-4.4,10.1s8.2,0,4.9,6.7c-3.3,6.8-9.6,0.9-9.6,0.9s5.9,5.5,1.4,7.6c-4.5,2.2-9-5.3-9-5.3s-23.4,14.3-41.3,14
					C269,298.9,260.5,288.2,272.9,280.2z"/>
				<path class="st3" d="M269,298.9c17.8,0.3,41.3-14,41.3-14s4.4,7.5,9,5.3c4.5-2.2-1.4-7.6-1.4-7.6s6.4,5.9,9.6-0.9
					c3.3-6.8-4.9-6.7-4.9-6.7s9.8-5.1,4.4-10.1c-2.8-2.7-5.8-1.6-7.9,0v0c0,0,4.8-0.7,6.5,2.8c1.7,3.5-5.8,7.1-5.8,7.1
					s3.6,2,3.6,5.1s-7.3,1-7.3,1s0.8,1.3-1.2,4.3c-2,3-4.6-3.4-4.6-3.4c-18.5,10.2-44,10.4-44,10.4C266.8,296.1,269,298.9,269,298.9
					z"/>
			</g>
			<g>
				<path class="st2" d="M129.3,280.2c0,0-28.6,2.2-37.4-5c0,0,6.2-4.3,1.6-9.2c-4.6-4.9-7.1,2.1-7.1,2.1s-5.8-8.2-11.2-3.2
					c-5.4,5,4.4,10.1,4.4,10.1s-8.2,0-4.9,6.7c3.3,6.8,9.6,0.9,9.6,0.9s-5.9,5.5-1.4,7.6c4.5,2.2,9-5.3,9-5.3s23.4,14.3,41.3,14
					C133.2,298.9,141.7,288.2,129.3,280.2z"/>
				<path class="st3" d="M133.2,298.9c-17.8,0.3-41.3-14-41.3-14s-4.4,7.5-9,5.3c-4.5-2.2,1.4-7.6,1.4-7.6s-6.4,5.9-9.6-0.9
					c-3.3-6.8,4.9-6.7,4.9-6.7s-9.8-5.1-4.4-10.1c2.8-2.7,5.8-1.6,7.9,0v0c0,0-4.8-0.7-6.5,2.8c-1.7,3.5,5.8,7.1,5.8,7.1
					s-3.6,2-3.6,5.1s7.3,1,7.3,1s-0.8,1.3,1.2,4.3c2,3,4.6-3.4,4.6-3.4c18.5,10.2,44,10.4,44,10.4
					C135.5,296.1,133.2,298.9,133.2,298.9z"/>
			</g>
			<g>
				<g>
					<path class="st4" d="M258.4,228c0,0,22.1-6.6,28.4-49.2c0,0,62.8,16.8,68,58.5c0,0-19.9-9.9-29.4,6.9c0,0-16.5-12.3-28.5,6.7
						c0,0-8.2-22-30.7-10.3C266.2,240.6,254.7,237.3,258.4,228z"/>
					<path class="st5" d="M326.3,236.7c0,0,9.1-11,22.6-6.7c0,0-14.1-29.8-54.3-43.8C294.6,186.2,324.2,210.2,326.3,236.7z"/>
					<path class="st5" d="M319.9,236.9c0,0-9.5-6-20.6,4.1c0,0,2.3-26.8-5.3-43.2C294,197.8,313.9,213.2,319.9,236.9z"/>
					<path class="st5" d="M290.3,235.1c0,0-14-8-22.4-1.4c0,0,19.1-11.2,20-24.2C287.9,209.5,293.1,225.4,290.3,235.1z"/>
				</g>
				<path class="st6" d="M338.5,223.7c0,0-12.9,1-14.2,10.3c0,0-16.6-9.3-24.5,5c0,0-16.5-12.4-36.6,0.3l0,0
					c1.7,0.9,3.1,1.3,3.1,1.3c22.4-11.8,30.7,10.3,30.7,10.3c11.9-18.9,28.5-6.7,28.5-6.7c9.6-16.8,29.4-6.9,29.4-6.9
					c-5.2-41.8-68-58.5-68-58.5S327.9,200.6,338.5,223.7z"/>
			</g>
			<g>
				<g>
					<path class="st4" d="M142.9,228c0,0-22.1-6.6-28.5-49.2c0,0-62.8,16.8-68,58.5c0,0,19.9-9.9,29.4,6.9c0,0,16.5-12.3,28.5,6.7
						c0,0,8.2-22,30.7-10.3C135.1,240.6,146.6,237.3,142.9,228z"/>
					<path class="st5" d="M75,236.7c0,0-9.1-11-22.6-6.7c0,0,14.1-29.8,54.3-43.8C106.7,186.2,77.2,210.2,75,236.7z"/>
					<path class="st5" d="M81.4,236.9c0,0,9.5-6,20.6,4.1c0,0-2.3-26.8,5.3-43.2C107.3,197.8,87.4,213.2,81.4,236.9z"/>
					<path class="st5" d="M111,235.1c0,0,14-8,22.4-1.4c0,0-19.1-11.2-20-24.2C113.4,209.5,108.2,225.4,111,235.1z"/>
				</g>
				<path class="st6" d="M62.8,223.7c0,0,12.9,1,14.2,10.3c0,0,16.6-9.3,24.5,5c0,0,16.5-12.4,36.6,0.3l0,0
					c-1.7,0.9-3.1,1.3-3.1,1.3c-22.4-11.8-30.7,10.3-30.7,10.3c-11.9-18.9-28.5-6.7-28.5-6.7c-9.6-16.8-29.4-6.9-29.4-6.9
					c5.2-41.8,68-58.5,68-58.5S73.4,200.6,62.8,223.7z"/>
			</g>
			<g>
				<path class="st7" d="M185.1,353c0,0,21.2,24.7,54.3,17.2c0,0-11.9-7.5-12.4-15c0,0,31.4,15.9,45.5,7.1c0,0-8.4-4-11.5-8.4
					c0,0,19,10.2,38.4-6.2c0,0-19-14.1-20.3-38.4c0,0,7.1,10.2,11.9,11.5c0,0-8.8-29.2-8-39.8c0.9-10.6-4.4-24.7-4.4-24.7
					s8.8,7.1,9.3,11.9c0,0,0.4-96.3-97.6-91.9c0,0,4.4-7.1,8-7.5c0,0-13.3,1.3-19,7.1c0,0,3.1-9.3,6.2-12.8c0,0-10.6,3.5-14.6,15.5
					c0,0-38,11.5-59.6,53c0,0,5.7-4,9.3-4.9c0,0-16.8,26.9-15.5,46.8c0,0,2.2-6.6,5.7-10.2c0,0,6.2,34-4.4,50.8c0,0,9.3-3.5,11-8
					c0,0-4,40.6-23,52.1c0,0,30.5,8.8,44.2-4.4c0,0-5.3,11.9-12.4,15.9C126.4,369.8,169.7,370.7,185.1,353z"/>
				<path class="st8" d="M299.5,347.7c0,0-19-14.1-20.3-38.4c0,0,7.1,10.2,11.9,11.5c0,0-8.8-29.2-8-39.8
					c0.9-10.6-4.4-24.7-4.4-24.7s8.8,7.1,9.3,11.9c0,0,0.4-89.8-87.9-92c0.8,0.3,69.8,10.4,67.1,77.6c-2,51.2-9.7,68.9,2.7,86.6
					l-25.6-9.7c0,0-4.3,8.6-0.9,16.8c0,0-34.5-5.3-37.1-13.3c0,0,0,15.9,4.4,16.8c0,0-11.5,2.7-23.4-7.1c0,0-1.9,3.6-2.2,9.1
					c0.4,0.5,21.5,24.6,54.3,17.2c0,0-11.9-7.5-12.4-15c0,0,31.4,15.9,45.5,7.1c0,0-8.4-4-11.5-8.4
					C261.1,353.9,280.1,364.1,299.5,347.7z"/>
				<path class="st9" d="M299.5,347.7c0,0-19-14.1-20.3-38.4c0,0,7.1,10.2,11.9,11.5c0,0-8.8-29.2-8-39.8
					c0.9-10.6-4.4-24.7-4.4-24.7s8.8,7.1,9.3,11.9c0,0,0.4-96.3-97.6-91.9c0,0,4.4-7.1,8-7.5c0,0-13.3,1.3-19,7.1
					c0,0,3.1-9.3,6.2-12.8c0,0-10.6,3.5-14.6,15.5c0,0-38,11.5-59.6,53c0,0,5.7-4,9.3-4.9c0,0-16.8,26.9-15.5,46.8
					c0,0,2.2-6.6,5.7-10.2c0,0,6.2,34-4.4,50.8c0,0,9.3-3.5,11-8c0,0-4,40.6-23,52.1c0,0,30.5,8.8,44.2-4.4c0,0-5.3,11.9-12.4,15.9
					c0,0,43.3,0.9,58.8-16.8c0,0,21.2,24.7,54.3,17.2c0,0-11.9-7.5-12.4-15c0,0,31.4,15.9,45.5,7.1c0,0-8.4-4-11.5-8.4
					C261.1,353.9,280.1,364.1,299.5,347.7z M247.4,343.9c1.8,4.9,7.5,13.7,7.5,13.7c-15,1-33.6-11.9-33.6-11.9
					c-4.4,5.3-0.4,17.7-0.4,17.7c-18.1,0-33.6-19.4-33.6-19.4c-10.8,17.9-49.5,18.2-49.5,18.2c8.5-5.9,11.1-23.5,11.1-23.5
					c-14,18.2-44.2,15.4-44.2,15.4c17.7-16.1,29.2-82.5,29.2-82.5l-13.7,24.2c0,0,0.8-10.9-1-30.8c-1.8-19.9,19.1-46.4,19.1-46.4
					c-4,2.7-8.8,4.4-8.8,4.4c17.9-38.4,54.9-47.6,54.9-47.6c-7.1,3.5-10.4,12.6-10.4,12.6c10.2-2.7,33.7-6.6,62,5.3
					c28.3,11.9,43.7,56.5,43.7,56.5s-14.1-14.6-9.7-4.4c4.4,10.2,12.8,26.3,6.2,54.8c-6.7,28.5,8.8,47.7,8.8,47.7
					C264.2,352.7,247.4,343.9,247.4,343.9z"/>
			</g>
			<path class="st10" d="M197.2,273.7c0,2-3.1,3.6-6.8,3.6c-3.8,0-6.8-1.6-6.8-3.6c0-2,3.1-3.6,6.8-3.6
				C194.1,270,197.2,271.7,197.2,273.7"/>
			<ellipse class="st8" cx="192.8" cy="312.4" rx="14.4" ry="2"/>
			<g>
				<path class="st10" d="M207,214.7c0,0,8.3-11.6,25.9-10.2c0,0-7.4-9.7-18.7-4.2C203,205.8,207,214.7,207,214.7z"/>
				<g>
					<g>
						<g>
							<path class="st11" d="M197.9,243.8c0.1,13.6,10.1,24.5,22.4,24.4c12.2-0.1,22-11.2,21.9-24.8c-0.1-13.6-10.1-24.5-22.3-24.4
								C207.5,219,197.7,230.2,197.9,243.8z"/>
							<path class="st12" d="M199.2,244.3c0.1,12.3,9,22.1,19.9,22c10.9-0.1,19.6-10.1,19.5-22.4c-0.1-12.3-9-22.1-19.9-22
								C207.8,222,199.1,232,199.2,244.3z"/>
							<path class="st12" d="M199.2,244.3c0.1,12.3,9,22.1,19.9,22c10.9-0.1,19.6-10.1,19.5-22.4c-0.1-12.3-9-22.1-19.9-22
								C207.8,222,199.1,232,199.2,244.3z"/>
						</g>
						<path class="st13" d="M221.8,222.2c7.7,2.4,13.4,10.3,13.5,19.8c0.1,11.5-8.1,20.8-18.2,20.9c-7.5,0.1-14-4.9-16.9-12.2
							c2.5,9.1,10.1,15.6,19,15.5c10.9-0.1,19.6-10.1,19.5-22.4C238.5,232.9,231.2,223.8,221.8,222.2z"/>
					</g>
					<g>
						<path class="st10" d="M202.9,248c0,4.6,3.4,8.3,7.5,8.2c4.1,0,7.3-3.8,7.3-8.4c0-4.6-3.4-8.3-7.4-8.2
							C206.1,239.7,202.8,243.4,202.9,248z"/>
						
							<ellipse transform="matrix(-1 9.066827e-003 -9.066827e-003 -1 432.3827 484.2726)" class="st12" cx="215.1" cy="243.1" rx="2.9" ry="3.2"/>
					</g>
				</g>
			</g>
			<g>
				<path class="st10" d="M174,214.7c0,0-8.3-11.6-25.9-10.2c0,0,7.4-9.7,18.7-4.2C178,205.8,174,214.7,174,214.7z"/>
				<g>
					<g>
						<g>
							<path class="st11" d="M183.1,243.8c-0.1,13.6-10.1,24.5-22.4,24.4c-12.2-0.1-22-11.2-21.9-24.8c0.1-13.6,10.1-24.5,22.3-24.4
								C173.4,219,183.2,230.2,183.1,243.8z"/>
							<path class="st12" d="M181.7,244.3c-0.1,12.3-9,22.1-19.9,22c-10.9-0.1-19.6-10.1-19.5-22.4c0.1-12.3,9-22.1,19.9-22
								C173.1,222,181.8,232,181.7,244.3z"/>
							<path class="st12" d="M181.7,244.3c-0.1,12.3-9,22.1-19.9,22c-10.9-0.1-19.6-10.1-19.5-22.4c0.1-12.3,9-22.1,19.9-22
								C173.1,222,181.8,232,181.7,244.3z"/>
						</g>
						<path class="st13" d="M159.1,222.2c-7.7,2.4-13.4,10.3-13.5,19.8c-0.1,11.5,8.1,20.8,18.2,20.9c7.5,0.1,14-4.9,16.9-12.2
							c-2.5,9.1-10.1,15.6-19,15.5c-10.9-0.1-19.6-10.1-19.5-22.4C142.5,232.9,149.7,223.8,159.1,222.2z"/>
					</g>
					<g>
						<path class="st10" d="M175.4,248.4c0,4.6-3.4,8.3-7.5,8.2c-4.1,0-7.3-3.8-7.3-8.4c0-4.6,3.4-8.3,7.4-8.2
							C172.1,240.1,175.4,243.8,175.4,248.4z"/>
						<path class="st12" d="M166,243.5c0,1.8-1.3,3.2-2.9,3.2c-1.6,0-2.8-1.5-2.8-3.2c0-1.8,1.3-3.2,2.9-3.2
							C164.7,240.3,166,241.7,166,243.5z"/>
					</g>
				</g>
			</g>
			<g>
				<path class="st10" d="M144.6,307.8c0,0,51.6-10.8,95.3,0C240,307.8,201.8,288.2,144.6,307.8z"/>
				<g>
					<path class="st12" d="M202.9,303.1l10-25.3l11.2,27C224,304.8,215.5,303.6,202.9,303.1z"/>
					<path class="st13" d="M217.9,300c-1.3,1.3-13.8,3.6-13.4-1.1l-1.6,4.1c12.6,0.5,21.2,1.7,21.2,1.7l-11.2-27
						C212.9,277.8,219.1,298.8,217.9,300z"/>
				</g>
				<g>
					<path class="st12" d="M181.4,303.4l-10.2-25.3l-11,27.1C160.3,305.3,168.8,304,181.4,303.4z"/>
					<path class="st13" d="M166.4,300.5c1.3,1.2,13.9,3.5,13.3-1.2l1.7,4.1c-12.6,0.6-21.2,1.9-21.2,1.9l11-27.1
						C171.2,278.2,165.1,299.2,166.4,300.5z"/>
				</g>
			</g>
		</g>
	</g>
	<g>
		<ellipse class="st1" cx="805.8" cy="378.3" rx="100.1" ry="15.3"/>
		<g>
			<path class="st14" d="M660,214.6l51.6,25.8l83.3,3c0,0,79-9.5,105.8-31.2C900.6,212.1,686.2,208.7,660,214.6z"/>
			<g>
				<g>
					<path class="st15" d="M855.9,305.6c0,0,27.4,8.5,33,18.4c0,0-7.3,1.7-4.9,8c2.5,6.2,7.3,0.6,7.3,0.6s2.3,9.8,9.2,7.1
						c6.9-2.7-0.4-11-0.4-11s7.6,3,7.1-4.4c-0.5-7.5-8.6-4.4-8.6-4.4s7.5-2.9,4.1-6.6c-3.4-3.7-10.3,1.7-10.3,1.7
						s-16.5-22-33.2-28.2C859.2,286.8,847.4,293.6,855.9,305.6z"/>
				</g>
				<g class="st16">
					<path class="st17" d="M900.6,339.7c6.9-2.7-0.4-11-0.4-11s7.6,3,7.1-4.4c-0.2-2.1-0.9-3.4-2-4.1c1.8,10.5-7.3,5.3-7.3,5.3
						s3.2,7.9-1.5,9.8c-4.7,1.9-3.2-6.2-3.2-6.2s-3.6,2.8-6.3,0.7c-2.7-2.1,4-6.2,4-6.2c-0.4-9-37.5-25-38.1-25.3
						c0.2,2.2,1.1,4.6,3,7.4c0,0,27.4,8.5,33,18.4c0,0-7.3,1.7-4.9,8c2.5,6.2,7.3,0.6,7.3,0.6S893.7,342.4,900.6,339.7z"/>
					<path class="st18" d="M852.8,297.6L852.8,297.6C852.8,297.6,852.8,297.6,852.8,297.6z"/>
				</g>
			</g>
			<g>
				<g>
					<path class="st15" d="M702.4,305.6c0,0-27.4,8.5-33,18.4c0,0,7.3,1.7,4.9,8c-2.5,6.2-7.3,0.6-7.3,0.6s-2.3,9.8-9.2,7.1
						c-6.9-2.7,0.4-11,0.4-11s-7.6,3-7.1-4.4c0.5-7.5,8.6-4.4,8.6-4.4s-7.5-2.9-4.1-6.6c3.4-3.7,10.3,1.7,10.3,1.7
						s16.5-22,33.2-28.2C699.1,286.8,710.9,293.6,702.4,305.6z"/>
				</g>
				<g class="st16">
					<path class="st17" d="M657.7,339.7c-6.9-2.7,0.4-11,0.4-11s-7.6,3-7.1-4.4c0.2-2.1,0.9-3.4,2-4.1c-1.8,10.5,7.3,5.3,7.3,5.3
						s-3.2,7.9,1.5,9.8c4.7,1.9,3.2-6.2,3.2-6.2s3.6,2.8,6.3,0.7c2.7-2.1-4-6.2-4-6.2c0.4-9,37.5-25,38.1-25.3
						c-0.2,2.2-1.1,4.6-3,7.4c0,0-27.4,8.5-33,18.4c0,0,7.3,1.7,4.9,8c-2.5,6.2-7.3,0.6-7.3,0.6S664.6,342.4,657.7,339.7z"/>
					<path class="st18" d="M705.5,297.6L705.5,297.6C705.5,297.6,705.5,297.6,705.5,297.6z"/>
				</g>
			</g>
			<g>
				<path class="st19" d="M765,371.8c0,0,21.2,24.7,54.3,17.2c0,0-11.9-7.5-12.4-15c0,0,31.4,15.9,45.5,7.1c0,0-8.4-4-11.5-8.4
					c0,0,19,10.2,38.4-6.2c0,0-19-14.1-20.3-38.4c0,0,7.1,10.2,11.9,11.5c0,0-8.8-29.2-8-39.8c0.9-10.6-4.4-24.7-4.4-24.7
					s8.8,7.1,9.3,11.9c0,0,0.4-96.3-97.6-91.9c0,0,4.4-7.1,8-7.5c0,0-13.3,1.3-19,7.1c0,0,3.1-9.3,6.2-12.8c0,0-10.6,3.5-14.6,15.5
					c0,0-38,11.5-59.6,53c0,0,5.7-4,9.3-4.9c0,0-16.8,26.9-15.5,46.8c0,0,2.2-6.6,5.7-10.2c0,0,6.2,34-4.4,50.8c0,0,9.3-3.5,11-8
					c0,0-4,40.6-23,52.1c0,0,30.5,8.8,44.2-4.4c0,0-5.3,11.9-12.4,15.9C706.2,388.6,749.5,389.5,765,371.8z"/>
				<path class="st20" d="M879.4,366.5c0,0-19-14.1-20.3-38.4c0,0,7.1,10.2,11.9,11.5c0,0-8.8-29.2-8-39.8
					c0.9-10.6-4.4-24.7-4.4-24.7s8.8,7.1,9.3,11.9c0,0,0.4-89.8-87.9-92c0.8,0.3,69.8,10.4,67.1,77.6c-2,51.2-9.7,68.9,2.7,86.6
					l-25.6-9.7c0,0-4.3,8.6-0.9,16.8c0,0-34.5-5.3-37.1-13.3c0,0,0,15.9,4.4,16.8c0,0-11.5,2.7-23.4-7.1c0,0-1.9,3.7-2.2,9.1
					c0.4,0.5,21.5,24.6,54.3,17.2c0,0-11.9-7.5-12.4-15c0,0,31.4,15.9,45.5,7.1c0,0-8.4-4-11.5-8.4C841,372.7,860,382.8,879.4,366.5
					z"/>
				<path class="st20" d="M879.4,366.5c0,0-19-14.1-20.3-38.4c0,0,7.1,10.2,11.9,11.5c0,0-8.8-29.2-8-39.8
					c0.9-10.6-4.4-24.7-4.4-24.7s8.8,7.1,9.3,11.9c0,0,0.4-96.3-97.6-91.9c0,0,4.4-7.1,8-7.5c0,0-13.3,1.3-19,7.1
					c0,0,3.1-9.3,6.2-12.8c0,0-10.6,3.5-14.6,15.5c0,0-38,11.5-59.6,53c0,0,5.7-4,9.3-4.9c0,0-16.8,26.9-15.5,46.8
					c0,0,2.2-6.6,5.7-10.2c0,0,6.2,34-4.4,50.8c0,0,9.3-3.5,11-8c0,0-4,40.6-23,52.1c0,0,30.5,8.8,44.2-4.4c0,0-5.3,11.9-12.4,15.9
					c0,0,43.3,0.9,58.8-16.8c0,0,21.2,24.7,54.3,17.2c0,0-11.9-7.5-12.4-15c0,0,31.4,15.9,45.5,7.1c0,0-8.4-4-11.5-8.4
					C841,372.7,860,382.8,879.4,366.5z M827.3,362.7c1.8,4.9,7.5,13.7,7.5,13.7c-15,1-33.6-11.9-33.6-11.9
					c-4.4,5.3-0.4,17.7-0.4,17.7c-18.1,0-33.6-19.4-33.6-19.4c-10.8,17.9-49.5,18.2-49.5,18.2c8.5-5.9,11.1-23.5,11.1-23.5
					c-14,18.2-44.2,15.4-44.2,15.4c17.7-16.1,29.2-82.5,29.2-82.5L700,314.4c0,0,0.8-10.9-1-30.8c-1.8-19.9,19.1-46.4,19.1-46.4
					c-4,2.7-8.8,4.4-8.8,4.4c17.9-38.4,54.9-47.6,54.9-47.6c-7.1,3.5-10.4,12.6-10.4,12.6c10.2-2.7,33.7-6.6,62,5.3
					c28.3,11.9,43.7,56.5,43.7,56.5s-14.1-14.6-9.7-4.4c4.4,10.2,12.8,26.3,6.2,54.8c-6.7,28.5,8.8,47.7,8.8,47.7
					C844,371.5,827.3,362.7,827.3,362.7z"/>
			</g>
			<g>
				<path class="st10" d="M795.6,236c0,0,13-5.9,27.5,4.2c0,0-1.6-12.1-14-13C796.6,226.3,795.6,236,795.6,236z"/>
				<g>
					<g>
						<g>
							<path class="st21" d="M782.5,268.6c0.1,13.6,10.1,24.5,22.4,24.4c12.2-0.1,22-11.2,21.9-24.8c-0.1-13.6-10.1-24.5-22.3-24.4
								C792.2,243.9,782.3,255,782.5,268.6z"/>
							<path class="st12" d="M783.9,269.1c0.1,12.3,9,22.1,19.9,22c10.9-0.1,19.6-10.1,19.5-22.4c-0.1-12.3-9-22.1-19.9-22
								C792.5,246.9,783.8,256.9,783.9,269.1z"/>
							<path class="st12" d="M783.9,269.1c0.1,12.3,9,22.1,19.9,22c10.9-0.1,19.6-10.1,19.5-22.4c-0.1-12.3-9-22.1-19.9-22
								C792.5,246.9,783.8,256.9,783.9,269.1z"/>
						</g>
						<path class="st13" d="M806.4,247c7.7,2.4,13.4,10.3,13.5,19.8c0.1,11.5-8.1,20.8-18.2,20.9c-7.5,0.1-14-4.9-16.9-12.2
							c2.5,9.1,10.1,15.6,19,15.5c10.9-0.1,19.6-10.1,19.5-22.4C823.1,257.7,815.8,248.6,806.4,247z"/>
					</g>
					<g>
						<path class="st10" d="M795.6,268.8c0,4.6,3.4,8.3,7.5,8.2c4.1,0,7.3-3.8,7.3-8.4c0-4.6-3.4-8.3-7.5-8.2
							C798.8,260.5,795.5,264.3,795.6,268.8z"/>
						
							<ellipse transform="matrix(-1 9.049324e-003 -9.049324e-003 -1 1617.9258 520.5251)" class="st12" cx="807.8" cy="263.9" rx="2.9" ry="3.2"/>
					</g>
				</g>
			</g>
			<g>
				<path class="st10" d="M734.9,236c0,0,13-5.9,27.5,4.2c0,0-1.6-12.1-14-13C735.9,226.3,734.9,236,734.9,236z"/>
				<g>
					<g>
						<g>
							<path class="st21" d="M721.8,268.6c0.1,13.6,10.1,24.5,22.4,24.4c12.2-0.1,22-11.2,21.9-24.8c-0.1-13.6-10.1-24.5-22.3-24.4
								C731.5,243.9,721.7,255,721.8,268.6z"/>
							<path class="st12" d="M723.2,269.1c0.1,12.3,9,22.1,19.9,22c10.9-0.1,19.6-10.1,19.5-22.4c-0.1-12.3-9-22.1-19.9-22
								C731.8,246.9,723.1,256.9,723.2,269.1z"/>
							<path class="st12" d="M723.2,269.1c0.1,12.3,9,22.1,19.9,22c10.9-0.1,19.6-10.1,19.5-22.4c-0.1-12.3-9-22.1-19.9-22
								C731.8,246.9,723.1,256.9,723.2,269.1z"/>
						</g>
						<path class="st13" d="M745.8,247c7.7,2.4,13.4,10.3,13.5,19.8c0.1,11.5-8.1,20.8-18.2,20.9c-7.5,0.1-14-4.9-16.9-12.2
							c2.5,9.1,10.1,15.6,19,15.5c10.9-0.1,19.6-10.1,19.5-22.4C762.5,257.7,755.2,248.6,745.8,247z"/>
					</g>
					<g>
						<path class="st10" d="M734.9,268.8c0,4.6,3.4,8.3,7.5,8.2c4.1,0,7.3-3.8,7.3-8.4c0-4.6-3.4-8.3-7.4-8.2
							C738.2,260.5,734.9,264.3,734.9,268.8z"/>
						
							<ellipse transform="matrix(-1 9.050908e-003 -9.050908e-003 -1 1496.6698 521.0726)" class="st12" cx="747.2" cy="263.9" rx="2.9" ry="3.2"/>
					</g>
				</g>
			</g>
			<g>
				<g>
					<path class="st22" d="M660,214.6c0,0,56.9,3.8,77.7-1.3c20.8-5.1,52.2,7.1,52.2,7.1l-13.4-12.5c0,0,55.7,16.2,80.5,11
						c24.8-5.2,37.5-6.6,37.5-6.6s-43.2-16.5-56-32.2c-12.8-15.7-15.7-32-25.6-46.5c-9.9-14.4-23.4-36.5-23-46.1
						c0.4-9.7,6.3-30.9,6.6-33.5c0.3-2.6-17.6-1.8-31.8,22.1c-14.2,23.9-22.6,41.3-23.5,54.6c-0.9,13.3-16.4,47.7-22.3,53.8
						C713,190.8,665.1,214.7,660,214.6z"/>
					<path class="st23" d="M722.8,179C722.8,179,722.8,179,722.8,179c0,0,82.4-20,112.2-3.4l0,0c-6.6-9.5-10.3-19.2-14.7-28.4
						c-13.3-2.2-43.6-4.7-85.7,6.5C730.9,163.1,726.4,172.8,722.8,179z"/>
					<path class="st24" d="M802.9,157.4c0.6,13.2-9.3,24.3-22.1,24.9c-12.9,0.6-23.8-9.6-24.4-22.8c-0.6-13.2,9.3-24.3,22.1-24.9
						C791.3,134,802.3,144.3,802.9,157.4z"/>
					<path class="st25" d="M791.6,157.9c0.3,6.8-4.8,12.5-11.4,12.8c-6.6,0.3-12.2-4.9-12.5-11.7c-0.3-6.8,4.8-12.5,11.4-12.8
						C785.7,145.9,791.3,151.2,791.6,157.9z"/>
					<path class="st26" d="M796.4,54.1c0,0-12.9,21.1-14.2,31.5c-1.2,10.4-4.7,19.9-4.8,21.4c-0.1,1.5,4.9,3.2,10.3,6.3
						c5.4,3.1,16,12.8,19.6,20.4c3.6,7.6,3.6,15.1,5.9,22.1c2.4,6.9,11,16.7,12.8,23.2c1.8,6.6,19.6,22.4,13.2,26.6
						c-6.4,4.2-55.5,3.4-63.8,0.6c-2.9-1,6.1,2.1,19.1,6.4c18.5,4.3,46.6,9.7,62.4,6.4c24.8-5.2,37.5-6.6,37.5-6.6
						s-43.2-16.5-56-32.2c-12.8-15.7-15.7-32-25.6-46.5c-9.9-14.4-23.4-36.5-23-46.1C790.2,77.9,796.1,56.7,796.4,54.1z"/>
				</g>
				<path class="st26" d="M733.8,183.8c-8-1.3-8,2.7-5.9-6c2.1-8.6,5.9-10.6,11.8-19.2c6-8.6,6-21.9,6-31.8
					c0-9.8,23.2-56.5,23.9-57.9c-1.7,2.2-3.4,4.6-5,7.3c-14.2,23.9-22.6,41.3-23.5,54.6c-0.9,13.3-16.4,47.7-22.3,53.8
					c-5.9,6.1-53.8,30.1-58.9,29.9c19.6-0.3,42.7-9.6,53.3-16.9C723.9,190.4,741.8,185.1,733.8,183.8z"/>
			</g>
			<g>
				<g>
					<path class="st12" d="M791.4,321.6c0,0-1.7,12.1,4.6,12.1c6.4,0,12.8-0.2,12.8-5.7c0-5.5-3.4-9.7-3.4-9.7
						S795.7,322.6,791.4,321.6z"/>
					<path class="st12" d="M813,313c0,0,3.3,10.5,8.5,8.1c5.2-2.4,10.4-5,8.2-9.4c-2.1-4.4-6.5-6.5-6.5-6.5S816.9,312.1,813,313z"/>
					<path class="st12" d="M754.9,319.4c0,0-7.9,15.1,0.4,18.2c8.3,3.1,16.9,6,19.4-1.2c2.6-7.2,0.1-14.4,0.1-14.4
						S760.1,322.8,754.9,319.4z"/>
					<path class="st12" d="M734.9,310.6c0,0-7.5,8-2.9,11.4c4.6,3.4,9.4,6.6,12.2,2.6c2.8-4,2.5-8.9,2.5-8.9
						S737.5,313.6,734.9,310.6z"/>
				</g>
				<path class="st27" d="M841.9,286.5c0,0-27.2,34.2-62.7,34.8c-35.5,0.6-64.6-26.6-64.6-26.6s28.5,32.9,63.3,31
					C812.8,323.9,838.1,294.2,841.9,286.5z"/>
			</g>
			<g>
				<path class="st21" d="M772.4,300.6c0,1.9-1.3,3.4-2.9,3.4c-1.6,0-2.9-1.5-2.9-3.4c0-1.9,1.3-3.4,2.9-3.4
					C771,297.2,772.4,298.7,772.4,300.6z"/>
				<path class="st21" d="M781.6,300.6c0,1.9-1.3,3.4-2.9,3.4c-1.6,0-2.9-1.5-2.9-3.4c0-1.9,1.3-3.4,2.9-3.4
					C780.3,297.2,781.6,298.7,781.6,300.6z"/>
			</g>
		</g>
	</g>
	<g>
		<ellipse class="st1" cx="1077.7" cy="364.9" rx="110" ry="10.7"/>
		<g>
			<g>
				<path class="st27" d="M1196,328.9l-5.6-25.2l-4.7,8.3c-2.6-3.4-10.8-12.5-22.9-8.9c-14.8,4.4-16.4,27.5-28.7,27.8
					c-12.3,0.3-13.8-27.8-13.8-27.8l-11.6,5.7c0,0,11.8,37,25.7,32.8c13.9-4.2,22.9-31.6,34.7-31.5c8,0.1,12.3,3.6,14.2,5.9
					l-6.8,6.4L1196,328.9z"/>
				<polygon class="st28" points="1196,328.9 1176.6,322.5 1183.3,316 1187.3,319.4 				"/>
				<path class="st28" d="M1153,320.1c-9.5,13.8-17,22.6-26.6,14.2c-7.2-6.3-11.6-20.6-13.5-27.6l-4.2,2.1c0,0,11.8,37,25.7,32.8
					c13.9-4.2,22.9-31.6,34.7-31.5c7.3,0.1,11.5,3.1,13.7,5.3C1173.2,302.7,1161.9,307.2,1153,320.1z"/>
			</g>
			<g>
				<g>
					<path class="st29" d="M1116.8,278c0,0,28.6,2.2,37.4-5c0,0-6.2-4.3-1.6-9.2c4.6-4.9,7.1,2.1,7.1,2.1s5.8-8.2,11.2-3.2
						c5.4,5-4.4,10.1-4.4,10.1s8.2,0,4.9,6.7c-3.3,6.8-9.6,0.9-9.6,0.9s5.9,5.5,1.4,7.6c-4.5,2.2-9-5.3-9-5.3s-23.4,14.3-41.3,14
						C1112.9,296.7,1104.4,286,1116.8,278z"/>
					<path class="st30" d="M1112.9,296.7c17.8,0.3,41.3-14,41.3-14s4.4,7.5,9,5.3c4.5-2.2-1.4-7.6-1.4-7.6s6.4,5.9,9.6-0.9
						c3.3-6.8-4.9-6.7-4.9-6.7s9.8-5.1,4.4-10.1c-2.8-2.7-5.8-1.6-7.9,0l0,0c0,0,4.8-0.7,6.5,2.8c1.7,3.5-5.8,7.1-5.8,7.1
						s3.6,2,3.6,5.1c0,3.1-7.3,1-7.3,1s0.8,1.3-1.2,4.3c-2,3-4.6-3.4-4.6-3.4c-18.5,10.2-44,10.4-44,10.4
						C1110.7,293.9,1112.9,296.7,1112.9,296.7z"/>
				</g>
				<g>
					<path class="st29" d="M973.2,278c0,0-28.6,2.2-37.4-5c0,0,6.2-4.3,1.6-9.2c-4.6-4.9-7.1,2.1-7.1,2.1s-5.8-8.2-11.2-3.2
						c-5.4,5,4.4,10.1,4.4,10.1s-8.2,0-4.9,6.7c3.3,6.8,9.6,0.9,9.6,0.9s-5.9,5.5-1.4,7.6c4.5,2.2,9-5.3,9-5.3s23.4,14.3,41.3,14
						C977.1,296.7,985.6,286,973.2,278z"/>
					<path class="st30" d="M977.1,296.7c-17.8,0.3-41.3-14-41.3-14s-4.4,7.5-9,5.3c-4.5-2.2,1.4-7.6,1.4-7.6s-6.4,5.9-9.6-0.9
						c-3.3-6.8,4.9-6.7,4.9-6.7s-9.8-5.1-4.4-10.1c2.8-2.7,5.8-1.6,7.9,0l0,0c0,0-4.8-0.7-6.5,2.8c-1.7,3.5,5.8,7.1,5.8,7.1
						s-3.6,2-3.6,5.1c0,3.1,7.3,1,7.3,1s-0.8,1.3,1.2,4.3c2,3,4.6-3.4,4.6-3.4c18.5,10.2,44,10.4,44,10.4
						C979.4,293.9,977.1,296.7,977.1,296.7z"/>
				</g>
				<g>
					<path class="st31" d="M1033.4,362.8c0,0,21.2,24.7,54.3,17.2c0,0-11.9-7.5-12.4-15c0,0,31.4,15.9,45.5,7.1c0,0-8.4-4-11.5-8.4
						c0,0,19,10.2,38.4-6.2c0,0-19-14.1-20.3-38.4c0,0,7.1,10.2,11.9,11.5c0,0-8.8-29.2-8-39.8c0.9-10.6-4.4-24.7-4.4-24.7
						s8.8,7.1,9.3,11.9c0,0,0.4-96.3-97.6-91.9c0,0,4.4-7.1,8-7.5c0,0-13.3,1.3-19,7.1c0,0,3.1-9.3,6.2-12.8c0,0-10.6,3.5-14.6,15.5
						c0,0-38,11.5-59.6,53c0,0,5.7-4,9.3-4.9c0,0-16.8,26.9-15.5,46.8c0,0,2.2-6.6,5.7-10.2c0,0,6.2,34-4.4,50.8c0,0,9.3-3.5,11-8
						c0,0-4,40.6-23,52.1c0,0,30.5,8.8,44.2-4.4c0,0-5.3,11.9-12.4,15.9C974.6,379.6,1017.9,380.4,1033.4,362.8z"/>
					<path class="st32" d="M1147.8,357.5c0,0-19-14.1-20.3-38.4c0,0,7.1,10.2,11.9,11.5c0,0-8.8-29.2-8-39.8
						c0.9-10.6-4.4-24.7-4.4-24.7s8.8,7.1,9.3,11.9c0,0,0.4-89.8-87.9-92c0.8,0.3,69.8,10.4,67.1,77.6c-2,51.2-9.7,68.9,2.7,86.6
						l-25.6-9.7c0,0-4.3,8.6-0.9,16.8c0,0-34.5-5.3-37.1-13.3c0,0,0,15.9,4.4,16.8c0,0-11.5,2.7-23.4-7.1c0,0-1.9,3.7-2.2,9.1
						c0.4,0.5,21.5,24.6,54.3,17.2c0,0-11.9-7.5-12.4-15c0,0,31.4,15.9,45.5,7.1c0,0-8.4-4-11.5-8.4
						C1109.4,363.7,1128.4,373.8,1147.8,357.5z"/>
					<path class="st32" d="M1147.8,357.5c0,0-19-14.1-20.3-38.4c0,0,7.1,10.2,11.9,11.5c0,0-8.8-29.2-8-39.8
						c0.9-10.6-4.4-24.7-4.4-24.7s8.8,7.1,9.3,11.9c0,0,0.4-96.3-97.6-91.9c0,0,4.4-7.1,8-7.5c0,0-13.3,1.3-19,7.1
						c0,0,3.1-9.3,6.2-12.8c0,0-10.6,3.5-14.6,15.5c0,0-38,11.5-59.6,53c0,0,5.7-4,9.3-4.9c0,0-16.8,26.9-15.5,46.8
						c0,0,2.2-6.6,5.7-10.2c0,0,6.2,34-4.4,50.8c0,0,9.3-3.5,11-8c0,0-4,40.6-23,52.1c0,0,30.5,8.8,44.2-4.4c0,0-5.3,11.9-12.4,15.9
						c0,0,43.3,0.9,58.8-16.8c0,0,21.2,24.7,54.3,17.2c0,0-11.9-7.5-12.4-15c0,0,31.4,15.9,45.5,7.1c0,0-8.4-4-11.5-8.4
						C1109.4,363.7,1128.4,373.8,1147.8,357.5z M1095.7,353.7c1.8,4.9,7.5,13.7,7.5,13.7c-15,1-33.6-11.9-33.6-11.9
						c-4.4,5.3-0.4,17.7-0.4,17.7c-18.1,0-33.6-19.4-33.6-19.4c-10.8,17.9-49.5,18.2-49.5,18.2c8.5-5.9,11.1-23.5,11.1-23.5
						c-14,18.2-44.2,15.4-44.2,15.4c17.7-16.1,29.2-82.5,29.2-82.5l-13.7,24.2c0,0,0.8-10.9-1-30.8c-1.8-19.9,19.1-46.4,19.1-46.4
						c-4,2.7-8.8,4.4-8.8,4.4c17.9-38.4,54.9-47.6,54.9-47.6c-7.1,3.5-10.4,12.6-10.4,12.6c10.2-2.7,33.7-6.6,62,5.3
						c28.3,11.9,43.7,56.5,43.7,56.5s-14.1-14.6-9.7-4.4c4.4,10.2,12.8,26.3,6.2,54.8c-6.7,28.5,8.8,47.7,8.8,47.7
						C1112.4,362.5,1095.7,353.7,1095.7,353.7z"/>
				</g>
				<g>
					<path class="st32" d="M1087.6,199.8c0,0-3.4-2-6.4,5.4c-3,7.4,2,18.8,11.9,22.4c9.8,3.5,14.8-6.4,6-12.5
						C1090.3,208.8,1087.6,199.8,1087.6,199.8z"/>
					<g>
						<path class="st27" d="M1085.3,200.4c0,0,14-3,18-13.8c4-10.8-3.2-22.1-3.2-22.1s28.7,12.7,17.1,39.3
							c-11.5,26.6-24.7,22.6-24.7,22.6S1073.9,214.1,1085.3,200.4z"/>
						<path class="st28" d="M1113.8,198.8c-7.9,16.9-22.6,21.4-23.6,13.5c-0.9-7.9,5.2-15.8,5.2-15.8s-0.1-0.1-0.2-0.3
							c-4.9,3.2-9.9,4.3-9.9,4.3c-11.5,13.7,7.2,26,7.2,26s13.2,4,24.7-22.6c11.5-26.6-17.1-39.3-17.1-39.3
							S1121.7,181.9,1113.8,198.8z"/>
					</g>
				</g>
				<g>
					<path class="st32" d="M1003.7,199.8c0,0,3.4-2,6.4,5.4c3,7.4-2,18.8-11.9,22.4c-9.8,3.5-14.8-6.4-6-12.5
						C1001.1,208.8,1003.7,199.8,1003.7,199.8z"/>
					<g>
						<path class="st27" d="M1006,200.4c0,0-14-3-18-13.8c-4-10.8,3.2-22.1,3.2-22.1s-28.7,12.7-17.1,39.3
							c11.5,26.6,24.7,22.6,24.7,22.6S1017.5,214.1,1006,200.4z"/>
						<path class="st28" d="M977.5,198.8c7.9,16.9,22.6,21.4,23.6,13.5c0.9-7.9-5.2-15.8-5.2-15.8s0.1-0.1,0.2-0.3
							c4.9,3.2,9.9,4.3,9.9,4.3c11.5,13.7-7.2,26-7.2,26s-13.2,4-24.7-22.6c-11.5-26.6,17.1-39.3,17.1-39.3S969.6,181.9,977.5,198.8
							z"/>
					</g>
				</g>
				<g>
					<path class="st33" d="M1053.2,232.2c0,0,4.7-12,20.5-14.7c0,0-8.7-6.9-17.4,0.4C1047.7,225.2,1053.2,232.2,1053.2,232.2z"/>
					<g>
						<g>
							<g>
								<path class="st34" d="M1049.8,253.6c0.1,12.4,9.2,22.3,20.3,22.2c11.1-0.1,20-10.2,19.9-22.5c-0.1-12.4-9.2-22.3-20.3-22.2
									C1058.6,231.1,1049.7,241.2,1049.8,253.6z"/>
								<path class="st12" d="M1051,254c0.1,11.1,8.2,20.1,18.1,20c9.9-0.1,17.8-9.2,17.7-20.3c-0.1-11.1-8.2-20.1-18-20
									C1058.9,233.8,1050.9,242.9,1051,254z"/>
								<path class="st12" d="M1051,254c0.1,11.1,8.2,20.1,18.1,20c9.9-0.1,17.8-9.2,17.7-20.3c-0.1-11.1-8.2-20.1-18-20
									C1058.9,233.8,1050.9,242.9,1051,254z"/>
							</g>
							<path class="st13" d="M1071.5,234c7,2.2,12.2,9.4,12.3,18c0.1,10.4-7.3,18.9-16.5,19c-6.8,0.1-12.7-4.5-15.4-11.1
								c2.3,8.2,9.2,14.2,17.2,14.1c9.9-0.1,17.8-9.2,17.7-20.3C1086.7,243.6,1080.1,235.4,1071.5,234z"/>
						</g>
						<g>
							<path class="st33" d="M1061.7,253.8c0,4.2,3.1,7.5,6.8,7.5c3.7,0,6.7-3.4,6.6-7.6c0-4.2-3.1-7.5-6.8-7.5
								C1064.6,246.2,1061.6,249.6,1061.7,253.8z"/>
							<path class="st12" d="M1070.2,249.3c0,1.6,1.2,2.9,2.6,2.9c1.4,0,2.6-1.3,2.6-3c0-1.6-1.2-2.9-2.6-2.9
								C1071.3,246.4,1070.2,247.7,1070.2,249.3z"/>
						</g>
					</g>
				</g>
				<g>
					<path class="st33" d="M1034.1,239.9c0,0-6.1-9.9-20.6-9.7c0,0,6.6-7.5,15.5-2.5C1037.9,232.9,1034.1,239.9,1034.1,239.9z"/>
					<g>
						<g>
							<g>
								
									<ellipse transform="matrix(1 9.107312e-003 -9.107312e-003 1 2.3892 -9.2603)" class="st34" cx="1018" cy="257.7" rx="18.1" ry="20.2"/>
								<path class="st12" d="M1035,258.3c-0.1,10-7.4,18.1-16.3,18c-8.9-0.1-16-8.3-15.9-18.3c0.1-10,7.4-18.1,16.3-18
									C1027.9,240.1,1035,248.3,1035,258.3z"/>
								<path class="st12" d="M1035,258.3c-0.1,10-7.4,18.1-16.3,18c-8.9-0.1-16-8.3-15.9-18.3c0.1-10,7.4-18.1,16.3-18
									C1027.9,240.1,1035,248.3,1035,258.3z"/>
							</g>
							<path class="st13" d="M1016.5,240.2c-6.3,2-11,8.5-11.1,16.2c-0.1,9.4,6.6,17.1,14.9,17.1c6.1,0.1,11.5-4,13.9-10
								c-2.1,7.4-8.3,12.8-15.5,12.7c-8.9-0.1-16-8.3-15.9-18.3C1002.8,248.9,1008.8,241.5,1016.5,240.2z"/>
						</g>
						<g>
							<path class="st33" d="M1013,258.1c0,3.8,2.8,6.8,6.1,6.8c3.3,0,6-3.1,6-6.9c0-3.8-2.8-6.8-6.1-6.8
								C1015.7,251.2,1013,254.3,1013,258.1z"/>
							<path class="st12" d="M1020.7,254.1c0,1.5,1.1,2.6,2.4,2.6c1.3,0,2.3-1.2,2.3-2.7c0-1.5-1.1-2.6-2.4-2.6
								C1021.7,251.4,1020.7,252.6,1020.7,254.1z"/>
						</g>
					</g>
				</g>
				<g>
					<path class="st35" d="M995.1,306c-0.5-1.2,51.3-11,97.3-2.6c0,0-12.7,36.6-43.1,38.3C1018.8,343.3,1006.1,329.7,995.1,306z"/>
					<path class="st36" d="M1045.4,324.5c-16.6,0.3-25.7,11.4-26,11.7c7.7,4.2,17.2,6.2,29.9,5.5c9.1-0.5,16.7-4.1,22.7-9
						C1071.9,332.6,1062.1,324.2,1045.4,324.5z"/>
					<path class="st12" d="M1084.5,302.2c-5.7-0.8-11.4-1.3-17-1.7c0.1,3.4,0.9,9.9,5.8,11C1079.3,312.8,1083.5,306.7,1084.5,302.2z
						"/>
					<path class="st12" d="M1047.8,300.1c0.1,3.5,1.1,9.6,5.8,10.6c6.4,1.4,10.9-5.8,11.3-10.3C1059,300.1,1053.3,300,1047.8,300.1z
						"/>
					<path class="st12" d="M1033.8,311.9c6.6,0.5,10-7.2,9.8-11.8c-6.1,0.2-11.9,0.5-17.2,0.9
						C1026.9,304.1,1028.4,311.5,1033.8,311.9z"/>
					<path class="st12" d="M1003,304c0,0,2.2,11.4,9,11.1c6.8-0.3,9.2-9,8.2-13.4C1013.2,302.4,1007.3,303.3,1003,304L1003,304z"/>
				</g>
				<ellipse class="st37" cx="1044.9" cy="286.9" rx="6.8" ry="3.6"/>
			</g>
		</g>
	</g>
	<g>
		<ellipse class="st1" cx="495" cy="361.9" rx="100.1" ry="15.3"/>
		<g>
			<g>
				<g>
					<path class="st38" d="M415.7,284.9c0,0-28.6,1.7-36.4,9.9c0,0,6.7,3.5,2.8,8.9c-3.9,5.5-7.3-1.1-7.3-1.1s-4.6,8.9-10.6,4.7
						c-6-4.3,3-10.6,3-10.6s-8.1,1.1-5.8-6c2.3-7.1,9.4-2.1,9.4-2.1s-6.6-4.6-2.4-7.4c4.2-2.8,9.6,4.1,9.6,4.1s21.3-17.3,39-19.4
						C417.1,265.8,427,275.3,415.7,284.9z"/>
				</g>
				<g class="st16">
					<path class="st38" d="M364.2,307.3c-6-4.3,3-10.6,3-10.6s-8.1,1.1-5.8-6c0.7-2,1.7-3.1,2.9-3.5c-4.2,9.8,5.8,6.9,5.8,6.9
						s-5,6.9-0.9,9.9c4.1,3,4.6-5.2,4.6-5.2s2.8,3.6,6,2.2c3.2-1.4-2.4-7-2.4-7c2.5-8.7,42.4-15.3,43.1-15.4
						c-0.7,2.1-2.2,4.2-4.7,6.4c0,0-28.6,1.7-36.4,9.9c0,0,6.7,3.5,2.8,8.9c-3.9,5.5-7.3-1.1-7.3-1.1S370.2,311.6,364.2,307.3z"/>
					<path class="st18" d="M420.7,277.9L420.7,277.9C420.7,277.9,420.7,277.9,420.7,277.9z"/>
				</g>
			</g>
			<g>
				<path class="st38" d="M573.3,260.8c0,0,27.8,7.1,37.7,1.5c0,0-5.4-5.3,0-9.4c5.4-4,6.6,3.3,6.6,3.3s7.1-7.1,11.5-1.2
					c4.5,5.9-6.1,9.2-6.1,9.2s8.1,1.4,3.7,7.5c-4.4,6.1-9.6-0.8-9.6-0.8s4.9,6.4,0,7.8c-4.8,1.4-7.9-6.8-7.9-6.8
					s-25.5,10.1-43.1,6.7C566.2,278.6,559.7,266.6,573.3,260.8z"/>
				<path class="st39" d="M566.2,278.6c17.5,3.4,43.1-6.7,43.1-6.7s3.1,8.2,7.9,6.8c4.8-1.4,0-7.8,0-7.8s5.3,6.9,9.6,0.8
					c4.4-6.1-3.7-7.5-3.7-7.5s10.5-3.3,6.1-9.2c-2.4-3.1-5.4-2.6-7.8-1.4l0,0c0,0,4.9,0.2,5.9,3.9c1,3.7-6.9,6-6.9,6
					s3.3,2.6,2.7,5.7c-0.5,3.1-7.4-0.3-7.4-0.3s0.6,1.4-1.9,4c-2.5,2.6-4-4.2-4-4.2c-20,6.8-45.1,2.7-45.2,2.7
					C564.5,275.4,566.2,278.6,566.2,278.6z"/>
			</g>
			<g>
				<path class="st40" d="M475.4,348.2c0,0,21.2,24.7,54.3,17.2c0,0-11.9-7.5-12.4-15c0,0,31.4,15.9,45.5,7.1c0,0-8.4-4-11.5-8.4
					c0,0,19,10.2,38.4-6.2c0,0-19-14.1-20.3-38.4c0,0,7.1,10.2,11.9,11.5c0,0-8.8-29.2-8-39.8c0.9-10.6-4.4-24.7-4.4-24.7
					s8.8,7.1,9.3,11.9c0,0,0.4-96.3-97.6-91.9c0,0,4.4-7.1,8-7.5c0,0-13.3,1.3-19,7.1c0,0,3.1-9.3,6.2-12.8c0,0-10.6,3.5-14.6,15.5
					c0,0-38,11.5-59.6,53c0,0,5.7-4,9.3-4.9c0,0-16.8,26.9-15.5,46.8c0,0,2.2-6.6,5.7-10.2c0,0,6.2,34-4.4,50.8c0,0,9.3-3.5,11-8
					c0,0-4,40.6-23,52.1c0,0,30.5,8.8,44.2-4.4c0,0-5.3,11.9-12.4,15.9C416.6,365,459.9,365.9,475.4,348.2z"/>
				<path class="st41" d="M589.8,342.9c0,0-19-14.1-20.3-38.4c0,0,7.1,10.2,11.9,11.5c0,0-8.8-29.2-8-39.8
					c0.9-10.6-4.4-24.7-4.4-24.7s8.8,7.1,9.3,11.9c0,0,0.4-89.8-87.9-92c0.8,0.3,69.8,10.4,67.1,77.6c-2,51.2-9.7,68.9,2.7,86.6
					l-25.6-9.7c0,0-4.3,8.6-0.9,16.8c0,0-34.5-5.3-37.1-13.3c0,0,0,15.9,4.4,16.8c0,0-11.5,2.7-23.4-7.1c0,0-1.9,3.7-2.2,9.1
					c0.4,0.5,21.5,24.6,54.3,17.2c0,0-11.9-7.5-12.4-15c0,0,31.4,15.9,45.5,7.1c0,0-8.4-4-11.5-8.4
					C551.4,349.1,570.4,359.2,589.8,342.9z"/>
				<path class="st41" d="M589.8,342.9c0,0-19-14.1-20.3-38.4c0,0,7.1,10.2,11.9,11.5c0,0-8.8-29.2-8-39.8
					c0.9-10.6-4.4-24.7-4.4-24.7s8.8,7.1,9.3,11.9c0,0,0.4-96.3-97.6-91.9c0,0,4.4-7.1,8-7.5c0,0-13.3,1.3-19,7.1
					c0,0,3.1-9.3,6.2-12.8c0,0-10.6,3.5-14.6,15.5c0,0-38,11.5-59.6,53c0,0,5.7-4,9.3-4.9c0,0-16.8,26.9-15.5,46.8
					c0,0,2.2-6.6,5.7-10.2c0,0,6.2,34-4.4,50.8c0,0,9.3-3.5,11-8c0,0-4,40.6-23,52.1c0,0,30.5,8.8,44.2-4.4c0,0-5.3,11.9-12.4,15.9
					c0,0,43.3,0.9,58.8-16.8c0,0,21.2,24.7,54.3,17.2c0,0-11.9-7.5-12.4-15c0,0,31.4,15.9,45.5,7.1c0,0-8.4-4-11.5-8.4
					C551.4,349.1,570.4,359.2,589.8,342.9z M537.7,339.1c1.8,4.9,7.5,13.7,7.5,13.7c-15,1-33.6-11.9-33.6-11.9
					c-4.4,5.3-0.4,17.7-0.4,17.7c-18.1,0-33.6-19.4-33.6-19.4c-10.8,17.9-49.5,18.2-49.5,18.2c8.5-5.9,11.1-23.5,11.1-23.5
					c-14,18.2-44.2,15.4-44.2,15.4c17.7-16.1,29.2-82.5,29.2-82.5l-13.7,24.2c0,0,0.8-10.9-1-30.8c-1.8-19.9,19.1-46.4,19.1-46.4
					c-4,2.7-8.8,4.4-8.8,4.4c17.9-38.4,54.9-47.6,54.9-47.6c-7.1,3.5-10.4,12.6-10.4,12.6c10.2-2.7,33.7-6.6,62,5.3
					s43.7,56.5,43.7,56.5s-14.1-14.6-9.7-4.4c4.4,10.2,12.8,26.3,6.2,54.8c-6.7,28.5,8.8,47.7,8.8,47.7
					C554.4,347.9,537.7,339.1,537.7,339.1z"/>
			</g>
			<g>
				<g>
					<path class="st4" d="M577.2,301c0,0-30.7,40.8-84.8,44c0,0-2.6,22.4,10,34c0,0,9.5-19,39.7-1.5c0,0,17.5-43.8,61.8-17.5
						C603.9,360,579.9,326.9,577.2,301z"/>
					<path class="st18" d="M492.4,345c0,0,8,4.7,18.2,4.1c10.2-0.7,24.6-3,29.1,4.3c0,0,7.5-27.2,24.6-21.5
						c17.1,5.6,26.1,14.2,39.6,28.2c0,0-24-33.1-26.7-59C577.2,301,546.5,341.9,492.4,345z"/>
					<path class="st42" d="M502.2,359c0,2-1,3.6-2.2,3.6c-1.2,0-2.3-1.6-2.3-3.6c0-2,1-3.6,2.3-3.6C501.2,355.4,502.2,357,502.2,359
						z"/>
				</g>
				<g>
					<path class="st4" d="M408.6,301c0,0,30.7,40.8,84.8,44c0,0,2.6,22.4-10,34c0,0-9.5-19-39.7-1.5c0,0-17.6-43.8-61.8-17.5
						C381.9,360,405.9,326.9,408.6,301z"/>
					<path class="st18" d="M493.4,345c0,0-8,4.7-18.2,4.1c-10.2-0.7-24.6-3-29.1,4.3c0,0-7.5-27.2-24.6-21.5
						c-17.1,5.6-26.1,14.2-39.6,28.2c0,0,24-33.1,26.7-59C408.6,301,439.3,341.9,493.4,345z"/>
					<path class="st42" d="M483.6,359c0,2,1,3.6,2.2,3.6c1.2,0,2.3-1.6,2.3-3.6c0-2-1-3.6-2.3-3.6C484.6,355.4,483.6,357,483.6,359z
						"/>
				</g>
			</g>
			<g>
				<g>
					<path class="st43" d="M503.1,228.5c0,0,8.3-11.6,25.9-10.2c0,0-7.4-9.7-18.7-4.2C499.1,219.6,503.1,228.5,503.1,228.5z"/>
					<g>
						<g>
							<g>
								<path class="st44" d="M494,253.3c0.1,13.6,10.1,24.5,22.4,24.4c12.2-0.1,22-11.2,21.9-24.8c-0.1-13.6-10.1-24.5-22.3-24.4
									C503.7,228.6,493.9,239.7,494,253.3z"/>
								<path class="st12" d="M495.4,253.8c0.1,12.3,9,22.1,19.9,22c10.9-0.1,19.6-10.1,19.5-22.4c-0.1-12.3-9-22.1-19.9-22
									C504,231.6,495.3,241.6,495.4,253.8z"/>
								<path class="st12" d="M495.4,253.8c0.1,12.3,9,22.1,19.9,22c10.9-0.1,19.6-10.1,19.5-22.4c-0.1-12.3-9-22.1-19.9-22
									C504,231.6,495.3,241.6,495.4,253.8z"/>
							</g>
							<path class="st13" d="M517.9,231.7c7.7,2.4,13.4,10.3,13.5,19.8c0.1,11.5-8.1,20.8-18.2,20.9c-7.5,0.1-14-4.9-16.9-12.2
								c2.5,9.1,10.1,15.6,19,15.5c10.9-0.1,19.6-10.1,19.5-22.4C534.6,242.4,527.3,233.3,517.9,231.7z"/>
						</g>
						<g>
							
								<ellipse transform="matrix(1 9.134329e-003 -9.134329e-003 1 2.3626 -4.6507)" class="st43" cx="510.3" cy="256.3" rx="7.4" ry="8.3"/>
							
								<ellipse transform="matrix(1 9.224345e-003 -9.224345e-003 1 2.3411 -4.6518)" class="st12" cx="505.5" cy="251.5" rx="2.9" ry="3.2"/>
						</g>
					</g>
				</g>
				<g>
					<path class="st43" d="M474.3,228.5c0,0-8.3-11.6-25.9-10.2c0,0,7.4-9.7,18.7-4.2C478.3,219.6,474.3,228.5,474.3,228.5z"/>
					<g>
						<g>
							<g>
								<path class="st44" d="M483.4,253.3c-0.1,13.6-10.1,24.5-22.4,24.4c-12.2-0.1-22-11.2-21.9-24.8
									c0.1-13.6,10.1-24.5,22.3-24.4C473.7,228.6,483.5,239.7,483.4,253.3z"/>
								<path class="st12" d="M482,253.8c-0.1,12.3-9,22.1-19.9,22c-10.9-0.1-19.6-10.1-19.5-22.4c0.1-12.3,9-22.1,19.9-22
									C473.4,231.6,482.1,241.6,482,253.8z"/>
								<path class="st12" d="M482,253.8c-0.1,12.3-9,22.1-19.9,22c-10.9-0.1-19.6-10.1-19.5-22.4c0.1-12.3,9-22.1,19.9-22
									C473.4,231.6,482.1,241.6,482,253.8z"/>
							</g>
							<path class="st13" d="M459.5,231.7c-7.7,2.4-13.4,10.3-13.5,19.8c-0.1,11.5,8.1,20.8,18.2,20.9c7.5,0.1,14-4.9,16.9-12.2
								c-2.5,9.1-10.1,15.6-19,15.5c-10.9-0.1-19.6-10.1-19.5-22.4C442.8,242.4,450.1,233.3,459.5,231.7z"/>
						</g>
						<g>
							
								<ellipse transform="matrix(1 8.998876e-003 -8.998876e-003 1 2.3215 -4.1845)" class="st43" cx="466.2" cy="255.9" rx="7.4" ry="8.3"/>
							<path class="st12" d="M464.2,251.1c0,1.8-1.3,3.2-2.9,3.2c-1.6,0-2.8-1.5-2.8-3.2c0-1.8,1.3-3.2,2.9-3.2
								C462.9,247.8,464.2,249.3,464.2,251.1z"/>
						</g>
					</g>
				</g>
			</g>
			<g>
				<g>
					<g>
						<path class="st45" d="M422.9,190.2c0,0-28,4.1-22,11.7c6,7.6,39.6,15.5,72.6,2.9c33-12.6,60.7-30.1,56.5-43.5
							c-4.3-13.4-34.5,2.7-44.8,9.5C474.9,177.6,455.8,187.7,422.9,190.2z"/>
						<path class="st46" d="M530,161.3c-2.2-6.9-11.3-6-21.1-2.5c0.3-0.1,18.5-3.6,11.8,12.6c-6.8,16.3-56.3,34.7-77,35.5
							c-20.8,0.8-41.9-6.4-20.6-14.4c2.9-1.1,4.6-2,5.4-2.9c-1.8,0.2-3.6,0.4-5.5,0.5c0,0-28,4.1-22,11.7c6,7.6,39.6,15.5,72.6,2.9
							C506.5,192.2,534.3,174.7,530,161.3z"/>
					</g>
					<path class="st47" d="M474.9,105.6c0,0,1.6,41.9,24.5,62.5c0,0-13.2,30.7-76.5,27.6c0,0,3.9-30.3-30.3-51.2
						C392.6,144.4,438.4,109.1,474.9,105.6z"/>
					<path class="st45" d="M474.8,105.1c1.7,4.1-15.3,16.2-38,27c-22.7,10.9-42.5,16.4-44.2,12.3c-1.7-4.1,15.3-16.2,38-27.1
						C453.3,106.5,473.1,101,474.8,105.1z"/>
				</g>
				<path class="st48" d="M431,199.7c-10.6-0.7,2-7.3-0.7-17.2c-2.7-9.9-6.6-32.5-12.5-42.2c-4.4-7.3,27.6-24.2,43.8-32.2
					c-33.4,8.9-69,36.3-69,36.3c25.3,15.5,29.7,36.1,30.3,45.8c0,0-28,4.1-22,11.7c6,7.6,39.6,15.5,72.6,2.9
					c11.7-4.5,22.8-9.6,32-14.9C473.4,206.6,441.6,200.4,431,199.7z"/>
			</g>
			<g>
				<path class="st38" d="M467.4,308.9c0,0,25.6,3.1,46.4-12.8c0,0,2.1,8.7-21.2,14.8C479.1,314.4,467.4,308.9,467.4,308.9z"/>
				<g>
					<path class="st36" d="M500.1,303.9c0,0,2.6-5.6-1.6-9.6c-4.2-4-3.3-6.6,3.5-8s12,2.9,11.7,9.7
						C513.8,296,506.9,301.5,500.1,303.9z"/>
					<path class="st2" d="M513.8,296c0.2-6.8-4.9-11-11.7-9.7c-0.6,0.1-1.2,0.3-1.7,0.4c0.6,0,9.3,0.2,10.1,5.5
						c0.9,5.5-3.8,8.4-5.7,6.4c-2-2-3.5-3.5-6.2-4.4c4.2,4,1.6,9.6,1.6,9.6C506.9,301.5,513.8,296,513.8,296z"/>
				</g>
			</g>
			<path class="st38" d="M493.4,283.9c0,2-3.1,3.6-6.8,3.6c-3.8,0-6.8-1.6-6.8-3.6c0-2,3.1-3.6,6.8-3.6
				C490.4,280.2,493.4,281.8,493.4,283.9z"/>
			<g>
				<path class="st49" d="M424.4,288.6c1.4,2.5,3,5.1,4.6,7.9c-1.7,1.3-3.3,2.7-5,4c-1.9,1.5-1.3,3.7,0.7,2.1
					c1.8-1.4,3.6-2.9,5.4-4.3c0.9,1.4,1.8,2.9,2.8,4.4c-1.4,1.3-2.8,2.7-4.2,4c-1.8,1.7-0.4,3.1,1.4,1.4c1.3-1.2,2.6-2.4,3.9-3.7
					c0.7,1.1,1.3,2.1,2,3.3c-1.4,1.2-2.8,2.4-4.2,3.6c-1.9,1.6-1.2,3.7,0.7,2.1c1.6-1.3,3.1-2.7,4.7-4c1,1.6,2.1,3.3,3.2,5
					c-1.7,1.8-3.5,3.6-5.2,5.3c-1.8,1.8-0.3,3.2,1.5,1.4c1.6-1.7,3.3-3.3,4.9-5c1.2,1.7,2.4,3.5,3.7,5.3c-1.2,1.5-2.4,2.9-3.6,4.4
					c-1.6,1.9,0.5,2.5,2.1,0.6c0.9-1.1,1.8-2.2,2.8-3.3c1.3,1.7,2.6,3.4,4.1,5.1c-1.2,1.5-2.4,2.9-3.6,4.4c-1.6,1.9,0.5,2.5,2.1,0.6
					c0.9-1.1,1.9-2.3,2.8-3.4c1.4,1.6,2.9,3.3,4.5,4.9c1.4,1.4,4.2-1.4,2.7-2.8c-1.7-1.7-3.3-3.3-4.8-5c1.2-1.5,2.4-2.9,3.6-4.4
					c1.6-1.9-0.5-2.5-2.1-0.6c-0.9,1.2-1.9,2.3-2.9,3.5c-1.5-1.7-2.8-3.3-4.2-5c0.9-1.1,1.8-2.1,2.7-3.2c1.6-1.9-0.5-2.5-2.1-0.6
					c-0.6,0.7-1.2,1.5-1.8,2.2c-1.3-1.7-2.5-3.3-3.6-4.9c1.4-1.5,2.9-3,4.3-4.5c1.8-1.8,0.3-3.2-1.4-1.4c-1.4,1.4-2.7,2.8-4.1,4.2
					c-1.1-1.6-2.2-3.1-3.2-4.7c0.6-0.5,1.2-1.1,1.8-1.6c1.9-1.6,1.2-3.7-0.7-2.1c-0.8,0.7-1.5,1.3-2.3,2c-0.8-1.1-1.5-2.2-2.2-3.3
					c0.6-0.6,1.3-1.2,1.9-1.8c1.8-1.7,0.4-3.1-1.5-1.4c-0.5,0.5-1.1,1-1.6,1.5c-0.9-1.4-1.9-2.8-2.7-4.1c0.9-0.7,1.8-1.4,2.7-2.1
					c1.9-1.6,1.3-3.7-0.7-2.1c-1,0.8-2.1,1.7-3.1,2.5c-1.7-2.7-3.3-5.2-4.8-7.7C425.9,286.3,423.9,287.8,424.4,288.6z"/>
			</g>
			<g>
				<path class="st49" d="M544,282.3c0.8-1.9,1.7-3.9,2.5-6c1.5,0.4,2.9,0.8,4.4,1.1c1.7,0.4,2.6-0.8,0.9-1.3
					c-1.6-0.4-3.2-0.8-4.8-1.2c0.4-1.1,0.9-2.3,1.4-3.5c1.4,0.2,2.7,0.5,4.1,0.7c1.8,0.3,1.9-1.1,0.2-1.4c-1.2-0.2-2.5-0.4-3.7-0.7
					c0.3-0.8,0.7-1.7,1-2.5c1.3,0.3,2.6,0.6,3.9,0.9c1.7,0.4,2.7-0.9,0.9-1.3c-1.4-0.3-2.8-0.6-4.3-1c0.5-1.3,1-2.6,1.5-4
					c1.8,0.2,3.5,0.5,5.3,0.7c1.8,0.2,2-1.2,0.2-1.4c-1.6-0.2-3.3-0.4-4.9-0.7c0.5-1.4,1-2.8,1.4-4.3c1.4,0.1,2.7,0.1,4.1,0.2
					c1.8,0.1,1.2-1.4-0.6-1.5c-1,0-2.1-0.1-3.1-0.2c0.4-1.5,0.8-3,1.2-4.5c1.3,0.1,2.7,0.1,4,0.2c1.8,0.1,1.2-1.4-0.6-1.5
					c-1,0-2.1-0.1-3.1-0.2c0.3-1.5,0.6-3.1,0.9-4.7c0.2-1.4-2.6-1.8-2.7-0.4c-0.2,1.7-0.5,3.3-0.8,4.9c-1.3-0.1-2.7-0.1-4-0.2
					c-1.8-0.1-1.2,1.4,0.6,1.5c1.1,0.1,2.1,0.1,3.2,0.2c-0.3,1.5-0.7,3-1.1,4.5c-1-0.1-2-0.1-3-0.2c-1.8-0.1-1.2,1.4,0.6,1.5
					c0.7,0,1.3,0.1,2,0.1c-0.4,1.4-0.8,2.8-1.3,4.2c-1.5-0.2-2.9-0.4-4.4-0.6c-1.8-0.2-2,1.2-0.2,1.4c1.4,0.2,2.8,0.4,4.1,0.5
					c-0.4,1.3-0.9,2.6-1.3,3.8c-0.6-0.1-1.1-0.3-1.7-0.4c-1.7-0.4-2.7,0.9-0.9,1.3c0.7,0.2,1.4,0.3,2.1,0.5c-0.3,0.9-0.6,1.8-1,2.6
					c-0.6-0.1-1.2-0.2-1.9-0.3c-1.8-0.3-1.9,1.1-0.2,1.4c0.5,0.1,1,0.2,1.5,0.3c-0.4,1.1-0.8,2.2-1.2,3.3c-0.8-0.2-1.6-0.4-2.3-0.6
					c-1.7-0.4-2.6,0.8-0.9,1.3c0.9,0.2,1.8,0.5,2.8,0.7c-0.8,2.1-1.6,4.1-2.4,6C542.1,282.3,543.8,282.8,544,282.3z"/>
			</g>
		</g>
	</g>
</g>
</svg>
