<?xml version="1.0" encoding="utf-8"?>
<!-- Generator: Adobe Illustrator 20.0.0, SVG Export Plug-In . SVG Version: 6.00 Build 0)  -->
<svg version="1.1" id="Layer_1" xmlns="http://www.w3.org/2000/svg" xmlns:xlink="http://www.w3.org/1999/xlink" x="0px" y="0px"
	 viewBox="0 0 1080 248.7" style="enable-background:new 0 0 1080 248.7;" xml:space="preserve">
<style type="text/css">
	.st0{opacity:0.75;fill:#EDC003;}
</style>
<g>
	<path class="st0" d="M269.1,82.1c-4.8-1.6-10.3-2.5-16.5-2.5c-17.4,0-30.5,7.6-34.6,10.2c-0.8,0.5-1.1,1.5-0.6,2.3l8.4,17.1
		c0.5,1,1.6,1.3,2.6,0.8c3.7-2.2,13-7.1,21.5-7.1c7.2,0,12.7,2.3,12.7,9.5v1.5h-1.2c-13.3,0-49.8,2.8-49.8,27.8
		c0,17,13.1,27.6,29.1,27.6c18,0,24.3-12.5,24.3-12.5h0.3c0,0-0.3,2.5-0.3,5.3v3.3c0,1,0.8,1.8,1.8,1.8h22.6c1,0,1.8-0.8,1.8-1.8
		v-0.4l-22.7-81.2C268.3,83.2,268.6,82.5,269.1,82.1z M248.6,147.4c-5.7,0-8.2-3.2-8.2-7.2c0-7.2,10.5-9.8,19.6-9.8h0.8
		c1,0,1.8,0.8,1.8,1.8C262.8,139.2,256.1,147.4,248.6,147.4z"/>
	<path class="st0" d="M402.8,83.6c0.1-1.1-0.7-2-1.8-2h-26.1c-0.9,0-1.6,0.6-1.8,1.5l-10.3,49.1c-1,4.7-1.2,9-1.2,9h-0.3
		c0,0-0.2-4.3-1.3-9L348.4,83c-0.2-0.8-0.9-1.4-1.8-1.4h-21.7c-0.9,0-1.6,0.6-1.8,1.4l-11.5,49.2c-1.2,4.7-1.5,9-1.5,9h-0.3
		c0,0,0-4.3-1-9l-10.3-49.1c-0.2-0.8-0.9-1.5-1.8-1.5h-26.4c-0.5,0-0.9,0.2-1.2,0.5c14.1,4.8,22.2,16.2,22.2,32.5v50.5l0.2,0.9
		c0.2,0.8,0.9,1.3,1.8,1.3h29.6c0.8,0,1.6-0.6,1.8-1.4l9.3-38.2c1.2-4.7,1.7-9.2,1.7-9.2h0.3c0,0,0.5,4.5,1.7,9.2l9.3,38.2
		c0.2,0.8,0.9,1.4,1.8,1.4H378c0.8,0,1.5-0.5,1.8-1.3l4.9-17.6c-4.4-7.2-6.7-15.5-6.7-24C378,106,387.1,90.6,402.8,83.6z"/>
	<path class="st0" d="M445.1,155.4l8.7-13.6l-1.7-3.2c-0.5-1-1.7-1.3-2.6-0.7c-3.6,2.4-12.5,7.5-22,7.5c-8.4,0-16.4-4.1-19.3-12.9
		c-0.4-1.2,0.5-2.4,1.7-2.4h50.1c0.8,0,1.4-0.5,1.7-1.2c-8-4.7-14.9-11.6-14.9-23.2c0-5.6,1.9-10.5,5.1-14.4
		c-6.7-7.3-16.6-11.7-29.2-11.7c-7.4,0-14.1,1.4-19.9,4c0,0.1,0,0.2,0,0.3l-18,64.4c7.5,12.2,21.2,21,40.4,21
		c11.9,0,21.3-3.4,27.6-6.6c-3.5-1.9-6-3.8-7.3-4.9C444.7,157.2,444.6,156.1,445.1,155.4z M408.9,111.1c1.9-5.3,5.9-9.9,13.1-9.9
		c6.1,0,10.3,4.6,11.2,10.2c0.2,1.1-0.7,2.1-1.8,2.1h-20.7C409.3,113.6,408.4,112.3,408.9,111.1z"/>
	<path class="st0" d="M495,124.7c0-2.4,0.2-4.8,0.5-7.1c-10.6-5.2-22-7.1-22-10.5c0-3,4.2-4.2,8.5-4.2c7,0,12.8,2.4,16.3,4.4
		c2.9-7,7.5-12.8,13.3-17.4c0-0.5-0.2-1.1-0.7-1.4c-3.1-2.5-12.9-8.9-29-8.9c-12.9,0-24,4.3-30.2,11.7c6.8,7.4,10.4,17.8,10.4,29.7
		c0,1.9-0.3,5.3-0.5,7.3c0,0.2-0.1,0.3-0.1,0.5c11.4,6.6,25.2,8.7,25.2,13.1c0,2.8-4.2,4-8.5,4c-9.4,0-17.1-5-20.3-7.4
		c-0.9-0.6-2.1-0.4-2.6,0.5l-1.7,2.6l7.3,13.8c0.4,0.8,0.2,1.8-0.5,2.3c-1.4,1.1-4.1,3-7.8,4.9c5.9,3.3,14.7,6.6,25.8,6.6
		c14.2,0,24.6-5.1,30.2-12.6C500.2,148.9,495,137.9,495,124.7z"/>
	<path class="st0" d="M543.4,79.6c-12.1,0-23.2,3.7-31.7,10.3c0,0.3,0,0.5-0.2,0.8l-8.3,17.2c-0.5,1-1.7,1.4-2.7,0.7
		c-0.6-0.4-1.4-0.9-2.3-1.4c-1.3,3.2-2.3,6.7-2.9,10.3c9.4,4.6,18.2,11.7,18.2,24.6c0,5.3-1.7,10.3-4.9,14.5
		c8.8,8,21.1,12.6,34.8,12.6c12.6,0,24-3.9,32.6-10.7V90.5C567.5,83.6,556.1,79.6,543.4,79.6z M543.6,145.4
		c-10.5,0-19.5-7.8-19.5-20.6c0-13,9-21.1,19.5-21.1s19.5,8.2,19.5,21.1C563,137.5,554.1,145.4,543.6,145.4z"/>
	<path class="st0" d="M653.5,94.1h-0.3c-4.5-9.7-13.2-14.5-24-14.5c-13.5,0-21.5,8.8-25.5,14.8h-0.3c0,0,0.3-2.5,0.3-5.3v-5.7
		c0-1-0.8-1.8-1.8-1.8h-24c-1,0-1.8,0.8-1.8,1.8v7.1c9.9,7.9,16,19.8,16,34.2c0,14.3-6.2,26.1-16,33.9v6.9c0,1,0.8,1.8,1.8,1.8h25.1
		c1,0,1.8-0.8,1.8-1.8v-33.6c0-3.7,0.2-7.5,0.8-10.7c2-9.2,6.7-15.5,15.6-15.5c5.5,0,6.7,4.5,6.7,10.8v48.9c0,1,0.8,1.8,1.8,1.8H655
		c1,0,1.8-0.8,1.8-1.8v-33.6c0-3.5,0-7,0.7-10c1.8-9.5,6.7-16.1,15.8-16.1c5.5,0,6.7,4.5,6.7,10.8v48.9c0,1,0.8,1.8,1.8,1.8h15.9
		c-1,0-1.8-0.8-1.8-1.8V83.4c0-0.1,0-0.2,0-0.3c-4.3-2.4-9.4-3.5-15-3.5C668.2,79.6,658,86.9,653.5,94.1z"/>
	<path class="st0" d="M709.2,155.4l10.4-16.3c0.6-0.9,1.8-1.1,2.6-0.5c0.6,0.5,1.5,1.1,2.5,1.7v-12.1c-7.6-4.7-13.9-11.5-13.9-22.5
		c0-9.5,5.4-16.9,13.9-21.3v-1c0-1-0.8-1.8-1.8-1.8h-25.1c-0.9,0-1.7,0.7-1.8,1.5c7.8,4.4,12.8,13.4,12.8,28.6v53.8
		c0,1-0.8,1.8-1.8,1.8h15.9c0.8,0,1.4-0.5,1.7-1.2c-7.6-2.7-12.8-6.6-15-8.4C708.9,157.2,708.7,156.1,709.2,155.4z"/>
	<path class="st0" d="M769.8,124.2c-11.7-10.7-32.1-12.5-32.1-17.1c0-3,4.2-4.2,8.5-4.2c8.8,0,15.6,3.7,18.6,5.8
		c0.9,0.6,2.2,0.3,2.7-0.7l1.1-2.3c-0.2-0.1-0.4-0.1-0.6-0.1h-7.3c-1,0-1.8-0.8-1.8-1.8V83.4c0-1,0.8-1.8,1.8-1.8h0.2
		c-4.1-1.1-9-2-14.7-2c-8.1,0-15.5,1.7-21.4,4.8v43.9c11.6,7.1,26.3,9.2,26.3,13.8c0,2.8-4.2,4-8.5,4c-7.5,0-13.9-3.2-17.8-5.7v25.1
		c0,0.2,0,0.5-0.1,0.7c5,1.8,11.1,3.2,18.1,3.2c15.9,0,27-6.4,32.1-15.4c-3.1-4.5-5-10.4-5-18.2V124.2z"/>
	<path class="st0" d="M801.7,155.4l8.1-12.8c-5.3-0.7-11.3-3.2-11.3-10.7v-24.5c0-1,0.8-1.8,1.8-1.8h3c0.1-9.2,5.1-16.4,13.2-20.8
		v-1.4c0-1-0.8-1.8-1.8-1.8h-53.9c7.5,2.1,12.3,5.3,14.3,6.9c0.7,0.5,0.9,1.5,0.5,2.2l-7.2,15c0.7,0.2,1.3,0.9,1.3,1.7v16.8
		c4.7,4.3,8,10,8,18c0,4.1-1,8.1-3,11.7c8.3,12.3,25.1,14.3,35.1,14.3c2.6,0,4.8-0.2,6.2-0.3c0.8-0.1,1.5-0.7,1.6-1.5
		c-7.9-2.8-13.3-6.7-15.6-8.6C801.4,157.2,801.2,156.1,801.7,155.4z"/>
	<path class="st0" d="M830.2,107.1c0-3,4.2-4.2,8.5-4.2c8.8,0,15.6,3.7,18.6,5.8c0.9,0.6,2.2,0.3,2.7-0.7l8.3-17.2
		c0.4-0.8,0.2-1.7-0.5-2.2c-3.1-2.5-12.9-8.9-29-8.9c-8.4,0-16.1,1.8-22.1,5.2v19c0,1-0.8,1.8-1.8,1.8h-11.4c0,0.1,0,0.1,0,0.2
		c0,28,40.1,28.8,40.1,36.3c0,2.8-4.2,4-8.5,4c-9.4,0-17.1-5-20.3-7.4c-0.9-0.6-2.1-0.4-2.6,0.5l-2.2,3.5c1.5,0.2,2.9,0.3,4,0.3
		c0.7,0,1.4,0,1.9,0c1,0,1.9,0.8,1.9,1.8V166c0,0.1,0,0.2,0,0.3c4.9,1.7,10.8,2.9,17.5,2.9c22.1,0,35.1-12.5,35.1-27.1
		C870.3,114.6,830.2,113.6,830.2,107.1z"/>
</g>
</svg>
