<?xml version="1.0" encoding="utf-8"?>
<!-- Generator: Adobe Illustrator 19.0.0, SVG Export Plug-In . SVG Version: 6.00 Build 0)  -->
<svg version="1.1" id="Layer_1" 
	 xmlns="http://www.w3.org/2000/svg" xmlns:xlink="http://www.w3.org/1999/xlink" x="0px" y="0px" width="936px" height="217px"
	 viewBox="-11 172 936 217" style="enable-background:new -11 172 936 217;" xml:space="preserve">
<style type="text/css">
	.st0{fill:#FFFFFF;}
	.st1{fill:#EA541E;}
</style>

<g>
	<path class="st0" d="M68.6,265.4h1.3v-1.6c0-7.6-5.8-10-13.3-10c-8.8,0-18.6,5.1-22.6,7.5c-0.9,0.5-2.2,0.2-2.7-0.8l-8.8-18
		c-0.4-0.8-0.1-1.9,0.6-2.4c4.3-2.8,18.1-10.7,36.4-10.7c25.3,0,40.6,13.9,40.6,36.8v53.5c0,1.1-0.8,1.9-1.9,1.9H74.5
		c-1.1,0-1.9-0.8-1.9-1.9v-3.5c0-2.9,0.3-5.6,0.3-5.6h-0.3c0,0-6.6,13.1-25.5,13.1c-16.8,0-30.6-11.2-30.6-29
		C16.2,268.5,54.5,265.4,68.6,265.4z M55.2,300.6c7.9,0,14.8-8.6,14.8-15.9l0,0c0-1.1-0.8-1.9-1.9-1.9h-0.8
		c-9.7,0-20.6,2.8-20.6,10.3C46.6,297.3,49.2,300.6,55.2,300.6z"/>
	<path class="st0" d="M99,231.5h27.7c0.9,0,1.7,0.6,1.9,1.6l10.8,51.6c1.1,4.9,1.1,9.5,1.1,9.5h0.3c0,0,0.3-4.5,1.6-9.5l12.1-51.7
		c0.2-0.8,0.9-1.5,1.9-1.5h22.8c0.9,0,1.7,0.6,1.9,1.5l12.1,51.7c1.3,4.9,1.4,9.5,1.4,9.5h0.3c0,0,0.2-4.5,1.3-9.5l10.8-51.6
		c0.2-0.8,0.9-1.6,1.9-1.6h27.4c1.3,0,2.2,1.3,1.9,2.4l-24.1,86.3c-0.2,0.8-0.9,1.4-1.9,1.4h-30.8c-0.8,0-1.7-0.6-1.9-1.5l-9.8-40.1
		c-1.3-4.9-1.8-9.7-1.8-9.7h-0.3c0,0-0.5,4.7-1.8,9.7l-9.8,40.1c-0.2,0.8-0.9,1.5-1.9,1.5H123c-0.8,0-1.6-0.5-1.9-1.4l-24-86.2
		C96.8,232.7,97.8,231.5,99,231.5z"/>
	<path class="st1" d="M258.6,233.2c23.8-11.9,45.5-2.1,56.7,20.2c0.9,1.8,2.2,5.1,3,7.1c0.3,0.8,0,1.9-0.9,2.4l-47,23.6
		c-1.3,0.6-1.4,2.1-0.5,3c6.8,6.9,16.4,7,24.2,3c8.9-4.5,14.8-13.6,17.1-17.4c0.5-0.9,1.8-1.3,2.7-0.6l16.5,11.7
		c0.7,0.5,1,1.6,0.6,2.4c-2.2,4.5-10,18.6-27.8,27.5c-28.8,14.5-54.6,1.5-65.4-19.9C226,272.8,232.7,246.3,258.6,233.2z
		 M282.8,261.1c1.1-0.5,1.4-1.9,0.7-2.8c-3.5-4.9-9.6-7.1-15.3-4.3c-6.8,3.4-8.4,9.5-7.7,15.5c0.2,1.3,1.6,2,2.7,1.4
		C263.3,270.8,282.8,261.1,282.8,261.1z"/>
	<path class="st0" d="M335.6,291.9c0.6-0.9,1.9-1.2,2.7-0.5c3.4,2.5,11.5,7.8,21.3,7.8c4.5,0,8.9-1.3,8.9-4.2
		c0-7.9-42.1-8.7-42.1-38.1c0-16.9,16.3-27.4,37.1-27.4c16.9,0,27.2,6.7,30.5,9.4c0.7,0.5,0.9,1.6,0.5,2.3l-8.7,18.1
		c-0.5,1.1-1.8,1.5-2.8,0.7c-3.2-2.1-10.3-6.1-19.5-6.1c-4.5,0-8.9,1.3-8.9,4.4c0,6.8,42.1,7.9,42.1,36.9
		c0,15.3-13.7,28.5-36.9,28.5c-18.5,0-30.9-8.9-34.8-12.2c-0.7-0.6-0.9-1.7-0.4-2.5L335.6,291.9z"/>
	<path class="st0" d="M449.1,229.4c28.5,0,51.3,19,51.3,47.4c0,28.2-22.7,46.9-51.1,46.9c-28.4,0-51.1-18.7-51.1-46.9
		C398.2,248.5,420.9,229.4,449.1,229.4z M449.3,298.5c11,0,20.5-8.2,20.5-21.6c0-13.7-9.5-22.2-20.5-22.2s-20.5,8.6-20.5,22.2
		C428.8,290.3,438.2,298.5,449.3,298.5z"/>
	<path class="st0" d="M506.4,231.5h25.2c1.1,0,1.9,0.8,1.9,1.9v6c0,2.9-0.3,5.6-0.3,5.6h0.3c4.2-6.3,12.6-15.6,26.8-15.6
		c11.3,0,20.5,5,25.2,15.2h0.3c4.7-7.6,15.3-15.2,28.9-15.2c16.4,0,29.2,8.9,29.2,33.7v56.5c0,1.1-0.8,1.9-1.9,1.9h-26.4
		c-1.1,0-1.9-0.8-1.9-1.9v-51.4c0-6.6-1.3-11.3-7-11.3c-9.7,0-14.7,7-16.6,16.9c-0.7,3.2-0.7,6.8-0.7,10.5v35.3
		c0,1.1-0.8,1.9-1.9,1.9h-26.4c-1.1,0-1.9-0.8-1.9-1.9v-51.4c0-6.6-1.3-11.3-7-11.3c-9.5,0-14.3,6.6-16.4,16.3
		c-0.7,3.4-0.8,7.4-0.8,11.2v35.3c0,1.1-0.8,1.9-1.9,1.9h-26.4c-1.1,0-1.9-0.8-1.9-1.9v-86.3C504.4,232.4,505.4,231.5,506.4,231.5z"
		/>
	<path class="st0" d="M653.3,231.5h26.4c1.1,0,1.9,0.8,1.9,1.9v86.3c0,1.1-0.8,1.9-1.9,1.9h-26.4c-1.1,0-1.9-0.8-1.9-1.9v-86.2
		C651.4,232.4,652.3,231.5,653.3,231.5z"/>
	<path class="st0" d="M697.3,291.9c0.6-0.9,1.9-1.2,2.7-0.5c3.4,2.5,11.5,7.8,21.3,7.8c4.5,0,8.9-1.3,8.9-4.2
		c0-7.9-42.1-8.7-42.1-38.1c0-16.9,16.3-27.4,37.1-27.4c16.9,0,27.2,6.7,30.5,9.4c0.7,0.5,0.9,1.6,0.5,2.3l-8.7,18.1
		c-0.5,1.1-1.8,1.5-2.8,0.7c-3.2-2.1-10.3-6.1-19.5-6.1c-4.5,0-8.9,1.3-8.9,4.4c0,6.8,42.1,7.9,42.1,36.9
		c0,15.3-13.7,28.5-36.9,28.5c-18.5,0-30.9-8.9-34.8-12.2c-0.7-0.6-0.9-1.7-0.4-2.5L697.3,291.9z"/>
	<path class="st0" d="M818.2,231.5c1.1,0,1.9,0.8,1.9,1.9v21.4c0,1.1-0.8,1.9-1.9,1.9h-15c-1.1,0-1.9,0.8-1.9,1.9v25.7
		c0,10.2,10.3,11.6,16.1,11.6c0.7,0,1.5,0,2,0c1.1,0,2,0.8,2,1.9v22.5c0,0.9-0.7,1.8-1.7,1.9c-1.5,0.1-3.7,0.3-6.5,0.3
		c-14.3,0-42.1-3.9-42.1-34.2v-29.7c0-1.1-0.8-1.9-1.9-1.9h-7.7c-1.1,0-1.9-0.8-1.9-1.9v-21.4c0-1.1,0.8-1.9,1.9-1.9L818.2,231.5
		L818.2,231.5z"/>
	<path class="st0" d="M836.5,291.9c0.6-0.9,1.9-1.2,2.7-0.5c3.4,2.5,11.5,7.8,21.3,7.8c4.5,0,8.9-1.3,8.9-4.2
		c0-7.9-42.1-8.7-42.1-38.1c0-16.9,16.3-27.4,37.1-27.4c16.9,0,27.2,6.7,30.5,9.4c0.7,0.5,0.9,1.6,0.5,2.3l-8.7,18.1
		c-0.5,1.1-1.8,1.5-2.8,0.7c-3.2-2.1-10.3-6.1-19.5-6.1c-4.5,0-8.9,1.3-8.9,4.4c0,6.8,42.1,7.9,42.1,36.9
		c0,15.3-13.7,28.5-36.9,28.5c-18.5,0-30.9-8.9-34.8-12.2c-0.7-0.6-0.9-1.7-0.4-2.5L836.5,291.9z"/>
</g>
</svg>
