<?xml version="1.0" encoding="utf-8"?>
<!-- Generator: Adobe Illustrator 19.0.0, SVG Export Plug-In . SVG Version: 6.00 Build 0)  -->
<svg version="1.1" id="Layer_1" 
	 xmlns="http://www.w3.org/2000/svg" xmlns:xlink="http://www.w3.org/1999/xlink" x="0px" y="0px" width="1408.8px" height="217px"
	 viewBox="443 -83 1408.8 217" style="enable-background:new 443 -83 1408.8 217;" xml:space="preserve">
<style type="text/css">
	.st0{fill:#0EA9D8;}
	.st1{fill:#E74C3C;}
	.st2{fill:#FFFFFF;}
</style>

<g>
	<path class="st0" d="M522.6,18h1.3v-1.6c0-7.6-5.8-10-13.3-10c-8.8,0-18.6,5.1-22.6,7.5c-0.9,0.5-2.2,0.2-2.7-0.8l-8.8-18
		c-0.4-0.8-0.1-1.9,0.6-2.4c4.3-2.8,18.1-10.7,36.4-10.7c25.3,0,40.6,13.9,40.6,36.8v53.5c0,1.1-0.8,1.9-1.9,1.9h-23.7
		c-1.1,0-1.9-0.8-1.9-1.9v-3.5c0-2.9,0.3-5.6,0.3-5.6h-0.3c0,0-6.6,13.1-25.5,13.1c-16.8,0-30.6-11.2-30.6-29
		C470.2,21.1,508.5,18,522.6,18z M509.2,53.2c7.9,0,14.8-8.6,14.8-15.9l0,0c0-1.1-0.8-1.9-1.9-1.9h-0.8c-9.7,0-20.6,2.8-20.6,10.3
		C500.6,49.9,503.2,53.2,509.2,53.2z"/>
	<path class="st0" d="M553-15.9h27.7c0.9,0,1.7,0.6,1.9,1.6l10.8,51.6c1.1,4.9,1.1,9.5,1.1,9.5h0.3c0,0,0.3-4.5,1.6-9.5l12.1-51.7
		c0.2-0.8,0.9-1.5,1.9-1.5h22.8c0.9,0,1.7,0.6,1.9,1.5l12.1,51.7c1.3,4.9,1.4,9.5,1.4,9.5h0.3c0,0,0.2-4.5,1.3-9.5L661-14.3
		c0.2-0.8,0.9-1.6,1.9-1.6h27.4c1.3,0,2.2,1.3,1.9,2.4l-24.1,86.3c-0.2,0.8-0.9,1.4-1.9,1.4h-30.8c-0.8,0-1.7-0.6-1.9-1.5l-9.8-40.1
		c-1.3-4.9-1.8-9.7-1.8-9.7h-0.3c0,0-0.5,4.7-1.8,9.7L610,72.7c-0.2,0.8-0.9,1.5-1.9,1.5H577c-0.8,0-1.6-0.5-1.9-1.4l-24-86.2
		C550.8-14.7,551.8-15.9,553-15.9z"/>
	<path class="st1" d="M713.3-14.5c23.9-11.6,45.5-1.5,56.4,21.1c0.9,1.8,2.2,5.2,2.9,7.2c0.3,0.9-0.1,1.9-1,2.4L724.3,39
		c-1.3,0.6-1.4,2.1-0.5,3c6.7,7,16.3,7.2,24.2,3.4c9-4.4,15-13.4,17.4-17.2c0.5-0.9,1.9-1.2,2.7-0.5l16.3,12c0.7,0.5,1,1.6,0.6,2.4
		c-2.3,4.4-10.3,18.4-28.2,27.1c-29,14-54.7,0.7-65.1-21C680.1,24.6,687.2-1.8,713.3-14.5z M737,13.7c1.1-0.5,1.4-1.9,0.8-2.8
		c-3.4-4.9-9.5-7.3-15.3-4.5c-6.8,3.3-8.6,9.4-7.9,15.4c0.2,1.3,1.5,2,2.7,1.5C717.4,23.2,737,13.7,737,13.7z"/>
	<path class="st0" d="M789.6,44.5c0.6-0.9,1.9-1.2,2.7-0.5c3.4,2.5,11.5,7.8,21.3,7.8c4.5,0,8.9-1.3,8.9-4.2
		c0-7.9-42.1-8.7-42.1-38.1c0-16.9,16.3-27.4,37.1-27.4c16.9,0,27.2,6.7,30.5,9.4c0.7,0.5,0.9,1.6,0.5,2.3l-8.7,18.1
		c-0.5,1.1-1.8,1.5-2.8,0.7c-3.2-2.1-10.3-6.1-19.5-6.1c-4.5,0-8.9,1.3-8.9,4.4c0,6.8,42.1,7.9,42.1,36.9
		c0,15.3-13.7,28.5-36.9,28.5c-18.5,0-30.9-8.9-34.8-12.2c-0.7-0.6-0.9-1.7-0.4-2.5L789.6,44.5z"/>
	<path class="st0" d="M903.1-18c28.5,0,51.3,19,51.3,47.4c0,28.2-22.7,46.9-51.1,46.9c-28.4,0-51.1-18.7-51.1-46.9
		C852.2,1.1,874.9-18,903.1-18z M903.3,51.1c11,0,20.5-8.2,20.5-21.6c0-13.7-9.5-22.2-20.5-22.2s-20.5,8.6-20.5,22.2
		C882.8,42.9,892.2,51.1,903.3,51.1z"/>
	<path class="st0" d="M960.4-15.9h25.2c1.1,0,1.9,0.8,1.9,1.9v6c0,2.9-0.3,5.6-0.3,5.6h0.3c4.2-6.3,12.6-15.6,26.8-15.6
		c11.3,0,20.5,5,25.2,15.2h0.3c4.7-7.6,15.3-15.2,28.9-15.2c16.4,0,29.2,8.9,29.2,33.7v56.5c0,1.1-0.8,1.9-1.9,1.9h-26.4
		c-1.1,0-1.9-0.8-1.9-1.9V20.8c0-6.6-1.3-11.3-7-11.3c-9.7,0-14.7,7-16.6,16.9c-0.7,3.2-0.7,6.8-0.7,10.5v35.3
		c0,1.1-0.8,1.9-1.9,1.9h-26.4c-1.1,0-1.9-0.8-1.9-1.9V20.8c0-6.6-1.3-11.3-7-11.3c-9.5,0-14.3,6.6-16.4,16.3
		c-0.7,3.4-0.8,7.4-0.8,11.2v35.3c0,1.1-0.8,1.9-1.9,1.9h-26.4c-1.1,0-1.9-0.8-1.9-1.9V-14C958.4-15,959.4-15.9,960.4-15.9z"/>
	<path class="st0" d="M1107.3-15.9h26.4c1.1,0,1.9,0.8,1.9,1.9v86.3c0,1.1-0.8,1.9-1.9,1.9h-26.4c-1.1,0-1.9-0.8-1.9-1.9v-86.2
		C1105.4-15,1106.3-15.9,1107.3-15.9z"/>
	<path class="st0" d="M1151.3,44.5c0.6-0.9,1.9-1.2,2.7-0.5c3.4,2.5,11.5,7.8,21.3,7.8c4.5,0,8.9-1.3,8.9-4.2
		c0-7.9-42.1-8.7-42.1-38.1c0-16.9,16.3-27.4,37.1-27.4c16.9,0,27.2,6.7,30.5,9.4c0.7,0.5,0.9,1.6,0.5,2.3l-8.7,18.1
		c-0.5,1.1-1.8,1.5-2.8,0.7c-3.2-2.1-10.3-6.1-19.5-6.1c-4.5,0-8.9,1.3-8.9,4.4c0,6.8,42.1,7.9,42.1,36.9
		c0,15.3-13.7,28.5-36.9,28.5c-18.5,0-30.9-8.9-34.8-12.2c-0.7-0.6-0.9-1.7-0.4-2.5L1151.3,44.5z"/>
	<path class="st0" d="M1272.2-15.9c1.1,0,1.9,0.8,1.9,1.9V7.4c0,1.1-0.8,1.9-1.9,1.9h-15c-1.1,0-1.9,0.8-1.9,1.9v25.7
		c0,10.2,10.3,11.6,16.1,11.6c0.7,0,1.5,0,2,0c1.1,0,2,0.8,2,1.9v22.5c0,0.9-0.7,1.8-1.7,1.9c-1.5,0.1-3.7,0.3-6.5,0.3
		c-14.3,0-42.1-3.9-42.1-34.2V11.2c0-1.1-0.8-1.9-1.9-1.9h-7.7c-1.1,0-1.9-0.8-1.9-1.9V-14c0-1.1,0.8-1.9,1.9-1.9H1272.2
		L1272.2-15.9z"/>
	<path class="st0" d="M1290.5,44.5c0.6-0.9,1.9-1.2,2.7-0.5c3.4,2.5,11.5,7.8,21.3,7.8c4.5,0,8.9-1.3,8.9-4.2
		c0-7.9-42.1-8.7-42.1-38.1c0-16.9,16.3-27.4,37.1-27.4c16.9,0,27.2,6.7,30.5,9.4c0.7,0.5,0.9,1.6,0.5,2.3l-8.7,18.1
		c-0.5,1.1-1.8,1.5-2.8,0.7c-3.2-2.1-10.3-6.1-19.5-6.1c-4.5,0-8.9,1.3-8.9,4.4c0,6.8,42.1,7.9,42.1,36.9
		c0,15.3-13.7,28.5-36.9,28.5c-18.5,0-30.9-8.9-34.8-12.2c-0.7-0.6-0.9-1.7-0.4-2.5L1290.5,44.5z"/>
</g>
<rect x="1379" y="-82" class="st0" width="472.8" height="217"/>
<g>
	<path class="st2" d="M1428.3-13.6h20.9l7.3,25.6l7.4-25.6h20.9l-13.7,39.7l6,17.3l17.9-57h24.8l-32.5,83.1h-19l-11.8-29.7
		l-11.7,29.7h-19l-32.5-83.1h24.7l18,57l5.7-17.3L1428.3-13.6z"/>
	<path class="st2" d="M1559.7,70.2c-6.3,0-12.1-1.2-17.2-3.6c-5.1-2.4-9.6-5.6-13.2-9.5c-3.7-3.9-6.5-8.4-8.5-13.5
		c-2-5.1-3-10.3-3-15.7c0-5.5,1.1-10.7,3.2-15.8c2.1-5.1,5-9.5,8.8-13.4c3.8-3.9,8.3-6.9,13.5-9.2c5.2-2.3,10.9-3.5,17-3.5
		c6.3,0,12.1,1.2,17.2,3.6c5.1,2.4,9.6,5.6,13.2,9.6c3.7,4,6.5,8.5,8.5,13.6c2,5.1,3,10.3,3,15.6c0,5.5-1.1,10.7-3.2,15.7
		c-2.1,5-5,9.5-8.8,13.3c-3.7,3.9-8.2,7-13.4,9.3C1571.5,69,1565.9,70.2,1559.7,70.2z M1540.9,28.1c0,2.8,0.4,5.5,1.2,8.1
		c0.8,2.6,1.9,4.9,3.5,7c1.6,2,3.5,3.7,5.9,4.9c2.4,1.2,5.2,1.9,8.5,1.9c3.3,0,6.1-0.6,8.5-1.9c2.4-1.3,4.4-3,5.9-5
		c1.5-2.1,2.7-4.4,3.4-7.1c0.7-2.7,1.1-5.3,1.1-8.1c0-2.8-0.4-5.5-1.2-8.1c-0.8-2.6-2-4.9-3.6-6.9c-1.6-2-3.6-3.6-6-4.8
		c-2.4-1.2-5.2-1.8-8.4-1.8c-3.3,0-6.1,0.6-8.5,1.9c-2.4,1.2-4.3,2.9-5.9,5c-1.6,2.1-2.7,4.4-3.5,7
		C1541.2,22.7,1540.9,25.4,1540.9,28.1z"/>
	<path class="st2" d="M1611.8,69.5v-83.1h38.1c4.1,0,7.8,0.8,11.2,2.5c3.4,1.7,6.4,3.9,8.8,6.6s4.4,5.8,5.8,9.2
		c1.4,3.5,2.1,7,2.1,10.5c0,4.8-1.1,9.3-3.2,13.5c-2.1,4.2-5,7.6-8.8,10.2l17.5,30.5h-25.7L1643.1,44h-8.5v25.5H1611.8z
		 M1634.6,24.1h14.4c1.4,0,2.7-0.8,3.9-2.3c1.2-1.6,1.8-3.7,1.8-6.6c0-2.9-0.7-5.1-2.1-6.6c-1.4-1.5-2.8-2.3-4.2-2.3h-13.8V24.1z"/>
	<path class="st2" d="M1690.7,69.5v-83.1h22.8V18l25.3-31.6h25.7l-30.2,37.2l32.3,45.9h-26.2L1719.9,39l-6.3,6.6v24H1690.7z"/>
	<path class="st2" d="M1821.8,13.6c-2.3-1.4-4.8-2.7-7.3-3.7c-2.1-0.9-4.5-1.8-7.1-2.6c-2.6-0.8-5.2-1.2-7.7-1.2
		c-2,0-3.6,0.3-4.9,0.9c-1.2,0.6-1.8,1.7-1.8,3.2c0,1.1,0.4,2,1.1,2.7c0.7,0.7,1.7,1.3,3,1.9c1.3,0.6,2.9,1.2,4.9,1.7
		c1.9,0.5,4.1,1.2,6.5,2c3.8,1.2,7.3,2.5,10.4,3.9c3.1,1.4,5.7,3.1,7.9,5c2.2,1.9,3.9,4.2,5,7c1.2,2.7,1.8,6,1.8,9.9
		c0,5-0.9,9.2-2.8,12.6c-1.8,3.4-4.3,6.1-7.3,8.1c-3,2-6.4,3.5-10.2,4.4c-3.8,0.9-7.6,1.3-11.4,1.3c-3,0-6.2-0.2-9.4-0.7
		c-3.2-0.5-6.4-1.1-9.5-2c-3.2-0.9-6.2-1.9-9.1-3s-5.6-2.5-8.1-4l9.8-20c2.7,1.7,5.6,3.2,8.5,4.6c2.5,1.2,5.3,2.2,8.5,3.2
		c3.2,0.9,6.4,1.4,9.7,1.4c2.5,0,4.2-0.3,5.2-1c1-0.7,1.5-1.5,1.5-2.6c0-1.2-0.5-2.2-1.5-3c-1-0.8-2.3-1.5-4-2.2
		c-1.7-0.6-3.7-1.2-5.9-1.9c-2.2-0.6-4.6-1.4-7.1-2.2c-3.7-1.2-6.8-2.6-9.5-4c-2.7-1.4-4.8-3.1-6.6-4.9c-1.7-1.8-3-3.9-3.8-6.3
		c-0.8-2.3-1.2-5-1.2-8.1c0-4.6,0.8-8.7,2.5-12.2c1.7-3.5,4-6.4,6.8-8.8c2.9-2.3,6.2-4.1,9.9-5.3c3.7-1.2,7.6-1.8,11.8-1.8
		c3,0,6,0.3,8.9,0.9c2.9,0.6,5.7,1.3,8.4,2.2c2.7,0.9,5.2,1.9,7.5,2.9c2.3,1.1,4.4,2,6.3,3L1821.8,13.6z"/>
</g>
</svg>
