<?xml version="1.0" encoding="utf-8"?>
<!-- Generator: Adobe Illustrator 20.0.0, SVG Export Plug-In . SVG Version: 6.00 Build 0)  -->
<svg version="1.1" id="Layer_1" xmlns="http://www.w3.org/2000/svg" xmlns:xlink="http://www.w3.org/1999/xlink" x="0px" y="0px"
	 viewBox="0 0 14400 14400" style="enable-background:new 0 0 14400 14400;" xml:space="preserve">
<style type="text/css">
	.st0{fill:#0EA9D8;}
</style>
<path class="st0" d="M6830.8,7189.6h1.2v-1.5c0-7.2-5.5-9.5-12.7-9.5c-8.4,0-17.7,4.9-21.5,7.1c-0.9,0.5-2.1,0.2-2.6-0.8l-8.4-17.1
	c-0.4-0.8-0.1-1.8,0.6-2.3c4.1-2.7,17.2-10.2,34.6-10.2c24.1,0,38.6,13.2,38.6,35v50.9c0,1-0.8,1.8-1.8,1.8h-22.6
	c-1,0-1.8-0.8-1.8-1.8v-3.3c0-2.8,0.3-5.3,0.3-5.3h-0.3c0,0-6.3,12.5-24.3,12.5c-16,0-29.1-10.7-29.1-27.6
	C6781,7192.4,6817.4,7189.6,6830.8,7189.6z M6818.1,7223c7.5,0,14.1-8.2,14.1-15.1l0,0c0-1-0.8-1.8-1.8-1.8h-0.8
	c-9.2,0-19.6,2.7-19.6,9.8C6809.9,7219.9,6812.4,7223,6818.1,7223z"/>
<path class="st0" d="M6859.8,7157.3h26.4c0.9,0,1.6,0.6,1.8,1.5l10.3,49.1c1,4.7,1,9,1,9h0.3c0,0,0.3-4.3,1.5-9l11.5-49.2
	c0.2-0.8,0.9-1.4,1.8-1.4h21.7c0.9,0,1.6,0.6,1.8,1.4l11.5,49.2c1.2,4.7,1.3,9,1.3,9h0.3c0,0,0.2-4.3,1.2-9l10.3-49.1
	c0.2-0.8,0.9-1.5,1.8-1.5h26.1c1.2,0,2.1,1.2,1.8,2.3l-22.9,82.1c-0.2,0.8-0.9,1.3-1.8,1.3h-29.3c-0.8,0-1.6-0.6-1.8-1.4l-9.3-38.2
	c-1.2-4.7-1.7-9.2-1.7-9.2h-0.3c0,0-0.5,4.5-1.7,9.2l-9.3,38.2c-0.2,0.8-0.9,1.4-1.8,1.4h-29.6c-0.8,0-1.5-0.5-1.8-1.3l-22.9-82.1
	C6857.7,7158.5,6858.6,7157.3,6859.8,7157.3z"/>
<path class="st0" d="M7032.1,7155.3c25.3,0,39.6,17.6,39.6,41.4c0,1.9-0.3,5.3-0.5,7.3c-0.1,0.9-0.9,1.6-1.8,1.6h-50.1
	c-1.3,0-2.1,1.2-1.7,2.4c2.9,8.8,10.9,12.9,19.3,12.9c9.5,0,18.4-5.2,22-7.5c0.9-0.6,2.1-0.3,2.6,0.7l9,17c0.4,0.8,0.2,1.8-0.5,2.3
	c-3.8,2.9-16.5,11.5-35.4,11.5c-30.6,0-47.1-22.1-47.1-44.9C6987.5,7174.9,7004.5,7155.3,7032.1,7155.3z M7040.8,7189.3
	c1.1,0,2-1,1.8-2.1c-0.9-5.6-5.1-10.2-11.2-10.2c-7.2,0-11.2,4.5-13.1,9.9c-0.4,1.2,0.5,2.4,1.7,2.4H7040.8z"/>
<path class="st0" d="M7084.9,7214.8c0.6-0.9,1.8-1.1,2.6-0.5c3.2,2.4,10.9,7.4,20.3,7.4c4.3,0,8.5-1.2,8.5-4
	c0-7.5-40.1-8.3-40.1-36.3c0-16.1,15.5-26.1,35.3-26.1c16.1,0,25.9,6.4,29,8.9c0.7,0.5,0.9,1.5,0.5,2.2l-8.3,17.2
	c-0.5,1-1.7,1.4-2.7,0.7c-3-2-9.8-5.8-18.6-5.8c-4.3,0-8.5,1.2-8.5,4.2c0,6.5,40.1,7.5,40.1,35.1c0,14.6-13,27.1-35.1,27.1
	c-17.6,0-29.4-8.5-33.1-11.6c-0.7-0.6-0.9-1.6-0.4-2.4L7084.9,7214.8z"/>
<path class="st0" d="M7192.9,7155.3c27.1,0,48.8,18.1,48.8,45.1c0,26.8-21.6,44.6-48.6,44.6s-48.6-17.8-48.6-44.6
	C7144.5,7173.4,7166.1,7155.3,7192.9,7155.3z M7193.1,7221c10.5,0,19.5-7.8,19.5-20.6c0-13-9-21.1-19.5-21.1s-19.5,8.2-19.5,21.1
	C7173.6,7213.2,7182.6,7221,7193.1,7221z"/>
<path class="st0" d="M7247.5,7157.3h24c1,0,1.8,0.8,1.8,1.8v5.7c0,2.8-0.3,5.3-0.3,5.3h0.3c4-6,12-14.8,25.5-14.8
	c10.8,0,19.5,4.8,24,14.5h0.3c4.5-7.2,14.6-14.5,27.5-14.5c15.6,0,27.8,8.5,27.8,32.1v53.8c0,1-0.8,1.8-1.8,1.8h-25.1
	c-1,0-1.8-0.8-1.8-1.8v-48.9c0-6.3-1.2-10.8-6.7-10.8c-9.2,0-14,6.7-15.8,16.1c-0.7,3-0.7,6.5-0.7,10v33.6c0,1-0.8,1.8-1.8,1.8
	h-25.1c-1,0-1.8-0.8-1.8-1.8v-48.9c0-6.3-1.2-10.8-6.7-10.8c-9,0-13.6,6.3-15.6,15.5c-0.7,3.2-0.8,7-0.8,10.7v33.6
	c0,1-0.8,1.8-1.8,1.8h-25.1c-1,0-1.8-0.8-1.8-1.8v-82.1C7245.6,7158.1,7246.5,7157.3,7247.5,7157.3z"/>
<path class="st0" d="M7387.3,7157.3h25.1c1,0,1.8,0.8,1.8,1.8v82.1c0,1-0.8,1.8-1.8,1.8h-25.1c-1,0-1.8-0.8-1.8-1.8v-82.1
	C7385.5,7158.1,7386.3,7157.3,7387.3,7157.3z"/>
<path class="st0" d="M7429.1,7214.8c0.6-0.9,1.8-1.1,2.6-0.5c3.2,2.4,10.9,7.4,20.3,7.4c4.3,0,8.5-1.2,8.5-4
	c0-7.5-40.1-8.3-40.1-36.3c0-16.1,15.5-26.1,35.3-26.1c16.1,0,25.9,6.4,29,8.9c0.7,0.5,0.9,1.5,0.5,2.2l-8.3,17.2
	c-0.5,1-1.7,1.4-2.7,0.7c-3-2-9.8-5.8-18.6-5.8c-4.3,0-8.5,1.2-8.5,4.2c0,6.5,40.1,7.5,40.1,35.1c0,14.6-13,27.1-35.1,27.1
	c-17.6,0-29.4-8.5-33.1-11.6c-0.7-0.6-0.9-1.6-0.4-2.4L7429.1,7214.8z"/>
<path class="st0" d="M7544.2,7157.2c1,0,1.8,0.8,1.8,1.8v20.4c0,1-0.8,1.8-1.8,1.8h-14.3c-1,0-1.8,0.8-1.8,1.8v24.5
	c0,9.7,9.8,11,15.3,11c0.7,0,1.4,0,1.9,0c1,0,1.9,0.8,1.9,1.8v21.4c0,0.9-0.7,1.7-1.6,1.8c-1.4,0.1-3.5,0.3-6.2,0.3
	c-13.6,0-40.1-3.7-40.1-32.5v-28.3c0-1-0.8-1.8-1.8-1.8h-7.3c-1,0-1.8-0.8-1.8-1.8v-20.4c0-1,0.8-1.8,1.8-1.8H7544.2z"/>
<path class="st0" d="M7561.6,7214.8c0.6-0.9,1.8-1.1,2.6-0.5c3.2,2.4,10.9,7.4,20.3,7.4c4.3,0,8.5-1.2,8.5-4
	c0-7.5-40.1-8.3-40.1-36.3c0-16.1,15.5-26.1,35.3-26.1c16.1,0,25.9,6.4,29,8.9c0.7,0.5,0.9,1.5,0.5,2.2l-8.3,17.2
	c-0.5,1-1.7,1.4-2.7,0.7c-3-2-9.8-5.8-18.6-5.8c-4.3,0-8.5,1.2-8.5,4.2c0,6.5,40.1,7.5,40.1,35.1c0,14.6-13,27.1-35.1,27.1
	c-17.6,0-29.4-8.5-33.1-11.6c-0.7-0.6-0.9-1.6-0.4-2.4L7561.6,7214.8z"/>
</svg>
