<?xml version="1.0" encoding="utf-8"?>
<!-- Generator: Adobe Illustrator 19.0.0, SVG Export Plug-In . SVG Version: 6.00 Build 0)  -->
<svg version="1.1" id="Layer_1" xmlns="http://www.w3.org/2000/svg" xmlns:xlink="http://www.w3.org/1999/xlink" x="0px" y="0px"
	 width="444px" height="114px" viewBox="0 0 444 114" style="enable-background:new 0 0 444 114;" xml:space="preserve">
<style type="text/css">
	.st0{fill:#F9123E;stroke:#F9123E;stroke-miterlimit:10;}
</style>
<g id="XMLID_1_">
	<path id="XMLID_81_" class="st0" d="M36.026,24.722v0.419c0,0.251-0.084,0.503-0.084,0.838c0,1.677,0.43,4.105,0.838,5.367
		l11.585,35.809h8.122c12.175,0,22.056-8.661,22.056-18.197c0-9.444-8.491-17.108-18.953-17.108c-5.703,0-11.657,3.69-11.657,10.063
		c0,4.361,3.271,7.967,7.883,7.967v0.839c-5.115,0-8.722-4.025-8.722-8.806c0-6.961,6.542-10.902,12.496-10.902
		c10.925,0,19.792,8.04,19.792,17.947c0,10.184-10.256,19.372-22.895,19.372l-7.647,0.294l3.622,11.195
		c1.342,4.108,1.929,4.444,4.948,4.444h0.671v1.51h-13.67v-0.839h4.696v-0.168c-1.174-0.419-2.115-2.258-2.6-3.773l-3.857-12.076
		l-24.32,0.503l-3.438,10.399c-0.229,0.609-0.34,1.198-0.34,1.746c0,1.943,1.403,3.369,3.946,3.369h6.793v0.839H6.674v-1.51h1.342
		c2.097,0,3.69-1.51,4.612-4.444l17.947-55.098H36.026z M31.665,34.701c-0.429-1.339-0.587-2.432-0.587-3.354h-0.587
		c0,0.503-0.26,1.591-0.839,3.354l-10.65,32.454h23.063L31.665,34.701z"/>
	<path id="XMLID_84_" class="st0" d="M64.707,47.029v0.336c0,0.335-0.084,0.671-0.084,1.006c0,1.258,0.251,2.432,0.671,3.522
		l9.309,24.991c0.587,1.594,0.671,2.768,0.671,3.103v0.168h0.671v-0.168c0-0.251,0.252-1.426,0.839-3.103l7.799-21.217l-1.006-2.684
		c-1.594-4.025-1.845-4.445-4.864-4.445h-2.013v-1.51h11.751c0.74-2.084,1.078-4.231,1.078-6.32c0-12.608-7.66-22.841-17.099-22.841
		c-8.41,0-14.636,6.123-14.636,13.804c0,7.369,5.448,12.713,12.512,12.713c5.047,0,8.42-2.593,10.4-5.715l0.708,0.449
		c-2.101,3.313-5.74,6.104-11.108,6.104c-7.521,0-13.351-5.736-13.351-13.552c0-8.17,6.643-14.642,15.475-14.642
		c9.902,0,17.938,10.608,17.938,23.679c0,2.088-0.323,4.23-1.029,6.32c-0.213,0.813-0.51,1.714-0.51,2.799
		c0,0.623,0.098,1.305,0.366,2.065l9.225,24.991c0.587,1.594,0.671,2.768,0.671,3.103v0.168h0.671v-0.168
		c0-0.251,0.174-1.507,0.922-3.521l8.722-23.481c0.327-0.98,0.558-1.867,0.558-2.617c0-1.538-0.971-2.499-4.08-2.499h-8.218v-0.839
		h19.959v1.51h-0.922c-3.019,0-3.522,0.839-4.864,4.445l-6.082,16.383c-0.542,1.809-0.794,3.651-0.794,5.452
		c0,12.607,7.661,22.841,17.099,22.841c8.411,0,14.637-6.123,14.637-13.804c0-7.369-5.448-12.714-12.513-12.714
		c-5.047,0-8.42,2.594-10.4,5.715l-0.708-0.449c2.101-3.313,5.74-6.104,11.108-6.104c7.522,0,13.351,5.736,13.351,13.552
		c0,8.17-6.643,14.642-15.475,14.642c-9.901,0-17.938-10.608-17.938-23.679c0-0.379,0.01-0.76,0.032-1.142L99.51,86.192
		l-3.522,0.336L85.756,58.938L75.693,86.108l-2.652,0.316l6.484,17.484l-0.786,0.292l-6.554-17.675l-0.013,0.002L59.759,52.983
		c-1.593-4.025-1.845-4.445-4.864-4.445h-1.258v-1.51H64.707z"/>
	<path id="XMLID_86_" class="st0" d="M138.97,84.19c6.02,0,10.236-3.351,13.103-9.381c2.033-0.302,3.263-0.749,5.499-2.781
		c5.735-5.026,12.697-8.117,19.972-8.117c11.569,0,21.186,7.762,21.186,17.516c0,8.169-6.541,13.817-13.21,13.817
		c-7.327,0-11.639-5.962-12.381-10.72l0.829-0.129c0.692,4.431,4.693,10.008,11.546,10.008c6.225,0,12.374-5.28,12.374-12.967
		c0-9.255-9.205-16.681-20.322-16.681c-9.832,0-19.141,5.822-25.462,14.526c-3.137,4.707-7.5,7.142-13.653,7.142
		c-11.683,0-19.398-7.527-19.398-20.022c0-0.541,0.015-1.072,0.042-1.594H101.44v-0.839h17.711
		c0.934-11.025,8.292-17.527,18.937-17.527c8.218,0,16.018,5.032,16.018,15.515v1.509c0,0.923-0.587,1.342-1.51,1.342h-27.171
		C125.676,77.89,130.205,84.18,138.97,84.19z M147.061,62.711c0.418-0.024,0.671-0.252,0.671-0.754
		c0-9.225-3.774-13.334-10.818-13.334c-6.625,0-11.154,5.115-11.489,14.088v1.258L147.061,62.711z"/>
	<path id="XMLID_89_" class="st0" d="M174.903,86.444c-4.193,0-9.225-1.846-11.825-3.774c-0.587-0.419-1.565-1.509-2.18-3.271
		l-0.252,0.084c0.14,0.587,0.455,3.188,0.503,4.025l1.174,20.463l-0.671,0.083l-2.18-40.254h1.111l0.482,8.051
		c0.448,7.478,7.547,12.328,13.837,12.328c6.457,0,9.979-2.432,9.979-7.044c0-3.882-4.852-6.201-10.063-8.761
		c-6.047-2.972-12.579-6.268-12.579-12.708c0-5.535,5.031-9.225,12.663-9.225c4.025,0,7.128,1.006,9.225,2.6
		c0.839,0.671,1.691,2.125,1.845,2.684l0.335-0.083c-0.07-0.587-0.277-2.602-0.335-3.438l-1.005-17.731l0.837-0.048l1.929,33.628
		l-1.342,0.084l-0.336-6.122c-0.244-4.458-4.444-9.393-11.153-9.393c-5.032,0-7.799,1.845-7.799,5.199
		c0,4.666,5.877,7.288,11.741,10.22c5.835,2.92,11.657,6.146,11.657,12.003C190.501,82.251,184.296,86.444,174.903,86.444z"/>
	<path id="XMLID_91_" class="st0" d="M229.1,55.583h15.409v0.838h-15.002c1.299,2.851,2.004,6.218,2.004,9.98
		c0,12.025-7.146,20.043-17.863,20.043c-10.768,0-17.946-8.018-17.946-20.043c0-7.36,2.711-13.212,7.301-16.63
		c-3.233-3.885-5.036-9.12-5.036-14.735c0-11.526,10.707-20.882,23.9-20.882c11.203,0,20.295,7.928,20.295,17.695
		c0,9.086-5.54,16.46-12.366,16.46c-5.411,0-9.941-3.324-9.941-8.493c0-2.097,0.839-4.025,2.097-5.367l0.587,0.587
		c-1.09,1.174-1.845,2.936-1.845,4.78c0,4.651,4.087,7.698,9.053,7.698c6.391,0,11.577-7.018,11.577-15.665
		c0-9.305-8.716-16.856-19.456-16.856c-12.73,0-23.062,8.979-23.062,20.043c0,5.419,1.755,10.491,4.902,14.24
		c2.756-1.83,6.123-2.834,9.941-2.834C220.662,46.442,226.147,49.862,229.1,55.583z M224.969,69.42c0-5.32-0.632-9.674-1.859-12.999
		h-5.688c-4.817,0-8.921-1.619-12.1-4.308c-2.027,2.504-3.08,6.323-3.08,11.352c0,13.464,4.08,20.714,11.657,20.714
		C221.095,84.18,224.969,79.014,224.969,69.42z M205.891,51.472c3.034,2.564,6.943,4.111,11.531,4.111h5.355
		c-1.937-4.575-5.128-6.96-9.465-6.96C210.203,48.623,207.715,49.592,205.891,51.472z"/>
	<path id="XMLID_95_" class="st0" d="M280.569,85.773h-17.527v-1.51h5.619v-0.168c-0.587-0.587-0.755-0.839-0.755-2.181V70.678
		h-18.617v9.14c0,4.025,0.503,4.446,4.528,4.446h2.936v1.51h-20.798v-1.51h2.935c4.025,0,4.445-0.421,4.445-4.446v-9.14h-3.772
		v-0.839h3.772V52.983c0-4.025-0.42-4.445-4.445-4.445h-1.509v-1.51l12.325-0.671v0.587c-0.167,1.677-0.417,3.354-0.417,4.864v2.181
		c0,1.342-0.084,2.097-0.42,2.6v0.251h0.42c2.516-6.541,7.296-10.399,13.502-10.399c4.953,0,8.261,1.708,9.979,5.455v-20.8h0.839
		v24.402c0,0.671,0,1.258-0.084,1.677l-0.084,0.252h0.419l0.084-0.252c0.168-0.671,0.587-1.761,0.923-2.516
		c2.6-5.2,7.044-8.219,12.495-8.219c7.212,0,11.061,3.858,11.07,11.154l0.016,12.243h22.375v0.839H298.45l0.007,5.283
		c0.021,16.539,8.037,27.565,20.092,27.565c11.784,0,21.06-9.135,21.06-20.708c0-10.838-8.389-19.534-19.375-19.534
		c-2.895,0-5.638,0.65-8.017,1.737l-0.349-0.763c2.485-1.135,5.345-1.813,8.365-1.813c11.457,0,20.214,9.089,20.214,20.373
		c0,12.045-9.668,21.547-21.898,21.547c-13.085,0-22.5-8.271-25.232-21.352v20.958h-0.838V70.678H273.86v9.14
		c0,4.025,0.503,4.446,4.528,4.446h2.181V85.773z M267.906,69.839V59.105c0-6.792-2.013-10.483-5.87-10.483
		c-7.632,0-12.747,7.715-12.747,19.372v1.845H267.906z M292.479,69.839v-4.36h0.01l-0.01-6.373
		c-0.011-6.793-2.014-10.483-5.871-10.483c-7.631,0-12.747,7.715-12.747,19.372v1.845H292.479z"/>
	<path id="XMLID_99_" class="st0" d="M318.195,46.724c3.464-0.891,6.584-2.655,9.048-4.982c3.813-3.602,6.27-8.166,6.27-14.265
		c0-9.24-6.274-16.508-15.157-16.508c-7.282,0-12.658,5.2-12.658,12.146c0,5.155,3.121,9.036,7.046,10.72
		c-0.304-0.552-0.473-1.219-0.473-1.984c0-2.181,1.426-3.69,3.773-3.69c2.181,0,3.69,1.342,3.69,3.69c0,2.18-1.342,3.773-3.69,3.773
		c-6.036,0-11.186-6.189-11.186-12.509c0-7.425,5.792-12.984,13.497-12.984c9.406,0,15.995,7.729,15.995,17.346
		c0,6.343-2.588,11.15-6.532,14.875c-2.348,2.218-5.263,3.942-8.504,4.929c0,1.713-0.419,2.995-0.419,4.528v28.01
		c0,4.025,0.503,4.444,4.528,4.444h2.936v1.51h-20.798v-1.51h2.935c4.025,0,4.445-0.419,4.445-4.444V52.983
		c0-4.025-0.42-4.445-4.445-4.445h-1.509v-1.51C306.987,47.029,316.801,47.021,318.195,46.724z"/>
	<path id="XMLID_101_" class="st0" d="M345.646,86.444c-4.192,0-9.225-1.846-11.824-3.774c-0.587-0.419-1.565-1.509-2.181-3.271
		l-0.251,0.084c0.14,0.587,0.455,3.188,0.503,4.025l1.174,20.463l-0.671,0.083l-2.181-40.254h1.111l0.482,8.051
		c0.448,7.478,7.548,12.328,13.837,12.328c6.458,0,9.98-2.432,9.98-7.044c0-3.882-4.853-6.201-10.064-8.761
		c-6.047-2.972-12.579-6.268-12.579-12.708c0-5.535,5.032-9.225,12.663-9.225c4.025,0,7.129,1.006,9.226,2.6
		c0.838,0.671,1.69,2.125,1.845,2.684l0.335-0.083c-0.069-0.587-0.276-2.602-0.335-3.438l-1.005-17.731l0.837-0.048l1.929,33.628
		l-1.342,0.084l-0.335-6.122c-0.244-4.458-4.445-9.393-11.154-9.393c-5.031,0-7.799,1.845-7.799,5.199
		c0,4.666,5.877,7.288,11.74,10.22c5.836,2.92,11.657,6.146,11.657,12.003C361.245,82.251,355.039,86.444,345.646,86.444z"/>
	<path id="XMLID_103_" class="st0" d="M377.6,76.716c0,4.864,2.181,7.464,6.038,7.464c5.367,0,8.89-3.187,8.89-8.135h2.264
		c0,6.206-4.444,10.399-11.153,10.399c-5.381,0-9.472-2.724-11.153-7.125v31.361h-0.839V49.377h-8.051v-2.265h4.192
		c3.774,0,5.683-3.161,6.122-6.122c0,0,2.852-13.753,2.852-19.204v-3.102h0.839v13.417v11.489c0,1.761-0.42,3.103-1.09,3.438v0.084
		h18.785v2.265H377.6V76.716z"/>
	<path id="XMLID_105_" class="st0" d="M414.834,86.444c-4.192,0-9.225-1.846-11.824-3.774c-0.587-0.419-1.565-1.509-2.181-3.271
		l-0.251,0.084c0.14,0.587,0.455,3.188,0.503,4.025l1.174,20.463l-0.671,0.083l-2.181-40.254h1.111l0.482,8.051
		c0.448,7.478,7.548,12.328,13.837,12.328c6.458,0,9.98-2.432,9.98-7.044c0-3.882-4.853-6.201-10.064-8.761
		c-6.047-2.972-12.579-6.268-12.579-12.708c0-5.535,5.032-9.225,12.663-9.225c4.025,0,7.129,1.006,9.226,2.6
		c0.838,0.671,1.69,2.125,1.845,2.684l0.335-0.083c-0.069-0.587-0.276-2.602-0.335-3.438l-1.005-17.731l0.837-0.048l1.929,33.628
		l-1.342,0.084l-0.335-6.122c-0.244-4.458-4.445-9.393-11.154-9.393c-5.031,0-7.799,1.845-7.799,5.199
		c0,4.666,5.877,7.288,11.74,10.22c5.836,2.92,11.657,6.146,11.657,12.003C430.433,82.251,424.227,86.444,414.834,86.444z"/>
</g>
</svg>
