<?xml version="1.0" encoding="utf-8"?>
<!-- Generator: Adobe Illustrator 21.1.0, SVG Export Plug-In . SVG Version: 6.00 Build 0)  -->
<svg version="1.1" id="Layer_1" xmlns="http://www.w3.org/2000/svg" xmlns:xlink="http://www.w3.org/1999/xlink" x="0px" y="0px"
	 viewBox="0 0 14400 14400" style="enable-background:new 0 0 14400 14400;" xml:space="preserve">
<style type="text/css">
	.st0{fill:#508EF2;}
	.st1{fill:#F4BB2A;}
</style>
<g>
	<path class="st0" d="M6862.6,7150.1L6862.6,7150.1c1.8,0,3.5,1.2,4,2.9l27.9,85.2l22-83c0.8-3,3.6-5.2,6.7-5.2l0,0
		c3.1,0,5.9,2.1,6.7,5.1l22,81.1l27.6-83.3c0.6-1.8,2.3-3,4.2-3l0,0c3,0,5.1,2.9,4.2,5.8l-30,90.8c-0.8,2.5-3.1,4.2-5.7,4.2h0
		c-2.7,0-5.1-1.8-5.8-4.4l-23.1-82.8l-22.9,82.8c-0.7,2.6-3.1,4.4-5.8,4.4l0,0c-2.6,0-4.9-1.7-5.7-4.2l-30.1-90.9
		C6857.7,7152.9,6859.7,7150.1,6862.6,7150.1z"/>
</g>
<g>
	<path class="st0" d="M6995.3,7239.6c-8.2-9.9-12.3-23-12.3-39.2c0-16.2,4.1-29.3,12.3-39.2c8.2-9.8,19.1-14.7,32.6-14.7
		c13.5,0,24.4,4.5,32.6,13.5c8.2,9,12.3,21,12.3,35.9l0,0c0,2.5-2,4.5-4.5,4.5h-75.9c0,13.7,3.2,24.7,9.7,32.9
		c6.5,8.2,15,12.3,25.8,12.3c8,0,15.3-2.1,21.7-6.4c5.8-3.9,10-8.7,12.7-14.7c0.7-1.6,2.2-2.6,4-2.6h0.9c3,0,5.1,3,4.1,5.9
		c-2.4,6.7-6.9,12.5-13.6,17.3c-8.5,6.1-18.4,9.2-29.8,9.2C7014.4,7254.3,7003.5,7249.4,6995.3,7239.6z M7063.4,7191.4v-3.5
		c-0.8-9.3-4.6-17.2-11.3-23.6c-6.9-6.3-15-9.5-24.1-9.5c-9.1,0-17.1,3.2-23.9,9.7c-6.9,6.6-10.8,14.7-11.6,24.3v2.6H7063.4z"/>
</g>
<g>
	<path class="st0" d="M7080.3,7222c2.1,0,3.9,1.4,4.3,3.5c1,4.9,3.8,9.2,8.3,13c5.8,4.7,12.8,7.1,21,7.1c9.5,0,17.1-2.1,22.9-6.4
		c5.7-4.4,8.5-10.2,8.5-17.3c0-5.4-3-9.9-9-13.7c-6-3.6-14-5.9-24.1-6.9c-10.7-0.9-19.2-3.9-25.5-9c-6.5-5-9.7-11.3-9.7-18.7
		c0-8.3,3.2-14.8,9.7-19.4c6.5-4.6,15.5-6.9,27.2-6.9c11.2,0,20.1,2.4,26.7,7.3c5.1,3.7,8.3,8.3,9.5,13.9c0.7,3-1.6,5.7-4.7,5.7l0,0
		c-2.1,0-3.9-1.3-4.5-3.3c-1.5-4.6-4.2-8.3-8.2-11.1c-4.9-3.5-11.2-5.2-18.9-5.2c-8.5,0-15.3,1.7-20.3,5.2c-5,3.5-7.6,8-7.6,13.7
		c0,5.4,3.1,9.9,9.2,13.7c6,3.6,14,5.9,24.1,6.9c10.6,0.9,19.1,4.1,25.5,9.5c6.3,5.4,9.5,12.1,9.5,20.1c0,9-3.7,16.2-11.1,21.5
		c-7.2,5.4-17,8-29.3,8c-10.7,0-19.8-3.1-27.2-9.5c-5.7-4.8-9.3-10.3-10.7-16.6C7075.5,7224.6,7077.5,7222.1,7080.3,7222
		L7080.3,7222z"/>
</g>
<g>
	<path class="st0" d="M7171.5,7238.2c-8.7-9.5-13-22.1-13-37.8c0-16.2,4.3-29.3,13-39.2c8.5-9.8,19.9-14.7,34.3-14.7
		c14.2,0,25.6,4.9,34.3,14.7c8.5,9.9,12.8,23,12.8,39.2c0,15.8-4.3,28.4-12.8,37.8c-8.7,9.5-20.1,14.2-34.3,14.2
		C7191.4,7252.4,7180,7247.7,7171.5,7238.2z M7233.2,7232.6c6.8-8,10.2-18.7,10.2-32.1c0-13.9-3.4-24.9-10.2-33.1
		c-6.9-8.3-16.1-12.5-27.4-12.5c-11.5,0-20.6,4.2-27.4,12.5c-6.9,8.2-10.4,19.2-10.4,33.1c0,13.4,3.5,24.1,10.4,32.1
		c6.8,8,15.9,12.1,27.4,12.1C7217.1,7244.6,7226.3,7240.6,7233.2,7232.6z"/>
</g>
<g>
	<path class="st0" d="M7258.4,7246v-91.2c0-2.6,2.1-4.7,4.7-4.7l0,0c2.6,0,4.7,2.1,4.7,4.7v12.3c2.8-6,6.9-10.7,12.1-14.2
		c5.2-3.6,10.8-5.4,16.8-5.4c7.1,0,13.3,1.9,18.7,5.7c5.5,3.9,9.1,8.9,10.6,14.9c3-6.3,7.5-11.3,13.5-14.9
		c6.1-3.8,12.8-5.7,20.1-5.7c9,0,16.7,3.1,23.2,9.2c6.3,6.1,9.5,13.6,9.5,22.2v67.1c0,2.6-2.1,4.7-4.7,4.7h0c-2.6,0-4.7-2.1-4.7-4.7
		v-67.1c0-6.6-2.3-12.3-6.9-17c-4.4-4.7-9.8-7.1-16.3-7.1c-7.4,0-14,2.6-19.9,7.8c-5.8,5.2-9.5,11.8-10.9,19.9v63.6
		c0,2.6-2.1,4.7-4.7,4.7l0,0c-2.6,0-4.7-2.1-4.7-4.7v-67.1c0-6.6-2.1-12.3-6.4-17c-4.3-4.7-9.4-7.1-15.4-7.1
		c-7.1,0-13.5,2.8-19.1,8.3c-5.5,5.7-9.1,12.8-10.6,21.3v61.7c0,2.6-2.1,4.7-4.7,4.7l0,0C7260.5,7250.8,7258.4,7248.6,7258.4,7246z"
		/>
</g>
<g>
	<path class="st0" d="M7404.3,7246v-91.2c0-2.6,2.1-4.7,4.7-4.7l0,0c2.6,0,4.7,2.1,4.7,4.7v91.2c0,2.6-2.1,4.7-4.7,4.7l0,0
		C7406.4,7250.8,7404.3,7248.6,7404.3,7246z"/>
</g>
<g>
	<path class="st0" d="M7434.5,7243.9c-6.1-5.1-9.7-11-10.9-17.8c-0.5-2.7,1.6-5.1,4.3-5.1l0,0c2.1,0,4,1.5,4.3,3.6
		c0.9,5.3,3.7,9.9,8.5,13.9c5.8,4.7,12.8,7.1,21,7.1c9.5,0,17.1-2.1,22.9-6.4c5.7-4.4,8.5-10.2,8.5-17.3c0-5.4-3-9.9-9-13.7
		c-6-3.6-14-5.9-24.1-6.9c-10.7-0.9-19.2-3.9-25.5-9c-6.5-5-9.7-11.3-9.7-18.7c0-8.3,3.2-14.8,9.7-19.4c6.5-4.6,15.5-6.9,27.2-6.9
		c11.2,0,20.1,2.4,26.7,7.3c5.1,3.7,8.3,8.3,9.5,13.9c0.7,3-1.6,5.7-4.7,5.7l0,0c-2.1,0-3.9-1.3-4.5-3.3c-1.5-4.6-4.2-8.3-8.2-11.1
		c-4.9-3.5-11.2-5.2-18.9-5.2c-8.5,0-15.3,1.7-20.3,5.2c-5,3.5-7.6,8-7.6,13.7c0,5.4,3.1,9.9,9.2,13.7c6,3.6,14,5.9,24.1,6.9
		c10.6,0.9,19.1,4.1,25.5,9.5c6.3,5.4,9.5,12.1,9.5,20.1c0,9-3.7,16.2-11.1,21.5c-7.2,5.4-17,8-29.3,8
		C7450.9,7253.4,7441.9,7250.2,7434.5,7243.9z"/>
</g>
<g>
	<path class="st0" d="M7552.8,7243.9c-6.1-5.1-9.7-11-10.9-17.8c-0.5-2.7,1.6-5.1,4.3-5.1l0,0c2.1,0,4,1.5,4.3,3.6
		c0.9,5.3,3.7,9.9,8.5,13.9c5.8,4.7,12.8,7.1,21,7.1c9.5,0,17.1-2.1,22.9-6.4c5.7-4.4,8.5-10.2,8.5-17.3c0-5.4-3-9.9-9-13.7
		c-6-3.6-14-5.9-24.1-6.9c-10.7-0.9-19.2-3.9-25.5-9c-6.5-5-9.7-11.3-9.7-18.7c0-8.3,3.2-14.8,9.7-19.4c6.5-4.6,15.5-6.9,27.2-6.9
		c11.2,0,20.1,2.4,26.7,7.3c5.1,3.7,8.3,8.3,9.5,13.9c0.7,3-1.6,5.7-4.7,5.7l0,0c-2.1,0-3.9-1.3-4.5-3.3c-1.5-4.6-4.2-8.3-8.2-11.1
		c-4.9-3.5-11.2-5.2-18.9-5.2c-8.5,0-15.3,1.7-20.3,5.2c-5,3.5-7.6,8-7.6,13.7c0,5.4,3.1,9.9,9.2,13.7c6,3.6,14,5.9,24.1,6.9
		c10.6,0.9,19.1,4.1,25.5,9.5c6.3,5.4,9.5,12.1,9.5,20.1c0,9-3.7,16.2-11.1,21.5c-7.2,5.4-17,8-29.3,8
		C7569.2,7253.4,7560.2,7250.2,7552.8,7243.9z"/>
</g>
<g>
	<path class="st1" d="M7205.8,7234.1c-12,0-22.7-7.1-27.3-18.1c-0.7-1.7,0.1-3.8,1.8-4.5c1.7-0.7,3.8,0.1,4.5,1.8
		c3.6,8.4,11.8,13.9,21,13.9c9.5,0,18.1-5.9,21.4-14.8c0.7-1.8,2.6-2.7,4.4-2c1.8,0.7,2.7,2.6,2,4.4
		C7229.3,7226.4,7218.1,7234.1,7205.8,7234.1z"/>
</g>
<g>
	<path class="st0" d="M6864.6,7253.6c-4.8,0-8.4-1.3-11.2-3.9c-3.7-3.5-5.6-9.2-5.6-17.5v-59.4c0-5.7-6-16.6-28.9-16.6
		c-13.2,0-20.1,4.4-23.6,8.2c-3.4,3.6-4.4,7.5-4.2,9.8c0.2,2.3-1.5,4.3-3.9,4.5c-2.3,0.2-4.3-1.5-4.5-3.9
		c-0.3-4.1,1.2-10.5,6.4-16.1c4.6-4.9,13.5-10.8,29.7-10.8c13,0,23,3.1,29.6,9.1c7.1,6.4,7.6,13.7,7.6,15.8v59.4
		c0,5.7,1,9.6,2.9,11.4c0.9,0.8,2.5,1.9,6.9,1.6c2.3-0.2,4.3,1.6,4.5,3.9c0.2,2.3-1.6,4.3-3.9,4.5
		C6865.9,7253.5,6865.2,7253.6,6864.6,7253.6z"/>
</g>
<g>
	<path class="st0" d="M6814.6,7254.6c-15.4,0-29.3-7.9-33.8-19.2c-3-7.5-2.2-16.3,2.2-23.5c3.9-6.5,12.3-14.7,30.4-16.6
		c15.9-1.7,24.9-4.8,29.6-7.1c4-1.9,5.4-3.5,5.5-3.5l7.6-10.8l0.3,49.8l-0.3,0.7c-3.9,10.1-9.8,17.9-17.6,23.2
		c-6.8,4.6-14.9,7.1-23.3,7.1C6814.8,7254.6,6814.7,7254.6,6814.6,7254.6z M6847.6,7195.2c-5.9,3.1-16.2,6.6-33.5,8.5
		c-14.6,1.6-21.2,7.7-24.1,12.6c-3,4.9-3.6,11.1-1.6,16.1c3.2,8.1,14.2,13.9,26.1,13.9c0.1,0,0.2,0,0.3,0
		c7.1-0.1,24.3-2.5,32.9-24.2L6847.6,7195.2z"/>
</g>
<g>
	<path class="st0" d="M7539,7255.3c-5.7,0-10.6-1.8-14.4-5.3c-4.5-4.1-6.8-10.2-6.8-17.6v-76.5c0-2.4,2-4.4,4.4-4.4
		c2.4,0,4.4,2,4.4,4.4v76.5c0,4.9,1.4,8.8,4,11.2c2.4,2.2,5.8,3.2,9.9,2.9c2.4-0.2,4.5,1.6,4.7,4c0.2,2.4-1.6,4.5-4,4.7
		C7540.4,7255.3,7539.7,7255.3,7539,7255.3z"/>
</g>
<g>
	<path class="st0" d="M7536.5,7157.8H7507c-2.4,0-4.4-2-4.4-4.4c0-2.4,2-4.4,4.4-4.4h29.4c2.4,0,4.4,2,4.4,4.4
		C7540.8,7155.9,7538.9,7157.8,7536.5,7157.8z"/>
</g>
</svg>
