<?xml version="1.0" encoding="utf-8"?>
<!-- Generator: Adobe Illustrator 19.0.0, SVG Export Plug-In . SVG Version: 6.00 Build 0)  -->
<svg version="1.1" id="Layer_2" xmlns:x="&ns_extend;" xmlns:i="&ns_ai;" xmlns:graph="&ns_graphs;"
	 xmlns="http://www.w3.org/2000/svg" xmlns:xlink="http://www.w3.org/1999/xlink" x="0px" y="0px" width="640px" height="320px"
	 viewBox="0 0 640 320" style="enable-background:new 0 0 640 320;" xml:space="preserve">
<style type="text/css">
	.st0{fill:#FFFF00;}
	.st1{fill:#FCD30D;}
	.st2{fill:#F3F3F3;stroke:#0C0C0C;stroke-miterlimit:10;}
</style>
<metadata>
	<sfw  xmlns="&ns_sfw;">
		<slices></slices>
		<sliceSourceBounds  width="158.6" height="262.7" y="21.1" x="240.9" bottomLeftOrigin="true"></sliceSourceBounds>
	</sfw>
</metadata>
<path class="st0" d="M395.2,139.7C387,168,367,191,361.7,218.5c0,5.6,1.7,7.8,1.1,9c-0.6,1.2-3.3,1.4-12.3,2.9
	c-17.8,3-33.2,2.2-33.2,2.2l25.8,8.9c0,0,14.1,1.5,14.9,2.2c0.8,0.8,8.2,8.9,0.8,11.2c-6.5,1.9-32.9,3.3-39.8,2.7
	c-1.1-0.6-1.7-0.8-1.6-0.4c0,0.2,0.6,0.3,1.6,0.4c3,1.6,9.6,5.7,16.7,6.3c9.7,0.8,23.1,5.2,23.1,5.2s10.4,6-1.5,8.9
	c-11.9,3-45.4,5.2-45.4,5.2l13.4,5.2c0,0,9.7,8.9-1.5,10.4l-49.1-21.6c0,0-5.2-7.4,4.5-6.7c9.7,0.7,38.2-0.1,38.2-0.1l-37.4-14.8
	c0,0-13.4-10.4,0-9.7c13.4,0.8,37.4,0,37.4,0L279.2,229c0,0-16.4-10.4,0.7-8.2c12.8,1.7,47,0.7,63.3,0c5.4-0.2,8.9-0.4,8.9-0.4
	c2-21.5,14-42.5,24-61.5c5-9,9-18,10.8-27.1c0.7-3.1,1.2-6.2,1.5-9.3c2.2-24.9-10-49.9-32.6-63.3c-2.7-1.7-5.5-3.2-8.4-4.6
	c-5.8-2.7-11.8-4.6-18-5.5c-3.1-0.6-6.3-0.9-9.5-1c-9.5-0.4-19.1,1.3-28.2,5.3c-3.1,1.6-6.3,3.5-9.5,5.9s-6.4,5.2-9.7,8.5
	C247,89,247,126,260.6,153.9c7.4,15.1,12.4,25.2,15.7,31.9c6.6,13.4,6.6,13.4,6.6,13.4l43.1,3c0,0,0.1-1.3,0.2-3.6
	c0.1-2.3,0.3-5.5,0.5-9.4c-0.6-10.2,1.4-19.2,1.5-28.7c0.2-2.6,0.3-5.2,0.5-7.8c1.1-18,2.4-34.2,3.3-34.5c2.2-0.8,2.2-0.8,2.2-0.8
	h-20.8c0,0,3.5,64.7,4,64c0,0,0,0,0,0c-0.2,0.5-5.7,9.8-9.2,0c-3.7-10.4-3.7-37.9-3.7-37.9s-0.9-8-1.9-16s-1.9-16-1.9-16
	s-0.2-3.5,1.1-6c1.3-2.5,4.1-4,10,0.1c11.9,8.2,25.3-0.7,25.3-0.7s2.8-1.7,5.2-1.7c2.4,0,4.5,1.7,3,8.4c-0.7,3.3-1.3,6.7-1.7,9.9
	c-1.3,9.6-1.3,17.6-1.3,17.6s-0.1,1.8-0.3,4.4c-6,21.6,5,53.6-9.3,70c-7.4,1.5-7.4,1.5-7.4,1.5l-20.8-0.8l-16.4-2.2l-12.6-2.2
	l-14.9-32c0,0-1.8-2.8-4.4-7.5c-2.5-4.7-5.8-11.4-8.6-19.1C233,116,242,69,276.8,50.6c2.9-2.2,5.7-4.2,8.2-5.8
	c9.6-5.3,20.1-8.1,30.7-8.5c3.5-0.1,7.1,0,10.6,0.3c10.7,0.7,21.3,4,31,9.3c3.2,1.8,6.4,3.7,9.4,5.9c22.8,16.4,35.6,44.8,32.3,72.1
	c-0.4,3-0.9,6.1-1.7,9C396.7,135.1,396,137.3,395.2,139.7z"/>
<path class="st1" d="M319,257.7c-1-0.1-1.6-0.2-1.6-0.4C317.3,256.8,317.9,257.1,319,257.7z"/>
<path class="st2" d="M326,272.5"/>
</svg>
