<?xml version="1.0" encoding="utf-8"?>
<!-- Generator: Adobe Illustrator 19.0.0, SVG Export Plug-In . SVG Version: 6.00 Build 0)  -->
<svg version="1.1" id="Objects" xmlns="http://www.w3.org/2000/svg" xmlns:xlink="http://www.w3.org/1999/xlink" x="0px" y="0px" width="417px" height="420.4px"
	 viewBox="0 0 417 420.4" style="enable-background:new 0 0 417 420.4;" xml:space="preserve">
	<style type="text/css">
		.st0{fill:url(#SVGID_1_);}
		.st1{fill:url(#SVGID_2_);}
		.st2{filter:url(#Adobe_OpacityMaskFilter);}
		.st3{fill:url(#SVGID_4_);}
		.st4{mask:url(#SVGID_3_);fill:#FFFFFF;}
		.st5{filter:url(#Adobe_OpacityMaskFilter_1_);}
		.st6{fill:url(#SVGID_5_);}
		.st7{mask:url(#sun_11_);fill:#F7EEDA;}
		.st8{fill:#F7EEDA;}
		.st9{filter:url(#Adobe_OpacityMaskFilter_2_);}
		.st10{fill:url(#SVGID_6_);}
		.st11{mask:url(#sun_12_);fill:#FFFFFF;}
		.st12{filter:url(#Adobe_OpacityMaskFilter_3_);}
		.st13{fill:url(#SVGID_8_);}
		.st14{fill:url(#SVGID_9_);}
		.st15{fill:url(#SVGID_10_);}
		.st16{fill:url(#SVGID_11_);}
		.st17{mask:url(#SVGID_7_);}
		.st18{fill:#FFFFFF;}
		.st19{filter:url(#Adobe_OpacityMaskFilter_4_);}
		.st20{fill:url(#SVGID_12_);}
		.st21{mask:url(#sun_13_);fill:#FFFFFF;}
		.st22{filter:url(#Adobe_OpacityMaskFilter_5_);}
		.st23{fill:url(#SVGID_13_);}
		.st24{opacity:0.28;mask:url(#sun_16_);fill:#FFFFFF;}
		.st25{fill:url(#SVGID_14_);}
		.st26{fill:url(#SVGID_15_);}
		.st27{filter:url(#Adobe_OpacityMaskFilter_6_);}
		.st28{fill:url(#SVGID_17_);}
		.st29{mask:url(#SVGID_16_);fill:#FFFFFF;}
		.st30{filter:url(#Adobe_OpacityMaskFilter_7_);}
		.st31{fill:url(#SVGID_18_);}
		.st32{mask:url(#sun_17_);fill:#F7EEDA;}
		.st33{filter:url(#Adobe_OpacityMaskFilter_8_);}
		.st34{fill:url(#SVGID_20_);}
		.st35{mask:url(#SVGID_19_);fill:#FFFFFF;}
		.st36{filter:url(#Adobe_OpacityMaskFilter_9_);}
		.st37{fill:url(#SVGID_21_);}
		.st38{mask:url(#sun_18_);fill:#FFFFFF;}
		.st39{filter:url(#Adobe_OpacityMaskFilter_10_);}
		.st40{fill:url(#SVGID_23_);}
		.st41{fill:url(#SVGID_24_);}
		.st42{fill:url(#SVGID_25_);}
		.st43{fill:url(#SVGID_26_);}
		.st44{mask:url(#SVGID_22_);}
		.st45{filter:url(#Adobe_OpacityMaskFilter_11_);}
		.st46{fill:url(#SVGID_27_);}
		.st47{mask:url(#sun_19_);fill:#FFFFFF;}
		.st48{filter:url(#Adobe_OpacityMaskFilter_12_);}
		.st49{fill:url(#SVGID_28_);}
		.st50{opacity:0.28;mask:url(#sun_20_);fill:#FFFFFF;}
		.st51{fill:url(#SVGID_29_);}
		.st52{fill:url(#SVGID_30_);}
		.st53{filter:url(#Adobe_OpacityMaskFilter_13_);}
		.st54{fill:url(#SVGID_32_);}
		.st55{mask:url(#SVGID_31_);fill:#FFFFFF;}
		.st56{filter:url(#Adobe_OpacityMaskFilter_14_);}
		.st57{fill:url(#SVGID_34_);}
		.st58{mask:url(#SVGID_33_);fill:#FFFFFF;}
		.st59{filter:url(#Adobe_OpacityMaskFilter_15_);}
		.st60{fill:url(#SVGID_35_);}
		.st61{mask:url(#sun_21_);fill:#FFFFFF;}
		.st62{filter:url(#Adobe_OpacityMaskFilter_16_);}
		.st63{fill:url(#SVGID_37_);}
		.st64{fill:url(#SVGID_38_);}
		.st65{fill:url(#SVGID_39_);}
		.st66{fill:url(#SVGID_40_);}
		.st67{mask:url(#SVGID_36_);}
		.st68{filter:url(#Adobe_OpacityMaskFilter_17_);}
		.st69{fill:url(#SVGID_41_);}
		.st70{mask:url(#sun_22_);fill:#FFFFFF;}
		.st71{filter:url(#Adobe_OpacityMaskFilter_18_);}
		.st72{fill:url(#SVGID_42_);}
		.st73{opacity:0.28;mask:url(#sun_23_);fill:#FFFFFF;}
		.st74{filter:url(#Adobe_OpacityMaskFilter_19_);}
		.st75{fill:url(#SVGID_43_);}
		.st76{mask:url(#sun_24_);fill:#F7EEDA;}
	</style>

	<g>
		<g id="red">
			
			<radialGradient id="SVGID_1_" cx="-2.6202" cy="1235.2406" r="63.3386" gradientTransform="matrix(1.649 0 0 0.3475 209.2616 -217.6593)" gradientUnits="userSpaceOnUse">
				<stop  offset="0" style="stop-color:#000000"/>
				<stop  offset="0.1931" style="stop-color:#2C2C2C"/>
				<stop  offset="0.6266" style="stop-color:#9B9B9B"/>
				<stop  offset="1" style="stop-color:#FFFFFF"/>
			</radialGradient>
			<radialGradient id="SVGID_2_" cx="205.7422" cy="110.4053" r="100.6748" gradientUnits="userSpaceOnUse">
				<stop  offset="0" style="stop-color:#FFFFFF"/>
				<stop  offset="1" style="stop-color:#DF001A"/>
			</radialGradient>
			<circle class="st1" cx="205.7" cy="110.4" r="100.7"/>
			<defs>
				<filter id="Adobe_OpacityMaskFilter" filterUnits="userSpaceOnUse" x="119.1" y="11.9" width="173" height="152.8">
					<feColorMatrix  type="matrix" values="1 0 0 0 0  0 1 0 0 0  0 0 1 0 0  0 0 0 1 0"/>
				</filter>
			</defs>
			<mask maskUnits="userSpaceOnUse" x="119.1" y="11.9" width="173" height="152.8" id="SVGID_3_">
				<g class="st2">
					<linearGradient id="SVGID_4_" gradientUnits="userSpaceOnUse" x1="205.0787" y1="14.2" x2="205.0787" y2="140.7139">
						<stop  offset="0" style="stop-color:#808080"/>
						<stop  offset="0.2516" style="stop-color:#585858"/>
						<stop  offset="0.5917" style="stop-color:#292929"/>
						<stop  offset="0.8522" style="stop-color:#0B0B0B"/>
						<stop  offset="1" style="stop-color:#000000"/>
					</linearGradient>
					<path class="st3" d="M205.1,12.5c-47.8,0-86.5,34.2-86.5,76.4c0,42.2,38.7,76.4,86.5,76.4c47.8,0,86.5-34.2,86.5-76.4
						C291.6,46.7,252.9,12.5,205.1,12.5z"/>
				</g>
			</mask>
			<path class="st4" d="M205.6,11.9c-47.8,0-86.5,34.2-86.5,76.4c0,42.2,38.7,76.4,86.5,76.4c47.8,0,86.5-34.2,86.5-76.4
				C292.1,46.2,253.4,11.9,205.6,11.9z"/>
			<g>
				<defs>
					<filter id="Adobe_OpacityMaskFilter_1_" filterUnits="userSpaceOnUse" x="222.8" y="12.1" width="85" height="99.2">
						<feColorMatrix  type="matrix" values="1 0 0 0 0  0 1 0 0 0  0 0 1 0 0  0 0 0 1 0"/>
					</filter>
				</defs>
				<mask maskUnits="userSpaceOnUse" x="222.8" y="12.1" width="85" height="99.2" id="sun_11_">
					<g class="st5">
						
							<radialGradient id="SVGID_5_" cx="433.8167" cy="227.2029" r="54.4137" gradientTransform="matrix(0.4896 0.8394 -0.6084 0.355 191.1318 -383.1082)" gradientUnits="userSpaceOnUse">
							<stop  offset="3.030300e-002" style="stop-color:#FFFFFF"/>
							<stop  offset="9.978793e-002" style="stop-color:#CBCBCB"/>
							<stop  offset="0.1905" style="stop-color:#8E8E8E"/>
							<stop  offset="0.2777" style="stop-color:#5B5B5B"/>
							<stop  offset="0.3591" style="stop-color:#343434"/>
							<stop  offset="0.4332" style="stop-color:#171717"/>
							<stop  offset="0.4978" style="stop-color:#060606"/>
							<stop  offset="0.5455" style="stop-color:#000000"/>
						</radialGradient>
						<path class="st6" d="M291.9,107.4c-18.3,10.7-45-1.2-59.7-26.4c-14.7-25.2-11.8-54.3,6.5-65c18.3-10.7,45,1.1,59.7,26.3
							C313.1,67.6,310.2,96.7,291.9,107.4z"/>
					</g>
				</mask>
				<path id="sun_14_" class="st7" d="M291.9,107.4c-18.3,10.7-45-1.2-59.7-26.4c-14.7-25.2-11.8-54.3,6.5-65
					c18.3-10.7,45,1.1,59.7,26.3C313.1,67.6,310.2,96.7,291.9,107.4z"/>
				<path class="st8" d="M270.3,65.9c-1.3,1.7-5.1,1.1-8.6-1.5c-3.5-2.5-5.2-6-4-7.7c1.3-1.7,5.1-1.1,8.6,1.5
					C269.8,60.7,271.6,64.2,270.3,65.9z"/>
			</g>
			<defs>
				<filter id="Adobe_OpacityMaskFilter_2_" filterUnits="userSpaceOnUse" x="128.3" y="135.2" width="154.9" height="114.5">
					<feColorMatrix  type="matrix" values="1 0 0 0 0  0 1 0 0 0  0 0 1 0 0  0 0 0 1 0"/>
				</filter>
			</defs>
			<mask maskUnits="userSpaceOnUse" x="128.3" y="135.2" width="154.9" height="114.5" id="sun_12_">
				<g class="st9">
					
						<radialGradient id="SVGID_6_" cx="579.6061" cy="457.3654" r="72.323" gradientTransform="matrix(3.890000e-002 0.7899 -1.07 5.260000e-002 672.577 -289.4257)" gradientUnits="userSpaceOnUse">
						<stop  offset="3.030300e-002" style="stop-color:#FFFFFF"/>
						<stop  offset="0.1611" style="stop-color:#CBCBCB"/>
						<stop  offset="0.3318" style="stop-color:#8E8E8E"/>
						<stop  offset="0.496" style="stop-color:#5B5B5B"/>
						<stop  offset="0.6492" style="stop-color:#343434"/>
						<stop  offset="0.7888" style="stop-color:#171717"/>
						<stop  offset="0.9102" style="stop-color:#060606"/>
						<stop  offset="1" style="stop-color:#000000"/>
					</radialGradient>
					<path class="st10" d="M208.5,249.6c-42.7,2.1-78.6-21.8-80.2-53.3c-1.6-31.5,31.8-58.8,74.6-60.9c42.7-2.1,78.7,21.8,80.2,53.3
						C284.7,220.2,251.3,247.5,208.5,249.6z"/>
				</g>
			</mask>
			<path id="sun_15_" class="st11" d="M208.5,249.6c-42.7,2.1-78.6-21.8-80.2-53.3c-1.6-31.5,31.8-58.8,74.6-60.9
				c42.7-2.1,78.7,21.8,80.2,53.3C284.7,220.2,251.3,247.5,208.5,249.6z"/>
			<defs>
				<filter id="Adobe_OpacityMaskFilter_3_" filterUnits="userSpaceOnUse" x="128.4" y="23.9" width="48.8" height="68.3">
					<feColorMatrix  type="matrix" values="1 0 0 0 0  0 1 0 0 0  0 0 1 0 0  0 0 0 1 0"/>
				</filter>
			</defs>
			<mask maskUnits="userSpaceOnUse" x="128.4" y="23.9" width="48.8" height="68.3" id="SVGID_7_">
				<g class="st12">
					<g>
						
							<linearGradient id="SVGID_8_" gradientUnits="userSpaceOnUse" x1="-176.4108" y1="-147.7673" x2="-156.8221" y2="-122.0569" gradientTransform="matrix(0.9958 9.140000e-002 -9.140000e-002 0.9958 279.791 213.5656)">
							<stop  offset="0" style="stop-color:#FFFFFF"/>
							<stop  offset="1" style="stop-color:#000000"/>
						</linearGradient>
						<path class="st13" d="M137.8,58.8c-5.8,9.7-8.6,21-8.1,32.1c-0.2,0.4-0.4,0.9-0.7,1.3c-1.8-11-0.2-24.2,6.5-36.7
							C136.3,56.7,137,57.8,137.8,58.8z"/>
						
							<linearGradient id="SVGID_9_" gradientUnits="userSpaceOnUse" x1="-144.0256" y1="-172.4405" x2="-124.439" y2="-146.733" gradientTransform="matrix(0.9958 9.140000e-002 -9.140000e-002 0.9958 279.791 213.5656)">
							<stop  offset="0" style="stop-color:#FFFFFF"/>
							<stop  offset="1" style="stop-color:#000000"/>
						</linearGradient>
						<path class="st14" d="M166.4,34.5c-10.2,4-19.4,11.1-26,20.3c-0.6-1.4-1.2-2.9-1.7-4.4c8-12,21.3-22.4,38.5-26.4
							C172.9,27.1,169.3,30.7,166.4,34.5z"/>
						
							<linearGradient id="SVGID_10_" gradientUnits="userSpaceOnUse" x1="-175.668" y1="-148.3289" x2="-156.0808" y2="-122.6206" gradientTransform="matrix(0.9958 9.140000e-002 -9.140000e-002 0.9958 279.791 213.5656)">
							<stop  offset="0" style="stop-color:#FFFFFF"/>
							<stop  offset="1" style="stop-color:#000000"/>
						</linearGradient>
						<path class="st15" d="M140.5,62.3c-5,6.7-9.1,16-10,27.1c-0.2,0.4-0.5,0.8-0.7,1.3c-0.3-11.1,2.7-22.2,8.3-31.5
							C138.9,60.3,139.7,61.3,140.5,62.3z"/>
						
							<linearGradient id="SVGID_11_" gradientUnits="userSpaceOnUse" x1="-150.9019" y1="-167.2051" x2="-131.31" y2="-141.4904" gradientTransform="matrix(0.9958 9.140000e-002 -9.140000e-002 0.9958 279.791 213.5656)">
							<stop  offset="0" style="stop-color:#FFFFFF"/>
							<stop  offset="1" style="stop-color:#000000"/>
						</linearGradient>
						<path class="st16" d="M158.6,47.8c-4.9,1.9-10.7,5.6-15.9,11.8c-0.7-1.4-1.4-2.8-2-4.2c6.3-8.8,15-15.5,24.4-19.3
							C162.4,39.9,160.2,43.8,158.6,47.8z"/>
					</g>
				</g>
			</mask>
			<g class="st17">
				<path class="st18" d="M137.8,58.8c-5.8,9.7-8.6,21-8.1,32.1c-0.2,0.4-0.4,0.9-0.7,1.3c-1.8-11-0.2-24.2,6.5-36.7
					C136.3,56.7,137,57.8,137.8,58.8z"/>
				<path class="st18" d="M166.4,34.5c-10.2,4-19.4,11.1-26,20.3c-0.6-1.4-1.2-2.9-1.7-4.4c8-12,21.3-22.4,38.5-26.4
					C172.9,27.1,169.3,30.7,166.4,34.5z"/>
				<path class="st18" d="M140.5,62.3c-5,6.7-9.1,16-10,27.1c-0.2,0.4-0.5,0.8-0.7,1.3c-0.3-11.1,2.7-22.2,8.3-31.5
					C138.9,60.3,139.7,61.3,140.5,62.3z"/>
				<path class="st18" d="M158.6,47.8c-4.9,1.9-10.7,5.6-15.9,11.8c-0.7-1.4-1.4-2.8-2-4.2c6.3-8.8,15-15.5,24.4-19.3
					C162.4,39.9,160.2,43.8,158.6,47.8z"/>
			</g>
			<defs>
				<filter id="Adobe_OpacityMaskFilter_4_" filterUnits="userSpaceOnUse" x="182.3" y="179.2" width="44.9" height="33.2">
					<feColorMatrix  type="matrix" values="1 0 0 0 0  0 1 0 0 0  0 0 1 0 0  0 0 0 1 0"/>
				</filter>
			</defs>
			<mask maskUnits="userSpaceOnUse" x="182.3" y="179.2" width="44.9" height="33.2" id="sun_13_">
				<g class="st19">
					
						<radialGradient id="SVGID_12_" cx="583.7885" cy="458.4176" r="20.9708" gradientTransform="matrix(3.890000e-002 0.7899 -1.07 5.260000e-002 672.577 -289.4257)" gradientUnits="userSpaceOnUse">
						<stop  offset="3.030300e-002" style="stop-color:#FFFFFF"/>
						<stop  offset="0.1611" style="stop-color:#CBCBCB"/>
						<stop  offset="0.3318" style="stop-color:#8E8E8E"/>
						<stop  offset="0.496" style="stop-color:#5B5B5B"/>
						<stop  offset="0.6492" style="stop-color:#343434"/>
						<stop  offset="0.7888" style="stop-color:#171717"/>
						<stop  offset="0.9102" style="stop-color:#060606"/>
						<stop  offset="1" style="stop-color:#000000"/>
					</radialGradient>
					<path class="st20" d="M205.6,212.4c-12.4,0.6-22.8-6.3-23.2-15.5c-0.5-9.1,9.2-17.1,21.6-17.7c12.4-0.6,22.8,6.3,23.3,15.5
						C227.7,203.9,218,211.8,205.6,212.4z"/>
				</g>
			</mask>
			<path id="sun_1_" class="st21" d="M205.6,212.4c-12.4,0.6-22.8-6.3-23.2-15.5c-0.5-9.1,9.2-17.1,21.6-17.7
				c12.4-0.6,22.8,6.3,23.3,15.5C227.7,203.9,218,211.8,205.6,212.4z"/>
			<defs>
				<filter id="Adobe_OpacityMaskFilter_5_" filterUnits="userSpaceOnUse" x="152.8" y="160" width="105.5" height="78">
					<feColorMatrix  type="matrix" values="1 0 0 0 0  0 1 0 0 0  0 0 1 0 0  0 0 0 1 0"/>
				</filter>
			</defs>
			<mask maskUnits="userSpaceOnUse" x="152.8" y="160" width="105.5" height="78" id="sun_16_">
				<g class="st22">
					
						<radialGradient id="SVGID_13_" cx="587.8561" cy="457.8217" r="49.269" gradientTransform="matrix(3.890000e-002 0.7899 -1.07 5.260000e-002 672.577 -289.4257)" gradientUnits="userSpaceOnUse">
						<stop  offset="3.030300e-002" style="stop-color:#FFFFFF"/>
						<stop  offset="0.1611" style="stop-color:#CBCBCB"/>
						<stop  offset="0.3318" style="stop-color:#8E8E8E"/>
						<stop  offset="0.496" style="stop-color:#5B5B5B"/>
						<stop  offset="0.6492" style="stop-color:#343434"/>
						<stop  offset="0.7888" style="stop-color:#171717"/>
						<stop  offset="0.9102" style="stop-color:#060606"/>
						<stop  offset="1" style="stop-color:#000000"/>
					</radialGradient>
					<path class="st23" d="M207.5,237.9c-29.1,1.4-53.6-14.8-54.6-36.3c-1.1-21.5,21.7-40.1,50.8-41.5c29.1-1.4,53.6,14.8,54.6,36.3
						C259.4,217.9,236.6,236.5,207.5,237.9z"/>
				</g>
			</mask>
			<path id="sun_2_" class="st24" d="M207.5,237.9c-29.1,1.4-53.6-14.8-54.6-36.3c-1.1-21.5,21.7-40.1,50.8-41.5
				c29.1-1.4,53.6,14.8,54.6,36.3C259.4,217.9,236.6,236.5,207.5,237.9z"/>
		</g>
		<g id="blue">
			
			<radialGradient id="SVGID_14_" cx="51.4395" cy="1703.6478" r="63.339" gradientTransform="matrix(1.649 0 0 0.3475 209.2616 -217.6593)" gradientUnits="userSpaceOnUse">
				<stop  offset="0" style="stop-color:#000000"/>
				<stop  offset="0.1931" style="stop-color:#2C2C2C"/>
				<stop  offset="0.6266" style="stop-color:#9B9B9B"/>
				<stop  offset="1" style="stop-color:#FFFFFF"/>
			</radialGradient>
			<radialGradient id="SVGID_15_" cx="294.8866" cy="273.177" r="100.6747" gradientUnits="userSpaceOnUse">
				<stop  offset="0" style="stop-color:#FFFFFF"/>
				<stop  offset="1" style="stop-color:#37A6D9"/>
			</radialGradient>
			<circle class="st26" cx="294.9" cy="273.2" r="100.7"/>
			<defs>
				<filter id="Adobe_OpacityMaskFilter_6_" filterUnits="userSpaceOnUse" x="208.2" y="174.7" width="173" height="152.8">
					<feColorMatrix  type="matrix" values="1 0 0 0 0  0 1 0 0 0  0 0 1 0 0  0 0 0 1 0"/>
				</filter>
			</defs>
			<mask maskUnits="userSpaceOnUse" x="208.2" y="174.7" width="173" height="152.8" id="SVGID_16_">
				<g class="st27">
					<linearGradient id="SVGID_17_" gradientUnits="userSpaceOnUse" x1="294.2235" y1="176.9712" x2="294.2235" y2="303.4856">
						<stop  offset="0" style="stop-color:#808080"/>
						<stop  offset="0.2516" style="stop-color:#585858"/>
						<stop  offset="0.5917" style="stop-color:#292929"/>
						<stop  offset="0.8522" style="stop-color:#0B0B0B"/>
						<stop  offset="1" style="stop-color:#000000"/>
					</linearGradient>
					<path class="st28" d="M294.2,175.3c-47.8,0-86.5,34.2-86.5,76.4c0,42.2,38.7,76.4,86.5,76.4c47.8,0,86.5-34.2,86.5-76.4
						C380.7,209.5,342,175.3,294.2,175.3z"/>
				</g>
			</mask>
			<path class="st29" d="M294.7,174.7c-47.8,0-86.5,34.2-86.5,76.4c0,42.2,38.7,76.4,86.5,76.4c47.8,0,86.5-34.2,86.5-76.4
				C381.2,208.9,342.5,174.7,294.7,174.7z"/>
			<g>
				<defs>
					<filter id="Adobe_OpacityMaskFilter_7_" filterUnits="userSpaceOnUse" x="311.9" y="174.9" width="85" height="99.2">
						<feColorMatrix  type="matrix" values="1 0 0 0 0  0 1 0 0 0  0 0 1 0 0  0 0 0 1 0"/>
					</filter>
				</defs>
				<mask maskUnits="userSpaceOnUse" x="311.9" y="174.9" width="85" height="99.2" id="sun_17_">
					<g class="st30">
						
							<radialGradient id="SVGID_18_" cx="624.7253" cy="234.31" r="54.4141" gradientTransform="matrix(0.4896 0.8394 -0.6084 0.355 191.1318 -383.1082)" gradientUnits="userSpaceOnUse">
							<stop  offset="3.030300e-002" style="stop-color:#FFFFFF"/>
							<stop  offset="9.978793e-002" style="stop-color:#CBCBCB"/>
							<stop  offset="0.1905" style="stop-color:#8E8E8E"/>
							<stop  offset="0.2777" style="stop-color:#5B5B5B"/>
							<stop  offset="0.3591" style="stop-color:#343434"/>
							<stop  offset="0.4332" style="stop-color:#171717"/>
							<stop  offset="0.4978" style="stop-color:#060606"/>
							<stop  offset="0.5455" style="stop-color:#000000"/>
						</radialGradient>
						<path class="st31" d="M381.1,270.1c-18.3,10.7-45-1.2-59.7-26.4c-14.7-25.2-11.8-54.3,6.5-65c18.3-10.7,45,1.1,59.7,26.3
							C402.3,230.4,399.4,259.5,381.1,270.1z"/>
					</g>
				</mask>
				<path id="sun_10_" class="st32" d="M381.1,270.1c-18.3,10.7-45-1.2-59.7-26.4c-14.7-25.2-11.8-54.3,6.5-65
					c18.3-10.7,45,1.1,59.7,26.3C402.3,230.4,399.4,259.5,381.1,270.1z"/>
				<path class="st8" d="M359.5,228.7c-1.3,1.7-5.1,1.1-8.6-1.5c-3.5-2.5-5.2-6-4-7.7c1.3-1.7,5.1-1.1,8.6,1.5
					C359,223.5,360.8,226.9,359.5,228.7z"/>
			</g>
			<defs>
				<filter id="Adobe_OpacityMaskFilter_8_" filterUnits="userSpaceOnUse" x="373.8" y="218" width="20.5" height="92.1">
					<feColorMatrix  type="matrix" values="1 0 0 0 0  0 1 0 0 0  0 0 1 0 0  0 0 0 1 0"/>
				</filter>
			</defs>
			<mask maskUnits="userSpaceOnUse" x="373.8" y="218" width="20.5" height="92.1" id="SVGID_19_">
				<g class="st33">
					
						<linearGradient id="SVGID_20_" gradientUnits="userSpaceOnUse" x1="-139.0467" y1="-445.2401" x2="-124.7236" y2="-425.5809" gradientTransform="matrix(-0.4148 0.9099 -0.9099 -0.4148 -59.2884 200.7499)">
						<stop  offset="0" style="stop-color:#FFFFFF"/>
						<stop  offset="1" style="stop-color:#000000"/>
					</linearGradient>
					<path class="st34" d="M383.4,310c-0.9,0.4,4.9-7.8,7.9-19.3c3.4-11.5,4-26.2,1.5-38.7c-4.5-26.8-22.2-39.1-18.4-32.2
						c2.7,6.2,11.7,24.7,10.6,44c0.4,18.9-9.5,38.8-9.5,38c0.3,0.2,10.1-17.9,11.9-29.2c1.9-11.1,6.1-16.9,3.9,11.9
						C390,292.9,387.4,301.5,383.4,310z"/>
				</g>
			</mask>
			<path class="st35" d="M383.4,310c-0.9,0.4,4.9-7.8,7.9-19.3c3.4-11.5,4-26.2,1.5-38.7c-4.5-26.8-22.2-39.1-18.4-32.2
				c2.7,6.2,11.7,24.7,10.6,44c0.4,18.9-9.5,38.8-9.5,38c0.3,0.2,10.1-17.9,11.9-29.2c1.9-11.1,6.1-16.9,3.9,11.9
				C390,292.9,387.4,301.5,383.4,310z"/>
			<defs>
				<filter id="Adobe_OpacityMaskFilter_9_" filterUnits="userSpaceOnUse" x="217.5" y="298" width="154.9" height="114.5">
					<feColorMatrix  type="matrix" values="1 0 0 0 0  0 1 0 0 0  0 0 1 0 0  0 0 0 1 0"/>
				</filter>
			</defs>
			<mask maskUnits="userSpaceOnUse" x="217.5" y="298" width="154.9" height="114.5" id="sun_18_">
				<g class="st36">
					
						<radialGradient id="SVGID_21_" cx="790.7088" cy="381.7271" r="72.3229" gradientTransform="matrix(3.890000e-002 0.7899 -1.07 5.260000e-002 672.577 -289.4257)" gradientUnits="userSpaceOnUse">
						<stop  offset="3.030300e-002" style="stop-color:#FFFFFF"/>
						<stop  offset="0.1611" style="stop-color:#CBCBCB"/>
						<stop  offset="0.3318" style="stop-color:#8E8E8E"/>
						<stop  offset="0.496" style="stop-color:#5B5B5B"/>
						<stop  offset="0.6492" style="stop-color:#343434"/>
						<stop  offset="0.7888" style="stop-color:#171717"/>
						<stop  offset="0.9102" style="stop-color:#060606"/>
						<stop  offset="1" style="stop-color:#000000"/>
					</radialGradient>
					<path class="st37" d="M297.7,412.4c-42.7,2.1-78.6-21.8-80.2-53.3c-1.6-31.5,31.8-58.8,74.6-60.9c42.7-2.1,78.7,21.8,80.2,53.3
						C373.8,383,340.5,410.3,297.7,412.4z"/>
				</g>
			</mask>
			<path id="sun_9_" class="st38" d="M297.7,412.4c-42.7,2.1-78.6-21.8-80.2-53.3c-1.6-31.5,31.8-58.8,74.6-60.9
				c42.7-2.1,78.7,21.8,80.2,53.3C373.8,383,340.5,410.3,297.7,412.4z"/>
			<defs>
				<filter id="Adobe_OpacityMaskFilter_10_" filterUnits="userSpaceOnUse" x="217.5" y="186.7" width="48.8" height="68.3">
					<feColorMatrix  type="matrix" values="1 0 0 0 0  0 1 0 0 0  0 0 1 0 0  0 0 0 1 0"/>
				</filter>
			</defs>
			<mask maskUnits="userSpaceOnUse" x="217.5" y="186.7" width="48.8" height="68.3" id="SVGID_22_">
				<g class="st39">
					<g>
						
							<linearGradient id="SVGID_23_" gradientUnits="userSpaceOnUse" x1="-72.7606" y1="6.1764" x2="-53.1712" y2="31.8877" gradientTransform="matrix(0.9958 9.140000e-002 -9.140000e-002 0.9958 279.791 213.5656)">
							<stop  offset="0" style="stop-color:#FFFFFF"/>
							<stop  offset="1" style="stop-color:#000000"/>
						</linearGradient>
						<path class="st40" d="M226.9,221.6c-5.8,9.7-8.6,21-8.1,32.1c-0.2,0.4-0.4,0.9-0.7,1.3c-1.8-11-0.2-24.2,6.5-36.7
							C225.4,219.5,226.2,220.5,226.9,221.6z"/>
						
							<linearGradient id="SVGID_24_" gradientUnits="userSpaceOnUse" x1="-40.3754" y1="-18.4964" x2="-20.7883" y2="7.2118" gradientTransform="matrix(0.9958 9.140000e-002 -9.140000e-002 0.9958 279.791 213.5656)">
							<stop  offset="0" style="stop-color:#FFFFFF"/>
							<stop  offset="1" style="stop-color:#000000"/>
						</linearGradient>
						<path class="st41" d="M255.5,197.2c-10.2,4-19.4,11.1-26,20.3c-0.6-1.4-1.2-2.9-1.7-4.4c8-12,21.3-22.4,38.5-26.4
							C262.1,189.9,258.5,193.5,255.5,197.2z"/>
						
							<linearGradient id="SVGID_25_" gradientUnits="userSpaceOnUse" x1="-72.0175" y1="5.6153" x2="-52.4302" y2="31.3237" gradientTransform="matrix(0.9958 9.140000e-002 -9.140000e-002 0.9958 279.791 213.5656)">
							<stop  offset="0" style="stop-color:#FFFFFF"/>
							<stop  offset="1" style="stop-color:#000000"/>
						</linearGradient>
						<path class="st42" d="M229.7,225.1c-5,6.7-9.1,16-10,27.1c-0.2,0.4-0.5,0.8-0.7,1.3c-0.3-11.1,2.7-22.2,8.3-31.5
							C228.1,223.1,228.8,224.1,229.7,225.1z"/>
						
							<linearGradient id="SVGID_26_" gradientUnits="userSpaceOnUse" x1="-47.2512" y1="-13.2606" x2="-27.6592" y2="12.454" gradientTransform="matrix(0.9958 9.140000e-002 -9.140000e-002 0.9958 279.791 213.5656)">
							<stop  offset="0" style="stop-color:#FFFFFF"/>
							<stop  offset="1" style="stop-color:#000000"/>
						</linearGradient>
						<path class="st43" d="M247.8,210.6c-4.9,1.9-10.7,5.6-15.9,11.8c-0.7-1.4-1.4-2.8-2-4.2c6.3-8.8,15-15.5,24.5-19.3
							C251.5,202.7,249.3,206.6,247.8,210.6z"/>
					</g>
				</g>
			</mask>
			<g class="st44">
				<path class="st18" d="M226.9,221.6c-5.8,9.7-8.6,21-8.1,32.1c-0.2,0.4-0.4,0.9-0.7,1.3c-1.8-11-0.2-24.2,6.5-36.7
					C225.4,219.5,226.2,220.5,226.9,221.6z"/>
				<path class="st18" d="M255.5,197.2c-10.2,4-19.4,11.1-26,20.3c-0.6-1.4-1.2-2.9-1.7-4.4c8-12,21.3-22.4,38.5-26.4
					C262.1,189.9,258.5,193.5,255.5,197.2z"/>
				<path class="st18" d="M229.7,225.1c-5,6.7-9.1,16-10,27.1c-0.2,0.4-0.5,0.8-0.7,1.3c-0.3-11.1,2.7-22.2,8.3-31.5
					C228.1,223.1,228.8,224.1,229.7,225.1z"/>
				<path class="st18" d="M247.8,210.6c-4.9,1.9-10.7,5.6-15.9,11.8c-0.7-1.4-1.4-2.8-2-4.2c6.3-8.8,15-15.5,24.5-19.3
					C251.5,202.7,249.3,206.6,247.8,210.6z"/>
			</g>
			<defs>
				<filter id="Adobe_OpacityMaskFilter_11_" filterUnits="userSpaceOnUse" x="271.5" y="342" width="44.9" height="33.2">
					<feColorMatrix  type="matrix" values="1 0 0 0 0  0 1 0 0 0  0 0 1 0 0  0 0 0 1 0"/>
				</filter>
			</defs>
			<mask maskUnits="userSpaceOnUse" x="271.5" y="342" width="44.9" height="33.2" id="sun_19_">
				<g class="st45">
					
						<radialGradient id="SVGID_27_" cx="794.8913" cy="382.7794" r="20.9711" gradientTransform="matrix(3.890000e-002 0.7899 -1.07 5.260000e-002 672.577 -289.4257)" gradientUnits="userSpaceOnUse">
						<stop  offset="3.030300e-002" style="stop-color:#FFFFFF"/>
						<stop  offset="0.1611" style="stop-color:#CBCBCB"/>
						<stop  offset="0.3318" style="stop-color:#8E8E8E"/>
						<stop  offset="0.496" style="stop-color:#5B5B5B"/>
						<stop  offset="0.6492" style="stop-color:#343434"/>
						<stop  offset="0.7888" style="stop-color:#171717"/>
						<stop  offset="0.9102" style="stop-color:#060606"/>
						<stop  offset="1" style="stop-color:#000000"/>
					</radialGradient>
					<path class="st46" d="M294.7,375.2c-12.4,0.6-22.8-6.3-23.2-15.5c-0.5-9.1,9.2-17.1,21.6-17.7c12.4-0.6,22.8,6.3,23.3,15.5
						C316.8,366.6,307.1,374.5,294.7,375.2z"/>
				</g>
			</mask>
			<path id="sun_8_" class="st47" d="M294.7,375.2c-12.4,0.6-22.8-6.3-23.2-15.5c-0.5-9.1,9.2-17.1,21.6-17.7
				c12.4-0.6,22.8,6.3,23.3,15.5C316.8,366.6,307.1,374.5,294.7,375.2z"/>
			<defs>
				<filter id="Adobe_OpacityMaskFilter_12_" filterUnits="userSpaceOnUse" x="242" y="322.8" width="105.5" height="78">
					<feColorMatrix  type="matrix" values="1 0 0 0 0  0 1 0 0 0  0 0 1 0 0  0 0 0 1 0"/>
				</filter>
			</defs>
			<mask maskUnits="userSpaceOnUse" x="242" y="322.8" width="105.5" height="78" id="sun_20_">
				<g class="st48">
					
						<radialGradient id="SVGID_28_" cx="798.9592" cy="382.1838" r="49.269" gradientTransform="matrix(3.890000e-002 0.7899 -1.07 5.260000e-002 672.577 -289.4257)" gradientUnits="userSpaceOnUse">
						<stop  offset="3.030300e-002" style="stop-color:#FFFFFF"/>
						<stop  offset="0.1611" style="stop-color:#CBCBCB"/>
						<stop  offset="0.3318" style="stop-color:#8E8E8E"/>
						<stop  offset="0.496" style="stop-color:#5B5B5B"/>
						<stop  offset="0.6492" style="stop-color:#343434"/>
						<stop  offset="0.7888" style="stop-color:#171717"/>
						<stop  offset="0.9102" style="stop-color:#060606"/>
						<stop  offset="1" style="stop-color:#000000"/>
					</radialGradient>
					<path class="st49" d="M296.6,400.7c-29.1,1.4-53.6-14.8-54.6-36.3c-1.1-21.5,21.7-40.1,50.8-41.5c29.1-1.4,53.6,14.8,54.6,36.3
						C348.5,380.7,325.8,399.3,296.6,400.7z"/>
				</g>
			</mask>
			<path id="sun_7_" class="st50" d="M296.6,400.7c-29.1,1.4-53.6-14.8-54.6-36.3c-1.1-21.5,21.7-40.1,50.8-41.5
				c29.1-1.4,53.6,14.8,54.6,36.3C348.5,380.7,325.8,399.3,296.6,400.7z"/>
		</g>
		<g id="green">
			
			<radialGradient id="SVGID_29_" cx="-53.4672" cy="1687.8857" r="63.3388" gradientTransform="matrix(1.649 0 0 0.3475 209.2616 -217.6593)" gradientUnits="userSpaceOnUse">
				<stop  offset="0" style="stop-color:#000000"/>
				<stop  offset="0.1931" style="stop-color:#2C2C2C"/>
				<stop  offset="0.6266" style="stop-color:#9B9B9B"/>
				<stop  offset="1" style="stop-color:#FFFFFF"/>
			</radialGradient>
			<radialGradient id="SVGID_30_" cx="121.8954" cy="267.6996" r="100.6744" gradientUnits="userSpaceOnUse">
				<stop  offset="0" style="stop-color:#FFFFFF"/>
				<stop  offset="1" style="stop-color:#36A662"/>
			</radialGradient>
			<circle class="st52" cx="121.9" cy="267.7" r="100.7"/>
				<defs>
					<filter id="Adobe_OpacityMaskFilter_13_" filterUnits="userSpaceOnUse" x="35.2" y="169.2" width="173" height="152.8">
						<feColorMatrix  type="matrix" values="1 0 0 0 0  0 1 0 0 0  0 0 1 0 0  0 0 0 1 0"/>
					</filter>
				</defs>
			<mask maskUnits="userSpaceOnUse" x="35.2" y="169.2" width="173" height="152.8" id="SVGID_31_">
				<g class="st53">
					<linearGradient id="SVGID_32_" gradientUnits="userSpaceOnUse" x1="121.2318" y1="171.4939" x2="121.2318" y2="298.0082">
						<stop  offset="0" style="stop-color:#808080"/>
						<stop  offset="0.2516" style="stop-color:#585858"/>
						<stop  offset="0.5917" style="stop-color:#292929"/>
						<stop  offset="0.8522" style="stop-color:#0B0B0B"/>
						<stop  offset="1" style="stop-color:#000000"/>
					</linearGradient>
					<path class="st54" d="M121.2,169.8c-47.8,0-86.5,34.2-86.5,76.4c0,42.2,38.7,76.4,86.5,76.4c47.8,0,86.5-34.2,86.5-76.4
						C207.8,204,169,169.8,121.2,169.8z"/>
				</g>
			</mask>
			<path class="st55" d="M121.7,169.2c-47.8,0-86.5,34.2-86.5,76.4c0,42.2,38.7,76.4,86.5,76.4c47.8,0,86.5-34.2,86.5-76.4
				C208.2,203.4,169.5,169.2,121.7,169.2z"/>
			<defs>
				<filter id="Adobe_OpacityMaskFilter_14_" filterUnits="userSpaceOnUse" x="200.9" y="212.5" width="20.5" height="92.1">
					<feColorMatrix  type="matrix" values="1 0 0 0 0  0 1 0 0 0  0 0 1 0 0  0 0 0 1 0"/>
				</filter>
			</defs>
			<mask maskUnits="userSpaceOnUse" x="200.9" y="212.5" width="20.5" height="92.1" id="SVGID_33_">
				<g class="st56">
					
						<linearGradient id="SVGID_34_" gradientUnits="userSpaceOnUse" x1="-72.272" y1="-285.5593" x2="-57.949" y2="-265.9001" gradientTransform="matrix(-0.4148 0.9099 -0.9099 -0.4148 -59.2884 200.7499)">
						<stop  offset="0" style="stop-color:#FFFFFF"/>
						<stop  offset="1" style="stop-color:#000000"/>
					</linearGradient>
					<path class="st57" d="M210.4,304.5c-0.9,0.4,4.9-7.8,7.9-19.3c3.4-11.5,4-26.2,1.5-38.7c-4.5-26.8-22.2-39.1-18.4-32.2
						c2.7,6.2,11.7,24.7,10.6,44c0.4,18.9-9.5,38.8-9.5,38c0.3,0.2,10.1-17.9,11.9-29.2c1.9-11.1,6.1-16.9,3.9,11.9
						C217,287.5,214.4,296,210.4,304.5z"/>
				</g>
			</mask>
			<path class="st58" d="M210.4,304.5c-0.9,0.4,4.9-7.8,7.9-19.3c3.4-11.5,4-26.2,1.5-38.7c-4.5-26.8-22.2-39.1-18.4-32.2
				c2.7,6.2,11.7,24.7,10.6,44c0.4,18.9-9.5,38.8-9.5,38c0.3,0.2,10.1-17.9,11.9-29.2c1.9-11.1,6.1-16.9,3.9,11.9
				C217,287.5,214.4,296,210.4,304.5z"/>
			<defs>
				<filter id="Adobe_OpacityMaskFilter_15_" filterUnits="userSpaceOnUse" x="44.5" y="292.5" width="154.9" height="114.5">
					<feColorMatrix  type="matrix" values="1 0 0 0 0  0 1 0 0 0  0 0 1 0 0  0 0 0 1 0"/>
				</filter>
			</defs>
			<mask maskUnits="userSpaceOnUse" x="44.5" y="292.5" width="154.9" height="114.5" id="sun_21_">
				<g class="st59">
					
						<radialGradient id="SVGID_35_" cx="773.0514" cy="542.7593" r="72.3227" gradientTransform="matrix(3.890000e-002 0.7899 -1.07 5.260000e-002 672.577 -289.4257)" gradientUnits="userSpaceOnUse">
						<stop  offset="3.030300e-002" style="stop-color:#FFFFFF"/>
						<stop  offset="0.1611" style="stop-color:#CBCBCB"/>
						<stop  offset="0.3318" style="stop-color:#8E8E8E"/>
						<stop  offset="0.496" style="stop-color:#5B5B5B"/>
						<stop  offset="0.6492" style="stop-color:#343434"/>
						<stop  offset="0.7888" style="stop-color:#171717"/>
						<stop  offset="0.9102" style="stop-color:#060606"/>
						<stop  offset="1" style="stop-color:#000000"/>
					</radialGradient>
					<path class="st60" d="M124.7,406.9C82,409,46.1,385.1,44.5,353.6c-1.6-31.5,31.8-58.8,74.6-60.9c42.7-2.1,78.7,21.8,80.2,53.3
						C200.8,377.5,167.5,404.8,124.7,406.9z"/>
				</g>
			</mask>
			<path id="sun_5_" class="st61" d="M124.7,406.9C82,409,46.1,385.1,44.5,353.6c-1.6-31.5,31.8-58.8,74.6-60.9
				c42.7-2.1,78.7,21.8,80.2,53.3C200.8,377.5,167.5,404.8,124.7,406.9z"/>
			<defs>
				<filter id="Adobe_OpacityMaskFilter_16_" filterUnits="userSpaceOnUse" x="44.5" y="181.2" width="48.8" height="68.3">
					<feColorMatrix  type="matrix" values="1 0 0 0 0  0 1 0 0 0  0 0 1 0 0  0 0 0 1 0"/>
				</filter>
			</defs>
			<mask maskUnits="userSpaceOnUse" x="44.5" y="181.2" width="48.8" height="68.3" id="SVGID_36_">
				<g class="st62">
					<g>
						
							<linearGradient id="SVGID_37_" gradientUnits="userSpaceOnUse" x1="-245.5308" y1="16.5345" x2="-225.9418" y2="42.2452" gradientTransform="matrix(0.9958 9.140000e-002 -9.140000e-002 0.9958 279.791 213.5656)">
							<stop  offset="0" style="stop-color:#FFFFFF"/>
							<stop  offset="1" style="stop-color:#000000"/>
						</linearGradient>
						<path class="st63" d="M54,216.1c-5.8,9.7-8.6,21-8.1,32.1c-0.2,0.4-0.4,0.9-0.7,1.3c-1.8-11-0.2-24.2,6.5-36.7
							C52.4,214,53.2,215.1,54,216.1z"/>
						
							<linearGradient id="SVGID_38_" gradientUnits="userSpaceOnUse" x1="-213.1456" y1="-8.1391" x2="-193.5582" y2="17.5695" gradientTransform="matrix(0.9958 9.140000e-002 -9.140000e-002 0.9958 279.791 213.5656)">
							<stop  offset="0" style="stop-color:#FFFFFF"/>
							<stop  offset="1" style="stop-color:#000000"/>
						</linearGradient>
						<path class="st64" d="M82.5,191.7c-10.2,4-19.4,11.1-26,20.3c-0.6-1.4-1.2-2.9-1.7-4.4c8-12,21.3-22.4,38.5-26.4
							C89.1,184.4,85.5,188,82.5,191.7z"/>
						
							<linearGradient id="SVGID_39_" gradientUnits="userSpaceOnUse" x1="-244.7872" y1="15.9732" x2="-225.2005" y2="41.681" gradientTransform="matrix(0.9958 9.140000e-002 -9.140000e-002 0.9958 279.791 213.5656)">
							<stop  offset="0" style="stop-color:#FFFFFF"/>
							<stop  offset="1" style="stop-color:#000000"/>
						</linearGradient>
						<path class="st65" d="M56.7,219.6c-5,6.7-9.1,16-10,27.1c-0.2,0.4-0.5,0.8-0.7,1.3c-0.3-11.1,2.7-22.2,8.3-31.5
							C55.1,217.6,55.9,218.6,56.7,219.6z"/>
						
							<linearGradient id="SVGID_40_" gradientUnits="userSpaceOnUse" x1="-220.0214" y1="-2.9033" x2="-200.4292" y2="22.8117" gradientTransform="matrix(0.9958 9.140000e-002 -9.140000e-002 0.9958 279.791 213.5656)">
							<stop  offset="0" style="stop-color:#FFFFFF"/>
							<stop  offset="1" style="stop-color:#000000"/>
						</linearGradient>
						<path class="st66" d="M74.8,205.1c-4.9,1.9-10.7,5.6-15.9,11.8c-0.7-1.4-1.4-2.8-2-4.2c6.3-8.8,15-15.5,24.5-19.3
							C78.5,197.2,76.3,201.1,74.8,205.1z"/>
					</g>
				</g>
			</mask>
			<g class="st67">
				<path class="st18" d="M54,216.1c-5.8,9.7-8.6,21-8.1,32.1c-0.2,0.4-0.4,0.9-0.7,1.3c-1.8-11-0.2-24.2,6.5-36.7
					C52.4,214,53.2,215.1,54,216.1z"/>
				<path class="st18" d="M82.5,191.7c-10.2,4-19.4,11.1-26,20.3c-0.6-1.4-1.2-2.9-1.7-4.4c8-12,21.3-22.4,38.5-26.4
					C89.1,184.4,85.5,188,82.5,191.7z"/>
				<path class="st18" d="M56.7,219.6c-5,6.7-9.1,16-10,27.1c-0.2,0.4-0.5,0.8-0.7,1.3c-0.3-11.1,2.7-22.2,8.3-31.5
					C55.1,217.6,55.9,218.6,56.7,219.6z"/>
				<path class="st18" d="M74.8,205.1c-4.9,1.9-10.7,5.6-15.9,11.8c-0.7-1.4-1.4-2.8-2-4.2c6.3-8.8,15-15.5,24.5-19.3
					C78.5,197.2,76.3,201.1,74.8,205.1z"/>
			</g>
			<defs>
				<filter id="Adobe_OpacityMaskFilter_17_" filterUnits="userSpaceOnUse" x="98.5" y="336.5" width="44.9" height="33.2">
					<feColorMatrix  type="matrix" values="1 0 0 0 0  0 1 0 0 0  0 0 1 0 0  0 0 0 1 0"/>
				</filter>
			</defs>
			<mask maskUnits="userSpaceOnUse" x="98.5" y="336.5" width="44.9" height="33.2" id="sun_22_">
				<g class="st68">
					
						<radialGradient id="SVGID_41_" cx="777.2338" cy="543.812" r="20.9711" gradientTransform="matrix(3.890000e-002 0.7899 -1.07 5.260000e-002 672.577 -289.4257)" gradientUnits="userSpaceOnUse">
						<stop  offset="3.030300e-002" style="stop-color:#FFFFFF"/>
						<stop  offset="0.1611" style="stop-color:#CBCBCB"/>
						<stop  offset="0.3318" style="stop-color:#8E8E8E"/>
						<stop  offset="0.496" style="stop-color:#5B5B5B"/>
						<stop  offset="0.6492" style="stop-color:#343434"/>
						<stop  offset="0.7888" style="stop-color:#171717"/>
						<stop  offset="0.9102" style="stop-color:#060606"/>
						<stop  offset="1" style="stop-color:#000000"/>
					</radialGradient>
					<path class="st69" d="M121.7,369.7c-12.4,0.6-22.8-6.3-23.2-15.5c-0.5-9.1,9.2-17.1,21.6-17.7c12.4-0.6,22.8,6.3,23.3,15.5
						C143.8,361.2,134.1,369.1,121.7,369.7z"/>
				</g>
			</mask>
			<path id="sun_4_" class="st70" d="M121.7,369.7c-12.4,0.6-22.8-6.3-23.2-15.5c-0.5-9.1,9.2-17.1,21.6-17.7
				c12.4-0.6,22.8,6.3,23.3,15.5C143.8,361.2,134.1,369.1,121.7,369.7z"/>
			<defs>
				<filter id="Adobe_OpacityMaskFilter_18_" filterUnits="userSpaceOnUse" x="69" y="317.3" width="105.5" height="78">
					<feColorMatrix  type="matrix" values="1 0 0 0 0  0 1 0 0 0  0 0 1 0 0  0 0 0 1 0"/>
				</filter>
			</defs>
			<mask maskUnits="userSpaceOnUse" x="69" y="317.3" width="105.5" height="78" id="sun_23_">
				<g class="st71">
					
						<radialGradient id="SVGID_42_" cx="781.3018" cy="543.2159" r="49.2688" gradientTransform="matrix(3.890000e-002 0.7899 -1.07 5.260000e-002 672.577 -289.4257)" gradientUnits="userSpaceOnUse">
						<stop  offset="3.030300e-002" style="stop-color:#FFFFFF"/>
						<stop  offset="0.1611" style="stop-color:#CBCBCB"/>
						<stop  offset="0.3318" style="stop-color:#8E8E8E"/>
						<stop  offset="0.496" style="stop-color:#5B5B5B"/>
						<stop  offset="0.6492" style="stop-color:#343434"/>
						<stop  offset="0.7888" style="stop-color:#171717"/>
						<stop  offset="0.9102" style="stop-color:#060606"/>
						<stop  offset="1" style="stop-color:#000000"/>
					</radialGradient>
					<path class="st72" d="M123.6,395.2c-29.1,1.4-53.6-14.8-54.6-36.3c-1.1-21.5,21.7-40.1,50.8-41.5c29.1-1.4,53.6,14.8,54.6,36.3
						C175.5,375.2,152.8,393.8,123.6,395.2z"/>
				</g>
			</mask>
			<path id="sun_3_" class="st73" d="M123.6,395.2c-29.1,1.4-53.6-14.8-54.6-36.3c-1.1-21.5,21.7-40.1,50.8-41.5
				c29.1-1.4,53.6,14.8,54.6,36.3C175.5,375.2,152.8,393.8,123.6,395.2z"/>
			<g>
				<defs>
					<filter id="Adobe_OpacityMaskFilter_19_" filterUnits="userSpaceOnUse" x="138.9" y="169.4" width="85" height="99.2">
						<feColorMatrix  type="matrix" values="1 0 0 0 0  0 1 0 0 0  0 0 1 0 0  0 0 0 1 0"/>
					</filter>
				</defs>
				<mask maskUnits="userSpaceOnUse" x="138.9" y="169.4" width="85" height="99.2" id="sun_24_">
					<g class="st74">
						
							<radialGradient id="SVGID_43_" cx="530.1389" cy="442.5316" r="54.4142" gradientTransform="matrix(0.4896 0.8394 -0.6084 0.355 191.1318 -383.1082)" gradientUnits="userSpaceOnUse">
							<stop  offset="3.030300e-002" style="stop-color:#FFFFFF"/>
							<stop  offset="9.978793e-002" style="stop-color:#CBCBCB"/>
							<stop  offset="0.1905" style="stop-color:#8E8E8E"/>
							<stop  offset="0.2777" style="stop-color:#5B5B5B"/>
							<stop  offset="0.3591" style="stop-color:#343434"/>
							<stop  offset="0.4332" style="stop-color:#171717"/>
							<stop  offset="0.4978" style="stop-color:#060606"/>
							<stop  offset="0.5455" style="stop-color:#000000"/>
						</radialGradient>
						<path class="st75" d="M208.1,264.7c-18.3,10.7-45-1.2-59.7-26.4c-14.7-25.2-11.8-54.3,6.5-65c18.3-10.7,45,1.1,59.7,26.3
							C229.3,224.9,226.4,254,208.1,264.7z"/>
					</g>
				</mask>
				<path id="sun_6_" class="st76" d="M208.1,264.7c-18.3,10.7-45-1.2-59.7-26.4c-14.7-25.2-11.8-54.3,6.5-65
					c18.3-10.7,45,1.1,59.7,26.3C229.3,224.9,226.4,254,208.1,264.7z"/>
				<path class="st8" d="M186.5,223.2c-1.3,1.7-5.1,1.1-8.6-1.5c-3.5-2.5-5.2-6-4-7.7c1.3-1.7,5.1-1.1,8.6,1.5
					C186,218,187.8,221.5,186.5,223.2z"/>
			</g>
		</g>
	</g>
</svg>
