<?xml version="1.0" encoding="utf-8"?>
<!-- Generator: Adobe Illustrator 19.0.0, SVG Export Plug-In . SVG Version: 6.00 Build 0)  -->
<svg version="1.1" id="Layer_1"
	 xmlns="http://www.w3.org/2000/svg" xmlns:xlink="http://www.w3.org/1999/xlink" x="0px" y="0px" width="828px" height="459px"
	 viewBox="-562 47 828 459" style="enable-background:new -562 47 828 459;" xml:space="preserve">
<style type="text/css">
	.st0{fill:#FFEAD7;}
	.st1{fill:#E44D26;}
	.st2{fill:#F16529;}
	.st3{fill:#EBEBEB;}
	.st4{fill:#1FA6FF;}
	.st5{fill:#FFFFFF;}
	.st6{fill:#264DE4;}
	.st7{fill:#2965F1;}
</style>

<rect x="-562" y="47" class="st0" width="828" height="459"/>
<g>
	<path class="st1" d="M-185.9,172.4l-23.2,260.4l-104.5,29l-104.2-28.9L-441,172.4H-185.9L-185.9,172.4z"/>
	<path class="st2" d="M-313.4,439.5l84.4-23.4l19.9-222.5h-104.3V439.5L-313.4,439.5z"/>
	<path class="st3" d="M-358.6,257.5h45.2v-31.9h-80.1l0.8,8.6l7.8,88h71.5v-31.9h-42.3L-358.6,257.5L-358.6,257.5z"/>
	<path class="st3" d="M-351.4,338.1h-32.1l4.5,50.1l65.4,18.2l0.1,0v-33.2l-0.1,0l-35.6-9.6L-351.4,338.1L-351.4,338.1z"/>
	<path class="st4" d="M-417.2,101.6h16.2v16h14.8v-16h16.2v48.6h-16.2v-16.3H-401v16.3h-16.2L-417.2,101.6L-417.2,101.6
		L-417.2,101.6z"/>
	<path class="st4" d="M-348.6,117.7h-14.3v-16.1h44.8v16.1h-14.3v32.5h-16.2L-348.6,117.7L-348.6,117.7L-348.6,117.7z"/>
	<path class="st4" d="M-310.9,101.6h16.9l10.4,17.1l10.4-17.1h16.9v48.6h-16.2v-24.1l-11.2,17.3h-0.3l-11.2-17.3v24.1h-15.9V101.6
		L-310.9,101.6z"/>
	<path class="st4" d="M-248.2,101.6h16.2v32.5h22.8v16.1h-39.1V101.6L-248.2,101.6z"/>
	<path class="st5" d="M-313.5,322.2h39.3l-3.7,41.4l-35.6,9.6v33.2l65.5-18.1l0.5-5.4l7.5-84.1l0.8-8.6h-74.2V322.2L-313.5,322.2z"
		/>
	<path class="st5" d="M-313.5,257.4L-313.5,257.4l77.1,0.1l0.6-7.2l1.5-16.2l0.8-8.6h-80V257.4L-313.5,257.4z"/>
</g>
<g>
	<path class="st6" d="M8.4,461.7l-104.2-28.9L-119,172.4h255.1l-23.2,260.4L8.4,461.7L8.4,461.7z"/>
	<path class="st7" d="M93,416.1l19.9-222.5H8.6v245.9L93,416.1L93,416.1z"/>
	<path class="st3" d="M-65.7,290.2l2.9,31.9H8.6v-31.9H-65.7L-65.7,290.2z"/>
	<path class="st3" d="M-71.5,225.6l2.9,31.9H8.6v-31.9H-71.5L-71.5,225.6z"/>
	<path class="st3" d="M8.6,373.2l-0.1,0l-35.6-9.6l-2.3-25.5h-32.1l4.5,50.1l65.4,18.2l0.1,0V373.2L8.6,373.2z"/>
	<path class="st4" d="M-58.9,101.6h38.7v16.2h-22.5v16.2h22.5v16.2h-38.7V101.6L-58.9,101.6z"/>
	<path class="st4" d="M-12.5,101.6h38.7v14.1H3.7v2.8h22.5v32.4h-38.7v-14.8H10v-2.8h-22.5V101.6L-12.5,101.6z"/>
	<path class="st4" d="M33.9,101.6h38.7v14.1H50.1v2.8h22.5v32.4H33.9v-14.8h22.5v-2.8H33.9V101.6L33.9,101.6z"/>
	<path class="st5" d="M82.7,290.2l5.8-64.6h-80v31.9h45l-2.9,32.7H8.5v31.9h39.3l-3.7,41.4l-35.6,9.6v33.2l65.5-18.1l0.5-5.4
		l7.5-84.1L82.7,290.2L82.7,290.2z"/>
</g>
</svg>
