<?xml version="1.0" encoding="utf-8"?>
<!-- Generator: Adobe Illustrator 19.0.0, SVG Export Plug-In . SVG Version: 6.00 Build 0)  -->
<svg version="1.1" id="Objects" xmlns="http://www.w3.org/2000/svg" xmlns:xlink="http://www.w3.org/1999/xlink" x="0px" y="0px"
	 width="580.3px" height="559.2px" viewBox="0 0 580.3 559.2" style="enable-background:new 0 0 580.3 559.2;" xml:space="preserve"
	>
<style type="text/css">
	.st0{fill:url(#SVGID_1_);}
	.st1{fill:#F9F292;}
	.st2{fill:#C3292D;}
	.st3{fill:url(#SVGID_2_);}
	.st4{fill:#803074;}
	.st5{fill:#0F7273;}
	.st6{fill:url(#SVGID_3_);}
	.st7{fill:url(#SVGID_4_);}
	.st8{fill:#038443;}
	.st9{fill:#AD2731;}
	.st10{fill:url(#SVGID_5_);}
	.st11{fill:#682862;}
	.st12{fill:#0D5957;}
	.st13{display:none;}
	.st14{display:inline;}
	.st15{fill:#FFFFFF;}
</style>
<linearGradient id="SVGID_1_" gradientUnits="userSpaceOnUse" x1="269.3703" y1="322.3676" x2="269.3703" y2="580.9886">
	<stop  offset="0" style="stop-color:#8CC63F"/>
	<stop  offset="0.1311" style="stop-color:#84C13F"/>
	<stop  offset="0.3297" style="stop-color:#70B33D"/>
	<stop  offset="0.5712" style="stop-color:#4D9C3B"/>
	<stop  offset="0.8438" style="stop-color:#1E7C39"/>
	<stop  offset="1" style="stop-color:#006837"/>
</linearGradient>
<path class="st0" d="M276.2,276.5l-155,175.2c0,0,136.6,120.1,296.2,11L276.2,276.5z"/>
<path class="st1" d="M276.2,276.5L80.3,379.2c0,0,27.5,44,49.5,56.9L276.2,276.5z"/>
<path class="st2" d="M276.2,276.5l-229.7-2.3c0,0-1.8,59.6,24.8,105L276.2,276.5z"/>
<linearGradient id="SVGID_2_" gradientUnits="userSpaceOnUse" x1="322.9854" y1="295.9365" x2="504.7911" y2="423.7509">
	<stop  offset="0" style="stop-color:#FBB03B"/>
	<stop  offset="0.1109" style="stop-color:#F99F36"/>
	<stop  offset="0.3441" style="stop-color:#F6812E"/>
	<stop  offset="0.5734" style="stop-color:#F36B29"/>
	<stop  offset="0.795" style="stop-color:#F25E25"/>
	<stop  offset="1" style="stop-color:#F15A24"/>
</linearGradient>
<path class="st3" d="M276.2,276.5l222.2,53.2c0,0-18.5,79.3-81,122.3L276.2,276.5z"/>
<path class="st4" d="M276.2,276.5l253.4,20.8c0,0,3.1,14.7-5.5,34.2L276.2,276.5z"/>
<path class="st5" d="M276.2,276.5l222.2-34.2c0,0,5.5,35.1,4.9,49.7L276.2,276.5z"/>
<linearGradient id="SVGID_3_" gradientUnits="userSpaceOnUse" x1="296.3501" y1="293.2541" x2="521.9501" y2="84.161">
	<stop  offset="0" style="stop-color:#29ABE2"/>
	<stop  offset="0.1244" style="stop-color:#28A3DC"/>
	<stop  offset="0.3129" style="stop-color:#268FCA"/>
	<stop  offset="0.542" style="stop-color:#236CAE"/>
	<stop  offset="0.8007" style="stop-color:#1F3D86"/>
	<stop  offset="1" style="stop-color:#1B1464"/>
</linearGradient>
<path class="st6" d="M535.2,230C511.9,85.8,395.8,40.5,395.8,40.5l-119.5,236l258.9-44V230z"/>
<linearGradient id="SVGID_4_" gradientUnits="userSpaceOnUse" x1="334.4297" y1="35.3453" x2="277.5713" y2="242.6034">
	<stop  offset="0" style="stop-color:#9E005D"/>
	<stop  offset="0.1609" style="stop-color:#AD065C"/>
	<stop  offset="0.4535" style="stop-color:#C30E5B"/>
	<stop  offset="0.7374" style="stop-color:#D0125A"/>
	<stop  offset="1" style="stop-color:#D4145A"/>
</linearGradient>
<path class="st7" d="M276.2,276.5v-236c0,0,61.5-2.1,106.4,25.9L276.2,276.5z"/>
<polygon class="st8" points="121.3,451.7 124.9,439.8 276.2,276.5 "/>
<polygon class="st8" points="276.2,276.5 417.5,462.7 417.5,452 "/>
<polygon class="st9" points="71.3,379.2 80.3,379.2 276.2,276.5 "/>
<linearGradient id="SVGID_5_" gradientUnits="userSpaceOnUse" x1="328.4254" y1="328.7201" x2="514.8777" y2="155.9103">
	<stop  offset="0" style="stop-color:#29ABE2"/>
	<stop  offset="0.1244" style="stop-color:#28A3DC"/>
	<stop  offset="0.3129" style="stop-color:#268FCA"/>
	<stop  offset="0.542" style="stop-color:#236CAE"/>
	<stop  offset="0.8007" style="stop-color:#1F3D86"/>
	<stop  offset="1" style="stop-color:#1B1464"/>
</linearGradient>
<polygon class="st10" points="535.2,232.5 530.2,242.3 276.2,276.5 "/>
<polygon class="st11" points="524.2,331.5 516.2,335.8 276.2,276.5 "/>
<polygon class="st12" points="503.4,291.9 501.7,295 276.2,276.5 "/>
<g class="st13">
	<g class="st14">
		<g>
			<path class="st15" d="M83.8,573.8h-1.8V560h1.8V573.8z"/>
			<path class="st15" d="M97.6,573.8h-1.9l-7.1-11.1l-0.1,11.1h-1.7V560h1.9l7.2,11.2l0-11.2h1.7V573.8z"/>
			<path class="st15" d="M109.5,561.5h-7.1v4.4h6.2v1.6h-6.2v6.4h-1.8V560h8.9V561.5z"/>
			<path class="st15" d="M123.7,566.9c0,2-0.5,3.7-1.6,5c-1.2,1.5-2.8,2.2-4.9,2.2c-2,0-3.7-0.7-4.9-2.2c-1.1-1.4-1.6-3-1.6-5.1
				c0-2,0.5-3.7,1.6-5c1.2-1.5,2.8-2.2,4.9-2.2c2.1,0,3.7,0.7,4.9,2.2C123.2,563.2,123.7,564.9,123.7,566.9z M121.9,566.9
				c0-1.6-0.4-2.9-1.1-3.9c-0.8-1.2-2-1.8-3.6-1.8c-1.5,0-2.7,0.6-3.6,1.8c-0.8,1.1-1.1,2.4-1.1,3.9c0,1.6,0.4,2.9,1.1,3.9
				c0.8,1.2,2,1.8,3.6,1.8c1.5,0,2.7-0.6,3.6-1.8C121.6,569.8,121.9,568.5,121.9,566.9z"/>
			<path class="st15" d="M137.7,573.8h-1.1l-0.5-1.7c-0.9,1.4-2.4,2.1-4.4,2.1c-1.9,0-3.5-0.7-4.7-2.1c-1.2-1.3-1.8-3-1.8-4.9
				c0-2.2,0.5-3.9,1.6-5.3c1.2-1.5,2.8-2.2,4.9-2.2c1.6,0,2.8,0.4,3.8,1.1c1.1,0.8,1.7,1.9,2,3.5h-1.8c-0.2-1-0.6-1.8-1.4-2.3
				c-0.7-0.5-1.6-0.7-2.6-0.7c-1.6,0-2.7,0.6-3.6,1.9c-0.7,1.1-1.1,2.4-1.1,4c0,1.5,0.4,2.8,1.2,3.8c0.9,1.1,2,1.7,3.5,1.7
				c1.4,0,2.4-0.4,3.2-1.3c0.8-0.8,1.2-1.9,1.2-3.2h-4.4v-1.6h6V573.8z"/>
			<path class="st15" d="M151.4,573.8h-2c-0.3-0.3-0.4-0.8-0.4-1.6c0-0.9,0-1.5-0.1-1.8c-0.1-1-0.4-1.7-0.8-2
				c-0.4-0.3-0.9-0.5-1.5-0.5h-4.4v5.9h-1.8V560h6.4c1.3,0,2.3,0.3,3,1c0.7,0.6,1.1,1.5,1.1,2.6c0,1.8-0.8,3-2.4,3.5
				c1,0.2,1.6,0.8,1.9,1.8c0,0.5,0.1,1.2,0.2,2.2l0.1,1C150.8,572.7,151,573.3,151.4,573.8z M149.1,563.9c0-1.6-0.8-2.4-2.4-2.4
				h-4.5v4.8h3.8c1,0,1.7-0.2,2.2-0.5C148.8,565.5,149.1,564.8,149.1,563.9z"/>
			<path class="st15" d="M164.4,573.8h-2l-1.5-4.2h-5.7l-1.5,4.2h-1.9l5.3-13.9h2L164.4,573.8z M160.4,568.1l-2.2-6.5l-2.4,6.5
				H160.4z"/>
			<path class="st15" d="M175.9,564.1c0,2.7-1.4,4.1-4.2,4.1h-4.2v5.7h-1.8V560h6c1.3,0,2.3,0.4,3.1,1.1
				C175.5,561.8,175.9,562.8,175.9,564.1z M174.1,564.1c0-1.7-1-2.5-3-2.5h-3.5v5.1h3.5C173.1,566.6,174.1,565.8,174.1,564.1z"/>
			<path class="st15" d="M188.8,573.8H187v-6.4h-7.2v6.4h-1.8V560h1.8v5.9h7.2V560h1.8V573.8z"/>
			<path class="st15" d="M193.7,573.8h-1.8V560h1.8V573.8z"/>
			<path class="st15" d="M208.2,568.6c-0.2,1.7-0.8,3.1-1.7,4.1c-1,1-2.4,1.5-4.1,1.5c-2.2,0-3.8-0.8-4.9-2.3
				c-0.9-1.3-1.4-2.9-1.4-4.9c0-2.1,0.6-3.8,1.7-5.2c1.2-1.4,2.8-2.1,4.8-2.1c1.5,0,2.7,0.4,3.7,1.1c1,0.8,1.6,1.9,1.9,3.4h-1.8
				c-0.4-2-1.6-3-3.8-3c-1.5,0-2.7,0.6-3.5,1.7c-0.7,1-1.1,2.3-1.1,3.9c0,1.7,0.3,3,1,4c0.8,1.2,2,1.8,3.6,1.8
				c1.2,0,2.1-0.4,2.8-1.1c0.7-0.7,1.1-1.7,1.1-2.9H208.2z"/>
		</g>
	</g>
	<g class="st14">
		<g>
			<path class="st15" d="M118.4,589c0,0.7-0.3,1.3-0.9,1.7c-0.5,0.3-1.2,0.5-1.9,0.5c-0.9,0-1.5-0.2-2-0.5c-0.6-0.4-0.9-1-0.9-1.8
				h1.1c0,0.9,0.6,1.3,1.8,1.3c0.5,0,0.8-0.1,1.1-0.2c0.4-0.2,0.6-0.5,0.6-0.8c0-0.4-0.3-0.8-1-1l-1.2-0.3c-0.3-0.1-0.5-0.2-0.9-0.3
				c-0.3-0.1-0.5-0.2-0.6-0.3c-0.5-0.3-0.7-0.8-0.7-1.4c0-0.7,0.2-1.1,0.7-1.5c0.5-0.3,1.1-0.5,1.8-0.5c0.8,0,1.5,0.1,1.9,0.4
				c0.5,0.4,0.8,0.9,0.8,1.7H117c0-0.4-0.2-0.7-0.5-0.9c-0.3-0.2-0.6-0.3-1-0.3c-0.4,0-0.7,0.1-1,0.2c-0.3,0.1-0.4,0.4-0.4,0.7
				c0,0.3,0.2,0.6,0.7,0.8l1.5,0.4c0.9,0.2,1.5,0.5,1.8,0.8C118.2,588.2,118.4,588.5,118.4,589z"/>
			<path class="st15" d="M125.6,591c-0.2,0.1-0.5,0.2-0.8,0.2c-0.6,0-0.9-0.4-0.9-1.1c-0.6,0.7-1.4,1.1-2.4,1.1
				c-0.7,0-1.2-0.1-1.6-0.4c-0.4-0.3-0.6-0.8-0.6-1.5c0-0.5,0.1-1,0.4-1.3c0.3-0.3,0.9-0.6,1.8-0.8c0.4,0,0.9-0.1,1.6-0.3
				c0.5-0.1,0.7-0.4,0.7-0.7c0-0.4-0.2-0.7-0.5-0.9c-0.2-0.1-0.6-0.2-1-0.2c-0.8,0-1.3,0.2-1.6,0.7c-0.1,0.2-0.1,0.4-0.1,0.6h-1.1
				c0-0.8,0.3-1.4,0.9-1.8c0.5-0.3,1.1-0.5,2-0.5c0.8,0,1.3,0.1,1.7,0.3c0.5,0.3,0.8,0.8,0.8,1.6v3.5c0,0.3,0,0.5,0,0.6
				c0,0.1,0.1,0.1,0.3,0.1c0.1,0,0.2,0,0.4-0.1V591z M123.7,588.6v-1.1c-0.2,0.1-0.4,0.2-0.9,0.3c-0.3,0-0.7,0.1-1.2,0.2
				c-0.4,0-0.7,0.1-0.9,0.3c-0.3,0.2-0.4,0.5-0.4,0.9c0,0.7,0.4,1,1.3,1c0.6,0,1.2-0.2,1.6-0.5C123.6,589.4,123.7,589,123.7,588.6z"
				/>
			<path class="st15" d="M136,591h-1.1v-4.5c0-1-0.4-1.5-1.3-1.5c-0.5,0-0.9,0.2-1.3,0.5c-0.3,0.3-0.5,0.7-0.5,1.3v4.3h-1.1v-4.5
				c0-1-0.4-1.5-1.3-1.5c-0.6,0-1,0.2-1.4,0.7c-0.3,0.4-0.4,0.7-0.4,1.1v4.3h-1.1v-6.9h1v1c0.5-0.8,1.3-1.2,2.2-1.2
				c0.4,0,0.8,0.1,1.1,0.3c0.3,0.2,0.6,0.5,0.7,0.9c0.5-0.8,1.2-1.2,2.1-1.2c1.5,0,2.3,0.7,2.3,2V591z"/>
			<path class="st15" d="M144.1,587.6c0,1-0.3,1.9-0.8,2.5c-0.6,0.7-1.3,1.1-2.3,1.1c-0.4,0-0.8-0.1-1.2-0.2c-0.4-0.2-0.8-0.5-1-0.9
				l0,3.6h-1.1v-9.5h1.1v0.9c0.4-0.7,1.1-1.1,2.2-1.1c1,0,1.7,0.4,2.3,1.1C143.8,585.7,144.1,586.6,144.1,587.6z M142.9,587.5
				c0-0.7-0.2-1.3-0.5-1.8c-0.4-0.5-0.9-0.8-1.6-0.8c-0.7,0-1.2,0.3-1.6,0.8c-0.3,0.5-0.5,1.1-0.5,1.8c0,0.8,0.2,1.4,0.5,1.8
				c0.4,0.5,0.9,0.8,1.6,0.8c0.7,0,1.2-0.3,1.6-0.8C142.8,588.9,142.9,588.3,142.9,587.5z"/>
			<path class="st15" d="M146.5,591h-1.1v-9.5h1.1V591z"/>
			<path class="st15" d="M154.1,587.9h-5c0,0.7,0.2,1.2,0.5,1.6c0.4,0.4,0.9,0.6,1.6,0.6c1,0,1.6-0.4,1.7-1.3h1.1
				c-0.1,0.7-0.4,1.3-1,1.7c-0.5,0.4-1.1,0.6-1.9,0.6c-1.1,0-1.9-0.3-2.4-1c-0.5-0.6-0.8-1.5-0.8-2.6c0-1,0.3-1.9,0.9-2.6
				c0.6-0.7,1.3-1,2.3-1c1.1,0,1.9,0.4,2.4,1.3C153.9,586.1,154.1,586.9,154.1,587.9z M152.9,587c0-0.6-0.2-1-0.6-1.4
				c-0.4-0.4-0.8-0.6-1.4-0.6c-0.5,0-1,0.2-1.4,0.6c-0.4,0.4-0.5,0.8-0.5,1.4H152.9z"/>
			<path class="st15" d="M163.4,591h-0.8c-0.6,0-1.1-0.1-1.3-0.3c-0.2-0.2-0.3-0.6-0.3-1.2v-4.4h-1.2v-1h1.2v-2.1h1.1v2.1h1.3v1H162
				v4.3c0,0.3,0,0.4,0.1,0.5c0.1,0.1,0.3,0.1,0.7,0.1h0.5V591z"/>
			<path class="st15" d="M170.4,587.9h-5c0,0.7,0.2,1.2,0.5,1.6c0.4,0.4,0.9,0.6,1.6,0.6c1,0,1.6-0.4,1.7-1.3h1.1
				c-0.1,0.7-0.4,1.3-1,1.7c-0.5,0.4-1.1,0.6-1.9,0.6c-1.1,0-1.9-0.3-2.4-1c-0.5-0.6-0.8-1.5-0.8-2.6c0-1,0.3-1.9,0.9-2.6
				c0.6-0.7,1.3-1,2.3-1c1.1,0,1.9,0.4,2.4,1.3C170.2,586.1,170.4,586.9,170.4,587.9z M169.2,587c0-0.6-0.2-1-0.6-1.4
				c-0.4-0.4-0.8-0.6-1.4-0.6c-0.5,0-1,0.2-1.4,0.6c-0.4,0.4-0.5,0.8-0.5,1.4H169.2z"/>
			<path class="st15" d="M177.4,591h-1.4l-1.9-2.8l-1.9,2.8h-1.4l2.5-3.6l-2.3-3.2h1.4l1.6,2.4l1.7-2.4h1.3l-2.3,3.2L177.4,591z"/>
			<path class="st15" d="M181.2,591h-0.8c-0.6,0-1.1-0.1-1.3-0.3c-0.2-0.2-0.3-0.6-0.3-1.2v-4.4h-1.1v-1h1.1v-2.1h1.1v2.1h1.3v1
				h-1.3v4.3c0,0.3,0,0.4,0.1,0.5c0.1,0.1,0.3,0.1,0.7,0.1h0.5V591z"/>
		</g>
	</g>
</g>
<g>
	<g>
		<path class="st15" d="M259.8,441.9l-1.1,2.3h-1.6v3.1h-2.8v-3.1h-8.5v-2.4l8.4-9.9h2.9v10H259.8z M254.4,441.9v-7.1l-5.9,7.1
			H254.4z"/>
		<path class="st15" d="M272.9,431.8l-1.6,2.4h-7.4v3.6h8.9v9.5h-11.7v-4.5h2.8v2.2h6.1v-4.8h-8.9v-8.3H272.9z"/>
		<path class="st15" d="M281.6,433.1l0,4.1l-1.6,1.3h-3.3l-1.6-1.3v-4.1l1.6-1.2h3.3L281.6,433.1z M289.8,431.8l-12.1,15.5h-2.5
			l12.1-15.5H289.8z M279.5,436.9v-3.5h-2.3v3.5H279.5z M290.2,446.1l-1.6,1.2h-3.3l-1.6-1.3v-4l1.6-1.3h3.3l1.6,1.3V446.1z
			 M288,445.8v-3.5h-2.3v3.5H288z"/>
	</g>
</g>
<g>
	<g>
		<path class="st15" d="M431.5,379.6h-11.7v-4.7h2.8v2.4h6.1V373h-4.1v-2.3h4.1v-4.2h-6.1v2h-2.8v-4.4h11.7v6.5l-1.3,1.2l1.3,1.2
			V379.6z"/>
		<path class="st15" d="M445.8,379.6h-11.7v-15.5h11.7V379.6z M443,377.3v-10.8h-6.1v10.8H443z"/>
		<path class="st15" d="M454.6,365.3l0,4.1l-1.6,1.3h-3.3l-1.6-1.3v-4.1l1.6-1.2h3.3L454.6,365.3z M462.8,364.1l-12.1,15.5h-2.5
			l12.1-15.5H462.8z M452.5,369.2v-3.5h-2.3v3.5H452.5z M463.2,378.3l-1.6,1.2h-3.3l-1.6-1.3v-4l1.6-1.3h3.3l1.6,1.3V378.3z
			 M461,378v-3.5h-2.3v3.5H461z"/>
	</g>
</g>
<g>
	<g>
		<path class="st15" d="M87.9,325.4l-1.6,2.3H75.9v-4.6l8.9-5.4v-3.1h-6.1v2.3h-2.8v-4.7h11.7v6.5l-8.9,5.5v1.2H87.9z"/>
		<path class="st15" d="M102,312.3l-1.6,2.4H93v3.6h8.9v9.5H90.2v-4.5H93v2.2h6.1v-4.8h-8.9v-8.3H102z"/>
		<path class="st15" d="M110.7,313.5l0,4.1l-1.6,1.3h-3.3l-1.6-1.3v-4.1l1.6-1.2h3.3L110.7,313.5z M118.9,312.3l-12.1,15.5h-2.5
			l12.1-15.5H118.9z M108.5,317.4v-3.5h-2.3v3.5H108.5z M119.2,326.5l-1.6,1.2h-3.3l-1.6-1.3v-4l1.6-1.3h3.3l1.6,1.3V326.5z
			 M117.1,326.2v-3.5h-2.3v3.5H117.1z"/>
	</g>
</g>
<g>
	<g>
		<path class="st15" d="M429,155.9l-1.6,2.4H420v3.6h8.9v9.5h-11.7v-4.5h2.8v2.2h6.1v-4.8h-8.9v-8.3H429z"/>
		<path class="st15" d="M443.1,171.4h-11.7v-15.5h11.7V171.4z M440.4,169.1v-10.8h-6.1v10.8H440.4z"/>
		<path class="st15" d="M451.9,157.1l0,4.1l-1.6,1.3H447l-1.6-1.3v-4.1l1.6-1.2h3.3L451.9,157.1z M460.2,155.9l-12.1,15.5h-2.5
			l12.1-15.5H460.2z M449.8,161v-3.5h-2.3v3.5H449.8z M460.5,170.1l-1.6,1.2h-3.3l-1.6-1.3v-4l1.6-1.3h3.3l1.6,1.3V170.1z
			 M458.3,169.8v-3.5h-2.3v3.5H458.3z"/>
	</g>
</g>
<g>
	<rect x="78.5" y="167.2" class="st15" width="13.2" height="34.8"/>
	<rect x="102.4" y="151.9" class="st15" width="13.2" height="50.1"/>
	<rect x="126.2" y="136.2" class="st15" width="13.2" height="65.8"/>
	<rect x="150" y="125.3" class="st15" width="13.2" height="76.7"/>
	<rect x="173.9" y="112.2" class="st15" width="13.2" height="89.8"/>
	<rect x="197.7" y="96.9" class="st15" width="13.2" height="105.1"/>
	<rect x="221.5" y="81.6" class="st15" width="13.2" height="120.4"/>
	<path class="st15" d="M78.4,144.5c-0.3,0-0.6-0.1-0.9-0.4c-0.4-0.4-0.3-1.1,0.2-1.4l57.1-42.8l6.8,20.8l73.2-61
		c0.5-0.4,1.2-0.4,1.6,0.1c0.4,0.4,0.4,1.1-0.1,1.5l-75.9,63.2l-6.9-21l-54.5,40.9C78.9,144.4,78.7,144.5,78.4,144.5z"/>
	<path class="st15" d="M215.8,70.7c-0.1,0-0.1,0-0.2,0c-0.7-0.1-1.1-0.7-1-1.4l1.6-9.5l-9.5,1.6c-0.7,0.1-1.3-0.3-1.4-1
		c-0.1-0.7,0.3-1.3,1-1.4l12.9-2.2L217,69.6C216.9,70.2,216.4,70.7,215.8,70.7z"/>
</g>
</svg>
