<?xml version="1.0" encoding="utf-8"?>
<!-- Generator: Adobe Illustrator 19.0.0, SVG Export Plug-In . SVG Version: 6.00 Build 0)  -->
<svg version="1.1" id="Layer_1" 
	 xmlns="http://www.w3.org/2000/svg" xmlns:xlink="http://www.w3.org/1999/xlink" x="0px" y="0px" width="1920px" height="1080px"
	 viewBox="0 0 1920 1080" style="enable-background:new 0 0 1920 1080;" xml:space="preserve">
<style type="text/css">
	.st0{fill:#263238;}
	.st1{fill:#5D4037;}
	.st2{fill:#D32F2F;}
	.st3{fill:#00BCD4;}
	.st4{fill:#FFB300;}
	.st5{fill:#2196F3;}
	.st6{fill:#FFFFFF;}
	.st7{fill:#E74C3C;}
</style>
<metadata>
	<sfw  >
		<slices></slices>
		<sliceSourceBounds  width="4637.4" height="3294" bottomLeftOrigin="true" x="-1379" y="-2054"></sliceSourceBounds>
	</sfw>
</metadata>
<g id="XMLID_14_">
	<rect id="XMLID_3_" x="20" y="21" class="st0" width="1920" height="1059"/>
	<g id="XMLID_4_">
		
			<image style="overflow:visible;opacity:0.75;" width="1890" height="1889" id="XMLID_51_" xlink:href="7748FD9C.png"  transform="matrix(1 0 0 1 -155 165)">
		</image>
		<g id="XMLID_42_">
			
				<rect id="XMLID_50_" x="180" y="429" transform="matrix(0.7066 -0.7076 0.7076 0.7066 -549.867 874.7701)" class="st1" width="1200" height="1343"/>
		</g>
	</g>
	<g id="XMLID_2_">
		
			<image style="overflow:visible;opacity:0.75;" width="2697" height="2702" id="XMLID_26_" xlink:href="7748FD93.png"  transform="matrix(1 0 0 1 561.382 -933.504)">
		</image>
		<g id="XMLID_17_">
			
				<rect id="XMLID_25_" x="556" y="-91.8" transform="matrix(0.7058 0.7084 -0.7084 0.7058 848.3154 -1225.7679)" class="st2" width="2688" height="1000.5"/>
		</g>
	</g>
	<g id="XMLID_1_">
		
			<image style="overflow:visible;opacity:0.75;" width="2528" height="2619" id="XMLID_56_" xlink:href="7748FD90.png"  transform="matrix(1 0 0 1 -887 -1090)">
		</image>
		<g id="XMLID_45_">
			
				<rect id="XMLID_55_" x="-768.7" y="-409.4" transform="matrix(0.662 -0.7495 0.7495 0.662 -32.8057 348.4125)" class="st3" width="2277.3" height="1239.9"/>
		</g>
	</g>
	<g id="XMLID_5_">
		
			<image style="overflow:visible;opacity:0.75;" width="926" height="926" id="XMLID_49_" xlink:href="7748FD91.png"  transform="matrix(1 0 0 1 1052 481)">
		</image>
		<g id="XMLID_35_">
			<circle id="XMLID_48_" class="st4" cx="1522" cy="937" r="418"/>
		</g>
	</g>
	<g id="XMLID_6_">
		
			<image style="overflow:visible;opacity:0.75;" width="3158" height="2850" id="XMLID_57_" xlink:href="7748FD92.png"  transform="matrix(1 0 0 1 -1379 -1240)">
		</image>
		<g id="XMLID_43_">
			
				<rect id="XMLID_54_" x="-1313" y="-375" transform="matrix(0.7823 -0.6229 0.6229 0.7823 -65.7034 167.6728)" class="st5" width="3040" height="1105.7"/>
		</g>
	</g>
	<g id="XMLID_7_">
		
			<image style="overflow:visible;opacity:0.75;" width="972" height="187" id="XMLID_270_" xlink:href="7748FD8F.png"  transform="matrix(1 0 0 1 320 741)">
		</image>
		<g id="XMLID_168_">
			<g id="XMLID_236_">
				<path id="XMLID_250_" class="st6" d="M424.9,816.8h1.3v-1.6c0-7.6-5.8-10-13.3-10c-8.8,0-18.6,5.1-22.6,7.5
					c-0.9,0.5-2.2,0.2-2.7-0.8l-8.8-18c-0.4-0.8-0.1-1.9,0.6-2.4c4.3-2.8,18.1-10.7,36.4-10.7c25.3,0,40.6,13.9,40.6,36.8v53.5
					c0,1.1-0.8,1.9-1.9,1.9h-23.7c-1.1,0-1.9-0.8-1.9-1.9v-3.5c0-2.9,0.3-5.6,0.3-5.6h-0.3c0,0-6.6,13.1-25.5,13.1
					c-16.8,0-30.6-11.2-30.6-29C372.5,819.9,410.8,816.8,424.9,816.8z M411.5,852c7.9,0,14.8-8.6,14.8-15.9l0,0
					c0-1.1-0.8-1.9-1.9-1.9h-0.8c-9.7,0-20.6,2.8-20.6,10.3C402.9,848.7,405.5,852,411.5,852z"/>
				<path id="XMLID_249_" class="st6" d="M455.3,782.9H483c0.9,0,1.7,0.6,1.9,1.6l10.8,51.6c1.1,4.9,1.1,9.5,1.1,9.5h0.3
					c0,0,0.3-4.5,1.6-9.5l12.1-51.7c0.2-0.8,0.9-1.5,1.9-1.5h22.8c0.9,0,1.7,0.6,1.9,1.5l12.1,51.7c1.3,4.9,1.4,9.5,1.4,9.5h0.3
					c0,0,0.2-4.5,1.3-9.5l10.8-51.6c0.2-0.8,0.9-1.6,1.9-1.6h27.4c1.3,0,2.2,1.3,1.9,2.4l-24.1,86.3c-0.2,0.8-0.9,1.4-1.9,1.4h-30.8
					c-0.8,0-1.7-0.6-1.9-1.5l-9.8-40.1c-1.3-4.9-1.8-9.7-1.8-9.7h-0.3c0,0-0.5,4.7-1.8,9.7l-9.8,40.1c-0.2,0.8-0.9,1.5-1.9,1.5
					h-31.1c-0.8,0-1.6-0.5-1.9-1.4l-24-86.2C453.1,784.1,454.1,782.9,455.3,782.9z"/>
				<path id="XMLID_246_" class="st7" d="M614.9,784.6c23.8-11.9,45.5-2.1,56.7,20.2c0.9,1.8,2.2,5.1,3,7.1c0.3,0.8,0,1.9-0.9,2.4
					l-47,23.6c-1.3,0.6-1.4,2.1-0.5,3c6.8,6.9,16.4,7,24.2,3c8.9-4.5,14.8-13.6,17.1-17.4c0.5-0.9,1.8-1.3,2.7-0.6l16.5,11.7
					c0.7,0.5,1,1.6,0.6,2.4c-2.2,4.5-10,18.6-27.8,27.5c-28.8,14.5-54.6,1.5-65.4-19.9C582.3,824.2,589,797.7,614.9,784.6z
					 M639.1,812.5c1.1-0.5,1.4-1.9,0.7-2.8c-3.5-4.9-9.6-7.1-15.3-4.3c-6.8,3.4-8.4,9.5-7.7,15.5c0.2,1.3,1.6,2,2.7,1.4
					C619.6,822.2,639.1,812.5,639.1,812.5z"/>
				<path id="XMLID_245_" class="st6" d="M691.9,843.3c0.6-0.9,1.9-1.2,2.7-0.5c3.4,2.5,11.5,7.8,21.3,7.8c4.5,0,8.9-1.3,8.9-4.2
					c0-7.9-42.1-8.7-42.1-38.1c0-16.9,16.3-27.4,37.1-27.4c16.9,0,27.2,6.7,30.5,9.4c0.7,0.5,0.9,1.6,0.5,2.3l-8.7,18.1
					c-0.5,1.1-1.8,1.5-2.8,0.7c-3.2-2.1-10.3-6.1-19.5-6.1c-4.5,0-8.9,1.3-8.9,4.4c0,6.8,42.1,7.9,42.1,36.9
					c0,15.3-13.7,28.5-36.9,28.5c-18.5,0-30.9-8.9-34.8-12.2c-0.7-0.6-0.9-1.7-0.4-2.5L691.9,843.3z"/>
				<path id="XMLID_242_" class="st6" d="M805.4,780.8c28.5,0,51.3,19,51.3,47.4c0,28.2-22.7,46.9-51.1,46.9
					c-28.4,0-51.1-18.7-51.1-46.9C754.5,799.9,777.2,780.8,805.4,780.8z M805.6,849.9c11,0,20.5-8.2,20.5-21.6
					c0-13.7-9.5-22.2-20.5-22.2s-20.5,8.6-20.5,22.2C785.1,841.7,794.5,849.9,805.6,849.9z"/>
				<path id="XMLID_241_" class="st6" d="M862.7,782.9h25.2c1.1,0,1.9,0.8,1.9,1.9v6c0,2.9-0.3,5.6-0.3,5.6h0.3
					c4.2-6.3,12.6-15.6,26.8-15.6c11.3,0,20.5,5,25.2,15.2h0.3c4.7-7.6,15.3-15.2,28.9-15.2c16.4,0,29.2,8.9,29.2,33.7V871
					c0,1.1-0.8,1.9-1.9,1.9h-26.4c-1.1,0-1.9-0.8-1.9-1.9v-51.4c0-6.6-1.3-11.3-7-11.3c-9.7,0-14.7,7-16.6,16.9
					c-0.7,3.2-0.7,6.8-0.7,10.5V871c0,1.1-0.8,1.9-1.9,1.9h-26.4c-1.1,0-1.9-0.8-1.9-1.9v-51.4c0-6.6-1.3-11.3-7-11.3
					c-9.5,0-14.3,6.6-16.4,16.3c-0.7,3.4-0.8,7.4-0.8,11.2v35.3c0,1.1-0.8,1.9-1.9,1.9H863c-1.1,0-1.9-0.8-1.9-1.9v-86.3
					C860.7,783.8,861.7,782.9,862.7,782.9z"/>
				<path id="XMLID_240_" class="st6" d="M1009.6,782.9h26.4c1.1,0,1.9,0.8,1.9,1.9v86.3c0,1.1-0.8,1.9-1.9,1.9h-26.4
					c-1.1,0-1.9-0.8-1.9-1.9v-86.2C1007.7,783.8,1008.6,782.9,1009.6,782.9z"/>
				<path id="XMLID_239_" class="st6" d="M1053.6,843.3c0.6-0.9,1.9-1.2,2.7-0.5c3.4,2.5,11.5,7.8,21.3,7.8c4.5,0,8.9-1.3,8.9-4.2
					c0-7.9-42.1-8.7-42.1-38.1c0-16.9,16.3-27.4,37.1-27.4c16.9,0,27.2,6.7,30.5,9.4c0.7,0.5,0.9,1.6,0.5,2.3l-8.7,18.1
					c-0.5,1.1-1.8,1.5-2.8,0.7c-3.2-2.1-10.3-6.1-19.5-6.1c-4.5,0-8.9,1.3-8.9,4.4c0,6.8,42.1,7.9,42.1,36.9
					c0,15.3-13.7,28.5-36.9,28.5c-18.5,0-30.9-8.9-34.8-12.2c-0.7-0.6-0.9-1.7-0.4-2.5L1053.6,843.3z"/>
				<path id="XMLID_238_" class="st6" d="M1174.5,782.9c1.1,0,1.9,0.8,1.9,1.9v21.4c0,1.1-0.8,1.9-1.9,1.9h-15
					c-1.1,0-1.9,0.8-1.9,1.9v25.7c0,10.2,10.3,11.6,16.1,11.6c0.7,0,1.5,0,2,0c1.1,0,2,0.8,2,1.9v22.5c0,0.9-0.7,1.8-1.7,1.9
					c-1.5,0.1-3.7,0.3-6.5,0.3c-14.3,0-42.1-3.9-42.1-34.2V810c0-1.1-0.8-1.9-1.9-1.9h-7.7c-1.1,0-1.9-0.8-1.9-1.9v-21.4
					c0-1.1,0.8-1.9,1.9-1.9H1174.5L1174.5,782.9z"/>
				<path id="XMLID_237_" class="st6" d="M1192.8,843.3c0.6-0.9,1.9-1.2,2.7-0.5c3.4,2.5,11.5,7.8,21.3,7.8c4.5,0,8.9-1.3,8.9-4.2
					c0-7.9-42.1-8.7-42.1-38.1c0-16.9,16.3-27.4,37.1-27.4c16.9,0,27.2,6.7,30.5,9.4c0.7,0.5,0.9,1.6,0.5,2.3l-8.7,18.1
					c-0.5,1.1-1.8,1.5-2.8,0.7c-3.2-2.1-10.3-6.1-19.5-6.1c-4.5,0-8.9,1.3-8.9,4.4c0,6.8,42.1,7.9,42.1,36.9
					c0,15.3-13.7,28.5-36.9,28.5c-18.5,0-30.9-8.9-34.8-12.2c-0.7-0.6-0.9-1.7-0.4-2.5L1192.8,843.3z"/>
			</g>
		</g>
	</g>
</g>
</svg>
