<?xml version="1.0" encoding="utf-8"?>
<!-- Generator: Adobe Illustrator 19.0.0, SVG Export Plug-In . SVG Version: 6.00 Build 0)  -->
<svg version="1.1" id="Objects"
	 xmlns="http://www.w3.org/2000/svg" xmlns:xlink="http://www.w3.org/1999/xlink" x="0px" y="0px" width="578px" height="564px"
	 viewBox="0 0 578 564" style="enable-background:new 0 0 578 564;" xml:space="preserve">
<style type="text/css">
	.st0{fill:#FFAD00;}
	.st1{fill:#075D8C;}
	.st2{fill:#76B26B;}
	.st3{fill:#E5615F;}
	.st4{fill:#00FF0C;}
	.st5{fill-rule:evenodd;clip-rule:evenodd;fill:#E5615F;}
	.st6{fill-rule:evenodd;clip-rule:evenodd;fill:#436DFF;}
	.st7{fill-rule:evenodd;clip-rule:evenodd;fill:#DA89DA;}
	.st8{fill-rule:evenodd;clip-rule:evenodd;fill:#FFAD00;}
	.st9{fill-rule:evenodd;clip-rule:evenodd;fill:#FF894F;}
	.st10{fill-rule:evenodd;clip-rule:evenodd;fill:#76B26B;}
	.st11{fill-rule:evenodd;clip-rule:evenodd;fill:#075D8C;}
	.st12{fill:#FFFFFF;}
	.st13{fill-rule:evenodd;clip-rule:evenodd;fill:#FFFFFF;}
	.st14{fill-rule:evenodd;clip-rule:evenodd;fill:#5895CB;}
	.st15{fill-rule:evenodd;clip-rule:evenodd;fill:#B2B2B2;}
	.st16{fill-rule:evenodd;clip-rule:evenodd;fill:#F5FFE6;}
	.st17{fill-rule:evenodd;clip-rule:evenodd;fill:#0381FF;}
</style>
<g>
	<path class="st0" d="M275.5,430.1h-4.8v-49.6c0-6.7-6.2-12.2-13.9-12.2h-55.2c-10.3,0-18.7-7.6-18.7-17v-49.6h4.8v49.6
		c0,6.7,6.2,12.2,13.9,12.2h55.2c10.3,0,18.7,7.6,18.7,17V430.1z"/>
</g>
<g>
	<path class="st1" d="M292,430.1h-4.8v-49.6c0-9.4,8.4-17,18.7-17h55.2c7.6,0,13.9-5.5,13.9-12.2v-49.6h4.8v49.6
		c0,9.4-8.4,17-18.7,17h-55.2c-7.6,0-13.9,5.5-13.9,12.2V430.1z"/>
</g>
<g>
	<path class="st1" d="M143.8,255.8H139v-33.2c0-4.1-3.8-7.4-8.5-7.4H93.6c-7.3,0-13.3-5.5-13.3-12.2v-33.2h4.8v33.2
		c0,4.1,3.8,7.4,8.5,7.4h36.9c7.3,0,13.3,5.5,13.3,12.2V255.8z"/>
</g>
<g>
	<path class="st2" d="M445.3,305.3h-4.8v-33.2c0-6.7,6-12.2,13.3-12.2h36.9c4.7,0,8.5-3.3,8.5-7.4v-33.2h4.8v33.2
		c0,6.7-6,12.2-13.3,12.2h-36.9c-4.7,0-8.5,3.3-8.5,7.4V305.3z"/>
</g>
<g>
	<path class="st3" d="M350.5,152h-4.8v-33.2c0-6.7,6-12.2,13.3-12.2h36.9c4.7,0,8.5-3.3,8.5-7.4V66.1h4.8v33.2
		c0,6.7-6,12.2-13.3,12.2h-36.9c-4.7,0-8.5,3.3-8.5,7.4V152z"/>
</g>
<g>
	<rect x="279.2" y="271.5" class="st4" width="4.6" height="204.2"/>
</g>
<g>
	<path class="st5" d="M354.5,228.9c27.2,0,49.2-22,49.2-49.2c0-27.2-22-49.2-49.2-49.2c-1.4,0-2.8,0.1-4.3,0.2
		c-5.2-32.1-33.1-56.6-66.6-56.6c-33.8,0-61.7,24.8-66.7,57.1c-2.8-0.5-5.6-0.7-8.5-0.7c-27.2,0-49.2,22-49.2,49.2
		c0,27.2,22,49.2,49.2,49.2H354.5z"/>
</g>
<path class="st6" d="M427.6,327.3c27.2,0,49.2-22,49.2-49.2c0-27.2-22-49.2-49.2-49.2c-1.4,0-2.8,0.1-4.3,0.2
	c-5.2-32.1-33.1-56.6-66.6-56.6c-33.8,0-61.7,24.8-66.7,57.1c-2.8-0.5-5.6-0.7-8.5-0.7c-27.2,0-49.2,22-49.2,49.2
	c0,27.2,22,49.2,49.2,49.2H427.6z"/>
<g>
	<path class="st7" d="M402.5,190.5c-12-11.1-28.1-18-45.8-18c-33.5,0-61.3,24.4-66.6,56.4h64.4C378,228.9,397.6,212.5,402.5,190.5
		L402.5,190.5z M281.6,228.9h-0.1h0H281.6z"/>
</g>
<g>
	<path class="st8" d="M281.5,327.3c27.2,0,49.2-22,49.2-49.2c0-27.2-22-49.2-49.2-49.2c-1.4,0-2.8,0.1-4.3,0.2
		c-5.2-32.1-33.1-56.6-66.6-56.6c-33.8,0-61.7,24.8-66.7,57.1c-2.8-0.5-5.6-0.7-8.5-0.7c-27.2,0-49.2,22-49.2,49.2
		c0,27.2,22,49.2,49.2,49.2H281.5z"/>
</g>
<g>
	<path class="st9" d="M281.5,228.9L281.5,228.9h-0.2H281.5L281.5,228.9z M277.2,228.9c-5.3-32-33.1-56.4-66.6-56.4
		c-19.4,0-37,8.2-49.3,21.4c6.1,20.3,24.9,35,47.1,35H277.2z"/>
</g>
<g>
	<path class="st10" d="M281.5,327.3c27.8,0,50.4-22.6,50.4-50.4c0-27.8-22.6-50.4-50.4-50.4c-27.8,0-50.4,22.6-50.4,50.4
		C231.1,304.7,253.7,327.3,281.5,327.3z"/>
</g>
<g>
	<path class="st10" d="M530.1,221.7c10.6,0,19.2-8.6,19.2-19.2c0-10.6-8.6-19.2-19.2-19.2c-0.6,0-1.1,0-1.7,0.1
		c-2-12.5-12.9-22.1-26-22.1c-13.2,0-24.1,9.7-26,22.3c-1.1-0.2-2.2-0.3-3.3-0.3c-10.6,0-19.2,8.6-19.2,19.2
		c0,10.6,8.6,19.2,19.2,19.2H530.1z"/>
</g>
<g>
	<path class="st11" d="M107.7,193.4c10.6,0,19.2-8.6,19.2-19.2c0-10.6-8.6-19.2-19.2-19.2c-0.6,0-1.1,0-1.7,0.1
		c-2-12.5-12.9-22.1-26-22.1c-13.2,0-24.1,9.7-26,22.3c-1.1-0.2-2.2-0.3-3.3-0.3c-10.6,0-19.2,8.6-19.2,19.2
		c0,10.6,8.6,19.2,19.2,19.2H107.7z"/>
</g>
<g>
	<path class="st5" d="M434.5,85.9c10.6,0,19.2-8.6,19.2-19.2c0-10.6-8.6-19.2-19.2-19.2c-0.6,0-1.1,0-1.7,0.1
		c-2-12.5-12.9-22.1-26-22.1c-13.2,0-24.1,9.7-26,22.3c-1.1-0.2-2.2-0.3-3.3-0.3c-10.6,0-19.2,8.6-19.2,19.2
		c0,10.6,8.6,19.2,19.2,19.2H434.5z"/>
</g>
<g>
	<path class="st12" d="M173.1,237.6c-2.4-3.6-6.4-5.6-10.4-5.6v3.7c2.8,0,5.6,1.4,7.3,3.9c2.7,4,1.6,9.5-2.4,12.2
		c-1.5,1-3.2,1.5-4.9,1.5v3.7c2.4,0,4.8-0.7,6.9-2.1C175.3,251,176.9,243.3,173.1,237.6z M162.7,232c-2.4,0-4.8,0.7-6.9,2.1
		c-5.3,3.5-7,10.3-4.3,15.8l-1.9,1.3l-0.1-0.1h0l0,0l0,0c-0.8-0.3-1.7-0.2-2.5,0.3l-10.2,6.8c-1.3,0.9-1.7,2.7-0.8,4
		c0.9,1.3,2.7,1.7,4,0.8l10.2-6.8c0.8-0.5,1.2-1.3,1.3-2.1h0l-0.1-0.1l1.9-1.3c2.4,2.7,5.9,4.2,9.3,4.2v-3.7c-2.8,0-5.6-1.4-7.3-3.9
		l0,0c-2.7-4-1.6-9.5,2.4-12.2c1.5-1,3.2-1.5,4.9-1.5V232z"/>
</g>
<g>
	<path class="st12" d="M253.1,110.7c0.6,0,1.1,0,1.7,0.1l0.8-2.5l5.2,1.6l-0.8,2.5c1.9,1,3.5,2.3,4.8,4l2.3-1.2l2.6,4.8l-2.3,1.2
		c0.6,2,0.8,4.1,0.6,6.2l2.5,0.8l-1.6,5.2l-2.5-0.8c-1,1.9-2.3,3.5-4,4.8l1.2,2.3l-4.8,2.6l-1.2-2.3c-1.5,0.5-3,0.7-4.5,0.7v-4.9
		c4.3,0,8.3-2.8,9.6-7.1c1.6-5.3-1.4-10.9-6.7-12.6c-1-0.3-2-0.4-2.9-0.4V110.7z M243.7,113.9l-1.2-2.3l4.8-2.6l1.2,2.3
		c1.5-0.5,3-0.7,4.5-0.7v4.9c-4.3,0-8.3,2.8-9.6,7.1c-1.6,5.3,1.4,10.9,6.7,12.6l0,0c1,0.3,2,0.4,2.9,0.4v4.9c-0.6,0-1.1,0-1.7-0.1
		l-0.8,2.5l-5.2-1.6l0.8-2.5c-1.9-1-3.5-2.3-4.8-4l-2.3,1.2l-2.6-4.8l2.3-1.2c-0.6-2-0.8-4.1-0.6-6.2l-2.5-0.8l1.6-5.2l2.5,0.8
		C240.7,116.9,242.1,115.2,243.7,113.9z"/>
</g>
<g>
	<g>
		<path class="st13" d="M278.9,156.2c10.2,0,18.4,7.1,18.4,15.9c0,5.3-3,9.9-7.5,12.8l2.6,6.6l-6.4-4.7c-2.2,0.8-4.6,1.2-7.1,1.2
			c-10.2,0-18.4-7.1-18.4-15.9C260.5,163.3,268.8,156.2,278.9,156.2z"/>
	</g>
	<g>
		<g>
			<circle class="st5" cx="287" cy="172.4" r="2.5"/>
		</g>
		<g>
			<circle class="st5" cx="278.9" cy="172.4" r="2.5"/>
		</g>
		<g>
			<circle class="st5" cx="270.9" cy="172.4" r="2.5"/>
		</g>
	</g>
</g>
<g>
	<g>
		
			<rect x="263.7" y="283.4" transform="matrix(-0.7844 0.6203 -0.6203 -0.7844 664.7502 337.667)" class="st12" width="19.9" height="2"/>
	</g>
	<g>
		
			<rect x="279.3" y="283.4" transform="matrix(0.7844 0.6203 -0.6203 0.7844 238.7774 -118.125)" class="st12" width="19.9" height="2"/>
	</g>
	<g>
		<rect x="280.5" y="258.3" class="st12" width="2" height="19.9"/>
	</g>
	<g>
		<path class="st13" d="M284.4,261.1c2.7,0.9,4.7,3,5.3,5.5h-16.5c0.6-2.6,2.7-4.6,5.3-5.5c-1.2-1.1-2.1-2.9-2.1-4.9
			c0-3.4,2.2-6.1,5-6.1c2.7,0,5,2.7,5,6.1C286.5,258.1,285.6,259.9,284.4,261.1z"/>
	</g>
	<g>
		<g>
			<path class="st13" d="M268.6,290c2.7,0.9,4.7,3,5.3,5.5h-16.5c0.6-2.6,2.7-4.6,5.3-5.5c-1.2-1.1-2.1-2.9-2.1-5
				c0-3.4,2.2-6.1,5-6.1c2.7,0,5,2.7,5,6.1C270.6,287.1,269.8,288.9,268.6,290z"/>
		</g>
		<g>
			<path class="st13" d="M300.2,290c2.7,0.9,4.7,3,5.3,5.5h-16.5c0.6-2.6,2.7-4.6,5.3-5.5c-1.2-1.1-2.1-2.9-2.1-5
				c0-3.4,2.2-6.1,5-6.1c2.7,0,5,2.7,5,6.1C302.3,287.1,301.5,288.9,300.2,290z"/>
		</g>
	</g>
	<g>
		<circle class="st13" cx="281.5" cy="278.2" r="5.1"/>
	</g>
</g>
<g>
	<g>
		
			<rect x="404.6" y="245.3" transform="matrix(-0.7799 0.6259 -0.6259 -0.7799 886.9456 204.3897)" class="st13" width="5.9" height="25.6"/>
	</g>
	<g>
		
			<rect x="395.9" y="256.3" transform="matrix(-0.6258 -0.7799 0.7799 -0.6258 461.2707 737.5327)" class="st13" width="23.3" height="3.6"/>
	</g>
	<g>
		<path class="st13" d="M397.2,239.3c2.4-0.3,4.9,0.6,6.5,2.6c2.5,3.1,2,7.5-1.1,10c-3.1,2.5-7.5,2-10-1.1c-1.6-2-2-4.6-1.1-6.9
			l2.5,3.1l1.3,1.7l2.1-0.3l2.1-0.3l0.8-2l0.8-2l-1.3-1.7L397.2,239.3z"/>
	</g>
	<g>
		<path class="st13" d="M423.6,272.3c0.8-2.3,0.5-4.9-1.1-6.9c-2.5-3.1-6.9-3.6-10-1.1c-3.1,2.5-3.6,6.9-1.1,10
			c1.6,2,4.1,2.9,6.5,2.6l-2.5-3.1l-1.3-1.7l0.8-2l0.8-2l2.1-0.3l2.1-0.3l1.3,1.7L423.6,272.3z"/>
	</g>
	<g>
		<path class="st13" d="M422.9,269.5c-0.1-1.2-0.5-2.4-1.3-3.4c-2.1-2.6-5.8-3-8.4-0.9c-2.6,2.1-3,5.8-0.9,8.4c0.8,1,1.9,1.7,3,2
			l-2.6-3.3l2-5.2l5.5-0.9L422.9,269.5z"/>
	</g>
	<g>
		<path class="st13" d="M392.1,246.7c0.1,1.2,0.5,2.4,1.3,3.4c2.1,2.6,5.8,3,8.4,0.9c2.6-2.1,3-5.8,0.9-8.4c-0.8-1-1.9-1.7-3-2
			l2.6,3.3l-2,5.2l-5.5,0.9L392.1,246.7z"/>
	</g>
</g>
<g>
	<g>
		<path class="st12" d="M401.5,295.7c2.6-0.5,4.5-2.8,4.5-5.5c0-2.7-1.9-5-4.5-5.5v2.5c1.2,0.4,2.1,1.6,2.1,3c0,1.4-0.9,2.5-2.1,3
			V295.7z M387.7,300.3c4.2,0,7.9-2,10.3-5c0.7,0.3,1.5,0.5,2.3,0.5c0.4,0,0.7,0,1.1-0.1v-2.5c-0.3,0.1-0.7,0.2-1.1,0.2
			c-0.4,0-0.7-0.1-1-0.2c0.9-1.8,1.5-3.9,1.5-6.1l0,0c0,0,0,0,0,0c0.2,0,0.4,0.1,0.6,0.2v-2.5c-0.3-0.1-0.5-0.1-0.8-0.1c0,0,0,0,0,0
			h-25.9c-0.2,0.8-0.2,1.6-0.2,2.5C374.6,294.4,380.5,300.3,387.7,300.3z"/>
	</g>
	<g>
		<rect x="374.6" y="301.7" class="st12" width="28.4" height="2.4"/>
	</g>
	<g>
		<path class="st12" d="M382.9,280.7c-1.6,0.6-0.9,3.2,0.7,2.6c1.9-0.7,2.6-2.6,2.1-4.5c-0.2-0.9-0.8-1.8-1.3-2.7
			c-0.3-0.5-0.8-1.6-0.1-2c1.5-0.9,0.1-3.2-1.4-2.3c-1.6,1-1.9,2.9-1.4,4.6C381.8,277,384.1,280.3,382.9,280.7z"/>
	</g>
	<g>
		<path class="st12" d="M390.3,280.7c-1.6,0.6-0.9,3.2,0.7,2.6c1.9-0.7,2.6-2.6,2.1-4.5c-0.2-0.9-0.8-1.8-1.3-2.7
			c-0.3-0.5-0.8-1.6-0.1-2c1.5-0.9,0.1-3.2-1.4-2.3c-1.6,1-1.9,2.9-1.4,4.6C389.2,277,391.5,280.3,390.3,280.7z"/>
	</g>
</g>
<g>
	<g>
		<path class="st12" d="M417,53.2c1,0.7,2.2,1,3.5,1c3.6,0,6.4-2.9,6.4-6.4c0-3.6-2.9-6.4-6.4-6.4c-3.2,0-5.9,2.4-6.4,5.5h6.4h2.1
			l-1.4,1.6L417,53.2z"/>
	</g>
	<g>
		<path class="st12" d="M405.8,61.2v0.7v0.7v8c-1.8,0.3-3.1,1.1-3.1,2.1h8.6c0-0.9-1.1-1.7-2.7-2.1v-8.1v-0.7v-0.7l7.6-8.5l4.3-4.8
			H414H394L405.8,61.2z"/>
	</g>
</g>
<g>
	<g>
		<path class="st13" d="M96.3,165.5h1.5c4.4,0,4.6-5,0-5l-1.5,0v0.4c1.2,0,2.1,0.9,2.1,2.1c0,1.2-0.9,2.1-2.1,2.1V165.5z
			 M59.9,165.5h36.5v-0.4c-1.2,0-2.1-0.9-2.1-2.1c0-1.2,0.9-2.1,2.1-2.1v-0.4c-12.2,0-24.3,0-36.5,0v0.4c1.2,0,2.1,0.9,2.1,2.1
			c0,1.2-0.9,2.1-2.1,2.1V165.5z M58.3,165.5h1.5v-0.4c-1.2,0-2.1-0.9-2.1-2.1c0-1.2,0.9-2.1,2.1-2.1v-0.4l-1.5,0
			C53.7,160.5,53.9,165.5,58.3,165.5z"/>
	</g>
	<g>
		<circle class="st13" cx="80.9" cy="145.4" r="2.1"/>
	</g>
	<g>
		<path class="st13" d="M97.2,162.4l-14.4-16.1c-0.3-0.4-0.9-0.4-1.3-0.1l0,0c-0.4,0.3-0.4,0.9-0.1,1.3l14.4,16.1
			c0.3,0.4,0.9,0.4,1.3,0.1l0,0C97.5,163.3,97.5,162.8,97.2,162.4z"/>
	</g>
	<g>
		<circle class="st13" cx="75.3" cy="145.4" r="2.1"/>
	</g>
	<g>
		<path class="st13" d="M59.1,162.4l15.7-17.5c0.3-0.4,0.9-0.4,1.3-0.1l0,0c0.4,0.3,0.4,0.9,0.1,1.3l-15.7,17.5
			c-0.3,0.4-0.9,0.4-1.3,0.1l0,0C58.8,163.3,58.7,162.8,59.1,162.4z"/>
	</g>
	<g>
		<path class="st13" d="M90.3,167h7.4L95.7,178c-0.4,2.4-1.6,4.2-5.2,4.2h-0.2v-3.3c0.5-0.3,0.9-0.8,1-1.4c0.2-1.3,0.3-2.5,0.5-3.8
			c0.2-1.3,0.3-2.5,0.5-3.8c0.1-0.8-0.5-1.5-1.5-1.5l0,0c-0.2,0-0.4,0-0.6,0.1V167z M84.2,167h6.1v1.5c-0.7,0.2-1.2,0.8-1.3,1.5
			c-0.1,1.3-0.3,2.5-0.4,3.8c-0.1,1.3-0.3,2.5-0.4,3.8c-0.1,0.9,0.5,1.5,1.3,1.5l0,0c0.2,0,0.5-0.1,0.7-0.2v3.3h-6.1V179
			c0.7-0.2,1.2-0.8,1.2-1.5c0.1-1.3,0.2-2.5,0.3-3.8c0.1-1.3,0.2-2.5,0.3-3.8c0.1-0.9-0.6-1.5-1.6-1.5l0,0c-0.1,0-0.2,0-0.3,0V167z
			 M78.1,167h6.1v1.4c-0.8,0.1-1.5,0.8-1.5,1.5c-0.1,1.3-0.1,2.5-0.2,3.8c-0.1,1.3-0.1,2.5-0.2,3.8c0,0.9,0.6,1.5,1.4,1.5l0,0
			c0.1,0,0.3,0,0.4,0v3.2h-6.1v-3.2c0.8,0,1.5-0.7,1.5-1.5c0-1.3,0-2.5,0.1-3.8c0-1.3,0-2.5,0.1-3.8c0-0.9-0.7-1.5-1.7-1.5l0,0h0
			V167z M72,167h6.1v1.4c-0.9,0-1.7,0.7-1.7,1.5c0,1.3,0,2.5,0.1,3.8c0,1.3,0,2.5,0.1,3.8c0,0.9,0.7,1.5,1.5,1.5l0,0h0v3.2H72V179
			c0.1,0,0.3,0.1,0.4,0.1l0,0c0.8,0,1.5-0.7,1.4-1.5c-0.1-1.3-0.1-2.5-0.2-3.8c-0.1-1.3-0.1-2.5-0.2-3.8c0-0.8-0.7-1.4-1.5-1.5V167z
			 M66,167h6v1.4c-0.1,0-0.2,0-0.3,0l0,0c-0.9,0-1.6,0.7-1.6,1.5c0.1,1.3,0.2,2.5,0.3,3.8c0.1,1.3,0.2,2.5,0.3,3.8
			c0.1,0.7,0.6,1.3,1.2,1.5v3.2h-6v-3.3c0.2,0.1,0.5,0.2,0.7,0.2l0,0c0.8,0,1.4-0.7,1.3-1.5c-0.1-1.3-0.3-2.5-0.4-3.8
			c-0.1-1.3-0.3-2.5-0.4-3.8c-0.1-0.7-0.6-1.2-1.3-1.5V167z M65.8,182.2c-3.7,0-4.8-1.8-5.2-4.2L58.6,167H66v1.5
			c-0.2-0.1-0.4-0.1-0.6-0.1l0,0c-0.9,0-1.6,0.7-1.5,1.5c0.2,1.3,0.3,2.5,0.5,3.8c0.2,1.3,0.3,2.5,0.5,3.8c0.1,0.6,0.5,1.1,1,1.4
			v3.3H65.8z"/>
	</g>
</g>
<g>
	<g>
		<path class="st13" d="M355.1,279.3l-9.7-16.8c-1-1.7-1.6-3.6-1.6-5.7c0-6.2,5.1-11.3,11.3-11.3s11.3,5.1,11.3,11.3
			c0,2.1-0.6,4-1.6,5.7L355.1,279.3z"/>
	</g>
	<g>
		<path class="st14" d="M355.1,264.7c4.4,0,8-3.6,8-8s-3.6-8-8-8c-4.4,0-8,3.6-8,8S350.7,264.7,355.1,264.7z"/>
	</g>
</g>
<g>
	<g>
		<polygon class="st12" points="218.5,208.9 209,208.9 209,204.7 198,204.7 198,212.9 229.4,212.9 229.4,204.7 218.5,204.7 		"/>
	</g>
	<g>
		<rect x="210.8" y="204.7" class="st12" width="6" height="2.4"/>
	</g>
	<g>
		<path class="st12" d="M221.4,186.5h-7.7v2.7h5v3.3h-5v10.4h4.8h10.9v-10.4h-8V186.5z M213.7,186.5h-7.7v5.9h-8v10.4H209h4.8v-10.4
			h-5l0,0v-3.3h5V186.5z"/>
	</g>
</g>
<g>
	<path class="st12" d="M202.3,287.8v-8.3c-2.6-0.7-4.5-1.9-5.7-3.3c-1.2-1.5-1.8-3.3-1.8-5.4c0-2.2,0.7-4,2-5.4
		c1.4-1.5,3.2-2.3,5.4-2.5v-2h2.9v2c2.1,0.3,3.8,1,5,2.1s2,2.8,2.4,4.7l-5,0.7c-0.3-1.6-1.1-2.6-2.4-3.2v7.7c3.2,0.9,5.3,2,6.5,3.3
		c1.1,1.4,1.7,3.1,1.7,5.2c0,2.4-0.7,4.4-2.2,6c-1.4,1.6-3.4,2.6-6,3v3.7h-2.9v-3.6c-2.3-0.3-4.1-1.1-5.6-2.5
		c-1.4-1.4-2.3-3.4-2.7-6l5.2-0.6c0.2,1.1,0.6,2,1.2,2.7C201,286.9,201.6,287.5,202.3,287.8z M202.3,267.1c-0.8,0.3-1.4,0.7-1.9,1.3
		c-0.5,0.6-0.7,1.3-0.7,2.1c0,0.7,0.2,1.3,0.6,1.9c0.4,0.6,1.1,1.1,1.9,1.5V267.1z M205.2,288.1c1-0.2,1.8-0.6,2.4-1.4
		c0.6-0.7,0.9-1.6,0.9-2.6c0-0.9-0.3-1.6-0.8-2.3c-0.5-0.6-1.4-1.1-2.6-1.5V288.1z"/>
</g>
<g>
	<g>
		<rect x="330.1" y="194.4" class="st12" width="32" height="3.7"/>
	</g>
	<g>
		<path class="st12" d="M357.3,214.9h4.8v-13h-4.8v6.4l0,0l2.4,2.4l-2.4,2.4V214.9z M330.1,214.9h27.2V213l-2.4-2.4l2.4-2.4v-6.4
			h-27.2V214.9L330.1,214.9z M357.3,208.3"/>
	</g>
</g>
<g>
	<path class="st12" d="M522.3,185.1c-0.9-2.2-7.5-1.8-9.7-0.9l-5.7,2.2l-11.5-12l-4,1.5l8.3,13.2l-7.9,3l-6.9-4.4l-4,1.5l7.5,8.8
		l0.3,11.4l4-1.5l2.1-7.5l8-3.1l2.6,15.1l4-1.5l0.6-16.3l5.7-2.2C517.9,191.4,523.1,187.3,522.3,185.1z"/>
</g>
<g>
	<g>
		<path class="st13" d="M300.6,102.3l13,0c2.5,0,4.5,2,4.5,4.5v34.9c0,2.5-2,4.5-4.5,4.5h-13c-2.5,0-4.5-2-4.5-4.5v-34.9
			C296.1,104.3,298.1,102.3,300.6,102.3z"/>
	</g>
	<g>
		<rect x="298.4" y="106.9" class="st5" width="17.2" height="33.2"/>
	</g>
	<g>
		<path class="st5" d="M302.8,104.7h8.4c0.2,0,0.4-0.2,0.4-0.4v0c0-0.2-0.2-0.4-0.4-0.4h-8.4c-0.2,0-0.4,0.2-0.4,0.4v0
			C302.4,104.6,302.6,104.7,302.8,104.7z"/>
	</g>
	<g>
		<path class="st5" d="M300,143.8h14.2c0.4,0,0.6-0.3,0.6-0.6l0,0c0-0.4-0.3-0.6-0.6-0.6H300c-0.4,0-0.6,0.3-0.6,0.6l0,0
			C299.3,143.5,299.6,143.8,300,143.8z"/>
	</g>
	<g>
		<circle class="st13" cx="307" cy="143.2" r="2.5"/>
	</g>
	<g>
		<circle class="st5" cx="307" cy="143.2" r="1.8"/>
	</g>
</g>
<g>
	<g>
		<path class="st12" d="M150.1,301.5c3.8,0,7,0.9,8,3.9c0.3,1,0.3,1,0.3,0c0-5.4,0-20.8,0-26.2c0-1.1,0-2.8-0.3-3.8
			c-1-2.9-4.2-3.7-7.9-3.7v4.7c2.4,0,4.3,0.3,5.7,1c0.2,0.1,0.3,0.4,0.2,0.6c-0.1,0.2-0.3,0.3-0.4,0.3c-0.1,0-0.1,0-0.2-0.1
			c-0.3-0.2-0.7-0.3-1.1-0.4c-1.1-0.3-2.5-0.5-4.1-0.5v3.7c2.4,0,4.3,0.3,5.7,1c0.2,0.1,0.3,0.4,0.2,0.6c-0.1,0.2-0.3,0.3-0.4,0.3
			c-0.1,0-0.1,0-0.2-0.1c-0.3-0.2-0.7-0.3-1.1-0.4c-1.1-0.3-2.5-0.5-4.1-0.5v3.7c2.4,0,4.3,0.3,5.7,1c0.2,0.1,0.3,0.4,0.2,0.6
			c-0.1,0.2-0.3,0.3-0.4,0.3c-0.1,0-0.1,0-0.2-0.1c-0.3-0.2-0.7-0.3-1.1-0.4c-1.1-0.3-2.5-0.5-4.1-0.5V301.5z M142.1,305.4
			c0.9-3,4.1-3.9,8-3.9v-14.8c-1.7,0-3,0.2-4.1,0.5c-0.4,0.1-0.8,0.3-1.1,0.4c-0.2,0.1-0.5,0-0.6-0.2c-0.1-0.2,0-0.5,0.2-0.6l0,0
			c1.4-0.7,3.2-1,5.7-1V282c-1.7,0-3,0.2-4.1,0.5c-0.4,0.1-0.8,0.3-1.1,0.4c-0.2,0.1-0.5,0-0.6-0.2c-0.1-0.2,0-0.5,0.2-0.6l0,0
			c1.4-0.7,3.2-1,5.7-1v-3.7c-1.7,0-3,0.2-4.1,0.5c-0.4,0.1-0.8,0.3-1.1,0.4c-0.2,0.1-0.5,0-0.6-0.2c-0.1-0.2,0-0.5,0.2-0.6l0,0
			c1.4-0.7,3.2-1,5.7-1v-4.7c-3.7,0-6.9,0.8-7.9,3.7c-0.3,1-0.3,2.8-0.3,3.8c0,5.4,0,20.8,0,26.2
			C141.8,306.4,141.8,306.4,142.1,305.4z"/>
	</g>
	<g>
		<path class="st12" d="M176,305.4c0.3,1,0.3,1,0.3,0c0-5.4,0-20.8,0-26.2c0-1.1,0-2.8-0.3-3.8c-1-2.9-4.2-3.7-7.9-3.7v4.7
			c2.4,0,4.3,0.3,5.7,1c0.2,0.1,0.3,0.4,0.2,0.6l0,0c-0.1,0.2-0.3,0.3-0.4,0.3c-0.1,0-0.1,0-0.2-0.1c-0.3-0.2-0.7-0.3-1.1-0.4
			c-1.1-0.3-2.5-0.5-4.1-0.5v3.7c2.4,0,4.3,0.3,5.7,1c0.2,0.1,0.3,0.4,0.2,0.6l0,0c-0.1,0.2-0.3,0.3-0.4,0.3c-0.1,0-0.1,0-0.2-0.1
			c-0.3-0.2-0.7-0.3-1.1-0.4c-1.1-0.3-2.5-0.5-4.1-0.5v3.7c2.4,0,4.3,0.3,5.7,1c0.2,0.1,0.3,0.4,0.2,0.6l0,0
			c-0.1,0.2-0.3,0.3-0.4,0.3c-0.1,0-0.1,0-0.2-0.1c-0.3-0.2-0.7-0.3-1.1-0.4c-1.1-0.3-2.5-0.5-4.1-0.5v14.8h0
			C171.9,301.5,175.1,302.4,176,305.4z M168,271.6L168,271.6c-3.7,0-6.9,0.8-7.9,3.7c-0.3,1-0.3,2.8-0.3,3.8c0,5.4,0,20.8,0,26.2
			c0,1.1,0,1,0.3,0c0.9-3,4.1-3.9,8-3.9v-14.8h0c-1.7,0-3,0.2-4.1,0.5c-0.4,0.1-0.8,0.3-1.1,0.4c-0.2,0.1-0.5,0-0.6-0.2
			c-0.1-0.2,0-0.5,0.2-0.6c1.4-0.7,3.2-1,5.7-1h0V282h0c-1.7,0-3,0.2-4.1,0.5c-0.4,0.1-0.8,0.3-1.1,0.4c-0.2,0.1-0.5,0-0.6-0.2
			c-0.1-0.2,0-0.5,0.2-0.6c1.4-0.7,3.2-1,5.7-1h0v-3.7h0c-1.7,0-3,0.2-4.1,0.5c-0.4,0.1-0.8,0.3-1.1,0.4c-0.2,0.1-0.5,0-0.6-0.2
			c-0.1-0.2,0-0.5,0.2-0.6c1.4-0.7,3.2-1,5.7-1h0V271.6z"/>
	</g>
</g>
<g>
	<path class="st15" d="M300,411.1h-35.1c-1,0-1.7,0.8-1.7,1.7l0,0c0,1,0.8,1.7,1.7,1.7H300c1,0,1.7-0.8,1.7-1.7l0,0
		C301.8,411.9,301,411.1,300,411.1z"/>
</g>
<g>
	<path class="st16" d="M297.5,387.4h-30.1c-5.8,0-10.6,4.8-10.6,10.6v79.8c0,5.8,4.8,10.6,10.6,10.6h30.1c5.8,0,10.6-4.8,10.6-10.6
		v-79.8C308.1,392.1,303.3,387.4,297.5,387.4z"/>
</g>
<g>
	<path class="st17" d="M303.4,395.8h-41.9c-0.1,0-0.1,0.1-0.1,0.1v82.9c0,0.1,0.1,0.1,0.1,0.1h41.9c0.1,0,0.1-0.1,0.1-0.1V396
		C303.6,395.9,303.5,395.8,303.4,395.8z"/>
</g>
<g>
	<circle class="st15" cx="282.5" cy="483.5" r="2.6"/>
</g>
</svg>
