<?xml version="1.0" encoding="utf-8"?>
<!-- Generator: Adobe Illustrator 19.0.0, SVG Export Plug-In . SVG Version: 6.00 Build 0)  -->
<svg version="1.1" id="Layer_1" xmlns="http://www.w3.org/2000/svg" xmlns:xlink="http://www.w3.org/1999/xlink" x="0px" y="0px"
	 width="750px" height="800px" viewBox="0 0 750 800" style="enable-background:new 0 0 750 800;" xml:space="preserve">
<style type="text/css">
	.st0{fill:#332F30;}
	.st1{fill:#E9EBEA;}
	.st2{fill:#CACCCC;}
	.st3{fill:#2DCC70;}
	.st4{fill:#EDEDEE;}
	.st5{fill:#999B9E;}
	.st6{fill:#B7B9BB;}
	.st7{opacity:0.1;fill:#FFFFFF;}
	.st8{fill:#ED7962;}
	.st9{fill:#585657;}
	.st10{fill:#3598DB;}
	.st11{fill:#DDDFDE;}
	.st12{fill:#5F6062;}
	.st13{fill:#FFFFFF;}
	.st14{fill:#423E3F;}
	.st15{fill:#221E20;}
	.st16{fill:#B6B8BA;}
	.st17{fill:url(#SVGID_1_);}
	.st18{opacity:0.1;}
</style>
<g>
	<g>
		<path class="st0" d="M634.8,115.8c0-13.9-6-18.1-18.4-18.1H189.5c-12.4,0-18.4,5.2-18.4,19.1v245.9h463.7V115.8z"/>
		<path class="st1" d="M171.1,362.7v6.7c0,13.9,6,19.1,18.4,19.1h426.9c12.4,0,18.4-6.3,18.4-20.1v-5.7H171.1z"/>
		<path class="st2" d="M616.4,378.8H189.5c-12.4,0-18.4,0.8-18.4-10.5v1.1c0,13.9,6,19.1,18.4,19.1h426.9c12.4,0,18.4-6.3,18.4-20.1
			v-1.1C634.8,377.1,628.7,378.8,616.4,378.8z"/>
	</g>
	<rect x="186.1" y="110.9" class="st3" width="433.6" height="235.7"/>
	<polygon class="st4" points="446,418.4 359.8,418.4 362.3,388.5 442.8,388.5 	"/>
	<polygon class="st5" points="443.9,399.3 442.7,388.5 362.3,388.5 361.4,399.3 	"/>
	<path class="st6" d="M461.1,431.3c2.5,3.4,0.6,6.3-4.1,6.3H348.9c-4.7,0-6.6-2.8-4.1-6.3l15.1-12.9H446L461.1,431.3z"/>
	<g>
		<path class="st7" d="M189.5,97.7c-12.4,0-18.4,5.2-18.4,19.1v245.9h55.8l237.5-265H189.5z"/>
	</g>
</g>
<g>
	<path class="st1" d="M684.6,518.9c0,6.1-5,11.1-11.1,11.1H533c-6.1,0-11.1-5-11.1-11.1V315.5c0-6.1,5-11.1,11.1-11.1h140.6
		c6.1,0,11.1,5,11.1,11.1V518.9z"/>
	<path class="st0" d="M533,529.3c-5.7,0-10.4-4.7-10.4-10.4V315.5c0-5.7,4.7-10.4,10.4-10.4h140.6c5.7,0,10.4,4.7,10.4,10.4v203.3
		c0,5.7-4.7,10.4-10.4,10.4H533z"/>
	<rect x="537.6" y="325.9" class="st8" width="131.4" height="182.6"/>
	<path class="st7" d="M673.5,305.1H533c-5.7,0-10.4,4.7-10.4,10.4v159.9l153.2-170C675.1,305.2,674.3,305.1,673.5,305.1z"/>
	<g>
		<polygon class="st0" points="611,522.6 595.6,522.6 595.5,515.3 611,515.4 		"/>
		<path class="st9" d="M596.2,522.1l0-6l14.2,0l0,6L596.2,522.1z M596.6,516.6l0,5.1l13.3-0.1l0-5.1L596.6,516.6z"/>
		<polygon class="st7" points="611,515.4 595.5,515.4 595.6,515.5 611,522.6 		"/>
	</g>
</g>
<g>
	<path class="st0" d="M307.6,418.6c0,8.1-6.4,14.7-14.4,14.7H35.3c-7.9,0-14.4-6.6-14.4-14.7V272.9c0-8.1,6.4-14.7,14.4-14.7h257.9
		c7.9,0,14.4,6.6,14.4,14.7V418.6z"/>
	<path class="st10" d="M39.5,427.1c-6.4,0-11.6-5.3-11.6-11.8V276.6c0-6.5,5.2-11.8,11.6-11.8H289c6.4,0,11.6,5.3,11.6,11.8v138.8
		c0,6.5-5.2,11.8-11.6,11.8H39.5z"/>
	<path class="st7" d="M39.5,264.8c-6.4,0-11.6,5.3-11.6,11.8v138.8c0,6.5,5.2,11.8,11.6,11.8h27.4l146.3-162.3H39.5z"/>
	<path class="st1" d="M307.6,590.7c0,8.1-6.4,14.7-14.4,14.7H35.3c-7.9,0-14.4-6.6-14.4-14.7V445c0-8.1,6.4-14.7,14.4-14.7h257.9
		c7.9,0,14.4,6.6,14.4,14.7V590.7z"/>
	<path class="st2" d="M293.2,599.8H35.3c-7.9,0-14.4-6.6-14.4-14.7v5.6c0,8.1,6.4,14.7,14.4,14.7h257.9c7.9,0,14.4-6.6,14.4-14.7
		v-5.6C307.6,593.2,301.1,599.8,293.2,599.8z"/>
	<g>
		<path class="st11" d="M196.9,593.6c0,1-1,1.8-2.2,1.8h-65.8c-1.2,0-2.2-0.8-2.2-1.8v-46.5c0-1,1-1.8,2.2-1.8h65.8
			c1.2,0,2.2,0.8,2.2,1.8V593.6z"/>
		<path class="st2" d="M194.7,545.3h-65.8c-1.2,0-2.2,0.8-2.2,1.8v46.5c0,0.6,0.4,1.2,1,1.5c0-0.1,0-47.8,0-47.8
			c0-0.6,0.5-1.2,1.2-1.2h66.1c0.7,0,1.2,0.5,1.2,1.1c0,0,0,47.7,0,47.8c0.6-0.3,1-0.9,1-1.5v-46.5
			C196.9,546.1,195.9,545.3,194.7,545.3z"/>
	</g>
	<g>
		<polygon class="st0" points="53.8,426.2 53.8,441.6 56,441.6 56,440.6 273.6,440.6 273.6,441.6 275.8,441.6 275.8,426.2 		"/>
		<rect x="53.8" y="426.2" class="st12" width="222" height="1.6"/>
	</g>
	<g>
		<path class="st2" d="M272.1,538.4H58.5c-7.9,0-8.3-3.2-8.3-10.5v-66.7c0-7.3,0.4-9.4,8.3-9.4H271c7.9,0,8.3,2.1,8.3,9.4v66.7
			c0,0.6,0,1.2,0,1.7c0,3.5,0,5.8-1.3,7.2C276.9,537.9,275.2,538.4,272.1,538.4z M58.5,452.9c-7,0-7.2,1.2-7.2,8.3v66.7
			c0,7.1,0.3,9.4,7.2,9.4h213.7c2.7,0,4.2-0.4,5.1-1.2c1.1-1.1,1.1-3.2,1-6.5c0-0.6,0-1.1,0-1.7v-66.7c0-7.1-0.2-8.3-7.2-8.3H58.5z"
			/>
		<g>
			<g>
				<path class="st0" d="M67.5,461.6c0,0.7-0.6,1.3-1.3,1.3H55.1c-0.7,0-1.3-0.6-1.3-1.3v-4.3c0-0.7,0.6-1.3,1.3-1.3h11.2
					c0.7,0,1.3,0.6,1.3,1.3V461.6z"/>
				<path class="st0" d="M67.5,474.8c0,0.7-0.6,1.3-1.3,1.3H55.1c-0.7,0-1.3-0.6-1.3-1.3v-8.4c0-0.7,0.6-1.3,1.3-1.3h11.2
					c0.7,0,1.3,0.6,1.3,1.3V474.8z"/>
				<path class="st0" d="M82.6,474.8c0,0.7-0.6,1.3-1.3,1.3H70.1c-0.7,0-1.3-0.6-1.3-1.3v-8.4c0-0.7,0.6-1.3,1.3-1.3h11.2
					c0.7,0,1.3,0.6,1.3,1.3V474.8z"/>
				<path class="st0" d="M89,488.6c0,0.7-0.6,1.3-1.3,1.3H76.6c-0.7,0-1.3-0.6-1.3-1.3v-8.4c0-0.7,0.6-1.3,1.3-1.3h11.2
					c0.7,0,1.3,0.6,1.3,1.3V488.6z"/>
				<path class="st0" d="M104.6,488.6c0,0.7-0.6,1.3-1.3,1.3H92.1c-0.7,0-1.3-0.6-1.3-1.3v-8.4c0-0.7,0.6-1.3,1.3-1.3h11.2
					c0.7,0,1.3,0.6,1.3,1.3V488.6z"/>
				<path class="st0" d="M120.1,488.6c0,0.7-0.6,1.3-1.3,1.3h-11.2c-0.7,0-1.3-0.6-1.3-1.3v-8.4c0-0.7,0.6-1.3,1.3-1.3h11.2
					c0.7,0,1.3,0.6,1.3,1.3V488.6z"/>
				<path class="st0" d="M135.7,488.6c0,0.7-0.6,1.3-1.3,1.3h-11.2c-0.7,0-1.3-0.6-1.3-1.3v-8.4c0-0.7,0.6-1.3,1.3-1.3h11.2
					c0.7,0,1.3,0.6,1.3,1.3V488.6z"/>
				<path class="st0" d="M151.3,488.6c0,0.7-0.6,1.3-1.3,1.3h-11.2c-0.7,0-1.3-0.6-1.3-1.3v-8.4c0-0.7,0.6-1.3,1.3-1.3H150
					c0.7,0,1.3,0.6,1.3,1.3V488.6z"/>
				<path class="st0" d="M166.8,488.6c0,0.7-0.6,1.3-1.3,1.3h-11.2c-0.7,0-1.3-0.6-1.3-1.3v-8.4c0-0.7,0.6-1.3,1.3-1.3h11.2
					c0.7,0,1.3,0.6,1.3,1.3V488.6z"/>
				<path class="st0" d="M182.4,488.6c0,0.7-0.6,1.3-1.3,1.3H170c-0.7,0-1.3-0.6-1.3-1.3v-8.4c0-0.7,0.6-1.3,1.3-1.3h11.2
					c0.7,0,1.3,0.6,1.3,1.3V488.6z"/>
				<path class="st0" d="M198,488.6c0,0.7-0.6,1.3-1.3,1.3h-11.2c-0.7,0-1.3-0.6-1.3-1.3v-8.4c0-0.7,0.6-1.3,1.3-1.3h11.2
					c0.7,0,1.3,0.6,1.3,1.3V488.6z"/>
				<path class="st0" d="M213.5,488.6c0,0.7-0.6,1.3-1.3,1.3h-11.2c-0.7,0-1.3-0.6-1.3-1.3v-8.4c0-0.7,0.6-1.3,1.3-1.3h11.2
					c0.7,0,1.3,0.6,1.3,1.3V488.6z"/>
				<path class="st0" d="M229.1,488.6c0,0.7-0.6,1.3-1.3,1.3h-11.2c-0.7,0-1.3-0.6-1.3-1.3v-8.4c0-0.7,0.6-1.3,1.3-1.3h11.2
					c0.7,0,1.3,0.6,1.3,1.3V488.6z"/>
				<path class="st0" d="M244.7,488.6c0,0.7-0.6,1.3-1.3,1.3h-11.2c-0.7,0-1.3-0.6-1.3-1.3v-8.4c0-0.7,0.6-1.3,1.3-1.3h11.2
					c0.7,0,1.3,0.6,1.3,1.3V488.6z"/>
				<path class="st0" d="M92.7,502.1c0,0.7-0.6,1.3-1.3,1.3H80.2c-0.7,0-1.3-0.6-1.3-1.3v-8.4c0-0.7,0.6-1.3,1.3-1.3h11.2
					c0.7,0,1.3,0.6,1.3,1.3V502.1z"/>
				<path class="st0" d="M108.2,502.1c0,0.7-0.6,1.3-1.3,1.3H95.8c-0.7,0-1.3-0.6-1.3-1.3v-8.4c0-0.7,0.6-1.3,1.3-1.3H107
					c0.7,0,1.3,0.6,1.3,1.3V502.1z"/>
				<path class="st0" d="M123.8,502.1c0,0.7-0.6,1.3-1.3,1.3h-11.2c-0.7,0-1.3-0.6-1.3-1.3v-8.4c0-0.7,0.6-1.3,1.3-1.3h11.2
					c0.7,0,1.3,0.6,1.3,1.3V502.1z"/>
				<path class="st0" d="M139.4,502.1c0,0.7-0.6,1.3-1.3,1.3h-11.2c-0.7,0-1.3-0.6-1.3-1.3v-8.4c0-0.7,0.6-1.3,1.3-1.3h11.2
					c0.7,0,1.3,0.6,1.3,1.3V502.1z"/>
				<path class="st0" d="M154.9,502.1c0,0.7-0.6,1.3-1.3,1.3h-11.2c-0.7,0-1.3-0.6-1.3-1.3v-8.4c0-0.7,0.6-1.3,1.3-1.3h11.2
					c0.7,0,1.3,0.6,1.3,1.3V502.1z"/>
				<path class="st0" d="M170.5,502.1c0,0.7-0.6,1.3-1.3,1.3h-11.2c-0.7,0-1.3-0.6-1.3-1.3v-8.4c0-0.7,0.6-1.3,1.3-1.3h11.2
					c0.7,0,1.3,0.6,1.3,1.3V502.1z"/>
				<path class="st0" d="M186.1,502.1c0,0.7-0.6,1.3-1.3,1.3h-11.2c-0.7,0-1.3-0.6-1.3-1.3v-8.4c0-0.7,0.6-1.3,1.3-1.3h11.2
					c0.7,0,1.3,0.6,1.3,1.3V502.1z"/>
				<path class="st0" d="M201.6,502.1c0,0.7-0.6,1.3-1.3,1.3h-11.2c-0.7,0-1.3-0.6-1.3-1.3v-8.4c0-0.7,0.6-1.3,1.3-1.3h11.2
					c0.7,0,1.3,0.6,1.3,1.3V502.1z"/>
				<path class="st0" d="M217.2,502.1c0,0.7-0.6,1.3-1.3,1.3h-11.2c-0.7,0-1.3-0.6-1.3-1.3v-8.4c0-0.7,0.6-1.3,1.3-1.3h11.2
					c0.7,0,1.3,0.6,1.3,1.3V502.1z"/>
				<path class="st0" d="M232.8,502.1c0,0.7-0.6,1.3-1.3,1.3h-11.2c-0.7,0-1.3-0.6-1.3-1.3v-8.4c0-0.7,0.6-1.3,1.3-1.3h11.2
					c0.7,0,1.3,0.6,1.3,1.3V502.1z"/>
				<path class="st0" d="M248.3,502.1c0,0.7-0.6,1.3-1.3,1.3h-11.2c-0.7,0-1.3-0.6-1.3-1.3v-8.4c0-0.7,0.6-1.3,1.3-1.3h11.2
					c0.7,0,1.3,0.6,1.3,1.3V502.1z"/>
				<path class="st0" d="M260.2,488.6c0,0.7-0.6,1.3-1.3,1.3h-11.2c-0.7,0-1.3-0.6-1.3-1.3v-8.4c0-0.7,0.6-1.3,1.3-1.3H259
					c0.7,0,1.3,0.6,1.3,1.3V488.6z"/>
				<path class="st0" d="M275.8,488.6c0,0.7-0.6,1.3-1.3,1.3h-11.2c-0.7,0-1.3-0.6-1.3-1.3v-8.4c0-0.7,0.6-1.3,1.3-1.3h11.2
					c0.7,0,1.3,0.6,1.3,1.3V488.6z"/>
				<path class="st0" d="M98,474.8c0,0.7-0.6,1.3-1.3,1.3H85.6c-0.7,0-1.3-0.6-1.3-1.3v-8.4c0-0.7,0.6-1.3,1.3-1.3h11.2
					c0.7,0,1.3,0.6,1.3,1.3V474.8z"/>
				<path class="st0" d="M113.5,474.8c0,0.7-0.6,1.3-1.3,1.3H101c-0.7,0-1.3-0.6-1.3-1.3v-8.4c0-0.7,0.6-1.3,1.3-1.3h11.2
					c0.7,0,1.3,0.6,1.3,1.3V474.8z"/>
				<path class="st0" d="M128.9,474.8c0,0.7-0.6,1.3-1.3,1.3h-11.2c-0.7,0-1.3-0.6-1.3-1.3v-8.4c0-0.7,0.6-1.3,1.3-1.3h11.2
					c0.7,0,1.3,0.6,1.3,1.3V474.8z"/>
				<path class="st0" d="M144.4,474.8c0,0.7-0.6,1.3-1.3,1.3h-11.2c-0.7,0-1.3-0.6-1.3-1.3v-8.4c0-0.7,0.6-1.3,1.3-1.3h11.2
					c0.7,0,1.3,0.6,1.3,1.3V474.8z"/>
				<path class="st0" d="M159.8,474.8c0,0.7-0.6,1.3-1.3,1.3h-11.2c-0.7,0-1.3-0.6-1.3-1.3v-8.4c0-0.7,0.6-1.3,1.3-1.3h11.2
					c0.7,0,1.3,0.6,1.3,1.3V474.8z"/>
				<path class="st0" d="M175.3,474.8c0,0.7-0.6,1.3-1.3,1.3h-11.2c-0.7,0-1.3-0.6-1.3-1.3v-8.4c0-0.7,0.6-1.3,1.3-1.3H174
					c0.7,0,1.3,0.6,1.3,1.3V474.8z"/>
				<path class="st0" d="M190.8,474.8c0,0.7-0.6,1.3-1.3,1.3h-11.2c-0.7,0-1.3-0.6-1.3-1.3v-8.4c0-0.7,0.6-1.3,1.3-1.3h11.2
					c0.7,0,1.3,0.6,1.3,1.3V474.8z"/>
				<path class="st0" d="M206.2,474.8c0,0.7-0.6,1.3-1.3,1.3h-11.2c-0.7,0-1.3-0.6-1.3-1.3v-8.4c0-0.7,0.6-1.3,1.3-1.3H205
					c0.7,0,1.3,0.6,1.3,1.3V474.8z"/>
				<path class="st0" d="M221.7,474.8c0,0.7-0.6,1.3-1.3,1.3h-11.2c-0.7,0-1.3-0.6-1.3-1.3v-8.4c0-0.7,0.6-1.3,1.3-1.3h11.2
					c0.7,0,1.3,0.6,1.3,1.3V474.8z"/>
				<path class="st0" d="M237.1,474.8c0,0.7-0.6,1.3-1.3,1.3h-11.2c-0.7,0-1.3-0.6-1.3-1.3v-8.4c0-0.7,0.6-1.3,1.3-1.3h11.2
					c0.7,0,1.3,0.6,1.3,1.3V474.8z"/>
				<path class="st0" d="M252.6,474.8c0,0.7-0.6,1.3-1.3,1.3h-11.2c-0.7,0-1.3-0.6-1.3-1.3v-8.4c0-0.7,0.6-1.3,1.3-1.3h11.2
					c0.7,0,1.3,0.6,1.3,1.3V474.8z"/>
				<path class="st0" d="M275.8,474.8c0,0.7-0.6,1.3-1.3,1.3h-17.9c-0.7,0-1.3-0.6-1.3-1.3v-8.4c0-0.7,0.6-1.3,1.3-1.3h17.9
					c0.7,0,1.3,0.6,1.3,1.3V474.8z"/>
				<path class="st0" d="M275.8,502.1c0,0.7-0.6,1.3-1.3,1.3h-22.5c-0.7,0-1.3-0.6-1.3-1.3v-8.4c0-0.7,0.6-1.3,1.3-1.3h22.5
					c0.7,0,1.3,0.6,1.3,1.3V502.1z"/>
				<path class="st0" d="M275.8,515.4c0,0.7-0.6,1.3-1.3,1.3h-29.2c-0.7,0-1.3-0.6-1.3-1.3V507c0-0.7,0.6-1.3,1.3-1.3h29.2
					c0.7,0,1.3,0.6,1.3,1.3V515.4z"/>
				<path class="st0" d="M73.6,488.6c0,0.7-0.6,1.3-1.3,1.3H55.1c-0.7,0-1.3-0.6-1.3-1.3v-8.4c0-0.7,0.6-1.3,1.3-1.3h17.2
					c0.7,0,1.3,0.6,1.3,1.3V488.6z"/>
				<path class="st0" d="M77,502.1c0,0.7-0.6,1.3-1.3,1.3H55.1c-0.7,0-1.3-0.6-1.3-1.3v-8.4c0-0.7,0.6-1.3,1.3-1.3h20.6
					c0.7,0,1.3,0.6,1.3,1.3V502.1z"/>
				<path class="st0" d="M99.4,515.4c0,0.7-0.6,1.3-1.3,1.3H87c-0.7,0-1.3-0.6-1.3-1.3V507c0-0.7,0.6-1.3,1.3-1.3h11.2
					c0.7,0,1.3,0.6,1.3,1.3V515.4z"/>
				<path class="st0" d="M209.4,532.4c0,0.7-0.6,1.3-1.3,1.3h-11.2c-0.7,0-1.3-0.6-1.3-1.3v-11.3c0-0.7,0.6-1.3,1.3-1.3h11.2
					c0.7,0,1.3,0.6,1.3,1.3V532.4z"/>
				<path class="st0" d="M90.9,532.4c0,0.7-0.6,1.3-1.3,1.3h-15c-0.7,0-1.3-0.6-1.3-1.3v-11.3c0-0.7,0.6-1.3,1.3-1.3h15
					c0.7,0,1.3,0.6,1.3,1.3V532.4z"/>
				<path class="st0" d="M228.7,532.4c0,0.7-0.6,1.3-1.3,1.3h-15c-0.7,0-1.3-0.6-1.3-1.3v-11.3c0-0.7,0.6-1.3,1.3-1.3h15
					c0.7,0,1.3,0.6,1.3,1.3V532.4z"/>
				<path class="st0" d="M193.5,532.4c0,0.7-0.6,1.3-1.3,1.3H95.2c-0.7,0-1.3-0.6-1.3-1.3v-11.3c0-0.7,0.6-1.3,1.3-1.3h97.1
					c0.7,0,1.3,0.6,1.3,1.3V532.4z"/>
				<path class="st0" d="M71.1,532.4c0,0.7-0.6,1.3-1.3,1.3H55.1c-0.7,0-1.3-0.6-1.3-1.3v-11.3c0-0.7,0.6-1.3,1.3-1.3h14.7
					c0.7,0,1.3,0.6,1.3,1.3V532.4z"/>
				<path class="st0" d="M115,515.4c0,0.7-0.6,1.3-1.3,1.3h-11.2c-0.7,0-1.3-0.6-1.3-1.3V507c0-0.7,0.6-1.3,1.3-1.3h11.2
					c0.7,0,1.3,0.6,1.3,1.3V515.4z"/>
				<path class="st0" d="M130.6,515.4c0,0.7-0.6,1.3-1.3,1.3h-11.2c-0.7,0-1.3-0.6-1.3-1.3V507c0-0.7,0.6-1.3,1.3-1.3h11.2
					c0.7,0,1.3,0.6,1.3,1.3V515.4z"/>
				<path class="st0" d="M146.1,515.4c0,0.7-0.6,1.3-1.3,1.3h-11.2c-0.7,0-1.3-0.6-1.3-1.3V507c0-0.7,0.6-1.3,1.3-1.3h11.2
					c0.7,0,1.3,0.6,1.3,1.3V515.4z"/>
				<path class="st0" d="M161.7,515.4c0,0.7-0.6,1.3-1.3,1.3h-11.2c-0.7,0-1.3-0.6-1.3-1.3V507c0-0.7,0.6-1.3,1.3-1.3h11.2
					c0.7,0,1.3,0.6,1.3,1.3V515.4z"/>
				<path class="st0" d="M177.3,515.4c0,0.7-0.6,1.3-1.3,1.3h-11.2c-0.7,0-1.3-0.6-1.3-1.3V507c0-0.7,0.6-1.3,1.3-1.3H176
					c0.7,0,1.3,0.6,1.3,1.3V515.4z"/>
				<path class="st0" d="M192.8,515.4c0,0.7-0.6,1.3-1.3,1.3h-11.2c-0.7,0-1.3-0.6-1.3-1.3V507c0-0.7,0.6-1.3,1.3-1.3h11.2
					c0.7,0,1.3,0.6,1.3,1.3V515.4z"/>
				<path class="st0" d="M208.4,515.4c0,0.7-0.6,1.3-1.3,1.3H196c-0.7,0-1.3-0.6-1.3-1.3V507c0-0.7,0.6-1.3,1.3-1.3h11.2
					c0.7,0,1.3,0.6,1.3,1.3V515.4z"/>
				<path class="st0" d="M224,515.4c0,0.7-0.6,1.3-1.3,1.3h-11.2c-0.7,0-1.3-0.6-1.3-1.3V507c0-0.7,0.6-1.3,1.3-1.3h11.2
					c0.7,0,1.3,0.6,1.3,1.3V515.4z"/>
				<path class="st0" d="M239.5,515.4c0,0.7-0.6,1.3-1.3,1.3h-11.2c-0.7,0-1.3-0.6-1.3-1.3V507c0-0.7,0.6-1.3,1.3-1.3h11.2
					c0.7,0,1.3,0.6,1.3,1.3V515.4z"/>
				<g>
					<path class="st0" d="M245.1,532.4c0,0.7-0.6,1.3-1.3,1.3h-11.2c-0.7,0-1.3-0.6-1.3-1.3v-4.9c0-0.7,0.6-1.3,1.3-1.3h11.2
						c0.7,0,1.3,0.6,1.3,1.3V532.4z"/>
					<path class="st0" d="M260.8,525c0,0.7-0.6,1.3-1.3,1.3h-11.2c-0.7,0-1.3-0.6-1.3-1.3v-4.9c0-0.7,0.6-1.3,1.3-1.3h11.2
						c0.7,0,1.3,0.6,1.3,1.3V525z"/>
					<path class="st0" d="M260.8,532.4c0,0.7-0.6,1.3-1.3,1.3h-11.2c-0.7,0-1.3-0.6-1.3-1.3v-4.9c0-0.7,0.6-1.3,1.3-1.3h11.2
						c0.7,0,1.3,0.6,1.3,1.3V532.4z"/>
					<path class="st0" d="M275.8,532.4c0,0.7-0.6,1.3-1.3,1.3h-11.2c-0.7,0-1.3-0.6-1.3-1.3v-4.9c0-0.7,0.6-1.3,1.3-1.3h11.2
						c0.7,0,1.3,0.6,1.3,1.3V532.4z"/>
				</g>
				<path class="st0" d="M83.8,515.4c0,0.7-0.6,1.3-1.3,1.3H55.1c-0.7,0-1.3-0.6-1.3-1.3V507c0-0.7,0.6-1.3,1.3-1.3h27.5
					c0.7,0,1.3,0.6,1.3,1.3V515.4z"/>
				<path class="st0" d="M84.2,461.6c0,0.7-0.6,1.3-1.3,1.3H71.8c-0.7,0-1.3-0.6-1.3-1.3v-4.3c0-0.7,0.6-1.3,1.3-1.3H83
					c0.7,0,1.3,0.6,1.3,1.3V461.6z"/>
				<path class="st0" d="M100.1,461.6c0,0.7-0.6,1.3-1.3,1.3H87.7c-0.7,0-1.3-0.6-1.3-1.3v-4.3c0-0.7,0.6-1.3,1.3-1.3h11.2
					c0.7,0,1.3,0.6,1.3,1.3V461.6z"/>
				<path class="st0" d="M116,461.6c0,0.7-0.6,1.3-1.3,1.3h-11.2c-0.7,0-1.3-0.6-1.3-1.3v-4.3c0-0.7,0.6-1.3,1.3-1.3h11.2
					c0.7,0,1.3,0.6,1.3,1.3V461.6z"/>
				<path class="st0" d="M131.9,461.6c0,0.7-0.6,1.3-1.3,1.3h-11.2c-0.7,0-1.3-0.6-1.3-1.3v-4.3c0-0.7,0.6-1.3,1.3-1.3h11.2
					c0.7,0,1.3,0.6,1.3,1.3V461.6z"/>
				<path class="st0" d="M147.8,461.6c0,0.7-0.6,1.3-1.3,1.3h-11.2c-0.7,0-1.3-0.6-1.3-1.3v-4.3c0-0.7,0.6-1.3,1.3-1.3h11.2
					c0.7,0,1.3,0.6,1.3,1.3V461.6z"/>
				<path class="st0" d="M163.6,461.6c0,0.7-0.6,1.3-1.3,1.3h-11.2c-0.7,0-1.3-0.6-1.3-1.3v-4.3c0-0.7,0.6-1.3,1.3-1.3h11.2
					c0.7,0,1.3,0.6,1.3,1.3V461.6z"/>
				<path class="st0" d="M179.5,461.6c0,0.7-0.6,1.3-1.3,1.3h-11.2c-0.7,0-1.3-0.6-1.3-1.3v-4.3c0-0.7,0.6-1.3,1.3-1.3h11.2
					c0.7,0,1.3,0.6,1.3,1.3V461.6z"/>
				<path class="st0" d="M195.4,461.6c0,0.7-0.6,1.3-1.3,1.3H183c-0.7,0-1.3-0.6-1.3-1.3v-4.3c0-0.7,0.6-1.3,1.3-1.3h11.2
					c0.7,0,1.3,0.6,1.3,1.3V461.6z"/>
				<path class="st0" d="M211.3,461.6c0,0.7-0.6,1.3-1.3,1.3h-11.2c-0.7,0-1.3-0.6-1.3-1.3v-4.3c0-0.7,0.6-1.3,1.3-1.3H210
					c0.7,0,1.3,0.6,1.3,1.3V461.6z"/>
				<path class="st0" d="M227.2,461.6c0,0.7-0.6,1.3-1.3,1.3h-11.2c-0.7,0-1.3-0.6-1.3-1.3v-4.3c0-0.7,0.6-1.3,1.3-1.3h11.2
					c0.7,0,1.3,0.6,1.3,1.3V461.6z"/>
				<path class="st0" d="M243.1,461.6c0,0.7-0.6,1.3-1.3,1.3h-11.2c-0.7,0-1.3-0.6-1.3-1.3v-4.3c0-0.7,0.6-1.3,1.3-1.3h11.2
					c0.7,0,1.3,0.6,1.3,1.3V461.6z"/>
				<path class="st0" d="M258.9,461.6c0,0.7-0.6,1.3-1.3,1.3h-11.2c-0.7,0-1.3-0.6-1.3-1.3v-4.3c0-0.7,0.6-1.3,1.3-1.3h11.2
					c0.7,0,1.3,0.6,1.3,1.3V461.6z"/>
				<path class="st0" d="M275.8,461.6c0,0.7-0.6,1.3-1.3,1.3h-11.2c-0.7,0-1.3-0.6-1.3-1.3v-4.3c0-0.7,0.6-1.3,1.3-1.3h11.2
					c0.7,0,1.3,0.6,1.3,1.3V461.6z"/>
			</g>
			<g>
				<g>
					<g>
						<g>
							<path class="st13" d="M83.5,486.3c-0.4-0.1-0.7-0.2-1.1-0.4c-0.1,0-0.1,0-0.2,0c-0.6,0-1.2-0.5-1.2-1.4
								c0-0.8,0.5-1.5,1.4-1.5c0.9,0,1.3,0.7,1.3,1.4c0,0.6-0.3,1.1-0.7,1.3v0c0.2,0.1,0.5,0.1,0.7,0.2L83.5,486.3z M83,484.4
								c0-0.5-0.2-0.9-0.7-0.9c-0.4,0-0.7,0.4-0.7,1c0,0.5,0.3,0.9,0.7,0.9C82.8,485.4,83,485,83,484.4z"/>
						</g>
						<g>
							<path class="st13" d="M97.4,485.8l-0.7-2.8h0.7l0.2,1.2c0.1,0.3,0.1,0.7,0.2,1h0c0-0.3,0.1-0.6,0.2-1l0.2-1.1h0.7l0.2,1.2
								c0.1,0.3,0.1,0.6,0.1,0.9h0c0-0.3,0.1-0.6,0.2-1l0.2-1.1h0.6l-0.7,2.8h-0.7l-0.2-1.2c-0.1-0.3-0.1-0.5-0.1-0.9h0
								c0,0.3-0.1,0.6-0.2,0.9l-0.3,1.2H97.4z"/>
						</g>
						<g>
							<path class="st13" d="M113.7,484.7h-1v0.7h1.2v0.5H112V483h1.7v0.5h-1.1v0.6h1V484.7z"/>
						</g>
						<g>
							<path class="st13" d="M128.1,483.1c0.2,0,0.5-0.1,0.8-0.1c0.4,0,0.7,0.1,0.9,0.2c0.2,0.1,0.3,0.3,0.3,0.6
								c0,0.4-0.3,0.6-0.5,0.7v0c0.2,0.1,0.3,0.3,0.4,0.5c0.1,0.3,0.2,0.7,0.2,0.8h-0.7c0-0.1-0.1-0.3-0.2-0.7
								c-0.1-0.4-0.2-0.4-0.5-0.5h-0.2v1.1h-0.6V483.1z M128.7,484.3h0.3c0.3,0,0.5-0.2,0.5-0.4c0-0.3-0.2-0.4-0.5-0.4
								c-0.2,0-0.2,0-0.3,0V484.3z"/>
						</g>
						<g>
							<path class="st13" d="M143.7,483.6h-0.8V483h2.2v0.5h-0.8v2.3h-0.6V483.6z"/>
						</g>
						<g>
							<path class="st13" d="M159.4,485.8v-1.2l-0.9-1.7h0.7l0.3,0.7c0.1,0.2,0.2,0.4,0.2,0.5h0c0.1-0.2,0.1-0.3,0.2-0.5l0.3-0.7
								h0.7l-0.9,1.6v1.2H159.4z"/>
						</g>
						<g>
							<path class="st13" d="M175.5,483v1.6c0,0.5,0.2,0.7,0.5,0.7c0.3,0,0.5-0.2,0.5-0.7V483h0.6v1.6c0,0.9-0.4,1.3-1.2,1.3
								c-0.7,0-1.1-0.4-1.1-1.3V483H175.5z"/>
						</g>
						<g>
							<path class="st13" d="M190.6,483v2.8H190V483H190.6z"/>
						</g>
						<g>
							<path class="st13" d="M209.1,484.4c0,0.9-0.6,1.5-1.4,1.5c-0.8,0-1.3-0.6-1.3-1.4c0-0.8,0.5-1.5,1.4-1.5
								C208.6,483,209.1,483.6,209.1,484.4z M207,484.4c0,0.6,0.3,0.9,0.7,0.9c0.4,0,0.7-0.4,0.7-1c0-0.5-0.2-0.9-0.7-0.9
								C207.3,483.5,207,483.9,207,484.4z"/>
						</g>
						<g>
							<path class="st13" d="M221.2,483.1c0.2,0,0.5-0.1,0.9-0.1c0.4,0,0.7,0.1,0.9,0.2c0.2,0.1,0.3,0.4,0.3,0.7s-0.1,0.5-0.3,0.7
								c-0.2,0.2-0.5,0.3-0.9,0.3c-0.1,0-0.2,0-0.2,0v1h-0.6V483.1z M221.8,484.3c0.1,0,0.1,0,0.2,0c0.3,0,0.5-0.2,0.5-0.5
								c0-0.3-0.2-0.4-0.5-0.4c-0.1,0-0.2,0-0.3,0V484.3z"/>
						</g>
						<g>
							<path class="st13" d="M57,488.5c0,0-0.2,0.1-0.3,0.1c-0.4,0-0.6-0.3-0.6-0.6c0-0.4,0.3-0.7,0.7-0.7c0.1,0,0.3,0,0.3,0.1
								l-0.1,0.2c-0.1,0-0.1,0-0.2,0c-0.2,0-0.4,0.1-0.4,0.4c0,0.2,0.1,0.4,0.4,0.4c0.1,0,0.2,0,0.2,0L57,488.5z"/>
							<path class="st13" d="M57.4,488.2l-0.1,0.3h-0.3l0.4-1.2h0.4l0.4,1.2h-0.3l-0.1-0.3H57.4z M57.8,488l-0.1-0.3
								c0-0.1,0-0.2-0.1-0.2h0c0,0.1,0,0.2-0.1,0.2l-0.1,0.3H57.8z"/>
							<path class="st13" d="M58.3,487.3c0.1,0,0.2,0,0.4,0c0.2,0,0.3,0,0.4,0.1c0.1,0.1,0.1,0.2,0.1,0.3c0,0.1,0,0.2-0.1,0.3
								c-0.1,0.1-0.2,0.1-0.4,0.1c0,0-0.1,0-0.1,0v0.4h-0.3V487.3z M58.6,487.9C58.6,487.9,58.7,487.9,58.6,487.9
								c0.2,0,0.3-0.1,0.3-0.2c0-0.1-0.1-0.2-0.2-0.2c-0.1,0-0.1,0-0.1,0V487.9z"/>
							<path class="st13" d="M59.4,488.2c0.1,0,0.2,0.1,0.3,0.1c0.1,0,0.2-0.1,0.2-0.1c0-0.1-0.1-0.1-0.2-0.2
								c-0.2-0.1-0.3-0.2-0.3-0.4c0-0.2,0.2-0.4,0.5-0.4c0.1,0,0.2,0,0.3,0.1l-0.1,0.2c0,0-0.1-0.1-0.3-0.1c-0.1,0-0.2,0.1-0.2,0.1
								c0,0.1,0.1,0.1,0.2,0.2c0.2,0.1,0.3,0.2,0.3,0.4c0,0.2-0.2,0.4-0.5,0.4c-0.1,0-0.3,0-0.3-0.1L59.4,488.2z"/>
							<path class="st13" d="M60.8,487.3H61v1h0.5v0.2h-0.8V487.3z"/>
							<path class="st13" d="M62.7,487.9c0,0.4-0.2,0.6-0.6,0.6c-0.4,0-0.6-0.3-0.6-0.6c0-0.4,0.2-0.6,0.6-0.6
								C62.5,487.3,62.7,487.5,62.7,487.9z M61.8,487.9c0,0.2,0.1,0.4,0.3,0.4c0.2,0,0.3-0.2,0.3-0.4c0-0.2-0.1-0.4-0.3-0.4
								C62,487.5,61.8,487.7,61.8,487.9z"/>
							<path class="st13" d="M63.8,488.5c0,0-0.2,0.1-0.3,0.1c-0.4,0-0.6-0.3-0.6-0.6c0-0.4,0.3-0.7,0.7-0.7c0.1,0,0.3,0,0.3,0.1
								l-0.1,0.2c-0.1,0-0.1,0-0.2,0c-0.2,0-0.4,0.1-0.4,0.4c0,0.2,0.1,0.4,0.4,0.4c0.1,0,0.2,0,0.2,0L63.8,488.5z"/>
							<path class="st13" d="M64,487.3h0.3v0.5h0c0,0,0.1-0.1,0.1-0.1l0.3-0.4H65l-0.4,0.5l0.4,0.7h-0.3l-0.3-0.5l-0.1,0.1v0.4H64
								V487.3z"/>
						</g>
						<g>
							<g>
								<path class="st13" d="M237.3,488.1v-2.4h0.6v0.3h-0.3v1.9h0.3v0.3H237.3z"/>
							</g>
							<g>
								<path class="st13" d="M237.2,482.2c0.2,0,0.2-0.1,0.2-0.2c0-0.1,0-0.2,0-0.2c0-0.1,0-0.2,0-0.2c0-0.3,0.2-0.4,0.5-0.4h0.1
									v0.3h-0.1c-0.1,0-0.2,0.1-0.2,0.2c0,0.1,0,0.1,0,0.2c0,0.1,0,0.1,0,0.2c0,0.2-0.1,0.3-0.3,0.4v0c0.2,0,0.3,0.1,0.3,0.3
									c0,0.1,0,0.2,0,0.2c0,0.1,0,0.1,0,0.2c0,0.1,0,0.2,0.2,0.2h0.1v0.3h-0.1c-0.3,0-0.5-0.1-0.5-0.4c0-0.1,0-0.2,0-0.2
									c0-0.1,0-0.2,0-0.2c0-0.1,0-0.2-0.2-0.2V482.2z"/>
							</g>
						</g>
						<g>
							<g>
								<path class="st13" d="M253.7,485.7v2.4H253v-0.3h0.3V486H253v-0.3H253.7z"/>
							</g>
							<g>
								<path class="st13" d="M253.8,482.4c-0.2,0-0.2,0.1-0.2,0.2c0,0.1,0,0.2,0,0.2c0,0.1,0,0.2,0,0.2c0,0.3-0.2,0.4-0.5,0.4H253
									v-0.3h0.1c0.1,0,0.2-0.1,0.2-0.2c0-0.1,0-0.1,0-0.2c0-0.1,0-0.1,0-0.2c0-0.2,0.1-0.3,0.3-0.3v0c-0.2,0-0.3-0.1-0.3-0.4
									c0-0.1,0-0.1,0-0.2c0-0.1,0-0.1,0-0.2c0-0.1,0-0.2-0.2-0.2H253v-0.3h0.1c0.3,0,0.5,0.1,0.5,0.4c0,0.1,0,0.2,0,0.2
									c0,0.1,0,0.2,0,0.2c0,0.1,0,0.2,0.2,0.2V482.4z"/>
							</g>
						</g>
						<g>
							<g>
								<path class="st13" d="M269.6,488.3l-0.6-2.2h0.3l0.6,2.2H269.6z"/>
							</g>
							<g>
								<path class="st13" d="M269.5,481.2v3h-0.3v-3H269.5z"/>
							</g>
						</g>
					</g>
				</g>
				<g>
					<g>
						<path class="st13" d="M267.6,472.9c0.1,0,0.2,0,0.4,0c0.2,0,0.4,0,0.5,0.1c0.1,0.1,0.2,0.2,0.2,0.5c0,0.2-0.1,0.4-0.2,0.5
							c-0.1,0.1-0.3,0.2-0.6,0.2c-0.1,0-0.2,0-0.3,0V472.9z M267.9,473.9C267.9,473.9,268,473.9,267.9,473.9c0.3,0,0.5-0.1,0.5-0.4
							c0-0.3-0.1-0.4-0.4-0.4c-0.1,0-0.1,0-0.1,0V473.9z"/>
						<path class="st13" d="M269.6,473.6h-0.4v0.3h0.5v0.2h-0.8v-1.2h0.8v0.2h-0.5v0.3h0.4V473.6z"/>
						<path class="st13" d="M269.9,472.9h0.3v1h0.5v0.2h-0.8V472.9z"/>
						<path class="st13" d="M271.5,473.6h-0.4v0.3h0.5v0.2h-0.8v-1.2h0.8v0.2h-0.5v0.3h0.4V473.6z"/>
						<path class="st13" d="M272,473.1h-0.3v-0.2h0.9v0.2h-0.3v1H272V473.1z"/>
						<path class="st13" d="M273.5,473.6h-0.5v0.3h0.5v0.2h-0.8v-1.2h0.8v0.2h-0.5v0.3h0.5V473.6z"/>
					</g>
					<g>
						<g>
							<path class="st13" d="M75.3,469.7L75.3,469.7l-0.5,0.2l-0.1-0.5l0.7-0.3H76v2.7h-0.6V469.7z"/>
						</g>
						<g>
							<path class="st13" d="M90.4,471.8v-0.4l0.3-0.3c0.6-0.5,0.9-0.8,0.9-1.2c0-0.2-0.1-0.4-0.4-0.4c-0.2,0-0.4,0.1-0.6,0.2
								l-0.2-0.5c0.2-0.2,0.5-0.3,0.9-0.3c0.6,0,1,0.4,1,0.8c0,0.5-0.3,0.8-0.7,1.2l-0.3,0.2v0h1v0.5H90.4z"/>
						</g>
						<g>
							<path class="st13" d="M105.6,471.2c0.1,0.1,0.4,0.2,0.6,0.2c0.3,0,0.5-0.2,0.5-0.4c0-0.3-0.3-0.4-0.5-0.4h-0.3v-0.5h0.3
								c0.2,0,0.5-0.1,0.5-0.3c0-0.2-0.1-0.3-0.4-0.3c-0.2,0-0.5,0.1-0.6,0.2l-0.1-0.5c0.2-0.1,0.5-0.2,0.8-0.2
								c0.6,0,0.9,0.3,0.9,0.7c0,0.3-0.2,0.5-0.5,0.6v0c0.3,0.1,0.6,0.3,0.6,0.7c0,0.5-0.4,0.8-1.1,0.8c-0.4,0-0.6-0.1-0.8-0.2
								L105.6,471.2z"/>
						</g>
						<g>
							<path class="st13" d="M122.6,471.8v-0.6h-1.2v-0.4l1-1.7h0.8v1.6h0.3v0.5h-0.3v0.6H122.6z M122.6,470.7v-0.6
								c0-0.2,0-0.3,0-0.5h0c-0.1,0.2-0.2,0.3-0.3,0.5l-0.4,0.6l0,0H122.6z"/>
						</g>
						<g>
							<path class="st13" d="M138.4,469.6h-1.1l-0.1,0.4c0.1,0,0.1,0,0.2,0c0.3,0,0.5,0.1,0.7,0.2c0.2,0.1,0.3,0.4,0.3,0.7
								c0,0.5-0.4,1-1.2,1c-0.3,0-0.6-0.1-0.8-0.2l0.1-0.5c0.1,0.1,0.4,0.1,0.6,0.1c0.3,0,0.5-0.1,0.5-0.4c0-0.3-0.2-0.5-0.8-0.5
								c-0.2,0-0.3,0-0.4,0l0.2-1.4h1.5V469.6z"/>
						</g>
						<g>
							<path class="st13" d="M153.9,469.6c-0.1,0-0.1,0-0.2,0c-0.6,0-0.8,0.3-0.9,0.7h0c0.1-0.1,0.3-0.2,0.6-0.2
								c0.5,0,0.8,0.3,0.8,0.9c0,0.5-0.4,1-1,1c-0.7,0-1.1-0.5-1.1-1.2c0-0.5,0.2-0.9,0.5-1.2c0.3-0.2,0.6-0.4,1-0.4
								c0.1,0,0.2,0,0.3,0V469.6z M153.6,470.9c0-0.3-0.1-0.5-0.4-0.5c-0.2,0-0.3,0.1-0.4,0.2c0,0,0,0.1,0,0.2
								c0,0.3,0.2,0.5,0.4,0.5C153.5,471.4,153.6,471.2,153.6,470.9z"/>
						</g>
						<g>
							<path class="st13" d="M169.5,469.1v0.4l-1.1,2.3h-0.7l1.1-2.2v0h-1.2v-0.5H169.5z"/>
						</g>
						<g>
							<path class="st13" d="M183.4,470.4c-0.3-0.1-0.4-0.4-0.4-0.6c0-0.5,0.4-0.8,1-0.8c0.6,0,0.9,0.4,0.9,0.7
								c0,0.2-0.1,0.5-0.4,0.6v0c0.3,0.1,0.5,0.3,0.5,0.7c0,0.5-0.4,0.8-1,0.8c-0.7,0-1-0.4-1-0.8
								C183,470.8,183.1,470.6,183.4,470.4L183.4,470.4z M184.4,471.1c0-0.2-0.2-0.4-0.4-0.4c-0.2,0.1-0.3,0.2-0.3,0.4
								c0,0.2,0.1,0.4,0.4,0.4C184.2,471.4,184.4,471.3,184.4,471.1z M183.7,469.8c0,0.2,0.2,0.3,0.4,0.4c0.1,0,0.3-0.2,0.3-0.3
								c0-0.2-0.1-0.3-0.3-0.3C183.8,469.5,183.7,469.7,183.7,469.8z"/>
						</g>
						<g>
							<path class="st13" d="M198.7,471.4c0.1,0,0.1,0,0.3,0c0.2,0,0.4-0.1,0.5-0.2c0.2-0.1,0.3-0.3,0.3-0.5l0,0
								c-0.1,0.1-0.3,0.2-0.5,0.2c-0.5,0-0.8-0.3-0.8-0.8c0-0.5,0.4-1,1-1c0.7,0,1,0.5,1,1.2c0,0.6-0.2,1-0.5,1.3
								c-0.3,0.2-0.6,0.4-1,0.4c-0.1,0-0.2,0-0.3,0V471.4z M199.1,470c0,0.2,0.1,0.4,0.4,0.4c0.2,0,0.3-0.1,0.4-0.2c0,0,0-0.1,0-0.2
								c0-0.3-0.1-0.6-0.4-0.6C199.3,469.5,199.1,469.7,199.1,470z"/>
						</g>
						<g>
							<path class="st13" d="M215.7,470.5c0,0.8-0.3,1.4-1,1.4c-0.7,0-1-0.6-1-1.4c0-0.8,0.3-1.4,1-1.4
								C215.4,469.1,215.7,469.7,215.7,470.5z M214.3,470.5c0,0.6,0.1,0.9,0.4,0.9c0.2,0,0.4-0.3,0.4-0.9c0-0.6-0.1-0.9-0.4-0.9
								C214.5,469.6,214.3,469.8,214.3,470.5z"/>
						</g>
						<g>
							<path class="st13" d="M56.5,466.9l0.4,0.6h-0.4l-0.5-0.6H56.5z"/>
						</g>
						<g>
							<path class="st13" d="M59.6,471.5c0-0.6,0.2-0.8,0.6-0.8c0.2,0,0.3,0.1,0.6,0.2c0.2,0.1,0.3,0.2,0.4,0.2
								c0.1,0,0.2-0.1,0.2-0.3h0.4c0,0.6-0.2,0.8-0.6,0.8c-0.2,0-0.4-0.1-0.6-0.2c-0.2-0.1-0.3-0.2-0.4-0.2c-0.1,0-0.2,0.1-0.2,0.3
								H59.6z"/>
						</g>
						<g>
							<g>
								<path class="st13" d="M231.2,472.9v0.3h-0.8v-0.3H231.2z"/>
							</g>
							<g>
								<path class="st13" d="M231.3,468.4v0.2h-1.5v-0.2H231.3z"/>
							</g>
						</g>
						<g>
							<g>
								<path class="st13" d="M245,472.8v-0.3h1.6v0.3H245z M245,473.4v-0.3h1.6v0.3H245z"/>
							</g>
							<g>
								<path class="st13" d="M245.9,466.9v0.7h0.6v0.3h-0.6v0.7h-0.3v-0.7H245v-0.3h0.6v-0.7H245.9z"/>
							</g>
						</g>
						<g>
							<g>
								<path class="st13" d="M188,466.6l-0.3,0.4v0l0.5-0.1v0.3l-0.5-0.1v0l0.3,0.4l-0.3,0.2l-0.2-0.5h0l-0.2,0.5l-0.3-0.2l0.3-0.4
									l0,0l-0.5,0.1v-0.3l0.5,0.1v0l-0.3-0.4l0.3-0.2l0.2,0.5h0l0.2-0.5L188,466.6z"/>
							</g>
							<g>
								<path class="st13" d="M172.8,468.5c0,0-0.1-0.1-0.1-0.1c-0.1,0.1-0.3,0.2-0.6,0.2c-0.5,0-0.7-0.3-0.7-0.6
									c0-0.3,0.2-0.5,0.4-0.6v0c-0.1-0.1-0.2-0.2-0.2-0.4c0-0.3,0.2-0.5,0.6-0.5c0.3,0,0.6,0.2,0.6,0.5c0,0.2-0.1,0.4-0.4,0.5l0,0
									c0.1,0.1,0.2,0.3,0.3,0.4c0.1-0.1,0.1-0.3,0.2-0.5h0.4c-0.1,0.3-0.2,0.6-0.3,0.8c0.1,0.1,0.2,0.3,0.4,0.4H172.8z
									 M172.5,468.1c-0.1-0.1-0.3-0.3-0.5-0.5c-0.1,0.1-0.2,0.2-0.2,0.3c0,0.2,0.1,0.3,0.3,0.3
									C172.3,468.2,172.4,468.2,172.5,468.1z M172.3,466.7c-0.1,0-0.2,0.1-0.2,0.2c0,0.1,0,0.2,0.1,0.3c0.1-0.1,0.2-0.2,0.2-0.3
									C172.4,466.8,172.4,466.7,172.3,466.7L172.3,466.7z"/>
							</g>
							<g>
								<path class="st13" d="M157.2,468l-0.4-1.1h0l-0.4,1.1h-0.3l0.6-1.4h0.3l0.6,1.4H157.2z"/>
							</g>
							<g>
								<path class="st13" d="M141.3,467.1c0,0.4-0.3,0.6-0.5,0.6c-0.3,0-0.5-0.2-0.5-0.6c0-0.4,0.2-0.6,0.6-0.6
									C141.2,466.5,141.3,466.8,141.3,467.1z M140.6,467.1c0,0.2,0.1,0.4,0.2,0.4c0.1,0,0.2-0.1,0.2-0.4c0-0.2-0.1-0.4-0.2-0.4
									C140.7,466.8,140.6,466.9,140.6,467.1z M140.8,468.6l1.1-2h0.2l-1.1,2H140.8z M142.8,467.9c0,0.4-0.3,0.6-0.5,0.6
									c-0.3,0-0.5-0.2-0.5-0.6c0-0.3,0.2-0.6,0.6-0.6C142.6,467.3,142.8,467.6,142.8,467.9z M142,468c0,0.2,0.1,0.4,0.2,0.4
									c0.1,0,0.2-0.1,0.2-0.4c0-0.2-0.1-0.4-0.2-0.4C142.1,467.6,142,467.8,142,468z"/>
							</g>
							<g>
								<path class="st13" d="M126.3,468.8v-0.3c-0.2,0-0.4-0.1-0.5-0.1l0.1-0.4c0.1,0.1,0.3,0.1,0.5,0.1c0.2,0,0.3-0.1,0.3-0.2
									c0-0.1-0.1-0.2-0.3-0.3c-0.3-0.1-0.5-0.3-0.5-0.6c0-0.3,0.2-0.5,0.5-0.5v-0.3h0.3v0.3c0.2,0,0.3,0.1,0.4,0.1L127,467
									c-0.1,0-0.2-0.1-0.4-0.1c-0.2,0-0.3,0.1-0.3,0.2c0,0.1,0.1,0.2,0.4,0.3c0.4,0.1,0.5,0.3,0.5,0.6c0,0.3-0.2,0.5-0.5,0.6v0.3
									H126.3z"/>
							</g>
							<g>
								<path class="st13" d="M110.4,468.5l0.1-0.5h-0.3v-0.3h0.3l0-0.3h-0.3v-0.3h0.3l0.1-0.5h0.3l-0.1,0.5h0.3l0.1-0.5h0.3
									l-0.1,0.5h0.2v0.3h-0.3l0,0.3h0.2v0.3h-0.3l-0.1,0.5h-0.3l0.1-0.5h-0.3l-0.1,0.5H110.4z M111,467.7l0-0.3h-0.3l0,0.3H111z"
									/>
							</g>
							<g>
								<path class="st13" d="M95.8,468.7c-0.2,0.1-0.3,0.1-0.6,0.1c-0.5,0-0.9-0.4-0.9-1c0-0.6,0.5-1.2,1.1-1.2
									c0.5,0,0.9,0.4,0.9,0.9c0,0.4-0.2,0.7-0.6,0.7c-0.1,0-0.2-0.1-0.3-0.2h0c-0.1,0.2-0.2,0.2-0.4,0.2c-0.2,0-0.3-0.1-0.3-0.4
									c0-0.4,0.3-0.7,0.7-0.7c0.1,0,0.3,0,0.4,0.1l-0.1,0.6c0,0.2,0,0.3,0.1,0.3c0.1,0,0.3-0.2,0.3-0.5c0-0.4-0.3-0.7-0.7-0.7
									c-0.5,0-0.9,0.4-0.9,0.9c0,0.5,0.3,0.8,0.8,0.8c0.2,0,0.3,0,0.4-0.1L95.8,468.7z M95.5,467.5
									C95.5,467.5,95.5,467.5,95.5,467.5c-0.3,0-0.5,0.2-0.5,0.4c0,0.1,0.1,0.2,0.2,0.2c0.1,0,0.2-0.1,0.3-0.3L95.5,467.5z"/>
							</g>
							<g>
								<path class="st13" d="M79.8,468.6c-0.2,0-0.3-0.1-0.3-0.3c0-0.2,0.1-0.3,0.3-0.3c0.2,0,0.3,0.1,0.3,0.3
									C80.1,468.4,80,468.6,79.8,468.6L79.8,468.6z M79.7,467.9l-0.1-1.4h0.5l-0.1,1.4H79.7z"/>
							</g>
							<g>
								<path class="st13" d="M203.7,466.4c-0.2,0.3-0.3,0.7-0.3,1.2c0,0.5,0.1,0.9,0.3,1.2h-0.3c-0.2-0.2-0.3-0.6-0.3-1.2
									c0-0.6,0.2-1,0.3-1.2H203.7z"/>
							</g>
							<g>
								<path class="st13" d="M218.8,468.6c0.2-0.3,0.3-0.7,0.3-1.2c0-0.5-0.1-0.9-0.3-1.2h0.3c0.2,0.2,0.3,0.6,0.3,1.2
									c0,0.6-0.2,1-0.3,1.2H218.8z"/>
							</g>
						</g>
					</g>
				</g>
				<g>
					<g>
						<path class="st13" d="M266.4,458.6c0.1,0,0.2,0,0.4,0c0.2,0,0.3,0,0.4,0.1c0.1,0.1,0.1,0.2,0.1,0.3c0,0.1,0,0.2-0.1,0.3
							c-0.1,0.1-0.2,0.1-0.4,0.1c0,0-0.1,0-0.1,0v0.4h-0.3V458.6z M266.7,459.2C266.7,459.2,266.7,459.2,266.7,459.2
							c0.2,0,0.3-0.1,0.3-0.2c0-0.1-0.1-0.2-0.2-0.2c-0.1,0-0.1,0-0.1,0V459.2z"/>
						<path class="st13" d="M268.6,459.2c0,0.4-0.2,0.6-0.6,0.6c-0.4,0-0.6-0.3-0.6-0.6c0-0.4,0.2-0.6,0.6-0.6
							C268.4,458.6,268.6,458.9,268.6,459.2z M267.7,459.2c0,0.2,0.1,0.4,0.3,0.4c0.2,0,0.3-0.2,0.3-0.4c0-0.2-0.1-0.4-0.3-0.4
							C267.8,458.8,267.7,459,267.7,459.2z"/>
						<path class="st13" d="M268.9,459.8l-0.3-1.2h0.3l0.1,0.5c0,0.1,0.1,0.3,0.1,0.4h0c0-0.1,0-0.3,0.1-0.4l0.1-0.5h0.3l0.1,0.5
							c0,0.1,0,0.3,0.1,0.4h0c0-0.1,0-0.3,0.1-0.4l0.1-0.5h0.3l-0.3,1.2h-0.3l-0.1-0.5c0-0.1,0-0.2-0.1-0.4h0c0,0.1,0,0.3-0.1,0.4
							l-0.1,0.5H268.9z"/>
						<path class="st13" d="M271.1,459.3h-0.5v0.3h0.5v0.2h-0.8v-1.2h0.8v0.2h-0.5v0.3h0.5V459.3z"/>
						<path class="st13" d="M271.3,458.6c0.1,0,0.2,0,0.4,0c0.2,0,0.3,0,0.4,0.1c0.1,0.1,0.1,0.1,0.1,0.3c0,0.2-0.1,0.3-0.2,0.3v0
							c0.1,0,0.1,0.1,0.2,0.2c0,0.1,0.1,0.3,0.1,0.3H272c0,0-0.1-0.1-0.1-0.3c0-0.2-0.1-0.2-0.2-0.2h-0.1v0.5h-0.3V458.6z
							 M271.6,459.2h0.1c0.1,0,0.2-0.1,0.2-0.2c0-0.1-0.1-0.2-0.2-0.2c-0.1,0-0.1,0-0.1,0V459.2z"/>
					</g>
					<g>
						<g>
							<path class="st13" d="M76,458.3h1.4v0.4h-0.9v0.5h0.8v0.4h-0.8v0.9H76V458.3z"/>
							<path class="st13" d="M78.4,458.8L78.4,458.8l-0.4,0.2l-0.1-0.4l0.6-0.3h0.4v2.2h-0.5V458.8z"/>
						</g>
						<g>
							<path class="st13" d="M91.9,458.3h1.4v0.4h-0.9v0.5h0.8v0.4h-0.8v0.9h-0.5V458.3z"/>
							<path class="st13" d="M93.5,460.5v-0.3l0.3-0.3c0.5-0.4,0.7-0.7,0.7-0.9c0-0.2-0.1-0.3-0.4-0.3c-0.2,0-0.3,0.1-0.5,0.2
								l-0.1-0.4c0.2-0.1,0.4-0.2,0.7-0.2c0.5,0,0.8,0.3,0.8,0.7c0,0.4-0.3,0.7-0.6,0.9l-0.2,0.2v0h0.8v0.4H93.5z"/>
						</g>
						<g>
							<path class="st13" d="M107.4,458.3h1.4v0.4h-0.9v0.5h0.8v0.4h-0.8v0.9h-0.5V458.3z"/>
							<path class="st13" d="M109.2,460c0.1,0.1,0.3,0.1,0.5,0.1c0.3,0,0.4-0.1,0.4-0.3c0-0.2-0.2-0.3-0.4-0.3h-0.2v-0.4h0.2
								c0.2,0,0.4-0.1,0.4-0.3c0-0.1-0.1-0.2-0.3-0.2c-0.2,0-0.4,0.1-0.4,0.1l-0.1-0.4c0.1-0.1,0.4-0.2,0.7-0.2
								c0.5,0,0.7,0.2,0.7,0.5c0,0.2-0.1,0.4-0.4,0.5v0c0.3,0,0.5,0.2,0.5,0.5c0,0.4-0.3,0.7-0.9,0.7c-0.3,0-0.5-0.1-0.6-0.2
								L109.2,460z"/>
						</g>
						<g>
							<path class="st13" d="M123.4,458.3h1.4v0.4h-0.9v0.5h0.8v0.4h-0.8v0.9h-0.5V458.3z"/>
							<path class="st13" d="M126,460.5V460h-1v-0.3l0.8-1.3h0.6v1.3h0.3v0.4h-0.3v0.5H126z M126,459.6v-0.5c0-0.1,0-0.3,0-0.4h0
								c-0.1,0.1-0.1,0.3-0.2,0.4l-0.3,0.5l0,0H126z"/>
						</g>
						<g>
							<path class="st13" d="M139.4,458.3h1.4v0.4h-0.9v0.5h0.8v0.4h-0.8v0.9h-0.5V458.3z"/>
							<path class="st13" d="M142.5,458.8h-0.8l0,0.3c0,0,0.1,0,0.1,0c0.2,0,0.4,0,0.6,0.2c0.2,0.1,0.3,0.3,0.3,0.5
								c0,0.4-0.3,0.8-0.9,0.8c-0.3,0-0.5-0.1-0.6-0.1l0.1-0.4c0.1,0,0.3,0.1,0.5,0.1c0.2,0,0.4-0.1,0.4-0.3c0-0.2-0.2-0.4-0.6-0.4
								c-0.1,0-0.2,0-0.3,0l0.1-1.1h1.2V458.8z"/>
						</g>
						<g>
							<path class="st13" d="M155.5,458.3h1.4v0.4H156v0.5h0.8v0.4H156v0.9h-0.5V458.3z"/>
							<path class="st13" d="M158.5,458.7c-0.1,0-0.1,0-0.2,0c-0.4,0-0.6,0.3-0.7,0.5h0c0.1-0.1,0.3-0.2,0.5-0.2
								c0.4,0,0.7,0.3,0.7,0.7c0,0.4-0.3,0.8-0.8,0.8c-0.6,0-0.9-0.4-0.9-0.9c0-0.4,0.1-0.7,0.4-1c0.2-0.2,0.5-0.3,0.8-0.3
								c0.1,0,0.2,0,0.2,0V458.7z M158.2,459.8c0-0.2-0.1-0.4-0.3-0.4c-0.1,0-0.2,0.1-0.3,0.2c0,0,0,0.1,0,0.1
								c0,0.2,0.1,0.4,0.4,0.4C158.1,460.2,158.2,460,158.2,459.8z"/>
						</g>
						<g>
							<path class="st13" d="M171.2,458.3h1.4v0.4h-0.9v0.5h0.8v0.4h-0.8v0.9h-0.5V458.3z"/>
							<path class="st13" d="M174.4,458.4v0.3l-0.9,1.8H173l0.9-1.7v0h-1v-0.4H174.4z"/>
						</g>
						<g>
							<path class="st13" d="M187.1,458.3h1.4v0.4h-0.9v0.5h0.8v0.4h-0.8v0.9h-0.5V458.3z"/>
							<path class="st13" d="M189.1,459.4c-0.2-0.1-0.3-0.3-0.3-0.5c0-0.4,0.3-0.6,0.8-0.6c0.5,0,0.7,0.3,0.7,0.6
								c0,0.2-0.1,0.4-0.3,0.5v0c0.2,0.1,0.4,0.3,0.4,0.5c0,0.4-0.3,0.7-0.8,0.7c-0.5,0-0.8-0.3-0.8-0.6
								C188.8,459.7,188.9,459.5,189.1,459.4L189.1,459.4z M189.9,460c0-0.2-0.1-0.3-0.3-0.4c-0.2,0-0.3,0.2-0.3,0.3
								c0,0.2,0.1,0.3,0.3,0.3C189.8,460.2,189.9,460.1,189.9,460z M189.3,458.9c0,0.1,0.1,0.2,0.3,0.3c0.1,0,0.2-0.1,0.2-0.3
								c0-0.1-0.1-0.3-0.3-0.3C189.4,458.7,189.3,458.8,189.3,458.9z"/>
						</g>
						<g>
							<path class="st13" d="M203.1,458.3h1.4v0.4h-0.9v0.5h0.8v0.4h-0.8v0.9h-0.5V458.3z"/>
							<path class="st13" d="M204.9,460.2c0.1,0,0.1,0,0.2,0c0.2,0,0.3-0.1,0.4-0.1c0.1-0.1,0.2-0.2,0.3-0.4l0,0
								c-0.1,0.1-0.2,0.2-0.4,0.2c-0.4,0-0.7-0.3-0.7-0.7c0-0.4,0.3-0.8,0.8-0.8c0.6,0,0.8,0.4,0.8,0.9c0,0.5-0.1,0.8-0.4,1
								c-0.2,0.2-0.5,0.3-0.8,0.3c-0.1,0-0.2,0-0.2,0V460.2z M205.2,459.1c0,0.2,0.1,0.3,0.3,0.3c0.1,0,0.2-0.1,0.3-0.1
								c0,0,0-0.1,0-0.1c0-0.2-0.1-0.5-0.3-0.5C205.3,458.7,205.2,458.9,205.2,459.1z"/>
						</g>
						<g>
							<path class="st13" d="M218.9,458.3h1.4v0.4h-0.9v0.5h0.8v0.4h-0.8v0.9h-0.5V458.3z"/>
							<path class="st13" d="M221.2,458.8L221.2,458.8l-0.4,0.2l-0.1-0.4l0.6-0.3h0.4v2.2h-0.5V458.8z"/>
							<path class="st13" d="M224,459.4c0,0.7-0.3,1.1-0.8,1.1c-0.6,0-0.8-0.5-0.8-1.1c0-0.6,0.3-1.1,0.8-1.1
								C223.8,458.3,224,458.9,224,459.4z M222.9,459.5c0,0.5,0.1,0.7,0.3,0.7c0.2,0,0.3-0.2,0.3-0.7c0-0.5-0.1-0.7-0.3-0.7
								C223,458.7,222.9,459,222.9,459.5z"/>
						</g>
						<g>
							<path class="st13" d="M234.4,458.3h1.4v0.4h-0.9v0.5h0.8v0.4h-0.8v0.9h-0.5V458.3z"/>
							<path class="st13" d="M236.7,458.8L236.7,458.8l-0.4,0.2l-0.1-0.4l0.6-0.3h0.4v2.2h-0.5V458.8z"/>
							<path class="st13" d="M238.5,458.8L238.5,458.8l-0.4,0.2l-0.1-0.4l0.6-0.3h0.4v2.2h-0.5V458.8z"/>
						</g>
						<g>
							<path class="st13" d="M249.8,458.3h1.4v0.4h-0.9v0.5h0.8v0.4h-0.8v0.9h-0.5V458.3z"/>
							<path class="st13" d="M252.1,458.8L252.1,458.8l-0.4,0.2l-0.1-0.4l0.6-0.3h0.4v2.2h-0.5V458.8z"/>
							<path class="st13" d="M253.3,460.5v-0.3l0.3-0.3c0.5-0.4,0.7-0.7,0.7-0.9c0-0.2-0.1-0.3-0.4-0.3c-0.2,0-0.3,0.1-0.5,0.2
								l-0.1-0.4c0.2-0.1,0.4-0.2,0.7-0.2c0.5,0,0.8,0.3,0.8,0.7c0,0.4-0.3,0.7-0.6,0.9l-0.2,0.2v0h0.8v0.4H253.3z"/>
						</g>
						<g>
							<path class="st13" d="M59.7,459.3h-0.5v0.3h0.5v0.2h-0.8v-1.2h0.8v0.2h-0.5v0.3h0.5V459.3z"/>
							<path class="st13" d="M59.9,459.5c0.1,0,0.2,0.1,0.3,0.1c0.1,0,0.2-0.1,0.2-0.1c0-0.1-0.1-0.1-0.2-0.2
								c-0.2-0.1-0.3-0.2-0.3-0.4c0-0.2,0.2-0.4,0.5-0.4c0.1,0,0.2,0,0.3,0.1l-0.1,0.2c0,0-0.1-0.1-0.3-0.1c-0.1,0-0.2,0.1-0.2,0.1
								c0,0.1,0.1,0.1,0.2,0.2c0.2,0.1,0.3,0.2,0.3,0.4c0,0.2-0.2,0.4-0.5,0.4c-0.1,0-0.3,0-0.3-0.1L59.9,459.5z"/>
							<path class="st13" d="M61.8,459.8c0,0-0.2,0.1-0.3,0.1c-0.4,0-0.6-0.3-0.6-0.6c0-0.4,0.3-0.7,0.7-0.7c0.1,0,0.3,0,0.3,0.1
								l-0.1,0.2c-0.1,0-0.1,0-0.2,0c-0.2,0-0.4,0.1-0.4,0.4c0,0.2,0.1,0.4,0.4,0.4c0.1,0,0.2,0,0.2,0L61.8,459.8z"/>
						</g>
					</g>
				</g>
				<g>
					<g>
						<path class="st13" d="M269.2,501.6h-0.5v0.3h0.5v0.2h-0.8v-1.2h0.8v0.2h-0.5v0.3h0.5V501.6z"/>
						<path class="st13" d="M269.4,502.1v-1.2h0.3l0.3,0.4c0.1,0.1,0.1,0.3,0.2,0.4h0c0-0.2,0-0.3,0-0.5v-0.4h0.3v1.2h-0.3l-0.3-0.5
							c-0.1-0.1-0.2-0.3-0.2-0.4h0c0,0.2,0,0.3,0,0.5v0.4H269.4z"/>
						<path class="st13" d="M270.9,501.1h-0.3v-0.2h0.9v0.2h-0.3v1h-0.3V501.1z"/>
						<path class="st13" d="M272.4,501.6h-0.5v0.3h0.5v0.2h-0.8v-1.2h0.8v0.2h-0.5v0.3h0.5V501.6z"/>
						<path class="st13" d="M272.6,500.9c0.1,0,0.2,0,0.4,0c0.2,0,0.3,0,0.4,0.1c0.1,0.1,0.1,0.1,0.1,0.3c0,0.2-0.1,0.3-0.2,0.3v0
							c0.1,0,0.1,0.1,0.2,0.2c0,0.1,0.1,0.3,0.1,0.3h-0.3c0,0-0.1-0.1-0.1-0.3c0-0.2-0.1-0.2-0.2-0.2h-0.1v0.5h-0.3V500.9z
							 M272.9,501.4h0.1c0.1,0,0.2-0.1,0.2-0.2c0-0.1-0.1-0.2-0.2-0.2c-0.1,0-0.1,0-0.1,0V501.4z"/>
					</g>
					<g>
						<g>
							<path class="st13" d="M85.5,498.3l-0.2,0.7h-0.7l0.9-2.8h0.8l0.9,2.8h-0.7l-0.2-0.7H85.5z M86.2,497.8l-0.2-0.6
								c-0.1-0.2-0.1-0.4-0.1-0.5h0c0,0.2-0.1,0.4-0.1,0.5l-0.2,0.6H86.2z"/>
						</g>
						<g>
							<path class="st13" d="M100.6,498.4c0.2,0.1,0.4,0.2,0.7,0.2c0.3,0,0.4-0.1,0.4-0.3c0-0.2-0.1-0.3-0.5-0.4
								c-0.5-0.2-0.8-0.4-0.8-0.8c0-0.5,0.4-0.8,1.1-0.8c0.3,0,0.6,0.1,0.7,0.1l-0.1,0.5c-0.1-0.1-0.3-0.1-0.6-0.1
								c-0.3,0-0.4,0.1-0.4,0.3c0,0.2,0.2,0.3,0.5,0.4c0.5,0.2,0.7,0.4,0.7,0.8c0,0.5-0.4,0.9-1.1,0.9c-0.3,0-0.6-0.1-0.8-0.2
								L100.6,498.4z"/>
						</g>
						<g>
							<path class="st13" d="M115.7,496.2c0.2,0,0.5-0.1,0.9-0.1c0.5,0,0.9,0.1,1.2,0.3c0.3,0.2,0.5,0.6,0.5,1.1
								c0,0.5-0.2,0.9-0.5,1.1c-0.3,0.2-0.8,0.4-1.3,0.4c-0.3,0-0.6,0-0.7,0V496.2z M116.4,498.5c0.1,0,0.1,0,0.2,0c0.6,0,1-0.3,1-1
								c0-0.6-0.3-0.9-0.9-0.9c-0.1,0-0.2,0-0.3,0V498.5z"/>
						</g>
						<g>
							<path class="st13" d="M131.8,496.2h1.7v0.5h-1.1v0.6h1v0.5h-1v1.1h-0.6V496.2z"/>
						</g>
						<g>
							<path class="st13" d="M149.2,498.9c-0.2,0.1-0.6,0.2-0.9,0.2c-0.5,0-0.9-0.1-1.1-0.4c-0.3-0.2-0.4-0.6-0.4-1
								c0-0.9,0.7-1.5,1.6-1.5c0.4,0,0.6,0.1,0.8,0.1l-0.1,0.5c-0.2-0.1-0.3-0.1-0.7-0.1c-0.5,0-0.9,0.3-0.9,0.9
								c0,0.6,0.4,0.9,0.9,0.9c0.1,0,0.3,0,0.3,0v-0.6h-0.4v-0.5h1V498.9z"/>
						</g>
						<g>
							<path class="st13" d="M163.1,496.2v1.1h1v-1.1h0.6v2.8h-0.6v-1.2h-1v1.2h-0.6v-2.8H163.1z"/>
						</g>
						<g>
							<path class="st13" d="M179.1,496.2h0.6v1.8c0,0.8-0.4,1.1-1,1.1c-0.1,0-0.3,0-0.5-0.1l0.1-0.5c0.1,0,0.2,0.1,0.3,0.1
								c0.3,0,0.4-0.1,0.4-0.6V496.2z"/>
						</g>
						<g>
							<path class="st13" d="M193.7,496.2h0.6v1.2h0c0.1-0.1,0.1-0.2,0.2-0.3l0.6-0.9h0.8l-0.9,1.2l1,1.6h-0.7l-0.7-1.2l-0.2,0.3
								v0.9h-0.6V496.2z"/>
						</g>
						<g>
							<path class="st13" d="M210.2,496.2h0.6v2.3h1.1v0.5h-1.8V496.2z"/>
						</g>
						<g>
							<path class="st13" d="M57,501.6c0,0-0.2,0.1-0.3,0.1c-0.4,0-0.6-0.3-0.6-0.6c0-0.4,0.3-0.7,0.7-0.7c0.1,0,0.3,0,0.3,0.1
								l-0.1,0.2c-0.1,0-0.1,0-0.2,0c-0.2,0-0.4,0.1-0.4,0.4c0,0.2,0.1,0.4,0.4,0.4c0.1,0,0.2,0,0.2,0L57,501.6z"/>
							<path class="st13" d="M57.4,501.4l-0.1,0.3h-0.3l0.4-1.2h0.4l0.4,1.2h-0.3l-0.1-0.3H57.4z M57.8,501.2l-0.1-0.3
								c0-0.1,0-0.2-0.1-0.2h0c0,0.1,0,0.2-0.1,0.2l-0.1,0.3H57.8z"/>
							<path class="st13" d="M58.3,500.5c0.1,0,0.2,0,0.4,0c0.2,0,0.3,0,0.4,0.1c0.1,0.1,0.1,0.2,0.1,0.3c0,0.1,0,0.2-0.1,0.3
								c-0.1,0.1-0.2,0.1-0.4,0.1c0,0-0.1,0-0.1,0v0.4h-0.3V500.5z M58.6,501C58.6,501,58.7,501,58.6,501c0.2,0,0.3-0.1,0.3-0.2
								c0-0.1-0.1-0.2-0.2-0.2c-0.1,0-0.1,0-0.1,0V501z"/>
							<path class="st13" d="M59.4,501.4c0.1,0,0.2,0.1,0.3,0.1c0.1,0,0.2-0.1,0.2-0.1c0-0.1-0.1-0.1-0.2-0.2
								c-0.2-0.1-0.3-0.2-0.3-0.4c0-0.2,0.2-0.4,0.5-0.4c0.1,0,0.2,0,0.3,0.1l-0.1,0.2c0,0-0.1-0.1-0.3-0.1c-0.1,0-0.2,0.1-0.2,0.1
								c0,0.1,0.1,0.1,0.2,0.2c0.2,0.1,0.3,0.2,0.3,0.4c0,0.2-0.2,0.4-0.5,0.4c-0.1,0-0.3,0-0.3-0.1L59.4,501.4z"/>
							<path class="st13" d="M60.8,500.4H61v1h0.5v0.2h-0.8V500.4z"/>
							<path class="st13" d="M62.7,501c0,0.4-0.2,0.6-0.6,0.6c-0.4,0-0.6-0.3-0.6-0.6c0-0.4,0.2-0.6,0.6-0.6
								C62.5,500.4,62.7,500.7,62.7,501z M61.8,501.1c0,0.2,0.1,0.4,0.3,0.4c0.2,0,0.3-0.2,0.3-0.4c0-0.2-0.1-0.4-0.3-0.4
								C62,500.6,61.8,500.8,61.8,501.1z"/>
							<path class="st13" d="M63.8,501.6c0,0-0.2,0.1-0.3,0.1c-0.4,0-0.6-0.3-0.6-0.6c0-0.4,0.3-0.7,0.7-0.7c0.1,0,0.3,0,0.3,0.1
								l-0.1,0.2c-0.1,0-0.1,0-0.2,0c-0.2,0-0.4,0.1-0.4,0.4c0,0.2,0.1,0.4,0.4,0.4c0.1,0,0.2,0,0.2,0L63.8,501.6z"/>
							<path class="st13" d="M64,500.4h0.3v0.5h0c0,0,0.1-0.1,0.1-0.1l0.3-0.4H65l-0.4,0.5l0.4,0.7h-0.3l-0.3-0.5l-0.1,0.1v0.4H64
								V500.4z"/>
						</g>
						<g>
							<g>
								<path class="st13" d="M240.9,500.8c0.1-0.3,0.2-0.6,0.4-0.8l0.3,0c-0.1,0.3-0.2,0.6-0.2,0.8L240.9,500.8z"/>
							</g>
							<g>
								<path class="st13" d="M240.9,495.8c0.1-0.3,0.2-0.6,0.4-0.8l0.3,0c-0.1,0.3-0.2,0.6-0.2,0.8L240.9,495.8z M241.5,495.8
									c0.1-0.3,0.2-0.6,0.4-0.8l0.3,0c-0.1,0.3-0.2,0.6-0.2,0.8L241.5,495.8z"/>
							</g>
						</g>
						<g>
							<g>
								<path class="st13" d="M225.4,502c0.1-0.3,0.2-0.6,0.2-0.9l0.5,0c-0.1,0.3-0.2,0.6-0.4,0.9L225.4,502z M225.5,500.5
									c0-0.2,0.1-0.3,0.3-0.3c0.2,0,0.3,0.1,0.3,0.3c0,0.2-0.1,0.3-0.3,0.3C225.6,500.7,225.5,500.6,225.5,500.5z"/>
							</g>
							<g>
								<path class="st13" d="M225.5,495.1c0-0.2,0.1-0.3,0.3-0.3s0.3,0.1,0.3,0.3c0,0.2-0.1,0.3-0.3,0.3
									C225.6,495.4,225.5,495.2,225.5,495.1z M225.5,496.1c0-0.2,0.1-0.3,0.3-0.3s0.3,0.1,0.3,0.3c0,0.2-0.1,0.3-0.3,0.3
									C225.6,496.3,225.5,496.2,225.5,496.1z"/>
							</g>
						</g>
					</g>
				</g>
				<g>
					<g>
						<path class="st13" d="M268.4,514.8c0.1,0,0.2,0.1,0.3,0.1c0.1,0,0.2-0.1,0.2-0.1c0-0.1-0.1-0.1-0.2-0.2
							c-0.2-0.1-0.3-0.2-0.3-0.4c0-0.2,0.2-0.4,0.5-0.4c0.1,0,0.2,0,0.3,0.1l-0.1,0.2c0,0-0.1-0.1-0.3-0.1c-0.1,0-0.2,0.1-0.2,0.1
							c0,0.1,0.1,0.1,0.2,0.2c0.2,0.1,0.3,0.2,0.3,0.4c0,0.2-0.2,0.4-0.5,0.4c-0.1,0-0.3,0-0.3-0.1L268.4,514.8z"/>
						<path class="st13" d="M269.7,513.9v0.5h0.5v-0.5h0.3v1.2h-0.3v-0.5h-0.5v0.5h-0.3v-1.2H269.7z"/>
						<path class="st13" d="M271,513.9v1.2h-0.3v-1.2H271z"/>
						<path class="st13" d="M271.2,513.9h0.7v0.2h-0.5v0.3h0.4v0.2h-0.4v0.5h-0.3V513.9z"/>
						<path class="st13" d="M272.4,514.1h-0.3v-0.2h0.9v0.2h-0.3v1h-0.3V514.1z"/>
					</g>
					<g>
						<g>
							<path class="st13" d="M91.5,512.1l1.3-1.9v0h-1.2v-0.5h2v0.4l-1.3,1.9v0h1.3v0.5h-2.2V512.1z"/>
						</g>
						<g>
							<path class="st13" d="M109,512.4l-0.3-0.5c-0.1-0.2-0.2-0.3-0.3-0.5h0c-0.1,0.2-0.1,0.3-0.2,0.5l-0.2,0.5h-0.7l0.8-1.4
								l-0.8-1.4h0.7l0.2,0.5c0.1,0.2,0.1,0.3,0.2,0.5h0c0.1-0.2,0.1-0.3,0.2-0.5l0.2-0.5h0.7l-0.8,1.4l0.8,1.4H109z"/>
						</g>
						<g>
							<path class="st13" d="M124.6,512.4c-0.1,0.1-0.4,0.1-0.7,0.1c-1,0-1.5-0.6-1.5-1.4c0-1,0.7-1.5,1.5-1.5
								c0.3,0,0.6,0.1,0.7,0.1l-0.1,0.5c-0.1-0.1-0.3-0.1-0.5-0.1c-0.5,0-0.9,0.3-0.9,0.9c0,0.6,0.3,0.9,0.9,0.9
								c0.2,0,0.4,0,0.5-0.1L124.6,512.4z"/>
						</g>
						<g>
							<path class="st13" d="M139.3,512.4l-0.9-2.8h0.7l0.3,1.2c0.1,0.3,0.2,0.7,0.3,1h0c0.1-0.3,0.2-0.7,0.3-1l0.4-1.2h0.7
								l-0.9,2.8H139.3z"/>
						</g>
						<g>
							<path class="st13" d="M153.7,509.7c0.2,0,0.5-0.1,0.8-0.1c0.4,0,0.6,0,0.8,0.2c0.2,0.1,0.3,0.3,0.3,0.6
								c0,0.2-0.1,0.5-0.5,0.6v0c0.3,0.1,0.6,0.3,0.6,0.7c0,0.3-0.1,0.5-0.3,0.6c-0.2,0.2-0.5,0.3-1.1,0.3c-0.3,0-0.5,0-0.7,0V509.7
								z M154.3,510.7h0.2c0.3,0,0.5-0.1,0.5-0.3c0-0.2-0.2-0.3-0.5-0.3c-0.1,0-0.2,0-0.3,0V510.7z M154.3,512c0.1,0,0.1,0,0.2,0
								c0.3,0,0.5-0.1,0.5-0.4c0-0.3-0.3-0.4-0.6-0.4h-0.2V512z"/>
						</g>
						<g>
							<path class="st13" d="M169.3,512.4v-2.8h0.7l0.6,1c0.2,0.3,0.3,0.6,0.5,1h0c0-0.4,0-0.8,0-1.2v-0.8h0.6v2.8H171l-0.6-1.1
								c-0.2-0.3-0.4-0.7-0.5-1h0c0,0.4,0,0.8,0,1.2v0.8H169.3z"/>
						</g>
						<g>
							<path class="st13" d="M187.8,511.4c0-0.3,0-0.7,0-1.2h0c-0.1,0.4-0.2,0.8-0.3,1.1l-0.3,1.1h-0.5l-0.3-1.1
								c-0.1-0.3-0.2-0.7-0.3-1.1h0c0,0.4,0,0.8,0,1.2l-0.1,1.1h-0.6l0.2-2.8h0.8l0.3,0.9c0.1,0.3,0.2,0.7,0.2,1h0
								c0.1-0.3,0.2-0.7,0.3-1l0.3-0.9h0.8l0.2,2.8h-0.6L187.8,511.4z"/>
						</g>
						<g>
							<path class="st13" d="M56.1,514.8c0.1,0,0.2,0.1,0.3,0.1c0.1,0,0.2-0.1,0.2-0.1c0-0.1-0.1-0.1-0.2-0.2
								c-0.2-0.1-0.3-0.2-0.3-0.4c0-0.2,0.2-0.4,0.5-0.4c0.1,0,0.2,0,0.3,0.1l-0.1,0.2c0,0-0.1-0.1-0.3-0.1c-0.1,0-0.2,0.1-0.2,0.1
								c0,0.1,0.1,0.1,0.2,0.2c0.2,0.1,0.3,0.2,0.3,0.4c0,0.2-0.2,0.4-0.5,0.4c-0.1,0-0.3,0-0.3-0.1L56.1,514.8z"/>
							<path class="st13" d="M57.3,513.9v0.5h0.5v-0.5H58v1.2h-0.3v-0.5h-0.5v0.5H57v-1.2H57.3z"/>
							<path class="st13" d="M58.6,513.9v1.2h-0.3v-1.2H58.6z"/>
							<path class="st13" d="M58.8,513.9h0.7v0.2h-0.5v0.3h0.4v0.2h-0.4v0.5h-0.3V513.9z"/>
							<path class="st13" d="M60,514.1h-0.3v-0.2h0.9v0.2h-0.3v1H60V514.1z"/>
						</g>
						<g>
							<path class="st13" d="M59.1,531.4c0,0-0.2,0.1-0.3,0.1c-0.4,0-0.6-0.3-0.6-0.6c0-0.4,0.3-0.7,0.7-0.7c0.1,0,0.3,0,0.3,0.1
								l-0.1,0.2c-0.1,0-0.1,0-0.2,0c-0.2,0-0.4,0.1-0.4,0.4c0,0.2,0.1,0.4,0.4,0.4c0.1,0,0.2,0,0.2,0L59.1,531.4z"/>
							<path class="st13" d="M60.4,530.8c0,0.4-0.2,0.6-0.6,0.6c-0.4,0-0.6-0.3-0.6-0.6c0-0.4,0.2-0.6,0.6-0.6
								C60.2,530.2,60.4,530.4,60.4,530.8z M59.5,530.8c0,0.2,0.1,0.4,0.3,0.4c0.2,0,0.3-0.2,0.3-0.4c0-0.2-0.1-0.4-0.3-0.4
								C59.6,530.4,59.5,530.6,59.5,530.8z"/>
							<path class="st13" d="M60.6,531.4v-1.2h0.3l0.3,0.4c0.1,0.1,0.1,0.3,0.2,0.4h0c0-0.2,0-0.3,0-0.5v-0.4h0.3v1.2h-0.3l-0.3-0.5
								c-0.1-0.1-0.2-0.3-0.2-0.4h0c0,0.2,0,0.3,0,0.5v0.4H60.6z"/>
							<path class="st13" d="M62.1,530.4h-0.3v-0.2h0.9v0.2h-0.3v1h-0.3V530.4z"/>
							<path class="st13" d="M62.8,530.2c0.1,0,0.2,0,0.4,0c0.2,0,0.3,0,0.4,0.1c0.1,0.1,0.1,0.1,0.1,0.3c0,0.2-0.1,0.3-0.2,0.3v0
								c0.1,0,0.1,0.1,0.2,0.2c0,0.1,0.1,0.3,0.1,0.3h-0.3c0,0,0-0.1-0.1-0.3c0-0.2-0.1-0.2-0.2-0.2h-0.1v0.5h-0.3V530.2z
								 M63.1,530.7h0.1c0.1,0,0.2-0.1,0.2-0.2c0-0.1-0.1-0.2-0.2-0.2c-0.1,0-0.1,0-0.1,0V530.7z"/>
							<path class="st13" d="M65,530.8c0,0.4-0.2,0.6-0.6,0.6c-0.4,0-0.6-0.3-0.6-0.6c0-0.4,0.2-0.6,0.6-0.6
								C64.8,530.2,65,530.4,65,530.8z M64.1,530.8c0,0.2,0.1,0.4,0.3,0.4c0.2,0,0.3-0.2,0.3-0.4c0-0.2-0.1-0.4-0.3-0.4
								C64.2,530.4,64.1,530.6,64.1,530.8z"/>
							<path class="st13" d="M65.2,530.2h0.3v1H66v0.2h-0.8V530.2z"/>
						</g>
						<g>
							<path class="st13" d="M81.1,531.1l-0.1,0.3h-0.3l0.4-1.2h0.4l0.4,1.2h-0.3l-0.1-0.3H81.1z M81.4,530.9l-0.1-0.3
								c0-0.1,0-0.2-0.1-0.2h0c0,0.1,0,0.2-0.1,0.2l-0.1,0.3H81.4z"/>
							<path class="st13" d="M82,530.2h0.3v1h0.5v0.2H82V530.2z"/>
							<path class="st13" d="M83,530.4h-0.3v-0.2h0.9v0.2h-0.3v1H83V530.4z"/>
						</g>
						<g>
							<path class="st13" d="M216.8,531.4c-0.1,0-0.2,0.1-0.3,0.1c-0.4,0-0.6-0.3-0.6-0.6c0-0.4,0.3-0.7,0.7-0.7
								c0.1,0,0.3,0,0.3,0.1l-0.1,0.2c-0.1,0-0.1,0-0.2,0c-0.2,0-0.4,0.1-0.4,0.4c0,0.2,0.1,0.4,0.4,0.4c0.1,0,0.2,0,0.2,0
								L216.8,531.4z"/>
							<path class="st13" d="M218.1,530.8c0,0.4-0.2,0.6-0.6,0.6c-0.4,0-0.6-0.3-0.6-0.6c0-0.4,0.2-0.6,0.6-0.6
								C217.9,530.2,218.1,530.4,218.1,530.8z M217.2,530.8c0,0.2,0.1,0.4,0.3,0.4c0.2,0,0.3-0.2,0.3-0.4c0-0.2-0.1-0.4-0.3-0.4
								C217.3,530.4,217.2,530.6,217.2,530.8z"/>
							<path class="st13" d="M218.2,531.4v-1.2h0.3l0.3,0.4c0.1,0.1,0.1,0.3,0.2,0.4h0c0-0.2,0-0.3,0-0.5v-0.4h0.3v1.2H219l-0.3-0.5
								c-0.1-0.1-0.2-0.3-0.2-0.4h0c0,0.2,0,0.3,0,0.5v0.4H218.2z"/>
							<path class="st13" d="M219.7,530.4h-0.3v-0.2h0.9v0.2H220v1h-0.3V530.4z"/>
							<path class="st13" d="M220.5,530.2c0.1,0,0.2,0,0.4,0c0.2,0,0.3,0,0.4,0.1c0.1,0.1,0.1,0.1,0.1,0.3c0,0.2-0.1,0.3-0.2,0.3v0
								c0.1,0,0.1,0.1,0.2,0.2c0,0.1,0.1,0.3,0.1,0.3h-0.3c0,0,0-0.1-0.1-0.3c0-0.2-0.1-0.2-0.2-0.2h-0.1v0.5h-0.3V530.2z
								 M220.8,530.7h0.1c0.1,0,0.2-0.1,0.2-0.2c0-0.1-0.1-0.2-0.2-0.2c-0.1,0-0.1,0-0.1,0V530.7z"/>
							<path class="st13" d="M222.7,530.8c0,0.4-0.2,0.6-0.6,0.6c-0.4,0-0.6-0.3-0.6-0.6c0-0.4,0.2-0.6,0.6-0.6
								C222.5,530.2,222.7,530.4,222.7,530.8z M221.8,530.8c0,0.2,0.1,0.4,0.3,0.4c0.2,0,0.3-0.2,0.3-0.4c0-0.2-0.1-0.4-0.3-0.4
								C221.9,530.4,221.8,530.6,221.8,530.8z"/>
							<path class="st13" d="M222.9,530.2h0.3v1h0.5v0.2h-0.8V530.2z"/>
						</g>
						<g>
							<path class="st13" d="M201.6,531.1l-0.1,0.3h-0.3l0.4-1.2h0.4l0.4,1.2H202l-0.1-0.3H201.6z M201.9,530.9l-0.1-0.3
								c0-0.1,0-0.2-0.1-0.2h0c0,0.1,0,0.2-0.1,0.2l-0.1,0.3H201.9z"/>
							<path class="st13" d="M202.5,530.2h0.3v1h0.5v0.2h-0.8V530.2z"/>
							<path class="st13" d="M203.5,530.4h-0.3v-0.2h0.9v0.2h-0.3v1h-0.3V530.4z"/>
						</g>
						<g>
							<g>
								<path class="st13" d="M216.7,514.5c0-0.2,0.1-0.3,0.3-0.3c0.2,0,0.3,0.1,0.3,0.3c0,0.2-0.1,0.3-0.3,0.3
									C216.8,514.8,216.7,514.7,216.7,514.5z"/>
							</g>
							<g>
								<path class="st13" d="M218.2,509.3l-1.5,0.7v-0.3l1.1-0.5v0l-1.1-0.5v-0.3l1.5,0.7V509.3z"/>
							</g>
						</g>
						<g>
							<g>
								<path class="st13" d="M201.1,515.1c0.1-0.3,0.2-0.6,0.2-0.9l0.5,0c-0.1,0.3-0.2,0.6-0.4,0.9L201.1,515.1z"/>
							</g>
							<g>
								<path class="st13" d="M201.3,509l1.5-0.7v0.3l-1.1,0.5v0l1.1,0.5v0.3l-1.5-0.7V509z"/>
							</g>
						</g>
						<g>
							<g>
								<path class="st13" d="M232.3,514.9l0.6-2.2h0.3l-0.6,2.2H232.3z"/>
							</g>
							<g>
								<path class="st13" d="M232.6,509.1L232.6,509.1c0-0.2,0-0.4,0.2-0.6c0.1-0.1,0.2-0.2,0.2-0.3c0-0.1-0.1-0.2-0.2-0.2
									c-0.1,0-0.2,0-0.3,0.1l-0.1-0.3c0.1-0.1,0.3-0.1,0.5-0.1c0.4,0,0.6,0.2,0.6,0.5c0,0.2-0.1,0.4-0.3,0.5
									c-0.1,0.1-0.2,0.2-0.2,0.4v0.1H232.6z M232.6,509.5c0-0.2,0.1-0.3,0.3-0.3c0.2,0,0.3,0.1,0.3,0.3c0,0.2-0.1,0.3-0.3,0.3
									C232.7,509.8,232.6,509.7,232.6,509.5z"/>
							</g>
						</g>
					</g>
				</g>
				<g>
					<polygon class="st13" points="254.1,524 254.1,522.6 254.8,522.6 253.9,521.1 253.1,522.6 253.7,522.6 253.7,524 					"/>
					<polygon class="st13" points="253.8,528.8 253.8,530.3 253.1,530.3 254,531.7 254.8,530.3 254.2,530.3 254.2,528.8 					"/>
					<polygon class="st13" points="267.7,530.5 269.2,530.5 269.2,531.1 270.6,530.3 269.2,529.4 269.2,530.1 267.7,530.1 					"/>
					<polygon class="st13" points="239.1,530.1 237.7,530.1 237.7,529.4 236.2,530.3 237.7,531.1 237.7,530.5 239.1,530.5 					"/>
				</g>
			</g>
		</g>
	</g>
	<g>
		<circle class="st14" cx="164.8" cy="261.5" r="2"/>
		<circle class="st15" cx="164.8" cy="261.5" r="1.8"/>
		<circle class="st16" cx="164.2" cy="260.8" r="0.5"/>
		<circle class="st16" cx="164.7" cy="261.6" r="0.3"/>
	</g>
</g>
<g>
	<g>
		<g>
			<g>
				<path class="st1" d="M723.8,589.7h-86.1c-1.9,0-3.7-1-4.9-2.7l-0.1,0.1c-1.2-1.4-1.8-3.2-1.8-5.1V420.2c0-3.9,2.7-6.9,6.4-6.9
					l86.6,0c3.5,0,6.4,3.3,6.4,7.4v161.7C730.2,586.4,727.3,589.7,723.8,589.7z M633.1,585.7c1,1.9,2.7,3,4.6,3h86.1
					c3,0,5.4-2.8,5.4-6.4V420.7c0-3.5-2.4-6.4-5.4-6.4l-86.6,0c-3.1,0-5.4,2.5-5.4,5.9v161.7c0,1.4,0.4,2.7,1.1,3.8L633.1,585.7z
					 M723.7,567h-86V429.9h86V567z M638.7,566h84V430.9h-84V566z"/>
				<path class="st0" d="M723.8,413.8h-6.2l0,0l-80.3,0c-3.2,0-5.9,2.6-5.9,6.4v161.7c0,1.9,0.7,3.6,1.7,4.8
					c-0.1-0.3-0.3-0.5-0.4-0.8c1,2,2.9,3.3,5,3.3h8.5h77.6c3.2,0,5.9-3.1,5.9-6.9V420.7C729.7,416.9,727,413.8,723.8,413.8z
					 M723.2,566.5h-67.9h-17.2V430.4h72.6h12.5V566.5z"/>
			</g>
			<path class="st0" d="M680.7,573.7c-3.1,0-5.6,2.5-5.6,5.6c0,0.3,0,0.6,0.1,1c1.2,1,2.2,1.9,5.5,1.9c2.6,0,4.1-0.8,5.5-1.9
				c0.1-0.3,0.1-0.6,0.1-0.9C686.3,576.2,683.8,573.7,680.7,573.7z"/>
			<path class="st7" d="M686.2,580.3c-1.4,1.1-2.9,1.9-5.5,1.9c-3.3,0-4.3-0.9-5.5-1.9c0,0,0,0,0,0c0,0,0,0.1,0,0.1
				c0,0.1,0.1,0.3,0.1,0.4c0.1,0.2,0.1,0.4,0.2,0.6c0.1,0.1,0.1,0.3,0.2,0.4c0.1,0.2,0.2,0.4,0.3,0.6c0.1,0.1,0.1,0.2,0.2,0.3
				c0.1,0.2,0.3,0.3,0.4,0.5c0.1,0.1,0.2,0.2,0.3,0.3c0.2,0.2,0.4,0.3,0.5,0.4c0.1,0.1,0.2,0.1,0.3,0.2c0.2,0.1,0.4,0.3,0.7,0.4
				c0.1,0,0.2,0.1,0.2,0.1c0.3,0.1,0.5,0.2,0.8,0.3c0.1,0,0.1,0,0.2,0.1c0.3,0.1,0.7,0.1,1.1,0.1c0,0,0,0,0,0c0,0,0,0,0,0
				c0,0,0,0,0.1,0c2.8,0,5-1.8,5.4-4.4c0,0,0-0.1,0-0.1C686.2,580.4,686.3,580.3,686.2,580.3C686.3,580.3,686.2,580.3,686.2,580.3z"
				/>
			
				<linearGradient id="SVGID_1_" gradientUnits="userSpaceOnUse" x1="-58.9889" y1="438.7701" x2="-58.9889" y2="440.2749" gradientTransform="matrix(1 0 0 1 739.707 -17.7578)">
				<stop  offset="0" style="stop-color:#B6B6B6"/>
				<stop  offset="0.4108" style="stop-color:#B4B4B4"/>
				<stop  offset="0.6128" style="stop-color:#ACACAD"/>
				<stop  offset="0.7693" style="stop-color:#9FA0A1"/>
				<stop  offset="0.9015" style="stop-color:#8D8E8F"/>
				<stop  offset="1" style="stop-color:#797B7D"/>
			</linearGradient>
			<path class="st17" d="M690.7,421.3h-19.9c-0.3,0-0.5-0.1-0.7-0.3c0.2,0.9,0.7,1.5,1.4,1.5H690c0.6,0,1.2-0.6,1.4-1.5
				C691.2,421.2,690.9,421.3,690.7,421.3z"/>
		</g>
		<rect x="636.3" y="427.3" class="st3" width="88.9" height="142.4"/>
		<g class="st18">
			<g>
				<g>
					<polygon class="st13" points="725,427.3 636,427.3 636,527.2 725,428.6 					"/>
				</g>
			</g>
		</g>
	</g>
</g>
</svg>
