<?xml version="1.0" encoding="utf-8"?>
<!-- Generator: Adobe Illustrator 19.0.0, SVG Export Plug-In . SVG Version: 6.00 Build 0)  -->
<svg version="1.1" id="Layer_1" 
	 xmlns="http://www.w3.org/2000/svg" xmlns:xlink="http://www.w3.org/1999/xlink" x="0px" y="0px" width="770px" height="336px"
	 viewBox="-518 113 770 336" style="enable-background:new -518 113 770 336;" xml:space="preserve">
<style type="text/css">
	.st0{fill:#27A1C5;}
	.st1{fill:url(#SVGID_1_);}
	.st2{fill:#333333;}
	.st3{fill:url(#SVGID_2_);stroke:#333333;}
	.st4{fill:url(#SVGID_3_);stroke:#333333;}
	.st5{fill:url(#SVGID_4_);stroke:#333333;}
	.st6{fill:url(#SVGID_5_);stroke:#333333;}
	.st7{fill:#676767;stroke:#333333;}
	.st8{fill:url(#SVGID_6_);stroke:#333333;}
	.st9{fill:url(#SVGID_7_);stroke:#333333;}
	.st10{fill:url(#SVGID_8_);stroke:#333333;}
	.st11{fill:url(#SVGID_9_);stroke:#333333;}
	.st12{fill:url(#SVGID_10_);stroke:#333333;}
	.st13{fill:url(#SVGID_11_);stroke:#333333;}
	.st14{fill:url(#SVGID_12_);stroke:#333333;}
	.st15{fill:url(#SVGID_13_);stroke:#333333;}
	.st16{fill:url(#SVGID_14_);stroke:#333333;}
	.st17{fill:url(#SVGID_15_);stroke:#333333;}
	.st18{fill:url(#SVGID_16_);stroke:#333333;}
	.st19{fill:url(#SVGID_17_);stroke:#333333;}
	.st20{fill:#333333;stroke:#333333;}
	.st21{fill:#36A3C9;stroke:#010101;}
	.st22{fill:#50C8EC;}
	.st23{fill:url(#SVGID_18_);}
	.st24{fill:none;stroke:#333333;}
	.st25{fill:url(#SVGID_19_);}
	.st26{fill:url(#SVGID_20_);stroke:#333333;}
	.st27{fill:url(#SVGID_21_);stroke:#333333;}
	.st28{fill:url(#SVGID_22_);stroke:#333333;}
	.st29{fill:url(#SVGID_23_);stroke:#333333;}
	.st30{fill:url(#SVGID_24_);stroke:#333333;}
	.st31{fill:url(#SVGID_25_);stroke:#333333;}
	.st32{fill:url(#SVGID_26_);stroke:#333333;}
	.st33{fill:url(#SVGID_27_);stroke:#333333;}
	.st34{fill:url(#SVGID_28_);stroke:#333333;}
	.st35{fill:url(#SVGID_29_);stroke:#333333;}
	.st36{fill:url(#SVGID_30_);stroke:#333333;}
	.st37{fill:url(#SVGID_31_);stroke:#333333;}
	.st38{fill:url(#SVGID_32_);stroke:#333333;}
	.st39{fill:url(#SVGID_33_);stroke:#333333;}
	.st40{fill:url(#SVGID_34_);stroke:#333333;}
	.st41{fill:url(#SVGID_35_);stroke:#333333;}
	.st42{fill:url(#SVGID_36_);stroke:#333333;}
	.st43{fill:url(#SVGID_37_);stroke:#333333;}
	.st44{fill:url(#SVGID_38_);stroke:#333333;}
	.st45{fill:url(#SVGID_39_);stroke:#333333;}
	.st46{fill:url(#SVGID_40_);stroke:#333333;}
	.st47{fill:url(#SVGID_41_);stroke:#333333;}
	.st48{fill:#FFFFFF;}
	.st49{fill:#F9F9F9;}
</style>
<g>
	<rect x="-518" y="113" class="st0" width="770" height="336"/>
	<g>
		<g>
			
				<linearGradient id="SVGID_1_" gradientUnits="userSpaceOnUse" x1="-700.8996" y1="561.0225" x2="-700.2598" y2="560.2622" gradientTransform="matrix(251.2664 0 0 -211.4657 175688.8594 118847.6406)">
				<stop  offset="0" style="stop-color:#FFFFFF"/>
				<stop  offset="1" style="stop-color:#F3F3F3"/>
			</linearGradient>
			<path class="st1" d="M-346.6,384.4c-0.2,0-0.3,0-0.5-0.1l-15.8-4c-0.1,0-0.3-0.1-0.4-0.2l-10.4-5.2v1.9c0,0.8-0.4,1.4-1.1,1.7
				l-5.3,2.6c-0.3,0.1-0.6,0.2-0.9,0.2c-0.3,0-0.6-0.1-0.9-0.2l-52.9-26.5c-0.7-0.3-1.1-1-1.1-1.7v-14.4l-17.5-8.7
				c-0.7-0.3-1.1-1-1.1-1.7V307c0-0.8,0.4-1.4,1.1-1.7l7.9-4c0.3-0.1,0.6-0.2,0.9-0.2s0.6,0.1,0.9,0.2l12.1,6.1l2-1.1
				c0.3-0.1,0.6-0.2,0.9-0.2s0.6,0.1,0.9,0.2l1,0.5l12.4-15.7l-1.7-0.9c-0.7-0.3-1.1-1-1.1-1.7v-29.8l-5.5-2.8
				c-0.7-0.3-1.1-1-1.1-1.7v-42.3c0-0.8,0.4-1.4,1.1-1.7l74.1-37c0.3-0.1,0.6-0.2,0.9-0.2s0.6,0.1,0.9,0.2l41.4,20.8l1.7-0.9
				c0.3-0.1,0.6-0.2,0.9-0.2c0.3,0,0.6,0.1,0.9,0.2l31.8,15.8c0.7,0.3,1.1,1,1.1,1.7v25.2l41.2,20.7c0.7,0.3,1.1,1,1.1,1.7v12.1
				l6.9,3.5c0.1,0.1,0.3,0.2,0.4,0.3l15.8,13.2c0.5,0.4,0.7,0.9,0.7,1.4v4c0,0.8-0.4,1.4-1.1,1.7l-10.6,5.3
				c-0.3,0.1-0.6,0.2-0.9,0.2c-0.4,0-0.8-0.1-1.2-0.4l-10.1-7.6v3.9l6.9,4.4l15.6,5.2c0.8,0.3,1.4,1,1.4,1.8v4
				c0,0.8-0.4,1.4-1.1,1.7l-10.6,5.3c-0.3,0.1-0.6,0.2-0.9,0.2c-0.2,0-0.3,0-0.5-0.1l-15.8-4c-0.1,0-0.3-0.1-0.4-0.2l-15.3-7.6
				l-0.8,0.4c-0.2,0.2-0.3,0.4-0.6,0.5c-0.3,0.2-0.7,0.3-1.1,0.3c-0.3,0-0.6-0.1-0.9-0.2l-18.4-9.2v2.1c0,0.8-0.4,1.4-1.1,1.7
				l-74.1,37c-0.3,0.1-0.6,0.2-0.9,0.2c-0.3,0-0.6-0.1-0.9-0.2l-10.6-5.3c-0.7-0.3-1.1-1-1.1-1.7v-2.1c-0.2,0.1-0.5,0.1-0.7,0.1
				c-0.3,0-0.6-0.1-0.9-0.2l-10.6-5.3c-0.7-0.3-1.1-1-1.1-1.7v-1.4l-4.3-2.1c-0.7-0.3-1.1-1-1.1-1.7v-7.9l-23.7-11.5l-8.1,10.1
				l38.5,19.2c0.7,0.3,1.1,1,1.1,1.7v1.7l17.5,8.7c0.1,0.1,0.3,0.2,0.4,0.3l15.8,13.2c0.5,0.4,0.7,0.9,0.7,1.4v4
				c0,0.8-0.4,1.4-1.1,1.7l-10.6,5.3c-0.3,0.1-0.6,0.2-0.9,0.2c-0.4,0-0.8-0.1-1.2-0.4l-15.6-11.7l-5.1-1.8v3l17.4,11.2l15.6,5.2
				c0.8,0.3,1.4,1,1.4,1.8v4c0,0.8-0.4,1.4-1.1,1.7l-10.6,5.3C-346,384.4-346.3,384.4-346.6,384.4L-346.6,384.4z"/>
			<path class="st2" d="M-348,174.8l7.9,4l2.6,1.4l10.6,5.3l21.2,10.6l2.6-1.4l31.9,15.8V237l42.3,21.2v13.2l7.9,4l15.8,13.2v4
				l-10.6,5.3l-13.1-10v8.8l7.9,5.1l15.8,5.3v4l-10.6,5.3l-15.8-4l-16.1-8l-2.4,1.2v0.3l-21.2-10.6v5.3l-74.1,37l-10.6-5.3v-5.3
				l-2.6-1.4v2.6l-10.6-5.3v-2.6l-5.3-2.6v-9.2l-26.2-12.8l-10.5,13.2l40.7,20.3v2.9l18.5,9.3l15.8,13.2v4l-10.6,5.3l-15.8-11.9
				l-7.9-2.8v6.8l18.5,11.9l15.8,5.3v4l-10.6,5.3l-15.8-4l-13-6.6v5l-5.3,2.6l-52.9-26.5v-15.6l-18.5-9.2v-21.2l7.9-4l12.9,6.5
				l2.9-1.4l2.3,1.2l14.9-18.8l-4-1.9v-31l-6.6-3.3v-42.4L-348,174.8L-348,174.8z M-348,171c-0.6,0-1.2,0.1-1.7,0.4l-74,37.1
				c-1.4,0.7-2.1,2-2.1,3.5v42.3c0,1.4,0.9,2.8,2.1,3.5l4.4,2.2v28.7c0,1.4,0.7,2.6,1.8,3.3l-10,12.7c-0.4-0.1-0.8-0.2-1.3-0.2
				c-0.6,0-1.2,0.1-1.7,0.4l-1.2,0.6l-11.2-5.7c-0.6-0.3-1.2-0.4-1.7-0.4c-0.6,0-1.2,0.1-1.7,0.4l-7.9,4c-1.3,0.7-2.1,2-2.1,3.5
				v21.2c0,1.4,0.9,2.8,2.1,3.5l16.4,8.2v13.2c0,1.4,0.9,2.8,2.1,3.5l52.9,26.5c0.6,0.3,1.2,0.4,1.7,0.4s1.2-0.1,1.7-0.4l5.3-2.6
				c1-0.5,1.6-1.4,1.9-2.3l7.8,3.9c0.3,0.1,0.5,0.2,0.8,0.3l15.8,4c0.3,0.1,0.6,0.1,1,0.1c0.6,0,1.2-0.1,1.7-0.4l10.6-5.3
				c1.4-0.7,2.1-2,2.1-3.5v-4c0-1.6-1.1-3.2-2.6-3.7l-8.6-2.9l9.1-4.5c1.4-0.7,2.1-2,2.1-3.5v-4c0-1.2-0.5-2.2-1.4-3l-12.6-10.4
				c0.3,0.1,0.6,0.1,0.8,0.1c0.6,0,1.2-0.1,1.7-0.4l74.1-37c1.1-0.5,1.7-1.4,2-2.5l15.6,7.8c0.6,0.3,1.2,0.4,1.7,0.4
				c0.7,0,1.4-0.2,2-0.6c0.2-0.1,0.3-0.2,0.5-0.4l14.3,7.1c0.3,0.1,0.5,0.2,0.8,0.3l15.8,4c0.3,0.1,0.6,0.1,1,0.1
				c0.6,0,1.2-0.1,1.7-0.4l10.6-5.3c1.4-0.7,2.1-2,2.1-3.5v-4c0-1.6-1.1-3.2-2.6-3.7l-8.6-2.9l9.1-4.5c1.4-0.7,2.1-2,2.1-3.5v-4
				c0-1.2-0.5-2.2-1.4-3l-16.1-13.1c-0.2-0.2-0.5-0.4-0.8-0.5l-5.8-2.9v-10.9c0-1.4-0.9-2.8-2.1-3.5l-40.2-20.1v-24
				c0-1.4-0.9-2.8-2.1-3.5l-31.7-15.8c-0.6-0.3-1.2-0.4-1.7-0.4c-0.6,0-1.2,0.1-1.7,0.4l-0.9,0.5L-325,182l-10.6-5.3l-2.6-1.4
				l-7.9-4C-346.7,171.1-347.3,171-348,171L-348,171L-348,171z M-405,307.7l5.6-7.1l21.2,10.3v6.8c0,1.4,0.9,2.8,2.1,3.5l3.2,1.5
				v0.3c0,0.3,0,0.6,0.1,0.8L-405,307.7L-405,307.7z M-366.5,329.8v-0.5c0-0.3,0-0.6-0.1-0.8l6.4,3.2c0.2,0.1,0.3,0.2,0.5,0.2v0.3
				c0,0.4,0.1,0.8,0.2,1.1L-366.5,329.8L-366.5,329.8z"/>
		</g>
		
			<linearGradient id="SVGID_2_" gradientUnits="userSpaceOnUse" x1="-698.4512" y1="559.6221" x2="-697.9157" y2="559.1224" gradientTransform="matrix(74.0951 0 0 -79.4083 51423.7578 44716.6016)">
			<stop  offset="0" style="stop-color:#FFFFFF"/>
			<stop  offset="1" style="stop-color:#CDCCCC"/>
		</linearGradient>
		<path class="st3" d="M-271.2,300.5l-74.1,37v-42.3l74.1-37.1V300.5z"/>
		<g transform="translate(140.075472, 59.894340)">
			<g transform="translate(28.981132, 0.000000)">
				
					<linearGradient id="SVGID_3_" gradientUnits="userSpaceOnUse" x1="-866.489" y1="499.5912" x2="-865.3398" y2="498.7068" gradientTransform="matrix(52.9389 0 0 -68.7819 45410.8477 34541.25)">
					<stop  offset="0" style="stop-color:#E6E6E5"/>
					<stop  offset="1" style="stop-color:#B4B4B4"/>
				</linearGradient>
				<path class="st4" d="M-456.2,174.4v42.3l52.9,26.5v-42.3L-456.2,174.4z"/>
				
					<linearGradient id="SVGID_4_" gradientUnits="userSpaceOnUse" x1="-826.4249" y1="498.1025" x2="-822.1935" y2="497.6031" gradientTransform="matrix(5.3132 0 0 -45.0174 3979.1384 22632.7109)">
					<stop  offset="0" style="stop-color:#E6E6E5"/>
					<stop  offset="1" style="stop-color:#B4B4B4"/>
				</linearGradient>
				<path class="st5" d="M-403.2,200.9v42.3l5.3-2.6v-42.4L-403.2,200.9z"/>
				
					<linearGradient id="SVGID_5_" gradientUnits="userSpaceOnUse" x1="-866.6895" y1="496.5006" x2="-865.9857" y2="495.0907" gradientTransform="matrix(58.2521 0 0 -29.0777 50038.9531 14602.9648)">
					<stop  offset="0" style="stop-color:#FFFFFF"/>
					<stop  offset="1" style="stop-color:#F3F3F3"/>
				</linearGradient>
				<path class="st6" d="M-456.2,174.4l5.3-2.6l52.9,26.4l-5.3,2.7L-456.2,174.4z"/>
			</g>
			<path class="st7" d="M-421.9,182.2l-10.6,5.2l42.4,21.2l10.5-5.2L-421.9,182.2z"/>
			<path class="st7" d="M-448.3,179.8l-7.9,4l31.8,15.8l7.9-4L-448.3,179.8z"/>
			<path class="st7" d="M-456.2,183.7v21.2l31.8,15.8v-21.2L-456.2,183.7z"/>
			<path class="st7" d="M-432.5,187.7v37l42.4,21.2v-37L-432.5,187.7z"/>
			<path class="st7" d="M-379.5,203.3l-10.5,5.2v37.1l10.5-5.3V203.3z"/>
			<g transform="translate(65.690566, 58.928302)">
				
					<linearGradient id="SVGID_6_" gradientUnits="userSpaceOnUse" x1="-894.4668" y1="433.3326" x2="-893.4992" y2="432.2943" gradientTransform="matrix(18.4513 0 0 -17.1955 16047.9648 7628.0537)">
					<stop  offset="0" style="stop-color:#E6E6E5"/>
					<stop  offset="1" style="stop-color:#B4B4B4"/>
				</linearGradient>
				<path class="st8" d="M-455.8,176.4v7.9l18.5,9.3v-5.3L-455.8,176.4z"/>
				
					<linearGradient id="SVGID_7_" gradientUnits="userSpaceOnUse" x1="-892.1725" y1="425.0986" x2="-891.3795" y2="423.7438" gradientTransform="matrix(15.843 0 0 -9.274 13698.6895 4129.3022)">
					<stop  offset="0" style="stop-color:#E6E6E5"/>
					<stop  offset="1" style="stop-color:#B4B4B4"/>
				</linearGradient>
				<path class="st9" d="M-437.3,188.3v5.3l15.8,4v-4L-437.3,188.3z"/>
				
					<linearGradient id="SVGID_8_" gradientUnits="userSpaceOnUse" x1="-884.3571" y1="424.7065" x2="-883.9214" y2="424.2073" gradientTransform="matrix(10.6264 0 0 -9.274 8979.0762 4129.3022)">
					<stop  offset="0" style="stop-color:#E6E6E5"/>
					<stop  offset="1" style="stop-color:#B4B4B4"/>
				</linearGradient>
				<path class="st10" d="M-421.5,193.6v4l10.6-5.3v-4L-421.5,193.6z"/>
				
					<linearGradient id="SVGID_9_" gradientUnits="userSpaceOnUse" x1="-898.4818" y1="426.7763" x2="-897.4818" y2="426.7763" gradientTransform="matrix(26.4694 0 0 -10.6264 23344.9883 4723.3657)">
					<stop  offset="0" style="stop-color:#FFFFFF"/>
					<stop  offset="1" style="stop-color:#F3F3F3"/>
				</linearGradient>
				<path class="st11" d="M-426.7,183l-10.6,5.3l15.8,5.3l10.6-5.3L-426.7,183z"/>
				
					<linearGradient id="SVGID_10_" gradientUnits="userSpaceOnUse" x1="-899.316" y1="432.8509" x2="-898.316" y2="432.8509" gradientTransform="matrix(29.0777 0 0 -17.1955 25694.2637 7622.7407)">
					<stop  offset="0" style="stop-color:#FFFFFF"/>
					<stop  offset="1" style="stop-color:#F3F3F3"/>
				</linearGradient>
				<path class="st12" d="M-445.2,171.1l-10.5,5.3l18.5,11.9l10.6-5.3L-445.2,171.1z"/>
			</g>
			<g transform="translate(65.690566, 34.777358)">
				
					<linearGradient id="SVGID_11_" gradientUnits="userSpaceOnUse" x1="-894.4302" y1="455.7662" x2="-893.5342" y2="454.633" gradientTransform="matrix(18.4513 0 0 -14.5872 16047.9648 6824.6968)">
					<stop  offset="0" style="stop-color:#E6E6E5"/>
					<stop  offset="1" style="stop-color:#B4B4B4"/>
				</linearGradient>
				<path class="st13" d="M-455.8,176.7v7.9l18.5,6.7v-5.3L-455.8,176.7z"/>
				
					<linearGradient id="SVGID_12_" gradientUnits="userSpaceOnUse" x1="-892.2959" y1="457.4613" x2="-891.2524" y2="456.4999" gradientTransform="matrix(15.843 0 0 -17.1955 13698.6895 8052.9038)">
					<stop  offset="0" style="stop-color:#E6E6E5"/>
					<stop  offset="1" style="stop-color:#B4B4B4"/>
				</linearGradient>
				<path class="st14" d="M-437.3,185.9v5.3l15.8,11.9v-4L-437.3,185.9z"/>
				
					<linearGradient id="SVGID_13_" gradientUnits="userSpaceOnUse" x1="-884.3553" y1="448.8554" x2="-883.9197" y2="448.3563" gradientTransform="matrix(10.6264 0 0 -9.274 8979.0762 4358.8799)">
					<stop  offset="0" style="stop-color:#E6E6E5"/>
					<stop  offset="1" style="stop-color:#B4B4B4"/>
				</linearGradient>
				<path class="st15" d="M-421.5,199.2v4l10.6-5.3v-4L-421.5,199.2z"/>
				
					<linearGradient id="SVGID_14_" gradientUnits="userSpaceOnUse" x1="-899.316" y1="455.1675" x2="-898.316" y2="455.1675" gradientTransform="matrix(29.0777 0 0 -14.4906 25694.2637 6774.3345)">
					<stop  offset="0" style="stop-color:#FFFFFF"/>
					<stop  offset="1" style="stop-color:#F3F3F3"/>
				</linearGradient>
				<path class="st16" d="M-445.2,171.5l-10.5,5.2l18.5,9.3l10.6-5.3L-445.2,171.5z"/>
				
					<linearGradient id="SVGID_15_" gradientUnits="userSpaceOnUse" x1="-898.4818" y1="457.7183" x2="-897.4818" y2="457.7183" gradientTransform="matrix(26.4694 0 0 -18.5479 23344.9883 8679.6299)">
					<stop  offset="0" style="stop-color:#FFFFFF"/>
					<stop  offset="1" style="stop-color:#F3F3F3"/>
				</linearGradient>
				<path class="st17" d="M-426.7,180.6l-10.6,5.3l15.8,13.2l10.6-5.3L-426.7,180.6z"/>
			</g>
		</g>
		<path class="st7" d="M-415.4,213.2v75.4l49,23.9V237L-415.4,213.2z"/>
		<path class="st7" d="M-385,230.4v38.4l10.6,6.6v42.4l26.4,13.1v-81.9L-385,230.4z"/>
		<path class="st7" d="M-339.9,178.8l-72.7,37l63.5,31.8l72.7-37L-339.9,178.8z"/>
		
			<linearGradient id="SVGID_16_" gradientUnits="userSpaceOnUse" x1="-699.6047" y1="559.0264" x2="-699.173" y2="558.1623" gradientTransform="matrix(116.4075 0 0 -58.1555 81050.3906 32689.2402)">
			<stop  offset="0" style="stop-color:#FFFFFF"/>
			<stop  offset="1" style="stop-color:#F3F3F3"/>
		</linearGradient>
		<path class="st18" d="M-422,211.8l74-37l42.4,21.2l-74.1,37L-422,211.8z"/>
		
			<linearGradient id="SVGID_17_" gradientUnits="userSpaceOnUse" x1="-690.1874" y1="545.9543" x2="-689.6896" y2="544.9496" gradientTransform="matrix(21.2528 0 0 -10.5298 14325.7744 5928.9316)">
			<stop  offset="0" style="stop-color:#FFFFFF"/>
			<stop  offset="1" style="stop-color:#F3F3F3"/>
		</linearGradient>
		<path class="st19" d="M-348,185.5l10.6-5.3l10.6,5.3l-10.6,5.2L-348,185.5z"/>
		<path class="st7" d="M-348,254.1l74.1-37v79.3l-74.1,37.1V254.1z"/>
		<path class="st7" d="M-400.8,211.8l10.5,5.3l52.9-26.5l-10.6-5.2L-400.8,211.8z"/>
		<path class="st7" d="M-348,196l8-4l2.6-1.4l-10.6-5.2V196z"/>
		<g transform="translate(102.400000, 18.354717)">
			<path class="st20" d="M-455.6,180.2l2.6-1.3l5.3-2.7l-7.9-4V180.2z"/>
			<path class="st7" d="M-455.6,172.3l7.9,4l2.6-1.3l-7.9-4L-455.6,172.3z"/>
		</g>
		<g transform="translate(97.569811, 20.286792)">
			<path class="st20" d="M-456.1,181l2.6-1.4l5.3-2.6l-7.9-4V181z"/>
			<path class="st7" d="M-456.1,173.1l7.9,4l2.6-1.4l-7.9-4L-456.1,173.1z"/>
		</g>
		<g transform="translate(91.773585, 23.184906)">
			<path class="st20" d="M-455.6,180.7l2.7-1.4l5.2-2.6l-7.9-4V180.7z"/>
			<path class="st7" d="M-455.6,172.8l7.9,4l2.7-1.4l-7.9-4L-455.6,172.8z"/>
		</g>
		<g transform="translate(86.943396, 26.083019)">
			<path class="st20" d="M-456.1,180.5l2.7-1.4l5.3-2.7l-8-4V180.5z"/>
			<path class="st7" d="M-456.1,172.5l8,4l2.6-1.3l-7.9-4L-456.1,172.5z"/>
		</g>
		<g transform="translate(81.147170, 28.981132)">
			<path class="st20" d="M-455.5,180.2l2.6-1.4l5.3-2.6l-7.9-4V180.2z"/>
			<path class="st7" d="M-455.5,172.3l7.9,4l2.6-1.4l-7.9-4L-455.5,172.3z"/>
		</g>
		<g transform="translate(76.316981, 30.913208)">
			<path class="st20" d="M-456,180.9l2.6-1.3l5.3-2.7l-7.9-4V180.9z"/>
			<path class="st7" d="M-456,173l7.9,4l2.6-1.3l-7.9-4.1L-456,173z"/>
		</g>
		<g transform="translate(70.520755, 33.811321)">
			<path class="st20" d="M-455.5,180.7l2.7-1.4l5.2-2.6l-7.9-4V180.7z"/>
			<path class="st7" d="M-455.5,172.8l7.9,4l2.7-1.4l-7.9-4L-455.5,172.8z"/>
		</g>
		<g transform="translate(65.690566, 36.709434)">
			<path class="st20" d="M-456,180.4l2.7-1.4l5.3-2.6l-8-4V180.4z"/>
			<path class="st7" d="M-456,172.5l8,4l2.6-1.4l-7.9-4L-456,172.5z"/>
		</g>
		<g transform="translate(59.894340, 39.607547)">
			<path class="st20" d="M-455.4,180.1l2.6-1.3l5.3-2.7l-7.9-4V180.1z"/>
			<path class="st7" d="M-455.4,172.2l7.9,4l2.6-1.3l-7.9-4L-455.4,172.2z"/>
		</g>
		<g transform="translate(118.822642, 91.773585)">
			<path class="st21" d="M-456.2,180.9v15.8l18.5-9.3v-15.8L-456.2,180.9z"/>
			<path class="st22" d="M-442.9,184.9v-10.5l-13.2,6.6v10.6L-442.9,184.9z"/>
			
				<linearGradient id="SVGID_18_" gradientUnits="userSpaceOnUse" x1="-806.6559" y1="459.6145" x2="-807.1216" y2="458.6702" gradientTransform="matrix(18.5479 0 0 -15.843 14522.6523 7452.4819)">
				<stop  offset="0" style="stop-color:#FDFEFF;stop-opacity:0"/>
				<stop  offset="0.9104" style="stop-color:#FDFEFF;stop-opacity:0.9104"/>
				<stop  offset="1" style="stop-color:#FDFEFF"/>
			</linearGradient>
			<path class="st23" d="M-437.6,187.5v-15.8l-13.2,6.7l-5.3,2.6"/>
			<path class="st24" d="M-456.2,180.9v15.8l18.5-9.3v-15.8L-456.2,180.9z"/>
		</g>
		<g transform="translate(152.633962, 74.384906)">
			<path class="st21" d="M-455.6,181.1V197l18.5-9.2v-15.9L-455.6,181.1z"/>
			<path class="st22" d="M-442.3,185.1v-10.5l-13.2,6.6v10.6L-442.3,185.1z"/>
			
				<linearGradient id="SVGID_19_" gradientUnits="userSpaceOnUse" x1="-840.4661" y1="477.0666" x2="-840.9318" y2="476.1281" gradientTransform="matrix(18.5479 0 0 -15.9396 15150.3633 7775.27)">
				<stop  offset="0" style="stop-color:#FDFEFF;stop-opacity:0"/>
				<stop  offset="0.9104" style="stop-color:#FDFEFF;stop-opacity:0.9104"/>
				<stop  offset="1" style="stop-color:#FDFEFF"/>
			</linearGradient>
			<path class="st25" d="M-437,187.8v-15.9l-13.2,6.7l-5.3,2.6"/>
			<path class="st24" d="M-455.6,181.1V197l18.5-9.2v-15.9L-455.6,181.1z"/>
		</g>
		
			<linearGradient id="SVGID_20_" gradientUnits="userSpaceOnUse" x1="-698.8042" y1="560.4688" x2="-697.5889" y2="559.6962" gradientTransform="matrix(73.9985 0 0 -116.4076 51279.2344 65463.9102)">
			<stop  offset="0" style="stop-color:#E6E6E5"/>
			<stop  offset="1" style="stop-color:#B4B4B4"/>
		</linearGradient>
		<path class="st26" d="M-379.6,264.8V233l-42.3-21.2v42.3l52.8,26.5v42.3l10.6,5.3v-42.3l10.5,5.3v-10.6L-379.6,264.8z"/>
		
			<linearGradient id="SVGID_21_" gradientUnits="userSpaceOnUse" x1="-698.4512" y1="559.6221" x2="-697.9157" y2="559.1224" gradientTransform="matrix(74.0951 0 0 -79.4083 51423.7578 44716.6016)">
			<stop  offset="0" style="stop-color:#FFFFFF"/>
			<stop  offset="1" style="stop-color:#CDCCCC"/>
		</linearGradient>
		<path class="st27" d="M-271.2,300.5l-74.1,37v-42.3l74.1-37.1V300.5z"/>
		
			<linearGradient id="SVGID_22_" gradientUnits="userSpaceOnUse" x1="-679.7416" y1="558.2573" x2="-677.0037" y2="557.6464" gradientTransform="matrix(10.6264 0 0 -47.6257 6858.1123 26886.543)">
			<stop  offset="0" style="stop-color:#E6E6E5"/>
			<stop  offset="1" style="stop-color:#B4B4B4"/>
		</linearGradient>
		<path class="st28" d="M-355.9,289.9v42.3l10.6,5.3v-42.3L-355.9,289.9z"/>
		<g transform="translate(79.215094, 23.184906)">
			
				<linearGradient id="SVGID_23_" gradientUnits="userSpaceOnUse" x1="-777.6306" y1="536.1055" x2="-777.1665" y2="535.6049" gradientTransform="matrix(74.0951 0 0 -68.6853 57213.9883 37027.0938)">
				<stop  offset="0" style="stop-color:#FFFFFF"/>
				<stop  offset="1" style="stop-color:#CDCCCC"/>
			</linearGradient>
			<path class="st29" d="M-350.4,219.1l-74.1,37v-31.7l74.1-37V219.1z"/>
			
				<linearGradient id="SVGID_24_" gradientUnits="userSpaceOnUse" x1="-778.5942" y1="535.5226" x2="-778.1945" y2="534.7232" gradientTransform="matrix(105.8777 0 0 -52.9389 82011.2891 28526.7422)">
				<stop  offset="0" style="stop-color:#FFFFFF"/>
				<stop  offset="1" style="stop-color:#F3F3F3"/>
			</linearGradient>
			<path class="st30" d="M-456.2,208.6l74.1-37.1l31.8,15.9l-74.1,37L-456.2,208.6z"/>
			
				<linearGradient id="SVGID_25_" gradientUnits="userSpaceOnUse" x1="-773.1912" y1="528.0677" x2="-772.7751" y2="527.2329" gradientTransform="matrix(31.7826 0 0 -15.843 24174.7051 8562.8008)">
				<stop  offset="0" style="stop-color:#FFFFFF"/>
				<stop  offset="1" style="stop-color:#F3F3F3"/>
			</linearGradient>
			<path class="st31" d="M-408.6,205.8l21.2-10.5l10.6,5.3l-21.2,10.5L-408.6,205.8z"/>
			
				<linearGradient id="SVGID_26_" gradientUnits="userSpaceOnUse" x1="-773.6068" y1="535.1772" x2="-772.3585" y2="534.3424" gradientTransform="matrix(31.7826 0 0 -47.5291 24127.0801 25648.9512)">
				<stop  offset="0" style="stop-color:#E6E6E5"/>
				<stop  offset="1" style="stop-color:#B4B4B4"/>
			</linearGradient>
			<path class="st32" d="M-456.2,208.6v31.7l31.8,15.8v-31.7L-456.2,208.6z"/>
		</g>
		
			<linearGradient id="SVGID_27_" gradientUnits="userSpaceOnUse" x1="-698.4333" y1="557.3621" x2="-698.1664" y2="556.8276" gradientTransform="matrix(76.8 0 0 -38.3517 53319.8945 21641.5352)">
			<stop  offset="0" style="stop-color:#FFFFFF"/>
			<stop  offset="1" style="stop-color:#F3F3F3"/>
		</linearGradient>
		<path class="st33" d="M-345.3,295.2l74.1-37.1l-2.7-1.3l-74.1,37L-345.3,295.2z"/>
		<g transform="translate(22.218868, 102.400000)">
			<path class="st20" d="M-424.4,171.6v13.2l10.6,5.2v-13.2L-424.4,171.6z"/>
			<path class="st7" d="M-456.1,216.6v9.3l5.2,2.6v-9.2L-456.1,216.6z"/>
			<path class="st7" d="M-421.7,172.9l-34.4,43.7l5.2,2.7l34.4-43.7L-421.7,172.9z"/>
			<path class="st7" d="M-450.8,219.3v9.2l37.1-46.3v-5.3l-2.7-1.3L-450.8,219.3z"/>
		</g>
		<g transform="translate(3.864151, 131.381132)">
			<path class="st7" d="M-416.5,176.8l-10.6,5.3l42.3,21.2l10.6-5.3L-416.5,176.8z"/>
			<path class="st7" d="M-448.3,171.7l-7.9,4l37,18.5l7.9-4L-448.3,171.7z"/>
			<path class="st7" d="M-456.2,175.7v21.2l37,18.5v-21.2L-456.2,175.7z"/>
			<path class="st7" d="M-427.2,182.3v37.1l42.3,21.2v-37.1L-427.2,182.3z"/>
			<path class="st7" d="M-374.2,197.9l-10.6,5.3v37l10.6-5.3V197.9z"/>
			<g transform="translate(70.520755, 53.132075)">
				
					<linearGradient id="SVGID_28_" gradientUnits="userSpaceOnUse" x1="-763.1509" y1="367.6405" x2="-762.1884" y2="366.6022" gradientTransform="matrix(18.5479 0 0 -17.1955 13699.1973 6498.8594)">
					<stop  offset="0" style="stop-color:#E6E6E5"/>
					<stop  offset="1" style="stop-color:#B4B4B4"/>
				</linearGradient>
				<path class="st34" d="M-455.4,176.8v7.9l18.5,9.3v-5.3L-455.4,176.8z"/>
				
					<linearGradient id="SVGID_29_" gradientUnits="userSpaceOnUse" x1="-760.7896" y1="359.405" x2="-759.9965" y2="358.0502" gradientTransform="matrix(15.843 0 0 -9.274 11617.6973 3520.4773)">
					<stop  offset="0" style="stop-color:#E6E6E5"/>
					<stop  offset="1" style="stop-color:#B4B4B4"/>
				</linearGradient>
				<path class="st35" d="M-436.8,188.6v5.3l15.8,4v-4L-436.8,188.6z"/>
				
					<linearGradient id="SVGID_30_" gradientUnits="userSpaceOnUse" x1="-752.9745" y1="359.0143" x2="-752.5389" y2="358.5152" gradientTransform="matrix(10.6264 0 0 -9.274 7583.4487 3520.4773)">
					<stop  offset="0" style="stop-color:#E6E6E5"/>
					<stop  offset="1" style="stop-color:#B4B4B4"/>
				</linearGradient>
				<path class="st36" d="M-421,194v4l10.6-5.2v-4.1L-421,194z"/>
				
					<linearGradient id="SVGID_31_" gradientUnits="userSpaceOnUse" x1="-767.1006" y1="360.9398" x2="-766.1006" y2="360.9398" gradientTransform="matrix(26.4694 0 0 -10.5298 19867.8848 3989.3264)">
					<stop  offset="0" style="stop-color:#FFFFFF"/>
					<stop  offset="1" style="stop-color:#F3F3F3"/>
				</linearGradient>
				<path class="st37" d="M-426.3,183.4l-10.5,5.2l15.8,5.3l10.6-5.3L-426.3,183.4z"/>
				
					<linearGradient id="SVGID_32_" gradientUnits="userSpaceOnUse" x1="-767.9334" y1="367.1048" x2="-766.9334" y2="367.1048" gradientTransform="matrix(29.0777 0 0 -17.0989 21874.3848 6457.1763)">
					<stop  offset="0" style="stop-color:#FFFFFF"/>
					<stop  offset="1" style="stop-color:#F3F3F3"/>
				</linearGradient>
				<path class="st38" d="M-444.8,171.6l-10.6,5.2l18.5,11.9l10.5-5.2L-444.8,171.6z"/>
			</g>
			<g transform="translate(70.520755, 28.981132)">
				
					<linearGradient id="SVGID_33_" gradientUnits="userSpaceOnUse" x1="-763.1171" y1="390.0002" x2="-762.2258" y2="388.8593" gradientTransform="matrix(18.5479 0 0 -14.4906 13699.1973 5828.1406)">
					<stop  offset="0" style="stop-color:#E6E6E5"/>
					<stop  offset="1" style="stop-color:#B4B4B4"/>
				</linearGradient>
				<path class="st39" d="M-455.4,177.2v7.9l18.5,6.6v-5.2L-455.4,177.2z"/>
				
					<linearGradient id="SVGID_34_" gradientUnits="userSpaceOnUse" x1="-760.9157" y1="391.7744" x2="-759.8723" y2="390.8131" gradientTransform="matrix(15.843 0 0 -17.1955 11617.6973 6923.8071)">
					<stop  offset="0" style="stop-color:#E6E6E5"/>
					<stop  offset="1" style="stop-color:#B4B4B4"/>
				</linearGradient>
				<path class="st40" d="M-436.8,186.4v5.2l15.8,12v-4L-436.8,186.4z"/>
				
					<linearGradient id="SVGID_35_" gradientUnits="userSpaceOnUse" x1="-752.978" y1="383.1692" x2="-752.5424" y2="382.67" gradientTransform="matrix(10.6264 0 0 -9.274 7583.4487 3750.1519)">
					<stop  offset="0" style="stop-color:#E6E6E5"/>
					<stop  offset="1" style="stop-color:#B4B4B4"/>
				</linearGradient>
				<path class="st41" d="M-421,199.7v4l10.6-5.3v-4L-421,199.7z"/>
				
					<linearGradient id="SVGID_36_" gradientUnits="userSpaceOnUse" x1="-767.9334" y1="389.5542" x2="-766.9334" y2="389.5542" gradientTransform="matrix(29.0777 0 0 -14.5872 21874.3848 5861.627)">
					<stop  offset="0" style="stop-color:#FFFFFF"/>
					<stop  offset="1" style="stop-color:#F3F3F3"/>
				</linearGradient>
				<path class="st42" d="M-444.8,171.8l-10.6,5.3l18.5,9.3l10.5-5.3L-444.8,171.8z"/>
				
					<linearGradient id="SVGID_37_" gradientUnits="userSpaceOnUse" x1="-767.1006" y1="392.0277" x2="-766.1006" y2="392.0277" gradientTransform="matrix(26.4694 0 0 -18.5479 19867.8848 7461.6895)">
					<stop  offset="0" style="stop-color:#FFFFFF"/>
					<stop  offset="1" style="stop-color:#F3F3F3"/>
				</linearGradient>
				<path class="st43" d="M-426.3,181.1l-10.5,5.3l15.8,13.2l10.6-5.3L-426.3,181.1z"/>
			</g>
			<g transform="translate(18.354717, 5.796226)">
				
					<linearGradient id="SVGID_38_" gradientUnits="userSpaceOnUse" x1="-719.644" y1="422.3076" x2="-718.4927" y2="421.4232" gradientTransform="matrix(52.8423 0 0 -68.7819 37567.5586 29224.7129)">
					<stop  offset="0" style="stop-color:#E6E6E5"/>
					<stop  offset="1" style="stop-color:#B4B4B4"/>
				</linearGradient>
				<path class="st44" d="M-456.1,173.6V216l52.8,26.4V200L-456.1,173.6z"/>
				
					<linearGradient id="SVGID_39_" gradientUnits="userSpaceOnUse" x1="-679.5795" y1="420.8111" x2="-675.3481" y2="420.3106" gradientTransform="matrix(5.3132 0 0 -44.9208 3198.9592 19111.8223)">
					<stop  offset="0" style="stop-color:#E6E6E5"/>
					<stop  offset="1" style="stop-color:#B4B4B4"/>
				</linearGradient>
				<path class="st45" d="M-403.2,200v42.3l5.3-2.6v-42.3L-403.2,200z"/>
				
					<linearGradient id="SVGID_40_" gradientUnits="userSpaceOnUse" x1="-719.8455" y1="419.2163" x2="-719.1405" y2="417.8064" gradientTransform="matrix(58.1555 0 0 -29.0777 41415.4844 12354.8809)">
					<stop  offset="0" style="stop-color:#FFFFFF"/>
					<stop  offset="1" style="stop-color:#F3F3F3"/>
				</linearGradient>
				<path class="st46" d="M-456.1,173.6l5.2-2.6l52.9,26.5l-5.3,2.6L-456.1,173.6z"/>
			</g>
		</g>
		
			<linearGradient id="SVGID_41_" gradientUnits="userSpaceOnUse" x1="-690.1334" y1="546.0955" x2="-689.6334" y2="545.0999" gradientTransform="matrix(21.1562 0 0 -10.6264 14194.4951 6014.9087)">
			<stop  offset="0" style="stop-color:#FFFFFF"/>
			<stop  offset="1" style="stop-color:#F3F3F3"/>
		</linearGradient>
		<path class="st47" d="M-411.4,217.1l10.6-5.3l10.5,5.3l-10.5,5.3L-411.4,217.1z"/>
	</g>
</g>
<path class="st48" d="M188,197.5c-0.7-18.1-16.6-21.9-16.6-21.9s-55.2-8.3-79.4-11.3c-24.2-3-22.7,20.4-22.7,20.4s5.5,170.9,6.1,192
	c0.6,25.2,24.2,21.2,24.2,21.2l83.2-14.4c15.1-3,15.9-21.9,15.9-21.9S188.8,217.3,188,197.5C187.3,179.4,188.8,217.3,188,197.5
	L188,197.5L188,197.5z M169.4,342.6l-61.9,6.4c0,0-18,2.7-18.4-19.1c-0.3-16.1-3.9-108.5-3.9-108.5s-1.2-16.9,17.3-15.5
	c18.9,1.4,64.2,4.9,64.2,4.9s12.1,2.9,12.7,16.7c0.6,15,5.8,98.5,5.8,98.5S186.7,339.7,169.4,342.6L169.4,342.6L169.4,342.6z"/>
<path class="st48" d="M18,317.7l-11.4,0.8c0,0-11.5,1.6-11.8-11.1c-0.2-9.3-1.3-62.1-1.3-62.1s-0.8-9.8,11.1-9c3,0.2,7.3,0.5,12,0.7
	c-0.2-8.7-0.3-16.4-0.4-22.2c-6.5-0.5-12.6-1-17-1.5c-15.7-1.7-14.7,11.4-14.7,11.4s1.9,96.8,2.2,108.6
	c0.4,14.1,15.7,11.8,15.7,11.8l16.3-1.7C18.4,336.7,18.2,327.7,18,317.7L18,317.7L18,317.7z"/>
<path class="st48" d="M63.5,229.8c-0.1-1.2-0.3-2.4-0.6-3.4c-5-0.4-17.6-3.7-21.6,0.6c-2.6,2.7-1.5,8.3-1.4,11.5
	c5.4,0.3,9.1,0.5,9.1,0.5s7.8,1.7,8.1,9.6c0.4,8.7,0.3,57.3,0.3,57.3s0.9,7.9-10.1,9.6l-5.8,0.4c0,1.7,0.1,3.1,0.1,4.1
	c0.2,13.9,15,9.4,24.2,8.5c0.8-14.7-0.6-29.9-0.9-44.6C64.4,266,64.3,247.9,63.5,229.8C63.4,228.5,64,240.8,63.5,229.8L63.5,229.8
	L63.5,229.8z"/>
<path class="st48" d="M68.3,334.3l-16.7,1.6c0,0-15.5,2.2-15.9-15.7c-0.2-13.2-1.8-88.1-1.8-88.1s-1.1-13.8,14.9-12.7
	c4.1,0.3,9.7,0.7,15.9,1.2c-0.5-14.4-0.8-25.7-1-31.5c-8.4-0.8-16.3-1.6-22.2-2.3c-21.1-2.4-19.7,16.2-19.7,16.2s2.5,137.4,3,154.2
	c0.6,20.1,21.1,16.8,21.1,16.8l23.6-3C69.1,363.2,68.7,350.1,68.3,334.3L68.3,334.3L68.3,334.3z"/>
<path class="st49" d="M102.2,211.7c-3-0.2-6.5,0-8.7,2.3c-2.3,2.4-2.3,5.9-2.2,9c8.4,0.7,14.4,1.3,14.4,1.3s10.4,2.3,10.9,13.7
	C117,250.2,120,317,120,317s1.2,11.2-13.7,13.7l-11.2,1.1c1.5,17.6,24.2,10.2,35.8,9c-1.2-26.4-4.9-108.1-5.7-127.3
	C116.4,212.8,108,212.1,102.2,211.7C101.6,211.7,108,212.1,102.2,211.7L102.2,211.7L102.2,211.7z"/>
</svg>
