<?xml version="1.0" encoding="utf-8"?>
<!-- Generator: Adobe Illustrator 19.0.0, SVG Export Plug-In . SVG Version: 6.00 Build 0)  -->
<svg version="1.1" id="Layer_1" 
	 xmlns="http://www.w3.org/2000/svg" xmlns:xlink="http://www.w3.org/1999/xlink" x="0px" y="0px" width="754px" height="519px"
	 viewBox="0 0 754 519" style="enable-background:new 0 0 754 519;" xml:space="preserve">
<style type="text/css">
	.st0{fill:#35539E;}
	.st1{fill:url(#SVGID_1_);}
	.st2{fill:#FF5F5F;}
	.st3{fill:#23CDE8;}
	.st4{fill:#F9486E;}
	.st5{fill:#71D152;}
	.st6{opacity:0.9;fill:#2F84C9;}
	.st7{opacity:0.9;fill:#FC75D9;}
	.st8{opacity:0.9;fill:#BFB0FF;}
	.st9{fill:#FFFFFF;}
	.st10{fill:#705A57;}
	.st11{fill:#FCA9A7;}
	.st12{fill:#47D2FC;}
	.st13{fill:url(#SVGID_2_);}
	.st14{fill:url(#SVGID_3_);}
	.st15{fill:url(#SVGID_4_);}
	.st16{filter:url(#Adobe_OpacityMaskFilter);}
	.st17{fill:url(#SVGID_6_);}
	.st18{opacity:0.8;mask:url(#SVGID_5_);fill:url(#SVGID_7_);}
	.st19{fill:url(#SVGID_8_);}
	.st20{fill:url(#SVGID_9_);}
	.st21{opacity:0.9;fill:url(#SVGID_10_);}
	.st22{fill:url(#SVGID_11_);}
	.st23{fill:url(#SVGID_12_);}
	.st24{fill:#5F6767;}
	.st25{fill:url(#SVGID_13_);}
	.st26{fill:url(#SVGID_14_);}
	.st27{fill:url(#SVGID_15_);}
	.st28{fill:url(#SVGID_16_);}
	.st29{fill:url(#SVGID_17_);}
	.st30{filter:url(#Adobe_OpacityMaskFilter_1_);}
	.st31{fill:url(#SVGID_19_);}
	.st32{opacity:0.8;mask:url(#SVGID_18_);fill:url(#SVGID_20_);}
	.st33{fill:#FF9045;}
	.st34{fill:#FC75D9;}
	.st35{fill:#2F84C9;}
	.st36{fill:url(#SVGID_21_);}
	.st37{filter:url(#Adobe_OpacityMaskFilter_2_);}
	.st38{fill:url(#SVGID_23_);}
	.st39{opacity:0.8;mask:url(#SVGID_22_);fill:url(#SVGID_24_);}
	.st40{filter:url(#Adobe_OpacityMaskFilter_3_);}
	.st41{fill:url(#SVGID_26_);}
	.st42{opacity:0.8;mask:url(#SVGID_25_);fill:url(#SVGID_27_);}
	.st43{fill:url(#SVGID_28_);}
	.st44{fill:#BFB0FF;}
</style>

<rect x="154.3" y="52.3" class="st0" width="448.2" height="256.3"/>
<linearGradient id="SVGID_1_" gradientUnits="userSpaceOnUse" x1="134" y1="183.5" x2="624" y2="183.5">
	<stop  offset="7.124010e-002" style="stop-color:#666666"/>
	<stop  offset="0.3272" style="stop-color:#333333"/>
	<stop  offset="1" style="stop-color:#000000"/>
</linearGradient>
<path class="st1" d="M609.2,38H383.6h-7.7H150.2c-8,0-16.2,4.6-16.2,12.6V329h490V50.6C624,42.6,617.3,38,609.2,38z M602,307H157V54
	h445V307z"/>
<rect x="220.3" y="82.2" class="st2" width="63.8" height="63.8"/>
<rect x="284.2" y="82.2" class="st3" width="63.8" height="63.8"/>
<rect x="347.6" y="82.2" class="st4" width="63.8" height="63.8"/>
<rect x="411.4" y="82.2" class="st5" width="64.1" height="63.8"/>
<rect x="220.2" y="150.2" class="st6" width="63.8" height="63.8"/>
<rect x="284.2" y="150.2" class="st7" width="63.8" height="63.8"/>
<rect x="347.9" y="150.2" class="st8" width="63.8" height="63.8"/>
<g>
	<path class="st9" d="M252.8,118.6l-3.4-3l-9.8,8.4c0.4,0.3,0.8,0.5,1.4,0.5h23.7c0.5,0,1-0.2,1.4-0.5l-9.8-8.4L252.8,118.6z"/>
	<path class="st9" d="M266,105.3c-0.4-0.3-0.8-0.5-1.4-0.5h-23.7c-0.5,0-1,0.2-1.4,0.5l13.2,11.3L266,105.3z"/>
	<polygon class="st9" points="238.9,106.5 238.9,123 248.5,114.8 	"/>
	<polygon class="st9" points="257.1,114.8 266.6,123 266.6,106.5 	"/>
</g>
<g>
	<polygon class="st9" points="316.1,120.1 324.7,111.5 319.5,111.5 319.5,101.3 312.7,101.3 312.7,111.5 307.6,111.5 	"/>
	<polygon class="st9" points="323,120.1 323,123.5 309.3,123.5 309.3,120.1 305.9,120.1 305.9,123.5 305.9,126.9 326.4,126.9 
		326.4,120.1 	"/>
</g>
<path class="st9" d="M382.7,111.9c1.5-1,2.5-2.7,2.5-4.6c0-3-2.5-5.5-5.5-5.5c-3,0-5.5,2.5-5.5,5.5c0,1.9,1,3.6,2.5,4.6
	c-3.6,0.3-6.4,3.3-6.4,7v5.7l0,0.1l0.4,0.1c3.7,1.2,6.9,1.5,9.6,1.5c5.2,0,8.2-1.5,8.3-1.6l0.4-0.2h0v-5.7
	C389.1,115.3,386.3,112.2,382.7,111.9z"/>
<path class="st9" d="M450.8,122.4c-0.3,0-0.6-0.1-0.9-0.4c-0.5-0.5-0.5-1.3,0-1.8c3.4-3.4,3.4-8.9,0-12.3c-0.5-0.5-0.5-1.3,0-1.8
	c0.5-0.5,1.3-0.5,1.8,0c2.1,2.1,3.3,4.9,3.3,7.9c0,3-1.2,5.8-3.3,7.9C451.4,122.2,451.1,122.4,450.8,122.4z M446.4,120
	c-0.3,0-0.6-0.1-0.9-0.4c-0.5-0.5-0.5-1.3,0-1.8c2.1-2.1,2.1-5.5,0-7.6c-0.5-0.5-0.5-1.3,0-1.8c0.5-0.5,1.3-0.5,1.8,0
	c3.1,3.1,3.1,8.1,0,11.1C447,119.9,446.7,120,446.4,120z M442.6,102.9c0.7-0.7,1.2-0.4,1.2,0.5v21.4c0,0.9-0.5,1.2-1.2,0.5l-6.2-6.2
	h-4.1v-9.9h4.1L442.6,102.9z"/>
<g>
	<path class="st9" d="M380.3,170.5c-0.4,0-0.8,0.2-1.1,0.5l-8,5.1H365c-0.4,0-0.8,0.2-1.1,0.5c-0.3,0.3-0.5,0.7-0.5,1.1v9.2
		c0,0.4,0.2,0.8,0.5,1.1c0.3,0.3,0.7,0.5,1.1,0.5h6.3l8,5.1c0.3,0.3,0.7,0.5,1.1,0.5c0.4,0,0.8-0.1,1.1-0.5c0.3-0.3,0.5-0.7,0.5-1.1
		V172c0-0.4-0.2-0.8-0.5-1.1C381.1,170.6,380.7,170.5,380.3,170.5z"/>
	<path class="st9" d="M388.9,185.5c0.7-1,1-2.2,1-3.4c0-1.2-0.3-2.3-1-3.4c-0.7-1.1-1.6-1.8-2.7-2.2c-0.2-0.1-0.4-0.1-0.6-0.1
		c-0.4,0-0.8,0.1-1.1,0.4c-0.3,0.3-0.5,0.7-0.5,1.1c0,0.3,0.1,0.6,0.3,0.8c0.2,0.2,0.4,0.4,0.7,0.6c0.3,0.2,0.5,0.4,0.8,0.6
		c0.3,0.2,0.5,0.5,0.7,0.8c0.2,0.4,0.3,0.8,0.3,1.4c0,0.5-0.1,1-0.3,1.4c-0.2,0.4-0.4,0.7-0.7,0.8c-0.3,0.2-0.5,0.4-0.8,0.6
		c-0.3,0.2-0.5,0.4-0.7,0.6c-0.2,0.2-0.3,0.5-0.3,0.8c0,0.4,0.2,0.8,0.5,1.1c0.3,0.3,0.7,0.4,1.1,0.4c0.2,0,0.4,0,0.6-0.1
		C387.3,187.3,388.2,186.6,388.9,185.5z"/>
	<path class="st9" d="M388.6,170.9c-0.2-0.1-0.4-0.1-0.6-0.1c-0.4,0-0.8,0.2-1.1,0.5c-0.3,0.3-0.5,0.7-0.5,1.1
		c0,0.6,0.3,1.1,0.9,1.4c0.9,0.5,1.5,0.8,1.8,1.1c1.2,0.9,2.1,1.9,2.8,3.2c0.7,1.3,1,2.7,1,4.2c0,1.5-0.3,2.9-1,4.2
		c-0.7,1.3-1.6,2.4-2.8,3.2c-0.3,0.2-0.9,0.6-1.8,1.1c-0.6,0.3-0.9,0.8-0.9,1.4c0,0.4,0.2,0.8,0.5,1.1c0.3,0.3,0.7,0.5,1.1,0.5
		c0.2,0,0.4,0,0.6-0.1c2.2-0.9,4-2.4,5.4-4.5c1.4-2.1,2-4.3,2-6.8c0-2.4-0.7-4.7-2-6.8C392.7,173.3,390.9,171.8,388.6,170.9z"/>
</g>
<path class="st9" d="M331.3,193.2l0-19.7c0-0.6-0.5-1.1-1.1-1.1h-13.9c-0.4,0-0.8-0.8-0.8-1.1v-0.1c0-0.6-0.5-1.2-1.2-1.2h-7.4
	c-0.6,0-1.2,0.5-1.2,1.2v0.1c0,0.3-0.3,1.1-0.8,1.1h0c-0.6,0-1.1,0.5-1.1,1.1l0,5.7h-2.4c0,0-1-0.1-0.7,1.2l2.5,12.8
	c0,0.6,0.5,1.2,1.1,1.2h26.3C331.4,194.3,331.3,193.2,331.3,193.2z M329.9,180.8l0,12.9l-2.5-13.8c-0.2-0.8-1.1-0.7-1.1-0.7h-21.1
	v-4.4h24.7L329.9,180.8L329.9,180.8z"/>
<rect x="475.4" y="82.2" class="st10" width="63.8" height="63.8"/>
<path class="st9" d="M512.3,101.1h-13.1c-0.9,0-1.6,0.7-1.6,1.6v22.8c0,0.9,0.7,1.6,1.6,1.6h16c0.9,0,1.6-0.7,1.6-1.6V106
	L512.3,101.1z M512.7,103.5l2,2.2h-2V103.5z M515.5,125.5c0,0.1-0.1,0.3-0.3,0.3h-16c-0.1,0-0.3-0.1-0.3-0.3v-22.8
	c0-0.1,0.1-0.3,0.3-0.3h12.1v3.9c0,0.4,0.3,0.7,0.7,0.7h3.5V125.5z M501.3,108.2h11.4c0.3,0,0.5,0.2,0.5,0.5c0,0.3-0.2,0.5-0.5,0.5
	h-11.4c-0.3,0-0.5-0.2-0.5-0.5C500.8,108.5,501.1,108.2,501.3,108.2z M513.2,112.1c0,0.3-0.2,0.5-0.5,0.5h-11.4
	c-0.3,0-0.5-0.2-0.5-0.5c0-0.3,0.2-0.5,0.5-0.5h11.4C513,111.6,513.2,111.8,513.2,112.1z M513.2,115.4c0,0.3-0.2,0.5-0.5,0.5h-11.4
	c-0.3,0-0.5-0.2-0.5-0.5c0-0.3,0.2-0.5,0.5-0.5h11.4C513,114.9,513.2,115.1,513.2,115.4z M513.2,118.7c0,0.3-0.2,0.5-0.5,0.5h-11.4
	c-0.3,0-0.5-0.2-0.5-0.5c0-0.3,0.2-0.5,0.5-0.5h11.4C513,118.2,513.2,118.4,513.2,118.7z"/>
<path class="st9" d="M259.1,172.9h-13.8c-1.3,0-2.3,1-2.3,2.3v0.8h18.4v-0.8C261.4,174,260.4,172.9,259.1,172.9z M255.1,171.4
	l0.3,2.4H249l0.3-2.4H255.1 M255.3,169.9h-6.1c-0.6,0-1.2,0.5-1.3,1.1l-0.4,3.2c-0.1,0.6,0.4,1.1,1,1.1h7.7c0.6,0,1.1-0.5,1-1.1
	l-0.4-3.2C256.5,170.4,255.9,169.9,255.3,169.9L255.3,169.9z M259.5,177.5h-14.6c-0.8,0-1.5,0.7-1.4,1.5l1.3,13.8
	c0.1,0.8,0.8,1.5,1.7,1.5H258c0.8,0,1.6-0.7,1.7-1.5l1.3-13.8C261,178.2,260.3,177.5,259.5,177.5z M249.1,191.3h-2.3l-0.8-10.7h3.1
	V191.3z M253.7,191.3h-3.1v-10.7h3.1V191.3z M257.6,191.3h-2.3v-10.7h3.1L257.6,191.3z"/>
<rect x="347.8" y="218.9" class="st11" width="63.2" height="63.2"/>
<g id="_x33_50._Repeat_2_">
	<g>
		<path class="st9" d="M374.1,256.9c-1.9-1.5-3.1-3.9-3.1-6.5c0-3.9,2.7-7.1,6.2-8v-2.1c-4.7,1-8.3,5.2-8.3,10.2
			c0,3.1,1.4,5.9,3.5,7.8C374.2,259.8,375.2,257.7,374.1,256.9z M386.1,242.6c-1.1-1-2.6,0.6-1.6,1.4c1.9,1.5,3.1,3.9,3.1,6.5
			c0,3.9-2.6,7.1-6.2,8v2.1c4.7-1,8.3-5.2,8.3-10.2C389.7,247.3,388.3,244.5,386.1,242.6z M378.2,244.2l3.4-2c0.5-0.3,0.5-0.8,0-1.1
			l-3.4-2.1c-0.5-0.3-0.9-0.1-0.9,0.5l0,4.2C377.3,244.3,377.7,244.5,378.2,244.2z M380.5,256.7l-3.4,2.1c-0.5,0.3-0.5,0.8,0,1.1
			l3.4,2c0.5,0.3,0.9,0.1,0.9-0.5l0-4.2C381.4,256.6,381,256.4,380.5,256.7z"/>
	</g>
</g>
<rect x="411.5" y="150.2" class="st12" width="63.8" height="63.8"/>
<g>
	<ellipse class="st9" cx="444.7" cy="168.4" rx="2.8" ry="2.8"/>
	<path class="st9" d="M451.6,176c-0.6-1.3-1.4-2.5-2.5-3.4c-0.1-0.1-0.2-0.2-0.4-0.2c0,0,0,0,0,0c-1.7-0.9-5.2-0.6-7-0.4
		c-0.1,0-0.2,0-0.3,0c-0.1,0-0.1,0-0.2,0c0,0-0.1,0-0.1,0v0c-1,0.2-2,0-3-0.3c-0.5-1.1-0.9-2.2-1.1-3.4c0-0.1,0-0.1,0-0.2l-0.5-2.3
		c0-0.2-0.2-0.3-0.5-0.3c-0.2,0-0.3,0.3-0.3,0.5l0.3,1.2c-0.8-0.1-1.7,0.4-1.6,1.5c0.2,1.2,0.6,2.4,1,3.6c0.3,0.6,0.5,1.5,1.2,1.8
		c1.3,0.5,2.8,0.8,4.2,0.7l-0.1,1c0,2,0,9.7,0,9.8l0.1,11.5c0,0.9,0.7,1.6,1.6,1.6c0.9,0,1.6-0.7,1.6-1.6v-11.2c0,0,0-0.6,0.6-0.5
		c0.6,0,0.6,0.6,0.6,0.6v11.2c0,0.9,0.7,1.6,1.6,1.6c0.9,0,1.5-0.7,1.5-1.6v-10.7l0-1.7c1.3-0.8,2.3-2,3-3.4
		c0.4-0.7,1.1-1.8,1.1-2.6C452.5,177.8,451.9,176.7,451.6,176z M449.7,178.8c-0.2,0.4-0.4,0.8-0.6,1.2c-0.2,0.4-0.5,0.8-0.7,1.1
		l0-5.4c0.6,0.9,1.1,1.9,1.4,3C449.8,178.7,449.8,178.8,449.7,178.8z M449.8,178.5C449.8,178.4,449.9,178.4,449.8,178.5L449.8,178.5
		z"/>
</g>
<rect x="219.5" y="218.9" class="st5" width="64.7" height="64.2"/>
<path class="st9" d="M261.3,248.1l-0.7-1.5c0,0,1.5-3.4,1.4-3.5l-2-2c-0.1-0.1-3.6,1.4-3.6,1.4l-1.6-0.6c0,0-1.4-3.5-1.6-3.5h-2.8
	c-0.2,0-1.5,3.5-1.5,3.5l-1.6,0.6c0,0-3.5-1.5-3.6-1.3l-2,2c-0.1,0.1,1.5,3.5,1.5,3.5l-0.7,1.5c0,0-3.6,1.4-3.6,1.5v2.8
	c0,0.2,3.6,1.5,3.6,1.5l0.7,1.5c0,0-1.5,3.4-1.4,3.5l2,2c0.1,0.1,3.6-1.4,3.6-1.4l1.6,0.6c0,0,1.4,3.5,1.6,3.5h2.8
	c0.2,0,1.5-3.5,1.5-3.5l1.6-0.6c0,0,3.5,1.5,3.6,1.4l2-2c0.1-0.1-1.5-3.5-1.5-3.5l0.7-1.5c0,0,3.6-1.4,3.6-1.6v-2.8
	C264.9,249.4,261.3,248.1,261.3,248.1z M256.1,251c0,2.2-1.9,4-4.2,4c-2.3,0-4.2-1.8-4.2-4c0-2.2,1.9-4,4.2-4
	C254.2,247,256.1,248.8,256.1,251z"/>
<rect x="283.2" y="218.9" class="st10" width="64.2" height="64.2"/>
<g>
	<polygon class="st9" points="321,251.5 308.1,251.5 308.1,253.5 309.4,253.5 309.4,263.5 318.7,263.5 318.7,253.5 321,253.5 	"/>
	<circle class="st9" cx="301.1" cy="240.7" r="2.3"/>
	<path class="st9" d="M332.9,249.1l-0.1,0.1c-1.4,1.1-2.8,5.7-3.3,7.3c-0.2,0-0.4,0-0.6,0c-2,0-3.8,1.4-3.9,1.5l-0.1,0.1l0.6,0.7
		l0.1-0.1c0,0,0.9-0.7,2-1.1v4.3l-1.3,0.7l0.4,0.8l1.2-0.7l1.2,0.9l0.6-0.7l-1.2-1v-4.5c0.1,0,0.3,0,0.4,0c0.3,0,0.5,0,0.8,0.1
		l0.4,0.1l0.1-0.4c0.7-2.4,2.1-6.5,3.1-7.3l0.1-0.1L332.9,249.1z"/>
	<path class="st9" d="M304.9,247.6c-1.2,0.6-2.3,0.6-3.2,0.1c0.1-0.6,0.3-1.1,0.4-1.7c0.4-1.2-0.7-2.5-1.8-2.7
		c-0.8-0.1-1.4,0.1-1.9,0.5c-0.1,0.1-0.3,0.2-0.3,0.2c-0.5,1.7-0.8,4.8-0.8,4.8c0,4.8,0.4,6,0.9,6.2c0,2.3,0,4.6,0,6.9
		c0,1.4,2.2,1.4,2.2,0c0-2.4,0-4.8,0-7.2l0.4,0c0.2-0.3,0.2-0.7,0.2-1.1c0-1.2,0.1-2.4,0.2-3.5c1.5,0.5,3.2,0.4,4.8-0.5
		C307.5,249,306.3,246.9,304.9,247.6z"/>
	<path class="st9" d="M329.6,253.9c0.1-1.6,0.6-3.2,1.7-4.4c2-2.1-1.2-5.3-3.2-3.2c-0.2,0.3-0.5,0.5-0.7,0.8c-1.8-0.2-3.5-0.4-5.2-1
		c-0.4-0.1-0.7-0.1-1,0.1l-4.6-4.5l-0.4,0.4l4.7,4.5c-0.3,0.6-0.1,1.5,0.7,1.7c1.5,0.5,3,0.8,4.5,0.9c-0.6,1.4-0.9,2.8-1,4.3
		c-3.3,1.4-5.2,4.4-5.7,8.1c-0.3,1.9,2.7,1.9,3,0c0.4-3,2.1-5,5-5.7C328.7,256.1,329.5,255.1,329.6,253.9z"/>
	<circle class="st9" cx="329.8" cy="243" r="2.3"/>
</g>
<radialGradient id="SVGID_2_" cx="456.1167" cy="455.3751" r="51.2453" gradientUnits="userSpaceOnUse">
	<stop  offset="0" style="stop-color:#FFFFFF"/>
	<stop  offset="1" style="stop-color:#FFFFFF;stop-opacity:0"/>
</radialGradient>
<path class="st13" d="M395.8,432c5.6-10,23.4-21.5,45.6-23.7c1,1.7,2.2,2.8,3.5,4.2c9.9,10.1,25.3,19.5-0.1,19.5H395.8z"/>
<linearGradient id="SVGID_3_" gradientUnits="userSpaceOnUse" x1="330.3525" y1="433.8784" x2="443.3955" y2="433.8784">
	<stop  offset="6.060610e-003" style="stop-color:#FFFFFF;stop-opacity:0"/>
	<stop  offset="0.5091" style="stop-color:#FFFFFF"/>
	<stop  offset="1" style="stop-color:#FFFFFF;stop-opacity:0"/>
</linearGradient>
<path class="st14" d="M330.4,433.9c9.4-0.2,18.8-0.2,28.3-0.3l28.3-0.1l28.3,0.1l14.1,0.1l14.1,0.2l-14.1,0.2l-14.1,0.1l-28.3,0.1
	l-28.3-0.1C349.2,434.1,339.8,434,330.4,433.9z"/>
<linearGradient id="SVGID_4_" gradientUnits="userSpaceOnUse" x1="146.9341" y1="377.1675" x2="647.0334" y2="344.3866">
	<stop  offset="0" style="stop-color:#78797D"/>
	<stop  offset="0.3173" style="stop-color:#737478"/>
	<stop  offset="0.4909" style="stop-color:#6D6F73"/>
	<stop  offset="1" style="stop-color:#6D6F73"/>
</linearGradient>
<path class="st15" d="M155,368.6c0,7.5,7.6,13.4,15.2,13.4h211.9h7.2h211.9c7.5,0,13.8-5.9,13.8-13.4V342H155V368.6z"/>
<defs>
	<filter id="Adobe_OpacityMaskFilter" filterUnits="userSpaceOnUse" x="258.3" y="418.9" width="245.6" height="26.6">
		<feColorMatrix  type="matrix" values="1 0 0 0 0  0 1 0 0 0  0 0 1 0 0  0 0 0 1 0"/>
	</filter>
</defs>
<mask maskUnits="userSpaceOnUse" x="258.3" y="418.9" width="245.6" height="26.6" id="SVGID_5_">
	<g class="st16">
		
			<radialGradient id="SVGID_6_" cx="381.1584" cy="1607.8395" r="122.7973" gradientTransform="matrix(1 0 0 0.1084 0 257.9348)" gradientUnits="userSpaceOnUse">
			<stop  offset="0" style="stop-color:#FFFFFF"/>
			<stop  offset="1" style="stop-color:#14130A"/>
		</radialGradient>
		<path class="st17" d="M504,432.2c0,7.4-55,13.3-122.8,13.3c-67.8,0-122.8-6-122.8-13.3c0-7.4,55-13.3,122.8-13.3
			C449,418.9,504,424.9,504,432.2z"/>
	</g>
</mask>
<linearGradient id="SVGID_7_" gradientUnits="userSpaceOnUse" x1="381.1964" y1="445.5009" x2="381.121" y2="419.1378">
	<stop  offset="0" style="stop-color:#4D4848"/>
	<stop  offset="0.3539" style="stop-color:#14130A"/>
	<stop  offset="1" style="stop-color:#14130A"/>
</linearGradient>
<path class="st18" d="M504,432.2c0,7.4-55,13.3-122.8,13.3c-67.8,0-122.8-6-122.8-13.3c0-7.4,55-13.3,122.8-13.3
	C449,418.9,504,424.9,504,432.2z"/>
<linearGradient id="SVGID_8_" gradientUnits="userSpaceOnUse" x1="380.9308" y1="367.1428" x2="380.9308" y2="432.755">
	<stop  offset="8.484850e-002" style="stop-color:#6D6F73"/>
	<stop  offset="0.127" style="stop-color:#97999C"/>
	<stop  offset="0.1841" style="stop-color:#CCCDCE"/>
	<stop  offset="0.2121" style="stop-color:#E0E1E2"/>
	<stop  offset="0.3152" style="stop-color:#A7A9AC"/>
	<stop  offset="0.3893" style="stop-color:#868789"/>
	<stop  offset="0.4606" style="stop-color:#636363"/>
	<stop  offset="0.5264" style="stop-color:#6E6F6F"/>
	<stop  offset="0.6452" style="stop-color:#8B8D8F"/>
	<stop  offset="0.7394" style="stop-color:#A6AAAD"/>
</linearGradient>
<path class="st19" d="M442,405.1c-10.7-10.9-11.1-34.1-11.1-34.1h-48.1h-3.6H331c0,0-0.4,23.2-11.1,34.1
	c-10.7,10.9-27.5,19.9,1.6,19.9c23.2,0,48.4,0,57.6,0c2.3,0,3.6,0,3.6,0c9.2,0,34.4,0,57.6,0C469.5,425,452.7,416,442,405.1z"/>
<linearGradient id="SVGID_9_" gradientUnits="userSpaceOnUse" x1="125.5036" y1="366.1462" x2="658.0946" y2="331.2355">
	<stop  offset="0" style="stop-color:#898A8F"/>
	<stop  offset="4.993153e-002" style="stop-color:#909196"/>
	<stop  offset="0.3137" style="stop-color:#B1B2B6"/>
	<stop  offset="0.5663" style="stop-color:#C8CACD"/>
	<stop  offset="0.801" style="stop-color:#D6D8DB"/>
	<stop  offset="1" style="stop-color:#DBDDE0"/>
</linearGradient>
<path class="st20" d="M134,355.6c0,8,8.2,15.4,16.2,15.4h225.7h7.7h225.7c8,0,14.8-7.4,14.8-15.4V329H134V355.6z"/>
<path class="st9" d="M667.1,285.2c-6.3-6.3-16.5-6.3-22.8,0l-2.5-2.5c7.7-7.7,20.2-7.7,27.9,0L667.1,285.2L667.1,285.2z
	 M665.8,286.5l-2.5,2.5c-4.2-4.2-11-4.2-15.2,0l-2.5-2.5C651.1,280.9,660.2,280.9,665.8,286.5z M662,290.3l-2.5,2.5
	c-2.1-2.1-5.5-2.1-7.6,0l-2.5-2.5C652.9,286.8,658.5,286.8,662,290.3z M655.7,293c2,0,3.6,1.6,3.6,3.6c0,2-1.6,3.6-3.6,3.6
	c-2,0-3.6-1.6-3.6-3.6C652.1,294.7,653.7,293,655.7,293z"/>
<g>
	<rect x="549.9" y="261.3" class="st12" width="70.4" height="70.4"/>
	<g>
		<ellipse class="st9" cx="586.6" cy="281.4" rx="3" ry="3.1"/>
		<path class="st9" d="M594.2,289.7c-0.7-1.4-1.5-2.8-2.7-3.8c-0.1-0.1-0.3-0.2-0.4-0.2c0,0,0,0,0,0c-1.9-1-5.8-0.7-7.7-0.4
			c-0.1,0-0.2,0-0.4,0.1c-0.1,0-0.2,0-0.2,0c0,0-0.1,0-0.2,0v0c-1.1,0.2-2.2,0-3.3-0.3c-0.5-1.2-1-2.5-1.2-3.8c0-0.1,0-0.1,0-0.2
			l-0.6-2.5c0-0.2-0.3-0.4-0.5-0.3c-0.2,0.1-0.4,0.3-0.3,0.5l0.3,1.4c-0.9-0.2-1.9,0.5-1.7,1.6c0.2,1.3,0.6,2.7,1.2,3.9
			c0.3,0.7,0.6,1.6,1.3,1.9c1.4,0.6,3.1,0.9,4.7,0.8l-0.1,1.1c0,2.3,0,10.7,0,10.9l0.1,12.7c0,1,0.8,1.8,1.8,1.8
			c1,0,1.8-0.8,1.8-1.8v-12.3c0,0,0-0.6,0.6-0.6c0.6,0,0.7,0.6,0.7,0.6v12.3c0,1,0.8,1.8,1.8,1.8c1,0,1.7-0.8,1.7-1.8v-11.8l0-1.9
			c1.4-0.9,2.5-2.2,3.3-3.7c0.4-0.8,1.2-1.9,1.2-2.9C595.2,291.8,594.6,290.6,594.2,289.7z M592.1,292.9c-0.2,0.4-0.4,0.9-0.6,1.3
			c-0.2,0.4-0.5,0.8-0.8,1.2l0-6c0.7,1,1.2,2.1,1.5,3.3C592.2,292.8,592.2,292.8,592.1,292.9z M592.3,292.6
			C592.3,292.4,592.3,292.4,592.3,292.6L592.3,292.6z"/>
	</g>
	<linearGradient id="SVGID_10_" gradientUnits="userSpaceOnUse" x1="586.8152" y1="306.187" x2="625.8488" y2="353.2658">
		<stop  offset="0" style="stop-color:#90AEE4"/>
		<stop  offset="0.1672" style="stop-color:#A0BAE8"/>
		<stop  offset="0.4586" style="stop-color:#B6CAED"/>
		<stop  offset="0.7405" style="stop-color:#C3D4F0"/>
		<stop  offset="1" style="stop-color:#C7D7F1"/>
	</linearGradient>
	<polygon class="st21" points="582.4,314.9 595.8,331.8 620.3,331.8 613.9,325.1 590.7,301.2 589,314.9 	"/>
</g>
<radialGradient id="SVGID_11_" cx="147.3039" cy="511.778" r="60.8906" gradientTransform="matrix(-1 0 0 1 794.9258 0)" gradientUnits="userSpaceOnUse">
	<stop  offset="0" style="stop-color:#FFFFFF"/>
	<stop  offset="1" style="stop-color:#FFFFFF;stop-opacity:0"/>
</radialGradient>
<path class="st22" d="M718.6,484c-6.6-13-27.5-25.6-53.6-28.1c-1.2,2-2.6,3.5-4.1,5.1c-11.6,11.8-29.7,23,0.1,23H718.6z"/>
<linearGradient id="SVGID_12_" gradientUnits="userSpaceOnUse" x1="353.7495" y1="370.232" x2="677.0625" y2="370.232">
	<stop  offset="7.124010e-002" style="stop-color:#666666"/>
	<stop  offset="0.3272" style="stop-color:#333333"/>
	<stop  offset="1" style="stop-color:#000000"/>
</linearGradient>
<path class="st23" d="M677.1,469.2c0,5.5-3.3,10-7.4,10H361.2c-4.1,0-7.4-4.5-7.4-10V271.3c0-5.5,3.3-10,7.4-10h308.5
	c4.1,0,7.4,4.5,7.4,10V469.2z"/>
<rect x="366.6" y="273.3" class="st0" width="298.4" height="184"/>
<g>
	<g>
		<path class="st24" d="M298.7,482.2c0,0-2.7,5,16.4,9.2h400.1c0,0,13.4-0.9,16.9-7.2l0-3.5L298.7,482.2z"/>
		<linearGradient id="SVGID_13_" gradientUnits="userSpaceOnUse" x1="298.498" y1="478.2796" x2="732.3163" y2="478.2796">
			<stop  offset="0" style="stop-color:#999C9D"/>
			<stop  offset="9.591109e-004" style="stop-color:#A5A7A9"/>
			<stop  offset="3.722234e-003" style="stop-color:#C2C3C5"/>
			<stop  offset="6.672361e-003" style="stop-color:#D9D8DA"/>
			<stop  offset="9.857776e-003" style="stop-color:#E9E7EA"/>
			<stop  offset="1.344703e-002" style="stop-color:#F2F0F3"/>
			<stop  offset="1.829270e-002" style="stop-color:#F5F3F6"/>
			<stop  offset="4.878050e-002" style="stop-color:#DFE1E3"/>
			<stop  offset="0.189" style="stop-color:#D1D1D1"/>
			<stop  offset="0.5061" style="stop-color:#E3E5E7"/>
			<stop  offset="0.872" style="stop-color:#D1D1D1"/>
			<stop  offset="0.9512" style="stop-color:#DFE1E3"/>
			<stop  offset="0.9878" style="stop-color:#F5F3F6"/>
			<stop  offset="1" style="stop-color:#999C9D"/>
		</linearGradient>
		<path class="st25" d="M298.8,472h433.5v11.1c0,0,0.6,1.5-4.5,1.1h-425c0,0-4,1.1-4.4-1.5L298.8,472z"/>
		<path class="st24" d="M712.2,478.5c0,0.4-0.3,0.8-0.6,0.8h-14.8c-0.4,0-0.6-0.3-0.6-0.8l0,0c0-0.4,0.3-0.8,0.6-0.8h14.8
			C711.9,477.8,712.2,478.1,712.2,478.5L712.2,478.5z"/>
	</g>
	<linearGradient id="SVGID_14_" gradientUnits="userSpaceOnUse" x1="515.418" y1="478.2709" x2="515.418" y2="472.127">
		<stop  offset="0.3415" style="stop-color:#676B6C"/>
		<stop  offset="0.3611" style="stop-color:#707475"/>
		<stop  offset="0.4574" style="stop-color:#989B9C"/>
		<stop  offset="0.5524" style="stop-color:#B7B9BB"/>
		<stop  offset="0.6444" style="stop-color:#CDCFD1"/>
		<stop  offset="0.7321" style="stop-color:#DADDDE"/>
		<stop  offset="0.811" style="stop-color:#DFE1E3"/>
		<stop  offset="0.9817" style="stop-color:#E3E5E7"/>
	</linearGradient>
	<path class="st26" d="M486.1,472.1c0,0-1.7,5.6,3.9,6.1h50.3c0,0,5.4,0.7,4.6-5.9L486.1,472.1z"/>
	<g>
		<linearGradient id="SVGID_15_" gradientUnits="userSpaceOnUse" x1="487.2795" y1="477.7314" x2="487.2795" y2="471.9863">
			<stop  offset="2.439020e-002" style="stop-color:#5F6767"/>
			<stop  offset="0.4756" style="stop-color:#676B6C"/>
			<stop  offset="0.5137" style="stop-color:#717576"/>
			<stop  offset="0.6192" style="stop-color:#878A8B"/>
			<stop  offset="0.7202" style="stop-color:#949899"/>
			<stop  offset="0.811" style="stop-color:#999C9D"/>
		</linearGradient>
		<path class="st27" d="M486.4,472.1L486.4,472.1l0.1-0.1l-0.6,0c0,0-1.5,4.8,3.2,5.7C485,476.6,486.4,472.1,486.4,472.1z"/>
		<linearGradient id="SVGID_16_" gradientUnits="userSpaceOnUse" x1="517.1087" y1="478.013" x2="517.1087" y2="472.2939">
			<stop  offset="2.439020e-002" style="stop-color:#5F6767"/>
			<stop  offset="0.4756" style="stop-color:#676B6C"/>
			<stop  offset="0.5137" style="stop-color:#717576"/>
			<stop  offset="0.6192" style="stop-color:#878A8B"/>
			<stop  offset="0.7202" style="stop-color:#949899"/>
			<stop  offset="0.811" style="stop-color:#999C9D"/>
		</linearGradient>
		<path class="st28" d="M545.2,472.3l-0.5,0v0.1c0.4,6.3-4.7,5.4-4.7,5.4h-50.3c-0.3,0-0.5-0.1-0.7-0.1c0.4,0.1,0.8,0.2,1.3,0.2
			h50.3C540.6,478,545.8,478.9,545.2,472.3z"/>
		<linearGradient id="SVGID_17_" gradientUnits="userSpaceOnUse" x1="544.6499" y1="472.4277" x2="544.6499" y2="472.2939">
			<stop  offset="2.439020e-002" style="stop-color:#5F6767"/>
			<stop  offset="0.4756" style="stop-color:#676B6C"/>
			<stop  offset="0.5137" style="stop-color:#717576"/>
			<stop  offset="0.6192" style="stop-color:#878A8B"/>
			<stop  offset="0.7202" style="stop-color:#949899"/>
			<stop  offset="0.811" style="stop-color:#999C9D"/>
		</linearGradient>
		<path class="st29" d="M544.7,472.4v-0.1h0C544.6,472.3,544.6,472.4,544.7,472.4z"/>
	</g>
</g>
<defs>
	<filter id="Adobe_OpacityMaskFilter_1_" filterUnits="userSpaceOnUse" x="267.9" y="481.7" width="478.1" height="20.4">
		<feColorMatrix  type="matrix" values="1 0 0 0 0  0 1 0 0 0  0 0 1 0 0  0 0 0 1 0"/>
	</filter>
</defs>
<mask maskUnits="userSpaceOnUse" x="267.9" y="481.7" width="478.1" height="20.4" id="SVGID_18_">
	<g class="st30">
		
			<radialGradient id="SVGID_19_" cx="416.2339" cy="2263.9009" r="96.3463" gradientTransform="matrix(2.4814 0 0 0.106 -525.9269 251.9811)" gradientUnits="userSpaceOnUse">
			<stop  offset="0" style="stop-color:#FFFFFF"/>
			<stop  offset="1" style="stop-color:#14130A"/>
		</radialGradient>
		<path class="st31" d="M746,492c0,5.6-107,10.2-239.1,10.2c-132,0-239.1-4.6-239.1-10.2s107-10.2,239.1-10.2
			C638.9,481.7,746,486.3,746,492z"/>
	</g>
</mask>
<linearGradient id="SVGID_20_" gradientUnits="userSpaceOnUse" x1="506.9452" y1="502.162" x2="506.8872" y2="481.8928">
	<stop  offset="0" style="stop-color:#4D4848"/>
	<stop  offset="0.3539" style="stop-color:#14130A"/>
	<stop  offset="1" style="stop-color:#14130A"/>
</linearGradient>
<path class="st32" d="M746,492c0,5.6-107,10.2-239.1,10.2c-132,0-239.1-4.6-239.1-10.2s107-10.2,239.1-10.2
	C638.9,481.7,746,486.3,746,492z"/>
<rect x="414.3" y="301.5" class="st33" width="51.2" height="51.2"/>
<rect x="465.6" y="301.5" class="st10" width="51.2" height="51.2"/>
<rect x="516.8" y="301.5" class="st12" width="51.2" height="51.2"/>
<g>
	<g>
		<g>
			<path class="st9" d="M434.2,326.5v3.6h-3.1v-3.6H434.2 M435.1,325.2h-4.9c-0.3,0-0.5,0.2-0.5,0.5v10.7c0,0.3,0.2,0.5,0.5,0.5h4.9
				c0.3,0,0.5-0.2,0.5-0.5v-10.7C435.6,325.4,435.4,325.2,435.1,325.2L435.1,325.2z"/>
		</g>
	</g>
	<g>
		<g>
			<path class="st9" d="M441.4,323.8v7.2h-3.1v-7.2H441.4 M442.3,322.4h-4.9c-0.3,0-0.5,0.2-0.5,0.5v13.4c0,0.3,0.2,0.5,0.5,0.5h4.9
				c0.3,0,0.5-0.2,0.5-0.5v-13.4C442.8,322.6,442.6,322.4,442.3,322.4L442.3,322.4z"/>
		</g>
	</g>
	<g>
		<g>
			<path class="st9" d="M448.7,318.9v8.9h-3.1v-8.9H448.7 M449.6,317.6h-4.9c-0.3,0-0.5,0.2-0.5,0.5v18.3c0,0.3,0.2,0.5,0.5,0.5h4.9
				c0.3,0,0.5-0.2,0.5-0.5V318C450.1,317.8,449.9,317.6,449.6,317.6L449.6,317.6z"/>
		</g>
	</g>
</g>
<path class="st9" d="M501,324.1c-0.8,0-1.4,0.6-1.4,1.4c0,0.8,0.6,1.4,1.4,1.4c0.8,0,1.4-0.6,1.4-1.4
	C502.4,324.7,501.8,324.1,501,324.1z M481.4,324.1c-0.8,0-1.4,0.6-1.4,1.4c0,0.8,0.6,1.4,1.4,1.4c0.8,0,1.4-0.6,1.4-1.4
	C482.8,324.7,482.2,324.1,481.4,324.1z M496.9,321.6c-1.1,0-2,0.9-2,2c0,1.1,0.9,2,2,2c1.1,0,2-0.9,2-2S498.1,321.6,496.9,321.6z
	 M503.2,334h-2.3v-4.3c0-0.7-0.2-1.4-0.6-2c0.2-0.1,0.4-0.1,0.6-0.1c1.2,0,2.2,1,2.2,2.2V334z M485.5,321.6c-1.1,0-2,0.9-2,2
	c0,1.1,0.9,2,2,2c1.1,0,2-0.9,2-2S486.6,321.6,485.5,321.6z M481.4,327.6c0.2,0,0.4,0,0.6,0.1c-0.3,0.6-0.6,1.3-0.6,2v4.3h-2.3v-4.1
	C479.2,328.6,480.2,327.6,481.4,327.6z M491.2,317.6c-1.7,0-3,1.3-3,3c0,1.7,1.3,3,3,3c1.7,0,3-1.3,3-3
	C494.2,318.9,492.9,317.6,491.2,317.6z M500.2,335.6h-3.5v-6.5c0-0.9-0.2-1.7-0.6-2.5c0.3-0.1,0.6-0.1,0.9-0.1
	c1.8,0,3.2,1.5,3.2,3.2V335.6z M485.8,329.1v6.5h-3.5v-5.8c0-1.8,1.5-3.2,3.2-3.2c0.3,0,0.6,0.1,0.9,0.1
	C486,327.4,485.8,328.2,485.8,329.1z M486.5,337.4h9.4v-8.3c0-2.6-2.1-4.7-4.7-4.7c-2.6,0-4.7,2.1-4.7,4.7V337.4z"/>
<path class="st9" d="M549.8,324.8l-0.5-1.2c0,0,1.2-2.7,1.1-2.8l-1.6-1.6c-0.1-0.1-2.8,1.1-2.8,1.1l-1.3-0.5c0,0-1.1-2.8-1.3-2.8
	h-2.3c-0.2,0-1.2,2.8-1.2,2.8l-1.3,0.5c0,0-2.8-1.2-2.9-1.1l-1.6,1.6c-0.1,0.1,1.2,2.8,1.2,2.8l-0.5,1.2c0,0-2.8,1.1-2.8,1.2v2.2
	c0,0.2,2.8,1.2,2.8,1.2l0.5,1.2c0,0-1.2,2.7-1.1,2.8l1.6,1.6c0.1,0.1,2.8-1.1,2.8-1.1l1.3,0.5c0,0,1.1,2.8,1.3,2.8h2.3
	c0.2,0,1.2-2.8,1.2-2.8l1.3-0.5c0,0,2.8,1.2,2.9,1.1l1.6-1.6c0.1-0.1-1.2-2.8-1.2-2.8l0.5-1.2c0,0,2.8-1.1,2.8-1.2V326
	C552.6,325.8,549.8,324.8,549.8,324.8z M545.7,327.1c0,1.8-1.5,3.2-3.3,3.2c-1.8,0-3.3-1.4-3.3-3.2c0-1.8,1.5-3.2,3.3-3.2
	C544.2,323.9,545.7,325.4,545.7,327.1z"/>
<rect x="414.6" y="357.7" class="st3" width="50.8" height="50.8"/>
<rect x="465.4" y="357.6" class="st34" width="50.8" height="50.8"/>
<rect x="516.2" y="357.6" class="st35" width="50.8" height="50.8"/>
<g>
	<path class="st9" d="M491.2,373.8c-0.3,0-0.6,0.1-0.9,0.4l-6.3,4.1h-5c-0.3,0-0.6,0.1-0.9,0.4c-0.2,0.2-0.4,0.5-0.4,0.9v7.3
		c0,0.3,0.1,0.6,0.4,0.9c0.2,0.2,0.5,0.4,0.9,0.4h5l6.3,4.1c0.2,0.2,0.5,0.4,0.9,0.4c0.3,0,0.6-0.1,0.9-0.4c0.2-0.2,0.4-0.5,0.4-0.9
		V375c0-0.3-0.1-0.6-0.4-0.9C491.8,373.9,491.5,373.8,491.2,373.8z"/>
	<path class="st9" d="M498,385.8c0.5-0.8,0.8-1.7,0.8-2.7c0-1-0.3-1.9-0.8-2.7c-0.5-0.8-1.3-1.4-2.1-1.8c-0.1-0.1-0.3-0.1-0.5-0.1
		c-0.3,0-0.6,0.1-0.9,0.4c-0.2,0.2-0.4,0.5-0.4,0.9c0,0.3,0.1,0.5,0.2,0.7c0.2,0.2,0.3,0.3,0.6,0.5c0.2,0.1,0.4,0.3,0.6,0.4
		c0.2,0.2,0.4,0.4,0.6,0.7c0.2,0.3,0.2,0.7,0.2,1.1c0,0.4-0.1,0.8-0.2,1.1c-0.2,0.3-0.3,0.5-0.6,0.7c-0.2,0.2-0.4,0.3-0.6,0.4
		c-0.2,0.1-0.4,0.3-0.6,0.5c-0.2,0.2-0.2,0.4-0.2,0.7c0,0.3,0.1,0.6,0.4,0.9c0.2,0.2,0.5,0.4,0.9,0.4c0.2,0,0.3,0,0.5-0.1
		C496.8,387.2,497.5,386.6,498,385.8z"/>
	<path class="st9" d="M497.8,374.1c-0.2-0.1-0.3-0.1-0.5-0.1c-0.3,0-0.6,0.1-0.9,0.4c-0.2,0.2-0.4,0.5-0.4,0.9
		c0,0.5,0.2,0.9,0.7,1.1c0.7,0.4,1.2,0.6,1.4,0.8c0.9,0.7,1.7,1.5,2.2,2.6c0.5,1,0.8,2.1,0.8,3.3c0,1.2-0.3,2.3-0.8,3.3
		c-0.5,1-1.3,1.9-2.2,2.6c-0.3,0.2-0.7,0.5-1.4,0.8c-0.5,0.3-0.7,0.6-0.7,1.1c0,0.3,0.1,0.6,0.4,0.9c0.2,0.2,0.5,0.4,0.9,0.4
		c0.2,0,0.3,0,0.5-0.1c1.8-0.7,3.2-1.9,4.3-3.6c1.1-1.6,1.6-3.4,1.6-5.4c0-1.9-0.5-3.7-1.6-5.4C501,376,499.6,374.8,497.8,374.1z"/>
</g>
<path class="st9" d="M545.6,372.7h-10.4c-0.7,0-1.3,0.6-1.3,1.3v18.1c0,0.7,0.6,1.3,1.3,1.3h12.7c0.7,0,1.3-0.6,1.3-1.3v-15.5
	L545.6,372.7z M545.9,374.6l1.6,1.7h-1.6V374.6z M548.1,392.1c0,0.1-0.1,0.2-0.2,0.2h-12.7c-0.1,0-0.2-0.1-0.2-0.2V374
	c0-0.1,0.1-0.2,0.2-0.2h9.6v3.1c0,0.3,0.2,0.5,0.5,0.5h2.8V392.1z M536.9,378.4h9c0.2,0,0.4,0.2,0.4,0.4c0,0.2-0.2,0.4-0.4,0.4h-9
	c-0.2,0-0.4-0.2-0.4-0.4C536.5,378.6,536.7,378.4,536.9,378.4z M546.3,381.5c0,0.2-0.2,0.4-0.4,0.4h-9c-0.2,0-0.4-0.2-0.4-0.4
	c0-0.2,0.2-0.4,0.4-0.4h9C546.1,381.1,546.3,381.2,546.3,381.5z M546.3,384.1c0,0.2-0.2,0.4-0.4,0.4h-9c-0.2,0-0.4-0.2-0.4-0.4
	c0-0.2,0.2-0.4,0.4-0.4h9C546.1,383.7,546.3,383.8,546.3,384.1z M546.3,386.7c0,0.2-0.2,0.4-0.4,0.4h-9c-0.2,0-0.4-0.2-0.4-0.4
	c0-0.2,0.2-0.4,0.4-0.4h9C546.1,386.3,546.3,386.5,546.3,386.7z"/>
<path class="st9" d="M452.1,391.8l0-15.7c0-0.5-0.4-0.9-0.9-0.9h-11.1c-0.3,0-0.6-0.6-0.6-0.9v-0.1c0-0.5-0.4-0.9-0.9-0.9h-5.9
	c-0.5,0-0.9,0.4-0.9,0.9v0.1c0,0.2-0.3,0.9-0.6,0.9h0c-0.5,0-0.9,0.4-0.9,0.9l0,4.5h-1.9c0,0-0.8,0-0.5,0.9l2,10.2
	c0,0.5,0.4,0.9,0.9,0.9h20.9C452.2,392.8,452.1,391.8,452.1,391.8z M451.1,382l0,10.3l-2-11c-0.2-0.6-0.8-0.6-0.8-0.6h-16.8v-3.5
	h19.6L451.1,382L451.1,382z"/>
<rect x="48.8" y="249.8" class="st0" width="126.6" height="168.3"/>
<linearGradient id="SVGID_21_" gradientUnits="userSpaceOnUse" x1="34.792" y1="333.6538" x2="191.5576" y2="333.6538">
	<stop  offset="7.124010e-002" style="stop-color:#666666"/>
	<stop  offset="0.3272" style="stop-color:#333333"/>
	<stop  offset="1" style="stop-color:#000000"/>
</linearGradient>
<path class="st36" d="M191.6,240.1c0-4.5-3.7-8.2-8.2-8.2H43c-4.5,0-8.2,3.7-8.2,8.2v187c0,4.5,3.7,8.2,8.2,8.2h140.3
	c4.5,0,8.2-3.7,8.2-8.2V240.1z M175.4,418.1H50.4V249.8h125.1V418.1z"/>
<defs>
	<filter id="Adobe_OpacityMaskFilter_2_" filterUnits="userSpaceOnUse" x="24.9" y="431" width="175.2" height="17.6">
		<feColorMatrix  type="matrix" values="1 0 0 0 0  0 1 0 0 0  0 0 1 0 0  0 0 0 1 0"/>
	</filter>
</defs>
<mask maskUnits="userSpaceOnUse" x="24.9" y="431" width="175.2" height="17.6" id="SVGID_22_">
	<g class="st37">
		
			<radialGradient id="SVGID_23_" cx="112.5412" cy="1474.4861" r="87.6235" gradientTransform="matrix(1 0 0 0.1002 0 292.0514)" gradientUnits="userSpaceOnUse">
			<stop  offset="0" style="stop-color:#FFFFFF"/>
			<stop  offset="1" style="stop-color:#14130A"/>
		</radialGradient>
		<path class="st38" d="M200.2,439.8c0,4.9-39.2,8.8-87.6,8.8c-48.4,0-87.6-3.9-87.6-8.8c0-4.9,39.2-8.8,87.6-8.8
			C160.9,431,200.2,434.9,200.2,439.8z"/>
	</g>
</mask>
<linearGradient id="SVGID_24_" gradientUnits="userSpaceOnUse" x1="112.5663" y1="448.5537" x2="112.5165" y2="431.1611">
	<stop  offset="0" style="stop-color:#4D4848"/>
	<stop  offset="0.3539" style="stop-color:#14130A"/>
	<stop  offset="1" style="stop-color:#14130A"/>
</linearGradient>
<path class="st39" d="M200.2,439.8c0,4.9-39.2,8.8-87.6,8.8c-48.4,0-87.6-3.9-87.6-8.8c0-4.9,39.2-8.8,87.6-8.8
	C160.9,431,200.2,434.9,200.2,439.8z"/>
<defs>
	<filter id="Adobe_OpacityMaskFilter_3_" filterUnits="userSpaceOnUse" x="147.7" y="441.5" width="105" height="9">
		<feColorMatrix  type="matrix" values="1 0 0 0 0  0 1 0 0 0  0 0 1 0 0  0 0 0 1 0"/>
	</filter>
</defs>
<mask maskUnits="userSpaceOnUse" x="147.7" y="441.5" width="105" height="9" id="SVGID_25_">
	<g class="st40">
		
			<radialGradient id="SVGID_26_" cx="210.4198" cy="1907.0095" r="50.1545" gradientTransform="matrix(1.0468 0 0 8.930000e-002 -20.1056 275.7153)" gradientUnits="userSpaceOnUse">
			<stop  offset="0" style="stop-color:#FFFFFF"/>
			<stop  offset="1" style="stop-color:#14130A"/>
		</radialGradient>
		<path class="st41" d="M252.7,446c0,2.5-23.5,4.5-52.5,4.5c-29,0-52.5-2-52.5-4.5c0-2.5,23.5-4.5,52.5-4.5
			C229.2,441.5,252.7,443.5,252.7,446z"/>
	</g>
</mask>
<linearGradient id="SVGID_27_" gradientUnits="userSpaceOnUse" x1="200.1747" y1="450.4791" x2="200.1493" y2="441.6072">
	<stop  offset="0" style="stop-color:#4D4848"/>
	<stop  offset="0.3539" style="stop-color:#14130A"/>
	<stop  offset="1" style="stop-color:#14130A"/>
</linearGradient>
<path class="st42" d="M252.7,446c0,2.5-23.5,4.5-52.5,4.5c-29,0-52.5-2-52.5-4.5c0-2.5,23.5-4.5,52.5-4.5
	C229.2,441.5,252.7,443.5,252.7,446z"/>
<linearGradient id="SVGID_28_" gradientUnits="userSpaceOnUse" x1="163.6025" y1="367.6665" x2="237.646" y2="367.6665">
	<stop  offset="7.124010e-002" style="stop-color:#666666"/>
	<stop  offset="0.3272" style="stop-color:#333333"/>
	<stop  offset="1" style="stop-color:#000000"/>
</linearGradient>
<path class="st43" d="M237.6,299.9c0-5.8-4.7-10.5-10.5-10.5h-52.9c-5.8,0-10.5,4.7-10.5,10.5v135.6c0,5.8,4.7,10.5,10.5,10.5h52.9
	c5.8,0,10.5-4.7,10.5-10.5V299.9z M208.4,303.1c0,0.9-0.7,1.7-1.7,1.7h-11.3c-0.9,0-1.7-0.7-1.7-1.7V303c0-0.9,0.7-1.7,1.7-1.7h11.3
	c0.9,0,1.7,0.7,1.7,1.7V303.1z M232.5,423.6h-62.8V311.7h62.8V423.6z"/>
<rect x="169.8" y="311.7" class="st0" width="62.7" height="111.8"/>
<rect x="67.2" y="263.8" class="st35" width="22.9" height="22.9"/>
<rect x="90.2" y="263.8" class="st4" width="22.9" height="22.9"/>
<rect x="113.1" y="263.8" class="st33" width="22.9" height="22.9"/>
<rect x="136.1" y="263.8" class="st5" width="22.9" height="22.9"/>
<path class="st9" d="M105.4,274.2c-2.1-2.1-5.4-2.1-7.4,0l-0.8-0.8c2.5-2.5,6.6-2.5,9.1,0L105.4,274.2L105.4,274.2z M105,274.6
	l-0.8,0.8c-1.4-1.4-3.6-1.4-5,0l-0.8-0.8C100.2,272.8,103.2,272.8,105,274.6z M103.7,275.8l-0.8,0.8c-0.7-0.7-1.8-0.7-2.5,0
	l-0.8-0.8C100.7,274.7,102.6,274.7,103.7,275.8z M101.7,276.7c0.6,0,1.2,0.5,1.2,1.2c0,0.6-0.5,1.2-1.2,1.2c-0.6,0-1.2-0.5-1.2-1.2
	C100.5,277.3,101,276.7,101.7,276.7z"/>
<g id="_x33_50._Repeat_1_">
	<g>
		<path class="st9" d="M145.6,277.6c-0.7-0.6-1.1-1.4-1.1-2.4c0-1.4,1-2.6,2.3-2.9v-0.8c-1.7,0.3-3,1.9-3,3.7c0,1.1,0.5,2.1,1.3,2.8
			C145.7,278.7,146,277.9,145.6,277.6z M150,272.4c-0.4-0.4-1,0.2-0.6,0.5c0.7,0.6,1.1,1.4,1.1,2.4c0,1.4-1,2.6-2.3,2.9v0.8
			c1.7-0.3,3-1.9,3-3.7C151.3,274.1,150.8,273.1,150,272.4z M147.1,273l1.2-0.7c0.2-0.1,0.2-0.3,0-0.4l-1.2-0.8
			c-0.2-0.1-0.3,0-0.3,0.2l0,1.5C146.8,273,146.9,273.1,147.1,273z M148,277.5l-1.2,0.8c-0.2,0.1-0.2,0.3,0,0.4l1.2,0.7
			c0.2,0.1,0.3,0,0.3-0.2l0-1.5C148.3,277.5,148.1,277.4,148,277.5z"/>
	</g>
</g>
<g>
	<ellipse class="st9" cx="79.2" cy="270.3" rx="1" ry="1"/>
	<path class="st9" d="M81.6,273.1c-0.2-0.5-0.5-0.9-0.9-1.2c0,0-0.1-0.1-0.1-0.1c0,0,0,0,0,0c-0.6-0.3-1.9-0.2-2.5-0.1
		c0,0-0.1,0-0.1,0c0,0-0.1,0-0.1,0c0,0,0,0,0,0v0c-0.4,0.1-0.7,0-1.1-0.1c-0.2-0.4-0.3-0.8-0.4-1.2c0,0,0,0,0-0.1l-0.2-0.8
		c0-0.1-0.1-0.1-0.2-0.1c-0.1,0-0.1,0.1-0.1,0.2l0.1,0.4c-0.3-0.1-0.6,0.1-0.6,0.5c0.1,0.4,0.2,0.9,0.4,1.3c0.1,0.2,0.2,0.5,0.4,0.6
		c0.5,0.2,1,0.3,1.5,0.2l0,0.4c0,0.7,0,3.5,0,3.5l0,4.1c0,0.3,0.3,0.6,0.6,0.6c0.3,0,0.6-0.3,0.6-0.6v-4c0,0,0-0.2,0.2-0.2
		c0.2,0,0.2,0.2,0.2,0.2v4c0,0.3,0.3,0.6,0.6,0.6c0.3,0,0.6-0.3,0.6-0.6v-3.9l0-0.6c0.5-0.3,0.8-0.7,1.1-1.2
		c0.1-0.3,0.4-0.6,0.4-0.9C82,273.7,81.8,273.3,81.6,273.1z M81,274.1c-0.1,0.1-0.1,0.3-0.2,0.4c-0.1,0.1-0.2,0.3-0.3,0.4l0-2
		C80.7,273.3,80.9,273.6,81,274.1C81,274,81,274.1,81,274.1z M81,274C81,273.9,81,273.9,81,274L81,274z"/>
</g>
<g>
	<path class="st9" d="M125.7,276.9h-2.1v-1h-4.2v3c0,0.3,0.2,0.5,0.5,0.5h9.6c0.3,0,0.5-0.2,0.5-0.5v-3h-4.2V276.9z"/>
	<path class="st9" d="M129.4,272.4h-3.3c0,0,0-0.9,0-1.1c0-0.2-0.1-0.2-0.1-0.2h-3.1c0,0-0.1,0-0.1,0.2c0,0.2,0,1.1,0,1.1h-3
		c-0.3,0-0.5,0.2-0.5,0.5v2.3h10.6v-2.3C129.9,272.6,129.7,272.4,129.4,272.4z M123.3,272.4v-0.9h2.3v0.9H123.3z"/>
	<rect x="123.9" y="275.9" class="st9" width="1.4" height="0.7"/>
</g>
<rect x="179.3" y="335.5" class="st35" width="8.5" height="8.5"/>
<rect x="187.8" y="335.5" class="st4" width="8.5" height="8.5"/>
<rect x="196.3" y="335.5" class="st33" width="8.5" height="8.5"/>
<rect x="204.7" y="335.5" class="st5" width="8.5" height="8.5"/>
<path class="st9" d="M193.4,339.3c-0.8-0.8-2-0.8-2.7,0l-0.3-0.3c0.9-0.9,2.4-0.9,3.3,0L193.4,339.3L193.4,339.3z M193.3,339.5
	l-0.3,0.3c-0.5-0.5-1.3-0.5-1.8,0l-0.3-0.3C191.5,338.8,192.6,338.8,193.3,339.5z M192.8,339.9l-0.3,0.3c-0.3-0.3-0.7-0.3-0.9,0
	l-0.3-0.3C191.7,339.5,192.4,339.5,192.8,339.9z M192,340.2c0.2,0,0.4,0.2,0.4,0.4s-0.2,0.4-0.4,0.4c-0.2,0-0.4-0.2-0.4-0.4
	S191.8,340.2,192,340.2z"/>
<g id="_x33_50._Repeat_4_">
	<g>
		<path class="st9" d="M208.3,340.6c-0.3-0.2-0.4-0.5-0.4-0.9c0-0.5,0.4-1,0.8-1.1v-0.3c-0.6,0.1-1.1,0.7-1.1,1.4
			c0,0.4,0.2,0.8,0.5,1C208.3,341,208.4,340.7,208.3,340.6z M209.9,338.7c-0.1-0.1-0.4,0.1-0.2,0.2c0.3,0.2,0.4,0.5,0.4,0.9
			c0,0.5-0.4,1-0.8,1.1v0.3c0.6-0.1,1.1-0.7,1.1-1.4C210.3,339.3,210.2,338.9,209.9,338.7z M208.8,338.9l0.5-0.3
			c0.1,0,0.1-0.1,0-0.1l-0.5-0.3c-0.1,0-0.1,0-0.1,0.1l0,0.6C208.7,338.9,208.7,338.9,208.8,338.9z M209.1,340.5l-0.5,0.3
			c-0.1,0-0.1,0.1,0,0.1l0.5,0.3c0.1,0,0.1,0,0.1-0.1l0-0.6C209.2,340.5,209.2,340.5,209.1,340.5z"/>
	</g>
</g>
<g>
	<ellipse class="st9" cx="183.7" cy="337.9" rx="0.4" ry="0.4"/>
	<path class="st9" d="M184.6,338.9c-0.1-0.2-0.2-0.3-0.3-0.5c0,0,0,0,0,0c0,0,0,0,0,0c-0.2-0.1-0.7-0.1-0.9-0.1c0,0,0,0,0,0
		c0,0,0,0,0,0c0,0,0,0,0,0v0c-0.1,0-0.3,0-0.4,0c-0.1-0.1-0.1-0.3-0.1-0.5c0,0,0,0,0,0l-0.1-0.3c0,0,0,0-0.1,0c0,0,0,0,0,0.1l0,0.2
		c-0.1,0-0.2,0.1-0.2,0.2c0,0.2,0.1,0.3,0.1,0.5c0,0.1,0.1,0.2,0.2,0.2c0.2,0.1,0.4,0.1,0.6,0.1l0,0.1c0,0.3,0,1.3,0,1.3l0,1.5
		c0,0.1,0.1,0.2,0.2,0.2c0.1,0,0.2-0.1,0.2-0.2v-1.5c0,0,0-0.1,0.1-0.1c0.1,0,0.1,0.1,0.1,0.1v1.5c0,0.1,0.1,0.2,0.2,0.2
		c0.1,0,0.2-0.1,0.2-0.2v-1.4V340c0.2-0.1,0.3-0.3,0.4-0.4c0.1-0.1,0.1-0.2,0.1-0.3C184.8,339.1,184.7,339,184.6,338.9z
		 M184.4,339.3c0,0.1,0,0.1-0.1,0.2c0,0.1-0.1,0.1-0.1,0.1l0-0.7C184.3,339,184.4,339.1,184.4,339.3
		C184.4,339.3,184.4,339.3,184.4,339.3z M184.4,339.2C184.4,339.2,184.4,339.2,184.4,339.2L184.4,339.2z"/>
</g>
<g>
	<path class="st9" d="M200.9,340.3h-0.8v-0.4h-1.6v1.1c0,0.1,0.1,0.2,0.2,0.2h3.5c0.1,0,0.2-0.1,0.2-0.2v-1.1h-1.6V340.3z"/>
	<path class="st9" d="M202.3,338.6H201c0,0,0-0.3,0-0.4c0-0.1,0-0.1,0-0.1h-1.1c0,0,0,0,0,0.1c0,0.1,0,0.4,0,0.4h-1.1
		c-0.1,0-0.2,0.1-0.2,0.2v0.8h3.9v-0.8C202.4,338.7,202.4,338.6,202.3,338.6z M200,338.6v-0.3h0.9v0.3H200z"/>
	<rect x="200.2" y="339.9" class="st9" width="0.5" height="0.2"/>
</g>
<rect x="90.3" y="290.4" class="st5" width="23" height="23"/>
<path class="st9" d="M105.4,300.8c-2.1-2.1-5.4-2.1-7.4,0l-0.8-0.8c2.5-2.5,6.6-2.5,9.1,0L105.4,300.8L105.4,300.8z M105,301.2
	l-0.8,0.8c-1.4-1.4-3.6-1.4-5,0l-0.8-0.8C100.2,299.3,103.2,299.3,105,301.2z M103.8,302.4l-0.8,0.8c-0.7-0.7-1.8-0.7-2.5,0
	l-0.8-0.8C100.8,301.3,102.7,301.3,103.8,302.4z M101.7,303.3c0.6,0,1.2,0.5,1.2,1.2c0,0.6-0.5,1.2-1.2,1.2c-0.6,0-1.2-0.5-1.2-1.2
	C100.6,303.8,101.1,303.3,101.7,303.3z"/>
<rect x="67.3" y="290.4" class="st12" width="23" height="23"/>
<g>
	<ellipse class="st9" cx="79.2" cy="296.9" rx="1" ry="1"/>
	<path class="st9" d="M81.7,299.6c-0.2-0.5-0.5-0.9-0.9-1.2c0,0-0.1-0.1-0.1-0.1c0,0,0,0,0,0c-0.6-0.3-1.9-0.2-2.5-0.1
		c0,0-0.1,0-0.1,0c0,0-0.1,0-0.1,0c0,0,0,0,0,0v0c-0.4,0.1-0.7,0-1.1-0.1c-0.2-0.4-0.3-0.8-0.4-1.2c0,0,0,0,0-0.1l-0.2-0.8
		c0-0.1-0.1-0.1-0.2-0.1c-0.1,0-0.1,0.1-0.1,0.2l0.1,0.4c-0.3-0.1-0.6,0.1-0.6,0.5c0.1,0.4,0.2,0.9,0.4,1.3c0.1,0.2,0.2,0.5,0.4,0.6
		c0.5,0.2,1,0.3,1.5,0.2l0,0.4c0,0.7,0,3.5,0,3.5l0,4.1c0,0.3,0.3,0.6,0.6,0.6c0.3,0,0.6-0.3,0.6-0.6v-4c0,0,0-0.2,0.2-0.2
		c0.2,0,0.2,0.2,0.2,0.2v4c0,0.3,0.3,0.6,0.6,0.6c0.3,0,0.6-0.3,0.6-0.6v-3.9l0-0.6c0.5-0.3,0.8-0.7,1.1-1.2c0.1-0.3,0.4-0.6,0.4-1
		C82,300.3,81.8,299.9,81.7,299.6z M81,300.7c-0.1,0.1-0.1,0.3-0.2,0.4c-0.1,0.1-0.2,0.3-0.3,0.4l0-2
		C80.8,299.8,80.9,300.2,81,300.7C81,300.6,81,300.6,81,300.7z M81.1,300.5C81.1,300.5,81.1,300.5,81.1,300.5L81.1,300.5z"/>
</g>
<rect x="113.1" y="290.4" class="st2" width="23" height="23"/>
<g id="_x33_50._Repeat_3_">
	<g>
		<path class="st9" d="M122.7,304.2c-0.7-0.6-1.1-1.4-1.1-2.4c0-1.4,1-2.6,2.3-2.9v-0.8c-1.7,0.3-3,1.9-3,3.7c0,1.1,0.5,2.1,1.3,2.8
			C122.7,305.2,123.1,304.5,122.7,304.2z M127.1,299c-0.4-0.3-1,0.2-0.6,0.5c0.7,0.6,1.1,1.4,1.1,2.4c0,1.4-1,2.6-2.3,2.9v0.8
			c1.7-0.3,3-1.9,3-3.7C128.4,300.7,127.9,299.7,127.1,299z M124.2,299.6l1.2-0.7c0.2-0.1,0.2-0.3,0-0.4l-1.2-0.8
			c-0.2-0.1-0.3,0-0.3,0.2l0,1.5C123.9,299.6,124,299.7,124.2,299.6z M125,304.1l-1.2,0.8c-0.2,0.1-0.2,0.3,0,0.4l1.2,0.7
			c0.2,0.1,0.3,0,0.3-0.2l0-1.5C125.4,304.1,125.2,304,125,304.1z"/>
	</g>
</g>
<rect x="179.7" y="321.9" class="st35" width="11" height="11"/>
<rect x="190.8" y="321.9" class="st34" width="11" height="11"/>
<rect x="201.8" y="321.9" class="st44" width="11" height="11"/>
<g>
	<path class="st9" d="M207.4,325.4c-0.1,0-0.1,0-0.2,0.1l-1.4,0.9h-1.1c-0.1,0-0.1,0-0.2,0.1c-0.1,0.1-0.1,0.1-0.1,0.2v1.6
		c0,0.1,0,0.1,0.1,0.2c0.1,0.1,0.1,0.1,0.2,0.1h1.1l1.4,0.9c0.1,0.1,0.1,0.1,0.2,0.1c0.1,0,0.1,0,0.2-0.1c0.1-0.1,0.1-0.1,0.1-0.2
		v-3.5c0-0.1,0-0.1-0.1-0.2C207.6,325.4,207.5,325.4,207.4,325.4z"/>
	<path class="st9" d="M208.9,328c0.1-0.2,0.2-0.4,0.2-0.6c0-0.2-0.1-0.4-0.2-0.6c-0.1-0.2-0.3-0.3-0.5-0.4c0,0-0.1,0-0.1,0
		c-0.1,0-0.1,0-0.2,0.1c-0.1,0.1-0.1,0.1-0.1,0.2c0,0.1,0,0.1,0,0.1c0,0,0.1,0.1,0.1,0.1c0,0,0.1,0.1,0.1,0.1c0,0,0.1,0.1,0.1,0.1
		s0,0.1,0,0.2c0,0.1,0,0.2,0,0.2c0,0.1-0.1,0.1-0.1,0.1c0,0-0.1,0.1-0.1,0.1c0,0-0.1,0.1-0.1,0.1c0,0,0,0.1,0,0.1
		c0,0.1,0,0.1,0.1,0.2c0.1,0.1,0.1,0.1,0.2,0.1c0,0,0.1,0,0.1,0C208.6,328.3,208.8,328.2,208.9,328z"/>
	<path class="st9" d="M208.9,325.5c0,0-0.1,0-0.1,0c-0.1,0-0.1,0-0.2,0.1c-0.1,0.1-0.1,0.1-0.1,0.2c0,0.1,0.1,0.2,0.2,0.2
		c0.2,0.1,0.3,0.1,0.3,0.2c0.2,0.1,0.4,0.3,0.5,0.6c0.1,0.2,0.2,0.5,0.2,0.7s-0.1,0.5-0.2,0.7c-0.1,0.2-0.3,0.4-0.5,0.6
		c-0.1,0-0.2,0.1-0.3,0.2c-0.1,0.1-0.2,0.1-0.2,0.2c0,0.1,0,0.1,0.1,0.2c0.1,0.1,0.1,0.1,0.2,0.1c0,0,0.1,0,0.1,0
		c0.4-0.2,0.7-0.4,0.9-0.8c0.2-0.4,0.4-0.7,0.4-1.2c0-0.4-0.1-0.8-0.4-1.2C209.6,325.9,209.2,325.6,208.9,325.5z"/>
</g>
<path class="st9" d="M198.9,329.3l0-3.4c0-0.1-0.1-0.2-0.2-0.2h-2.4c-0.1,0-0.1-0.1-0.1-0.2v0c0-0.1-0.1-0.2-0.2-0.2h-1.3
	c-0.1,0-0.2,0.1-0.2,0.2v0c0,0.1-0.1,0.2-0.1,0.2h0c-0.1,0-0.2,0.1-0.2,0.2l0,1h-0.4c0,0-0.2,0-0.1,0.2l0.4,2.2
	c0,0.1,0.1,0.2,0.2,0.2h4.5C199,329.5,198.9,329.3,198.9,329.3z M198.7,327.2l0,2.2l-0.4-2.4c0-0.1-0.2-0.1-0.2-0.1h-3.6v-0.8h4.3
	V327.2L198.7,327.2z"/>
<path class="st9" d="M186.5,325.8h-2.4c-0.2,0-0.4,0.2-0.4,0.4v0.1h3.2v-0.1C186.9,326,186.7,325.8,186.5,325.8z M185.8,325.6
	l0.1,0.4h-1.1l0.1-0.4H185.8 M185.8,325.3h-1.1c-0.1,0-0.2,0.1-0.2,0.2l-0.1,0.6c0,0.1,0.1,0.2,0.2,0.2h1.3c0.1,0,0.2-0.1,0.2-0.2
	l-0.1-0.6C186,325.4,185.9,325.3,185.8,325.3L185.8,325.3z M186.5,326.6H184c-0.1,0-0.3,0.1-0.2,0.3l0.2,2.4c0,0.1,0.1,0.3,0.3,0.3
	h2c0.1,0,0.3-0.1,0.3-0.3l0.2-2.4C186.8,326.7,186.7,326.6,186.5,326.6z M184.7,329h-0.4l-0.1-1.9h0.5V329z M185.5,329H185v-1.9h0.5
	V329z M186.2,329h-0.4v-1.9h0.5L186.2,329z"/>
<rect x="212.8" y="321.9" class="st12" width="11" height="11"/>
<g>
	<ellipse class="st9" cx="218.6" cy="325" rx="0.5" ry="0.5"/>
	<path class="st9" d="M219.7,326.3c-0.1-0.2-0.2-0.4-0.4-0.6c0,0,0,0-0.1,0c0,0,0,0,0,0c-0.3-0.1-0.9-0.1-1.2-0.1c0,0,0,0-0.1,0
		c0,0,0,0,0,0c0,0,0,0,0,0v0c-0.2,0-0.3,0-0.5,0c-0.1-0.2-0.2-0.4-0.2-0.6c0,0,0,0,0,0l-0.1-0.4c0,0,0-0.1-0.1-0.1c0,0-0.1,0,0,0.1
		l0,0.2c-0.1,0-0.3,0.1-0.3,0.3c0,0.2,0.1,0.4,0.2,0.6c0,0.1,0.1,0.3,0.2,0.3c0.2,0.1,0.5,0.1,0.7,0.1l0,0.2c0,0.4,0,1.7,0,1.7l0,2
		c0,0.2,0.1,0.3,0.3,0.3c0.2,0,0.3-0.1,0.3-0.3v-1.9c0,0,0-0.1,0.1-0.1c0.1,0,0.1,0.1,0.1,0.1v1.9c0,0.2,0.1,0.3,0.3,0.3
		c0.2,0,0.3-0.1,0.3-0.3v-1.9v-0.3c0.2-0.1,0.4-0.3,0.5-0.6c0.1-0.1,0.2-0.3,0.2-0.5C219.9,326.7,219.8,326.5,219.7,326.3z
		 M219.4,326.8c0,0.1-0.1,0.1-0.1,0.2c0,0.1-0.1,0.1-0.1,0.2l0-0.9C219.3,326.4,219.4,326.6,219.4,326.8
		C219.4,326.8,219.4,326.8,219.4,326.8z M219.4,326.8C219.4,326.8,219.4,326.8,219.4,326.8L219.4,326.8z"/>
</g>
<rect x="567.8" y="301.4" class="st35" width="51.3" height="51.3"/>
<g>
	<polygon class="st9" points="598,327.5 587.7,327.5 587.7,329.1 588.7,329.1 588.7,337.1 596.1,337.1 596.1,329.1 598,329.1 	"/>
	<circle class="st9" cx="582.1" cy="318.9" r="1.8"/>
	<path class="st9" d="M607.5,325.5L607.5,325.5c-1.2,0.9-2.4,4.6-2.8,5.9c-0.1,0-0.3,0-0.5,0c-1.6,0-3,1.1-3.1,1.2l-0.1,0.1l0.4,0.6
		l0.1-0.1c0,0,0.7-0.5,1.6-0.8v3.4l-1,0.5l0.3,0.6l1-0.5l0.9,0.7l0.4-0.6l-1-0.8v-3.6c0.1,0,0.2,0,0.3,0c0.2,0,0.4,0,0.6,0.1
		l0.3,0.1l0.1-0.3c0.5-1.9,1.7-5.2,2.5-5.8l0.1-0.1L607.5,325.5z"/>
	<path class="st9" d="M585.1,324.4c-1,0.5-1.8,0.5-2.6,0.1c0.1-0.4,0.2-0.9,0.3-1.3c0.3-1-0.5-2-1.5-2.2c-0.6-0.1-1.1,0.1-1.5,0.4
		c-0.1,0-0.2,0.2-0.2,0.2c-0.4,1.3-0.6,3.8-0.6,3.8c0,3.8,0.3,4.8,0.8,5c0,1.8,0,3.7,0,5.5c0,1.1,1.8,1.1,1.8,0c0-1.9,0-3.8,0-5.8
		l0.4,0c0.1-0.2,0.2-0.5,0.2-0.9c0-0.9,0.1-1.9,0.2-2.8c1.2,0.4,2.5,0.3,3.9-0.4C587.2,325.5,586.2,323.8,585.1,324.4z"/>
	<path class="st9" d="M604.9,329.4c0.1-1.3,0.5-2.6,1.4-3.5c1.6-1.7-1-4.2-2.6-2.5c-0.2,0.2-0.4,0.4-0.6,0.7
		c-1.4-0.1-2.8-0.4-4.1-0.8c-0.3-0.1-0.6,0-0.8,0.1l-3.7-3.6l-0.3,0.3l3.7,3.6c-0.2,0.5-0.1,1.2,0.6,1.4c1.2,0.4,2.4,0.6,3.6,0.8
		c-0.5,1.1-0.7,2.2-0.8,3.5c-2.7,1.1-4.2,3.5-4.6,6.5c-0.2,1.5,2.2,1.5,2.4,0c0.3-2.4,1.7-4,4-4.6
		C604.1,331.2,604.8,330.4,604.9,329.4z"/>
	<circle class="st9" cx="605" cy="320.7" r="1.9"/>
</g>
</svg>
