<?xml version="1.0" encoding="utf-8"?>
<!-- Generator: Adobe Illustrator 19.0.0, SVG Export Plug-In . SVG Version: 6.00 Build 0)  -->
<svg version="1.1" id="Layer_1" 
	 xmlns="http://www.w3.org/2000/svg" xmlns:xlink="http://www.w3.org/1999/xlink" x="0px" y="0px" width="846px" height="402px"
	 viewBox="-748 61 846 402" style="enable-background:new -748 61 846 402;" xml:space="preserve">
<style type="text/css">
	.st0{fill:#0080D3;}
	.st1{fill:#FCFCFC;}
</style>

<rect x="-748" y="61" class="st0" width="846" height="402"/>
<g>
	<path class="st1" d="M-157.4,272.4c0-5.4-1.8-8.2-5.2-8.2c-1.8,0-2.9,0.9-5.2,2.7v12.5c2.3,1.6,3.4,2,4.8,2
		C-159.9,281.2-157.4,278.5-157.4,272.4z"/>
	<path class="st1" d="M-169.8,345.1l97.4-28.3V208.5h-203.8v108.3l97.4,28.3C-176.6,345.8-172.1,345.8-169.8,345.1z M-138.3,258.4
		l4.1,12.5c0.9,2.7,1.6,5.7,2.3,7.9h0.2c0.7-2.3,1.4-5.2,2-7.9l3.6-12.5h8.4l-10.2,29.9c-2.7,7.5-5.9,11.1-12.7,11.1
		c-1.8,0-2.9-0.5-4.1-0.7l1.6-6.8c0.5,0.2,1.4,0.2,2,0.2c2.9,0,4.3-1.6,5.2-3.9l0.5-1.1l-11.3-28.8H-138.3z M-176.6,244.8h9.1v10.6
		v4.8c2.3-2,5-3.4,7.7-3.4c7,0,11.3,6.1,11.3,15.4c0,10.4-5.9,17-12,17c-2.5,0-5.2-1.4-7.5-3.6h-0.2l-0.7,2.3h-7.7V244.8z
		 M-211.5,265.2c-1.1-0.2-2-0.5-3.4-0.5c-2.3,0-4.5,1.6-6.8,5.7v17.4h-9.1v-29.4h7.5l0.7,4.5h0.2c2.3-2.3,5.7-6.1,8.8-6.1
		c1.8,0,2.7,0.2,3.6,0.7L-211.5,265.2z M-181.1,287.8h-7.5l-0.7-4.5h-0.2c-2.5,2.3-5.2,4.8-9.5,4.8c-6.6,0-9.3-5-9.3-12.7v-19.3h9.1
		v18.1c0,4.3,1.1,5.9,3.6,5.9c2.3,0,3.2-0.9,5.4-3.4v-20.4h9.1C-181.1,256.3-181.1,287.8-181.1,287.8z"/>
	<path class="st1" d="M-167.3,353.9c-2,0.7-4.5,0.9-7,0.9s-5-0.2-7-0.9l-94.9-27.6v14.9c0,2.9,2.5,6.1,5.4,7l91.3,24.2
		c2.9,0.7,7.7,0.7,10.6,0l91.3-24.2c2.9-0.7,5.4-3.9,5.4-7v-14.9L-167.3,353.9z"/>
	<path class="st1" d="M-72.4,199.5v-24c0-2.9-2.5-5.4-5.4-5.4h-91.1c-2.9,0-8.2,0-11.1,0h-90.8c-2.9,0-5.4,2.5-5.4,5.4v24H-72.4z"/>
</g>
<g id="layer7" transform="translate(-273.27313,-435.95455)">
	<path id="path3993" class="st1" d="M-291.6,764.6v37.1h9.5V792l8.6,8.6h14.5l-11.5-11.5c0,0,8.3-0.1,8.9-12.1
		c0-11-8.3-12.4-17.9-12.4H-291.6z M-281.7,774.6h8.2v6.6h-8.2V774.6z"/>
	<path id="path3997" class="st1" d="M-240.7,764.7c-5.2,0-12.4,0.5-12.4,10.2v25.8h9.7v-6.3h9.4v6.2h9.8v-27.1
		c0-8.5-9.4-8.8-14.5-8.8C-239.3,764.7-240,764.7-240.7,764.7z M-243.2,774h9.1v10.2h-9.1V774z"/>
	<rect id="rect4001" x="-214.5" y="764.7" class="st1" width="10.1" height="35.5"/>
	<path id="path4003" class="st1" d="M-193.9,765.2v35.5h24.2v-9.4H-184V765L-193.9,765.2z"/>
	<path id="path4005" class="st1" d="M-137.6,764.9v9.6h-16.2v3.5c0,0,3.3,0,6.9,0s11.2-0.2,11.2,11.2c0,11.3-5.2,11.9-15.7,11.9
		c-10.5,0-12.7,0-12.7,0v-8.6c0,0,10.2,0,14.6,0c4.4,0,4.6-1.4,4.6-2.7s-2.2-1.8-6.8-1.8s-13.1-2.2-13.1-11
		c0-8.8,4.4-12.1,13.2-12.1S-137.6,764.9-137.6,764.9L-137.6,764.9z"/>
</g>
<g id="layer6" transform="translate(-273.27313,-435.95455)">
	<path id="path3966" class="st1" d="M-282.8,754h83.6c0,0-18.5-42.1-13.8-80.8c4.7-38.7,35.2-56.3,52.5-58.1
		c17.3-1.9,26.7,8.8,26.7,8.8l3.8-5.7c0,0-24.8-25.1-56.3-22.3c-31.4,2.8-53.1,23.6-66.6,48.7c-13.5,25.1-21.4,42.7-26.7,69.1
		C-285,740.2-282.8,754-282.8,754z"/>
	<path id="path3968" class="st1" d="M-299.5,711.9l16.3,1.3l-2.8,16.3l-15.4-1.9L-299.5,711.9z"/>
	<path id="path3970" class="st1" d="M-273.7,677.4l4.4-12.3l-14.5-5.7l-4.7,13.2L-273.7,677.4z"/>
	<path id="path3972" class="st1" d="M-253.3,635.2l8.5-10.1l-11-7.2l-8.8,9.7L-253.3,635.2z"/>
	<path id="path3974" class="st1" d="M-231,596.3l7.5,9.1l10.4-6l-7.5-8.5L-231,596.3z"/>
	<path id="path3976" class="st1" d="M-194.2,585.9l1.9,9.1l12.9-0.3l-1.3-8.2L-194.2,585.9z"/>
	<path id="path3978" class="st1" d="M-150.5,595.6l-0.3,5.7l8.8,4.7l1.9-2.8L-150.5,595.6z"/>
	<path id="path3980" class="st1" d="M-152.4,619.8v4.7l8.5,0.9v-3.8L-152.4,619.8z"/>
	<path id="path3982" class="st1" d="M-179.4,623.9l4.1,7.5l6-4.7l-1.3-5L-179.4,623.9z"/>
	<path id="path3984" class="st1" d="M-192.3,633.7l6.3,9.4l-3.8,6.6l-9.1-10.1L-192.3,633.7z"/>
	<path id="path3986" class="st1" d="M-204.9,659.8l-4.1,8.2l10.7,9.1l2.5-10.4L-204.9,659.8z"/>
	<path id="path3988" class="st1" d="M-209.3,688.4l-0.6,11l13.2,5.7l-0.6-10.4L-209.3,688.4z"/>
	<path id="path3990" class="st1" d="M-205.5,727.3l3.1,11.3l16.7,0.9l-6-12.3H-205.5z"/>
</g>
</svg>
