<?xml version="1.0" encoding="utf-8"?>
<!-- Generator: Adobe Illustrator 19.0.0, SVG Export Plug-In . SVG Version: 6.00 Build 0)  -->
<svg version="1.1" id="Layer_1" 
	 xmlns="http://www.w3.org/2000/svg" xmlns:xlink="http://www.w3.org/1999/xlink" x="0px" y="0px" width="777px" height="319px"
	 viewBox="-636 119 777 319" style="enable-background:new -636 119 777 319;" xml:space="preserve">
<style type="text/css">
	.st0{fill:#FCFCFC;}
	.st1{fill:url(#SVGID_1_);}
	.st2{fill:none;}
	.st3{fill:#8600FF;}
	.st4{fill:#FFFFFF;}
</style>
<rect x="-636" y="119" class="st0" width="777" height="319"/>
<linearGradient id="SVGID_1_" gradientUnits="userSpaceOnUse" x1="-513.6" y1="278.5" x2="-337.7856" y2="278.5">
	<stop  offset="0" style="stop-color:#FAAE42"/>
	<stop  offset="1" style="stop-color:#EF3E31"/>
</linearGradient>
<path class="st1" d="M-405.3,200C-328,252.5-353,310.5-353,310.5s22,24.8,13.1,46.5c0,0-9.1-15.2-24.3-15.2
	c-14.7,0-23.3,15.2-52.7,15.2c-65.7,0-96.7-54.8-96.7-54.8c59.2,38.9,99.5,11.4,99.5,11.4c-26.6-15.5-83.3-89.5-83.3-89.5
	c49.4,42,70.7,53.1,70.7,53.1c-12.7-10.5-48.4-62-48.4-62c28.6,28.9,85.3,69.3,85.3,69.3C-373.7,239.8-405.3,200-405.3,200z"/>
<g>
	<path class="st2" d="M-62.2,157.7c-1.1-0.3-2.2-0.4-3.4-0.2c-3.7,0.7-6,4.1-5.1,7.6l3.6,14.3c-20.4,4.7-37.1,18.3-43,37.8
		c0,0.1-0.1,0.2-0.1,0.3c0,0,0,0.1,0,0.1c0,0.1,0,0.2-0.1,0.2l-0.9,3c-2.3-4.6-6.5-8.3-12-10c-10.1-3-20.5,2.1-23.3,11.4l-15.7,52.1
		c-2.8,9.3,3.1,19.4,13.1,22.4c5.5,1.7,11.1,0.9,15.5-1.7l-2.2,7.3c-3,9.8,3.3,20.5,13.9,23.7l4.9,1.5l-7,23.2
		c-2.8,9.3,3.1,19.4,13.1,22.4c10.1,3,20.5-2.1,23.3-11.4l7-23.2l8.5,2.6l-7,23.2c-2.8,9.3,3.1,19.4,13.1,22.4
		c10.1,3,20.5-2.1,23.3-11.4l7-23.2l4.9,1.5c10.6,3.2,21.7-2.2,24.7-12.1l2.2-7.3c2.3,4.6,6.5,8.3,12,10c10.1,3,20.5-2.1,23.3-11.4
		L47,280.7c2.8-9.3-3.1-19.4-13.1-22.4c-5.5-1.7-11.1-0.9-15.5,1.7l0.9-2.9l0-0.1c0-0.1,0.1-0.2,0.1-0.2c0.1-0.2,0.1-0.3,0.1-0.4
		c5.9-19.5-0.5-40-14.9-55.3l10.9-9.9c2.7-2.4,2.6-6.6-0.1-9.2c-0.9-0.8-1.9-1.4-2.9-1.7c-2.4-0.7-5-0.3-6.9,1.4L-5.8,192
		c-6.6-4.8-14.3-8.6-22.7-11.1c-8.4-2.5-16.9-3.6-25.1-3.3l-3.7-15C-57.8,160.2-59.8,158.4-62.2,157.7L-62.2,157.7z"/>
	<path class="st3" d="M-124.5,215.3c-7.5-2.3-15.1,1.5-17.2,8.4l-15.7,52.1c-2.1,7,2.2,14.3,9.7,16.6c7.5,2.3,15.1-1.5,17.2-8.4
		l15.7-52.1C-112.7,224.9-117,217.6-124.5,215.3L-124.5,215.3z M32.6,262.7c-7.5-2.3-15.1,1.5-17.2,8.4l-15.7,52.1
		c-2.1,7,2.2,14.3,9.7,16.6c7.5,2.3,15.1-1.5,17.2-8.4l15.7-52.1C44.4,272.3,40.1,265,32.6,262.7L32.6,262.7z"/>
	<path class="st3" d="M-86.4,291.7c-7.5-2.3-15.1,1.5-17.2,8.4l-15.7,52.1c-2.1,7,2.2,14.3,9.7,16.6c7.5,2.3,15.1-1.5,17.2-8.4
		l15.7-52.1C-74.6,301.3-78.9,293.9-86.4,291.7L-86.4,291.7z M-41.5,305.2c-7.5-2.3-15.1,1.5-17.2,8.4l-15.7,52.1
		c-2.1,7,2.2,14.3,9.7,16.6c7.5,2.3,15.1-1.5,17.2-8.4l15.7-52.1C-29.7,314.8-34,307.5-41.5,305.2L-41.5,305.2z"/>
	<path class="st3" d="M-63.5,162.1c-0.3-0.1-0.6-0.1-1,0c-1.1,0.2-1.7,1.1-1.5,2.2l4.7,18.8c-20.9,3.3-38.3,16.3-44.1,35.6
		l120.2,36.3c5.8-19.2-1.5-39.7-17.1-54.1L12,187.8c0.8-0.7,0.8-1.9,0-2.6c-0.2-0.2-0.5-0.4-0.8-0.5c-0.7-0.2-1.4-0.1-2,0.4
		l-14.5,13.2c-6.9-5.6-15.2-10.1-24.5-12.9c-9.3-2.8-18.7-3.7-27.5-2.8l-4.8-19C-62.2,162.8-62.8,162.3-63.5,162.1L-63.5,162.1z
		 M-106.7,223l-24.4,80.8c-2.3,7.5,2.4,15.4,10.5,17.9l91.1,27.5c8,2.4,16.3-1.6,18.6-9.1l24.4-80.8L-106.7,223L-106.7,223z"/>
	<path class="st4" d="M-64,198.6c-2.7-0.8-5.6,0.6-6.4,3.1c-0.8,2.5,0.9,5.3,3.6,6.2c2.7,0.8,5.6-0.6,6.4-3.1
		C-59.7,202.3-61.3,199.5-64,198.6L-64,198.6z M-8.6,215.4c-2.7-0.8-5.6,0.6-6.4,3.1c-0.8,2.5,0.9,5.3,3.6,6.2
		c2.7,0.8,5.6-0.6,6.4-3.1C-4.2,219-5.8,216.2-8.6,215.4L-8.6,215.4z"/>
</g>
</svg>
